<svg xmlns="http://www.w3.org/2000/svg" viewBox="0 0 560.16 2727.44"><defs><style>.cls-1{fill:#0ed1b0;opacity:0.8;}.cls-2{fill:#8d8d8d;}.cls-3{fill:#163847;}.cls-4{fill:#53b1c5;}.cls-5{fill:#ccd3d6;}.cls-6{fill:#e16064;}.cls-7{fill:#efb703;}.cls-8{fill:#efb704;}.cls-9{fill:#cb5b62;}.cls-10{fill:#ca5b62;}.cls-11{fill:#ca5c63;}.cls-12{fill:#c95c63;}.cls-13{fill:#c85d64;}.cls-14{fill:#edb709;}.cls-15{fill:#c85e65;}.cls-16{fill:#e1b419;}.cls-17{fill:#e4b619;}.cls-18{fill:#e6b617;}.cls-19{fill:#e3b721;}.cls-20{fill:#cb716d;}.cls-21{fill:#edaa11;}.cls-22{fill:#ea9295;}.cls-23{fill:#e16165;}.cls-24{fill:#f9f9f9;}.cls-25{fill:#fafafa;}.cls-26{fill:#fbfbfb;}.cls-27{fill:#eb9c82;}</style></defs><g id="Capa_2" data-name="Capa 2"><g id="Capa_1-2" data-name="Capa 1"><path class="cls-1" d="M7.44,2338.93c3.93,14.76,8.55,22,18.85,29.66a97.42,97.42,0,0,0,14.51,7.52c16.44,6.2,38.06,5.72,49.16-1.09,10-6.15,17.88-13.45,21.91-20.39,2.8-4.81,3.59-8.31,3.75-16.63.25-12.4-.87-21.19-3.58-28.14-1.11-2.86-2-5.38-2-5.6a51.35,51.35,0,0,0-2.75-5.29c-4.07-7.23-8.57-11.68-15.3-15.14a65.56,65.56,0,0,1-7.81-4.64c-5.46-4.16-15.6-7.25-25.65-7.83-7.43-.43-12.52.79-23,5.5-6.93,3.13-9.61,5.14-14.29,10.77-2.05,2.47-4.13,4.89-4.63,5.38-.93.94-1.06,1.4-.92,3.22a10.47,10.47,0,0,1-1.46,3.84c-2.64,4.71-5.75,13.59-7.28,20.78H7A43.56,43.56,0,0,0,7.44,2338.93Zm101.28-.38c-.27,1-.35,1-2,.27a4.59,4.59,0,0,1-1.71-1.05c0-.55,3.11-4.06,3.55-4.06S109.17,2336.88,108.72,2338.55Zm-3-30.55c.1,0,.32.34.48.75s.07.76-.19.76-.49-.34-.49-.76S105.6,2308,105.71,2308Zm-.72,18.92c2.13-2.09,2.19-2.06,2.76,1.36.27,1.66.2,1.85-.59,1.56a6.6,6.6,0,0,1-1.52-.8,2.16,2.16,0,0,0-1.63-.23h0a2.77,2.77,0,0,1-1,.17C103,2328.92,103.9,2328,105,2326.92ZM48.28,2372a10.29,10.29,0,0,1-2.29-.6c-.92-.34-1.67-.81-1.67-1.06s.4-.29.88-.09a15,15,0,0,0,2,.62C48.46,2371.17,49.27,2372,48.28,2372Zm3.5-14.3c2.16-2.15,3-2.72,3.22-2.18.29.76-.77,1.9-4.28,4.58C47.9,2362.28,48.45,2361,51.78,2357.73Zm20.42,16.19c-.2.2-4.13.35-8.73.33-5.73,0-9.15-.28-10.86-.78-3.57-1.06-1.69-1.57,2.6-.71,1.88.37,5,.82,7,1,3.25.28,3.82.18,6.43-1.15l2.86-1.45.55,1.21C72.33,2373,72.41,2373.72,72.2,2373.92Zm16.17-86c.27-.43.8-.24,1.86.66,1.45,1.23,1.46,1.26.23.93C88.51,2289,88,2288.62,88.37,2288Zm-1.3,62.71c.9,1.65.81,2.25-.42,2.71a22.45,22.45,0,0,0-3.37,1.92c-1.15.78-2.38,1.59-2.72,1.79h0c-1.17.69-.63,0,2.82-3.41C85.28,2351.8,86.94,2350.44,87.07,2350.68Zm-5.84-55.45q3.3-2.86,4.61-2.87c1.65,0,1.37.27-3.78,3.48a40.3,40.3,0,0,1-4.13,2.42A42.44,42.44,0,0,1,81.23,2295.23Zm-12-11.89c1.23-1.21,2.33-2.11,2.46-2s-.78,1.22-2,2.43-2.33,2.11-2.45,2S68,2284.56,69.2,2283.34ZM71.83,2328c.92-.68,2.63-2.12,3.79-3.22,1.86-1.75,4.73-3.62,5.55-3.62s-1.67,2.67-3.28,3.41c-1,.48-5.59,4.41-10.09,8.73s-9.25,8.83-10.56,10a17.75,17.75,0,0,1-2.37,2C54.89,2344.78,70.33,2329,71.83,2328ZM57.49,2300c.51-.43.81-.33,1.28.42s.48,1,0,1a2.88,2.88,0,0,1-1.29-.42C56.93,2300.67,56.94,2300.49,57.49,2300Zm6.73,13.25c1.58-.67.78.27-4.61,5.43C51,2327,46.93,2330.77,45,2332.43h0a7.71,7.71,0,0,1-1.61,1.2c0-.09,4.28-4.53,9.5-9.86C59.08,2317.4,63,2313.81,64.22,2313.29Zm-17.75,4.27c.68-.86,3.87-3.21,3.87-2.85a14.73,14.73,0,0,1-2.26,2.08C45.74,2318.72,45.44,2318.87,46.47,2317.56Zm8.23-36.29c1-.36.06.79-3.36,4.05-2.62,2.51-5.61,5.25-6.64,6.09a10.56,10.56,0,0,1-1.86,1.38C42.93,2292,53.61,2281.66,54.7,2281.27Zm-27.41,73.62c-.36.56-.62.6-1.05.17s-.32-.72.48-1.15C27.84,2353.3,28.05,2353.66,27.29,2354.89ZM36.78,2367a4.58,4.58,0,0,1-2-1l-1.25-1,1.25.34C36.39,2365.68,37.9,2367,36.78,2367Zm-2.24-9.16a15.67,15.67,0,0,1,2.76-1.64c0,.75-2.31,4.76-2.73,4.74a5.26,5.26,0,0,1-1.66-.65C31.82,2359.66,31.86,2359.59,34.54,2357.82Zm-13.07-56.75c.67-.77,2.56-3,4.2-4.92a61.66,61.66,0,0,1,4.42-4.79c1.59-1.38,1.79-1.62-3.51,4.28a8.64,8.64,0,0,0-1.81,2.57,11.47,11.47,0,0,1-2.26,2.95C20.18,2303.64,19.29,2303.56,21.47,2301.07ZM25,2317.58c-1,.94-1.75,1.55-1.75,1.36,0-.6,2.92-3.64,3.21-3.35S26,2316.65,25,2317.58Zm-3.75,13.66c2.46-3.07,3.47-3.93,5.78-4.87,1.61-.66,2.71-.89,2.6-.56-.18.54-6.84,6.18-10,8.48a4.66,4.66,0,0,1-1.36.84C18.27,2335,19.61,2333.29,21.26,2331.24Zm-1,16.09,1.3.25-1.14,2.26-1.14,2.26-1.54-3.27h0c-1.48-3.15-2.19-6-.94-3.77A4.57,4.57,0,0,0,20.3,2347.33ZM13.74,2320c.41-2.46,1.27-4.47,1.91-4.47s1.59,1.17,1.59,2-.57,1.59-3.12,4.74C13.18,2323.48,13.17,2323.42,13.74,2320Z"/><path class="cls-2" d="M470.88,2262.82a7.62,7.62,0,0,1,1.78,1.56c.47.78,7.91,4.18,11.75,5.37s8.52,1.91,8.93,1.39-1.1-2.89-4-7.1c-3.61-5.18-4.26-6.31-6.11-10.64a33.51,33.51,0,0,1-2.47-9.49c-.4-5.36.84-13.46,2.71-17.64a19.91,19.91,0,0,0,1.16-3.25,22.1,22.1,0,0,1,4-7.78,54.25,54.25,0,0,1,9.43-8.5c4.95-3.09,13.27-5.88,18.64-6.25a24.47,24.47,0,0,1,9.17,1c2.55.69,14.7,5,15.22,5.43a4.07,4.07,0,0,0,1.64,0c1.31-.17,1.4-.23,1.47-1,.17-1.95-2.46-6-6.34-9.86-4.53-4.45-13.19-10-18.82-12-1.5-.55-3.37-1.27-4.15-1.61-4-1.75-14.8-3.18-20.37-2.69-3.93.35-13.38,3.54-16.07,5.43a75.2,75.2,0,0,0-7.45,6.82h0a6.11,6.11,0,0,0-.87,1.07c-.08.18-1.35,1.86-2.81,3.72-4,5.18-5.39,8.4-7.59,18.12a69.63,69.63,0,0,0-2.1,14.19c0,1.33-.05,3-.09,3.65-.11,1.49.37,4.63.72,4.77a13.86,13.86,0,0,1,1,3.74,51.74,51.74,0,0,0,2.09,7.14c.4.92,1.08,2.57,1.53,3.67C464.44,2256,468.21,2261,470.88,2262.82Zm16.27,2.82.42.87-.69-.76h0a3.44,3.44,0,0,1-.74-1.15C486.06,2264,486.68,2264.65,487.15,2265.64Z"/><path class="cls-2" d="M512.82,2486.09a34.4,34.4,0,0,0,1.31,4.65c.5,1.37,1,2.74,1.09,3.06s.73,1.7,1.41,3.06a22.45,22.45,0,0,0,5.82,7.36,27.47,27.47,0,0,0,14.26,4.63c2.51.07,6.2-.22,6.73-.55a15.13,15.13,0,0,1,1.59-.52,36,36,0,0,0,7.56-3.17,16.5,16.5,0,0,1,2.78-1.35,13.28,13.28,0,0,0,2.57-2.32c1.78-1.87,2.22-2.5,2.22-3.22a2.48,2.48,0,0,0-1.52-2.5c-.95-.49-.85-.49-9.23.08-3.1.21-6.88-.28-8.53-1.11-2.76-1.38-5.42-5.12-6.9-9.67a13.19,13.19,0,0,1-.31-7.6c1.11-5.31,1.74-6.75,4.41-10,1.52-1.82,6-4.92,7.53-5.19a32.84,32.84,0,0,0,3.24-.91,19.65,19.65,0,0,1,4.85-.88c2.46-.15,2.69-.22,2.69-.75,0-.71-1.93-2.63-4.09-4.08a8.46,8.46,0,0,1-1.9-1.61c-.33-.55-2.2-1.24-6-2.22a23.2,23.2,0,0,0-4.7-.44,10.32,10.32,0,0,0-5.48,1,34,34,0,0,0-3.62,1.75,6.91,6.91,0,0,1-1.27.7,29.68,29.68,0,0,0-2.61,1.64,45.79,45.79,0,0,0-5.8,5,26.13,26.13,0,0,0-5.59,7.24,50.46,50.46,0,0,0-2.48,7.49h0A35.35,35.35,0,0,0,512.82,2486.09Zm4.37-11.49a35.86,35.86,0,0,1,1.86-5c2.2-4.56,9-10.59,15.8-14,5.33-2.66,10.94-2.65,14.31,0a7,7,0,0,1,1.34,1.22s-1.32.4-2.84.79c-5.26,1.34-11.42,5-13.89,8.35a29.56,29.56,0,0,0-4,8.2,10.52,10.52,0,0,0-.75,5.3c.17,3,.61,4.5,2.48,8.25,3.58,7.2,7.89,9.84,16.55,10.14a38.92,38.92,0,0,0,5.57-.13,6.35,6.35,0,0,1,1.66-.16,12.09,12.09,0,0,1-.57,1.25,5.68,5.68,0,0,1-2.54,2.28c-6.27,3.68-10.71,5-16.28,4.8-6.88-.22-9.56-1.46-12.67-5.89-.74-1-1.51-2.09-1.71-2.29a50.45,50.45,0,0,1-3.19-6.61,36,36,0,0,1-1.38-5.24h0c-.09-.64-.23-2.86-.3-4.94C516.47,2477.6,516.53,2477,517.19,2474.6Z"/><path class="cls-2" d="M529.5,152c-.91-.19-1.34.1-1.24.84s.45.86,3.15,1.8c1.06.37,3.05,1.2,4.41,1.85,2.25,1.07,3.33,1.49,3.88,1.5a2.83,2.83,0,0,1,.5.08l.9.19h0c1.29.25,1.4,0,.31-.71C537.46,155,532.17,152.53,529.5,152Z"/><path class="cls-2" d="M505.86,151.17a43.73,43.73,0,0,0,6.35.3c.1,0,.19.1.21.26a118.4,118.4,0,0,1-4.14,11.51c-.73,1.75-1.4,3.49-1.48,3.88a2.41,2.41,0,0,0,.24,2.06c.37.28.42.25,1.26-.59a14.15,14.15,0,0,1,1.14-1,6.87,6.87,0,0,0,1.06-1.67,29.46,29.46,0,0,1,6.91-9,8.84,8.84,0,0,0,1.17-1.16c.41-.64.37-.67,3.62,2.26a19,19,0,0,0,1.92,1.48l1.51,1a46.22,46.22,0,0,0,6.91,3.85,1.36,1.36,0,0,0,1.62-.55c.25-.57-.26-1.35-1.64-2.48a28.66,28.66,0,0,1-2.63-2.65,63.53,63.53,0,0,1-5.42-7.37l-.2-.5,2-.27a89.69,89.69,0,0,0,10.26-2.06c1-.32,2.33-.69,2.91-.84,1.08-.27,2-.89,1.94-1.31s-.78-.71-2.11-.58a59,59,0,0,1-8.72.06c-.64-.06-1.65-.1-2.24-.09a27.26,27.26,0,0,1-4.68-.53,4.72,4.72,0,0,1,.57-1.49c.38-.77.91-1.95,1.17-2.63,1-2.6,3-7.16,3.32-7.8s.42-1.1.1-2.31c-.24-.88-.31-.94-.84-.72s-5.9,7.23-7.2,9.32c-.44.7-1.07,1.61-1.41,2l-.62.76-.87-.76c-.47-.41-1.59-1.57-2.48-2.57a70.89,70.89,0,0,0-7-7.15c-1.05-.83-1.11-.85-1.42-.49a2.88,2.88,0,0,0-.63,2.09,15.65,15.65,0,0,0,2.12,4.81,17.72,17.72,0,0,1,1.12,2,20.83,20.83,0,0,0,1.45,2.28c1.16,1.68,1.37,2.1,1.15,2.22s-2.51.45-5.25.82a34.56,34.56,0,0,0-6.37,1.16,25.82,25.82,0,0,1-3.8.86c-2.74.42-3,.57-2.84,1.67.09.64.18.75.75.92a8.17,8.17,0,0,0,2.92.41A83,83,0,0,1,505.86,151.17Zm14.3,0a4.86,4.86,0,0,1,.69.69c.67.77.68,1,0,.24S520.06,151.2,520.16,151.18Z"/><path class="cls-2" d="M518.45,159c-.19.47-.16.74.19,1.82.23.7.79,2.46,1.24,3.92a13.9,13.9,0,0,0,1.11,2.89c.24.21.3.19.47-.1a2.74,2.74,0,0,0,.23-1,45.49,45.49,0,0,0-2-7.53C519.34,158.21,518.76,158.21,518.45,159Z"/><path class="cls-2" d="M506.4,154.57c-.79.11-4.35,2.64-6.19,4.4-1.64,1.57-2.82,3.34-2.5,3.74s.8.07,2.17-1.28c.47-.47,2.05-1.75,3.49-2.85s2.81-2.16,3-2.36C507.11,155.54,507.12,154.48,506.4,154.57Z"/><path class="cls-2" d="M507.08,142.4c.32-.5-.27-1.3-1.33-1.81-2.23-1.07-5.66-2.55-7.75-3.34-1.69-.64-2.25-.78-2.35-.57a1.39,1.39,0,0,0-.11.37,6.77,6.77,0,0,0,1.93,1.28c.11,0,.17,0,.13.13s.28.35.7.59c1.26.73,6.5,3.18,7.36,3.44h0C506.64,142.79,506.85,142.78,507.08,142.4Z"/><path class="cls-2" d="M516.79,125.33q-.51,1.08-.1,5.49c.13,1.47.3,3.67.36,4.88a5.78,5.78,0,0,0,.36,2.42c.16.15.33.15.55,0,.57-.41.54-4.32-.07-9.2C517.4,124.94,517.23,124.4,516.79,125.33Z"/><path class="cls-2" d="M539.27,137c-.29,0-.54.06-.56.16s-.37.27-.78.38a7.79,7.79,0,0,0-1,.35,9.72,9.72,0,0,1-2.34.67c-2.44.55-4.72,1.43-5.37,2.07s-1,1.4-.72,1.82h0c.2.38.72.29,1.78-.3a18.52,18.52,0,0,1,2.53-1,16,16,0,0,0,3.69-1.54,5.61,5.61,0,0,1,1.06-.55,3.84,3.84,0,0,0,1.23-.84,2.23,2.23,0,0,1,.7-.59.6.6,0,0,0,.44-.83c-.08-.21-.24-.29-.41-.2s-.21.18,0,.3S539.64,137,539.27,137Z"/><path class="cls-2" d="M64.17,2593.23a12.8,12.8,0,0,0-4.12-.07c-1.34.23-5.08.62-6.17.66-.41,0-1.58.1-2.6.19a23.4,23.4,0,0,1-5.33-.15c-1.92-.18-3.58-.3-3.7-.28s-.6-1.13-1.11-3.14c-.19-.76-1.54-5.4-1.76-6.06-.1-.3-.34-1.07-.53-1.72s-.44-1.44-.56-1.79a12.36,12.36,0,0,1-.35-1.54c-.53-3.12-.66-3.75-.93-4.35s-.37-.68-.73-.72c-.69-.08-1.2.42-1.86,1.84l-1.67,3.51c-.58,1.22-1.27,2.74-1.53,3.38-.48,1.21-.74,1.8-2.3,5.26-.52,1.14-1.18,2.64-1.46,3.32l-.52,1.24-1.19-.53A77.52,77.52,0,0,0,14.19,2588c-1.24-.37-2.45-.77-2.69-.87a14.71,14.71,0,0,0-3.41-.9,1.47,1.47,0,0,0-1,1.06c-.11.33,0,.6,1,2,.63.89,1.56,2.24,2.06,3s1.62,2.38,2.49,3.58c1.77,2.44,2.93,4.27,2.9,4.58a.51.51,0,0,0,.24.39,7.38,7.38,0,0,1,1,1.35c.42.65,1,1.44,1.2,1.75a3,3,0,0,1,.42.65c-.06.62-14.57,12.51-17,13.92-1.43.84-1.67,1.22-1.36,2.13.25.71.44.79,1.57.65a25.92,25.92,0,0,1,4.32,0c.78,0,1.94.06,2.56,0s1.88,0,2.78.08,2.72.16,4,.21,3.58.18,5,.29l2.61.2.39,1.73c.68,3,1.08,5.08,1.29,6.73.11.88.38,2.47.59,3.53s.47,2.47.58,3.15c.62,3.73.85,4.6,1.3,4.94s.46.31,1,.13,1.29-1.07,1.87-2.47a12.3,12.3,0,0,1,.78-1.48,21.09,21.09,0,0,0,1.09-2.06c.6-1.28,2.35-4.59,3.28-6.21a34.28,34.28,0,0,0,2.35-5.18c.94-2.53,1.15-3,1.39-2.94a24.83,24.83,0,0,1,2.37,1.51l2.61,1.76c.24.14,1.09.71,1.91,1.26s2.37,1.5,3.47,2.11,2.44,1.39,3,1.73a18.23,18.23,0,0,0,1.89,1.05l.9.42.46-.27c.77-.45.9-.84.59-1.7a28.71,28.71,0,0,0-2-4c-.29-.49-.74-1.35-1-1.92a19.52,19.52,0,0,0-1-1.75,13.16,13.16,0,0,1-.87-1.68,10.9,10.9,0,0,0-.88-1.67,28,28,0,0,1-2.15-4.29l-.88-2.19-.39-1,.32-.36c.18-.2.93-.87,1.67-1.49a18.25,18.25,0,0,0,2.15-2.19,13.35,13.35,0,0,1,1.45-1.59c.34-.3,1.25-1.19,2-2,1.72-1.77,5.39-5.26,7.51-7.17.87-.78,1.75-1.61,2-1.84h0a2.1,2.1,0,0,0,.43-.89C64.54,2593.45,64.48,2593.34,64.17,2593.23Zm-53.3-3.75,0,.38-.4-.47a1.9,1.9,0,0,1-.36-.51,1.54,1.54,0,0,1,.44.09C10.82,2589.07,10.9,2589.18,10.87,2589.48Zm3.82,1.48c-.15.2-.21.23-.15.09a2,2,0,0,0,.13-.48c0-.11.09-.2.17-.19S15,2590.55,14.69,2591Zm1,6c-.12,0-.21-.09-.2-.17s.11-.09.22,0,.22.13.21.17S15.86,2597,15.73,2597Zm1.64-4.64a7.6,7.6,0,0,1-1.17,2c-.15,0,0-.81.29-1.93s.45-1.3.83-1.16h0C17.62,2591.31,17.63,2591.6,17.37,2592.31Zm-9.78,25.45c0,.35-.18.46-.52.42s-.2-.33.23-.54C7.57,2617.51,7.61,2617.52,7.59,2617.76Zm5.18.27c-.27,0-.27-.56,0-.9s.16-.18.15,0a2.31,2.31,0,0,0,0,.57C13,2618,13,2618.05,12.77,2618Zm.35-5.76a28,28,0,0,1-1.21,3.41c-.11.2-.29.58-.41.86-.19.44-.19.37,0-.53.1-.57.23-1.44.28-1.93a1.72,1.72,0,0,1,.76-1.5C13,2612.11,13.15,2612,13.12,2612.27Zm6.49-20.07a18.74,18.74,0,0,1-1.28,2.88,6.59,6.59,0,0,1,.38-1.29c.23-.67.47-1.37.54-1.55s.18-.32.26-.32S19.63,2592.06,19.61,2592.2Zm2.25,17.14a23.53,23.53,0,0,1-.81,3.69s.08-1.35.21-2.9.21-3.21.18-3.67a3.47,3.47,0,0,1,.11-1.29c.13-.34.15-.14.1.94a4,4,0,0,0,.15,1.74A2.51,2.51,0,0,1,21.86,2609.34Zm-.31-14.94c-.27.68-.54,1.43-.6,1.67a9.48,9.48,0,0,1-.83,2.07c-.13.1-.14.11.8-3a6.8,6.8,0,0,1,.84-2.2C22.07,2593,22,2593.13,21.55,2594.4Zm1.68,2.21a.42.42,0,0,1-.11-.36c0-.22,0-.22.15,0S23.4,2596.75,23.23,2596.61Zm.38-.85c0,.17-.07.2-.1.08s0-.24,0-.28S23.63,2595.6,23.61,2595.76Zm.38-.84c-.17.43-.65.64-.61.27,0-.09.08-.11.17,0s.13,0,.08-.23.27-1,.51-1h0C24.29,2593.94,24.24,2594.31,24,2594.92Zm.63,7c0,.18-.07.21-.1.08s0-.24,0-.28S24.64,2601.74,24.62,2601.89Zm.27-1.41c0,.28-.07.4-.09.25a1.3,1.3,0,0,1,.05-.52C24.91,2600.07,24.92,2600.19,24.89,2600.48Zm.46,23.1c0,.16-.05.29-.08.29s-.08-.14-.11-.31,0-.3.09-.29S25.37,2623.41,25.35,2623.58Zm0-25c-.37,1.37-.37,1.38-.17.28.12-.61.27-1.44.34-1.84a5.36,5.36,0,0,1,.77-2.26h0c.15,0,.14.09-.25,1.41C25.89,2596.72,25.58,2597.8,25.37,2598.57Zm1.11,5.47c0,.24-.07.32-.09.17a.92.92,0,0,1,.05-.45C26.49,2603.67,26.51,2603.79,26.48,2604Zm.35-2.08c0,.5-.1.68-.1.4a3.57,3.57,0,0,1,.1-.89C26.88,2601.25,26.89,2601.47,26.83,2602Zm1,32.95c-.17.56-.17.55-.1-.28,0-.48.13-.85.21-.84S28,2634,27.78,2634.91Zm.36-14.88c-.13.24-.15.2-.12-.21s.1-.45.18-.39S28.36,2619.64,28.14,2620Zm.84-26.58c0,.12-.08.22-.16.21s-.1-.11,0-.23.14-.21.17-.21S29,2593.33,29,2593.45Zm2.33,37.76c-.36,1.51-.45,1.51-.21,0a6.75,6.75,0,0,1,.39-1.54C31.7,2629.39,31.66,2629.72,31.31,2631.21Zm1.92-23.75c-.13.24-.15.21-.12-.2s.11-.48.19-.47S33.45,2607.07,33.23,2607.46Zm.31-1.61c0,.17-.06.2-.1.08a.34.34,0,0,1,0-.29C33.54,2605.6,33.56,2605.69,33.54,2605.85Zm-.11-4.62c-.08,1-.15,2-.15,2.21s-.23.57-.37.39a15.41,15.41,0,0,1,.3-2.28l.38-2.19Zm1.68,8.29-.35.17.19-.93a17.31,17.31,0,0,0,.28-1.71c.1-.9.34-1.08.3-.21,0,.3,0,1-.05,1.53C35.46,2609.27,35.43,2609.37,35.11,2609.52Zm.51,3.54a10,10,0,0,1-.27,1.48c-.14.44-.15.38-.08-.39a7.71,7.71,0,0,1,.27-1.48C35.71,2612.14,35.71,2612.17,35.62,2613.06Zm.14-8.57c0,.45-.09.63-.1.4a3.22,3.22,0,0,1,.08-.82C35.8,2603.85,35.81,2604,35.76,2604.49Zm1.29-14.63c0,.16-.06.29-.09.29s-.08-.14-.1-.31,0-.3.08-.29S37.06,2589.69,37.05,2589.86Zm1.31,6.57c.06-.09.07,0,0,.28s-.08.32-.1.17A.92.92,0,0,1,38.36,2596.43Zm.39,18.12c-.34,1.32-.81,1.85-.52.59a16.26,16.26,0,0,1,.87-2.73C39.24,2612.3,39.07,2613.34,38.75,2614.55Zm1.75-14.87c0,.22-.13.79-.21,1.25-.22,1.32-.45,1-.3-.44.11-1,.18-1.26.36-1.24S40.55,2599.4,40.5,2599.68Zm1,17.48a1.65,1.65,0,0,1-.41.92c-.21.17.09-.83.31-1S41.56,2617,41.53,2617.16Zm-.11-5.9a.16.16,0,0,1-.13-.17c0-.09.08-.11.15-.05s.14.13.14.17S41.5,2611.27,41.42,2611.26Zm2.3-14.67c-.2,0-.35.13-.53.54-.26.64-.3.66-.66.33s-.2-.27.33-.91.65-.67,1-.67.48.06.47.13A.74.74,0,0,1,43.72,2596.59Zm.85,3.41a3.86,3.86,0,0,1,.38-1.69c.22-.25.23-.24.27.06a.85.85,0,0,1,0,.36s-.21,1.24-.41,2.7-.4,2.68-.44,2.71A26.88,26.88,0,0,1,44.57,2600Zm.46,11.41c-.26-.59-.3-1.09-.07-.91a.48.48,0,0,1,.11.4.7.7,0,0,0,.25.51.62.62,0,0,1,.26.4C45.54,2612.16,45.29,2612,45,2611.41Zm.52,11.93c-.09-.11-.12-.24-.07-.28s.12.05.16.2S45.68,2623.5,45.55,2623.34ZM48,2597.27c-.08.58-.68,3.25-.92,4.12a8.63,8.63,0,0,1,.15-1.9c.24-2,.32-2.38.56-2.58S48.08,2596.71,48,2597.27Zm2.29,2.6a12.94,12.94,0,0,1-.7,2,7.73,7.73,0,0,1,.3-2.42c.14-.43.15-.43.29-.09A1.23,1.23,0,0,1,50.29,2599.87Zm-.08-2c-.16.63-.17.61-.09-.34a2.63,2.63,0,0,1,.24-1.08C50.54,2596.38,50.49,2596.84,50.21,2597.88Zm.86,6.19c-.56.43-.61.27-.15-.46.23-.39.34-.46.48-.31S51.62,2603.64,51.07,2604.07Zm1.49-3c0,.25-.07.33-.09.18a.82.82,0,0,1,.05-.45C52.57,2600.69,52.59,2600.82,52.56,2601.06Zm.59-5.12c-.15-.12-.14-.15.05-.2a.34.34,0,0,1,.31,0h0C53.75,2596.07,53.48,2596.2,53.15,2595.94Zm2.22,2.89c-.07.44-.45,1.2-.58,1.19s-.1-.28-.07-.61.15-.62.38-.72S55.41,2598.61,55.37,2598.83Zm.44-3c-.46.46-.6.46-.44,0s.51-.65.74-.63S56.2,2595.4,55.81,2595.79Zm2.34,1.62-.4.24.1-.48a1.2,1.2,0,0,1,.62-.8c.29-.17.51-.26.5-.19A2.19,2.19,0,0,1,58.15,2597.41Zm3.41-2.78c-.09,0-.16,0-.15-.08a.16.16,0,0,1,.17-.15c.08,0,.14,0,.14.08S61.64,2594.58,61.56,2594.63Z"/><path class="cls-2" d="M532,2640.4c.58-.05.46-.19,1.63,1.94.31.58.74,1.32.94,1.65a18.52,18.52,0,0,1,1,1.79c.14.31.43.86.63,1.21s.65,1.18,1,1.85a17.64,17.64,0,0,0,.91,1.56,2.29,2.29,0,0,1,.39.78c.16.62.59.69,1,.15.16-.23.17-.4.09-.85a7.05,7.05,0,0,1,0-1.7,16.32,16.32,0,0,0,0-3.63c0-.45-.1-1.6-.13-2.55s-.07-1.85-.1-2a1.53,1.53,0,0,1,.66-1.12,11.82,11.82,0,0,0,2.24-1.32c.54-.37,1.51-1,2.16-1.44s1.47-1,1.83-1.25a11.32,11.32,0,0,1,1.26-.83,18,18,0,0,0,2.28-1.48c.76-.6.25-.87-1.65-.84-1.16,0-4-.07-7.13-.19a22.41,22.41,0,0,0-2.37,0,8.34,8.34,0,0,1-.93,0c-.16,0-.44-.62-1.11-2.3-.19-.48-.48-1.11-.64-1.42l-.8-1.48c-.27-.51-.67-1.23-.89-1.61a26,26,0,0,1-1.49-3.44c-.26-.75-.47-1-.77-.93s-.47.35-.48.79c0,1-.26,4-.45,5.5a12.41,12.41,0,0,0-.09,1.55c0,.38,0,1.52,0,2.52l0,1.84-.52.39a28.15,28.15,0,0,1-2.49,1.74,14.75,14.75,0,0,0-1.38,1,44.18,44.18,0,0,1-5,3.42c-.28.15-.51.32-.5.38a1.84,1.84,0,0,1,0,.28c0,.23.57.52,1,.54a6.38,6.38,0,0,0,1-.07,31.1,31.1,0,0,1,3.42-.21C528.07,2640.62,531,2640.47,532,2640.4Zm14.35-6.37a1,1,0,0,1,.43-.14l.38-.06-.35.18C546.5,2634.18,546.27,2634.19,546.37,2634Zm-1.8-.84a2.49,2.49,0,0,1,.39,0c.24,0,.23,0-.1.12s-.38.06-.39,0A.12.12,0,0,1,544.57,2633.19Zm-.38,2.52a.36.36,0,0,1,.25-.15c.09,0,.07.08-.06.19S544,2635.94,544.19,2635.71Zm-1.4,1c.05-.09.12-.14.16-.11s0,.09-.09.15S542.72,2636.81,542.79,2636.69Zm-1,.41c.28.11.29.11-.36.43l-.28.14.19-.33C541.49,2637,541.52,2637,541.76,2637.1Zm-1.51-4.13a2.7,2.7,0,0,0,.53,0c.46,0,.62.12.33.26s-.87,0-.91-.19S540.2,2633,540.25,2633Zm-1,3.07a.58.58,0,0,1,.19-.33h0c.23-.16.34-.07.16.14C539.21,2636.3,539.21,2636.3,539.27,2636Zm.13,2.12c.46.1.46.19,0,.39-.24.09-.62,0-.67-.17S539.07,2638.08,539.4,2638.16Zm-2.64,6.34a.18.18,0,0,1,0-.19s.06,0,.08.11S536.81,2644.57,536.76,2644.5Zm-.46-9.32s.12,0,.17.05,0,.15-.05.17S536.18,2635.3,536.3,2635.18Zm.32,1.22a3,3,0,0,1,.51-.1,1.37,1.37,0,0,1-.2.36l-.2.32-.31-.22-.3-.23Zm-1.08-6.14c.05.19.05.27,0,.18a.82.82,0,0,1-.09-.35C535.45,2630,535.49,2630.07,535.54,2630.26Zm-2.31,4.21a.49.49,0,0,1,.21.18s-.07,0-.17,0-.19-.13-.2-.18S533.13,2634.41,533.23,2634.47Zm-1.3-1.17c0-.14.09-.14.3,0,.43.22.36.38-.11.26C532,2633.49,531.89,2633.42,531.93,2633.3Zm-.62,6c.07-.14.17-.23.22-.21a.8.8,0,0,1,.27.2c.14.16.13.18,0,.16a1.75,1.75,0,0,0-.39,0C531.19,2639.5,531.19,2639.49,531.31,2639.26Zm-1.4-2.54c.28-.24.31-.24.55-.1l.26.15-.54.14a1.92,1.92,0,0,1-.56.1A1,1,0,0,1,529.91,2636.72Zm-4.79,2.93c-.28.12-.46.15-.48.09s.2-.18.47-.29C525.9,2639.15,525.9,2639.31,525.12,2639.65Z"/><path class="cls-2" d="M282.5,2263.65a1,1,0,0,0-1-.66c-.22,0-1.37-.08-2.54-.21a60.64,60.64,0,0,0-6.43-.4c-1.95,0-2-.05-1.7-.71a23,23,0,0,0,.81-3.29,23.17,23.17,0,0,1,.89-3.36,19.16,19.16,0,0,0,.69-2.79c0-.24.23-.93.41-1.53a8.4,8.4,0,0,0,.31-1.23c0-.08-.17-.21-.36-.29s-.36-.14-1,.49c-.36.36-1,1-1.42,1.53s-1.44,1.52-2.26,2.31-1.93,1.92-2.46,2.53-1.43,1.55-2,2.11-1.17,1.17-1.37,1.37-.39.34-.55.21c-.5-.38-2.68-2.53-3.51-3.45a37.5,37.5,0,0,0-3.37-3.21c-.44-.37-.47-.38-.87-.3-.23.05-.44.14-.47.22a13.47,13.47,0,0,0,.58,3.11c.17.65.91,2.71,1.64,4.59l1.34,3.42-.27.2a5.29,5.29,0,0,1-1.25.51,30.88,30.88,0,0,0-4.78,2c-.82.42-1.54.77-1.62.78a13,13,0,0,0-2.46,1.44.82.82,0,0,0,.1.53c.14.32.26.41,1,.74a6.72,6.72,0,0,0,2.3.56c.82.1,1.83.21,2.25.23l1.73.08a33.5,33.5,0,0,1,4.08.43c.54.15.53.06.35,2.26-.07.89-.16,2.23-.19,3-.06,1.28-.4,4.49-.54,5.1a1.3,1.3,0,0,0,0,.42,5.38,5.38,0,0,1-.08.93c-.12.76-.12.8.22,1s.38.25.63.12a.92.92,0,0,0,.37-.32,10.55,10.55,0,0,1,1.06-1.12l1.4-1.35a8.94,8.94,0,0,0,1-1.21,11.76,11.76,0,0,1,.77-1.06c.52-.57,1.8-2.15,2.17-2.67.62-.9.62-.89.93-.69.15.1.48.36.73.57l1.25,1.07a11.06,11.06,0,0,1,2.15,2.37c0,.05.06.13.17.18a2,2,0,0,1,.52.48,13.12,13.12,0,0,0,2.12,2c.24.11.32.09.4-.1a11.76,11.76,0,0,0-.42-3.15c-.09-.31-.24-.95-.34-1.42s-.36-1.37-.56-2-.48-1.54-.59-2-.24-1-.28-1.08a5.74,5.74,0,0,1-.17-.69c-.06-.27-.3-1-.54-1.65l-.43-1.15.47-.23,1.36-.67c.85-.42,2.8-1.34,3-1.4a1.64,1.64,0,0,0,.34-.18c.13-.08.76-.37,1.39-.65,1.59-.68,4-1.82,4.58-2.14S282.54,2263.91,282.5,2263.65ZM250.39,2269c-.16.36-.33.44-.68.28s-.12-.18.39-.43l.46-.22Zm21.86,10.17a1.64,1.64,0,0,1,.18-.49,6.73,6.73,0,0,1,.27.92,4.72,4.72,0,0,1,.17.91,4.15,4.15,0,0,1-.41-.44C272.15,2279.73,272.13,2279.65,272.25,2279.21Zm-15.1-23.07a2.39,2.39,0,0,0-.15.54c0,.24-.1.19-.46-.51s-.58-1.28-.47-1.32a4.42,4.42,0,0,1,.62.51C257.2,2255.82,257.26,2255.91,257.15,2256.14Zm.18,1.91.31-.76.32-.76,1,1.13a6.07,6.07,0,0,1,1,1.23c0,.06-.19.29-.35.52a13.43,13.43,0,0,0-.66,1.22l-.37.81-.6-1.7Zm-3.86,9.83c-.16.36-.39.93-.5,1.28l-.21.62-.73-.05a1.9,1.9,0,0,1-.79-.16,2,2,0,0,1,.26-.8c.32-.68.36-.71,1.15-1.13C253.75,2267.05,253.83,2267.08,253.47,2267.88Zm1.74,2.07-.65,0c-.95-.06-1-.08-.73-.77.12-.34.32-1,.46-1.47l.25-.86,1.13-.4,1.13-.41-.28.79c-.15.43-.51,1.32-.79,2Zm2.62.19-.89-.09-.89-.09.37-.76c.21-.42.61-1.4.9-2.17l.53-1.41.78-.48a6,6,0,0,0,.81-.57,3.76,3.76,0,0,0-.22-.92l-.27-.84.78-1.64a10.14,10.14,0,0,1,.89-1.68c.06,0,.39.23.74.56l.64.6-.65,1.37c-.35.75-1.09,2.36-1.64,3.57s-1.19,2.73-1.44,3.38Zm2.4.37a4.92,4.92,0,0,1-1.5-.23s.85-2,1.91-4.45l1.93-4.4.72-.71c2.32-2.29,3.22-3.2,3.66-3.7l.49-.57-.51,1.13c-.28.62-.54,1.14-.56,1.15s-1.35,2.65-3.85,7.78A22.32,22.32,0,0,1,260.23,2270.51Zm.24,7.89c-.11.36-.12.15,0-.87a16.69,16.69,0,0,1,.38-3.15,1.43,1.43,0,0,0,.08-.6.36.36,0,0,1,0-.3,5.19,5.19,0,0,0-.07-1.93c-.08-.32-.06-.47.05-.52.45-.23,1.7-2.53,4-7.4.74-1.57,1.74-3.55,2.22-4.41s1.05-1.91,1.28-2.34l.81-1.52a7.87,7.87,0,0,1,.65-1,3.32,3.32,0,0,0,.4-.63,4.88,4.88,0,0,1,.71-.89c.32-.32.74-.78.94-1,.33-.43.31-.35-.41,1.33-.42,1-2.13,4.78-3.8,8.44-4.13,9-6.13,13.61-6.65,15.11C260.82,2277.35,260.56,2278.13,260.47,2278.4Zm6.1-5.9a13.17,13.17,0,0,1-1.25,3c-.15.2-.42.6-.61.88a10.27,10.27,0,0,1-1.14,1.31c-.45.44-1.23,1.28-1.74,1.87l-.92,1.08.19-.62.51-1.75c.18-.62.72-2.07,1.19-3.23,1.28-3.12,7.64-17.37,7.5-16.8-.22.87-1,4.47-1,4.53a1.76,1.76,0,0,0,.37.28l.35.24-.25.57c-.14.31-.22.56-.18.56s0,.13-.06.32c-.55,1.36-1.62,4.22-1.86,5a13.55,13.55,0,0,1-.73,1.8A2.71,2.71,0,0,0,266.57,2272.5Zm4.95,2.8.23.58c.36.9.42,1.3.21,1.41s-.2.2-.25.52-.28,1-.36,1a2.23,2.23,0,0,1-.32-.34c-.19-.23-.23-.36-.14-.48a.5.5,0,0,0,0-.44c-.09-.22,0-.49.25-1.25Zm-.49-.94a6.77,6.77,0,0,0-.87,2.06c-.21.89-.2.88-.77.38-.72-.65-.7-.53-.28-1.65s.89-2.56,1.08-3.26l.11-.44.11.35c0,.19.26.79.45,1.33C271.18,2274,271.2,2274.14,271,2274.36Zm.19-7.73c-.28,1.06-.66,1.9-.83,1.83-.47-.2-.77.34-.65,1.16.1.6.07.74-.31,1.75a19.25,19.25,0,0,0-.61,2,9.23,9.23,0,0,1-.86,2.24l-.48-.45a1.66,1.66,0,0,0-.56-.43c-.2,0-.12-.29.58-2.09.39-1,.89-2.36,1.1-3s.73-2,1.14-3.08a19.69,19.69,0,0,0,.83-2.48l.09-.56.82,0h.82l-.41,1.09C271.66,2265.14,271.36,2266.08,271.22,2266.63Zm4.36-2.2c-.6,1.62-.73,1.84-1.26,2.14a7.23,7.23,0,0,1-2.23.93,17.3,17.3,0,0,1,1.31-4,18,18,0,0,1,2-.05l.55,0Zm2.76-.18c-.11.4-.18.46-1,.87a4.47,4.47,0,0,1-.91.41s0-.22.11-.46a9.66,9.66,0,0,0,.36-1l.17-.53.66.07a4.09,4.09,0,0,1,.67.12A2.77,2.77,0,0,1,278.34,2264.25Zm1-.13c-.06-.16.19-.32.44-.28s.22.07.2.11S279.4,2264.22,279.36,2264.12Z"/><path class="cls-2" d="M406,2489.89l.93-.42a10.52,10.52,0,0,1,4.18-1.09c.66,0,1.62-.07,2.13-.12a9.15,9.15,0,0,1,1.17,0,1.31,1.31,0,0,0,1-.78c.05-.47-.08-.69-.55-1a15.07,15.07,0,0,0-1.82-.88,18.76,18.76,0,0,1-3.35-1.61c-.38-.22-.94-.52-1.23-.66l-1-.47-.43-.21.08-.71c0-.39.15-1.28.24-2,.34-2.57.79-8.37.67-8.52s-.12-.11-.13,0a.13.13,0,0,1-.15.12,1.06,1.06,0,0,0-.46.38l-.92,1a11.9,11.9,0,0,0-1,1.18,17.51,17.51,0,0,1-1.15,1.32c-.95,1-2.57,2.74-3.16,3.4l-.46.51-.49-.38c-.27-.21-.79-.57-1.15-.8s-1.1-.78-1.64-1.22-1.32-1-1.73-1.3-1.08-.8-1.5-1.15a17.81,17.81,0,0,0-1.9-1.3l-1.39-.83c-.14-.09-.53-.38-.85-.64a2.69,2.69,0,0,0-.86-.52,1.08,1.08,0,0,0-.85.62c-.19.39,1.86,5.17,3.05,7.12a15.08,15.08,0,0,1,.9,1.7,16.28,16.28,0,0,0,2,3.73,6.19,6.19,0,0,1,.79,1.22,2.43,2.43,0,0,1-.42.59c-.22.25-.81.95-1.3,1.55s-1.16,1.36-1.48,1.7-.67.74-.79.88a7.55,7.55,0,0,1-.57.58,27.93,27.93,0,0,0-2.39,2.55c-.43.55-.69,1.17-.54,1.28a2,2,0,0,0,.66,0c.68-.12,3.62-.82,4.24-1a10.84,10.84,0,0,1,1.38-.27,23.88,23.88,0,0,0,5-1.15c.76-.24,1-.26,1-.13l.76,1.21c.6,1,1.62,2.83,2.57,4.76l.89,1.78h0a5.11,5.11,0,0,0,.61,1,.8.8,0,0,0,.69-.51,72.21,72.21,0,0,0,.72-8.24c0-.52,0-1.26,0-1.63Zm-.83-.19a2.61,2.61,0,0,1-.19.57,11.37,11.37,0,0,0-.08,2.77c0,.55-.05,1.63-.11,2.39a10.94,10.94,0,0,0-.06,1.78h0a2.78,2.78,0,0,1,0,.86c-.07.4-.1.43-.17.22s-.36-.79-.69-1.46c-1.92-3.84-3.23-6-3.72-6a15.14,15.14,0,0,0-2.91.7,8.8,8.8,0,0,1-1.39.32,18.65,18.65,0,0,0-3.07.59c-.32.1-.85.26-1.16.34-.56.14-1.37.36-2.06.56l-.33.09.24-.32c.13-.18.65-.74,1.16-1.26,1.44-1.46,2.67-2.81,3.5-3.83.41-.51,1-1.14,1.19-1.39a7.31,7.31,0,0,0,.76-1l.33-.58-.23-.43a12.61,12.61,0,0,0-.8-1.16,11,11,0,0,1-1.62-2.9A15.72,15.72,0,0,0,393,2479c-.88-1.58-2.51-4.69-2.5-4.78s0-.13.94.38a11.36,11.36,0,0,1,1.66,1.16c.46.39,1.07.87,1.36,1.07.57.4,1.94,1.47,2.61,2,.23.19.75.57,1.15.83s1,.66,1.29.88a1.44,1.44,0,0,0,.74.34,5.47,5.47,0,0,0,1.44-1.28c.48-.55,2.24-2.47,2.85-3.09.36-.37.68-.76,1.87-2.22.15-.18.31-.29.35-.23s-.5,6.87-.72,8c-.28,1.43-.3,1.38,1.13,2a24.07,24.07,0,0,1,2.51,1.37,13.22,13.22,0,0,0,1.62.91c.43.13.45.32,0,.28a6.58,6.58,0,0,0-1.92.3l-.94.31a16.62,16.62,0,0,0-1.69.77C405.56,2488.7,405.4,2488.86,405.21,2489.7Z"/><path class="cls-1" d="M35.32,104.49A7.85,7.85,0,0,1,37.1,106c.47.79,7.91,4.19,11.75,5.37s8.51,1.92,8.93,1.4-1.11-2.89-4.05-7.1c-3.61-5.18-4.26-6.31-6.1-10.64a32.85,32.85,0,0,1-2.47-9.49c-.4-5.36.84-13.46,2.71-17.64A20.92,20.92,0,0,0,49,64.69a22.1,22.1,0,0,1,4-7.78,53.49,53.49,0,0,1,9.43-8.5c4.94-3.09,13.26-5.88,18.63-6.26a24.67,24.67,0,0,1,9.17,1c2.56.69,14.71,5,15.23,5.43a4,4,0,0,0,1.63,0c1.31-.17,1.4-.23,1.47-1,.18-2-2.45-6-6.33-9.86-4.53-4.46-13.19-10-18.82-12-1.51-.55-3.37-1.27-4.15-1.61-4-1.75-14.8-3.18-20.37-2.69C55,21.83,45.52,25,42.84,26.91a74,74,0,0,0-7.45,6.82h0a6,6,0,0,0-.87,1.06c-.09.19-1.35,1.87-2.81,3.73-4.05,5.18-5.39,8.39-7.59,18.12A69.54,69.54,0,0,0,22,70.83c0,1.33-.05,3-.1,3.65-.1,1.49.38,4.63.73,4.77a14.28,14.28,0,0,1,1,3.74,50.55,50.55,0,0,0,2.1,7.14c.39.92,1.08,2.57,1.53,3.67C28.88,97.69,32.65,102.71,35.32,104.49Zm16.27,2.82.41.87-.68-.77h0a3.33,3.33,0,0,1-.74-1.14C50.5,105.69,51.11,106.32,51.59,107.31Z"/><line class="cls-2" x1="153.03" y1="67.09" x2="153.03" y2="67.09"/><path class="cls-2" d="M260.85,40.79c0,.1-1.57,2.48-1.86,2.86-.43.56-.36.72.37.92a3,3,0,0,0,1.49,0c.47-.09,1.88-.29,3.14-.45s2.92-.41,3.69-.57a20.13,20.13,0,0,1,2.42-.35,11.09,11.09,0,0,0,1.24-.13c.28-.08.35.05.4.74,0,.26.17,1.11.34,1.89s.34,1.58.38,1.79c.13.59.31,2,.4,2.94a4.92,4.92,0,0,0,.6,2.37,1.07,1.07,0,0,0,1.13,0c.22-.27,3.21-5.55,3.65-6.44.21-.44.57-1.24.79-1.78a6,6,0,0,1,.49-1.05,24.33,24.33,0,0,1,2.75.41,35.49,35.49,0,0,0,4.78.68l2,.17a10.07,10.07,0,0,0,1.63,0c.57-.06,1.18-.39,1.25-.68a2.66,2.66,0,0,0-.66-.82c-.38-.37-1.09-1.11-1.57-1.65s-1.17-1.24-1.52-1.56a17.18,17.18,0,0,1-2.74-3.26c-.71-1.15-.75-1.34-.4-1.78a14.36,14.36,0,0,0,.86-1.34c.32-.54.93-1.48,1.35-2.07s1-1.38,1.2-1.75.89-1.25,1.44-2c1-1.25,1-1.29,1-1.74a1.3,1.3,0,0,0-.31-.68c-.24-.2-.31-.2-1,.08a14.64,14.64,0,0,1-1.81.65,24.47,24.47,0,0,0-2.42.87,1.58,1.58,0,0,1-.38.17c-.18.05-.94.33-1.71.6-1.62.59-1.92.64-2,.37a.31.31,0,0,0-.17-.22c-.08,0-.2-.29-.27-.61a34.6,34.6,0,0,0-1-3.94c-.31-1-.64-1.92-.74-2.14a8.06,8.06,0,0,1-.68-2.19c.07-.32-.69-.7-1-.47a2.7,2.7,0,0,0-.38.79,10.65,10.65,0,0,1-.53,1.22c-.73,1.38-2.23,4.33-2.52,5-.37.82-1,1.78-1.2,1.75a1.51,1.51,0,0,1-.4-.32,13,13,0,0,0-1.05-.9,28.62,28.62,0,0,1-2.74-2.37c-.33-.33-.72-.71-.89-.85s-.59-.5-.95-.82-1-.83-1.41-1.13c-.64-.47-.85-.57-1.26-.59a1,1,0,0,0-.64.14.88.88,0,0,0-.16.24c0,.07.78,3,1,3.77a12.68,12.68,0,0,1,.61,2.5,11.9,11.9,0,0,0,.85,2.58,10,10,0,0,1,.47,1.34.24.24,0,0,0,.14.2.3.3,0,0,1,.12.27,3.34,3.34,0,0,0,.27,1,6.35,6.35,0,0,1,.33,1c0,.37-2.13,3-3.45,4.14a13.77,13.77,0,0,0-1.2,1.17C261.89,39.41,260.87,40.73,260.85,40.79Zm3.4-.35a10.87,10.87,0,0,0,1.46-1.62.16.16,0,0,1,.13-.13A19.19,19.19,0,0,0,269,34.8a.57.57,0,0,1,.26-.38c.19-.09.18-.2-.07-1.09a22.7,22.7,0,0,0-1-2.83,11,11,0,0,1-.7-2.49,5.64,5.64,0,0,0-.35-1.13,14,14,0,0,1-.87-2.74,4.42,4.42,0,0,1,.63.52c.31.28,1,.83,1.47,1.22a39.16,39.16,0,0,0,4.2,3.13,9.05,9.05,0,0,1,1.15.68c1.18.79,1.3.84,1.66.64s.38-.53.08-.75-.39-1.16-.16-2c.11-.38.29-1.06.41-1.52a7.09,7.09,0,0,1,.31-1c0-.09.24-.58.42-1.09a8.44,8.44,0,0,1,1.15-2.27c.06,0,.18.29.27.73a2.34,2.34,0,0,0,.26.82.1.1,0,0,1,.08.12,6.23,6.23,0,0,0,.25,1,25.33,25.33,0,0,1,.84,3.79c.21,1.57.2,1.68-.19,2s-.45.5-.22.81.24.22,1.79-.26c.89-.28,1.65-.5,1.69-.49a10.31,10.31,0,0,0,1.24-.36c.64-.2,1.47-.45,1.84-.55s1-.31,1.38-.45a2.85,2.85,0,0,1,.73-.23,8.52,8.52,0,0,1-1.42,1.74,40.28,40.28,0,0,0-4.06,5.4,3.16,3.16,0,0,0,.84,1.13,13.88,13.88,0,0,1,2.25,2.21,10.23,10.23,0,0,0,1.25,1.33,14.47,14.47,0,0,1,2.2,2.19c0,.06-.37,0-.78,0a17.18,17.18,0,0,0-2.28-.22,26.8,26.8,0,0,1-4.41-.49,5.41,5.41,0,0,0-2.08-.19.7.7,0,0,1-.4.1.68.68,0,0,0-.45.19,56.78,56.78,0,0,0-3.08,5.28c-.75,1.58-.69,1.59-.91,0a9.5,9.5,0,0,0-.58-2.52c-.12-.28-.35-1-.53-1.63l-.49-1.69a2.76,2.76,0,0,1-.15-.73c0-.12,0-.11-.23,0a.75.75,0,0,1-.62.14,5.39,5.39,0,0,0-2.28.34,10.13,10.13,0,0,1-1.47.37,5.3,5.3,0,0,0-1.53.52,4.62,4.62,0,0,1-1.48.5c-.46.07-.94.16-1.08.19l-.73.15c-.27,0-.59.12-.71.16a.7.7,0,0,1-.33,0c-.06,0-.11-.06-.1-.1S263.48,41.22,264.25,40.44Z"/><path class="cls-2" d="M456.24,11.27a26.61,26.61,0,0,1-5.05.48.87.87,0,0,0-.53.11.81.81,0,0,1-.44.12c-.2,0-.4.39-.26.56a3.35,3.35,0,0,0,.87.33c.43.12,1.39.44,2.13.72a15.73,15.73,0,0,0,2.42.71,10.62,10.62,0,0,1,1.95.57c.48.21,1,.41,1.14.45s.21.13-1,1c-.68.49-1.61,1.15-2.08,1.47a6.08,6.08,0,0,0-.89.66c-.26.77-.12,1,.47.68a8.75,8.75,0,0,1,2.59-.87l1.5-.15a14.63,14.63,0,0,0,1.51-.23,5.23,5.23,0,0,1,.77-.15,1.81,1.81,0,0,1,.18.73,10.73,10.73,0,0,0,.28,1.35c.09.35.27,1.3.39,2.11a11.15,11.15,0,0,0,.79,3,7.55,7.55,0,0,1,.78,2.88.81.81,0,0,0,.12.46.8.8,0,0,1,.12.49h0c-.05.22,0,.25.18.23a1.13,1.13,0,0,0,.34-.08,22.21,22.21,0,0,0,1.17-3.59c.2-.78.48-1.75.61-2.15.41-1.21,1.15-3.9,1.31-4.73.11-.59.18-.77.27-.71l.66.44,1.47.95c1.18.75,3.2,2.09,3.63,2.41s.66.22.75-.27a.52.52,0,0,0-.18-.56c-.25-.24-1.07-1.18-1.93-2.21-.28-.34-.65-.78-.84-1a9.37,9.37,0,0,1-1.13-1.49,7.7,7.7,0,0,1,1.05-.08c.57,0,1.56-.08,2.22-.14l2-.17A27.44,27.44,0,0,0,479,15c.61-.15,1.24-.54,1.24-.77s-.16-.21-.49-.32c-3.25-1.07-4.59-1.5-5.87-1.88a20.53,20.53,0,0,1-2.31-.85c-.44-.22-1-.47-1.26-.56s-.44-.19-.4-.26.3-.52.57-1a20.65,20.65,0,0,1,1.71-3c.43-.56.51-1,.27-1.26-.1-.12-.25-.07-.84.27A11.49,11.49,0,0,0,469.4,7L468.26,8c-.11.08-.19-.12-.35-.89a44.41,44.41,0,0,0-1.21-4.36A16.18,16.18,0,0,1,466.23,1c-.22-1.18-.64-1.28-1.35-.31a8.41,8.41,0,0,0-1,2.43c-.15.48-.4,1.3-.56,1.8a17,17,0,0,1-.73,1.92c-.24.55-.46,1.1-.49,1.23-.05.28-.07.27-.79-.19l-2-1.25c-.79-.48-2-1.2-2.59-1.62a13.13,13.13,0,0,0-1.26-.76c-.06,0-.2.1-.32.26-.27.35-.23.5.39,1.26.27.32.52.64.57.71s1.21,1.42,2.72,3.15a7.55,7.55,0,0,1,.85,1.07,6.52,6.52,0,0,1-1.31.26C457.62,11,456.68,11.19,456.24,11.27Zm2,.68c-.11,0-.13-.06,0-.07a.19.19,0,0,1,.19,0S458.31,12,458.21,12Z"/><path class="cls-3" d="M384.72,2298.92h1.88c2.88.59,5.69,1.45,8.7,1.37,1.63,0,2.78,1.19,3.54,2.44,1.47,2.46,3.82,3.83,6,5.39a4.85,4.85,0,0,1,1.47,1.16c2.13,3.5,5.32,6.38,6.32,10.56a19.28,19.28,0,0,0,1.1,3.09c1.49,3.37,2.78,6.75,2.51,10.6-.16,2.4,1.09,4.67,1.58,7a20.55,20.55,0,0,1,.68,6c-.34,3.42-.05,6.88-.67,10.27a.92.92,0,0,0,0,.46c1.54,4.42-1.14,8.18-1.91,12.23-.48,2.52-.14,5.15-1.12,7.6-.11.28,0,.67-.16.91-2.67,4-3.76,8.77-6.07,13-.07.13-.28.24-.28.37,0,3.37-3,5.28-3.85,8.25a4.55,4.55,0,0,1-.84,1.93c-2.73,2.9-4.68,6.76-7.89,8.86-4,2.6-7,6.1-10.64,9a21.11,21.11,0,0,1-4.84,2.79c-1.66.7-2.79,2.43-4.63,3-.44.14-.81.54-1.25.63-4.38.95-8.24,3.24-12.42,4.69-2.28.79-3.2,1.75-3.5,4.12-.71,5.74-1.36,11.46-.62,17.28.38,3.06-1.38,5.88-1.91,8.88-.62,3.48-.94,7-1.26,10.46-.9,9.8-1.51,19.62-2.85,29.38a19.15,19.15,0,0,1-1.65,5.61,12.43,12.43,0,0,1-.9,1.37c-2.66,3.53-4.35,3.85-8.11,1.68-1.36-.78-2.43-2-3.84-2.68-2.33-1.2-3-1-4.16,1.38a28.42,28.42,0,0,0-1.13,3.57,11.29,11.29,0,0,1-5.47,7.56,11.4,11.4,0,0,0-3.71,3.54,3.65,3.65,0,0,1-3.59,1.76,3,3,0,0,0-3.11,1.56,7.42,7.42,0,0,1-6.05,3.12c-4.2.18-8.37,1-12.6.68a34,34,0,0,1-25.83-14.11c-1.58-2.11-2.21-4.83-3-7.32-.53-1.68-1.61-3.21-1.69-5-.21-.55-.11-1.15-.29-1.7a12.81,12.81,0,0,0-.12-1.39,2.22,2.22,0,0,0-2.8-1.75,2.11,2.11,0,0,0-1.59,2.68c.06.44.42.83.41,1.32,0,1.07-.64,1.91-1,2.86-1.81,4.84-2.78,10-4.47,14.78-1.94,5.49-2.39,11.1-3.49,16.66-.51,2.61-1.29,5.17-1.71,7.8-.15.89-.64,2,.13,2.67s1.83,0,2.66-.31c6-2.36,12.3-3.36,18.46-5,3.6-.95,4.57.28,4,4a7.43,7.43,0,0,0-.13.93c-.2,3.91-2,5.93-6.11,6.53a90.14,90.14,0,0,0-12.14,2.51c-4.12,1.21-8.25,1.44-12.4,2-2.18.28-5.67-2.54-5.84-4.7a33.73,33.73,0,0,1,1.75-12c.88-3,.94-6.17,2.11-9.1.41-1,1.4-1.95,1-3.26-.36-1.73.67-3.28.88-5.2-2,.79-3.49,1.91-5.16,2.7-5.5,2.61-11.14,4.36-17.36,3.55-2-.26-4.06.06-6.08-.1-3-.22-5.93-.6-8-3.16-.54-.79-.46-2.08-1.82-2.21a5.42,5.42,0,0,1-5.94-2.71,9.45,9.45,0,0,0-3.18-2.7c-2.55-1.7-4.49-3.82-5.11-6.92-.18-.87-.55-1.46-1.55-1.32-3.55.21-7.15-.09-10.68,1.2-.09.24.1.64.29.92,2.4,3.66.63,6.92-.95,10.21-.61,1.27-1.42,1.83-2.77,1a3.85,3.85,0,0,0-.83-.43c-2.21-.68-2.21-.68-2-2.93-.35,1.43-1.3,2.08-2.37,1.06-1.43-1.35-3.25-1.76-4.88-2.63a2.92,2.92,0,0,1-.46-2.67c.36-1.4.67-2.74-.68-3.83a.69.69,0,0,1-.21-.64c.74-3.83-.31-7.62-.15-11.45.1-2.43.1-5-1.16-7.26a1.73,1.73,0,0,1-.23-.66,36.43,36.43,0,0,0-1.38-7.47,2.92,2.92,0,0,1,0-1.85c1.57-3.14-.25-5.62-1.76-8a11.23,11.23,0,0,1-1.72-6.9,4,4,0,0,0-.89-3,3.76,3.76,0,0,1-.53-4.09c.6-1.77-.44-3.72-.79-5.57a19.69,19.69,0,0,1-.6-3.66c0-2.26.1-4.54-1.16-6.6a3.26,3.26,0,0,1-.13-2.08c.07-.6.39-1.31-.09-1.8-1.25-1.3-1-2.73-.48-4.16a9.19,9.19,0,0,0-.23-6.12,72,72,0,0,1-2.47-10.44c-.53-3.59-1.64-7.11-1-10.81.44-2.46-.51-4.91,0-7.45.27-1.23.33-2.56.62-3.86.58-2.65,1.44-5.23,1.33-8a9.43,9.43,0,0,1,1.21-5.65,6.7,6.7,0,0,0,.87-4.3c-.07-.79-.27-1.78.32-2.26,1.85-1.49,2.15-3.79,3.25-5.63a131,131,0,0,1,12-17.32,55.8,55.8,0,0,1,8-8.08,92.36,92.36,0,0,1,11.73-7.28c5.4-3.08,11.34-4.78,17.19-6.71,2.59-.85,5.37-2,7.85-2.07,3.84-.07,7.69-1.61,11.55-.31.3.1.7.3.9.18,3.59-2.17,6.5,1.34,10,1.25,2.36-.07,4.73,2.21,6.73,4,1.05.91,1.34,1.07,2.43-.12,3.64-4,7.44-7.72,13.29-8.54a12.8,12.8,0,0,0,7.91-4.09,5.74,5.74,0,0,1,3.46-1.87c3-.47,5.89-1.78,9-.83.23.07.52.15.69,0,2.33-1.58,4.83-.76,7.28-.54a38.27,38.27,0,0,0,8.42-.53,15.42,15.42,0,0,1,6.68.77c4.86,1.47,9.45,3.77,14.57,4.44a22.62,22.62,0,0,0,4.18.21c3.72-.16,7.43.1,11.15.06a2.08,2.08,0,0,0,1.31-.4c2.07-1.66,4.66-2,7.08-2.7.29-.09.66,0,.9-.21,2.93-2.25,6.58-3.32,9.4-5.73,1.47-1.25,3-2.58,3.29-4.7a2.48,2.48,0,0,1,.92-1.61c3.89-2.77,7-6.65,11.47-8.59.29-.12.57-.35.87-.34,3.12,0,5.8-1.77,8.84-2.06C380.55,2298.78,382.68,2300.11,384.72,2298.92Z"/><path class="cls-4" d="M122.08,2483.66a174,174,0,0,1,14.14-14.57c4.15-3.76,7.45-8.55,12.61-11.32,3.09-1.65,4.67-5.16,7.48-7.79-2.07-.26-3.77-.69-5.06-2a1.16,1.16,0,0,0-.79-.44c-3.56.38-5.86-2.23-8.66-3.64s-5.26-3-8.25-3.83a10.19,10.19,0,0,1-5.83-4.5,6.16,6.16,0,0,1-.07-6c2.24-3.84,4.9-7.39,9-9.6,5-2.68,9.55-.62,14.14,1.15,1,.39,2,1.11,2.88-.2.87,4.73,2.12,9.34,3.4,14a6.32,6.32,0,0,1-1,3.82c-.31.49-1.09,1.39,0,1.73,1.78.58,1.7,1.31.94,2.79-.3.58-1,2,.82,2.73.54.2.37,2.48.43,3.81a25.83,25.83,0,0,1-.06,3.52c-.12,1.37,0,2.53,2.11,2.64-1.91,1.47-1.29,2.71-.42,4.11.38.61,1.9,2-.57,2.14-.71,0-.55.59-.41,1.05a6.44,6.44,0,0,0,1.32,2.18c.66.81,2.34,1.53.5,2.81,1,1.65-.35,3.78,1.13,5.4,1.06,1.14,1.29,3.21,2.16,4,3,2.63-.19,5.05.29,7.48-4.26,2.72-8.21,5.9-12.51,8.58-4.55,2.85-9.6,4-14.67,5.15-2,.47-3.25-.37-4.69-1.7a86.38,86.38,0,0,1-10.36-11Z"/><path class="cls-5" d="M378.59,2299.28a.63.63,0,0,1,0-.36h6.11c-1,1-2,1.76-3.47.6C380.54,2299,379.49,2299.23,378.59,2299.28Z"/><path class="cls-6" d="M349.35,2506.16c1.64.76,3.38.44,5.08.41,4.22-.08,7.08,1.84,8.8,5.67,3.52,7.85.13,19.61-7.15,24.64l-1.55,1c.05.94-.74.84-1.26.92-2.69.41-5.37,1.13-8.12.41a1.42,1.42,0,0,0-1.94,1.43c-.39,4.61-2.53,8.72-4.31,12.8-1.58,3.61-3.25,7.36-6.07,10.42a38.41,38.41,0,0,0-4.32,5.48c-2,3.13-5.25,4.28-8,6.24-.82.59-1.88.9-2.24,2-.68,2-2.22,3.13-3.88,4.22-3,2-6,4-9,6a17.76,17.76,0,0,1-4.84,2.34,1.32,1.32,0,0,0-.45.14c-5.78,4.4-13.39,4.55-19.44,8.34a4.33,4.33,0,0,1-2.89.77c-1.86-.24-2.3.75-2.72,2.37-.54,2.09-.63,4,.66,5.76.14.27.11.77.4.8,2.69.28,4.31,2.78,6.91,3.26a3,3,0,0,1,1.76,1.11,39.69,39.69,0,0,1,6.86,12.13c2.08,6.61.84,13.14-2.32,19.09a52.4,52.4,0,0,1-9.72,13.18,15.81,15.81,0,0,1-7.17,4.19c-2.35.63-4.45,1.82-6.89.58-3.6,1.76-6.62-.56-9.9-1.31s-6.69-1.22-9.9-2.6a14.12,14.12,0,0,1-6.48-4.79c-2.47-3.56-4.1-7.57-6.19-11.33a4.58,4.58,0,0,1-.46-3,59.84,59.84,0,0,0,.33-9.37,9.51,9.51,0,0,1,1.23-4.95,2.07,2.07,0,0,0,.43-.83c.44-5,3.57-8.54,6.8-12a3.32,3.32,0,0,0,.81-1.67,5.54,5.54,0,0,1,3.12-2.68,5.85,5.85,0,0,0,3.17-4.13c.4-1.47,0-2.38-1.74-2.55a47.52,47.52,0,0,1-16.48-5,13.75,13.75,0,0,0-5.57-1.66,3.67,3.67,0,0,1-1.82-.41c-3.08-2-6.7-3-9.69-5-4-2.68-7.85-5.66-12.09-8a2.45,2.45,0,0,1-1.39-1.8c-.21-1.88-1.58-2.63-3.06-3.18a15.73,15.73,0,0,1-7.45-5.84c-1.86-2.61-4.17-4.86-6.19-7.36a22.33,22.33,0,0,1-4.09-6.77c-.73-2.14-2.17-2.69-4.17-2.32a21.73,21.73,0,0,1-4.9.34,5.07,5.07,0,0,1-2.71-.66,6.89,6.89,0,0,0-3.93-1.29c-.31,0,.07,0-.24,0-3.83-.73-8.55-8.47-7.13-11.67-.86-4.49-.61-8.73,2-12.75,2-3,4.2-5.54,7.69-6.78a19,19,0,0,0,2.67-1.42c2.79-1,4.14,1.32,6,2.78-.27-1.2-.6-2.31.31-3.13.5-.45,1.14.08,1.4.45.89,1.3.13,2.45-.58,3.56.69.55,1-.11,1.34-.42.73-.63,1.22-.76,1.3.44a1.22,1.22,0,0,0,1.21,1.2c1.05.07.14-.94.5-1.17,1.68-1.06.32-3.79,2.6-4.59.58-.2,0-1-.15-1.46-.53-1.7-1.22-3.36-1.75-5.07-.24-.8,0-1.69.9-1.86,1.32-.24.2,1.14.81,1.42,3.12-2.06,6.58-1.11,9.92-1.19,2.14,1.88,2.7,4.55,3.16,7.1a8.59,8.59,0,0,0,4.24,6.35,12.89,12.89,0,0,1,4.72,4.14c.6,1,1.5.94,2.46.86a3.89,3.89,0,0,1,4.27,2.53c1.1,2.41,3.56,2.68,5.77,2.88a58.57,58.57,0,0,0,17.23-.47,11.54,11.54,0,0,0,4.06-1.69,16.43,16.43,0,0,1,8.13-3.08,1.39,1.39,0,0,1,.24,1.68,33.76,33.76,0,0,0-2.23,8.06,73.26,73.26,0,0,1-2.15,8.71c-.46,1.48-1,3,0,4.5,0,.07.12.18.1.2-2.44,2.91,2.17,2.86,2.08,4.88a1,1,0,0,0,1.69.52c1.12-1.15,2.36-.79,3.64-.68a17.69,17.69,0,0,0,7.74-1.33,33.21,33.21,0,0,1,7.72-1.43c3.19-.37,6.06-2.1,9.34-2,.62,0,.92-.48,1-1.07.46-2.29,1-4.57,1.4-6.86.18-1-.3-1.57-1.31-1.38-2.19.41-4.58.09-6.52,1.54a4.48,4.48,0,0,1-2.86.87c-3.23-.1-6.13,1.41-9.21,2-1.35.26-2.82,1.27-4.39,1.67s-2.14-.06-1.79-1.68c.79-3.73,1.54-7.47,2.29-11.2a12.66,12.66,0,0,0,.43-2.77c-.19-7.26,3.7-13.57,4.83-20.56a24.69,24.69,0,0,1,4.11-10.21c-.19-1,.35-1.59,1.23-1.35,1.24.34,2.56.11,3.75.64a2.38,2.38,0,0,1,.41,1.66c-.6,2.09.64,3.93,1.07,5.8a36.89,36.89,0,0,0,5.38,13.14c3.71,5.25,9.21,8.34,15.19,10.48,5.21,1.86,10.58,1.77,16,1.16a34.09,34.09,0,0,1,3.51-.17c2.75,0,5.28-.28,6.51-3.4.54-1.38,2-1.76,3.39-1.53a2.89,2.89,0,0,0,3.29-1.59,11.41,11.41,0,0,1,4.2-3.66,8.1,8.1,0,0,0,4.15-6.18c.27-2.11,1.3-4,1.91-6a7.53,7.53,0,0,0,.36-3.45c.69-3.33,3.5-4,6.25-1.2,1.43,1.47,3.34,1.93,4.78,3.32.87.84,2.54.08,3.52-1C347.9,2508,348.61,2507,349.35,2506.16Z"/><path class="cls-6" d="M316.46,2433l8.19-.07c.86,0,1.51.09.87,1.15a1.37,1.37,0,0,0,.19,1.72c3.24,4.16,4.45,9.24,6.34,14,.57,1.46,2.12,3,2,4.07-.45,2.77.89,5.14.92,7.74.05,3.82,1.26,7.55,1.05,11.41a2.25,2.25,0,0,0,.81,1.64,2.49,2.49,0,0,1,.61,2.77,3.11,3.11,0,0,0,.43,3.12c.14.18.38.47.32.6-1.48,3.36,1.07,6.81-.26,10.21-.58,1.45.07,2.93.8,4.25.53,1,.21,1.52-.78,1.66a7,7,0,0,0-2.67.77c-.94.56-1.37,0-1.25-.86a6.7,6.7,0,0,0-1-4,3.85,3.85,0,0,1-.42-3.34,2.32,2.32,0,0,0,.14-1.39c-1.61-5.17-2.86-10.5-6.33-14.88-.48-.61-.93-1.25-1.36-1.89a5.27,5.27,0,0,1-.67-1.23c-.63-2.05-2.89.54-3.4-1.14-.41-1.34-.41-2.75-2.41-2.13a.41.41,0,0,1-.23,0c-.75-2.71-4.11-1.43-5.45-3.71-1.17-2-3.8-2.88-6-3.2-5.7-.81-11.4-1.53-17.21-.17a21.91,21.91,0,0,0-13.17,8.28c-2.25,3-4.78,5.89-5.37,10-.25,1.81-1.45,3.54-1.85,5.46a2,2,0,0,1-2.46,1.64,11.21,11.21,0,0,0-7.74.87,1.66,1.66,0,0,1-2.31-1,23.34,23.34,0,0,1-2.06-7.39,4.45,4.45,0,0,0-1.46-3.29,8.82,8.82,0,0,1-2-2.9c-3.68-7.21-9.8-10.85-17.62-12-3.33-.49-6.63-.94-9.93.36-.78.31-1.84-.12-2.77-.1a13.44,13.44,0,0,0-8.25,3.51c-1.11.91-1.93,2.33-3.76,1.8-.52-.15-.78.34-.89.87-.16.81-.61,1.23-1.5,1-.22-.06-.62-.13-.65-.07-.82,1.94-3.07,2.17-4.22,3.33a32.28,32.28,0,0,0-8.4,16.58c-.82,4-2.34,8.14-1.25,12.55.68,2.73-.71,3.72-3.46,3.26a29.48,29.48,0,0,0-3.26-.31,3,3,0,0,1-2.87-2.05c-.45-1.17-.63-2.4.67-3.37a2.55,2.55,0,0,0,1-2.51c-1.25-7.1.31-13.93,1.59-20.85a33.85,33.85,0,0,1,2.68-8.56,2.32,2.32,0,0,1,1.25-1.27c.35-.15,1.14-.28.73-.86-.84-1.17-.2-1.63.74-2.12s.37-1.42.6-2.13c1.15-1,2.41,0,3.62-.19,9.52-1.79,19.2-2.89,28.52-5.57,4.64-1.34,9.21-2.61,14.05-2.8a16.93,16.93,0,0,0,5-1.32,34.4,34.4,0,0,1,11.19-2.37,2.21,2.21,0,0,0,.93-.11c4.8-2.49,10.41-1.9,15.32-4.08a37,37,0,0,1,8.36-2.55c3.56-.63,7.22-1.12,10.83-1.68a72.75,72.75,0,0,0,7.57-1.6,58.13,58.13,0,0,1,14.32-2A13.28,13.28,0,0,0,316.46,2433Z"/><path class="cls-4" d="M316.46,2433a5.1,5.1,0,0,1-5,2.52c-4.13-.41-8.13.5-12,1.38-6.24,1.43-12.53,2.53-18.79,3.82-.48.1-1,.23-1.33-.14-1-1-1.36-.26-1.89.53a2.25,2.25,0,0,1-1.49,1c-4.66,0-8.7,2.37-13.14,3.26-7.34,1.49-14.84,2.37-21.9,5.1a10.76,10.76,0,0,1-5.06.71,8.74,8.74,0,0,0-5,1c-.85.43-1.76,1.26-2.68,0-.25-.33-.55-.16-.81,0-4.19,3-9.28,3-14,4.08-5.77,1.33-11.68,2.06-17.49,3.24-1.65.34-2.85-.47-4.25-.8-.11-1.8,1.53-2.87,1.92-4.41.93-3.61,3.51-6.25,5.24-9.39,2.28-4.13,5.75-7.18,9.2-10.22a18,18,0,0,1,6.43-3.26,4.41,4.41,0,0,0,3-2.08,1.63,1.63,0,0,1,1.72-1,25.69,25.69,0,0,0,11.19-1.61c1.19-.45,2.11.75,3.15.34,4.66-1.82,9.47-.92,14.23-.83a1.22,1.22,0,0,0,.47,0c4.28-1.9,8.39.54,12.61.54s8.48.94,12.72,1.5c9.46,1.26,18.74,3.49,28.38,3.91C306.7,2432.46,311.61,2432.46,316.46,2433Z"/><path class="cls-4" d="M322.84,2496.43c-.35,1,.08,2.24,0,2.92-.48,2.38-.06,5.43-1.18,7.05-3.6,5.16-8.4,9.27-14.77,10.85-7.63,1.9-14.69-.05-21.49-3.45-.4-.2-.94-.5-1.05-.87-1-3.11-4-5.06-4.77-8.2-.56-2.24-1.27-4.55-.55-6.93.6-2-.14-3.91-.4-5.86a1.82,1.82,0,0,0,1.13-2.54c-.62-1.88.7-3.52,1.15-5.26,3.93-4,7.68-8.4,14.14-7.88a7,7,0,0,0,3.13-.86,5.09,5.09,0,0,1,5.83,1.14c2,1.9,4.18,3.28,7.14,2.37.69-.22,1.61-.18,1.94.46,1.44,2.87,4.24,4.4,6.31,6.64.5.54.54,1.29,1,1.82,0,.14.05.28.07.43a5.81,5.81,0,0,0,1.42,2.32c.29.26.69.71.53.94C321.16,2493.31,322.54,2494.82,322.84,2496.43Z"/><path class="cls-4" d="M246.54,2497.74c1.1,4.64-.48,8.47-3.61,11.83a.41.41,0,0,0-.13.19c-.89,5.49-5.89,5.15-9.53,6.75-4.72,2.08-9.63,1.26-14.5,1a9.65,9.65,0,0,1-5.1-2.11l-6.58-4.88c-1.86-1.39-1.86-1.93,0-3.24,1.26-.88,1.27-2.74-.22-3.19-3.14-.94-4.72-2.51-3.76-6,.13-.46-.44-1.12-.68-1.69.71-1.62,1.48-3.23.37-5l.11-.67c.66-.41,1.37-.76,1.66-1.58,1.21-3.49,4.7-5.14,6.56-7.85s3.43-2.48,5.77-2.52a7,7,0,0,0,4.75-2.28c1.92-1.85,3.4-2,5.74-.68a4.8,4.8,0,0,0,3.37.54,8.16,8.16,0,0,1,6.1,1.11,35.6,35.6,0,0,1,7.84,6.65c.1,2.13,1.39,4.1.6,6.39-.29.81,1.07.91,1.62,1.4C246.65,2493.87,246.07,2495.77,246.54,2497.74Z"/><path class="cls-7" d="M332.56,2507.66c1.24,1.15,1,2.52.49,3.88a34.23,34.23,0,0,0-2.18,7.38c-.4,2.62-2.34,4.18-4.51,5.38a9.07,9.07,0,0,0-4.16,4c-.7,1.45-1.91,1.69-3.37,1.22-1.74-.55-2.83-.05-3.23,1.89-.53,2.59-2.88,2.86-4.79,3-5.06.23-10.14,1.1-15.19.57a27.35,27.35,0,0,1-11.13-3.34c-4-2.36-8.4-4.57-11-8.59a45.1,45.1,0,0,1-6.58-19.08c-.06-.49.34-.64.69-.82a102.69,102.69,0,0,0,4.32,11.19c1.66,3.7,4.88,6.45,8.47,8.54,2.23,1.3,4.33,3,6.65,3.89,3.43,1.27,7.09,2.39,10.86,2.14a83.58,83.58,0,0,0,9-.64c2.44-.41,5-.27,7.33-1.45.53-.27,1.38-.5,1.36-1.16-.11-2.94,1.91-2.2,3.46-2s2.41,0,3-1.48a6.26,6.26,0,0,1,3-3.17c3.38-1.91,5.77-4.45,6.25-8.52A4.92,4.92,0,0,1,332.56,2507.66Z"/><path class="cls-7" d="M246.06,2528.63c-1.82,1-3.49,2.38-5.71,2.54a1.58,1.58,0,0,0-.85.34c-5.29,4.33-11.56,3.75-17.76,3.5-1.48-.06-3-.19-4.44-.18a11.5,11.5,0,0,1-6-1.67c-.71-.41-1.3-.84-1.36-1.74-.15-2.27-1.66-2.46-3.34-2-1.39.39-2.56.34-3.18-1a8.47,8.47,0,0,0-4-3.81c-3.1-1.69-5-4.1-5.19-7.76-.08-2.48-2-4.38-2.21-6.82,1.55-1,2.42-.81,2.47,1.29a7.27,7.27,0,0,0,3.36,5.86c2.18,1.6,4.61,2.87,5.94,5.47.92,1.81,2.83.5,4.22,1,.79.66,1.07,1.75,1.9,2.38a10.9,10.9,0,0,0,7.78,2.7c4.75-.11,9.48.91,14.25-.17a36.49,36.49,0,0,0,13.81-6.09c.42-.31.83-.92,1.41-.62s.37,1.13.32,1.69C247.29,2525.26,246,2526.75,246.06,2528.63Z"/><path class="cls-8" d="M244.73,2484.15c-1.47-.05-2.41-1-3.34-2a26.51,26.51,0,0,0-4.27-3.64,6.86,6.86,0,0,0-5.05-1.44c-2.13.41-3.93.48-5.87-1-1.43-1.09-3.36-.24-4.25,1.27-1.53,2.61-4.54,1.71-6.55,3.11-.39.27-.63-.44-.8-.89-.42-1.12-1-.12-1.48,0-.7.12-.79.41-.42,1.12.72,1.36.67,2.4-1.35,1.77-.39-.13-.85-.31-1,.16-.93,3.21-5.46,3.79-5.51,7.72,0,1.38-1.15.83-1.92.41,1.92-2.31,1.71-5.25,2.32-8a5.41,5.41,0,0,1,2.68-3.4,4,4,0,0,0,2.14-2.34c.12-.4.3-.86.91-.92,2.51-.22,2.51-.24,1.36-2.83,2.24,1.14,4.38-.21,6.49.4.15,0,.55-.21.54-.29-.25-1.93,1.58-1.93,2.53-2.71,2-1.6,4-1.1,5.84.15.69.47,1.37,1,2.1.61,2.2-1.17,4.16-.79,6.17.49,3.56,2.27,7.11,4.54,9.06,8.52A2.94,2.94,0,0,1,244.73,2484.15Z"/><path class="cls-8" d="M320.37,2487.83c-1.76-1.69-4.42-2.46-5.26-5.11-.14-.45-.46-.5-.91-.31-1.83.73-2.14-.07-1.54-1.63.17-.44.53-.86,0-1.22a1.51,1.51,0,0,0-1.55,0,7.38,7.38,0,0,1-7.66-2.11,3.86,3.86,0,0,0-5.46-1.06,3.57,3.57,0,0,1-2.81.83c-3.52-.92-6.19.72-8.74,2.81-1.79,1.47-3.27,3.39-5.62,4.09-1.4-3.25-1.05-4.43,1.47-6.73,2.38-2.15,4.68-4.34,7.61-5.77,1.67-.82,3.3-1.36,5.11-.46.8.4,1.84.66,2.41,0a3.6,3.6,0,0,1,3.81-1.28c1,.15,1.93-.31,2.18,1.12.11.65.61.53,1.09.53a2.59,2.59,0,0,1,1.06.22c-.06,3.1,3.11.92,4.06,2.49.42.67.88-.25,1.29-.5a1.55,1.55,0,0,1,1.56-.13c.79.44.05.9-.09,1.36-.3.94.3,1.89,1,1.58,1.53-.67,1.66.22,2,1.19a4.27,4.27,0,0,0,1.86,1.73A7,7,0,0,1,320.37,2487.83Z"/><path class="cls-9" d="M238.52,2373.3c-.24-2,.95-3.18,2.93-4.17,3.54-1.79,7.42-2,11.14-3,.7-.18,1.55-.33,2.1.53s.09,1.49-.28,2.17c-.54,1-1.11,2-1.67,3.07a3.37,3.37,0,0,1-2.68,2.05c-2.77,0-5.05,1.39-7.52,2.27C239.37,2377.38,238.44,2376.7,238.52,2373.3Z"/><path class="cls-9" d="M344.91,2397.09c.16,1.69-.74,3.12-2.53,4.23a84.58,84.58,0,0,1-7.82,4.68,2.77,2.77,0,0,1-3.07-.15c-1.14-.84-.51-1.76-.34-2.73.61-3.57,2.79-5.79,6-7.18a30.39,30.39,0,0,0,4.84-2.27C343.65,2392.61,345,2394,344.91,2397.09Z"/><path class="cls-9" d="M401.64,2349.76c.24,2.35-.91,4.3-1.59,6.35-.25.78-.49,1.84-1.67,1.56s-2.38-.85-2.32-2.23a3.52,3.52,0,0,0-1.17-2.83,4.88,4.88,0,0,1-1.1-4.16c.11-.84.25-1.69.33-2.54s-.25-2.23,1-2.64a3.63,3.63,0,0,1,3.58.4C400.6,2345.25,402.31,2347,401.64,2349.76Z"/><path class="cls-9" d="M265.56,2344.09c1,.81,1.89.68,3-.37.31-.29,1.45.68,2,1.37a1.5,1.5,0,0,1,0,1.9c-1.45,2.6-3.15,4.8-6.34,5.34a5.83,5.83,0,0,0-3,1.81c-1.25,1.22-2.18.82-2.93-.6a4.45,4.45,0,0,1-.42-2.74C258.2,2348.15,262.71,2344.12,265.56,2344.09Z"/><path class="cls-9" d="M284.67,2413.56c-.18.7-.4,1.69-.67,2.66-.31,1.14-.6,2.27-2,.72-.82-.92-1.77-.09-2.6.14a7.08,7.08,0,0,1-6.45-1c-2-1.54-2.06-4,.16-5.19,1.9-1,4-2.13,6.32-.87a3.72,3.72,0,0,0,2.29.29C284,2410.08,284.62,2411.35,284.67,2413.56Z"/><path class="cls-9" d="M312.34,2384.33c-1.2-3.48-.42-5.6,2.43-7.23a78.34,78.34,0,0,1,7.46-3.3,2.1,2.1,0,0,1,3,1,3.77,3.77,0,0,1-1.1,4.66,13.15,13.15,0,0,1-7.18,3.09C315.29,2382.6,313.68,2382.63,312.34,2384.33Z"/><path class="cls-9" d="M360.8,2360.63a6.24,6.24,0,0,1-2.47,4.66c-2.11,1.65-4.71,2.38-7.21,3.13-2,.6-3.44-1.3-3-3.51a5.76,5.76,0,0,1,5.35-4.76,4.49,4.49,0,0,0,3.07-1.05,3.25,3.25,0,0,1,3.52-.45C361.07,2359.08,360.62,2360,360.8,2360.63Z"/><path class="cls-9" d="M199,2386.82c2.86,0,3.28.42,3,2.86a7.13,7.13,0,0,1-3.18,5.47c-.78.5-1.36,1.29-2.11,1.83-1,.71-1.84,2.33-3.37,1.29-1.38-.94-2.23-2.67-1.62-4.1,1-2.45,2.08-5.08,4.51-6.64A4.05,4.05,0,0,1,199,2386.82Z"/><path class="cls-9" d="M187.33,2367.12c0-2.21,4.38-8.1,6.44-8.79a1.22,1.22,0,0,1,1.41.52,30.92,30.92,0,0,1,2.1,2.48,2,2,0,0,1-.22,3c-1.32,1.26-1.67,3.64-4.25,3.38-.18,0-.54.57-.61.91-.28,1.43-.9,2.68-2.51,2.5-1.83-.2-2.05-1.86-2.3-3.34C187.35,2367.58,187.35,2367.35,187.33,2367.12Z"/><path class="cls-9" d="M178.24,2401.07c-.25,2-.47,4-.77,6a9.63,9.63,0,0,1-.67,2.22c-.74,1.71-1.89,3.43-3.72,3.53s-3.87-4.68-3.06-6.49a14.06,14.06,0,0,1,6.34-7,1.22,1.22,0,0,1,1.5.12A1.29,1.29,0,0,1,178.24,2401.07Z"/><path class="cls-9" d="M356.4,2418.28c0,1.09-.89,2-1.89,2.73a12.73,12.73,0,0,0-3.36,3.18c-.51.82-1,1.4-2,1.11a2.08,2.08,0,0,1-1.73-2c-.1-4,.66-7.58,4.34-9.93,2.42-1.55,4-.85,4.32,2C356.18,2416.26,356.27,2417.11,356.4,2418.28Z"/><path class="cls-10" d="M220.19,2368.23a1.62,1.62,0,0,0-.05,1.36c1.52,2.68-.16,4-2.17,5.21-1,.61-1.93,1.32-2.94,1.91-.8.48-1.46,1.6-2.65.8A3.69,3.69,0,0,1,211,2374c.2-3.74,2.31-6,5.86-6.94.3-.08.56-.27.85-.35.64-.19.93-1.47,1.93-.61A2,2,0,0,1,220.19,2368.23Z"/><path class="cls-10" d="M386.36,2328c0,4.22-4.51,8.27-8.63,7.91-1.77-.15-2.58-.89-1.89-2.71a5.28,5.28,0,0,1,1.43-2.63,16.46,16.46,0,0,0,3.9-4.29,3.09,3.09,0,0,1,3.52-1.21C386.29,2325.45,386.13,2326.91,386.36,2328Z"/><path class="cls-9" d="M275.16,2387.12c.15-3,1.4-4.69,4.43-5.52,2.14-.59,4.31-1.47,6.59-.44,1.43.64,1.92,1.33.71,2.75-1.9,2.23-3.67,4.49-7,4.46a6.43,6.43,0,0,0-1.95.74C275.41,2390,275,2389.74,275.16,2387.12Z"/><path class="cls-10" d="M346.22,2451.87c-.22,1.25-.32,2.18-.55,3.08s-.84.93-1.65.68c-2.54-.76-5.82-4.88-5.89-7.5a5,5,0,0,0,0-1.16c-.34-1.37-1.07-2.88,1-3.44a4.06,4.06,0,0,1,4.74,1.66C345.22,2447.3,344.64,2450.1,346.22,2451.87Z"/><path class="cls-10" d="M338.49,2337.18c.33,4.37-1.49,7.19-5.57,8.67a8.7,8.7,0,0,1-1.8.48c-1,.12-2.12,1.21-3,.09s-.68-2.66-.08-4a6.93,6.93,0,0,1,4.88-4C334.7,2338,336.52,2337.62,338.49,2337.18Z"/><path class="cls-10" d="M297.09,2354.31c.52.09,1.07.15,1.33-.3,1.14-1.91,2.71-1.52,4.46-1.09,2.08.5,2.6,1.16,1.72,3.09a7.57,7.57,0,0,1-5.86,4.48,7.16,7.16,0,0,0-.93,0c-1.54.44-3.36.9-4-1s.66-3.55,1.82-5A1.11,1.11,0,0,1,297.09,2354.31Z"/><path class="cls-10" d="M190.76,2424.13c.22,2.73-1.65,4.45-3.08,6.36a1.15,1.15,0,0,1-1.85,0c-1.36-1.45-2.56-3.16-2.12-5.2a17.72,17.72,0,0,1,2.66-5.67c.55-.84,1.47-1.11,2.16-.25A8.23,8.23,0,0,1,190.76,2424.13Z"/><path class="cls-9" d="M222.68,2407c-2.35,0-2.85-.66-2-2.83a31.06,31.06,0,0,1,1.8-4,3.85,3.85,0,0,1,6-.83,2.24,2.24,0,0,1,.71,1.88A6.63,6.63,0,0,1,222.68,2407Z"/><path class="cls-11" d="M375.33,2389.41a3.22,3.22,0,0,1,0-.84c.37-1.2-.08-3,1.47-3.4,1.36-.4,1.79,1.22,2.63,2,2.69,2.38,2.61,5.24,1.55,8.31-.3.88-.68,1.69-1.69,1.65a1.65,1.65,0,0,1-1.61-1.7,4.13,4.13,0,0,0-1.29-2.67A3.82,3.82,0,0,1,375.33,2389.41Z"/><path class="cls-11" d="M245.65,2417.54c.06-3.15,4-8.31,6.89-9.16.92-.27,1.92-.12,1.48.91-1.48,3.46-2.36,7.43-6.26,9.25C246.82,2419,245.53,2419.61,245.65,2417.54Z"/><path class="cls-12" d="M174.62,2464c-3.52,0-5-1.24-5.07-4.27,0-1.43.28-2.45,2-2.39,3.78.13,5.26,1.48,5.33,5.2C177,2464.08,176,2464.52,174.62,2464Z"/><path class="cls-13" d="M314.21,2417.63c.16,2.4-.2,4-2.09,5-1.45.75-2.08.22-2.07-1.23,0-2,1-3.71,1.51-5.54a1.1,1.1,0,0,1,1.34-.68c.59.14,1.25.33,1.3,1.1C314.24,2416.9,314.21,2417.52,314.21,2417.63Z"/><path class="cls-14" d="M267.21,2501.41c-1.15.67-2.25,1.26-3.48.06-.84-.82-1.1.18-1.5.65-1.78-.95-1.23-2.37-.49-3.54,1.07-1.69,2.67-1.53,4.28-.72S268.19,2499.76,267.21,2501.41Z"/><path class="cls-15" d="M373,2377.38c0,1.34-.08,2-.89,2.31s-1.07-.43-1.54-.81c-1.85-1.52-1.71-3.73-2-5.77-.08-.43.27-.72.68-.8s1.16-.13,1.49.4C371.67,2374.35,372.76,2376,373,2377.38Z"/><path class="cls-16" d="M322.84,2496.43c-.23-.2-.48-.39-.7-.61-2-2-2-2.49.08-4.39-2.1-.25-2-1.69-1.78-3.17a3.28,3.28,0,0,1,2.23,3.39C322.65,2493.24,323.81,2494.8,322.84,2496.43Z"/><path class="cls-17" d="M278.58,2491.94c1.68,2.24,1.83,4.37.4,5.86-.55-.2-1.35.36-1.66-.38-.2-.46.36-.79.73-1.07a1.24,1.24,0,0,0,.31-1.84A2,2,0,0,1,278.58,2491.94Z"/><path class="cls-18" d="M202.83,2491.43c2.86,1.92,2.85,2-.37,5C201.76,2494.69,202.66,2493.09,202.83,2491.43Z"/><path class="cls-19" d="M246.54,2497.74c-1.9-2.07-.57-3.92.41-5.79.39.39.77.88.48,1.42-.87,1.6-.28,2.92,1,4.37Z"/><path class="cls-20" d="M209.91,2526c-1.93.24-2.4-.68-1.9-2.38C210.07,2523.24,210.08,2524.53,209.91,2526Z"/><path class="cls-21" d="M242.82,2610.08a2.72,2.72,0,0,1-1.13,2.87,24.19,24.19,0,0,0-5.22,6.87,3.25,3.25,0,0,0-.54,2.65c.15.48.25,1-.11,1.33-2.29,2.35-1.89,5.32-1.94,8.19,0,2.26.24,4.53-.33,6.77a3.13,3.13,0,0,0,.26,2.52c2.56,3.93,4,8.51,6.9,12.23a5.81,5.81,0,0,0,2.42,2.16c3.34,1.1,6.24,3.37,10,3.36,2.84,0,5.36,1.59,8.06,2.36,1.23.36,2.46,1.08,3.44-.65a1.16,1.16,0,0,1,2,.13,1.79,1.79,0,0,0,2.78.69c2.35-1.7,5.54-1.27,7.74-3.46a45.87,45.87,0,0,0,6-6.54c1.28-1.87,2.68-3.66,3.92-5.55,4.59-7,6.07-14.76,3.24-22.53a37.26,37.26,0,0,0-6.08-10.32,2.26,2.26,0,0,0-1.38-.8c-3-.26-4.55-3.43-7.61-3.52-.75,0-1.51-.64-.14-1.22,1-.88,2.12-.46,3.1,0,3.51,1.5,7.19,2.65,10.28,5a10.34,10.34,0,0,0,3.95,2c10,2.38,17.7,8.68,25.21,15.23,2.24,2,4.39,4,6.81,5.74a6.3,6.3,0,0,0,4.14,1.1c3.45-.08,7-1.38,10.38.32a1.26,1.26,0,0,0,1.13-.11c2.86-1.35,5.94-1.05,9-1.17,3.69-.57,7.37-.95,10.95-2.28a31.13,31.13,0,0,1,7.73-1.47c3.33-.32,6.33-2,9.15-3.85a102.2,102.2,0,0,0,9.65-8,6.9,6.9,0,0,0,1.89-2.92c1.62-4.32,2-9,3.75-13.29.39-1-.22-2-.27-3-.16-3.22,0-6.31,3.38-8.07,3.87-.45,7.79-.54,11.66-.79a42.44,42.44,0,0,1,10.94.45,7.3,7.3,0,0,0,4.16-.3c2.53-1,5.22-.95,7.84-1.35a3.09,3.09,0,0,1,3.21,1c.59,5.15-.33,10.29-.07,15.44a22.11,22.11,0,0,0,.38,4.66c.14.51.28,1.39,0,1.58-2.16,1.65-.53,3.49-.44,5.28a49,49,0,0,1-1.41,15.58,18.82,18.82,0,0,0-1,5.26c0,2-1.27,3.31-2.55,4.58a6.26,6.26,0,0,0-2.11,3.81,12.41,12.41,0,0,1-2.91,6.56c-4.41,5.38-8.87,10.7-14.92,14.39-1.12.68-2.1,1.44-3.33.26-.33-.32-1-.23-1,.07.22,3.18-2.69,3.07-4.3,3.59-4,1.29-7.71,3.55-12.07,3.61a4.22,4.22,0,0,0-1.95.76c-4.32,2.66-9.21,2.9-14.06,3.32a8.39,8.39,0,0,1-3.25-.38c-.65-.21-1.36-.65-1.78.51-.18.52-1,.48-1.44.1-1.46-1.16-2.7-.4-4.11.22-3.51,1.54-7.37,1.46-11,1.31-3-.13-5.94,1.09-9,.35-1.5-.36-1.18,1.57-1.11,2.52.3,4.11.71,8.22,1.12,12.33a36.64,36.64,0,0,1-.18,11.45,14.69,14.69,0,0,0,.31,7.65c1.16,3.64-.19,6.62-2.31,9.35-.9,1.16-2.43,1.33-3.88,1.36-16.5.28-33-.12-49.52-.12-22.61,0-45.22-.25-67.83.13-8.29.13-16.59-.48-24.89-.06-1.7.08-3.42.1-5.13.15-.29-.46-.52-1-1-1.26-4.3-2.13-4.17-6-3.73-9.87.28-2.42.69-4.77-.06-7.17-.67-2.17-.16-4.37.17-6.52.55-3.64-.13-7.33.61-10.95.95-3.35.57-6.76.46-10.16.78-3.33.64-6.85.68-10.13,0-4.13,1.3-7.78,2.05-11.64a3.43,3.43,0,0,1,.25-.9c2.95-5.39,4-11.69,7.89-16.64a2.58,2.58,0,0,0,.41-1.08,3,3,0,0,1,1.06-2.28c4.79-4,9.09-8.61,14.32-12.1a31,31,0,0,0,4.94-3.95,27.19,27.19,0,0,1,10.33-6.31c4.5-1.64,8.72-3.89,13-6C240,2609.9,241.31,2608.91,242.82,2610.08Z"/><path class="cls-3" d="M242.82,2610.08a8.1,8.1,0,0,0-3.56,1.09c-5.9,3.27-12.17,5.67-18.36,8.27a2.16,2.16,0,0,0-.61.35c-4.75,4.19-9.84,7.95-14.81,11.88-3,2.38-5.5,5.37-8.69,7.55a1.94,1.94,0,0,0-.91,1.77c-1.59,1.66-3.3,3.12-5.72,3.36-1.54.14-2.91-.54-4.3-1a6.75,6.75,0,0,0-3.68-.34,2.84,2.84,0,0,1-2.83-.47,1.76,1.76,0,0,0-2.19-.1c-1.57.94-3.13.65-4.72.06a21.06,21.06,0,0,1-7.35-4.48,38.09,38.09,0,0,1-12.16-28,74.94,74.94,0,0,0-.32-8.2c-.2-1.53-.85-2.21-2.54-2.73-3.46-1.06-6.73-2.53-9.32-5.47a33,33,0,0,1-6.73-13.17c-.81-2.78-.15-5.41.29-8.1.28-1.66,1.25-3.23.49-5-.22-.54.18-.83.71-1a1,1,0,0,0,.71-1.49c-.77-2.12.25-3.81,1.26-5.47,2-3.26,3.56-7,6.24-9.56,3.75-3.58,6.69-8.36,12.15-9.88,0,4.2,3.2,6.79,5.21,10a.61.61,0,0,0,.36.28c4.31.49,8.16,3.91,12.75,2.18,1.36-.51,2.76.81,4-.45.24-.25.64.28.73.67,1.39,6,5.72,10.12,9.43,14.67,2.81,3.45,5.63,6.69,10.07,8a6.34,6.34,0,0,1,1.73,1.2c.29.23.79.72.74.79-1.66,2.52.84,2.24,1.92,3,3.4,2.37,7.1,4.29,10.22,7,1.31,1.17,2.62,2.24,4.54,2.06,1-.1,1.54.65,2.15,1.25a7.8,7.8,0,0,0,6.11,2.47,7.71,7.71,0,0,1,4,1.23c2.08,1.08,4.29,1.83,6.38,2.84a27.91,27.91,0,0,0,11.07,2.42c1.84.06,2.31.68,2.41,2.22a6.62,6.62,0,0,1-4.41,6.46C244.2,2608.67,243.67,2609.56,242.82,2610.08Z"/><path class="cls-3" d="M349,2636.34c-1.82.7-3.73.29-5.59.43-1.16.09-2.37-.13-2.95,1.31-.33.82-.94.72-1.45.13a3.91,3.91,0,0,0-4.11-1.06c-2.59.61-5.33-.31-7.84.9-.61.3-1-.27-1.43-.56a60.52,60.52,0,0,1-6.19-4.87q-6.11-5.28-12.38-10.38c-3.58-2.89-7.92-4.38-12.17-5.91a48.77,48.77,0,0,1-8.57-4.09,34.81,34.81,0,0,0-11.19-4.62c-1.06-1.48-3-2.81-.89-4.87-.69-4,1.77-3.82,4.79-4.62a31.67,31.67,0,0,0,8.91-4.05c1.16-.76,3.23-.53,4.87-.94a9.2,9.2,0,0,0,4.11-2.12,5.19,5.19,0,0,1,1.94-1.27c6.76-1.86,11.55-7.05,17.5-10.27a8.39,8.39,0,0,1,5.49-5.62c.62-.24,1.25-1.38,2.48-1.35,1.07,0,1.63-.93,2-1.77.66-1.49,1.94-2.43,2.89-3.64,2.25-2.85,5.09-5.33,6.1-9a4,4,0,0,1,1.24-1.94,4.51,4.51,0,0,0,1.55-2.3c.74-3.74,2.67-7,3.89-10.58.37-1.06,0-2.1.24-3.22.47-1.84,1.51-2.09,3-1.86,2.12.32,4.21,1.16,6.33-.19.87-.55,2,.51,2.95-.08a6.57,6.57,0,0,0,2.67,2.53c5.7,2.35,9.31,7.07,12.89,11.71a71.83,71.83,0,0,1,4.73,7.77A6.74,6.74,0,0,1,376,2565c-.7.95-1.83,1.13-2.82,1.55-1.14.48-1.45,1.16-.67,2.15a13.83,13.83,0,0,1,2.62,5.67,5.23,5.23,0,0,0,1.82,2.39,5.26,5.26,0,0,1,1.83,3.91c-.35,3.32-2.08,6.09-3.7,8.88a41,41,0,0,1-3.49,4.88,17.54,17.54,0,0,1-7.63,5.17c-2.48,1-3.24,2.53-3.2,5A55.49,55.49,0,0,1,357,2626,23,23,0,0,1,349,2636.34Z"/><path class="cls-6" d="M190.16,2644.35a13.61,13.61,0,0,1,5.72-3.36,8.24,8.24,0,0,1-.5,1.31c-2,3.43-3.4,7.17-5.07,10.74-2.12,4.52-3.39,9.2-4.89,13.86a3.39,3.39,0,0,0-.11,2.72c.63,1.23,1.09,2.45-.39,3.51a1.31,1.31,0,0,0-.26,1.54c.8,2.18.31,4.32-.16,6.46-.36,2.79-.06,5.59-.18,8.38a5.52,5.52,0,0,1-.21,2.52c-.55,4.55.21,9.2-.93,13.73a4.35,4.35,0,0,0,.07,2.32,15.38,15.38,0,0,1-.05,9.42c-.68,2.3,1.35,4.24,1.05,6.54-.06.46.57.78,1.05.74,2.17-.22,2.21,1.12,2,2.66-5.71-1.45-11.49-.43-17.24-.5-1.94,0-3.9.48-5.6-1-.65-.56-1.34,0-2,.22-5.07,1.86-8.6-.76-8.42-6.16.09-2.41.57-4.85-.3-7.25a4,4,0,0,1,.26-3.21c4-6.92,3.55-15,6.12-22.32a45,45,0,0,1,2.54-6.53,155.49,155.49,0,0,1,12.11-19.18,48.42,48.42,0,0,1,7.43-8.42,23.88,23.88,0,0,0,4.4-4.85A12.24,12.24,0,0,1,190.16,2644.35Z"/><path class="cls-4" d="M433.11,2591.82c-3.83.11-7.63.26-11.29,1.63a8.63,8.63,0,0,1-4.4.05,14.67,14.67,0,0,0-6.72-.05c-.15.05-.33.17-.45.13-5.11-1.62-10.22,1.34-15.33,0-1.75-.13-2.08-1.4-2.15-2.8a26.74,26.74,0,0,1,.56-4.63c.35-2.93-.25-3.69-3.14-3.78-1.48,0-3,0-4.11-1.22a17.76,17.76,0,0,1-1.21-9.47,1.84,1.84,0,0,1,1.08-1.42l4.44,0c.78,0,1.63,0,2-.81.48-1-.43-1.34-1-1.84a10.45,10.45,0,0,1-2.36-2.56,3.13,3.13,0,0,0-.13-3.5,1.91,1.91,0,0,1-.34-1.1c0-.69.35-1.49.9-1.47,2.48.09,2.23-4.71,5.51-3,1.08.17,1.52,1,1.79,1.91.18.61.39,1.24,1.17,1.23.5,0,.79-.42,1-.83.39-.63.06-1-.42-1.35-1.53-1.07.1-1.85.24-2.77,1.43-2.69,2.8-3.51,5.76-3,1.53.26,3.08-.28,4.56.3.48.52,0,1,0,1.55-.06,1.34-.45,2.85,1.91,2.22.62-.17,1.42.32,2.14.51.44-1.1-.51-2-.17-3,3.17-2.89,4.94-2.78,7.48.46a16.59,16.59,0,0,1,1.3,1.92c.81,1.87,1.62,1.24,2.43,0,3.55-2.73,6.67-2.19,8.79,1.54a34.49,34.49,0,0,1-2,8.36,3.71,3.71,0,0,0,.33,3.58c2.76,4.21,2.6,8.79,1.76,13.44a4.53,4.53,0,0,0,.32,3.48C434.55,2587.52,433.66,2589.72,433.11,2591.82Z"/><path class="cls-6" d="M386,2570.28a23.71,23.71,0,0,0,.77,10.75c-.35,1.31-1.47,1.33-2.43,1.23a10.94,10.94,0,0,1-6.06-2c-2.56-3.15-4-6.94-6.13-10.35-1.82-3-1.88-3.57,1.6-4.46.75-.19,1.52-.29,2.28-.43a3.41,3.41,0,0,0,2.12.88C381.28,2566.36,383.53,2568.47,386,2570.28Z"/><path class="cls-6" d="M395,2556c-1.41.09-2.67.37-2.57,2.21.07,1.27-.67,1.36-1.65,1.2a1.23,1.23,0,0,0-1.43.49c-.42.71.07,1.18.51,1.6,1.81,1.67,1.16,2.75-.8,3.56-1.64-1.6-2.33-3.58-3.15-5.7-.67-1.73-1.55-3.63-2.31-5.45a11.9,11.9,0,0,1-.84-5.51,5.42,5.42,0,0,0-.55-2.7c-1-2.13,0-3.66,2.42-3.76s5.06,1.27,5.67,3.66C391.29,2549.36,393.34,2552.57,395,2556Z"/><path class="cls-6" d="M409.16,2551.47a3,3,0,0,1-3,.85c-3-1.31-5.16.12-7.32,1.85-.66-2.77-.51-5.6-.62-8.41a25.9,25.9,0,0,0-.69-5.8c-.59-2.22.3-3.4,2.61-3.76,4.25-.68,7.05,1.45,7.2,5.64C407.46,2545.16,408.78,2548.22,409.16,2551.47Z"/><path class="cls-22" d="M421.81,2555.09c-2.29.3-2.15-2.24-3.53-3.16-.95-.63-1.28-.89-2.18-.23a6.13,6.13,0,0,1-3.07,1c-1.06-3.88-.8-7.89-1.19-11.84-.15-1.6,1-2.11,2.5-2a8.74,8.74,0,0,1,7.45,7.89c.16,1.87.09,3.74.87,5.52C423.14,2553.4,422.32,2554.23,421.81,2555.09Z"/><path class="cls-23" d="M433,2556.63a3.75,3.75,0,0,1-2-1c-1.71-1.85-3.54-2.17-5.64-.62-.26.19-.74.07-1.12.1,1.46-2.3,1.43-5.21,3.19-7.44,1.28-1.61,2.4-1.74,3.89-.51a5.45,5.45,0,0,1,2.28,4.37,3.15,3.15,0,0,0,.26,1.79C435,2554.82,434.1,2555.72,433,2556.63Z"/><path class="cls-3" d="M288.89,2552.31c.19-2,1.62-3.17,3.2-4.06a71.86,71.86,0,0,0,6.3-4.06c.87-.62,1.8-1.9,2.76-1.52,2.19.87,5.05,1,6.39,2.85a16.09,16.09,0,0,1,2.58,6.64c.5,3,.7,6.32-.3,8.84-1.84,4.64-3.11,9.72-6.7,13.54-.75.8-1.56,1.54-2.34,2.3-4,3.86-8.6,5.47-14.31,5.64-6.25.19-11.63-1.8-17.13-4-2.73-1.11-4.64-3.41-7.16-4.83a1.28,1.28,0,0,1-.59-1.64c1.49-2.93,2.1-6.07,5.87-7.85,5.47-2.58,10.32-6.45,15.42-9.79a9.4,9.4,0,0,1,3.52-1.79c.38.14.82.34.88.71.39,2.71,2.82,3.82,4.38,5.58a4,4,0,0,0,4.07,1.22c.87-.2,1.69-.48,1.88-1.51a2.14,2.14,0,0,0-1-2.22C294.26,2554.57,291.93,2552.76,288.89,2552.31Z"/><path class="cls-24" d="M288.89,2552.31a4.74,4.74,0,0,1,5.82,1.58,5.53,5.53,0,0,0,1.92,1.26,3.18,3.18,0,0,1,2,3.54c-.15,2-1.54,2-2.92,2.29a4.89,4.89,0,0,1-5.28-2.11c-.18-.25-.27-.71-.48-.76-3-.73-2.91-3.37-3.55-5.57C287.13,2551.38,288.12,2553,288.89,2552.31Z"/><path class="cls-3" d="M295.4,2453.51c-1.59.15-4-.56-6,1.31-.43.4-1.5.21-2.27.17-2.49-.15-5-.39-7.48-.53a2.44,2.44,0,0,1-2.53-2.26,7.51,7.51,0,0,1,4.17-7.95,34.59,34.59,0,0,1,18.3-3c3.55.4,7.13.16,10.68.92a16.87,16.87,0,0,1,9,5.05c1.63,1.74,1.35,3.68-1,4.8-4,1.93-8.11,4-12.95,2.55A31.54,31.54,0,0,0,295.4,2453.51Z"/><path class="cls-25" d="M286.16,2496.86a8.27,8.27,0,0,1,1.24-5.91,4.52,4.52,0,0,1,.73-1.18c6.89-6.14,17.05-7.51,23.32,2.77,1.92,3.17,1.5,5.92.65,8.94a11.74,11.74,0,0,1-6,7.12c-4.94,2.74-11.42,2.37-15-1-.78-.74-2.5-1.82.24-2.34a.86.86,0,0,0,.74-1,1.34,1.34,0,0,0-.89-1c-.6-.26-.84.07-1,.6-.34,1.27-1,.6-1.53.21C286.2,2502.3,285.65,2499.83,286.16,2496.86Z"/><path class="cls-25" d="M239.54,2497.71c-.54,1.7-.28,4.08-2.3,5.69-1,.81-.74,2.31-1.81,3.39a14,14,0,0,1-8.59,3.78c-1.42.17-3.27-.37-5-.54-.8-.08-1.49-1.07-2.27-1.58-1.06-.68-2.09-1.43-3.33-.18a1.18,1.18,0,0,1-1.85-.27c-.59-.88.36-.92.83-1.21.88-.54.16-1.07-.06-1.57-.86-2-2.09-3.81-2.54-6a8.09,8.09,0,0,1,.43-4.57c.88-2.37,2.66-4.2,3.73-6.45a3.78,3.78,0,0,1,1.59-1.34,15.66,15.66,0,0,1,18,2.32A12.7,12.7,0,0,1,239.54,2497.71Z"/><path class="cls-26" d="M378.23,2580.26a6.85,6.85,0,0,1,4,.76,5,5,0,0,0,4.45,0,9,9,0,0,0,4.39.24c2.21-.18,3.16.9,3.33,2.93a21.16,21.16,0,0,1-.65,5.07c-.26,1.58-.73,3.29,1.14,4.33a9,9,0,0,0-1.62,9c.19.51.45,1,.12,1.55-1.89,3.26-2.18,7-3.08,10.53a13.66,13.66,0,0,1-2.51,5.75c-.94,1.08-2.5,1.43-3.37,2.84-1.89,3.07-5.34,4.54-8.15,6.38s-6.21,4.13-10.21,3.07c-1.77,1.62-4.23.61-6.17,1.62-3.45,1.79-7.21,1.88-11,2a7.4,7.4,0,0,1,2-2.86c5.88-5.8,7.31-13.37,8.42-21.06a60.19,60.19,0,0,0,.46-9.11,3.78,3.78,0,0,1,2.92-4.15c2.4-.8,5.37-1.75,6.63-3.62s4.32-2.65,4.07-5.6c0-.37-.06-.86.44-.94,2-.34,2.56-1.29,1.43-3.08a.81.81,0,0,1,0-.63C377.92,2584.52,377.44,2582,378.23,2580.26Z"/><path class="cls-27" d="M184.11,2692c.19-3.63-.48-7.29.39-10.9C184.36,2684.76,185.06,2688.42,184.11,2692Z"/><path class="cls-9" d="M169.14,2629.22c2.61-2.93,2.8-6.54,5-9.15.62-.75,1.08-2.07,2.24-1.65a3.42,3.42,0,0,1,2.52,3.07c0,3.34-1.52,6.3-3.1,9.13a1.78,1.78,0,0,1-3,.16C172,2629.5,170.92,2629.34,169.14,2629.22Z"/><path class="cls-10" d="M185.16,2579.23a7.87,7.87,0,0,1-.68,3.34,4.9,4.9,0,0,0-.28,4c.81,1.85-.53,1.85-1.63,1.7a4.9,4.9,0,0,1-3.88-4.9,32.16,32.16,0,0,1,.94-5.49c.25-1,.51-2.42,1.78-2.47a3.5,3.5,0,0,1,3.32,2.17A6.65,6.65,0,0,1,185.16,2579.23Z"/><path class="cls-9" d="M192,2618.09c0-.24-.07-.7.1-.83,2.19-1.67,1.46-4.57,2.84-6.6.89-1.31,1.83-1.37,2.9-.58a4.35,4.35,0,0,1,1.32,5.43c-1,2.11-2,4.17-3,6.27-.45,1-1.07.95-1.85.49C192.72,2621.36,192.26,2619.83,192,2618.09Z"/><path class="cls-11" d="M163,2586.49a5,5,0,0,1-3.75,4.35c-1.16.35-2.45.45-3.08,1.81-.36.79-1.21.57-1.88.45s-.7-.74-.72-1.3c0-1.48-1.09-3.17.43-4.38,2.17-1.74,4.33-3.62,7.37-3.62C163.14,2583.8,162.91,2585.16,163,2586.49Z"/><path class="cls-11" d="M180.32,2598.38c-.63,1.63-.53,3.6-2.28,4.68a3.71,3.71,0,0,0-1.19,1.39c-.33.55-.42,1.46-1.46,1.06-.79-.3-1.54-.9-1.46-1.65.25-2.6-.4-5.54,2.36-7.36.8-.53,1.31-1.71,2.54-1.15S180,2597.27,180.32,2598.38Z"/><path class="cls-11" d="M153.09,2568.2c-.4-2.21,1.12-3.31,2.49-4.44a1.45,1.45,0,0,1,1.75.09,3.91,3.91,0,0,1,.19,6.65c-.18.14-.38.26-.57.39-2.58,1.71-3.56,1.25-3.81-1.82C153.11,2568.77,153.1,2568.45,153.09,2568.2Z"/><path class="cls-12" d="M209.68,2596.78a2.39,2.39,0,0,1,2.83,2.22c.22,1.29.59,2.57.77,3.87a1.28,1.28,0,0,1-.86,1.5,1.14,1.14,0,0,1-1.51-.74,1.43,1.43,0,0,0-1.59-1.05c-2,.09-2.67-.76-2.68-3.3C206.63,2597.29,207.76,2596.7,209.68,2596.78Z"/><path class="cls-11" d="M324.58,2617c.34-1.19,0-3.09,2.48-3.15,3-.08,3.8.46,4.1,3.09a2.4,2.4,0,0,0,.47,1.49c1.24,1.45,1,2.24-.88,2.41a33.28,33.28,0,0,0-3.43.48C325.7,2621.65,324.55,2619.86,324.58,2617Z"/><path class="cls-11" d="M346.64,2574a19.4,19.4,0,0,1-4.7-1.44c-1-.44-.74-1.22-.45-2a4.8,4.8,0,0,1,5.88-2.63c1.21.31,3.39-.44,3.54,1.79s-1.5,3.12-3.16,4A5.88,5.88,0,0,1,346.64,2574Z"/><path class="cls-11" d="M318.75,2593.09a6.91,6.91,0,0,1,6.18,4.58c.35,1.27,0,2.23-1.37,2.43-1.59.22-6.09-2.58-6.75-4.08C315.92,2594,316.51,2593.1,318.75,2593.09Z"/><path class="cls-11" d="M342.74,2588.36c.66.19,1.34.35,2,.59,1.55.55,2.93,1.37,2.71,3.27-.14,1.21-2.83,2.23-4.42,1.8a5.65,5.65,0,0,1-1.7-.76c-1-.66-3.18-.49-2.47-2.37A3.76,3.76,0,0,1,342.74,2588.36Z"/><path class="cls-11" d="M310.09,2602.93c-.39,1.79-1.65,2-2.84,2.34-.42.1-.86-.46-1.32-.1-1.13.86-2.19,1.25-3.05-.34-.68-1.25-1.44-2.54-.26-3.84s2.39-1.93,4.13-1.27S308.79,2602.15,310.09,2602.93Z"/><path class="cls-12" d="M353.29,2556.14c-1.6-.28-2.94-.58-3.66-1.82a1.81,1.81,0,0,1,.33-2.18,3.07,3.07,0,0,1,3.58-1c.15.06.3.09.45.14,1.4.5,3.83.5,3.47,2.31C357.14,2555.21,354.74,2555.59,353.29,2556.14Z"/><path class="cls-11" d="M358.82,2584.25a4.94,4.94,0,0,1-3.75-1c-.57-.38-1.38-.65-1.22-1.51a2.18,2.18,0,0,1,1.43-1.42,5.75,5.75,0,0,1,5.69.68c.78.49,1.5,1.22,1.12,2.32s-1.31.91-2.15.92Z"/><path class="cls-24" d="M279.63,2559.84c2.64,0,4.63.39,5.58,2.76.25.62.86.85,1.38,1.19,1.72,1.12,1.69,2.46-.06,3.52a6.83,6.83,0,0,1-10.35-5.72c0-.85.24-1.33,1.1-1.44S279.13,2559.91,279.63,2559.84Z"/><path class="cls-3" d="M304.67,2495c-.1.29-.24.69-.23.7,3.53,1.34-.61,3.81.8,5.5.29.35-.21.68-.64.67-1,0-1.44.83-2,1.48a3.65,3.65,0,0,1-2.48,1c-4,.72-6-1.55-7.67-4.57a3.08,3.08,0,0,1-.58-2.2c.47-1.72.66-3.94,1.82-4.94a12.52,12.52,0,0,1,4.92-2.32C300.88,2489.78,304.72,2493,304.67,2495Z"/><path class="cls-3" d="M221.31,2503.3c.21-1.85-.57-3.13-1.17-4.49-.41-.91-1.74-2.13.52-2.54.36-.07.49-.33.37-.7-.81-2.4,1.24-3.17,2.59-4,1.66-1.07,3.63-1.85,5.43,0a2.34,2.34,0,0,0,.73.57c3.74,1.5,4.74,4.93,2.51,8.59a21.29,21.29,0,0,1-1.68,2.81c-.65.76-.78,3-2.83.89-1-1-3,.45-4.7.45S220.8,2504.72,221.31,2503.3Z"/></g></g></svg>