<svg xmlns="http://www.w3.org/2000/svg" viewBox="0 0 1859.27 556.9"><defs><style>.cls-1{fill:#0ed4b3;opacity:0.8;}.cls-2{fill:#909090;}.cls-3{fill:#163847;}.cls-4{fill:#53b4c8;}.cls-5{fill:#cfd6d9;}.cls-6{fill:#e46064;}.cls-7{fill:#f2ba03;}.cls-8{fill:#f2ba04;}.cls-9{fill:#ce5b62;}.cls-10{fill:#cd5b62;}.cls-11{fill:#cd5c63;}.cls-12{fill:#cc5c63;}.cls-13{fill:#cb5d64;}.cls-14{fill:#f0ba09;}.cls-15{fill:#cb5e65;}.cls-16{fill:#e4b719;}.cls-17{fill:#e7b919;}.cls-18{fill:#e9b917;}.cls-19{fill:#e6ba21;}.cls-20{fill:#ce716d;}.cls-21{fill:#f0ad11;}.cls-22{fill:#ed9598;}.cls-23{fill:#e46165;}.cls-24{fill:#fcfcfc;}.cls-25{fill:#fdfdfd;}.cls-26{fill:#fefefe;}.cls-27{fill:#ee9f85;}</style></defs><g id="Capa_2" data-name="Capa 2"><g id="Capa_1-2" data-name="Capa 1"><path class="cls-1" d="M1307.53,67.65c3.93,14.76,8.55,22,18.85,29.67a98.38,98.38,0,0,0,14.51,7.51c16.44,6.2,38.06,5.72,49.16-1.09,10-6.15,17.88-13.45,21.91-20.39,2.8-4.8,3.59-8.31,3.75-16.63.24-12.4-.87-21.19-3.58-28.14-1.11-2.86-2-5.38-2-5.6a51.35,51.35,0,0,0-2.75-5.29c-4.08-7.23-8.57-11.68-15.3-15.14a67.1,67.1,0,0,1-7.81-4.63c-5.46-4.17-15.6-7.26-25.65-7.84-7.43-.43-12.52.79-23,5.5-6.93,3.13-9.61,5.14-14.29,10.77-2,2.47-4.13,4.89-4.63,5.39-.93.93-1.06,1.39-.92,3.21a10.47,10.47,0,0,1-1.46,3.84c-2.64,4.71-5.75,13.59-7.28,20.78h0A43.56,43.56,0,0,0,1307.53,67.65Zm101.28-.38c-.27,1-.35,1-2,.27a4.61,4.61,0,0,1-1.7-1.05c0-.55,3.11-4.06,3.55-4.06S1409.26,65.6,1408.81,67.27Zm-3-30.55c.1,0,.32.34.48.75s.07.76-.2.76-.48-.34-.48-.76S1405.69,36.72,1405.8,36.72Zm-.72,18.92c2.13-2.09,2.19-2.06,2.76,1.36.27,1.66.2,1.85-.59,1.56a6.6,6.6,0,0,1-1.52-.8,2.11,2.11,0,0,0-1.63-.22h0a2.87,2.87,0,0,1-1,.16C1403.09,57.64,1404,56.72,1405.08,55.64Zm-56.71,45.11a10.16,10.16,0,0,1-2.29-.6c-.92-.33-1.67-.81-1.67-1.06s.4-.29.88-.09a15,15,0,0,0,2,.62C1348.55,99.89,1349.36,100.75,1348.37,100.75Zm3.5-14.3c2.16-2.15,3-2.72,3.22-2.18.29.76-.77,1.9-4.28,4.58C1348,91,1348.54,89.76,1351.87,86.45Zm20.42,16.19c-.2.21-4.13.35-8.73.33-5.73,0-9.15-.28-10.86-.78-3.57-1.06-1.69-1.57,2.6-.71,1.87.38,5,.82,7,1,3.25.28,3.82.18,6.43-1.15l2.86-1.45.55,1.21C1372.42,101.73,1372.5,102.44,1372.29,102.64Zm16.17-85.95c.27-.43.8-.24,1.86.66,1.45,1.23,1.46,1.26.23.93C1388.6,17.75,1388.06,17.34,1388.46,16.69Zm-1.31,62.71c.91,1.65.82,2.25-.41,2.72a22.24,22.24,0,0,0-3.37,1.91c-1.15.78-2.38,1.59-2.72,1.79h0c-1.17.69-.63,0,2.82-3.41C1385.37,80.52,1387,79.16,1387.15,79.4ZM1381.32,24q3.3-2.86,4.61-2.86c1.65,0,1.37.26-3.78,3.47A40.3,40.3,0,0,1,1378,27C1378,26.9,1379.5,25.53,1381.32,24Zm-12-11.89c1.23-1.21,2.33-2.11,2.46-2s-.78,1.22-2,2.43-2.33,2.11-2.45,2S1368.07,13.28,1369.29,12.06Zm2.63,44.61a49.52,49.52,0,0,0,3.79-3.21c1.86-1.76,4.73-3.63,5.55-3.63s-1.67,2.67-3.28,3.41c-1,.48-5.59,4.41-10.09,8.73s-9.25,8.83-10.56,10a17.75,17.75,0,0,1-2.37,2C1355,73.5,1370.41,57.76,1371.92,56.67Zm-14.35-27.91c.52-.43.82-.33,1.29.42s.48,1,0,1a2.88,2.88,0,0,1-1.29-.42C1357,29.39,1357,29.21,1357.57,28.76ZM1364.31,42c1.58-.66.78.27-4.61,5.43-8.62,8.25-12.68,12.05-14.66,13.71h0a7.28,7.28,0,0,1-1.61,1.2c0-.09,4.28-4.53,9.5-9.86C1359.17,46.12,1363.06,42.53,1364.31,42Zm-17.75,4.27c.67-.86,3.87-3.21,3.87-2.85a14.73,14.73,0,0,1-2.26,2.08C1345.83,47.44,1345.53,47.59,1346.56,46.28ZM1354.79,10c1-.36.06.79-3.36,4-2.62,2.51-5.61,5.25-6.64,6.1a11.24,11.24,0,0,1-1.86,1.37C1343,20.74,1353.7,10.38,1354.79,10Zm-27.42,73.62c-.35.56-.61.61-1,.17s-.32-.72.48-1.15C1327.93,82,1328.14,82.38,1327.37,83.61Zm9.5,12.09a4.58,4.58,0,0,1-2-1l-1.25-1,1.25.34C1336.48,94.4,1338,95.72,1336.87,95.7Zm-2.24-9.16a15.67,15.67,0,0,1,2.76-1.64c0,.75-2.31,4.76-2.73,4.74A5.26,5.26,0,0,1,1333,89C1331.9,88.38,1332,88.32,1334.63,86.54Zm-13.07-56.75c.67-.77,2.56-3,4.2-4.92a61.66,61.66,0,0,1,4.42-4.79c1.59-1.38,1.79-1.62-3.51,4.28a8.64,8.64,0,0,0-1.81,2.57,11.73,11.73,0,0,1-2.26,2.95C1320.27,32.36,1319.38,32.28,1321.56,29.79Zm3.54,16.51c-1,.94-1.75,1.55-1.75,1.36,0-.6,2.91-3.64,3.21-3.35S1326.06,45.37,1325.1,46.3ZM1321.35,60c2.46-3.07,3.47-3.92,5.78-4.87,1.61-.65,2.71-.89,2.6-.56-.18.54-6.84,6.18-10,8.48a4.81,4.81,0,0,1-1.36.84C1318.35,63.77,1319.7,62,1321.35,60Zm-1,16.09,1.29.25-1.13,2.26-1.14,2.26-1.54-3.27h0c-1.48-3.15-2.2-6-.94-3.77A4.57,4.57,0,0,0,1320.39,76.05Zm-6.56-27.3c.41-2.46,1.27-4.47,1.91-4.47s1.59,1.17,1.59,2-.57,1.59-3.12,4.74C1313.27,52.2,1313.26,52.14,1313.83,48.75Z"/><path class="cls-2" d="M1093,162.54a7.62,7.62,0,0,1,1.78,1.56c.47.79,7.91,4.19,11.75,5.37s8.52,1.91,8.93,1.39-1.1-2.88-4-7.1c-3.62-5.18-4.26-6.31-6.11-10.64a33.51,33.51,0,0,1-2.47-9.49c-.4-5.36.84-13.46,2.71-17.64a19.91,19.91,0,0,0,1.16-3.25,22.1,22.1,0,0,1,4-7.78,53.43,53.43,0,0,1,9.43-8.49c5-3.1,13.26-5.89,18.63-6.26a24.5,24.5,0,0,1,9.18,1c2.55.69,14.7,5,15.22,5.43a3.88,3.88,0,0,0,1.64,0c1.31-.17,1.4-.23,1.46-1,.18-2-2.45-6-6.33-9.86-4.53-4.45-13.19-10-18.82-12-1.5-.55-3.37-1.27-4.15-1.61-4-1.75-14.8-3.18-20.37-2.69-3.93.35-13.38,3.54-16.07,5.43a75.2,75.2,0,0,0-7.45,6.82h0a6.11,6.11,0,0,0-.87,1.07c-.08.18-1.35,1.86-2.81,3.73-4,5.17-5.39,8.39-7.59,18.11a69.63,69.63,0,0,0-2.1,14.19c0,1.33-.05,3-.09,3.65-.11,1.49.37,4.63.72,4.77a14.24,14.24,0,0,1,1,3.74,52.23,52.23,0,0,0,2.09,7.15c.39.91,1.08,2.56,1.53,3.66C1086.53,155.74,1090.3,160.76,1093,162.54Zm16.27,2.82.42.87-.69-.76h0a3.44,3.44,0,0,1-.74-1.15C1108.15,163.74,1108.76,164.37,1109.24,165.36Z"/><path class="cls-1" d="M1173,514.38a23.62,23.62,0,0,0,1.38-7.83c0-2.09-.39-3.14-1.42-3.78-.81-.5-1.22-.37-1.29.4a15.19,15.19,0,0,1-1.11,3.73,9,9,0,0,1-3.1,3.6c-.37.23-1.29.84-2,1.36a9.54,9.54,0,0,1-2,1.11,2.54,2.54,0,0,0-.88.37,4.66,4.66,0,0,1-1.39.48c-.63.14-2.07.52-3.2.84-2.89.84-9.16,1.12-11,.5a37.66,37.66,0,0,1-7.11-3.21,55.17,55.17,0,0,1-9.88-8.86c-.78-1-1.65-2-1.92-2.3a5.75,5.75,0,0,1-.92-1.7c-.23-.65-.71-1.81-1.06-2.58a20.29,20.29,0,0,1-1.27-8.09,11.1,11.1,0,0,1,1.19-5.85,34.11,34.11,0,0,1,5.53-9.25c.56-.69,1.69-2.11,2.5-3.15,1.81-2.31,3.46-4.08,3.76-4s3.3-3.09,3.25-3.5a2.85,2.85,0,0,0-.84-1.05c-1.34-1.19-1.7-1.16-8.92.77a92.51,92.51,0,0,0-9.27,2.88c-7.67,3.06-9.74,4.36-13.89,8.73a19.38,19.38,0,0,1-2.8,2.65h0c-.19-.18-2.19,2.35-4,5-3.14,4.7-4.52,7.9-4.53,10.48a31.18,31.18,0,0,1-.33,3.27,51.23,51.23,0,0,0,.79,14.69c1.76,7.24,5.29,12.51,13.71,20.45,3.61,3.41,5.24,4.64,7.69,5.79a62.12,62.12,0,0,0,10.87,3.78c3,.57,7.8.44,14.25-.38,1-.12,2.27-.26,2.83-.31a13.82,13.82,0,0,0,4.58-1.07,25.55,25.55,0,0,0,6.8-3.24,36,36,0,0,0,7.46-5.9,23.11,23.11,0,0,0,6.32-10.47C1172,518,1172.52,516.05,1173,514.38Z"/><path class="cls-2" d="M1762.91,42.81a34.52,34.52,0,0,0,1.31,4.66c.5,1.36,1,2.73,1.09,3.05s.73,1.7,1.41,3.06a22.45,22.45,0,0,0,5.82,7.36,27.47,27.47,0,0,0,14.26,4.63c2.51.08,6.2-.22,6.73-.55a15.13,15.13,0,0,1,1.59-.52,35.51,35.51,0,0,0,7.56-3.17,17.42,17.42,0,0,1,2.78-1.35,13.28,13.28,0,0,0,2.57-2.32c1.78-1.87,2.21-2.5,2.21-3.22a2.47,2.47,0,0,0-1.51-2.5c-1-.49-.85-.49-9.23.08-3.1.21-6.88-.28-8.53-1.11-2.76-1.38-5.42-5.12-6.9-9.67a13.19,13.19,0,0,1-.31-7.6c1.11-5.31,1.74-6.75,4.41-9.95,1.52-1.83,6-4.93,7.53-5.2a32.84,32.84,0,0,0,3.24-.91,19.65,19.65,0,0,1,4.85-.88c2.46-.15,2.69-.22,2.69-.75,0-.71-1.93-2.63-4.09-4.08a8.46,8.46,0,0,1-1.9-1.61c-.33-.55-2.2-1.24-6-2.22a23.2,23.2,0,0,0-4.7-.44,10.22,10.22,0,0,0-5.48,1.05,32.46,32.46,0,0,0-3.62,1.74,6.91,6.91,0,0,1-1.27.7,29.68,29.68,0,0,0-2.61,1.64,46.49,46.49,0,0,0-5.81,5,26.27,26.27,0,0,0-5.58,7.24,49.32,49.32,0,0,0-2.48,7.49h0A35.35,35.35,0,0,0,1762.91,42.81Zm4.37-11.49a36.34,36.34,0,0,1,1.86-5c2.19-4.56,9-10.59,15.8-14,5.33-2.66,10.94-2.65,14.31,0a7,7,0,0,1,1.34,1.22c0,.05-1.32.4-2.84.79-5.26,1.34-11.42,5-13.89,8.35a29.56,29.56,0,0,0-4,8.2,10.52,10.52,0,0,0-.75,5.3c.17,3,.61,4.5,2.48,8.25,3.58,7.2,7.89,9.84,16.55,10.14a39,39,0,0,0,5.57-.13,6.35,6.35,0,0,1,1.66-.16,11.13,11.13,0,0,1-.57,1.25,5.74,5.74,0,0,1-2.54,2.29c-6.27,3.67-10.71,5-16.28,4.79-6.89-.22-9.56-1.46-12.67-5.89-.74-1-1.52-2.09-1.72-2.29a51.89,51.89,0,0,1-3.18-6.61,36,36,0,0,1-1.38-5.24h0c-.09-.64-.23-2.86-.3-4.94C1766.56,34.32,1766.62,33.67,1767.28,31.32Z"/><path class="cls-2" d="M1310.75,221.06c4,.62,4.41.58,4.57-.41.13-.83-.52-1.56-2.08-2.34-2.33-1.17-9.94-5.2-10-5.31s1.32-10.79,1.73-12.26.5-3.46.12-3.52a1.84,1.84,0,0,1-.5-.2c-.2-.12-.6.26-1.19,1.12a15.29,15.29,0,0,1-2.48,2.61,43.32,43.32,0,0,0-3.94,4.05c-2.21,2.57-2.38,2.72-3,2.49a3,3,0,0,1-.93-.64,29.35,29.35,0,0,0-5.62-3.41l-1.77-.84-.6.44-.6.44.38,1.09a6.15,6.15,0,0,1,.34,1.28,53.07,53.07,0,0,0,3,5.64,14.5,14.5,0,0,1,.94,1.8l.41,1-1.51,1.89c-3.33,4.16-4.08,5.4-4.37,7.25s0,2,4.64.48c3.83-1.21,6.19-1.77,6.34-1.5,0,.06,1,1.56,2.1,3.34,2.69,4.25,3,4.81,3.12,5.33h0a.61.61,0,0,0,.42.49c.79.13,1-.45,1.39-4.08.22-2,.51-4.26.65-5.1l.24-1.54,2.17-.09A31.83,31.83,0,0,1,1310.75,221.06Zm-22-13.28c-.34-.56-.55-1.06-.47-1.12.24-.18,4.43,2.59,4.38,2.9a5.84,5.84,0,0,1-.83,1.29h0a8.93,8.93,0,0,1-.86,1,9.61,9.61,0,0,1-1.11-2C1289.59,209.26,1289.09,208.33,1288.75,207.78Zm3.84,12.12a14.83,14.83,0,0,1-2,.55,15.61,15.61,0,0,0-2.69.83h0c-1.65.78-1.65.6,0-1.32.68-.8,1.58-1.86,2-2.37s.82-.91.91-.89C1291.13,216.75,1292.82,219.74,1292.59,219.9Zm7.74,3.72c-.14,1.61-.32,2.57-.46,2.55a18.14,18.14,0,0,1-3-4.65,13,13,0,0,1,3.62-.58C1300.53,221,1300.46,222.2,1300.33,223.62Zm.61-7.49c-.1.77-.2,1.57-.22,1.79s-.77.52-2.7.87l-2.67.5-1.15-1.52a25,25,0,0,1-1.62-2.38l-.46-.86,1-1.16c.53-.65,1.24-1.43,1.56-1.76l.58-.58,2.94,1.85,2.94,1.84Zm1.36-10.54c-.21,1.39-.45,3.36-.52,4.38h0c-.11,1.49-.19,1.83-.46,1.78a19.15,19.15,0,0,1-2.33-1.34l-2-1.29a11,11,0,0,1,.89-1.14c.52-.62,1.23-1.52,1.59-2a13.16,13.16,0,0,1,1.95-1.89l1.32-1Zm.27,12.64,0-.73a7.07,7.07,0,0,1,0-1.26l.08-.52,1.86,1a16.1,16.1,0,0,0,2.32,1.05c.25,0,.39.13.32.18a17,17,0,0,1-2.37.2Z"/><line class="cls-2" x1="1017.68" y1="85.15" x2="1017.68" y2="85.15"/><path class="cls-2" d="M951.5,43.84c0,.1-1.57,2.48-1.86,2.86-.43.56-.36.72.37.92a2.86,2.86,0,0,0,1.49,0c.47-.09,1.88-.29,3.14-.45s2.92-.41,3.69-.57a20.42,20.42,0,0,1,2.42-.35,9,9,0,0,0,1.24-.13c.28-.08.36.06.41.75a17.15,17.15,0,0,0,.33,1.88c.17.78.34,1.58.38,1.79a29.29,29.29,0,0,1,.4,2.94,4.92,4.92,0,0,0,.6,2.37,1.07,1.07,0,0,0,1.13,0c.22-.27,3.22-5.55,3.65-6.44.22-.44.57-1.24.79-1.78a6.08,6.08,0,0,1,.5-1,24.33,24.33,0,0,1,2.74.41,35.71,35.71,0,0,0,4.78.68l2,.17a10.07,10.07,0,0,0,1.63,0c.57-.05,1.19-.39,1.25-.68a2.56,2.56,0,0,0-.66-.81c-.38-.38-1.09-1.12-1.57-1.66s-1.17-1.23-1.52-1.55a17.07,17.07,0,0,1-2.73-3.26c-.71-1.16-.76-1.35-.41-1.79a13.87,13.87,0,0,0,.86-1.33c.32-.55.93-1.49,1.35-2.08s1-1.38,1.2-1.75.89-1.25,1.45-1.95c1-1.25,1-1.29.95-1.74a1.23,1.23,0,0,0-.31-.68c-.23-.2-.3-.19-1,.09-1.09.42-1.11.43-1.82.65a25.5,25.5,0,0,0-2.42.87,2,2,0,0,1-.38.16l-1.71.61c-1.61.58-1.92.63-2,.36a.28.28,0,0,0-.17-.22c-.08,0-.2-.29-.27-.61a33.13,33.13,0,0,0-1-3.94c-.31-1-.64-1.92-.74-2.14a8.12,8.12,0,0,1-.68-2.18c.07-.33-.69-.7-1-.48a2.64,2.64,0,0,0-.39.79,10.65,10.65,0,0,1-.53,1.22c-.73,1.38-2.23,4.33-2.52,5-.37.82-1,1.79-1.19,1.75a1.37,1.37,0,0,1-.41-.32,11.47,11.47,0,0,0-1-.89,29.83,29.83,0,0,1-2.74-2.38,11.49,11.49,0,0,0-.89-.84c-.16-.14-.59-.51-.94-.83s-1-.82-1.42-1.13c-.63-.47-.85-.57-1.25-.59a1,1,0,0,0-.64.14.89.89,0,0,0-.17.24c0,.07.79,3,1.05,3.77a14.4,14.4,0,0,1,.61,2.5,11,11,0,0,0,.84,2.58,10.49,10.49,0,0,1,.47,1.34.24.24,0,0,0,.14.2.3.3,0,0,1,.12.27,3.34,3.34,0,0,0,.27,1,6.35,6.35,0,0,1,.33,1c0,.37-2.13,3-3.45,4.14a15.4,15.4,0,0,0-1.2,1.17C952.54,42.46,951.52,43.78,951.5,43.84Zm3.41-.35a10.13,10.13,0,0,0,1.45-1.61.17.17,0,0,1,.13-.14,19.19,19.19,0,0,0,3.15-3.89.57.57,0,0,1,.26-.38c.19-.09.18-.2-.07-1.08a20.88,20.88,0,0,0-1-2.84,11,11,0,0,1-.7-2.49,5.2,5.2,0,0,0-.35-1.13,14,14,0,0,1-.87-2.74,4.61,4.61,0,0,1,.63.52c.31.28,1,.83,1.47,1.22a42,42,0,0,0,4.2,3.14,6.67,6.67,0,0,1,1.15.67c1.19.79,1.31.84,1.66.64s.39-.53.08-.74-.38-1.17-.15-2l.4-1.53a7.09,7.09,0,0,1,.31-1c0-.09.24-.58.42-1.09a8.11,8.11,0,0,1,1.16-2.27c.05,0,.18.29.27.73a2.3,2.3,0,0,0,.26.83.09.09,0,0,1,.07.11,5.68,5.68,0,0,0,.25,1,24.15,24.15,0,0,1,.84,3.79c.21,1.57.2,1.68-.19,2s-.45.49-.22.8.25.22,1.8-.26c.88-.28,1.65-.5,1.69-.49a12.44,12.44,0,0,0,1.23-.35c.64-.21,1.47-.46,1.85-.56s1-.3,1.38-.45a3.25,3.25,0,0,1,.72-.23,8.52,8.52,0,0,1-1.42,1.74,39.14,39.14,0,0,0-4,5.4,3,3,0,0,0,.83,1.13,13.48,13.48,0,0,1,2.25,2.21,9.62,9.62,0,0,0,1.26,1.33,13.71,13.71,0,0,1,2.19,2.2,1.68,1.68,0,0,1-.78,0,21.48,21.48,0,0,0-2.27-.22,26.79,26.79,0,0,1-4.42-.49c-1.4-.23-1.92-.28-2.08-.18a.65.65,0,0,1-.39.09.72.72,0,0,0-.46.2,56.42,56.42,0,0,0-3.08,5.27c-.75,1.59-.69,1.59-.91,0a9.6,9.6,0,0,0-.58-2.52c-.11-.28-.35-1-.53-1.63s-.39-1.38-.49-1.69a2.62,2.62,0,0,1-.14-.73c0-.12,0-.11-.24,0a.7.7,0,0,1-.61.14,5.42,5.42,0,0,0-2.29.34,9,9,0,0,1-1.47.37,5.13,5.13,0,0,0-1.52.52,4.37,4.37,0,0,1-1.49.5l-1.08.19-.73.15c-.27.05-.59.12-.71.16a.88.88,0,0,1-.33,0c-.06,0-.1-.07-.09-.11S954.13,44.27,954.91,43.49Z"/><path class="cls-2" d="M543.8,82.22c.71,0,1.69-.11,2.16-.19l2.33-.36c.79-.12,1.94-.31,2.54-.42a36,36,0,0,1,5.22-.37c1.12,0,1.55-.16,1.59-.59s-.24-.78-.81-1c-1.35-.5-5.14-2.2-7.05-3.16a16.63,16.63,0,0,0-2-.84c-.51-.15-2-.69-3.33-1.18l-2.4-.89-.28-.88a39.7,39.7,0,0,1-1.13-4.09A23.24,23.24,0,0,0,540,66a61.16,61.16,0,0,1-2.21-8.12c-.06-.45-.18-.82-.26-.83l-.39-.09c-.31-.09-.95.51-1.19,1.11a8.76,8.76,0,0,0-.36,1.33c-.2,1-.45,1.84-1.31,4.61-.61,1.93-1.79,5.92-2.15,7.25-.21.79,0,.7-3.31,1.24-.92.15-2.1.36-2.62.47a23.08,23.08,0,0,1-2.83.49c-.48,0-1.33.17-1.89.27l-2.9.47a21.58,21.58,0,0,0-2.49.48,3.33,3.33,0,0,1-1.21.15c-.9-.07-1.18.46-.65,1.2.24.32.45.42,1.09.52a9.91,9.91,0,0,1,2.22.83,22.46,22.46,0,0,0,4.77,1.72c.62.15,2.16.61,3.44,1s2.46.76,2.64.78a2.1,2.1,0,0,1,1.16,1.39,17.15,17.15,0,0,0,.71,3.56c.24.89.64,2.47.89,3.52s.61,2.39.8,3a19.73,19.73,0,0,1,.51,2.05,26.82,26.82,0,0,0,.89,3.7h0c.44,1.28,1,.72,1.88-1.8.52-1.53,2-5.29,3.56-9.3a31.26,31.26,0,0,0,1.09-3.13,7.93,7.93,0,0,1,.37-1.25C540.37,82.42,541.27,82.32,543.8,82.22Zm-.17-1.71a1.34,1.34,0,0,1,.49,0c.14,0,0,.07-.25,0S543.49,80.54,543.63,80.51Zm-2.49-5.94c.14-.21.25-.26.39-.15s.15.18-.09.41C540.94,75.29,540.76,75.13,541.14,74.57Zm-16.55,1.1c-.16,0-.19,0-.07-.09a.27.27,0,0,1,.27,0S524.74,75.69,524.59,75.67Zm6.56,6.15c0-.37.28-.82.52-.8s.23.59,0,1C531.3,82.58,531.18,82.53,531.15,81.82Zm.4,3.12-.06-.43.35.41c.33.38.33.43.11.7S531.68,86,531.55,84.94Zm.54,2.49c-.05,0-.12-.05-.16-.19s0-.23.08-.08S532.14,87.39,532.09,87.43Zm.64,2.44c-.05.11-.13,0-.22-.17-.18-.41-.09-.56.14-.23A.47.47,0,0,1,532.73,89.87Zm1.1,3.88-.09.54-.07-.55c-.07-.51,0-.82.19-.62A1.39,1.39,0,0,1,533.83,93.75Zm.31-22.52a1.55,1.55,0,0,1-.4.25c-.27.11-.29.1-.2-.1a1.54,1.54,0,0,0,.14-.53c0-.29,0-.29.29,0S534.19,71.16,534.14,71.23Zm.47,12.15c-.41-.75-.41-.75-.1-.55a.91.91,0,0,1,.35.4C535,83.61,534.8,83.72,534.61,83.38Zm.65-4.21a2.35,2.35,0,0,1-.11.71,2.82,2.82,0,0,1-.37-.42l-.34-.42.44-.3.44-.3Zm.53,12a2.54,2.54,0,0,1-.17.52c-.13.31-.14.29-.11-.19,0-.29.09-.52.17-.52A.15.15,0,0,1,535.79,91.14Zm.54-28.66c0-.41,0-.68.09-.67s.15.35.17.76C536.63,63.75,536.4,63.68,536.33,62.48Zm.55,17c-.14,0-.22,0-.21-.14s.25-.27.36-.06S537,79.48,536.88,79.51Zm.7-9.08a2.88,2.88,0,0,1,.13-.78,1.74,1.74,0,0,1,.26.51c.18.49.17.52-.13.78l-.32.27Zm.52,15.11a6.42,6.42,0,0,0-.29.69c-.22.61-.44.76-.49.32s.44-1.14.67-1.12S538.14,85.49,538.1,85.54Zm1.28-10a.83.83,0,0,1-.33.19s0-.1.1-.21a.5.5,0,0,1,.33-.18C539.55,75.39,539.51,75.49,539.38,75.59Z"/><path class="cls-2" d="M1400.28,525.15c1-.08,2.44-.23,3.21-.32a16.11,16.11,0,0,1,1.77-.15,2,2,0,0,0,1.42-1.24c0-.72-.17-1-.91-1.42a23.42,23.42,0,0,0-2.81-1.21,28.17,28.17,0,0,1-5.18-2.21c-.59-.31-1.44-.73-1.9-.92l-1.49-.65-.66-.29.07-1.07c0-.59.14-1.95.23-3,.33-3.91.64-12.72.45-12.93s-.19-.15-.2,0a.21.21,0,0,1-.22.19c-.12,0-.42.26-.67.59s-.85,1.07-1.33,1.62-1.13,1.4-1.44,1.86a25.81,25.81,0,0,1-1.64,2.08c-1.37,1.57-3.72,4.32-4.56,5.35l-.66.81-.77-.55c-.42-.31-1.22-.82-1.78-1.14s-1.72-1.1-2.57-1.73-2.07-1.46-2.7-1.86-1.69-1.13-2.35-1.63a26.38,26.38,0,0,0-3-1.85c-1-.51-1.93-1-2.15-1.16a13.32,13.32,0,0,1-1.34-.92,3.85,3.85,0,0,0-1.33-.71,1.63,1.63,0,0,0-1.26,1c-.25.61,3.17,7.7,5.11,10.58a26,26,0,0,1,1.46,2.5,24.6,24.6,0,0,0,3.28,5.52,9.85,9.85,0,0,1,1.27,1.78,3.11,3.11,0,0,1-.6.93c-.32.39-1.15,1.48-1.86,2.43s-1.66,2.14-2.12,2.68-1,1.15-1.14,1.37a8.17,8.17,0,0,1-.83.91,46,46,0,0,0-3.45,4c-.6.86-1,1.81-.73,2a2.71,2.71,0,0,0,1-.09c1-.23,5.42-1.48,6.35-1.81a17.63,17.63,0,0,1,2.07-.5,36.33,36.33,0,0,0,7.45-2.06c1.13-.42,1.41-.47,1.54-.28s.65.94,1.24,1.78c1,1.4,2.64,4.19,4.2,7,.33.61,1,1.79,1.46,2.63h0a7.68,7.68,0,0,0,1,1.55,1.23,1.23,0,0,0,1-.83,109.91,109.91,0,0,0,.55-12.5c0-.8-.1-1.91-.12-2.47l0-1,1.37-.72A16.06,16.06,0,0,1,1400.28,525.15Zm-8.91,2.38a3.78,3.78,0,0,1-.25.88c-.12.2-.11,1.27.06,4.2,0,.83,0,2.47,0,3.62a16.56,16.56,0,0,0,0,2.7h0a4.65,4.65,0,0,1,0,1.3c-.09.61-.12.66-.25.35s-.59-1.18-1.14-2.17c-3.16-5.68-5.29-8.81-6-8.85a23.37,23.37,0,0,0-4.37,1.26,12.75,12.75,0,0,1-2.07.57,27.71,27.71,0,0,0-4.61,1.1c-.48.18-1.26.45-1.74.59-.82.25-2,.64-3.08,1l-.48.16.33-.51c.19-.27.94-1.17,1.67-2,2.09-2.31,3.86-4.43,5-6,.59-.81,1.36-1.8,1.7-2.2a9.32,9.32,0,0,0,1.08-1.62l.46-.9-.37-.63a16.62,16.62,0,0,0-1.28-1.7,16.89,16.89,0,0,1-2.65-4.27,21.49,21.49,0,0,0-1.22-2.32c-1.44-2.33-4.1-6.93-4.1-7.06s0-.2,1.45.5a17.77,17.77,0,0,1,2.59,1.65c.72.56,1.67,1.25,2.12,1.53.89.57,3,2.09,4.08,2.89.36.27,1.17.8,1.81,1.17s1.53.93,2,1.24a2.18,2.18,0,0,0,1.15.47,8.26,8.26,0,0,0,2.08-2c.69-.87,3.23-3.88,4.11-4.87.52-.58,1-1.18,2.68-3.47.22-.29.45-.46.52-.38s-.29,10.44-.56,12.22c-.32,2.17-.36,2.11,1.85,3a37.53,37.53,0,0,1,3.88,1.91,19,19,0,0,0,2.52,1.27c.66.18.7.45.06.42a9.74,9.74,0,0,0-2.88.59l-1.4.52a24.16,24.16,0,0,0-2.5,1.28C1391.83,526,1391.6,526.25,1391.37,527.53Z"/><path class="cls-2" d="M965.05,543.81a1.94,1.94,0,0,1-.85-.53c-.35-.46-3.6-1.65-6.23-2.28l-2.1-.51,2-1.83a9.83,9.83,0,0,0,1.9-2A.92.92,0,0,1,960,536c.42-.71-.17-1.34-.83-.9a1,1,0,0,1-.76.17c-.17-.08-.31,0-.32.13s-.2.26-.44.25a7.46,7.46,0,0,0-3.6,1.75l-1.12.94-.56-.94c-.31-.52-.79-1.44-1.06-2a26.85,26.85,0,0,0-1.48-2.67,10.36,10.36,0,0,1-1-1.76,2.22,2.22,0,0,0-.56-.77,4.25,4.25,0,0,1-.81-1.29c-.3-.82-.35-.84-.86-.37s-.68,2-.25,3.37c.21.68.55,1.84.74,2.58a18.17,18.17,0,0,0,1,2.65c.83,1.69.81,1.83-.29,1.6a13.6,13.6,0,0,0-3.15.1,25.81,25.81,0,0,1-2.87.25,2.17,2.17,0,0,0-1.24.55,2.19,2.19,0,0,1-.87.57c-.12,0-.24.12-.26.29s-.08.49-.13.72,0,.43.33.44a.65.65,0,0,1,.56.39c.08.24.45.38,1,.41a28.24,28.24,0,0,1,5.73,1.81,5.83,5.83,0,0,1-.72,1.83c-.78,1.55-1.59,4.81-1.32,5.3s1.12.13,2.12-1c.6-.67,1.81-1.89,2.68-2.73l1.59-1.51.44.62a20,20,0,0,1,1.14,2,25.51,25.51,0,0,0,2.33,4.21c1.35,1.64,2.09-1.83,1.25-5.82a5.46,5.46,0,0,1-.19-1.34,17.83,17.83,0,0,1,2.33.26,18.77,18.77,0,0,0,5.83.21c.4-.16.56-.55.5-1.27a.46.46,0,0,1,.35-.43C965.81,544.35,965.72,544,965.05,543.81Z"/><path class="cls-2" d="M189.74,550.36c.13,1.3.8,1.19,2.17-.36,1.82-2.07,1.86-2.08,3.37-.25l2.89,3.45a10.4,10.4,0,0,0,1.87,1.9c.83.12,1.11-.27,1.22-1.69.16-2,0-2.74-1.43-5.35a6.74,6.74,0,0,1-1-2.25,2.88,2.88,0,0,0,1.06-.72,3.08,3.08,0,0,0,.52-3.76c-.43-.79-.59-.85-2.46-.92l-2-.08-1.06-3.79c-.79-2.82-1.19-3.84-1.57-4s-.55,0-.76,1.07c-.14.69-.33,2.26-.43,3.5-.2,2.54-.3,2.62-1.71,1.36-1.18-1.06-2.4-1.55-2.84-1.14a7.44,7.44,0,0,0-.57,3.71,1.43,1.43,0,0,0,.85.9c1.09.46,3,2.6,2.81,3.13A22.21,22.21,0,0,0,189.74,550.36Z"/><path class="cls-2" d="M802.54,28c.22-.44.08-.72-.46-.93s-4.27.72-6,1.49c-.41.18-.42.22-.21.45s.16.3.08.36h0c-.07.05.08.09.35.08l.73,0c.13,0,.92-.16,1.76-.36s2-.43,2.5-.5C802.17,28.49,802.36,28.4,802.54,28Z"/><path class="cls-2" d="M809.31,31.19c.32-.4.32-.45.1-.76a.74.74,0,0,0-.63-.31c-.62,0-5.35,3.58-5.46,4.11a2.14,2.14,0,0,1-.6.68A10.3,10.3,0,0,0,801.6,36h0l-.58.64.36.07c.4.08,2-.94,3.94-2.47.62-.49,1.69-1.28,2.38-1.75A10.29,10.29,0,0,0,809.31,31.19Z"/><path class="cls-2" d="M807.66,40.17h0c.22.34.74.15,1-.36a5.7,5.7,0,0,0,.08-3.36c-.75-1.07-1.35.07-1.09,2.07a4.21,4.21,0,0,1,0,1.12A1,1,0,0,0,807.66,40.17Z"/><path class="cls-2" d="M793.21,21.35a64.45,64.45,0,0,0,6.22,1.86,45.52,45.52,0,0,1,4.81,1.57c.49.18,1.47.5,2.18.69A59.46,59.46,0,0,1,813.25,28c.35.22.38.82.19,3.88a69.84,69.84,0,0,1-.79,7.39c-.53,3.24-.7,5.48-.42,5.54.08,0,.11.16.07.33h0a.28.28,0,0,0,.25.37c.45.1,1.1-.67,1.28-1.5a15.52,15.52,0,0,1,.75-2.09,15.44,15.44,0,0,0,.85-2.54c.21-1,1.12-3.69,2.49-7.37.2-.53.5-1.41.66-1.95.48-1.59.66-2,.88-1.84a48.89,48.89,0,0,0,5.75.81l4.17.45a43.46,43.46,0,0,0,4.44.3c.93,0,2.57,0,3.64,0,1.95,0,2,0,2-.37a1,1,0,0,0-.1-.67,9.34,9.34,0,0,0-2-.84c-2-.65-5.61-1.86-9.06-3.08a36.27,36.27,0,0,1-3.68-1.5c-.77-.38-1.72-.83-2.1-1a12.77,12.77,0,0,1-2.75-1.24,2.18,2.18,0,0,1-.2-.86,11.34,11.34,0,0,0-.16-1.2c-.06-.28-.22-1-.36-1.61a29.65,29.65,0,0,1-.56-4.5,10.88,10.88,0,0,0-.26-1.77,42.83,42.83,0,0,1-.7-5.88,2.65,2.65,0,0,0-.12-1c-.22-.79-.72-1.09-1.32-.78l-.39.2-.08,1.73a23.08,23.08,0,0,1-.35,3,45.78,45.78,0,0,0-.48,7,27.71,27.71,0,0,1-.44,5c-.14.23-1.44.23-5.5,0-2.38-.12-3.77-.13-6.58-.07-.62,0-1.52,0-2,0s-1.27-.05-1.75-.06a32.05,32.05,0,0,1-4.82-.39c-.31-.2-.79.35-.8.9A.78.78,0,0,0,793.21,21.35Z"/><path class="cls-2" d="M798.26,40.08a8.15,8.15,0,0,0,2-1.32c.28-.27.29-.33.11-.64s-.71-.41-1.4.17c-.86.71-1.15,1.15-1,1.49h0C798.06,39.93,798.19,40.07,798.26,40.08Z"/><path class="cls-2" d="M819,37.49c-.49.41-.49.87,0,2.67.4,1.39.49,1.56.87,1.62s.43,0,.49-.39a10,10,0,0,0-.73-3.92C819.38,37.23,819.31,37.23,819,37.49Z"/><path class="cls-2" d="M824.53,36.45c-.44-1.22-2.74-3.69-3.34-3.59-.38.06-.43.74-.11,1.35a5.78,5.78,0,0,0,1.06,1.21,6.9,6.9,0,0,1,1.05,1.18,1.42,1.42,0,0,0,.76.66h0C824.61,37.47,824.8,37.2,824.53,36.45Z"/><path class="cls-2" d="M831,36.54c.18,0,.3-.06.34-.28s-.23-.53-1.92-1.66c-2.13-1.44-2.31-1.48-2.47-.58-.1.6,0,.7,1.69,1.72a4.8,4.8,0,0,0,1.69.76A4.38,4.38,0,0,1,831,36.54Z"/><path class="cls-2" d="M825.77,39.85c-.1.46.17.94,1.58,2.82.58.78,1.21,1,1.4.43.09-.23-.11-.7-.68-1.62C826.8,39.41,826,38.83,825.77,39.85Z"/><path class="cls-2" d="M79.59,347.69c-.91-.19-1.34.1-1.24.84s.45.86,3.15,1.8c1.06.37,3,1.2,4.41,1.85,2.25,1.07,3.33,1.49,3.88,1.5a2.83,2.83,0,0,1,.5.08c.17.05.57.13.9.19h0c1.29.25,1.4,0,.31-.71C87.55,350.71,82.26,348.25,79.59,347.69Z"/><path class="cls-2" d="M56,346.89a43.73,43.73,0,0,0,6.35.3c.09,0,.19.11.21.26A118.4,118.4,0,0,1,58.37,359c-.73,1.75-1.4,3.49-1.48,3.88a2.41,2.41,0,0,0,.24,2.06c.37.28.42.25,1.26-.59a14.15,14.15,0,0,1,1.14-1,6.67,6.67,0,0,0,1.06-1.67,29.15,29.15,0,0,1,6.91-9,9.37,9.37,0,0,0,1.17-1.17c.41-.64.37-.67,3.62,2.26a20.77,20.77,0,0,0,1.92,1.49c.52.34,1.2.81,1.51,1a45.34,45.34,0,0,0,6.91,3.85,1.36,1.36,0,0,0,1.62-.55c.25-.57-.26-1.35-1.64-2.48A28.66,28.66,0,0,1,80,354.42a62.36,62.36,0,0,1-5.42-7.37l-.2-.5,2-.27a89.69,89.69,0,0,0,10.26-2.06c1-.31,2.33-.69,2.91-.84,1.08-.27,2-.89,1.94-1.31s-.78-.71-2.11-.58a59,59,0,0,1-8.72.06c-.64-.06-1.65-.1-2.24-.09a27.14,27.14,0,0,1-4.68-.53,4.72,4.72,0,0,1,.57-1.49c.38-.77.91-1.95,1.17-2.63,1-2.6,3-7.16,3.32-7.8s.42-1.1.1-2.31c-.24-.88-.31-.94-.84-.72s-5.9,7.23-7.2,9.32c-.44.7-1.07,1.61-1.41,2l-.62.76-.87-.75c-.47-.42-1.59-1.58-2.48-2.58a70.89,70.89,0,0,0-7-7.15c-1.06-.83-1.11-.85-1.42-.49a2.89,2.89,0,0,0-.63,2.1,15.72,15.72,0,0,0,2.12,4.8,15.36,15.36,0,0,1,1.11,2,23.82,23.82,0,0,0,1.46,2.28c1.15,1.68,1.37,2.1,1.15,2.22s-2.51.45-5.25.82a34.56,34.56,0,0,0-6.37,1.16,26.13,26.13,0,0,1-3.8.86c-2.74.42-3,.57-2.84,1.67.09.64.18.75.75.92a8.42,8.42,0,0,0,2.92.42A79.4,79.4,0,0,1,56,346.89Zm14.3,0a4,4,0,0,1,.69.68c.67.77.68,1,0,.24S70.15,346.92,70.25,346.91Z"/><path class="cls-2" d="M68.54,354.73c-.19.46-.16.73.19,1.81.23.7.79,2.46,1.24,3.92a13.9,13.9,0,0,0,1.11,2.89c.24.21.3.2.47-.1a2.74,2.74,0,0,0,.23-1,45.75,45.75,0,0,0-2-7.53C69.43,353.93,68.85,353.93,68.54,354.73Z"/><path class="cls-2" d="M56.49,350.3c-.79.1-4.35,2.63-6.19,4.39-1.64,1.57-2.83,3.34-2.5,3.74s.8.07,2.17-1.28c.47-.47,2.05-1.75,3.49-2.85s2.81-2.16,3-2.36C57.2,351.26,57.21,350.2,56.49,350.3Z"/><path class="cls-2" d="M57.17,338.12c.32-.5-.27-1.3-1.33-1.81-2.23-1.07-5.66-2.55-7.75-3.34-1.69-.64-2.25-.78-2.35-.57a1.09,1.09,0,0,0-.11.37,6.77,6.77,0,0,0,1.93,1.28c.11,0,.17.05.13.13s.28.35.7.59c1.26.73,6.5,3.18,7.36,3.44h0C56.73,338.51,56.94,338.5,57.17,338.12Z"/><path class="cls-2" d="M66.88,321.05q-.51,1.08-.1,5.49c.13,1.47.3,3.67.36,4.88a5.78,5.78,0,0,0,.36,2.42c.16.15.33.15.55,0,.57-.41.54-4.32-.07-9.2C67.49,320.66,67.32,320.12,66.88,321.05Z"/><path class="cls-2" d="M89.36,332.67c-.29,0-.54.06-.56.16s-.37.27-.78.38a9.72,9.72,0,0,0-1,.35,9.72,9.72,0,0,1-2.34.67c-2.44.55-4.72,1.43-5.37,2.07s-1,1.4-.73,1.83h0c.21.37.73.28,1.79-.31a18.52,18.52,0,0,1,2.53-1,15.7,15.7,0,0,0,3.68-1.54,6.09,6.09,0,0,1,1.07-.55,3.84,3.84,0,0,0,1.23-.84,2.12,2.12,0,0,1,.7-.59.6.6,0,0,0,.44-.83c-.08-.21-.24-.28-.41-.19s-.21.17,0,.29S89.73,332.68,89.36,332.67Z"/><path class="cls-2" d="M1353.26,340a12.56,12.56,0,0,0-4.12-.06c-1.34.22-5.08.61-6.17.65-.41,0-1.58.1-2.6.19a23.4,23.4,0,0,1-5.33-.15c-1.92-.18-3.58-.3-3.7-.28s-.6-1.13-1.11-3.14c-.19-.75-1.54-5.4-1.76-6.06-.1-.3-.34-1.07-.53-1.71l-.56-1.8a12.36,12.36,0,0,1-.35-1.54c-.53-3.12-.66-3.75-.93-4.35s-.37-.68-.73-.72c-.69-.07-1.2.42-1.86,1.84l-1.67,3.51c-.59,1.22-1.27,2.75-1.53,3.38-.48,1.21-.74,1.8-2.3,5.26-.52,1.14-1.18,2.64-1.46,3.32l-.52,1.24-1.19-.53a77.52,77.52,0,0,0-11.56-4.24c-1.24-.37-2.45-.76-2.69-.87a14.71,14.71,0,0,0-3.41-.9,1.47,1.47,0,0,0-1,1.06c-.11.33,0,.6,1,2,.63.88,1.56,2.23,2,3s1.62,2.38,2.5,3.58c1.77,2.44,2.93,4.27,2.9,4.58a.48.48,0,0,0,.23.39,6.84,6.84,0,0,1,1,1.35c.42.65,1,1.44,1.2,1.75a3.53,3.53,0,0,1,.42.65c-.06.62-14.57,12.51-17,13.93-1.43.84-1.68,1.21-1.36,2.12.25.71.44.79,1.57.66a24.61,24.61,0,0,1,4.32,0c.78,0,1.93.06,2.56,0s1.88,0,2.78.08,2.72.16,4,.21,3.58.18,5,.29l2.61.2.39,1.73c.68,3,1.08,5.08,1.29,6.73.11.88.38,2.47.59,3.53s.47,2.47.58,3.15c.62,3.73.85,4.61,1.3,4.94s.46.31,1,.13,1.3-1.07,1.88-2.47a11.47,11.47,0,0,1,.78-1.47,22.72,22.72,0,0,0,1.09-2.07c.6-1.28,2.34-4.59,3.28-6.21a34.28,34.28,0,0,0,2.35-5.18c.94-2.53,1.15-3,1.39-2.94a24.83,24.83,0,0,1,2.37,1.51L1333,372c.24.14,1.09.71,1.9,1.26s2.38,1.5,3.48,2.11,2.44,1.39,3,1.73a18.23,18.23,0,0,0,1.89,1.05l.9.42.46-.27c.77-.45.9-.84.59-1.7a30.47,30.47,0,0,0-2-4c-.29-.49-.74-1.35-1-1.91s-.7-1.36-1-1.76a13.16,13.16,0,0,1-.87-1.68,10.9,10.9,0,0,0-.88-1.67,28.32,28.32,0,0,1-2.15-4.28l-.88-2.2-.4-1,.33-.36c.18-.2.93-.87,1.67-1.49a18.25,18.25,0,0,0,2.15-2.19,14.29,14.29,0,0,1,1.44-1.59c.35-.3,1.26-1.19,2-2,1.72-1.77,5.39-5.26,7.51-7.17.87-.78,1.75-1.61,2-1.84h0a1.92,1.92,0,0,0,.42-.89C1353.63,340.17,1353.57,340.06,1353.26,340ZM1300,336.2l0,.38-.4-.47a1.9,1.9,0,0,1-.36-.51,2.08,2.08,0,0,1,.44.09C1299.91,335.79,1300,335.9,1300,336.2Zm3.82,1.49c-.15.19-.22.22-.15.08a2,2,0,0,0,.13-.48c0-.11.09-.2.17-.19S1304.1,337.27,1303.78,337.69Zm1,6c-.12,0-.21-.09-.21-.17s.12-.09.23,0,.22.13.21.17S1305,343.68,1304.82,343.67Zm1.64-4.64a7.6,7.6,0,0,1-1.17,2c-.15,0,0-.81.29-1.93s.45-1.3.83-1.16h0C1306.71,338,1306.72,338.32,1306.46,339Zm-9.78,25.45c0,.35-.18.46-.52.43s-.2-.34.23-.55C1296.66,364.23,1296.7,364.25,1296.68,364.48Zm5.18.27c-.27,0-.27-.56,0-.9s.16-.18.14,0a3,3,0,0,0,0,.56C1302.09,364.69,1302,364.77,1301.86,364.75Zm.34-5.76a26.27,26.27,0,0,1-1.2,3.41c-.11.2-.29.59-.41.86-.19.44-.19.37,0-.53.1-.57.23-1.44.28-1.93a1.72,1.72,0,0,1,.76-1.5C1302.1,358.83,1302.24,358.76,1302.2,359Zm6.5-20.07a18.74,18.74,0,0,1-1.28,2.88,6.8,6.8,0,0,1,.38-1.29c.23-.67.47-1.37.54-1.55s.17-.32.26-.31S1308.72,338.78,1308.7,338.92Zm2.25,17.15a23.61,23.61,0,0,1-.81,3.68s.08-1.35.21-2.9.21-3.21.18-3.67a3.49,3.49,0,0,1,.11-1.29c.13-.34.15-.14.1.94a4,4,0,0,0,.15,1.74A2.62,2.62,0,0,1,1311,356.07Zm-.32-14.95c-.26.68-.53,1.43-.59,1.67a9.38,9.38,0,0,1-.84,2.07c-.12.1-.13.11.81-3a6.8,6.8,0,0,1,.84-2.2C1311.16,339.67,1311.13,339.86,1310.63,341.12Zm1.69,2.21a.42.42,0,0,1-.11-.36c0-.21,0-.22.15,0S1312.49,343.47,1312.32,343.33Zm.38-.85c0,.17-.07.2-.1.08a.26.26,0,0,1,0-.28S1312.72,342.32,1312.7,342.48Zm.38-.84c-.17.43-.65.64-.61.27,0-.09.08-.11.17,0s.13,0,.08-.23.27-1,.51-1h0C1313.38,340.66,1313.33,341,1313.08,341.64Zm.63,7c0,.18-.07.21-.1.08s0-.24,0-.28S1313.73,348.46,1313.71,348.61Zm.27-1.41c0,.29-.07.4-.09.25a1.3,1.3,0,0,1,0-.52C1314,346.79,1314,346.91,1314,347.2Zm.46,23.1c0,.16,0,.29-.08.29s-.08-.14-.11-.31,0-.3.09-.29S1314.46,370.14,1314.44,370.3Zm0-25c-.37,1.38-.38,1.38-.17.28.12-.61.27-1.44.34-1.84a5.21,5.21,0,0,1,.77-2.26h0c.15,0,.14.09-.25,1.41C1315,343.44,1314.67,344.53,1314.46,345.29Zm1.11,5.47c0,.24-.07.32-.09.17a.86.86,0,0,1,0-.44C1315.58,350.39,1315.6,350.51,1315.57,350.76Zm.35-2.08c-.05.5-.1.68-.1.4a3.57,3.57,0,0,1,.1-.89C1316,348,1316,348.19,1315.92,348.68Zm.95,32.95c-.17.56-.17.55-.11-.28,0-.48.14-.85.22-.84S1317.12,380.74,1316.87,381.63Zm.36-14.88c-.13.24-.15.2-.12-.21s.1-.45.18-.39S1317.45,366.37,1317.23,366.75Zm.84-26.58c0,.13-.08.22-.16.21s-.1-.11,0-.23.14-.21.17-.21S1318.09,340.05,1318.07,340.17Zm2.33,37.76c-.36,1.51-.46,1.51-.21,0a6.75,6.75,0,0,1,.39-1.54C1320.79,376.11,1320.75,376.44,1320.4,377.93Zm1.92-23.75c-.13.24-.15.21-.12-.2s.11-.48.19-.47S1322.54,353.79,1322.32,354.18Zm.31-1.61c0,.17-.06.2-.1.08a.34.34,0,0,1,0-.29C1322.63,352.32,1322.65,352.41,1322.63,352.57Zm-.11-4.62c-.08,1-.15,2-.15,2.21s-.23.57-.37.39a15.41,15.41,0,0,1,.3-2.28l.38-2.19Zm1.68,8.29-.35.17.19-.92c.11-.51.24-1.28.28-1.72.1-.9.34-1.08.3-.21,0,.3,0,1,0,1.54C1324.55,356,1324.52,356.09,1324.2,356.24Zm.51,3.54a10,10,0,0,1-.27,1.48c-.14.44-.16.38-.08-.39a7.45,7.45,0,0,1,.27-1.47C1324.8,358.86,1324.8,358.89,1324.71,359.78Zm.14-8.57c0,.45-.09.63-.11.4a3.22,3.22,0,0,1,.09-.82C1324.89,350.57,1324.9,350.76,1324.85,351.21Zm1.29-14.63c0,.16-.06.29-.09.29s-.08-.14-.11-.31,0-.3.09-.29S1326.15,336.41,1326.14,336.58Zm1.31,6.57c.06-.09.07,0,0,.28s-.07.32-.09.17A.92.92,0,0,1,1327.45,343.15Zm.39,18.12c-.34,1.32-.81,1.85-.52.59a15.34,15.34,0,0,1,.87-2.73C1328.33,359,1328.16,360.06,1327.84,361.27Zm1.75-14.87c0,.22-.13.79-.21,1.25-.23,1.32-.45,1-.3-.44.11-1,.18-1.26.36-1.24S1329.64,346.12,1329.59,346.4Zm1,17.48a1.72,1.72,0,0,1-.41.93c-.21.16.09-.83.3-1S1330.65,363.75,1330.62,363.88Zm-.11-5.9a.16.16,0,0,1-.13-.17c0-.09.08-.11.15-.05s.14.14.13.17S1330.59,358,1330.51,358Zm2.3-14.67c-.2,0-.36.13-.53.55-.26.63-.3.65-.66.32s-.2-.27.33-.91.65-.67,1-.67.48.06.47.13A.74.74,0,0,1,1332.81,343.31Zm.85,3.41A3.86,3.86,0,0,1,1334,345c.22-.25.23-.24.27.06a.91.91,0,0,1,0,.37s-.21,1.23-.41,2.69-.4,2.68-.44,2.71A26.88,26.88,0,0,1,1333.66,346.72Zm.46,11.41c-.27-.59-.3-1.09-.07-.9a.45.45,0,0,1,.11.39.7.7,0,0,0,.25.51.62.62,0,0,1,.26.4C1334.63,358.88,1334.38,358.7,1334.12,358.13Zm.52,11.93c-.09-.11-.12-.24-.07-.28s.12.05.16.2S1334.77,370.22,1334.64,370.06Zm2.45-26.07c-.08.58-.68,3.25-.92,4.12a8.63,8.63,0,0,1,.15-1.9c.24-2,.31-2.38.56-2.58S1337.17,343.43,1337.09,344Zm2.28,2.6a11.07,11.07,0,0,1-.7,2,8.16,8.16,0,0,1,.31-2.42c.14-.42.15-.43.29-.09A1.07,1.07,0,0,1,1339.37,346.59Zm-.07-2c-.16.63-.17.61-.09-.34a2.63,2.63,0,0,1,.24-1.08C1339.63,343.1,1339.58,343.56,1339.3,344.6Zm.86,6.19c-.56.43-.61.27-.15-.46.23-.39.34-.46.48-.31S1340.71,350.36,1340.16,350.79Zm1.49-3c0,.25-.07.33-.09.18a.82.82,0,0,1,0-.45C1341.66,347.41,1341.68,347.54,1341.65,347.78Zm.59-5.12c-.15-.11-.14-.15,0-.2a.34.34,0,0,1,.31,0h0C1342.84,342.79,1342.57,342.92,1342.24,342.66Zm2.22,2.89c-.07.44-.45,1.2-.58,1.19s-.1-.28-.07-.61.15-.62.38-.72S1344.5,345.33,1344.46,345.55Zm.44-3c-.46.46-.61.47-.44,0s.51-.65.74-.63S1345.29,342.12,1344.9,342.51Zm2.34,1.62-.4.24.1-.48a1.22,1.22,0,0,1,.62-.8c.29-.17.51-.26.49-.19A2.13,2.13,0,0,1,1347.24,344.13Zm3.4-2.78c-.08,0-.15,0-.14-.08a.17.17,0,0,1,.17-.15c.08,0,.14.05.14.09S1350.73,341.31,1350.64,341.35Z"/><path class="cls-2" d="M1030.67,331.47c.2.82.68,1,4.24,1.86,1.4.33,4,1.12,5.86,1.77,3,1.06,4.43,1.44,5.13,1.38a3.83,3.83,0,0,1,.64,0c.22,0,.75.09,1.17.12,1.67.14,1.79-.21.31-.95-5.37-2.69-12.42-5.11-15.89-5.46C1030.94,330.11,1030.44,330.54,1030.67,331.47Z"/><path class="cls-2" d="M1020.84,346c-.19.62-.12.95.45,2.29.37.86,1.28,3,2,4.85a19.35,19.35,0,0,0,1.74,3.55c.34.24.42.22.6-.18a3.65,3.65,0,0,0,.17-1.31,56.78,56.78,0,0,0-3.37-9.36C1021.88,344.87,1021.15,344.94,1020.84,346Z"/><path class="cls-2" d="M1000.93,342.59c-.88.52-3.83,5.26-5.12,8.24-1.16,2.66-1.69,5.34-1.11,5.64s1-.3,1.92-2.58c.33-.79,1.56-3.07,2.72-5.08s2.24-3.93,2.4-4.28C1002.25,343.38,1001.73,342.13,1000.93,342.59Z"/><path class="cls-2" d="M981.81,321.6c.12-.06.22,0,.21.1s.48.31,1.08.44c1.82.37,9.16,1.21,10.32,1.18h0c1.31,0,1.55-.13,1.69-.68.18-.73-.86-1.46-2.36-1.65-3.13-.4-7.88-.81-10.74-.92-2.31-.09-3,0-3.08.26a1.39,1.39,0,0,0,0,.49A8.48,8.48,0,0,0,981.81,321.6Z"/><path class="cls-2" d="M1004.8,306.07c1.11,1.62,1.71,2.35,2,2.41s.46-.06.6-.38c.34-.82-2.29-5.07-6.2-10-3.18-4-3.72-4.49-3.58-3.19q.17,1.53,3.54,6.07C1002.28,302.51,1003.92,304.8,1004.8,306.07Z"/><path class="cls-2" d="M1028.82,302.22c-2.3,2.22-4.2,4.7-4.48,5.83s-.12,2.17.42,2.48h0c.47.27,1-.17,1.74-1.52a24.35,24.35,0,0,1,2.08-2.81,20.55,20.55,0,0,0,3-4.13,7.81,7.81,0,0,1,.8-1.31,4.94,4.94,0,0,0,.78-1.74,2.59,2.59,0,0,1,.38-1.1.79.79,0,0,0-.08-1.21c-.23-.17-.45-.15-.57.06s-.13.34.2.31.22.08-.18.31-.55.44-.51.55-.22.54-.59.94a9.1,9.1,0,0,0-.88,1.06A12.55,12.55,0,0,1,1028.82,302.22Z"/><path class="cls-2" d="M1841.11,415.12c.58-.05.46-.19,1.62,1.94.32.58.75,1.32,1,1.65a17.32,17.32,0,0,1,1,1.8c.14.3.43.85.63,1.2s.65,1.19,1,1.85.77,1.36.92,1.56a2.29,2.29,0,0,1,.39.78c.16.62.59.69,1,.15.16-.23.18-.4.1-.85a7.05,7.05,0,0,1,0-1.7,16.23,16.23,0,0,0,0-3.62c0-.46-.1-1.61-.13-2.56s-.07-1.84-.1-2a1.5,1.5,0,0,1,.66-1.12,11.82,11.82,0,0,0,2.24-1.32l2.15-1.44c.65-.41,1.48-1,1.84-1.25a11.32,11.32,0,0,1,1.26-.83,18,18,0,0,0,2.28-1.48c.76-.6.24-.86-1.66-.84-1.15,0-4-.07-7.12-.19a22.41,22.41,0,0,0-2.37,0,6.37,6.37,0,0,1-.93.05c-.16,0-.44-.62-1.11-2.3-.19-.48-.48-1.11-.64-1.42s-.52-1-.8-1.48-.67-1.23-.89-1.61a26,26,0,0,1-1.49-3.44c-.26-.75-.47-1-.77-.93s-.47.35-.48.79c0,1-.26,4-.45,5.5a12.41,12.41,0,0,0-.09,1.55c0,.38,0,1.52,0,2.53l0,1.83-.52.39a28.15,28.15,0,0,1-2.49,1.74,15.32,15.32,0,0,0-1.38,1,44.18,44.18,0,0,1-5,3.42c-.29.15-.51.32-.5.38a1.84,1.84,0,0,1,0,.28c0,.23.57.52,1,.54a6.38,6.38,0,0,0,1-.07,31.1,31.1,0,0,1,3.42-.21C1837.16,415.34,1840.13,415.19,1841.11,415.12Zm14.34-6.37a1,1,0,0,1,.44-.13l.38-.07-.35.18C1855.59,408.9,1855.36,408.91,1855.45,408.75Zm-1.79-.83a1.57,1.57,0,0,1,.39,0c.24,0,.23,0-.1.12s-.38.06-.39,0A.1.1,0,0,1,1853.66,407.92Zm-.38,2.51a.36.36,0,0,1,.25-.15c.09,0,.07.08-.06.19S1853.11,410.66,1853.28,410.43Zm-1.4,1c0-.09.12-.14.16-.11s0,.09-.09.15S1851.8,411.53,1851.88,411.41Zm-1,.41c.28.11.28.11-.36.43l-.28.14.19-.33C1850.58,411.75,1850.61,411.73,1850.85,411.82Zm-1.52-4.13a2.91,2.91,0,0,0,.54,0c.46,0,.61.12.33.26s-.87,0-.91-.19S1849.29,407.68,1849.33,407.69Zm-1,3.07a.58.58,0,0,1,.19-.33h0c.23-.17.34-.08.16.13C1848.3,411,1848.3,411,1848.36,410.76Zm.13,2.12c.46.1.46.19,0,.39-.24.09-.62,0-.67-.17S1848.16,412.8,1848.49,412.88Zm-2.64,6.34a.18.18,0,0,1,0-.19s.06,0,.08.11S1845.9,419.29,1845.85,419.22Zm-.46-9.32s.12,0,.17.05,0,.15,0,.17S1845.27,410,1845.39,409.9Zm.32,1.22a3,3,0,0,1,.51-.1,1.37,1.37,0,0,1-.2.36l-.2.32-.31-.22-.3-.23Zm-1.08-6.14c0,.19,0,.27,0,.18a.82.82,0,0,1-.09-.34C1844.54,404.71,1844.58,404.79,1844.63,405Zm-2.31,4.21a.57.57,0,0,1,.21.18s-.07,0-.17,0-.19-.13-.2-.18S1842.22,409.13,1842.32,409.19ZM1841,408c0-.14.09-.14.3,0,.43.22.36.38-.11.26C1841,408.21,1841,408.14,1841,408Zm-.62,6c.07-.14.17-.23.22-.21a.73.73,0,0,1,.27.21c.14.15.13.17,0,.15a1.71,1.71,0,0,0-.39,0C1840.28,414.22,1840.28,414.21,1840.4,414Zm-1.4-2.54c.28-.24.31-.24.55-.1l.26.15-.54.14a1.92,1.92,0,0,1-.56.1A1.16,1.16,0,0,1,1839,411.44Zm-4.79,2.93c-.28.12-.46.15-.48.09s.2-.18.47-.29C1835,413.87,1835,414,1834.21,414.37Z"/><path class="cls-2" d="M1591.59,38.37a1,1,0,0,0-1-.66c-.22,0-1.37-.08-2.54-.21a60.64,60.64,0,0,0-6.43-.4c-1.95,0-2-.05-1.7-.71a22.75,22.75,0,0,0,.81-3.28,23,23,0,0,1,.89-3.37,18.83,18.83,0,0,0,.69-2.79c0-.24.23-.93.41-1.53a8.4,8.4,0,0,0,.31-1.23c0-.07-.17-.21-.36-.29s-.36-.14-1,.5c-.36.35-1,1-1.42,1.52s-1.44,1.52-2.26,2.31-1.93,1.92-2.47,2.53-1.42,1.55-2,2.11l-1.37,1.37c-.3.3-.39.34-.55.22-.5-.39-2.68-2.54-3.51-3.46a36.46,36.46,0,0,0-3.38-3.21c-.43-.37-.46-.38-.86-.3-.23.05-.44.14-.47.22a13.61,13.61,0,0,0,.58,3.12c.17.64.91,2.7,1.64,4.58l1.34,3.42-.27.2a5.29,5.29,0,0,1-1.25.51,30.88,30.88,0,0,0-4.78,2c-.82.42-1.54.77-1.62.78a13.6,13.6,0,0,0-2.46,1.44.82.82,0,0,0,.1.53c.14.33.26.41,1,.74a6.72,6.72,0,0,0,2.3.56c.82.11,1.83.21,2.25.23l1.73.08a35.44,35.44,0,0,1,4.07.43c.55.15.54.06.36,2.26-.07.89-.16,2.23-.19,3-.07,1.28-.4,4.49-.54,5.1a1.3,1.3,0,0,0,0,.42,5.38,5.38,0,0,1-.08.93c-.12.76-.12.8.22,1.05s.38.25.63.12a.92.92,0,0,0,.37-.32,10.55,10.55,0,0,1,1.06-1.12l1.4-1.35a8.94,8.94,0,0,0,1-1.21,11.76,11.76,0,0,1,.77-1.06c.52-.56,1.8-2.15,2.17-2.67.62-.9.62-.89.93-.69.15.1.48.36.73.57l1.25,1.07a11.06,11.06,0,0,1,2.15,2.37s.06.13.17.18a2,2,0,0,1,.52.49,13.42,13.42,0,0,0,2.12,2c.24.11.32.09.4-.1a11.76,11.76,0,0,0-.42-3.15c-.09-.31-.24-.95-.34-1.42s-.36-1.37-.57-2-.47-1.54-.58-2-.24-1-.28-1.08A7,7,0,0,1,1581,47a13.71,13.71,0,0,0-.53-1.64l-.43-1.16.47-.22,1.36-.68c.85-.42,2.8-1.34,3-1.39a2.24,2.24,0,0,0,.33-.19c.14-.08.77-.37,1.4-.64,1.59-.69,4-1.83,4.58-2.15S1591.63,38.63,1591.59,38.37Zm-32.11,5.39c-.16.36-.33.44-.68.28s-.12-.18.39-.43l.46-.22Zm21.86,10.18a1.63,1.63,0,0,1,.18-.5,6.73,6.73,0,0,1,.27.92,4.61,4.61,0,0,1,.17.92s-.21-.22-.41-.45S1581.21,54.37,1581.34,53.94Zm-15.1-23.08a3.08,3.08,0,0,0-.16.54c0,.24-.09.19-.45-.51s-.58-1.28-.47-1.32a4.42,4.42,0,0,1,.62.51C1566.29,30.54,1566.34,30.63,1566.24,30.86Zm.18,1.91.31-.76.32-.76,1,1.13a5.7,5.7,0,0,1,1,1.24l-.35.51a13.43,13.43,0,0,0-.66,1.22l-.37.81-.6-1.7Zm-3.86,9.83c-.16.36-.39.93-.5,1.28l-.21.62-.73,0a1.9,1.9,0,0,1-.79-.16,2,2,0,0,1,.26-.8c.32-.68.35-.71,1.15-1.13C1562.84,41.77,1562.92,41.8,1562.56,42.6Zm1.74,2.07-.65,0c-1-.06-1-.08-.73-.77.12-.34.32-1,.46-1.47l.25-.86,1.13-.4,1.13-.41-.28.79c-.15.43-.51,1.32-.79,2Zm2.62.19-.89-.09-.89-.09.37-.76c.21-.42.61-1.4.9-2.17l.53-1.41.78-.48a6,6,0,0,0,.81-.57,4.37,4.37,0,0,0-.22-.92l-.27-.84.78-1.64a11.55,11.55,0,0,1,.88-1.68c.07,0,.4.23.75.56l.64.6-.65,1.37c-.35.75-1.09,2.36-1.64,3.57s-1.19,2.73-1.44,3.38Zm2.39.37a4.9,4.9,0,0,1-1.49-.23s.85-2,1.91-4.45l1.93-4.4.72-.71c2.32-2.29,3.22-3.2,3.66-3.7l.49-.57L1576,32.3c-.28.62-.54,1.14-.56,1.15s-1.35,2.65-3.85,7.78A21.46,21.46,0,0,1,1569.31,45.23Zm.25,7.89c-.11.36-.12.15,0-.87a16.69,16.69,0,0,1,.38-3.15,1.43,1.43,0,0,0,.08-.6.36.36,0,0,1,0-.3,5.19,5.19,0,0,0-.07-1.93c-.08-.32-.06-.47,0-.52.45-.23,1.7-2.53,4-7.4.74-1.57,1.74-3.55,2.22-4.41l1.28-2.34.81-1.52a6.94,6.94,0,0,1,.65-1,3.32,3.32,0,0,0,.4-.63,4.88,4.88,0,0,1,.71-.89c.32-.32.74-.78.93-1,.34-.43.32-.35-.4,1.33-.42,1-2.13,4.78-3.8,8.44-4.13,9-6.13,13.61-6.65,15.11C1569.91,52.07,1569.64,52.85,1569.56,53.12Zm6.09-5.9a12.49,12.49,0,0,1-1.24,3c-.15.2-.42.6-.61.88a10.27,10.27,0,0,1-1.14,1.31c-.45.44-1.23,1.28-1.74,1.87l-.92,1.08.18-.62c.11-.34.34-1.13.52-1.75s.72-2.07,1.19-3.23c1.28-3.11,7.64-17.37,7.49-16.8-.21.87-1,4.47-1,4.53a2,2,0,0,0,.37.29l.35.23-.25.57c-.14.31-.22.56-.18.56s0,.14-.06.32c-.55,1.36-1.62,4.22-1.86,5a13.55,13.55,0,0,1-.73,1.8A3.12,3.12,0,0,0,1575.65,47.22Zm5,2.8.23.58c.36.9.42,1.3.21,1.41s-.2.2-.25.52-.28,1-.36,1a2.23,2.23,0,0,1-.32-.34c-.19-.22-.23-.36-.14-.48a.5.5,0,0,0,0-.44c-.09-.22,0-.49.25-1.25Zm-.49-.94a6.77,6.77,0,0,0-.87,2.06c-.21.89-.2.88-.77.38-.72-.65-.7-.53-.28-1.65s.89-2.55,1.08-3.26l.11-.44.11.35c0,.19.26.79.45,1.33C1580.27,48.72,1580.29,48.86,1580.12,49.08Zm.19-7.73c-.28,1.06-.66,1.9-.83,1.83-.47-.2-.78.35-.65,1.16.1.6.07.74-.31,1.75a20.08,20.08,0,0,0-.61,1.95,9.23,9.23,0,0,1-.86,2.24l-.48-.45a1.66,1.66,0,0,0-.56-.43c-.2,0-.12-.29.58-2.09.39-1,.89-2.36,1.1-3s.73-2,1.14-3.08a19.69,19.69,0,0,0,.83-2.48l.09-.56.82,0h.82l-.41,1.09C1580.75,39.86,1580.45,40.8,1580.31,41.35Zm4.36-2.2c-.6,1.62-.73,1.84-1.26,2.14a7.23,7.23,0,0,1-2.23.93,17.45,17.45,0,0,1,1.31-4,18,18,0,0,1,2,0l.55,0Zm2.76-.18c-.11.4-.18.46-1,.87a4.47,4.47,0,0,1-.91.41s0-.22.11-.46a9.66,9.66,0,0,0,.36-1l.17-.53.66.08a3.55,3.55,0,0,1,.67.11A2.77,2.77,0,0,1,1587.43,39Zm1-.13c-.06-.16.19-.32.44-.28s.22.07.2.11S1588.49,38.94,1588.45,38.84Z"/><path class="cls-2" d="M1715.13,264.62l.92-.43a10.56,10.56,0,0,1,4.19-1.09c.66,0,1.62-.07,2.13-.11a8,8,0,0,1,1.17-.05,1.31,1.31,0,0,0,1-.78c0-.47-.08-.69-.55-1a15.07,15.07,0,0,0-1.82-.88,18.76,18.76,0,0,1-3.35-1.61c-.38-.22-.94-.52-1.23-.66l-1-.47-.43-.21.08-.71c0-.39.15-1.28.24-2,.33-2.57.79-8.37.67-8.52s-.12-.11-.13,0a.13.13,0,0,1-.15.12,1,1,0,0,0-.46.38l-.92,1a13.68,13.68,0,0,0-1,1.18,15.14,15.14,0,0,1-1.14,1.32c-.95,1-2.58,2.74-3.16,3.4l-.46.51-.49-.38c-.27-.21-.79-.57-1.15-.8s-1.1-.78-1.64-1.22-1.32-1-1.73-1.3-1.08-.8-1.5-1.15a17.81,17.81,0,0,0-1.9-1.3l-1.39-.83c-.14-.09-.53-.38-.85-.64a2.69,2.69,0,0,0-.86-.52,1.11,1.11,0,0,0-.86.62c-.18.39,1.87,5.17,3.06,7.12a16.91,16.91,0,0,1,.9,1.7,16.07,16.07,0,0,0,2,3.73,6.19,6.19,0,0,1,.79,1.22,2.43,2.43,0,0,1-.42.59c-.22.25-.81.95-1.3,1.55s-1.16,1.36-1.48,1.7-.68.74-.79.88-.38.4-.57.58a27.93,27.93,0,0,0-2.39,2.55c-.43.55-.69,1.17-.54,1.28a1.71,1.71,0,0,0,.66,0c.68-.12,3.61-.82,4.24-1a10.84,10.84,0,0,1,1.38-.27,23.88,23.88,0,0,0,5-1.15c.76-.24,1-.26,1-.13s.4.63.76,1.21c.6,1,1.62,2.84,2.57,4.76l.89,1.78h0a5.11,5.11,0,0,0,.61,1,.78.78,0,0,0,.68-.51,69.73,69.73,0,0,0,.73-8.24c0-.52,0-1.26,0-1.63Zm-.83-.2a2.61,2.61,0,0,1-.19.57,11.42,11.42,0,0,0-.08,2.77c0,.55,0,1.63-.11,2.39a11,11,0,0,0-.06,1.78h0a2.78,2.78,0,0,1,0,.86c-.07.4-.1.43-.17.22s-.36-.79-.69-1.46c-1.92-3.84-3.23-6-3.72-6a15.14,15.14,0,0,0-2.91.7,7.81,7.81,0,0,1-1.39.32,18.65,18.65,0,0,0-3.07.59c-.32.11-.85.26-1.16.34-.56.14-1.37.36-2.07.56l-.32.09.24-.32c.13-.18.65-.74,1.16-1.26,1.44-1.46,2.67-2.81,3.5-3.83.41-.51,1-1.14,1.19-1.39a8.18,8.18,0,0,0,.76-1l.33-.58-.23-.43a12.61,12.61,0,0,0-.8-1.16,11,11,0,0,1-1.62-2.9,15.72,15.72,0,0,0-.74-1.56c-.88-1.58-2.51-4.69-2.5-4.78s0-.13.94.38a11.36,11.36,0,0,1,1.66,1.16c.46.39,1.07.87,1.36,1.07.57.4,1.94,1.47,2.61,2a13.68,13.68,0,0,0,1.15.83c.41.27,1,.66,1.29.88a1.44,1.44,0,0,0,.74.34,5.32,5.32,0,0,0,1.43-1.28c.49-.55,2.25-2.47,2.86-3.09.36-.37.68-.75,1.87-2.22.15-.18.31-.28.35-.23s-.5,6.87-.72,8c-.28,1.43-.31,1.39,1.13,2a24.07,24.07,0,0,1,2.51,1.37,13.22,13.22,0,0,0,1.62.91c.43.13.45.32,0,.28a6.58,6.58,0,0,0-1.92.3l-.94.31a16.62,16.62,0,0,0-1.69.77C1714.64,263.42,1714.49,263.58,1714.3,264.42Z"/><path class="cls-2" d="M1683.91,541.63c.91.25,2.61.76,3.78,1.14s2.83.81,3.69,1,1.91.41,2.35.53c.87.25,1.09.25,1.44,0h0c.14-.1.24-.23.23-.3,0-.25-.26-.53-.39-.5a9,9,0,0,1-1.49-.93,17.17,17.17,0,0,0-4.82-2.29c-.52-.17-1.39-.49-1.92-.7a16.56,16.56,0,0,0-2.15-.64,5.74,5.74,0,0,1-1.27-.36s.17-.38.47-.72c.93-1,5.49-7.28,6.26-8.59.4-.66,1-1.59,1.32-2.06a4.42,4.42,0,0,0,.67-1.29c.09-.63-.09-1.35-.38-1.48s-.47.19-1.5,1.52a24.39,24.39,0,0,1-1.93,2.24c-.38.34-1.33,1.35-2.11,2.25a38,38,0,0,1-2.9,2.91l-1.48,1.28-.1-.44c-.06-.24-.28-.91-.48-1.48a6.59,6.59,0,0,1-.39-1.69,15.13,15.13,0,0,0-.41-2.31c-.22-.93-.65-3.15-1-4.95s-.61-3.35-.66-3.45-.15-.35-.22-.54c-.21-.54-.72-.47-1.31.19,0,0,.11,1.46.32,3.16s.4,3.92.43,4.91.17,3,.31,4.52a24.76,24.76,0,0,1,.16,2.69,41.47,41.47,0,0,1-7.51-4.45c-1-.76-1.79-1.18-1.93-1s-.16,0-.28,0-.24-.09-.3.06-.12.15-.2.05a.33.33,0,0,0-.24-.11c-.07,0,0,.2.2.42s.47.56.62.77a35.82,35.82,0,0,0,2.82,2.64,49,49,0,0,1,3.69,3.74c.66.74,1.26,1.4,1.34,1.47s-.35.78-1.23,2c-.75,1-1.68,2.26-2.06,2.81s-1.28,1.86-2,2.89c-2.75,3.89-2.82,4-2.4,4.09a2.19,2.19,0,0,0,1.92-.63c2.46-2.26,3-2.72,3.5-3.26.34-.33.95-1,1.36-1.42a16.83,16.83,0,0,1,2.41-2.35,10.59,10.59,0,0,1,.42,1.45c.18.76.45,1.72.6,2.12a26.06,26.06,0,0,1,.62,2.69c.21,1.08.45,2.27.55,2.63s.39,1.54.65,2.61c.38,1.51.53,1.95.72,2a.45.45,0,0,1,.27.29c0,.1.06.19.09.18l.3,0c.2,0,.22,0,.11-.23a2.38,2.38,0,0,1,0-1,48.23,48.23,0,0,0-.19-6.35c-.07-.94-.11-2.19-.08-2.77a23.46,23.46,0,0,0,0-4.18C1682,541.13,1682,541.12,1683.91,541.63Z"/><path class="cls-1" d="M133.41,196.21a7.85,7.85,0,0,1,1.78,1.55c.47.79,7.91,4.19,11.75,5.37s8.51,1.92,8.93,1.4-1.11-2.89-4.05-7.1c-3.61-5.18-4.26-6.31-6.1-10.64a32.85,32.85,0,0,1-2.47-9.49c-.4-5.36.84-13.46,2.7-17.64a20.11,20.11,0,0,0,1.17-3.25,22.1,22.1,0,0,1,4-7.78,53.49,53.49,0,0,1,9.43-8.5c4.94-3.09,13.26-5.88,18.63-6.25a24.45,24.45,0,0,1,9.17,1c2.56.69,14.71,5,15.23,5.43a4,4,0,0,0,1.63,0c1.31-.17,1.4-.23,1.47-1,.18-2-2.45-6-6.33-9.86-4.53-4.45-13.19-10-18.82-12-1.51-.55-3.37-1.27-4.15-1.61-4-1.75-14.8-3.18-20.37-2.69-3.93.35-13.39,3.54-16.07,5.43a72.88,72.88,0,0,0-7.45,6.82h0a5.67,5.67,0,0,0-.87,1.07c-.09.18-1.35,1.86-2.81,3.72-4.05,5.18-5.39,8.4-7.59,18.12a69.54,69.54,0,0,0-2.1,14.19c0,1.33,0,3-.1,3.65-.1,1.49.37,4.63.73,4.77a14.28,14.28,0,0,1,1,3.74,50.55,50.55,0,0,0,2.1,7.14c.39.92,1.08,2.57,1.53,3.67C127,189.41,130.73,194.43,133.41,196.21ZM149.68,199l.41.87-.68-.76h0a3.33,3.33,0,0,1-.74-1.14C148.59,197.41,149.2,198,149.68,199Z"/><line class="cls-2" x1="147.12" y1="77.81" x2="147.12" y2="77.81"/><path class="cls-2" d="M254.94,51.51c0,.1-1.57,2.48-1.86,2.86-.43.56-.36.72.37.92a3,3,0,0,0,1.49,0c.47-.09,1.88-.29,3.14-.45s2.92-.41,3.69-.57a20.13,20.13,0,0,1,2.42-.35,9,9,0,0,0,1.24-.13c.28-.08.35.06.4.75,0,.25.17,1.1.34,1.88s.34,1.58.38,1.79c.13.59.31,2,.4,2.94a4.8,4.8,0,0,0,.6,2.37,1.07,1.07,0,0,0,1.13,0c.22-.27,3.21-5.55,3.65-6.44.21-.44.57-1.24.79-1.78a6.42,6.42,0,0,1,.49-1,24.33,24.33,0,0,1,2.75.41,35.49,35.49,0,0,0,4.78.68l2,.17a10.19,10.19,0,0,0,1.64,0c.57-.06,1.18-.39,1.25-.68a2.66,2.66,0,0,0-.66-.82c-.38-.37-1.09-1.11-1.57-1.65s-1.17-1.24-1.52-1.56a17.18,17.18,0,0,1-2.74-3.26c-.71-1.15-.75-1.34-.4-1.78a15.32,15.32,0,0,0,.86-1.33c.32-.55.93-1.49,1.35-2.08s1-1.38,1.2-1.75.89-1.25,1.44-2c1-1.25,1-1.29.95-1.74a1.22,1.22,0,0,0-.3-.68c-.24-.2-.31-.19-1,.08a16.32,16.32,0,0,1-1.82.66,23.09,23.09,0,0,0-2.41.86A1.58,1.58,0,0,1,279,38l-1.71.6c-1.62.59-1.92.64-2,.37a.31.31,0,0,0-.17-.22c-.08,0-.2-.29-.27-.61a34.6,34.6,0,0,0-1-3.94c-.31-1-.64-1.92-.74-2.14a8.12,8.12,0,0,1-.68-2.18c.07-.33-.69-.71-1-.48a2.7,2.7,0,0,0-.38.79,10.65,10.65,0,0,1-.53,1.22c-.73,1.38-2.23,4.33-2.52,5-.37.82-1,1.78-1.2,1.75a1.51,1.51,0,0,1-.4-.32,13,13,0,0,0-1.05-.9,30.2,30.2,0,0,1-2.75-2.37c-.32-.33-.71-.71-.88-.85s-.59-.5-.95-.82-1-.83-1.41-1.13c-.64-.47-.85-.57-1.26-.59a1,1,0,0,0-.64.14.69.69,0,0,0-.16.24c0,.07.78,3,1,3.77a12.68,12.68,0,0,1,.61,2.5,11.29,11.29,0,0,0,.85,2.58,10.49,10.49,0,0,1,.47,1.34.24.24,0,0,0,.14.2.3.3,0,0,1,.12.27,3.34,3.34,0,0,0,.27,1,6.35,6.35,0,0,1,.33,1c0,.37-2.13,3-3.45,4.14a13.77,13.77,0,0,0-1.2,1.17C256,50.13,255,51.45,254.94,51.51Zm3.4-.35a10.32,10.32,0,0,0,1.46-1.62.17.17,0,0,1,.13-.13,19.19,19.19,0,0,0,3.15-3.89.57.57,0,0,1,.26-.38c.19-.09.18-.2-.07-1.09a22.7,22.7,0,0,0-1-2.83,11.61,11.61,0,0,1-.71-2.49,4.87,4.87,0,0,0-.34-1.13,14,14,0,0,1-.87-2.74,4.42,4.42,0,0,1,.63.52c.3.28,1,.83,1.47,1.22a40.59,40.59,0,0,0,4.2,3.14,7.54,7.54,0,0,1,1.15.67c1.18.79,1.3.84,1.66.64s.38-.53.08-.75-.39-1.16-.16-2c.11-.38.29-1.06.41-1.52a7.09,7.09,0,0,1,.31-1c.05-.09.24-.58.42-1.09a8.44,8.44,0,0,1,1.15-2.27c.06,0,.18.29.27.73a2.34,2.34,0,0,0,.26.82.1.1,0,0,1,.08.12,5.94,5.94,0,0,0,.25,1,25.33,25.33,0,0,1,.84,3.79c.21,1.57.2,1.68-.19,2s-.45.5-.22.81.24.22,1.79-.26c.89-.28,1.65-.5,1.69-.49a11.49,11.49,0,0,0,1.24-.35c.64-.21,1.47-.46,1.84-.56s1-.31,1.38-.45a3.24,3.24,0,0,1,.73-.23,8.52,8.52,0,0,1-1.42,1.74,39.41,39.41,0,0,0-4.06,5.4,3.16,3.16,0,0,0,.84,1.13,13.88,13.88,0,0,1,2.25,2.21,10.23,10.23,0,0,0,1.25,1.33,13.94,13.94,0,0,1,2.2,2.2,1.68,1.68,0,0,1-.78-.05,17.36,17.36,0,0,0-2.28-.22,26.8,26.8,0,0,1-4.41-.49c-1.4-.24-1.92-.28-2.08-.18a.68.68,0,0,1-.4.09.73.73,0,0,0-.45.19A58.15,58.15,0,0,0,269.24,58c-.75,1.58-.69,1.59-.91,0a9.6,9.6,0,0,0-.58-2.52c-.12-.28-.35-1-.53-1.63l-.49-1.69a2.76,2.76,0,0,1-.15-.73c0-.12,0-.11-.23,0a.72.72,0,0,1-.62.14,5.39,5.39,0,0,0-2.28.34,10.13,10.13,0,0,1-1.47.37,5.3,5.3,0,0,0-1.53.52,4.62,4.62,0,0,1-1.48.5l-1.08.19-.73.15c-.27,0-.59.12-.71.16a.7.7,0,0,1-.33,0c-.06,0-.11-.06-.1-.1S257.57,51.94,258.34,51.16Z"/><path class="cls-2" d="M6.33,207a25.79,25.79,0,0,1-5,.48.87.87,0,0,0-.53.11.81.81,0,0,1-.44.12c-.2,0-.4.39-.26.56a3.35,3.35,0,0,0,.87.33c.43.12,1.39.44,2.13.72a15.73,15.73,0,0,0,2.42.71,10.62,10.62,0,0,1,2,.57c.48.21,1,.41,1.14.45s.21.13-1,1c-.68.49-1.61,1.15-2.08,1.47a5.5,5.5,0,0,0-.89.66c-.26.77-.12,1,.47.68A8.75,8.75,0,0,1,7.7,214l1.5-.15a14.63,14.63,0,0,0,1.51-.23,5.23,5.23,0,0,1,.77-.15,1.81,1.81,0,0,1,.18.73,12.89,12.89,0,0,0,.27,1.35c.1.35.28,1.3.4,2.11a11.15,11.15,0,0,0,.79,2.95,7.75,7.75,0,0,1,.78,2.88.74.74,0,0,0,.12.46.8.8,0,0,1,.12.49h0c-.05.22,0,.26.18.23a1.13,1.13,0,0,0,.34-.08A21.83,21.83,0,0,0,15.83,221c.2-.78.48-1.75.61-2.15.4-1.21,1.15-3.9,1.31-4.73.11-.59.18-.77.26-.71l.67.44,1.47.95c1.18.75,3.2,2.09,3.63,2.41s.66.22.75-.27a.52.52,0,0,0-.18-.56c-.25-.24-1.07-1.18-1.93-2.21-.28-.34-.65-.78-.84-1a9.37,9.37,0,0,1-1.13-1.49,7.7,7.7,0,0,1,1.05-.08c.57,0,1.56-.08,2.22-.14l2-.17a27.44,27.44,0,0,0,3.37-.56c.6-.15,1.24-.54,1.24-.77s-.16-.21-.49-.32c-3.25-1.07-4.6-1.5-5.87-1.88a20.53,20.53,0,0,1-2.31-.85,13.68,13.68,0,0,0-1.27-.56c-.28-.09-.43-.19-.39-.26s.29-.52.57-1a20.65,20.65,0,0,1,1.71-3c.43-.56.51-1,.27-1.26-.1-.12-.25-.07-.84.27a11.93,11.93,0,0,0-2.26,1.67l-1.14.94c-.11.08-.19-.12-.35-.89a45.19,45.19,0,0,0-1.21-4.36,16.18,16.18,0,0,1-.47-1.75c-.22-1.18-.64-1.28-1.35-.31a8.41,8.41,0,0,0-1,2.43c-.15.49-.4,1.3-.56,1.8a17.88,17.88,0,0,1-.73,1.93,12.77,12.77,0,0,0-.49,1.22c0,.28-.07.27-.79-.19l-2-1.25c-.79-.47-2-1.2-2.59-1.61a12.08,12.08,0,0,0-1.26-.77c-.06,0-.2.1-.32.26-.27.35-.23.5.39,1.26l.57.71c.09.12,1.21,1.42,2.72,3.15a8.24,8.24,0,0,1,.85,1.07,6.52,6.52,0,0,1-1.31.26C7.71,206.75,6.77,206.91,6.33,207Zm2,.68c-.11,0-.13-.06-.05-.07a.19.19,0,0,1,.19,0S8.4,207.69,8.3,207.67Z"/><path class="cls-3" d="M39,36.71c.22-.44.08-.72-.47-.93s-4.27.72-5.95,1.49c-.4.18-.42.21-.21.45s.17.3.09.36h0c-.08.05.08.09.35.08l.72,0a17.52,17.52,0,0,0,1.77-.36c.83-.2,2-.43,2.5-.51C38.6,37.16,38.8,37.07,39,36.71Z"/><path class="cls-3" d="M45.75,39.86c.32-.4.32-.45.1-.76a.74.74,0,0,0-.63-.31c-.62,0-5.35,3.58-5.46,4.11a2.14,2.14,0,0,1-.6.68A12.38,12.38,0,0,0,38,44.66h0l-.57.65.36.07c.39.08,2-.94,3.94-2.47.61-.49,1.68-1.28,2.38-1.75A10.29,10.29,0,0,0,45.75,39.86Z"/><path class="cls-3" d="M44.1,48.84h0c.22.34.74.15,1-.36a5.62,5.62,0,0,0,.09-3.36c-.75-1.07-1.36.07-1.09,2.07a4.68,4.68,0,0,1,0,1.12A.89.89,0,0,0,44.1,48.84Z"/><path class="cls-3" d="M29.64,30a62.88,62.88,0,0,0,6.22,1.87,45.51,45.51,0,0,1,4.82,1.57c.49.18,1.47.49,2.18.69a58.49,58.49,0,0,1,6.82,2.48c.36.22.39.81.2,3.88a69.84,69.84,0,0,1-.79,7.39c-.53,3.24-.7,5.48-.42,5.53.07,0,.11.17.07.34h0a.28.28,0,0,0,.25.37c.45.1,1.1-.67,1.27-1.5A14.51,14.51,0,0,1,51,50.54,17.69,17.69,0,0,0,51.87,48a76.22,76.22,0,0,1,2.49-7.36c.2-.53.49-1.41.65-2,.48-1.59.67-2,.88-1.84a49.53,49.53,0,0,0,5.76.81l4.17.45a43.29,43.29,0,0,0,4.43.3c.93,0,2.57,0,3.65,0,1.95,0,2,0,2-.37a.9.9,0,0,0-.11-.67,8.46,8.46,0,0,0-2-.84c-2-.65-5.61-1.86-9.07-3.08A38.45,38.45,0,0,1,61.07,32c-.78-.39-1.72-.83-2.1-1a13.42,13.42,0,0,1-2.76-1.24,2.43,2.43,0,0,1-.19-.86,11.34,11.34,0,0,0-.16-1.2c-.07-.28-.23-1-.37-1.61a31.49,31.49,0,0,1-.55-4.51,12.16,12.16,0,0,0-.26-1.76A43,43,0,0,1,54,13.93a2.89,2.89,0,0,0-.11-1c-.22-.78-.73-1.08-1.32-.77l-.39.2-.08,1.73a23.08,23.08,0,0,1-.35,3A45.13,45.13,0,0,0,51.23,24a27.18,27.18,0,0,1-.43,5c-.15.23-1.44.23-5.51,0-2.37-.12-3.76-.14-6.57-.07-.62,0-1.52,0-2,0s-1.27-.06-1.76-.06a32,32,0,0,1-4.81-.39c-.31-.2-.8.35-.8.9A.74.74,0,0,0,29.64,30Z"/><path class="cls-3" d="M34.7,48.75a8.15,8.15,0,0,0,2-1.32c.28-.27.29-.33.11-.64s-.72-.41-1.41.16c-.86.72-1.14,1.16-1,1.5h0A.63.63,0,0,0,34.7,48.75Z"/><path class="cls-3" d="M55.43,46.16c-.5.4-.5.87,0,2.66.39,1.4.48,1.56.86,1.63s.43,0,.5-.4a10.33,10.33,0,0,0-.73-3.91C55.82,45.9,55.74,45.9,55.43,46.16Z"/><path class="cls-3" d="M61,45.12c-.44-1.22-2.74-3.69-3.35-3.59-.37.06-.43.74-.1,1.35a5.7,5.7,0,0,0,1,1.21,6.13,6.13,0,0,1,1,1.18,1.48,1.48,0,0,0,.77.66h0C61.05,46.14,61.24,45.87,61,45.12Z"/><path class="cls-3" d="M67.43,45.21c.17,0,.29-.06.34-.28s-.23-.53-1.92-1.66c-2.13-1.44-2.31-1.48-2.47-.58-.11.6,0,.7,1.69,1.72a4.73,4.73,0,0,0,1.69.76A3.39,3.39,0,0,1,67.43,45.21Z"/><path class="cls-3" d="M62.2,48.52c-.09.46.17.93,1.58,2.82.58.78,1.22,1,1.41.43.08-.23-.12-.7-.68-1.62C63.23,48.08,62.42,47.5,62.2,48.52Z"/><path class="cls-3" d="M1693.81,73.64h1.88c2.88.59,5.69,1.45,8.7,1.37,1.62,0,2.78,1.19,3.53,2.44,1.48,2.46,3.83,3.83,6,5.39a5,5,0,0,1,1.47,1.16c2.13,3.5,5.32,6.38,6.32,10.56a19.28,19.28,0,0,0,1.1,3.09c1.49,3.37,2.77,6.75,2.51,10.6-.16,2.41,1.09,4.67,1.58,7a20.58,20.58,0,0,1,.68,6c-.34,3.41-.05,6.87-.67,10.26a.92.92,0,0,0,0,.46c1.54,4.42-1.14,8.18-1.91,12.24-.48,2.51-.14,5.14-1.12,7.59-.11.28,0,.67-.16.91-2.67,4-3.76,8.77-6.07,13-.07.13-.28.24-.28.37,0,3.37-3,5.28-3.85,8.25a4.55,4.55,0,0,1-.84,1.93c-2.73,2.9-4.68,6.76-7.89,8.86-4,2.6-7,6.1-10.64,8.95a20.75,20.75,0,0,1-4.84,2.79c-1.66.7-2.79,2.43-4.63,3-.44.14-.81.54-1.25.64-4.38.94-8.24,3.23-12.42,4.68-2.28.79-3.2,1.75-3.5,4.12-.71,5.74-1.36,11.46-.62,17.28.38,3.06-1.38,5.88-1.92,8.88-.61,3.48-.93,7-1.25,10.46-.9,9.8-1.51,19.62-2.85,29.38a19.15,19.15,0,0,1-1.65,5.61,11.22,11.22,0,0,1-.91,1.37c-2.65,3.53-4.34,3.85-8.1,1.69-1.36-.79-2.44-2-3.84-2.69-2.33-1.2-3-1-4.16,1.38a28.42,28.42,0,0,0-1.13,3.57,11.29,11.29,0,0,1-5.47,7.56,11.4,11.4,0,0,0-3.71,3.54,3.64,3.64,0,0,1-3.59,1.76,3,3,0,0,0-3.11,1.56,7.42,7.42,0,0,1-6,3.12c-4.21.18-8.37,1-12.6.68a34,34,0,0,1-25.83-14.1c-1.58-2.12-2.21-4.84-3-7.33-.53-1.68-1.61-3.21-1.69-5-.21-.55-.11-1.15-.29-1.7a12.81,12.81,0,0,0-.12-1.39,2.22,2.22,0,0,0-2.81-1.75,2.11,2.11,0,0,0-1.58,2.68c.06.44.42.83.41,1.32,0,1.07-.64,1.92-1,2.86-1.81,4.84-2.78,10-4.47,14.78-1.94,5.49-2.4,11.1-3.49,16.66-.51,2.61-1.29,5.17-1.72,7.8-.14.89-.64,2,.14,2.67s1.83,0,2.66-.31c6-2.36,12.3-3.36,18.46-5,3.6-.95,4.57.28,4,4a7.43,7.43,0,0,0-.13.93c-.2,3.91-2,5.93-6.11,6.54a90.11,90.11,0,0,0-12.14,2.5c-4.12,1.21-8.25,1.44-12.4,2-2.18.28-5.67-2.54-5.84-4.7a33.73,33.73,0,0,1,1.75-12c.88-3,.94-6.17,2.11-9.1.41-1,1.4-2,1-3.26-.36-1.73.67-3.28.88-5.2-2,.79-3.49,1.91-5.16,2.7-5.5,2.61-11.14,4.36-17.36,3.55-2-.26-4.06.06-6.08-.1-3-.22-5.93-.6-8-3.16-.54-.79-.47-2.08-1.82-2.21a5.42,5.42,0,0,1-5.94-2.71,9.45,9.45,0,0,0-3.18-2.7c-2.55-1.69-4.49-3.82-5.11-6.92-.18-.87-.55-1.46-1.55-1.32-3.55.21-7.15-.09-10.68,1.2a1.24,1.24,0,0,0,.29.92c2.4,3.66.63,6.92-1,10.21-.61,1.27-1.42,1.83-2.77,1a3.85,3.85,0,0,0-.83-.43c-2.21-.68-2.21-.68-2-2.93-.35,1.43-1.3,2.08-2.37,1.06-1.43-1.35-3.25-1.76-4.88-2.62a3,3,0,0,1-.46-2.68c.36-1.4.67-2.74-.68-3.82a.72.72,0,0,1-.21-.65c.74-3.83-.31-7.62-.15-11.45.1-2.43.1-5-1.16-7.26a1.73,1.73,0,0,1-.23-.66,36.43,36.43,0,0,0-1.38-7.47,2.92,2.92,0,0,1,0-1.85c1.57-3.14-.25-5.62-1.76-8a11.21,11.21,0,0,1-1.72-6.9,4,4,0,0,0-.89-3,3.78,3.78,0,0,1-.54-4.09c.61-1.77-.43-3.72-.78-5.57a19.69,19.69,0,0,1-.6-3.66c0-2.26.1-4.54-1.16-6.6a3.24,3.24,0,0,1-.13-2.07c.07-.61.39-1.32-.09-1.81-1.26-1.29-1-2.73-.48-4.16a9.19,9.19,0,0,0-.23-6.12,70.7,70.7,0,0,1-2.47-10.44c-.53-3.58-1.64-7.11-1-10.81.44-2.46-.52-4.91,0-7.45.27-1.23.33-2.56.62-3.86.58-2.64,1.44-5.23,1.33-8a9.43,9.43,0,0,1,1.21-5.65,6.63,6.63,0,0,0,.86-4.3c-.06-.79-.26-1.78.33-2.26,1.85-1.49,2.15-3.79,3.25-5.63a131.89,131.89,0,0,1,12-17.32,55.8,55.8,0,0,1,8-8.07,91.31,91.31,0,0,1,11.73-7.29c5.4-3.08,11.34-4.78,17.19-6.71,2.59-.85,5.37-2,7.85-2.06,3.84-.07,7.69-1.62,11.55-.32.3.1.7.3.9.18,3.59-2.17,6.5,1.34,10,1.25,2.36-.07,4.73,2.21,6.73,4,1,.91,1.34,1.07,2.43-.12,3.64-4,7.44-7.72,13.29-8.54a12.8,12.8,0,0,0,7.91-4.09,5.74,5.74,0,0,1,3.46-1.87c3-.47,5.89-1.78,9-.83.23.07.52.15.69,0,2.33-1.58,4.82-.76,7.28-.54a37.67,37.67,0,0,0,8.42-.53,15.42,15.42,0,0,1,6.68.77c4.85,1.47,9.45,3.77,14.57,4.44a22.62,22.62,0,0,0,4.18.21c3.72-.16,7.43.1,11.15.06a2.08,2.08,0,0,0,1.31-.4c2.07-1.66,4.66-2,7.08-2.7.29-.09.66,0,.9-.21,2.93-2.25,6.58-3.32,9.4-5.73,1.47-1.25,3-2.58,3.29-4.7a2.48,2.48,0,0,1,.92-1.61c3.89-2.77,7-6.65,11.47-8.59a2.54,2.54,0,0,1,.87-.34c3.12,0,5.8-1.77,8.84-2.06C1689.64,73.5,1691.77,74.83,1693.81,73.64Z"/><path class="cls-4" d="M1431.17,258.38a174,174,0,0,1,14.14-14.57c4.15-3.76,7.45-8.55,12.61-11.32,3.09-1.65,4.67-5.16,7.48-7.79-2.07-.26-3.77-.69-5.06-2a1.16,1.16,0,0,0-.79-.44c-3.56.39-5.87-2.23-8.66-3.64s-5.26-3-8.25-3.83a10.15,10.15,0,0,1-5.83-4.5,6.16,6.16,0,0,1-.07-6c2.24-3.83,4.9-7.39,9-9.6,5-2.68,9.55-.62,14.14,1.15,1,.39,2,1.11,2.88-.2.87,4.73,2.12,9.34,3.4,14a6.32,6.32,0,0,1-1,3.82c-.31.49-1.09,1.39,0,1.73,1.79.58,1.71,1.31.95,2.79-.3.58-1.06,2,.82,2.73.54.2.37,2.48.43,3.82a27.42,27.42,0,0,1-.06,3.51c-.12,1.37,0,2.53,2.11,2.64-1.91,1.47-1.29,2.71-.42,4.11.38.61,1.9,2-.57,2.14-.71,0-.55.59-.41,1.05a6.44,6.44,0,0,0,1.32,2.18c.66.81,2.34,1.53.49,2.81,1,1.65-.34,3.78,1.14,5.4,1.06,1.14,1.29,3.21,2.16,4,3,2.63-.19,5.05.29,7.48-4.26,2.73-8.21,5.9-12.51,8.58-4.55,2.85-9.6,4-14.67,5.15-2,.47-3.25-.37-4.69-1.7a85.67,85.67,0,0,1-10.36-11Z"/><path class="cls-5" d="M1687.68,74a.66.66,0,0,1,0-.37h6.11c-1,1-2,1.76-3.47.6C1689.62,73.68,1688.58,74,1687.68,74Z"/><path class="cls-6" d="M1658.44,280.88c1.64.77,3.38.44,5.08.41,4.22-.08,7.08,1.84,8.8,5.67,3.52,7.85.13,19.61-7.15,24.64l-1.55,1c.05.94-.74.84-1.26.92-2.69.41-5.37,1.13-8.13.41a1.41,1.41,0,0,0-1.93,1.43c-.39,4.62-2.53,8.72-4.31,12.8-1.58,3.61-3.25,7.36-6.07,10.42a38.41,38.41,0,0,0-4.32,5.48c-2,3.13-5.25,4.28-8,6.25-.82.58-1.88.89-2.24,1.95-.68,2-2.23,3.13-3.89,4.22-3,2-6,4-9,6a17.47,17.47,0,0,1-4.84,2.34,1.32,1.32,0,0,0-.45.14c-5.78,4.4-13.39,4.55-19.44,8.34a4.41,4.41,0,0,1-2.89.78c-1.86-.25-2.3.74-2.72,2.36-.54,2.09-.63,4,.66,5.76.14.27.11.77.4.8,2.69.28,4.31,2.78,6.91,3.26a3,3,0,0,1,1.76,1.11,39.8,39.8,0,0,1,6.86,12.13c2.08,6.61.84,13.14-2.32,19.09a52.4,52.4,0,0,1-9.72,13.18,16,16,0,0,1-7.17,4.2c-2.35.62-4.45,1.81-6.89.57-3.6,1.76-6.62-.56-9.9-1.31s-6.69-1.22-9.9-2.6a14.12,14.12,0,0,1-6.48-4.79c-2.47-3.56-4.1-7.57-6.19-11.33a4.56,4.56,0,0,1-.46-3,61.26,61.26,0,0,0,.33-9.38,9.51,9.51,0,0,1,1.23-4.95,2.2,2.2,0,0,0,.43-.83c.44-5,3.57-8.53,6.8-12a3.19,3.19,0,0,0,.8-1.66,5.6,5.6,0,0,1,3.13-2.69,5.85,5.85,0,0,0,3.17-4.13c.4-1.47,0-2.38-1.74-2.55a47.46,47.46,0,0,1-16.48-5,13.79,13.79,0,0,0-5.58-1.66,3.72,3.72,0,0,1-1.82-.41c-3.07-2-6.69-3-9.68-5-4-2.68-7.85-5.66-12.09-8a2.45,2.45,0,0,1-1.39-1.8c-.21-1.87-1.58-2.63-3.06-3.18a15.73,15.73,0,0,1-7.45-5.84c-1.86-2.61-4.17-4.86-6.19-7.36a22.33,22.33,0,0,1-4.09-6.77c-.73-2.14-2.17-2.69-4.17-2.32a21.78,21.78,0,0,1-4.9.34,5,5,0,0,1-2.71-.66,6.89,6.89,0,0,0-3.93-1.29c-.31,0,.07,0-.24,0-3.83-.73-8.56-8.46-7.13-11.67-.86-4.49-.61-8.73,2-12.75,2-3,4.2-5.54,7.69-6.78a19.58,19.58,0,0,0,2.67-1.42c2.79-1,4.14,1.32,6,2.78-.27-1.2-.6-2.31.31-3.13.5-.45,1.14.08,1.4.45.89,1.3.13,2.45-.59,3.56.7.55,1-.11,1.35-.42.73-.63,1.22-.76,1.3.44a1.22,1.22,0,0,0,1.21,1.2c1,.07.14-.94.5-1.16,1.68-1.07.32-3.8,2.6-4.59.58-.21,0-1-.15-1.47-.53-1.7-1.22-3.36-1.75-5.07-.24-.8,0-1.69.9-1.86,1.32-.24.2,1.14.81,1.42,3.12-2.06,6.58-1.11,9.92-1.19,2.14,1.88,2.7,4.55,3.16,7.1a8.63,8.63,0,0,0,4.24,6.36,12.67,12.67,0,0,1,4.71,4.13c.61,1,1.51.94,2.47.86a3.87,3.87,0,0,1,4.26,2.53c1.11,2.41,3.57,2.68,5.78,2.88a58.23,58.23,0,0,0,17.23-.47,11.24,11.24,0,0,0,4-1.69,16.5,16.5,0,0,1,8.14-3.08,1.38,1.38,0,0,1,.23,1.68,34.22,34.22,0,0,0-2.22,8.06,71.43,71.43,0,0,1-2.16,8.71c-.45,1.48-1,3,0,4.5,0,.07.12.18.1.2-2.44,2.91,2.17,2.86,2.08,4.88a1,1,0,0,0,1.69.52c1.11-1.15,2.36-.79,3.64-.67a17.84,17.84,0,0,0,7.74-1.34,33.21,33.21,0,0,1,7.72-1.43c3.19-.37,6.06-2.1,9.34-2,.62,0,.92-.48,1-1.07.46-2.29,1-4.57,1.4-6.86.18-1-.3-1.57-1.31-1.38-2.19.41-4.58.09-6.52,1.54a4.48,4.48,0,0,1-2.86.87c-3.23-.1-6.13,1.41-9.21,2-1.35.26-2.82,1.27-4.39,1.67s-2.14-.06-1.79-1.68q1.17-5.59,2.29-11.2a12.66,12.66,0,0,0,.43-2.77c-.19-7.26,3.7-13.56,4.83-20.56a24.69,24.69,0,0,1,4.11-10.21c-.19-1,.35-1.59,1.23-1.35,1.24.34,2.56.11,3.75.64a2.38,2.38,0,0,1,.41,1.66c-.6,2.09.64,3.93,1.07,5.81a36.92,36.92,0,0,0,5.38,13.13c3.71,5.25,9.2,8.34,15.19,10.48,5.21,1.86,10.58,1.77,16,1.16a34.42,34.42,0,0,1,3.52-.17c2.75,0,5.28-.28,6.51-3.4a2.86,2.86,0,0,1,3.39-1.52,2.91,2.91,0,0,0,3.29-1.6,11.33,11.33,0,0,1,4.2-3.66,8.1,8.1,0,0,0,4.15-6.18c.27-2.1,1.3-4,1.91-6a7.53,7.53,0,0,0,.36-3.45c.69-3.33,3.5-4.05,6.25-1.2,1.43,1.47,3.34,1.93,4.78,3.32.87.84,2.54.09,3.52-1C1657,282.69,1657.7,281.77,1658.44,280.88Z"/><path class="cls-6" d="M1625.55,207.68l8.19-.07c.86,0,1.51.09.87,1.15a1.37,1.37,0,0,0,.19,1.72c3.24,4.16,4.45,9.24,6.34,14,.57,1.46,2.12,3,2,4.07-.45,2.77.88,5.14.92,7.74,0,3.82,1.26,7.55,1,11.41a2.25,2.25,0,0,0,.81,1.64,2.49,2.49,0,0,1,.61,2.77,3.11,3.11,0,0,0,.43,3.12c.14.18.38.47.32.6-1.48,3.36,1.07,6.81-.26,10.21-.58,1.45.07,2.93.8,4.25.53,1,.21,1.52-.78,1.66a7,7,0,0,0-2.67.77c-.94.56-1.37,0-1.25-.86a6.7,6.7,0,0,0-1-4,3.85,3.85,0,0,1-.42-3.34,2.32,2.32,0,0,0,.14-1.39c-1.61-5.17-2.86-10.5-6.33-14.88-.48-.61-.93-1.25-1.36-1.89a4.76,4.76,0,0,1-.67-1.23c-.63-2-2.89.54-3.4-1.13-.41-1.35-.41-2.76-2.41-2.14a.41.41,0,0,1-.23,0c-.75-2.71-4.11-1.42-5.45-3.71-1.17-2-3.8-2.87-6-3.2-5.7-.81-11.4-1.53-17.21-.17a21.88,21.88,0,0,0-13.17,8.29c-2.25,3-4.78,5.88-5.37,10-.25,1.81-1.45,3.54-1.85,5.46a2,2,0,0,1-2.46,1.64,11.21,11.21,0,0,0-7.74.87,1.67,1.67,0,0,1-2.32-1,23.59,23.59,0,0,1-2-7.39,4.47,4.47,0,0,0-1.46-3.29,8.82,8.82,0,0,1-2-2.9c-3.68-7.21-9.8-10.85-17.62-12-3.33-.49-6.63-.94-9.93.36-.79.31-1.84-.12-2.77-.1a13.42,13.42,0,0,0-8.25,3.51c-1.11.91-1.93,2.33-3.76,1.8-.52-.15-.79.35-.89.87-.16.81-.62,1.23-1.5,1-.22-.06-.63-.13-.65-.07-.82,1.94-3.07,2.17-4.22,3.33a32.28,32.28,0,0,0-8.4,16.58c-.82,4-2.34,8.14-1.25,12.55.68,2.73-.71,3.73-3.46,3.26a29.71,29.71,0,0,0-3.26-.31,3,3,0,0,1-2.87-2.05c-.45-1.17-.63-2.4.67-3.37a2.55,2.55,0,0,0,1-2.51c-1.25-7.1.31-13.93,1.59-20.85a33.85,33.85,0,0,1,2.68-8.56,2.32,2.32,0,0,1,1.25-1.27c.35-.15,1.14-.28.73-.86-.84-1.17-.2-1.63.74-2.12s.37-1.42.6-2.12c1.15-1,2.41,0,3.62-.2,9.52-1.79,19.2-2.89,28.52-5.57,4.64-1.34,9.2-2.61,14.05-2.8a16.93,16.93,0,0,0,5-1.32,34.34,34.34,0,0,1,11.19-2.37,2.21,2.21,0,0,0,.93-.11c4.8-2.49,10.41-1.9,15.32-4.08a37.55,37.55,0,0,1,8.36-2.55c3.56-.63,7.22-1.12,10.83-1.68a72,72,0,0,0,7.56-1.6,58.28,58.28,0,0,1,14.33-2A13,13,0,0,0,1625.55,207.68Z"/><path class="cls-4" d="M1625.55,207.68a5.13,5.13,0,0,1-5,2.53c-4.13-.42-8.13.49-12,1.38-6.24,1.42-12.53,2.52-18.79,3.81-.48.1-1,.23-1.33-.14-1-1-1.36-.26-1.89.53a2.25,2.25,0,0,1-1.49,1c-4.66,0-8.7,2.37-13.14,3.26-7.34,1.49-14.84,2.37-21.9,5.1a10.76,10.76,0,0,1-5.06.71,8.74,8.74,0,0,0-5,1c-.85.43-1.76,1.26-2.68,0-.25-.33-.55-.16-.81,0-4.2,3-9.28,3-14,4.08-5.77,1.33-11.68,2.06-17.49,3.24-1.65.34-2.85-.47-4.25-.79-.11-1.81,1.52-2.88,1.92-4.42.93-3.61,3.51-6.25,5.24-9.39,2.28-4.13,5.75-7.18,9.2-10.22a18.19,18.19,0,0,1,6.43-3.26,4.43,4.43,0,0,0,3-2.07,1.63,1.63,0,0,1,1.72-1,25.69,25.69,0,0,0,11.19-1.61c1.19-.45,2.11.75,3.15.34,4.66-1.82,9.47-.92,14.23-.83a1.23,1.23,0,0,0,.47,0c4.28-1.9,8.39.54,12.61.54s8.48.94,12.72,1.5c9.46,1.26,18.74,3.49,28.38,3.91C1615.79,207.18,1620.7,207.18,1625.55,207.68Z"/><path class="cls-4" d="M1631.93,271.15c-.35,1,.08,2.24,0,2.92-.48,2.38-.06,5.43-1.18,7.05-3.6,5.16-8.4,9.27-14.77,10.85-7.63,1.9-14.69-.05-21.49-3.45-.4-.2-.94-.5-1-.87-1-3.11-4-5.06-4.77-8.2-.56-2.24-1.27-4.55-.55-6.93.6-2-.14-3.91-.4-5.85a1.83,1.83,0,0,0,1.12-2.55c-.61-1.88.71-3.52,1.16-5.26,3.93-4,7.68-8.4,14.14-7.88a7,7,0,0,0,3.13-.86,5.09,5.09,0,0,1,5.83,1.14c2,1.9,4.18,3.28,7.14,2.37.69-.22,1.61-.18,1.94.46,1.44,2.87,4.24,4.4,6.31,6.64.5.54.54,1.29,1,1.82,0,.14,0,.29.07.43a5.81,5.81,0,0,0,1.42,2.32c.29.26.69.71.53.94C1630.25,268,1631.62,269.54,1631.93,271.15Z"/><path class="cls-4" d="M1555.63,272.46c1.1,4.65-.48,8.47-3.61,11.83a.41.41,0,0,0-.13.19c-.89,5.49-5.89,5.15-9.53,6.75-4.72,2.08-9.63,1.26-14.5,1a9.65,9.65,0,0,1-5.1-2.11l-6.58-4.88c-1.87-1.39-1.86-1.93,0-3.24,1.26-.88,1.27-2.74-.22-3.19-3.14-.94-4.72-2.51-3.76-5.95.13-.46-.44-1.12-.68-1.69.71-1.62,1.48-3.23.37-5l.11-.67a3.23,3.23,0,0,0,1.66-1.58c1.21-3.49,4.7-5.14,6.56-7.85s3.43-2.47,5.77-2.52a7,7,0,0,0,4.75-2.28c1.91-1.85,3.4-2,5.74-.68a4.8,4.8,0,0,0,3.37.54,8.16,8.16,0,0,1,6.1,1.11,35.38,35.38,0,0,1,7.84,6.66c.1,2.12,1.39,4.09.59,6.38-.28.81,1.08.91,1.63,1.41C1555.74,268.59,1555.16,270.49,1555.63,272.46Z"/><path class="cls-7" d="M1641.65,282.38c1.24,1.16,1,2.52.49,3.88a34.15,34.15,0,0,0-2.18,7.39c-.4,2.61-2.34,4.17-4.51,5.37a9.14,9.14,0,0,0-4.17,4c-.69,1.45-1.9,1.69-3.36,1.22-1.74-.55-2.84-.05-3.23,1.89-.53,2.59-2.88,2.86-4.79,3-5.06.23-10.14,1.1-15.19.57a27.35,27.35,0,0,1-11.13-3.34c-4-2.36-8.4-4.57-11-8.59A45.1,45.1,0,0,1,1576,278.6c-.07-.49.34-.64.69-.81A103.32,103.32,0,0,0,1581,289c1.66,3.7,4.88,6.45,8.47,8.54,2.23,1.3,4.33,3,6.65,3.89,3.43,1.27,7.09,2.39,10.86,2.14a83.58,83.58,0,0,0,9-.64c2.44-.41,5-.27,7.33-1.45.53-.27,1.38-.5,1.36-1.16-.11-2.94,1.91-2.19,3.45-2s2.42,0,3-1.48a6.3,6.3,0,0,1,3-3.17c3.38-1.91,5.77-4.45,6.25-8.52A4.92,4.92,0,0,1,1641.65,282.38Z"/><path class="cls-7" d="M1555.15,303.35c-1.82,1-3.49,2.38-5.71,2.54a1.58,1.58,0,0,0-.85.34c-5.3,4.33-11.56,3.76-17.76,3.5-1.48-.06-3-.19-4.44-.18a11.5,11.5,0,0,1-6-1.67c-.71-.41-1.3-.84-1.36-1.74-.15-2.27-1.66-2.46-3.34-2-1.39.39-2.56.34-3.18-1a8.47,8.47,0,0,0-4-3.81c-3.1-1.69-5-4.1-5.19-7.76-.09-2.48-2-4.38-2.21-6.82,1.55-1,2.42-.81,2.47,1.29a7.3,7.3,0,0,0,3.36,5.87c2.18,1.59,4.61,2.86,5.94,5.46.92,1.81,2.83.5,4.22,1,.79.66,1.07,1.75,1.9,2.38a10.9,10.9,0,0,0,7.78,2.7c4.74-.11,9.48.91,14.25-.17a36.49,36.49,0,0,0,13.81-6.09c.42-.31.83-.92,1.41-.62s.37,1.13.31,1.69C1556.38,300,1555.05,301.47,1555.15,303.35Z"/><path class="cls-8" d="M1553.82,258.88c-1.47-.06-2.41-1-3.34-2a26.51,26.51,0,0,0-4.27-3.64,6.86,6.86,0,0,0-5-1.44c-2.13.41-3.93.48-5.87-1-1.43-1.09-3.37-.23-4.25,1.27-1.53,2.61-4.54,1.71-6.55,3.11-.39.27-.63-.44-.8-.89-.43-1.12-1-.12-1.48,0-.7.13-.79.41-.42,1.12.72,1.36.67,2.4-1.35,1.77-.39-.13-.85-.31-1,.16-.92,3.21-5.46,3.79-5.5,7.72,0,1.38-1.15.83-1.92.41,1.92-2.31,1.71-5.25,2.32-8a5.36,5.36,0,0,1,2.68-3.39,4.06,4.06,0,0,0,2.14-2.35c.12-.4.3-.86.91-.92,2.51-.22,2.51-.24,1.36-2.83,2.24,1.14,4.38-.21,6.49.4.15,0,.55-.21.54-.29-.25-1.93,1.57-1.93,2.53-2.71,2-1.6,4-1.1,5.84.16.69.46,1.37,1,2.1.6,2.2-1.17,4.16-.79,6.17.49,3.56,2.27,7.11,4.54,9.06,8.52A3,3,0,0,1,1553.82,258.88Z"/><path class="cls-8" d="M1629.46,262.55c-1.76-1.69-4.42-2.46-5.26-5.11-.14-.45-.46-.5-.91-.31-1.83.73-2.14-.07-1.54-1.62.17-.45.53-.87,0-1.23a1.51,1.51,0,0,0-1.55,0,7.37,7.37,0,0,1-7.66-2.11,3.86,3.86,0,0,0-5.46-1.06,3.54,3.54,0,0,1-2.81.83c-3.52-.92-6.19.72-8.74,2.81-1.8,1.47-3.27,3.39-5.62,4.09-1.4-3.25-1-4.43,1.47-6.73,2.37-2.15,4.68-4.34,7.6-5.77,1.68-.82,3.31-1.36,5.12-.46.8.4,1.84.66,2.41,0a3.6,3.6,0,0,1,3.81-1.28c1,.15,1.93-.31,2.18,1.12.11.65.61.53,1.09.53a2.59,2.59,0,0,1,1.06.22c-.06,3.1,3.11.92,4.06,2.49.42.67.88-.25,1.29-.5a1.55,1.55,0,0,1,1.56-.13c.79.44.05.9-.09,1.36-.3.94.3,1.9,1,1.58,1.53-.67,1.66.22,2,1.19a4.27,4.27,0,0,0,1.86,1.73A7,7,0,0,1,1629.46,262.55Z"/><path class="cls-9" d="M1547.61,148c-.24-2,1-3.18,2.93-4.17,3.53-1.79,7.42-2,11.14-3,.7-.17,1.55-.33,2.1.53s.08,1.49-.28,2.17c-.54,1-1.11,2-1.67,3.07a3.37,3.37,0,0,1-2.68,2c-2.78,0-5.05,1.39-7.52,2.27C1548.46,152.1,1547.53,151.42,1547.61,148Z"/><path class="cls-9" d="M1654,171.81c.16,1.69-.74,3.12-2.53,4.23a84.58,84.58,0,0,1-7.82,4.68,2.77,2.77,0,0,1-3.07-.15c-1.15-.84-.51-1.76-.34-2.72.61-3.58,2.79-5.8,6-7.19a30.39,30.39,0,0,0,4.84-2.27C1652.74,167.33,1654.07,168.76,1654,171.81Z"/><path class="cls-9" d="M1710.73,124.49c.24,2.35-.91,4.29-1.59,6.34-.25.78-.49,1.84-1.67,1.56s-2.38-.85-2.32-2.23a3.49,3.49,0,0,0-1.17-2.82,4.91,4.91,0,0,1-1.1-4.17c.11-.84.25-1.69.33-2.54s-.25-2.23,1-2.64a3.63,3.63,0,0,1,3.58.4C1709.69,120,1711.39,121.71,1710.73,124.49Z"/><path class="cls-9" d="M1574.65,118.81c1,.81,1.89.68,3-.37.31-.29,1.45.68,2,1.37a1.5,1.5,0,0,1,0,1.9c-1.45,2.6-3.15,4.8-6.34,5.34a5.83,5.83,0,0,0-3,1.81c-1.25,1.22-2.18.82-2.94-.6a4.51,4.51,0,0,1-.41-2.74C1567.29,122.87,1571.8,118.84,1574.65,118.81Z"/><path class="cls-9" d="M1593.76,188.28c-.18.7-.4,1.69-.67,2.66-.31,1.14-.61,2.27-2,.72-.82-.92-1.77-.09-2.6.14a7.08,7.08,0,0,1-6.45-1c-2-1.54-2.06-4,.16-5.19,1.89-1,4-2.12,6.32-.87a3.72,3.72,0,0,0,2.29.29C1593.07,184.81,1593.71,186.07,1593.76,188.28Z"/><path class="cls-9" d="M1621.43,159.05c-1.2-3.48-.42-5.6,2.43-7.23a78.34,78.34,0,0,1,7.46-3.3,2.1,2.1,0,0,1,3,1,3.77,3.77,0,0,1-1.1,4.66,13.11,13.11,0,0,1-7.18,3.09C1624.38,157.32,1622.77,157.35,1621.43,159.05Z"/><path class="cls-9" d="M1669.89,135.36a6.23,6.23,0,0,1-2.47,4.65c-2.11,1.65-4.71,2.38-7.21,3.13-2,.6-3.44-1.3-3-3.51a5.76,5.76,0,0,1,5.35-4.76,4.53,4.53,0,0,0,3.07-1,3.23,3.23,0,0,1,3.52-.46C1670.16,133.8,1669.71,134.7,1669.89,135.36Z"/><path class="cls-9" d="M1508.07,161.54c2.86,0,3.28.42,3,2.86a7.12,7.12,0,0,1-3.18,5.47c-.78.5-1.36,1.29-2.11,1.83-1,.71-1.84,2.34-3.37,1.29-1.38-.94-2.23-2.67-1.62-4.1,1-2.45,2.08-5.08,4.51-6.64A4.05,4.05,0,0,1,1508.07,161.54Z"/><path class="cls-9" d="M1496.42,141.84c0-2.21,4.38-8.1,6.44-8.78a1.19,1.19,0,0,1,1.4.51,29.1,29.1,0,0,1,2.11,2.48,2,2,0,0,1-.22,3c-1.32,1.26-1.68,3.64-4.25,3.38-.18,0-.54.57-.61.91-.28,1.43-.9,2.68-2.51,2.5-1.83-.2-2-1.86-2.31-3.34C1496.44,142.31,1496.44,142.07,1496.42,141.84Z"/><path class="cls-9" d="M1487.33,175.79c-.25,2-.47,4-.77,6a9.63,9.63,0,0,1-.67,2.22c-.74,1.71-1.89,3.43-3.72,3.53s-3.87-4.67-3.06-6.49a14.06,14.06,0,0,1,6.34-7,1.22,1.22,0,0,1,1.5.12A1.29,1.29,0,0,1,1487.33,175.79Z"/><path class="cls-9" d="M1665.49,193c0,1.09-.89,2-1.89,2.73a12.73,12.73,0,0,0-3.36,3.18c-.51.82-1,1.4-2,1.11a2.08,2.08,0,0,1-1.73-2c-.1-4,.66-7.57,4.34-9.93,2.42-1.55,4-.85,4.32,2C1665.27,191,1665.36,191.83,1665.49,193Z"/><path class="cls-10" d="M1529.28,143a1.62,1.62,0,0,0,0,1.36c1.52,2.68-.16,4-2.17,5.21-1,.61-1.93,1.32-2.94,1.91-.8.48-1.47,1.6-2.65.8a3.69,3.69,0,0,1-1.39-3.51c.2-3.74,2.31-6,5.86-6.94.29-.08.56-.27.85-.35.64-.19.93-1.47,1.93-.61A2,2,0,0,1,1529.28,143Z"/><path class="cls-10" d="M1695.45,102.73c0,4.22-4.51,8.27-8.63,7.91-1.77-.15-2.58-.89-1.89-2.71a5.28,5.28,0,0,1,1.43-2.63,16.46,16.46,0,0,0,3.9-4.29,3.1,3.1,0,0,1,3.52-1.21C1695.38,100.17,1695.22,101.63,1695.45,102.73Z"/><path class="cls-9" d="M1584.25,161.84c.15-3,1.4-4.69,4.43-5.52,2.14-.59,4.31-1.47,6.59-.44,1.43.64,1.92,1.33.7,2.76-1.89,2.22-3.67,4.48-7,4.45-.64,0-1.29.51-2,.74C1584.5,164.74,1584.12,164.46,1584.25,161.84Z"/><path class="cls-10" d="M1655.31,226.59c-.22,1.25-.32,2.18-.55,3.08s-.84.93-1.65.69c-2.54-.77-5.82-4.89-5.89-7.51a5.66,5.66,0,0,0,0-1.16c-.34-1.37-1.07-2.88,1-3.44a4.06,4.06,0,0,1,4.74,1.66C1654.31,222,1653.73,224.82,1655.31,226.59Z"/><path class="cls-10" d="M1647.58,111.9c.33,4.37-1.5,7.19-5.57,8.67a8.7,8.7,0,0,1-1.8.48c-1,.12-2.12,1.21-3,.09s-.68-2.66-.08-4a6.93,6.93,0,0,1,4.88-4C1643.79,112.71,1645.61,112.34,1647.58,111.9Z"/><path class="cls-10" d="M1606.18,129c.52.09,1.07.15,1.33-.3,1.14-1.91,2.71-1.52,4.46-1.09,2.08.5,2.59,1.16,1.72,3.09a7.57,7.57,0,0,1-5.86,4.48,7.16,7.16,0,0,0-.93,0c-1.54.44-3.36.9-4-1s.65-3.55,1.82-5C1605.15,128.71,1605.69,128.84,1606.18,129Z"/><path class="cls-10" d="M1499.85,198.85c.22,2.73-1.66,4.45-3.08,6.36a1.14,1.14,0,0,1-1.85,0c-1.36-1.45-2.57-3.16-2.12-5.2a17.51,17.51,0,0,1,2.66-5.67c.55-.84,1.47-1.11,2.16-.25A8.23,8.23,0,0,1,1499.85,198.85Z"/><path class="cls-9" d="M1531.77,181.76c-2.35,0-2.85-.66-2-2.83a31.06,31.06,0,0,1,1.8-4,3.84,3.84,0,0,1,6-.83,2.22,2.22,0,0,1,.72,1.88A6.63,6.63,0,0,1,1531.77,181.76Z"/><path class="cls-11" d="M1684.42,164.13a3.22,3.22,0,0,1,0-.84c.37-1.2-.08-3,1.47-3.4,1.36-.4,1.79,1.22,2.63,2,2.69,2.38,2.61,5.24,1.55,8.32-.3.87-.68,1.68-1.69,1.64a1.65,1.65,0,0,1-1.61-1.7,4.13,4.13,0,0,0-1.29-2.67A3.82,3.82,0,0,1,1684.42,164.13Z"/><path class="cls-11" d="M1554.74,192.26c.06-3.15,4-8.31,6.89-9.16.92-.26,1.92-.12,1.48.91-1.48,3.47-2.36,7.43-6.26,9.25C1555.91,193.7,1554.62,194.33,1554.74,192.26Z"/><path class="cls-12" d="M1483.71,238.7c-3.52,0-5-1.24-5.07-4.27,0-1.43.28-2.45,2-2.39,3.78.13,5.26,1.48,5.33,5.21C1486.06,238.8,1485.11,239.24,1483.71,238.7Z"/><path class="cls-13" d="M1623.3,192.36c.16,2.39-.2,4-2.09,5-1.45.75-2.08.22-2.07-1.23,0-2,1-3.7,1.51-5.54a1.11,1.11,0,0,1,1.34-.68c.59.14,1.25.33,1.3,1.1C1623.33,191.62,1623.3,192.24,1623.3,192.36Z"/><path class="cls-14" d="M1576.3,276.13c-1.15.67-2.25,1.26-3.48.06-.84-.82-1.1.18-1.5.65-1.78-.95-1.23-2.37-.49-3.54,1.07-1.69,2.67-1.53,4.28-.72S1577.28,274.48,1576.3,276.13Z"/><path class="cls-15" d="M1682.05,152.1c0,1.34-.08,2-.89,2.31s-1.07-.43-1.54-.81c-1.85-1.52-1.71-3.73-2-5.77-.07-.43.28-.72.69-.8s1.16-.13,1.49.4C1680.76,149.08,1681.85,150.7,1682.05,152.1Z"/><path class="cls-16" d="M1631.93,271.15c-.23-.2-.48-.39-.7-.6-2-2-2-2.5.08-4.39-2.1-.26-2-1.7-1.78-3.18a3.28,3.28,0,0,1,2.23,3.39C1631.74,268,1632.9,269.52,1631.93,271.15Z"/><path class="cls-17" d="M1587.67,266.67c1.68,2.23,1.83,4.36.4,5.85-.55-.19-1.35.36-1.66-.38-.2-.46.36-.79.73-1.07a1.24,1.24,0,0,0,.31-1.84A2,2,0,0,1,1587.67,266.67Z"/><path class="cls-18" d="M1511.92,266.15c2.86,1.92,2.85,2-.37,5C1510.85,269.41,1511.75,267.81,1511.92,266.15Z"/><path class="cls-19" d="M1555.63,272.46c-1.9-2.07-.57-3.92.41-5.79.39.39.77.88.48,1.42-.87,1.6-.29,2.92,1,4.37Z"/><path class="cls-20" d="M1519,300.69c-1.93.24-2.4-.68-1.9-2.38C1519.16,298,1519.17,299.25,1519,300.69Z"/><path class="cls-21" d="M1551.91,384.8a2.72,2.72,0,0,1-1.13,2.87,24.19,24.19,0,0,0-5.22,6.87,3.26,3.26,0,0,0-.54,2.65c.15.48.25,1-.11,1.33-2.3,2.35-1.89,5.32-1.94,8.19,0,2.26.24,4.53-.33,6.77a3.13,3.13,0,0,0,.26,2.52c2.56,3.93,4,8.51,6.9,12.23a5.75,5.75,0,0,0,2.42,2.16c3.34,1.1,6.24,3.37,10,3.36,2.84,0,5.36,1.59,8.06,2.36,1.23.36,2.46,1.09,3.44-.65a1.16,1.16,0,0,1,2,.13,1.78,1.78,0,0,0,2.77.69c2.36-1.7,5.55-1.27,7.75-3.46a45.87,45.87,0,0,0,6-6.54c1.27-1.87,2.68-3.66,3.92-5.55,4.59-7,6.07-14.76,3.24-22.53a37.26,37.26,0,0,0-6.08-10.32,2.26,2.26,0,0,0-1.38-.8c-3-.26-4.55-3.43-7.61-3.52-.75,0-1.52-.64-.14-1.22,1-.87,2.12-.46,3.1,0,3.5,1.5,7.19,2.65,10.28,5a10.46,10.46,0,0,0,4,2c10,2.38,17.7,8.68,25.21,15.23,2.24,1.95,4.39,4,6.81,5.74a6.3,6.3,0,0,0,4.14,1.1c3.45-.08,7-1.38,10.38.32a1.24,1.24,0,0,0,1.12-.11c2.87-1.35,6-1.05,9-1.17,3.69-.57,7.37-.95,10.95-2.28a31.13,31.13,0,0,1,7.73-1.47c3.33-.32,6.33-2,9.15-3.85a102.2,102.2,0,0,0,9.65-8,6.9,6.9,0,0,0,1.89-2.92c1.62-4.32,2-9,3.75-13.29.39-1-.22-2-.27-3-.16-3.22,0-6.31,3.38-8.07,3.87-.45,7.79-.54,11.65-.79a42.5,42.5,0,0,1,11,.45,7.3,7.3,0,0,0,4.16-.3c2.53-1,5.22-.95,7.84-1.35a3.09,3.09,0,0,1,3.21,1c.59,5.15-.33,10.29-.07,15.44a21.61,21.61,0,0,0,.38,4.67c.14.5.28,1.38,0,1.57-2.16,1.65-.53,3.5-.44,5.28a49,49,0,0,1-1.41,15.58,18.82,18.82,0,0,0-1,5.26c0,2-1.27,3.31-2.55,4.58a6.21,6.21,0,0,0-2.11,3.81,12.41,12.41,0,0,1-2.91,6.56c-4.41,5.38-8.87,10.7-14.92,14.39-1.12.68-2.11,1.44-3.33.26-.33-.32-1-.23-1,.07.22,3.18-2.69,3.07-4.3,3.59-4,1.29-7.71,3.55-12.07,3.61a4.22,4.22,0,0,0-2,.76c-4.33,2.66-9.21,2.91-14.06,3.32a8.39,8.39,0,0,1-3.25-.38c-.65-.21-1.36-.65-1.78.51-.18.52-1,.48-1.44.1-1.46-1.16-2.7-.4-4.11.22-3.51,1.54-7.37,1.46-11,1.31-3-.13-5.95,1.1-9,.35-1.5-.36-1.18,1.57-1.11,2.52.3,4.12.71,8.22,1.12,12.33a36.64,36.64,0,0,1-.18,11.45,14.69,14.69,0,0,0,.31,7.65c1.15,3.64-.19,6.62-2.31,9.35-.9,1.16-2.43,1.33-3.88,1.36-16.51.28-33-.12-49.52-.12-22.61,0-45.22-.25-67.83.13-8.29.14-16.59-.48-24.89-.06-1.71.08-3.42.1-5.13.15-.29-.46-.52-1-1-1.26-4.31-2.13-4.17-6-3.73-9.87.28-2.42.69-4.77-.06-7.17-.67-2.17-.16-4.36.17-6.52.55-3.64-.13-7.33.61-10.95,1-3.35.57-6.76.46-10.16.78-3.33.64-6.85.68-10.13,0-4.13,1.3-7.78,2-11.64a3.09,3.09,0,0,1,.25-.9c3-5.39,4-11.69,7.89-16.63a2.48,2.48,0,0,0,.4-1.09,3.07,3.07,0,0,1,1.07-2.28c4.79-4,9.09-8.61,14.31-12.1a30.66,30.66,0,0,0,5-3.95,27.23,27.23,0,0,1,10.33-6.31c4.5-1.64,8.72-3.89,13-6C1549.05,384.62,1550.4,383.63,1551.91,384.8Z"/><path class="cls-3" d="M1551.91,384.8a8.1,8.1,0,0,0-3.56,1.09c-5.9,3.27-12.17,5.67-18.36,8.27a2.16,2.16,0,0,0-.61.35c-4.75,4.19-9.85,7.95-14.81,11.88-3,2.38-5.5,5.37-8.69,7.55a2,2,0,0,0-.92,1.77c-1.58,1.66-3.3,3.12-5.71,3.36-1.54.14-2.91-.54-4.3-1a6.75,6.75,0,0,0-3.68-.34,2.84,2.84,0,0,1-2.83-.47,1.76,1.76,0,0,0-2.19-.1c-1.57.94-3.13.65-4.72.06a21.06,21.06,0,0,1-7.35-4.48,38.05,38.05,0,0,1-12.16-28,74.94,74.94,0,0,0-.32-8.2c-.2-1.53-.85-2.21-2.54-2.73-3.46-1.06-6.73-2.52-9.32-5.47a33.14,33.14,0,0,1-6.74-13.16c-.8-2.79-.14-5.42.3-8.1.28-1.67,1.25-3.24.49-5-.23-.54.18-.83.71-1a1,1,0,0,0,.71-1.48c-.77-2.12.25-3.82,1.26-5.48,2-3.26,3.56-7,6.24-9.56,3.75-3.58,6.69-8.36,12.15-9.88,0,4.2,3.2,6.79,5.21,10a.61.61,0,0,0,.36.28c4.31.49,8.16,3.91,12.75,2.18,1.36-.51,2.76.81,4-.45.24-.25.64.28.73.67,1.39,6,5.72,10.12,9.43,14.67,2.81,3.45,5.63,6.69,10.07,8a6.34,6.34,0,0,1,1.73,1.2c.29.23.79.72.74.79-1.66,2.52.84,2.24,1.92,3,3.4,2.37,7.1,4.29,10.22,7.05,1.31,1.17,2.62,2.24,4.54,2.06,1-.1,1.54.65,2.15,1.25a7.75,7.75,0,0,0,6.11,2.47,7.8,7.8,0,0,1,4,1.23c2.07,1.08,4.29,1.83,6.38,2.84a27.87,27.87,0,0,0,11.07,2.42c1.84.06,2.31.68,2.41,2.22a6.61,6.61,0,0,1-4.41,6.46C1553.29,383.39,1552.76,384.28,1551.91,384.8Z"/><path class="cls-3" d="M1658.06,411.06c-1.82.7-3.73.29-5.59.43-1.16.09-2.37-.13-3,1.31-.33.82-.94.72-1.45.13a3.91,3.91,0,0,0-4.11-1.06c-2.59.61-5.33-.31-7.84.9-.61.3-1-.27-1.44-.56a60.4,60.4,0,0,1-6.18-4.87c-4.08-3.52-8.19-7-12.39-10.38-3.57-2.89-7.91-4.38-12.16-5.91a48.77,48.77,0,0,1-8.57-4.09,34.56,34.56,0,0,0-11.19-4.61c-1.06-1.49-3-2.82-.89-4.88-.69-4,1.77-3.82,4.79-4.62a31.67,31.67,0,0,0,8.91-4.05c1.16-.76,3.23-.53,4.87-.94a9.1,9.1,0,0,0,4.11-2.12,5.19,5.19,0,0,1,1.94-1.27c6.76-1.86,11.55-7.05,17.5-10.27a8.39,8.39,0,0,1,5.49-5.62c.62-.24,1.25-1.38,2.48-1.35,1.07,0,1.63-.93,2-1.77.66-1.49,1.94-2.42,2.89-3.64,2.25-2.85,5.09-5.33,6.1-9a4,4,0,0,1,1.24-1.94,4.47,4.47,0,0,0,1.55-2.3c.74-3.74,2.67-7,3.89-10.58.36-1.06,0-2.1.24-3.21.47-1.85,1.51-2.1,3-1.87,2.11.32,4.21,1.16,6.32-.19.88-.55,2,.51,3-.08a6.57,6.57,0,0,0,2.67,2.53c5.7,2.35,9.31,7.07,12.89,11.71a73.46,73.46,0,0,1,4.73,7.77,6.74,6.74,0,0,1,1.16,5.1c-.7.95-1.83,1.13-2.82,1.55-1.14.48-1.45,1.16-.68,2.15a13.85,13.85,0,0,1,2.63,5.67,5.23,5.23,0,0,0,1.82,2.39,5.26,5.26,0,0,1,1.83,3.91c-.35,3.32-2.08,6.09-3.7,8.88a41,41,0,0,1-3.49,4.88,17.51,17.51,0,0,1-7.64,5.17c-2.47,1-3.23,2.53-3.19,5a55.49,55.49,0,0,1-3.74,21.31A23,23,0,0,1,1658.06,411.06Z"/><path class="cls-6" d="M1499.25,419.07a13.58,13.58,0,0,1,5.71-3.36,7.35,7.35,0,0,1-.49,1.31c-2,3.43-3.4,7.17-5.07,10.74-2.12,4.52-3.4,9.2-4.89,13.86a3.39,3.39,0,0,0-.11,2.72c.62,1.23,1.09,2.45-.39,3.51a1.31,1.31,0,0,0-.26,1.54c.8,2.18.31,4.32-.16,6.46-.36,2.79-.06,5.59-.18,8.38a5.52,5.52,0,0,1-.21,2.52c-.55,4.56.21,9.2-.93,13.73a4.35,4.35,0,0,0,.07,2.32,15.38,15.38,0,0,1,0,9.42c-.68,2.31,1.35,4.24,1,6.54-.06.46.57.78,1.05.74,2.17-.22,2.21,1.12,2,2.66-5.71-1.45-11.49-.43-17.24-.5-1.94,0-3.9.48-5.6-1-.65-.56-1.34,0-2,.22-5.06,1.86-8.6-.76-8.41-6.16.09-2.41.57-4.85-.3-7.25a4,4,0,0,1,.26-3.21c4-6.92,3.55-15,6.12-22.32a44.91,44.91,0,0,1,2.54-6.52,154.86,154.86,0,0,1,12.11-19.19,48.78,48.78,0,0,1,7.42-8.42,23.64,23.64,0,0,0,4.41-4.85A12.24,12.24,0,0,1,1499.25,419.07Z"/><path class="cls-4" d="M1742.2,366.54c-3.83.11-7.63.27-11.29,1.63a8.63,8.63,0,0,1-4.4.05,14.58,14.58,0,0,0-6.73,0c-.14,0-.32.16-.44.12-5.11-1.62-10.22,1.34-15.33,0-1.75-.14-2.08-1.41-2.15-2.81a25.8,25.8,0,0,1,.56-4.63c.35-2.93-.25-3.69-3.14-3.78-1.48,0-3,0-4.11-1.22a17.75,17.75,0,0,1-1.21-9.47A1.84,1.84,0,0,1,1695,345l4.44,0c.78,0,1.63,0,2-.81.48-1-.43-1.34-1-1.84a10.45,10.45,0,0,1-2.36-2.56,3.13,3.13,0,0,0-.13-3.5,1.89,1.89,0,0,1-.34-1.1c0-.68.35-1.49.9-1.47,2.48.09,2.23-4.71,5.51-3,1.08.17,1.52,1,1.79,1.91.18.61.39,1.24,1.17,1.23.5,0,.79-.42,1-.83.39-.63.06-1-.42-1.35-1.53-1.07.1-1.85.24-2.77,1.43-2.69,2.8-3.51,5.76-3,1.53.26,3.08-.28,4.56.31.48.51,0,1,0,1.54-.06,1.34-.45,2.85,1.91,2.22.62-.17,1.42.32,2.14.51.44-1.1-.51-2-.17-3,3.17-2.89,4.94-2.78,7.48.46a16.59,16.59,0,0,1,1.3,1.92c.81,1.87,1.62,1.24,2.43,0,3.55-2.73,6.67-2.19,8.79,1.54a34.49,34.49,0,0,1-2,8.36,3.73,3.73,0,0,0,.32,3.58c2.77,4.21,2.61,8.79,1.77,13.44a4.53,4.53,0,0,0,.32,3.48C1743.64,362.25,1742.75,364.44,1742.2,366.54Z"/><path class="cls-6" d="M1695,345a23.85,23.85,0,0,0,.76,10.75c-.34,1.31-1.46,1.33-2.42,1.23a10.94,10.94,0,0,1-6.06-2c-2.56-3.15-4-6.94-6.13-10.35-1.82-3-1.88-3.57,1.6-4.46.75-.19,1.52-.29,2.28-.43a3.41,3.41,0,0,0,2.12.88C1690.37,341.08,1692.62,343.19,1695,345Z"/><path class="cls-6" d="M1704.11,330.7c-1.42.09-2.67.37-2.57,2.21.07,1.27-.67,1.36-1.65,1.2a1.23,1.23,0,0,0-1.43.49c-.42.71.07,1.18.51,1.6,1.81,1.67,1.16,2.75-.8,3.56-1.64-1.6-2.33-3.58-3.15-5.7-.67-1.73-1.55-3.63-2.31-5.45a11.9,11.9,0,0,1-.84-5.51,5.42,5.42,0,0,0-.55-2.7c-1-2.13,0-3.66,2.42-3.76s5.06,1.27,5.67,3.66C1700.38,324.08,1702.43,327.29,1704.11,330.7Z"/><path class="cls-6" d="M1718.25,326.2a3,3,0,0,1-3,.84c-3-1.31-5.17.12-7.32,1.85-.66-2.77-.51-5.6-.62-8.41a26.49,26.49,0,0,0-.69-5.8c-.59-2.22.3-3.4,2.61-3.76,4.25-.68,7,1.45,7.2,5.64C1716.54,319.88,1717.87,322.94,1718.25,326.2Z"/><path class="cls-22" d="M1730.9,329.81c-2.29.3-2.15-2.24-3.53-3.16-.95-.63-1.28-.89-2.18-.23a6.13,6.13,0,0,1-3.07,1c-1.06-3.88-.8-7.89-1.19-11.84-.15-1.6,1-2.11,2.5-2a8.75,8.75,0,0,1,7.45,7.9c.16,1.86.09,3.73.87,5.51C1732.23,328.12,1731.41,329,1730.9,329.81Z"/><path class="cls-23" d="M1742.12,331.35a3.72,3.72,0,0,1-2-1c-1.71-1.85-3.54-2.17-5.64-.62-.26.19-.74.08-1.12.1,1.46-2.3,1.43-5.21,3.19-7.43,1.28-1.62,2.4-1.75,3.89-.52a5.45,5.45,0,0,1,2.28,4.37A3.15,3.15,0,0,0,1743,328C1744.05,329.54,1743.18,330.44,1742.12,331.35Z"/><path class="cls-3" d="M1598,327c.19-2,1.62-3.17,3.2-4.06a71.86,71.86,0,0,0,6.3-4.06c.87-.62,1.8-1.9,2.76-1.52,2.19.87,5,1,6.39,2.85a16.09,16.09,0,0,1,2.58,6.64c.5,3,.7,6.32-.3,8.84-1.84,4.64-3.11,9.72-6.7,13.54-.75.8-1.56,1.54-2.35,2.3-4,3.86-8.59,5.47-14.3,5.64-6.25.19-11.63-1.8-17.13-4-2.73-1.11-4.64-3.41-7.16-4.83a1.28,1.28,0,0,1-.59-1.64c1.49-2.93,2.1-6.07,5.87-7.85,5.46-2.58,10.32-6.45,15.42-9.79a9.55,9.55,0,0,1,3.52-1.79c.38.14.82.34.88.71.39,2.71,2.82,3.82,4.38,5.58a4,4,0,0,0,4.07,1.22c.87-.2,1.69-.48,1.88-1.51a2.14,2.14,0,0,0-1-2.22C1603.35,329.29,1601,327.48,1598,327Z"/><path class="cls-24" d="M1598,327a4.74,4.74,0,0,1,5.82,1.58,5.55,5.55,0,0,0,1.92,1.27,3.16,3.16,0,0,1,2,3.53c-.15,2-1.54,2-2.93,2.3a4.9,4.9,0,0,1-5.27-2.12c-.18-.25-.27-.71-.48-.76-3-.73-2.91-3.37-3.55-5.56C1596.22,326.1,1597.21,327.69,1598,327Z"/><path class="cls-3" d="M1604.49,228.23c-1.59.15-4-.56-6,1.31-.43.4-1.5.21-2.27.17-2.49-.15-5-.39-7.48-.53a2.44,2.44,0,0,1-2.53-2.26,7.51,7.51,0,0,1,4.17-7.95,34.59,34.59,0,0,1,18.3-3c3.55.4,7.13.16,10.68.92a16.93,16.93,0,0,1,9,5c1.63,1.74,1.35,3.68-1,4.8-4,1.93-8.11,4.05-13,2.55A31.54,31.54,0,0,0,1604.49,228.23Z"/><path class="cls-25" d="M1595.25,271.58a8.19,8.19,0,0,1,1.24-5.9,4.18,4.18,0,0,1,.73-1.19c6.89-6.14,17-7.51,23.32,2.77,1.92,3.17,1.5,5.92.65,8.94a11.74,11.74,0,0,1-6,7.12c-5,2.74-11.43,2.37-15-1-.78-.75-2.5-1.83.24-2.35a.86.86,0,0,0,.74-1,1.34,1.34,0,0,0-.89-1c-.6-.26-.84.08-1,.6-.33,1.27-1,.6-1.52.21C1595.29,277,1594.74,274.55,1595.25,271.58Z"/><path class="cls-25" d="M1548.62,272.43c-.53,1.7-.27,4.08-2.3,5.69-1,.81-.73,2.31-1.8,3.39a14,14,0,0,1-8.59,3.78c-1.42.17-3.27-.37-5-.54-.8-.07-1.49-1.07-2.27-1.58-1.06-.68-2.09-1.43-3.33-.18a1.18,1.18,0,0,1-1.85-.27c-.59-.88.36-.92.83-1.21.88-.54.15-1.07-.06-1.57-.86-2-2.09-3.81-2.54-6a8.09,8.09,0,0,1,.43-4.57c.88-2.37,2.65-4.2,3.73-6.45a3.78,3.78,0,0,1,1.59-1.34,15.65,15.65,0,0,1,18,2.33A12.6,12.6,0,0,1,1548.62,272.43Z"/><path class="cls-26" d="M1687.32,355a6.85,6.85,0,0,1,4,.76,5,5,0,0,0,4.45,0,9,9,0,0,0,4.39.24c2.21-.18,3.16.9,3.33,2.93a21.16,21.16,0,0,1-.65,5.07c-.26,1.58-.73,3.29,1.14,4.34a9,9,0,0,0-1.62,9c.19.51.45,1,.12,1.55-1.89,3.26-2.18,7-3.08,10.53a13.66,13.66,0,0,1-2.51,5.75c-.94,1.08-2.5,1.43-3.37,2.84-1.89,3.07-5.34,4.54-8.15,6.38s-6.21,4.13-10.21,3.07c-1.77,1.62-4.24.61-6.17,1.62-3.45,1.79-7.21,1.88-11,2a7.29,7.29,0,0,1,2-2.86c5.88-5.8,7.31-13.37,8.42-21.06a60.19,60.19,0,0,0,.46-9.11,3.78,3.78,0,0,1,2.91-4.15c2.41-.79,5.38-1.75,6.64-3.62s4.31-2.65,4.07-5.6c0-.36-.07-.86.44-.94,2-.33,2.56-1.29,1.43-3.08a.81.81,0,0,1,0-.63C1687,359.24,1686.53,356.74,1687.32,355Z"/><path class="cls-27" d="M1493.2,466.75c.19-3.63-.48-7.29.39-10.9C1493.45,459.48,1494.15,463.15,1493.2,466.75Z"/><path class="cls-9" d="M1478.23,403.94c2.61-2.93,2.8-6.54,5-9.15.62-.75,1.08-2.07,2.23-1.65a3.41,3.41,0,0,1,2.53,3.07c0,3.34-1.53,6.3-3.1,9.13a1.78,1.78,0,0,1-3,.16C1481.06,404.22,1480,404.06,1478.23,403.94Z"/><path class="cls-10" d="M1494.25,354a7.87,7.87,0,0,1-.68,3.34,4.9,4.9,0,0,0-.28,4c.81,1.85-.53,1.85-1.63,1.71a4.92,4.92,0,0,1-3.88-4.91,32.16,32.16,0,0,1,.94-5.49c.25-1,.51-2.42,1.78-2.47a3.51,3.51,0,0,1,3.32,2.17A7.17,7.17,0,0,1,1494.25,354Z"/><path class="cls-9" d="M1501.1,392.82c0-.25-.07-.71.1-.84,2.18-1.67,1.46-4.57,2.84-6.6.89-1.31,1.83-1.37,2.9-.58a4.35,4.35,0,0,1,1.32,5.43c-1,2.11-2,4.17-3,6.27-.45,1-1.07.95-1.85.49C1501.81,396.08,1501.35,394.55,1501.1,392.82Z"/><path class="cls-11" d="M1472.07,361.21a5,5,0,0,1-3.75,4.35c-1.16.35-2.45.45-3.08,1.81-.36.79-1.21.57-1.88.45s-.7-.74-.72-1.3c0-1.48-1.1-3.16.43-4.38,2.17-1.74,4.33-3.62,7.37-3.62C1472.23,358.52,1472,359.88,1472.07,361.21Z"/><path class="cls-11" d="M1489.41,373.1c-.63,1.63-.53,3.6-2.28,4.68a3.74,3.74,0,0,0-1.19,1.4c-.33.54-.42,1.45-1.47,1.05-.78-.3-1.53-.9-1.45-1.65.25-2.6-.4-5.54,2.36-7.36.8-.52,1.31-1.71,2.54-1.14S1489.06,372,1489.41,373.1Z"/><path class="cls-11" d="M1462.18,342.92c-.4-2.21,1.12-3.31,2.49-4.44a1.46,1.46,0,0,1,1.75.09,3.91,3.91,0,0,1,.19,6.65c-.18.14-.38.26-.58.39-2.57,1.71-3.55,1.25-3.8-1.81C1462.2,343.49,1462.19,343.17,1462.18,342.92Z"/><path class="cls-12" d="M1518.77,371.5a2.39,2.39,0,0,1,2.83,2.22c.22,1.29.59,2.57.77,3.87a1.28,1.28,0,0,1-.86,1.5,1.14,1.14,0,0,1-1.51-.74,1.43,1.43,0,0,0-1.59-1.05c-2.05.09-2.67-.76-2.68-3.3C1515.72,372,1516.85,371.42,1518.77,371.5Z"/><path class="cls-11" d="M1633.67,391.71c.34-1.19,0-3.09,2.48-3.15,3-.08,3.8.46,4.1,3.09a2.4,2.4,0,0,0,.47,1.49c1.23,1.45,1,2.24-.88,2.42a30.72,30.72,0,0,0-3.43.47C1634.79,396.37,1633.64,394.58,1633.67,391.71Z"/><path class="cls-11" d="M1655.73,348.68a19.4,19.4,0,0,1-4.7-1.44c-1-.44-.74-1.22-.45-2a4.8,4.8,0,0,1,5.88-2.63c1.21.31,3.39-.44,3.54,1.79s-1.5,3.12-3.16,3.95A5.88,5.88,0,0,1,1655.73,348.68Z"/><path class="cls-11" d="M1627.83,367.81a6.91,6.91,0,0,1,6.19,4.58c.35,1.27,0,2.23-1.37,2.43-1.59.22-6.09-2.58-6.75-4.08C1625,368.72,1625.6,367.82,1627.83,367.81Z"/><path class="cls-11" d="M1651.83,363.08c.66.2,1.34.35,2,.59,1.54.55,2.93,1.37,2.71,3.27-.14,1.21-2.83,2.23-4.42,1.8a5.65,5.65,0,0,1-1.7-.76c-1-.66-3.18-.49-2.47-2.37A3.76,3.76,0,0,1,1651.83,363.08Z"/><path class="cls-11" d="M1619.17,377.65c-.38,1.79-1.64,2-2.83,2.34-.42.1-.86-.46-1.32-.1-1.13.86-2.19,1.25-3-.34-.68-1.25-1.44-2.54-.26-3.84s2.39-1.93,4.13-1.27S1617.88,376.87,1619.17,377.65Z"/><path class="cls-12" d="M1662.38,330.86c-1.6-.28-2.94-.58-3.66-1.82a1.8,1.8,0,0,1,.33-2.18,3.07,3.07,0,0,1,3.58-1c.15.06.3.09.45.14,1.4.5,3.83.51,3.46,2.32C1666.23,329.93,1663.83,330.31,1662.38,330.86Z"/><path class="cls-11" d="M1667.91,359a4.94,4.94,0,0,1-3.75-1c-.57-.38-1.39-.65-1.22-1.51a2.18,2.18,0,0,1,1.43-1.42,5.75,5.75,0,0,1,5.69.68c.78.49,1.5,1.22,1.12,2.32s-1.31.91-2.15.92Z"/><path class="cls-24" d="M1588.72,334.56c2.64,0,4.63.39,5.58,2.76.25.62.86.85,1.38,1.19,1.72,1.12,1.68,2.46-.06,3.53a6.83,6.83,0,0,1-10.35-5.73c0-.85.24-1.33,1.1-1.44S1588.22,334.63,1588.72,334.56Z"/><path class="cls-3" d="M1613.76,269.72c-.1.29-.24.7-.23.7,3.53,1.34-.61,3.81.8,5.5.29.35-.21.68-.64.67-1,0-1.44.83-2,1.48a3.65,3.65,0,0,1-2.48,1c-4,.72-6-1.55-7.67-4.56a3.11,3.11,0,0,1-.58-2.21c.47-1.72.65-3.94,1.82-4.94a12.45,12.45,0,0,1,4.92-2.32C1610,264.5,1613.81,267.69,1613.76,269.72Z"/><path class="cls-3" d="M1530.4,278c.21-1.85-.57-3.13-1.18-4.49-.4-.91-1.73-2.13.53-2.54.36-.07.49-.33.37-.7-.81-2.4,1.24-3.17,2.59-4,1.66-1.07,3.63-1.84,5.43,0a2.34,2.34,0,0,0,.73.57c3.74,1.5,4.74,4.93,2.51,8.59a21.29,21.29,0,0,1-1.68,2.81c-.65.76-.78,3-2.83.89-1-1-3,.45-4.7.45S1529.89,279.44,1530.4,278Z"/><path class="cls-2" d="M50,504c-2.3,2.22-4.2,4.7-4.48,5.83s-.12,2.17.42,2.48h0c.47.27,1-.17,1.74-1.52A24.35,24.35,0,0,1,49.74,508a20.55,20.55,0,0,0,3-4.13,7.81,7.81,0,0,1,.8-1.31,5,5,0,0,0,.78-1.74,2.59,2.59,0,0,1,.38-1.1.79.79,0,0,0-.08-1.21c-.23-.17-.45-.15-.57.06s-.13.34.2.31.22.08-.18.31-.55.44-.51.55-.22.54-.6.94a9,9,0,0,0-.87,1.06A13,13,0,0,1,50,504Z"/><path class="cls-2" d="M117,479.41c-2,2.22-2,2.26-1.9,2.56a.9.9,0,0,0,.37.47.55.55,0,0,0,.45.07,7.37,7.37,0,0,0,1.22-2l.24-.61a.92.92,0,0,0-.12-.33C117.14,479.32,117.08,479.29,117,479.41Z"/><path class="cls-2" d="M104.37,492.9a13.09,13.09,0,0,0-1.51.9c-.64.48-.79.7-.63,1s1.17-.08,2.15-.56h0l1.17-.58c.3-.15.22-.79-.12-1S105,492.58,104.37,492.9Z"/><path class="cls-2" d="M102.78,481.64l-.49-.19.17.31a3.11,3.11,0,0,0,1.27.93.32.32,0,0,1,.22.15,1.94,1.94,0,0,0,.65.41c.3.14.71.33.91.44h0l.37.19,0-.33c.08-.59-.72-1.19-2.09-1.57C103.52,481.9,103.05,481.74,102.78,481.64Z"/><path class="cls-2" d="M113.56,497.34c-.2-.19-.4-.32-.44-.29a2,2,0,0,0-.23.66,4,4,0,0,0,.19,2.42.35.35,0,0,0,.37.06c.2-.12.39-.55.3-.69a1.38,1.38,0,0,1,.08-.59C114,498.12,114,497.73,113.56,497.34Z"/><path class="cls-2" d="M123.31,491.17a1.35,1.35,0,0,0,.6-.05c.49-.19.78-.44.71-.63a4.3,4.3,0,0,0-1.79-.34A13.45,13.45,0,0,0,121,490a.49.49,0,0,0-.11.24c0,.34.75.79,1.46.82C122.72,491.11,123.14,491.14,123.31,491.17Z"/></g></g></svg>