<svg xmlns="http://www.w3.org/2000/svg" viewBox="0 0 1862.6 556.9"><defs><style>.cls-1{fill:#0ed2b1;opacity:0.8;}.cls-2{fill:#8e8e8e;}.cls-3{fill:#163847;}.cls-4{fill:#cdd4d7;}.cls-5{fill:#f3ba19;}.cls-6{fill:#52b7ca;}.cls-7{fill:#fefefe;}.cls-8{fill:#e76462;}.cls-9{fill:#fdfefe;}.cls-10{fill:#fcfdfd;}.cls-11{fill:#213f4d;}.cls-12{fill:#fdfdfd;}</style></defs><g id="Capa_2" data-name="Capa 2"><g id="Capa_1-2" data-name="Capa 1"><path class="cls-1" d="M1307.53,67.65c3.93,14.76,8.55,22,18.85,29.67a98.38,98.38,0,0,0,14.51,7.51c16.44,6.2,38.06,5.72,49.16-1.09,10-6.15,17.88-13.45,21.91-20.39,2.8-4.8,3.59-8.31,3.75-16.63.24-12.4-.87-21.19-3.58-28.14-1.11-2.86-2-5.38-2-5.6a51.35,51.35,0,0,0-2.75-5.29c-4.08-7.23-8.57-11.68-15.3-15.14a67.1,67.1,0,0,1-7.81-4.63c-5.46-4.17-15.6-7.26-25.65-7.84-7.43-.43-12.52.79-23,5.5-6.93,3.13-9.61,5.14-14.29,10.77-2,2.47-4.13,4.89-4.63,5.39-.93.93-1.06,1.39-.92,3.21a10.47,10.47,0,0,1-1.46,3.84c-2.64,4.71-5.75,13.59-7.28,20.78h0A43.56,43.56,0,0,0,1307.53,67.65Zm101.28-.38c-.27,1-.35,1-2,.27a4.61,4.61,0,0,1-1.7-1.05c0-.55,3.11-4.06,3.55-4.06S1409.26,65.6,1408.81,67.27Zm-3-30.55c.1,0,.32.34.48.75s.07.76-.2.76-.48-.34-.48-.76S1405.69,36.72,1405.8,36.72Zm-.72,18.92c2.13-2.09,2.19-2.06,2.76,1.36.27,1.66.2,1.85-.59,1.56a6.6,6.6,0,0,1-1.52-.8,2.11,2.11,0,0,0-1.63-.22h0a2.87,2.87,0,0,1-1,.16C1403.09,57.64,1404,56.72,1405.08,55.64Zm-56.71,45.11a10.16,10.16,0,0,1-2.29-.6c-.92-.33-1.67-.81-1.67-1.06s.4-.29.88-.09a15,15,0,0,0,2,.62C1348.55,99.89,1349.36,100.75,1348.37,100.75Zm3.5-14.3c2.16-2.15,3-2.72,3.22-2.18.29.76-.77,1.9-4.28,4.58C1348,91,1348.54,89.76,1351.87,86.45Zm20.42,16.19c-.2.21-4.13.35-8.73.33-5.73,0-9.15-.28-10.86-.78-3.57-1.06-1.69-1.57,2.6-.71,1.87.38,5,.82,7,1,3.25.28,3.82.18,6.43-1.15l2.86-1.45.55,1.21C1372.42,101.73,1372.5,102.44,1372.29,102.64Zm16.17-85.95c.27-.43.8-.24,1.86.66,1.45,1.23,1.46,1.26.23.93C1388.6,17.75,1388.06,17.34,1388.46,16.69Zm-1.31,62.71c.91,1.65.82,2.25-.41,2.72a22.24,22.24,0,0,0-3.37,1.91c-1.15.78-2.38,1.59-2.72,1.79h0c-1.17.69-.63,0,2.82-3.41C1385.37,80.52,1387,79.16,1387.15,79.4ZM1381.32,24q3.3-2.86,4.61-2.86c1.65,0,1.37.26-3.78,3.47A40.3,40.3,0,0,1,1378,27C1378,26.9,1379.5,25.53,1381.32,24Zm-12-11.89c1.23-1.21,2.33-2.11,2.46-2s-.78,1.22-2,2.43-2.33,2.11-2.45,2S1368.07,13.28,1369.29,12.06Zm2.63,44.61a49.52,49.52,0,0,0,3.79-3.21c1.86-1.76,4.73-3.63,5.55-3.63s-1.67,2.67-3.28,3.41c-1,.48-5.59,4.41-10.09,8.73s-9.25,8.83-10.56,10a17.75,17.75,0,0,1-2.37,2C1355,73.5,1370.41,57.76,1371.92,56.67Zm-14.35-27.91c.52-.43.82-.33,1.29.42s.48,1,0,1a2.88,2.88,0,0,1-1.29-.42C1357,29.39,1357,29.21,1357.57,28.76ZM1364.31,42c1.58-.66.78.27-4.61,5.43-8.62,8.25-12.68,12.05-14.66,13.71h0a7.28,7.28,0,0,1-1.61,1.2c0-.09,4.28-4.53,9.5-9.86C1359.17,46.12,1363.06,42.53,1364.31,42Zm-17.75,4.27c.67-.86,3.87-3.21,3.87-2.85a14.73,14.73,0,0,1-2.26,2.08C1345.83,47.44,1345.53,47.59,1346.56,46.28ZM1354.79,10c1-.36.06.79-3.36,4-2.62,2.51-5.61,5.25-6.64,6.1a11.24,11.24,0,0,1-1.86,1.37C1343,20.74,1353.7,10.38,1354.79,10Zm-27.42,73.62c-.35.56-.61.61-1,.17s-.32-.72.48-1.15C1327.93,82,1328.14,82.38,1327.37,83.61Zm9.5,12.09a4.58,4.58,0,0,1-2-1l-1.25-1,1.25.34C1336.48,94.4,1338,95.72,1336.87,95.7Zm-2.24-9.16a15.67,15.67,0,0,1,2.76-1.64c0,.75-2.31,4.76-2.73,4.74A5.26,5.26,0,0,1,1333,89C1331.9,88.38,1332,88.32,1334.63,86.54Zm-13.07-56.75c.67-.77,2.56-3,4.2-4.92a61.66,61.66,0,0,1,4.42-4.79c1.59-1.38,1.79-1.62-3.51,4.28a8.64,8.64,0,0,0-1.81,2.57,11.73,11.73,0,0,1-2.26,2.95C1320.27,32.36,1319.38,32.28,1321.56,29.79Zm3.54,16.51c-1,.94-1.75,1.55-1.75,1.36,0-.6,2.91-3.64,3.21-3.35S1326.06,45.37,1325.1,46.3ZM1321.35,60c2.46-3.07,3.47-3.92,5.78-4.87,1.61-.65,2.71-.89,2.6-.56-.18.54-6.84,6.18-10,8.48a4.81,4.81,0,0,1-1.36.84C1318.35,63.77,1319.7,62,1321.35,60Zm-1,16.09,1.29.25-1.13,2.26-1.14,2.26-1.54-3.27h0c-1.48-3.15-2.2-6-.94-3.77A4.57,4.57,0,0,0,1320.39,76.05Zm-6.56-27.3c.41-2.46,1.27-4.47,1.91-4.47s1.59,1.17,1.59,2-.57,1.59-3.12,4.74C1313.27,52.2,1313.26,52.14,1313.83,48.75Z"/><path class="cls-2" d="M160,179.54a7.62,7.62,0,0,1,1.78,1.56c.47.79,7.91,4.19,11.75,5.37s8.52,1.91,8.93,1.39-1.1-2.88-4-7.1c-3.62-5.18-4.26-6.31-6.11-10.64a33.51,33.51,0,0,1-2.47-9.49c-.4-5.36.84-13.46,2.71-17.64a19.91,19.91,0,0,0,1.16-3.25,22.1,22.1,0,0,1,4-7.78,53.43,53.43,0,0,1,9.43-8.49c5-3.1,13.26-5.89,18.63-6.26a24.5,24.5,0,0,1,9.18,1c2.55.69,14.7,5,15.22,5.43a3.88,3.88,0,0,0,1.64,0c1.31-.17,1.4-.23,1.46-1,.18-2-2.45-6-6.33-9.86-4.53-4.45-13.19-10-18.82-12-1.5-.55-3.37-1.27-4.15-1.61-4-1.75-14.8-3.18-20.37-2.69-3.93.35-13.38,3.54-16.07,5.43a75.2,75.2,0,0,0-7.45,6.82h0a6.11,6.11,0,0,0-.87,1.07c-.08.18-1.35,1.86-2.81,3.73-4,5.17-5.39,8.39-7.59,18.11a69.63,69.63,0,0,0-2.1,14.19c0,1.33,0,3-.09,3.65-.11,1.49.37,4.63.72,4.77a14.24,14.24,0,0,1,1,3.74,52.23,52.23,0,0,0,2.09,7.15c.39.91,1.08,2.56,1.53,3.66C153.53,172.74,157.3,177.76,160,179.54Zm16.27,2.82.42.87-.69-.76h0a3.44,3.44,0,0,1-.74-1.15C175.15,180.74,175.76,181.37,176.24,182.36Z"/><path class="cls-1" d="M1220,520.38a23.62,23.62,0,0,0,1.38-7.83c0-2.09-.39-3.14-1.42-3.78-.81-.5-1.22-.37-1.29.4a15.19,15.19,0,0,1-1.11,3.73,9,9,0,0,1-3.1,3.6c-.37.23-1.29.84-2,1.36a9.54,9.54,0,0,1-2,1.11,2.54,2.54,0,0,0-.88.37,4.66,4.66,0,0,1-1.39.48c-.63.14-2.07.52-3.2.84-2.89.84-9.16,1.12-11,.5a37.66,37.66,0,0,1-7.11-3.21,55.17,55.17,0,0,1-9.88-8.86c-.78-1-1.65-2-1.92-2.3a5.75,5.75,0,0,1-.92-1.7c-.23-.65-.71-1.81-1.06-2.58a20.29,20.29,0,0,1-1.27-8.09,11.1,11.1,0,0,1,1.19-5.85,34.11,34.11,0,0,1,5.53-9.25c.56-.69,1.69-2.11,2.5-3.15,1.81-2.31,3.46-4.08,3.76-4s3.3-3.09,3.25-3.5a2.85,2.85,0,0,0-.84-1.05c-1.34-1.19-1.7-1.16-8.92.77a92.51,92.51,0,0,0-9.27,2.88c-7.67,3.06-9.74,4.36-13.89,8.73a19.38,19.38,0,0,1-2.8,2.65h0c-.19-.18-2.19,2.35-4,5-3.14,4.7-4.52,7.9-4.53,10.48a31.18,31.18,0,0,1-.33,3.27,51.23,51.23,0,0,0,.79,14.69c1.76,7.24,5.29,12.51,13.71,20.45,3.61,3.41,5.24,4.64,7.69,5.79a62.12,62.12,0,0,0,10.87,3.78c3,.57,7.8.44,14.25-.38,1-.12,2.27-.26,2.83-.31a13.82,13.82,0,0,0,4.58-1.07,25.55,25.55,0,0,0,6.8-3.24,36,36,0,0,0,7.46-5.9,23.11,23.11,0,0,0,6.32-10.47C1219,524,1219.52,522.05,1220,520.38Z"/><path class="cls-2" d="M1762.91,42.81a34.52,34.52,0,0,0,1.31,4.66c.5,1.36,1,2.73,1.09,3.05s.73,1.7,1.41,3.06a22.45,22.45,0,0,0,5.82,7.36,27.47,27.47,0,0,0,14.26,4.63c2.51.08,6.2-.22,6.73-.55a15.13,15.13,0,0,1,1.59-.52,35.51,35.51,0,0,0,7.56-3.17,17.42,17.42,0,0,1,2.78-1.35,13.28,13.28,0,0,0,2.57-2.32c1.78-1.87,2.21-2.5,2.21-3.22a2.47,2.47,0,0,0-1.51-2.5c-1-.49-.85-.49-9.23.08-3.1.21-6.88-.28-8.53-1.11-2.76-1.38-5.42-5.12-6.9-9.67a13.19,13.19,0,0,1-.31-7.6c1.11-5.31,1.74-6.75,4.41-9.95,1.52-1.83,6-4.93,7.53-5.2a32.84,32.84,0,0,0,3.24-.91,19.65,19.65,0,0,1,4.85-.88c2.46-.15,2.69-.22,2.69-.75,0-.71-1.93-2.63-4.09-4.08a8.46,8.46,0,0,1-1.9-1.61c-.33-.55-2.2-1.24-6-2.22a23.2,23.2,0,0,0-4.7-.44,10.22,10.22,0,0,0-5.48,1.05,32.46,32.46,0,0,0-3.62,1.74,6.91,6.91,0,0,1-1.27.7,29.68,29.68,0,0,0-2.61,1.64,46.49,46.49,0,0,0-5.81,5,26.27,26.27,0,0,0-5.58,7.24,49.32,49.32,0,0,0-2.48,7.49h0A35.35,35.35,0,0,0,1762.91,42.81Zm4.37-11.49a36.34,36.34,0,0,1,1.86-5c2.19-4.56,9-10.59,15.8-14,5.33-2.66,10.94-2.65,14.31,0a7,7,0,0,1,1.34,1.22c0,.05-1.32.4-2.84.79-5.26,1.34-11.42,5-13.89,8.35a29.56,29.56,0,0,0-4,8.2,10.52,10.52,0,0,0-.75,5.3c.17,3,.61,4.5,2.48,8.25,3.58,7.2,7.89,9.84,16.55,10.14a39,39,0,0,0,5.57-.13,6.35,6.35,0,0,1,1.66-.16,11.13,11.13,0,0,1-.57,1.25,5.74,5.74,0,0,1-2.54,2.29c-6.27,3.67-10.71,5-16.28,4.79-6.89-.22-9.56-1.46-12.67-5.89-.74-1-1.52-2.09-1.72-2.29a51.89,51.89,0,0,1-3.18-6.61,36,36,0,0,1-1.38-5.24h0c-.09-.64-.23-2.86-.3-4.94C1766.56,34.32,1766.62,33.67,1767.28,31.32Z"/><path class="cls-2" d="M1195.75,57.06c4,.62,4.41.58,4.57-.41.13-.83-.52-1.56-2.08-2.34-2.33-1.17-9.94-5.2-10-5.31s1.32-10.79,1.73-12.26.5-3.46.12-3.52a1.84,1.84,0,0,1-.5-.2c-.2-.12-.6.26-1.19,1.12a15.29,15.29,0,0,1-2.48,2.61,43.32,43.32,0,0,0-3.94,4c-2.21,2.57-2.38,2.72-3,2.49a3,3,0,0,1-.93-.64,29.35,29.35,0,0,0-5.62-3.41l-1.77-.84-.6.44-.6.44.38,1.09a6.15,6.15,0,0,1,.34,1.28,53.07,53.07,0,0,0,3,5.64,14.5,14.5,0,0,1,.94,1.8l.41,1L1173.05,52c-3.33,4.16-4.08,5.4-4.37,7.25s0,2,4.64.48c3.83-1.21,6.19-1.77,6.34-1.5,0,.06,1,1.56,2.1,3.34,2.69,4.25,3,4.81,3.12,5.33h0a.61.61,0,0,0,.42.49c.79.13,1-.45,1.39-4.08.22-2,.51-4.26.65-5.1l.24-1.54,2.17-.09A31.83,31.83,0,0,1,1195.75,57.06Zm-22-13.28c-.34-.56-.55-1.06-.47-1.12.24-.18,4.43,2.59,4.38,2.9a5.84,5.84,0,0,1-.83,1.29h0a8.93,8.93,0,0,1-.86,1,9.61,9.61,0,0,1-1.11-2C1174.59,45.26,1174.09,44.33,1173.75,43.78Zm3.84,12.12a14.83,14.83,0,0,1-2,.55,15.61,15.61,0,0,0-2.69.83h0c-1.65.78-1.65.6,0-1.32.68-.8,1.58-1.86,2-2.37s.82-.91.91-.89C1176.13,52.75,1177.82,55.74,1177.59,55.9Zm7.74,3.72c-.14,1.61-.32,2.57-.46,2.55a18.14,18.14,0,0,1-3-4.65,13,13,0,0,1,3.62-.58C1185.53,57,1185.46,58.2,1185.33,59.62Zm.61-7.49c-.1.77-.2,1.57-.22,1.79s-.77.52-2.7.87l-2.67.5-1.15-1.52a25,25,0,0,1-1.62-2.38l-.46-.86,1-1.16c.53-.65,1.24-1.43,1.56-1.76l.58-.58,2.94,1.85,2.94,1.84Zm1.36-10.54c-.21,1.39-.45,3.36-.52,4.38h0c-.11,1.49-.19,1.83-.46,1.78a19.15,19.15,0,0,1-2.33-1.34l-2-1.29a11,11,0,0,1,.89-1.14c.52-.62,1.23-1.52,1.59-2a13.16,13.16,0,0,1,1.95-1.89l1.32-1Zm.27,12.64,0-.73a7.07,7.07,0,0,1,0-1.26l.08-.52,1.86,1a16.1,16.1,0,0,0,2.32,1.05c.25,0,.39.13.32.18a17,17,0,0,1-2.37.2Z"/><line class="cls-2" x1="1017.68" y1="85.15" x2="1017.68" y2="85.15"/><path class="cls-2" d="M951.5,43.84c0,.1-1.57,2.48-1.86,2.86-.43.56-.36.72.37.92a2.86,2.86,0,0,0,1.49,0c.47-.09,1.88-.29,3.14-.45s2.92-.41,3.69-.57a20.42,20.42,0,0,1,2.42-.35,9,9,0,0,0,1.24-.13c.28-.08.36.06.41.75a17.15,17.15,0,0,0,.33,1.88c.17.78.34,1.58.38,1.79a29.29,29.29,0,0,1,.4,2.94,4.92,4.92,0,0,0,.6,2.37,1.07,1.07,0,0,0,1.13,0c.22-.27,3.22-5.55,3.65-6.44.22-.44.57-1.24.79-1.78a6.08,6.08,0,0,1,.5-1,24.33,24.33,0,0,1,2.74.41,35.71,35.71,0,0,0,4.78.68l2,.17a10.07,10.07,0,0,0,1.63,0c.57-.05,1.19-.39,1.25-.68a2.56,2.56,0,0,0-.66-.81c-.38-.38-1.09-1.12-1.57-1.66s-1.17-1.23-1.52-1.55a17.07,17.07,0,0,1-2.73-3.26c-.71-1.16-.76-1.35-.41-1.79a13.87,13.87,0,0,0,.86-1.33c.32-.55.93-1.49,1.35-2.08s1-1.38,1.2-1.75.89-1.25,1.45-1.95c1-1.25,1-1.29.95-1.74a1.23,1.23,0,0,0-.31-.68c-.23-.2-.3-.19-1,.09-1.09.42-1.11.43-1.82.65a25.5,25.5,0,0,0-2.42.87,2,2,0,0,1-.38.16l-1.71.61c-1.61.58-1.92.63-2,.36a.28.28,0,0,0-.17-.22c-.08,0-.2-.29-.27-.61a33.13,33.13,0,0,0-1-3.94c-.31-1-.64-1.92-.74-2.14a8.12,8.12,0,0,1-.68-2.18c.07-.33-.69-.7-1-.48a2.64,2.64,0,0,0-.39.79,10.65,10.65,0,0,1-.53,1.22c-.73,1.38-2.23,4.33-2.52,5-.37.82-1,1.79-1.19,1.75a1.37,1.37,0,0,1-.41-.32,11.47,11.47,0,0,0-1-.89,29.83,29.83,0,0,1-2.74-2.38,11.49,11.49,0,0,0-.89-.84c-.16-.14-.59-.51-.94-.83s-1-.82-1.42-1.13c-.63-.47-.85-.57-1.25-.59a1,1,0,0,0-.64.14.89.89,0,0,0-.17.24c0,.07.79,3,1.05,3.77a14.4,14.4,0,0,1,.61,2.5,11,11,0,0,0,.84,2.58,10.49,10.49,0,0,1,.47,1.34.24.24,0,0,0,.14.2.3.3,0,0,1,.12.27,3.34,3.34,0,0,0,.27,1,6.35,6.35,0,0,1,.33,1c0,.37-2.13,3-3.45,4.14a15.4,15.4,0,0,0-1.2,1.17C952.54,42.46,951.52,43.78,951.5,43.84Zm3.41-.35a10.13,10.13,0,0,0,1.45-1.61.17.17,0,0,1,.13-.14,19.19,19.19,0,0,0,3.15-3.89.57.57,0,0,1,.26-.38c.19-.09.18-.2-.07-1.08a20.88,20.88,0,0,0-1-2.84,11,11,0,0,1-.7-2.49,5.2,5.2,0,0,0-.35-1.13,14,14,0,0,1-.87-2.74,4.61,4.61,0,0,1,.63.52c.31.28,1,.83,1.47,1.22a42,42,0,0,0,4.2,3.14,6.67,6.67,0,0,1,1.15.67c1.19.79,1.31.84,1.66.64s.39-.53.08-.74-.38-1.17-.15-2l.4-1.53a7.09,7.09,0,0,1,.31-1c0-.09.24-.58.42-1.09a8.11,8.11,0,0,1,1.16-2.27c.05,0,.18.29.27.73a2.3,2.3,0,0,0,.26.83.09.09,0,0,1,.07.11,5.68,5.68,0,0,0,.25,1,24.15,24.15,0,0,1,.84,3.79c.21,1.57.2,1.68-.19,2s-.45.49-.22.8.25.22,1.8-.26c.88-.28,1.65-.5,1.69-.49a12.44,12.44,0,0,0,1.23-.35c.64-.21,1.47-.46,1.85-.56s1-.3,1.38-.45a3.25,3.25,0,0,1,.72-.23,8.52,8.52,0,0,1-1.42,1.74,39.14,39.14,0,0,0-4,5.4,3,3,0,0,0,.83,1.13,13.48,13.48,0,0,1,2.25,2.21,9.62,9.62,0,0,0,1.26,1.33,13.71,13.71,0,0,1,2.19,2.2,1.68,1.68,0,0,1-.78,0,21.48,21.48,0,0,0-2.27-.22,26.79,26.79,0,0,1-4.42-.49c-1.4-.23-1.92-.28-2.08-.18a.65.65,0,0,1-.39.09.72.72,0,0,0-.46.2,56.42,56.42,0,0,0-3.08,5.27c-.75,1.59-.69,1.59-.91,0a9.6,9.6,0,0,0-.58-2.52c-.11-.28-.35-1-.53-1.63s-.39-1.38-.49-1.69a2.62,2.62,0,0,1-.14-.73c0-.12,0-.11-.24,0a.7.7,0,0,1-.61.14,5.42,5.42,0,0,0-2.29.34,9,9,0,0,1-1.47.37,5.13,5.13,0,0,0-1.52.52,4.37,4.37,0,0,1-1.49.5l-1.08.19-.73.15c-.27.05-.59.12-.71.16a.88.88,0,0,1-.33,0c-.06,0-.1-.07-.09-.11S954.13,44.27,954.91,43.49Z"/><path class="cls-2" d="M543.8,82.22c.71,0,1.69-.11,2.16-.19l2.33-.36c.79-.12,1.94-.31,2.54-.42a36,36,0,0,1,5.22-.37c1.12,0,1.55-.16,1.59-.59s-.24-.78-.81-1c-1.35-.5-5.14-2.2-7.05-3.16a16.63,16.63,0,0,0-2-.84c-.51-.15-2-.69-3.33-1.18l-2.4-.89-.28-.88a39.7,39.7,0,0,1-1.13-4.09A23.24,23.24,0,0,0,540,66a61.16,61.16,0,0,1-2.21-8.12c-.06-.45-.18-.82-.26-.83l-.39-.09c-.31-.09-.95.51-1.19,1.11a8.76,8.76,0,0,0-.36,1.33c-.2,1-.45,1.84-1.31,4.61-.61,1.93-1.79,5.92-2.15,7.25-.21.79,0,.7-3.31,1.24-.92.15-2.1.36-2.62.47a23.08,23.08,0,0,1-2.83.49c-.48,0-1.33.17-1.89.27l-2.9.47a21.58,21.58,0,0,0-2.49.48,3.33,3.33,0,0,1-1.21.15c-.9-.07-1.18.46-.65,1.2.24.32.45.42,1.09.52a9.91,9.91,0,0,1,2.22.83,22.46,22.46,0,0,0,4.77,1.72c.62.15,2.16.61,3.44,1s2.46.76,2.64.78a2.1,2.1,0,0,1,1.16,1.39,17.15,17.15,0,0,0,.71,3.56c.24.89.64,2.47.89,3.52s.61,2.39.8,3a19.73,19.73,0,0,1,.51,2.05,26.82,26.82,0,0,0,.89,3.7h0c.44,1.28,1,.72,1.88-1.8.52-1.53,2-5.29,3.56-9.3a31.26,31.26,0,0,0,1.09-3.13,7.93,7.93,0,0,1,.37-1.25C540.37,82.42,541.27,82.32,543.8,82.22Zm-.17-1.71a1.34,1.34,0,0,1,.49,0c.14,0,0,.07-.25,0S543.49,80.54,543.63,80.51Zm-2.49-5.94c.14-.21.25-.26.39-.15s.15.18-.09.41C540.94,75.29,540.76,75.13,541.14,74.57Zm-16.55,1.1c-.16,0-.19,0-.07-.09a.27.27,0,0,1,.27,0S524.74,75.69,524.59,75.67Zm6.56,6.15c0-.37.28-.82.52-.8s.23.59,0,1C531.3,82.58,531.18,82.53,531.15,81.82Zm.4,3.12-.06-.43.35.41c.33.38.33.43.11.7S531.68,86,531.55,84.94Zm.54,2.49c-.05,0-.12-.05-.16-.19s0-.23.08-.08S532.14,87.39,532.09,87.43Zm.64,2.44c-.05.11-.13,0-.22-.17-.18-.41-.09-.56.14-.23A.47.47,0,0,1,532.73,89.87Zm1.1,3.88-.09.54-.07-.55c-.07-.51,0-.82.19-.62A1.39,1.39,0,0,1,533.83,93.75Zm.31-22.52a1.55,1.55,0,0,1-.4.25c-.27.11-.29.1-.2-.1a1.54,1.54,0,0,0,.14-.53c0-.29,0-.29.29,0S534.19,71.16,534.14,71.23Zm.47,12.15c-.41-.75-.41-.75-.1-.55a.91.91,0,0,1,.35.4C535,83.61,534.8,83.72,534.61,83.38Zm.65-4.21a2.35,2.35,0,0,1-.11.71,2.82,2.82,0,0,1-.37-.42l-.34-.42.44-.3.44-.3Zm.53,12a2.54,2.54,0,0,1-.17.52c-.13.31-.14.29-.11-.19,0-.29.09-.52.17-.52A.15.15,0,0,1,535.79,91.14Zm.54-28.66c0-.41,0-.68.09-.67s.15.35.17.76C536.63,63.75,536.4,63.68,536.33,62.48Zm.55,17c-.14,0-.22,0-.21-.14s.25-.27.36-.06S537,79.48,536.88,79.51Zm.7-9.08a2.88,2.88,0,0,1,.13-.78,1.74,1.74,0,0,1,.26.51c.18.49.17.52-.13.78l-.32.27Zm.52,15.11a6.42,6.42,0,0,0-.29.69c-.22.61-.44.76-.49.32s.44-1.14.67-1.12S538.14,85.49,538.1,85.54Zm1.28-10a.83.83,0,0,1-.33.19s0-.1.1-.21a.5.5,0,0,1,.33-.18C539.55,75.39,539.51,75.49,539.38,75.59Z"/><path class="cls-2" d="M1489.28,526.15c1-.08,2.44-.23,3.21-.32a16.11,16.11,0,0,1,1.77-.15,2,2,0,0,0,1.42-1.24c0-.72-.17-1-.91-1.42a23.42,23.42,0,0,0-2.81-1.21,28.17,28.17,0,0,1-5.18-2.21c-.59-.31-1.44-.73-1.9-.92l-1.49-.65-.66-.29.07-1.07c0-.59.14-1.95.23-3,.33-3.91.64-12.72.45-12.93s-.19-.15-.2,0a.21.21,0,0,1-.22.19c-.12,0-.42.26-.67.59s-.85,1.07-1.33,1.62-1.13,1.4-1.44,1.86a25.81,25.81,0,0,1-1.64,2.08c-1.37,1.57-3.72,4.32-4.56,5.35l-.66.81-.77-.55c-.42-.31-1.22-.82-1.78-1.14s-1.72-1.1-2.57-1.73-2.07-1.46-2.7-1.86-1.69-1.13-2.35-1.63a26.38,26.38,0,0,0-3-1.85c-1-.51-1.93-1-2.15-1.16a13.32,13.32,0,0,1-1.34-.92,3.85,3.85,0,0,0-1.33-.71,1.63,1.63,0,0,0-1.26,1c-.25.61,3.17,7.7,5.11,10.58a26,26,0,0,1,1.46,2.5,24.6,24.6,0,0,0,3.28,5.52,9.85,9.85,0,0,1,1.27,1.78,3.11,3.11,0,0,1-.6.93c-.32.39-1.15,1.48-1.86,2.43s-1.66,2.14-2.12,2.68-1,1.15-1.14,1.37a8.17,8.17,0,0,1-.83.91,46,46,0,0,0-3.45,4c-.6.86-1,1.81-.73,2a2.71,2.71,0,0,0,1-.09c1-.23,5.42-1.48,6.35-1.81a17.63,17.63,0,0,1,2.07-.5,36.33,36.33,0,0,0,7.45-2.06c1.13-.42,1.41-.47,1.54-.28s.65.94,1.24,1.78c1,1.4,2.64,4.19,4.2,7,.33.61,1,1.79,1.46,2.63h0a7.68,7.68,0,0,0,1,1.55,1.23,1.23,0,0,0,1-.83,109.91,109.91,0,0,0,.55-12.5c0-.8-.1-1.91-.12-2.47l0-1,1.37-.72A16.06,16.06,0,0,1,1489.28,526.15Zm-8.91,2.38a3.78,3.78,0,0,1-.25.88c-.12.2-.11,1.27.06,4.2,0,.83,0,2.47,0,3.62a16.56,16.56,0,0,0,0,2.7h0a4.65,4.65,0,0,1,0,1.3c-.09.61-.12.66-.25.35s-.59-1.18-1.14-2.17c-3.16-5.68-5.29-8.81-6-8.85a23.37,23.37,0,0,0-4.37,1.26,12.75,12.75,0,0,1-2.07.57,27.71,27.71,0,0,0-4.61,1.1c-.48.18-1.26.45-1.74.59-.82.25-2,.64-3.08,1l-.48.16.33-.51c.19-.27.94-1.17,1.67-2,2.09-2.31,3.86-4.43,5-6,.59-.81,1.36-1.8,1.7-2.2a9.32,9.32,0,0,0,1.08-1.62l.46-.9-.37-.63a16.62,16.62,0,0,0-1.28-1.7,16.89,16.89,0,0,1-2.65-4.27,21.49,21.49,0,0,0-1.22-2.32c-1.44-2.33-4.1-6.93-4.1-7.06s0-.2,1.45.5a17.77,17.77,0,0,1,2.59,1.65c.72.56,1.67,1.25,2.12,1.53.89.57,3,2.09,4.08,2.89.36.27,1.17.8,1.81,1.17s1.53.93,2,1.24a2.18,2.18,0,0,0,1.15.47,8.26,8.26,0,0,0,2.08-2c.69-.87,3.23-3.88,4.11-4.87.52-.58,1-1.18,2.68-3.47.22-.29.45-.46.52-.38s-.29,10.44-.56,12.22c-.32,2.17-.36,2.11,1.85,3a37.53,37.53,0,0,1,3.88,1.91,19,19,0,0,0,2.52,1.27c.66.18.7.45.06.42a9.74,9.74,0,0,0-2.88.59l-1.4.52a24.16,24.16,0,0,0-2.5,1.28C1480.83,527,1480.6,527.25,1480.37,528.53Z"/><path class="cls-2" d="M931.05,538.81a1.94,1.94,0,0,1-.85-.53c-.35-.46-3.6-1.65-6.23-2.28l-2.1-.51,2-1.83a9.83,9.83,0,0,0,1.9-2A.92.92,0,0,1,926,531c.42-.71-.17-1.34-.83-.9a1,1,0,0,1-.76.17c-.17-.08-.31,0-.32.13s-.2.26-.44.25a7.46,7.46,0,0,0-3.6,1.75l-1.12.94-.56-.94c-.31-.52-.79-1.44-1.06-2a26.85,26.85,0,0,0-1.48-2.67,10.36,10.36,0,0,1-1-1.76,2.22,2.22,0,0,0-.56-.77,4.25,4.25,0,0,1-.81-1.29c-.3-.82-.35-.84-.86-.37s-.68,2-.25,3.37c.21.68.55,1.84.74,2.58a18.17,18.17,0,0,0,1,2.65c.83,1.69.81,1.83-.29,1.6a13.6,13.6,0,0,0-3.15.1,25.81,25.81,0,0,1-2.87.25,2.17,2.17,0,0,0-1.24.55,2.19,2.19,0,0,1-.87.57c-.12,0-.24.12-.26.29s-.08.49-.13.72,0,.43.33.44a.65.65,0,0,1,.56.39c.08.24.45.38,1,.41a28.24,28.24,0,0,1,5.73,1.81,5.83,5.83,0,0,1-.72,1.83c-.78,1.55-1.59,4.81-1.32,5.3s1.12.13,2.12-1c.6-.67,1.81-1.89,2.68-2.73l1.59-1.51.44.62a20,20,0,0,1,1.14,2,25.51,25.51,0,0,0,2.33,4.21c1.35,1.64,2.09-1.83,1.25-5.82a5.46,5.46,0,0,1-.19-1.34,17.83,17.83,0,0,1,2.33.26,18.77,18.77,0,0,0,5.83.21c.4-.16.56-.55.5-1.27a.46.46,0,0,1,.35-.43C931.81,539.35,931.72,539,931.05,538.81Z"/><path class="cls-2" d="M189.74,550.36c.13,1.3.8,1.19,2.17-.36,1.82-2.07,1.86-2.08,3.37-.25l2.89,3.45a10.4,10.4,0,0,0,1.87,1.9c.83.12,1.11-.27,1.22-1.69.16-2,0-2.74-1.43-5.35a6.74,6.74,0,0,1-1-2.25,2.88,2.88,0,0,0,1.06-.72,3.08,3.08,0,0,0,.52-3.76c-.43-.79-.59-.85-2.46-.92l-2-.08-1.06-3.79c-.79-2.82-1.19-3.84-1.57-4s-.55,0-.76,1.07c-.14.69-.33,2.26-.43,3.5-.2,2.54-.3,2.62-1.71,1.36-1.18-1.06-2.4-1.55-2.84-1.14a7.44,7.44,0,0,0-.57,3.71,1.43,1.43,0,0,0,.85.9c1.09.46,3,2.6,2.81,3.13A22.21,22.21,0,0,0,189.74,550.36Z"/><path class="cls-2" d="M802.54,28c.22-.44.08-.72-.46-.93s-4.27.72-6,1.49c-.41.18-.42.22-.21.45s.16.3.08.36h0c-.07.05.08.09.35.08l.73,0c.13,0,.92-.16,1.76-.36s2-.43,2.5-.5C802.17,28.49,802.36,28.4,802.54,28Z"/><path class="cls-2" d="M809.31,31.19c.32-.4.32-.45.1-.76a.74.74,0,0,0-.63-.31c-.62,0-5.35,3.58-5.46,4.11a2.14,2.14,0,0,1-.6.68A10.3,10.3,0,0,0,801.6,36h0l-.58.64.36.07c.4.08,2-.94,3.94-2.47.62-.49,1.69-1.28,2.38-1.75A10.29,10.29,0,0,0,809.31,31.19Z"/><path class="cls-2" d="M807.66,40.17h0c.22.34.74.15,1-.36a5.7,5.7,0,0,0,.08-3.36c-.75-1.07-1.35.07-1.09,2.07a4.21,4.21,0,0,1,0,1.12A1,1,0,0,0,807.66,40.17Z"/><path class="cls-2" d="M793.21,21.35a64.45,64.45,0,0,0,6.22,1.86,45.52,45.52,0,0,1,4.81,1.57c.49.18,1.47.5,2.18.69A59.46,59.46,0,0,1,813.25,28c.35.22.38.82.19,3.88a69.84,69.84,0,0,1-.79,7.39c-.53,3.24-.7,5.48-.42,5.54.08,0,.11.16.07.33h0a.28.28,0,0,0,.25.37c.45.1,1.1-.67,1.28-1.5a15.52,15.52,0,0,1,.75-2.09,15.44,15.44,0,0,0,.85-2.54c.21-1,1.12-3.69,2.49-7.37.2-.53.5-1.41.66-1.95.48-1.59.66-2,.88-1.84a48.89,48.89,0,0,0,5.75.81l4.17.45a43.46,43.46,0,0,0,4.44.3c.93,0,2.57,0,3.64,0,1.95,0,2,0,2-.37a1,1,0,0,0-.1-.67,9.34,9.34,0,0,0-2-.84c-2-.65-5.61-1.86-9.06-3.08a36.27,36.27,0,0,1-3.68-1.5c-.77-.38-1.72-.83-2.1-1a12.77,12.77,0,0,1-2.75-1.24,2.18,2.18,0,0,1-.2-.86,11.34,11.34,0,0,0-.16-1.2c-.06-.28-.22-1-.36-1.61a29.65,29.65,0,0,1-.56-4.5,10.88,10.88,0,0,0-.26-1.77,42.83,42.83,0,0,1-.7-5.88,2.65,2.65,0,0,0-.12-1c-.22-.79-.72-1.09-1.32-.78l-.39.2-.08,1.73a23.08,23.08,0,0,1-.35,3,45.78,45.78,0,0,0-.48,7,27.71,27.71,0,0,1-.44,5c-.14.23-1.44.23-5.5,0-2.38-.12-3.77-.13-6.58-.07-.62,0-1.52,0-2,0s-1.27-.05-1.75-.06a32.05,32.05,0,0,1-4.82-.39c-.31-.2-.79.35-.8.9A.78.78,0,0,0,793.21,21.35Z"/><path class="cls-2" d="M798.26,40.08a8.15,8.15,0,0,0,2-1.32c.28-.27.29-.33.11-.64s-.71-.41-1.4.17c-.86.71-1.15,1.15-1,1.49h0C798.06,39.93,798.19,40.07,798.26,40.08Z"/><path class="cls-2" d="M819,37.49c-.49.41-.49.87,0,2.67.4,1.39.49,1.56.87,1.62s.43,0,.49-.39a10,10,0,0,0-.73-3.92C819.38,37.23,819.31,37.23,819,37.49Z"/><path class="cls-2" d="M824.53,36.45c-.44-1.22-2.74-3.69-3.34-3.59-.38.06-.43.74-.11,1.35a5.78,5.78,0,0,0,1.06,1.21,6.9,6.9,0,0,1,1.05,1.18,1.42,1.42,0,0,0,.76.66h0C824.61,37.47,824.8,37.2,824.53,36.45Z"/><path class="cls-2" d="M831,36.54c.18,0,.3-.06.34-.28s-.23-.53-1.92-1.66c-2.13-1.44-2.31-1.48-2.47-.58-.1.6,0,.7,1.69,1.72a4.8,4.8,0,0,0,1.69.76A4.38,4.38,0,0,1,831,36.54Z"/><path class="cls-2" d="M825.77,39.85c-.1.46.17.94,1.58,2.82.58.78,1.21,1,1.4.43.09-.23-.11-.7-.68-1.62C826.8,39.41,826,38.83,825.77,39.85Z"/><path class="cls-2" d="M79.59,347.69c-.91-.19-1.34.1-1.24.84s.45.86,3.15,1.8c1.06.37,3,1.2,4.41,1.85,2.25,1.07,3.33,1.49,3.88,1.5a2.83,2.83,0,0,1,.5.08c.17.05.57.13.9.19h0c1.29.25,1.4,0,.31-.71C87.55,350.71,82.26,348.25,79.59,347.69Z"/><path class="cls-2" d="M56,346.89a43.73,43.73,0,0,0,6.35.3c.09,0,.19.11.21.26A118.4,118.4,0,0,1,58.37,359c-.73,1.75-1.4,3.49-1.48,3.88a2.41,2.41,0,0,0,.24,2.06c.37.28.42.25,1.26-.59a14.15,14.15,0,0,1,1.14-1,6.67,6.67,0,0,0,1.06-1.67,29.15,29.15,0,0,1,6.91-9,9.37,9.37,0,0,0,1.17-1.17c.41-.64.37-.67,3.62,2.26a20.77,20.77,0,0,0,1.92,1.49c.52.34,1.2.81,1.51,1a45.34,45.34,0,0,0,6.91,3.85,1.36,1.36,0,0,0,1.62-.55c.25-.57-.26-1.35-1.64-2.48A28.66,28.66,0,0,1,80,354.42a62.36,62.36,0,0,1-5.42-7.37l-.2-.5,2-.27a89.69,89.69,0,0,0,10.26-2.06c1-.31,2.33-.69,2.91-.84,1.08-.27,2-.89,1.94-1.31s-.78-.71-2.11-.58a59,59,0,0,1-8.72.06c-.64-.06-1.65-.1-2.24-.09a27.14,27.14,0,0,1-4.68-.53,4.72,4.72,0,0,1,.57-1.49c.38-.77.91-1.95,1.17-2.63,1-2.6,3-7.16,3.32-7.8s.42-1.1.1-2.31c-.24-.88-.31-.94-.84-.72s-5.9,7.23-7.2,9.32c-.44.7-1.07,1.61-1.41,2l-.62.76-.87-.75c-.47-.42-1.59-1.58-2.48-2.58a70.89,70.89,0,0,0-7-7.15c-1.06-.83-1.11-.85-1.42-.49a2.89,2.89,0,0,0-.63,2.1,15.72,15.72,0,0,0,2.12,4.8,15.36,15.36,0,0,1,1.11,2,23.82,23.82,0,0,0,1.46,2.28c1.15,1.68,1.37,2.1,1.15,2.22s-2.51.45-5.25.82a34.56,34.56,0,0,0-6.37,1.16,26.13,26.13,0,0,1-3.8.86c-2.74.42-3,.57-2.84,1.67.09.64.18.75.75.92a8.42,8.42,0,0,0,2.92.42A79.4,79.4,0,0,1,56,346.89Zm14.3,0a4,4,0,0,1,.69.68c.67.77.68,1,0,.24S70.15,346.92,70.25,346.91Z"/><path class="cls-2" d="M68.54,354.73c-.19.46-.16.73.19,1.81.23.7.79,2.46,1.24,3.92a13.9,13.9,0,0,0,1.11,2.89c.24.21.3.2.47-.1a2.74,2.74,0,0,0,.23-1,45.75,45.75,0,0,0-2-7.53C69.43,353.93,68.85,353.93,68.54,354.73Z"/><path class="cls-2" d="M56.49,350.3c-.79.1-4.35,2.63-6.19,4.39-1.64,1.57-2.83,3.34-2.5,3.74s.8.07,2.17-1.28c.47-.47,2.05-1.75,3.49-2.85s2.81-2.16,3-2.36C57.2,351.26,57.21,350.2,56.49,350.3Z"/><path class="cls-2" d="M57.17,338.12c.32-.5-.27-1.3-1.33-1.81-2.23-1.07-5.66-2.55-7.75-3.34-1.69-.64-2.25-.78-2.35-.57a1.09,1.09,0,0,0-.11.37,6.77,6.77,0,0,0,1.93,1.28c.11,0,.17.05.13.13s.28.35.7.59c1.26.73,6.5,3.18,7.36,3.44h0C56.73,338.51,56.94,338.5,57.17,338.12Z"/><path class="cls-2" d="M66.88,321.05q-.51,1.08-.1,5.49c.13,1.47.3,3.67.36,4.88a5.78,5.78,0,0,0,.36,2.42c.16.15.33.15.55,0,.57-.41.54-4.32-.07-9.2C67.49,320.66,67.32,320.12,66.88,321.05Z"/><path class="cls-2" d="M89.36,332.67c-.29,0-.54.06-.56.16s-.37.27-.78.38a9.72,9.72,0,0,0-1,.35,9.72,9.72,0,0,1-2.34.67c-2.44.55-4.72,1.43-5.37,2.07s-1,1.4-.73,1.83h0c.21.37.73.28,1.79-.31a18.52,18.52,0,0,1,2.53-1,15.7,15.7,0,0,0,3.68-1.54,6.09,6.09,0,0,1,1.07-.55,3.84,3.84,0,0,0,1.23-.84,2.12,2.12,0,0,1,.7-.59.6.6,0,0,0,.44-.83c-.08-.21-.24-.28-.41-.19s-.21.17,0,.29S89.73,332.68,89.36,332.67Z"/><path class="cls-2" d="M1862.26,479a12.56,12.56,0,0,0-4.12-.06c-1.34.22-5.08.61-6.17.65-.41,0-1.58.1-2.6.19a23.4,23.4,0,0,1-5.33-.15c-1.92-.18-3.58-.3-3.7-.28s-.6-1.13-1.11-3.14c-.19-.75-1.54-5.4-1.76-6.06-.1-.3-.34-1.07-.53-1.71l-.56-1.8a12.36,12.36,0,0,1-.35-1.54c-.53-3.12-.66-3.75-.93-4.35s-.37-.68-.73-.72c-.69-.07-1.2.42-1.86,1.84l-1.67,3.51c-.59,1.22-1.27,2.75-1.53,3.38-.48,1.21-.74,1.8-2.3,5.26-.52,1.14-1.18,2.64-1.46,3.32l-.52,1.24-1.19-.53a77.52,77.52,0,0,0-11.56-4.24c-1.24-.37-2.45-.76-2.69-.87a14.71,14.71,0,0,0-3.41-.9,1.47,1.47,0,0,0-1,1.06c-.11.33,0,.6,1,2,.63.88,1.56,2.23,2,3s1.62,2.38,2.5,3.58c1.77,2.44,2.93,4.27,2.9,4.58a.48.48,0,0,0,.23.39,6.84,6.84,0,0,1,1,1.35c.42.65,1,1.44,1.2,1.75a3.53,3.53,0,0,1,.42.65c-.06.62-14.57,12.51-17,13.93-1.43.84-1.68,1.21-1.36,2.12.25.71.44.79,1.57.66a24.61,24.61,0,0,1,4.32,0c.78,0,1.93.06,2.56,0s1.88,0,2.78.08,2.72.16,4,.21,3.58.18,5,.29l2.61.2.39,1.73c.68,3,1.08,5.08,1.29,6.73.11.88.38,2.47.59,3.53s.47,2.47.58,3.15c.62,3.73.85,4.61,1.3,4.94s.46.31,1,.13,1.3-1.07,1.88-2.47a11.47,11.47,0,0,1,.78-1.47,22.72,22.72,0,0,0,1.09-2.07c.6-1.28,2.34-4.59,3.28-6.21a34.28,34.28,0,0,0,2.35-5.18c.94-2.53,1.15-3,1.39-2.94a24.83,24.83,0,0,1,2.37,1.51L1842,511c.24.14,1.09.71,1.9,1.26s2.38,1.5,3.48,2.11,2.44,1.39,3,1.73a18.23,18.23,0,0,0,1.89,1l.9.42.46-.27c.77-.45.9-.84.59-1.7a30.47,30.47,0,0,0-2-4c-.29-.49-.74-1.35-1-1.91s-.7-1.36-1-1.76a13.16,13.16,0,0,1-.87-1.68,10.9,10.9,0,0,0-.88-1.67,28.32,28.32,0,0,1-2.15-4.28l-.88-2.2-.4-1,.33-.36c.18-.2.93-.87,1.67-1.49a18.25,18.25,0,0,0,2.15-2.19,14.29,14.29,0,0,1,1.44-1.59c.35-.3,1.26-1.19,2-2,1.72-1.77,5.39-5.26,7.51-7.17.87-.78,1.75-1.61,2-1.84h0a1.92,1.92,0,0,0,.42-.89C1862.63,479.17,1862.57,479.06,1862.26,479ZM1809,475.2l0,.38-.4-.47a1.9,1.9,0,0,1-.36-.51,2.08,2.08,0,0,1,.44.09C1808.91,474.79,1809,474.9,1809,475.2Zm3.82,1.49c-.15.19-.22.22-.15.08a2,2,0,0,0,.13-.48c0-.11.09-.2.17-.19S1813.1,476.27,1812.78,476.69Zm1,6c-.12,0-.21-.09-.21-.17s.12-.09.23,0,.22.13.21.17S1814,482.68,1813.82,482.67Zm1.64-4.64a7.6,7.6,0,0,1-1.17,2c-.15,0,0-.81.29-1.93s.45-1.3.83-1.16h0C1815.71,477,1815.72,477.32,1815.46,478Zm-9.78,25.45c0,.35-.18.46-.52.43s-.2-.34.23-.55C1805.66,503.23,1805.7,503.25,1805.68,503.48Zm5.18.27c-.27,0-.27-.56,0-.9s.16-.18.14,0a3,3,0,0,0,0,.56C1811.09,503.69,1811,503.77,1810.86,503.75Zm.34-5.76a26.27,26.27,0,0,1-1.2,3.41c-.11.2-.29.59-.41.86-.19.44-.19.37,0-.53.1-.57.23-1.44.28-1.93a1.72,1.72,0,0,1,.76-1.5C1811.1,497.83,1811.24,497.76,1811.2,498Zm6.5-20.07a18.74,18.74,0,0,1-1.28,2.88,6.8,6.8,0,0,1,.38-1.29c.23-.67.47-1.37.54-1.55s.17-.32.26-.31S1817.72,477.78,1817.7,477.92Zm2.25,17.15a23.61,23.61,0,0,1-.81,3.68s.08-1.35.21-2.9.21-3.21.18-3.67a3.49,3.49,0,0,1,.11-1.29c.13-.34.15-.14.1.94a4,4,0,0,0,.15,1.74A2.62,2.62,0,0,1,1820,495.07Zm-.32-14.95c-.26.68-.53,1.43-.59,1.67a9.38,9.38,0,0,1-.84,2.07c-.12.1-.13.11.81-3a6.8,6.8,0,0,1,.84-2.2C1820.16,478.67,1820.13,478.86,1819.63,480.12Zm1.69,2.21a.42.42,0,0,1-.11-.36c0-.21,0-.22.15,0S1821.49,482.47,1821.32,482.33Zm.38-.85c0,.17-.07.2-.1.08a.26.26,0,0,1,0-.28S1821.72,481.32,1821.7,481.48Zm.38-.84c-.17.43-.65.64-.61.27,0-.09.08-.11.17,0s.13,0,.08-.23.27-1,.51-1h0C1822.38,479.66,1822.33,480,1822.08,480.64Zm.63,7c0,.18-.07.21-.1.08s0-.24,0-.28S1822.73,487.46,1822.71,487.61Zm.27-1.41c0,.29-.07.4-.09.25a1.3,1.3,0,0,1,0-.52C1823,485.79,1823,485.91,1823,486.2Zm.46,23.1c0,.16,0,.29-.08.29s-.08-.14-.11-.31,0-.3.09-.29S1823.46,509.14,1823.44,509.3Zm0-25c-.37,1.38-.38,1.38-.17.28.12-.61.27-1.44.34-1.84a5.21,5.21,0,0,1,.77-2.26h0c.15,0,.14.09-.25,1.41C1824,482.44,1823.67,483.53,1823.46,484.29Zm1.11,5.47c0,.24-.07.32-.09.17a.86.86,0,0,1,0-.44C1824.58,489.39,1824.6,489.51,1824.57,489.76Zm.35-2.08c-.05.5-.1.68-.1.4a3.57,3.57,0,0,1,.1-.89C1825,487,1825,487.19,1824.92,487.68Zm.95,32.95c-.17.56-.17.55-.11-.28,0-.48.14-.85.22-.84S1826.12,519.74,1825.87,520.63Zm.36-14.88c-.13.24-.15.2-.12-.21s.1-.45.18-.39S1826.45,505.37,1826.23,505.75Zm.84-26.58c0,.13-.08.22-.16.21s-.1-.11,0-.23.14-.21.17-.21S1827.09,479.05,1827.07,479.17Zm2.33,37.76c-.36,1.51-.46,1.51-.21,0a6.75,6.75,0,0,1,.39-1.54C1829.79,515.11,1829.75,515.44,1829.4,516.93Zm1.92-23.75c-.13.24-.15.21-.12-.2s.11-.48.19-.47S1831.54,492.79,1831.32,493.18Zm.31-1.61c0,.17-.06.2-.1.08a.34.34,0,0,1,0-.29C1831.63,491.32,1831.65,491.41,1831.63,491.57Zm-.11-4.62c-.08,1-.15,2-.15,2.21s-.23.57-.37.39a15.41,15.41,0,0,1,.3-2.28l.38-2.19Zm1.68,8.29-.35.17.19-.92c.11-.51.24-1.28.28-1.72.1-.9.34-1.08.3-.21,0,.3,0,1,0,1.54C1833.55,495,1833.52,495.09,1833.2,495.24Zm.51,3.54a10,10,0,0,1-.27,1.48c-.14.44-.16.38-.08-.39a7.45,7.45,0,0,1,.27-1.47C1833.8,497.86,1833.8,497.89,1833.71,498.78Zm.14-8.57c0,.45-.09.63-.11.4a3.22,3.22,0,0,1,.09-.82C1833.89,489.57,1833.9,489.76,1833.85,490.21Zm1.29-14.63c0,.16-.06.29-.09.29s-.08-.14-.11-.31,0-.3.09-.29S1835.15,475.41,1835.14,475.58Zm1.31,6.57c.06-.09.07,0,0,.28s-.07.32-.09.17A.92.92,0,0,1,1836.45,482.15Zm.39,18.12c-.34,1.32-.81,1.85-.52.59a15.34,15.34,0,0,1,.87-2.73C1837.33,498,1837.16,499.06,1836.84,500.27Zm1.75-14.87c0,.22-.13.79-.21,1.25-.23,1.32-.45,1-.3-.44.11-1,.18-1.26.36-1.24S1838.64,485.12,1838.59,485.4Zm1,17.48a1.72,1.72,0,0,1-.41.93c-.21.16.09-.83.3-1S1839.65,502.75,1839.62,502.88Zm-.11-5.9a.16.16,0,0,1-.13-.17c0-.09.08-.11.15-.05s.14.14.13.17S1839.59,497,1839.51,497Zm2.3-14.67c-.2,0-.36.13-.53.55-.26.63-.3.65-.66.32s-.2-.27.33-.91.65-.67,1-.67.48.06.47.13A.74.74,0,0,1,1841.81,482.31Zm.85,3.41A3.86,3.86,0,0,1,1843,484c.22-.25.23-.24.27.06a.91.91,0,0,1,0,.37s-.21,1.23-.41,2.69-.4,2.68-.44,2.71A26.88,26.88,0,0,1,1842.66,485.72Zm.46,11.41c-.27-.59-.3-1.09-.07-.9a.45.45,0,0,1,.11.39.7.7,0,0,0,.25.51.62.62,0,0,1,.26.4C1843.63,497.88,1843.38,497.7,1843.12,497.13Zm.52,11.93c-.09-.11-.12-.24-.07-.28s.12.05.16.2S1843.77,509.22,1843.64,509.06Zm2.45-26.07c-.08.58-.68,3.25-.92,4.12a8.63,8.63,0,0,1,.15-1.9c.24-2,.31-2.38.56-2.58S1846.17,482.43,1846.09,483Zm2.28,2.6a11.07,11.07,0,0,1-.7,2,8.16,8.16,0,0,1,.31-2.42c.14-.42.15-.43.29-.09A1.07,1.07,0,0,1,1848.37,485.59Zm-.07-2c-.16.63-.17.61-.09-.34a2.63,2.63,0,0,1,.24-1.08C1848.63,482.1,1848.58,482.56,1848.3,483.6Zm.86,6.19c-.56.43-.61.27-.15-.46.23-.39.34-.46.48-.31S1849.71,489.36,1849.16,489.79Zm1.49-3c0,.25-.07.33-.09.18a.82.82,0,0,1,0-.45C1850.66,486.41,1850.68,486.54,1850.65,486.78Zm.59-5.12c-.15-.11-.14-.15,0-.2a.34.34,0,0,1,.31,0h0C1851.84,481.79,1851.57,481.92,1851.24,481.66Zm2.22,2.89c-.07.44-.45,1.2-.58,1.19s-.1-.28-.07-.61.15-.62.38-.72S1853.5,484.33,1853.46,484.55Zm.44-3c-.46.46-.61.47-.44,0s.51-.65.74-.63S1854.29,481.12,1853.9,481.51Zm2.34,1.62-.4.24.1-.48a1.22,1.22,0,0,1,.62-.8c.29-.17.51-.26.49-.19A2.13,2.13,0,0,1,1856.24,483.13Zm3.4-2.78c-.08,0-.15,0-.14-.08a.17.17,0,0,1,.17-.15c.08,0,.14.05.14.09S1859.73,480.31,1859.64,480.35Z"/><path class="cls-2" d="M737.67,477.47c.2.82.68,1,4.24,1.86,1.4.33,4,1.12,5.86,1.77,3,1.06,4.43,1.44,5.13,1.38a3.83,3.83,0,0,1,.64,0c.22,0,.75.09,1.17.12,1.67.14,1.79-.21.31-.95-5.37-2.69-12.42-5.11-15.89-5.46C737.94,476.11,737.44,476.54,737.67,477.47Z"/><path class="cls-2" d="M727.84,492c-.19.62-.12.95.45,2.29.37.86,1.28,3,2,4.85a19.35,19.35,0,0,0,1.74,3.55c.34.24.42.22.6-.18a3.65,3.65,0,0,0,.17-1.31,56.78,56.78,0,0,0-3.37-9.36C728.88,490.87,728.15,490.94,727.84,492Z"/><path class="cls-2" d="M707.93,488.59c-.88.52-3.83,5.26-5.12,8.24-1.16,2.66-1.69,5.34-1.11,5.64s1-.3,1.92-2.58c.33-.79,1.56-3.07,2.72-5.08s2.24-3.93,2.4-4.28C709.25,489.38,708.73,488.13,707.93,488.59Z"/><path class="cls-2" d="M688.81,467.6c.12-.06.22,0,.21.1s.48.31,1.08.44c1.82.37,9.16,1.21,10.32,1.18h0c1.31,0,1.55-.13,1.69-.68.18-.73-.86-1.46-2.36-1.65-3.13-.4-7.88-.81-10.74-.92-2.31-.09-3,0-3.08.26a1.39,1.39,0,0,0,0,.49A8.48,8.48,0,0,0,688.81,467.6Z"/><path class="cls-2" d="M711.8,452.07c1.11,1.62,1.71,2.35,2,2.41s.46-.06.6-.38c.34-.82-2.29-5.07-6.2-10-3.18-4-3.72-4.49-3.58-3.19q.17,1.53,3.54,6.07C709.28,448.51,710.92,450.8,711.8,452.07Z"/><path class="cls-2" d="M735.82,448.22c-2.3,2.22-4.2,4.7-4.48,5.83s-.12,2.17.42,2.48h0c.47.27,1-.17,1.74-1.52a24.35,24.35,0,0,1,2.08-2.81,20.55,20.55,0,0,0,3-4.13,7.81,7.81,0,0,1,.8-1.31,4.94,4.94,0,0,0,.78-1.74,2.59,2.59,0,0,1,.38-1.1.79.79,0,0,0-.08-1.21c-.23-.17-.45-.15-.57.06s-.13.34.2.31.22.08-.18.31-.55.44-.51.55-.22.54-.59.94a9.1,9.1,0,0,0-.88,1.06A12.55,12.55,0,0,1,735.82,448.22Z"/><path class="cls-2" d="M1818.11,269.12c.58-.05.46-.19,1.62,1.94.32.58.75,1.32,1,1.65a17.32,17.32,0,0,1,1,1.8c.14.3.43.85.63,1.2s.65,1.19,1,1.85.77,1.36.92,1.56a2.29,2.29,0,0,1,.39.78c.16.62.59.69,1,.15.16-.23.18-.4.1-.85a7.05,7.05,0,0,1,0-1.7,16.23,16.23,0,0,0,0-3.62c0-.46-.1-1.61-.13-2.56s-.07-1.84-.1-2a1.5,1.5,0,0,1,.66-1.12,11.82,11.82,0,0,0,2.24-1.32l2.15-1.44c.65-.41,1.48-1,1.84-1.25a11.32,11.32,0,0,1,1.26-.83,18,18,0,0,0,2.28-1.48c.76-.6.24-.86-1.66-.84-1.15,0-4-.07-7.12-.19a22.41,22.41,0,0,0-2.37,0,6.37,6.37,0,0,1-.93.05c-.16,0-.44-.62-1.11-2.3-.19-.48-.48-1.11-.64-1.42s-.52-1-.8-1.48-.67-1.23-.89-1.61a26,26,0,0,1-1.49-3.44c-.26-.75-.47-1-.77-.93s-.47.35-.48.79c0,1-.26,4-.45,5.5a12.41,12.41,0,0,0-.09,1.55c0,.38,0,1.52,0,2.53l0,1.83-.52.39a28.15,28.15,0,0,1-2.49,1.74,15.32,15.32,0,0,0-1.38,1,44.18,44.18,0,0,1-5,3.42c-.29.15-.51.32-.5.38a1.84,1.84,0,0,1,0,.28c0,.23.57.52,1,.54a6.38,6.38,0,0,0,1-.07,31.1,31.1,0,0,1,3.42-.21C1814.16,269.34,1817.13,269.19,1818.11,269.12Zm14.34-6.37a1,1,0,0,1,.44-.13l.38-.07-.35.18C1832.59,262.9,1832.36,262.91,1832.45,262.75Zm-1.79-.83a1.57,1.57,0,0,1,.39,0c.24,0,.23,0-.1.12s-.38.06-.39,0A.1.1,0,0,1,1830.66,261.92Zm-.38,2.51a.36.36,0,0,1,.25-.15c.09,0,.07.08-.06.19S1830.11,264.66,1830.28,264.43Zm-1.4,1c0-.09.12-.14.16-.11s0,.09-.09.15S1828.8,265.53,1828.88,265.41Zm-1,.41c.28.11.28.11-.36.43l-.28.14.19-.33C1827.58,265.75,1827.61,265.73,1827.85,265.82Zm-1.52-4.13a2.91,2.91,0,0,0,.54,0c.46,0,.61.12.33.26s-.87,0-.91-.19S1826.29,261.68,1826.33,261.69Zm-1,3.07a.58.58,0,0,1,.19-.33h0c.23-.17.34-.08.16.13C1825.3,265,1825.3,265,1825.36,264.76Zm.13,2.12c.46.1.46.19,0,.39-.24.09-.62,0-.67-.17S1825.16,266.8,1825.49,266.88Zm-2.64,6.34a.18.18,0,0,1,0-.19s.06,0,.08.11S1822.9,273.29,1822.85,273.22Zm-.46-9.32s.12,0,.17.05,0,.15,0,.17S1822.27,264,1822.39,263.9Zm.32,1.22a3,3,0,0,1,.51-.1,1.37,1.37,0,0,1-.2.36l-.2.32-.31-.22-.3-.23Zm-1.08-6.14c0,.19,0,.27,0,.18a.82.82,0,0,1-.09-.34C1821.54,258.71,1821.58,258.79,1821.63,259Zm-2.31,4.21a.57.57,0,0,1,.21.18s-.07,0-.17,0-.19-.13-.2-.18S1819.22,263.13,1819.32,263.19ZM1818,262c0-.14.09-.14.3,0,.43.22.36.38-.11.26C1818,262.21,1818,262.14,1818,262Zm-.62,6c.07-.14.17-.23.22-.21a.73.73,0,0,1,.27.21c.14.15.13.17,0,.15a1.71,1.71,0,0,0-.39,0C1817.28,268.22,1817.28,268.21,1817.4,268Zm-1.4-2.54c.28-.24.31-.24.55-.1l.26.15-.54.14a1.92,1.92,0,0,1-.56.1A1.16,1.16,0,0,1,1816,265.44Zm-4.79,2.93c-.28.12-.46.15-.48.09s.2-.18.47-.29C1812,267.87,1812,268,1811.21,268.37Z"/><path class="cls-2" d="M1591.59,38.37a1,1,0,0,0-1-.66c-.22,0-1.37-.08-2.54-.21a60.64,60.64,0,0,0-6.43-.4c-1.95,0-2-.05-1.7-.71a22.75,22.75,0,0,0,.81-3.28,23,23,0,0,1,.89-3.37,18.83,18.83,0,0,0,.69-2.79c0-.24.23-.93.41-1.53a8.4,8.4,0,0,0,.31-1.23c0-.07-.17-.21-.36-.29s-.36-.14-1,.5c-.36.35-1,1-1.42,1.52s-1.44,1.52-2.26,2.31-1.93,1.92-2.47,2.53-1.42,1.55-2,2.11l-1.37,1.37c-.3.3-.39.34-.55.22-.5-.39-2.68-2.54-3.51-3.46a36.46,36.46,0,0,0-3.38-3.21c-.43-.37-.46-.38-.86-.3-.23.05-.44.14-.47.22a13.61,13.61,0,0,0,.58,3.12c.17.64.91,2.7,1.64,4.58l1.34,3.42-.27.2a5.29,5.29,0,0,1-1.25.51,30.88,30.88,0,0,0-4.78,2c-.82.42-1.54.77-1.62.78a13.6,13.6,0,0,0-2.46,1.44.82.82,0,0,0,.1.53c.14.33.26.41,1,.74a6.72,6.72,0,0,0,2.3.56c.82.11,1.83.21,2.25.23l1.73.08a35.44,35.44,0,0,1,4.07.43c.55.15.54.06.36,2.26-.07.89-.16,2.23-.19,3-.07,1.28-.4,4.49-.54,5.1a1.3,1.3,0,0,0,0,.42,5.38,5.38,0,0,1-.08.93c-.12.76-.12.8.22,1.05s.38.25.63.12a.92.92,0,0,0,.37-.32,10.55,10.55,0,0,1,1.06-1.12l1.4-1.35a8.94,8.94,0,0,0,1-1.21,11.76,11.76,0,0,1,.77-1.06c.52-.56,1.8-2.15,2.17-2.67.62-.9.62-.89.93-.69.15.1.48.36.73.57l1.25,1.07a11.06,11.06,0,0,1,2.15,2.37s.06.13.17.18a2,2,0,0,1,.52.49,13.42,13.42,0,0,0,2.12,2c.24.11.32.09.4-.1a11.76,11.76,0,0,0-.42-3.15c-.09-.31-.24-.95-.34-1.42s-.36-1.37-.57-2-.47-1.54-.58-2-.24-1-.28-1.08A7,7,0,0,1,1581,47a13.71,13.71,0,0,0-.53-1.64l-.43-1.16.47-.22,1.36-.68c.85-.42,2.8-1.34,3-1.39a2.24,2.24,0,0,0,.33-.19c.14-.08.77-.37,1.4-.64,1.59-.69,4-1.83,4.58-2.15S1591.63,38.63,1591.59,38.37Zm-32.11,5.39c-.16.36-.33.44-.68.28s-.12-.18.39-.43l.46-.22Zm21.86,10.18a1.63,1.63,0,0,1,.18-.5,6.73,6.73,0,0,1,.27.92,4.61,4.61,0,0,1,.17.92s-.21-.22-.41-.45S1581.21,54.37,1581.34,53.94Zm-15.1-23.08a3.08,3.08,0,0,0-.16.54c0,.24-.09.19-.45-.51s-.58-1.28-.47-1.32a4.42,4.42,0,0,1,.62.51C1566.29,30.54,1566.34,30.63,1566.24,30.86Zm.18,1.91.31-.76.32-.76,1,1.13a5.7,5.7,0,0,1,1,1.24l-.35.51a13.43,13.43,0,0,0-.66,1.22l-.37.81-.6-1.7Zm-3.86,9.83c-.16.36-.39.93-.5,1.28l-.21.62-.73,0a1.9,1.9,0,0,1-.79-.16,2,2,0,0,1,.26-.8c.32-.68.35-.71,1.15-1.13C1562.84,41.77,1562.92,41.8,1562.56,42.6Zm1.74,2.07-.65,0c-1-.06-1-.08-.73-.77.12-.34.32-1,.46-1.47l.25-.86,1.13-.4,1.13-.41-.28.79c-.15.43-.51,1.32-.79,2Zm2.62.19-.89-.09-.89-.09.37-.76c.21-.42.61-1.4.9-2.17l.53-1.41.78-.48a6,6,0,0,0,.81-.57,4.37,4.37,0,0,0-.22-.92l-.27-.84.78-1.64a11.55,11.55,0,0,1,.88-1.68c.07,0,.4.23.75.56l.64.6-.65,1.37c-.35.75-1.09,2.36-1.64,3.57s-1.19,2.73-1.44,3.38Zm2.39.37a4.9,4.9,0,0,1-1.49-.23s.85-2,1.91-4.45l1.93-4.4.72-.71c2.32-2.29,3.22-3.2,3.66-3.7l.49-.57L1576,32.3c-.28.62-.54,1.14-.56,1.15s-1.35,2.65-3.85,7.78A21.46,21.46,0,0,1,1569.31,45.23Zm.25,7.89c-.11.36-.12.15,0-.87a16.69,16.69,0,0,1,.38-3.15,1.43,1.43,0,0,0,.08-.6.36.36,0,0,1,0-.3,5.19,5.19,0,0,0-.07-1.93c-.08-.32-.06-.47,0-.52.45-.23,1.7-2.53,4-7.4.74-1.57,1.74-3.55,2.22-4.41l1.28-2.34.81-1.52a6.94,6.94,0,0,1,.65-1,3.32,3.32,0,0,0,.4-.63,4.88,4.88,0,0,1,.71-.89c.32-.32.74-.78.93-1,.34-.43.32-.35-.4,1.33-.42,1-2.13,4.78-3.8,8.44-4.13,9-6.13,13.61-6.65,15.11C1569.91,52.07,1569.64,52.85,1569.56,53.12Zm6.09-5.9a12.49,12.49,0,0,1-1.24,3c-.15.2-.42.6-.61.88a10.27,10.27,0,0,1-1.14,1.31c-.45.44-1.23,1.28-1.74,1.87l-.92,1.08.18-.62c.11-.34.34-1.13.52-1.75s.72-2.07,1.19-3.23c1.28-3.11,7.64-17.37,7.49-16.8-.21.87-1,4.47-1,4.53a2,2,0,0,0,.37.29l.35.23-.25.57c-.14.31-.22.56-.18.56s0,.14-.06.32c-.55,1.36-1.62,4.22-1.86,5a13.55,13.55,0,0,1-.73,1.8A3.12,3.12,0,0,0,1575.65,47.22Zm5,2.8.23.58c.36.9.42,1.3.21,1.41s-.2.2-.25.52-.28,1-.36,1a2.23,2.23,0,0,1-.32-.34c-.19-.22-.23-.36-.14-.48a.5.5,0,0,0,0-.44c-.09-.22,0-.49.25-1.25Zm-.49-.94a6.77,6.77,0,0,0-.87,2.06c-.21.89-.2.88-.77.38-.72-.65-.7-.53-.28-1.65s.89-2.55,1.08-3.26l.11-.44.11.35c0,.19.26.79.45,1.33C1580.27,48.72,1580.29,48.86,1580.12,49.08Zm.19-7.73c-.28,1.06-.66,1.9-.83,1.83-.47-.2-.78.35-.65,1.16.1.6.07.74-.31,1.75a20.08,20.08,0,0,0-.61,1.95,9.23,9.23,0,0,1-.86,2.24l-.48-.45a1.66,1.66,0,0,0-.56-.43c-.2,0-.12-.29.58-2.09.39-1,.89-2.36,1.1-3s.73-2,1.14-3.08a19.69,19.69,0,0,0,.83-2.48l.09-.56.82,0h.82l-.41,1.09C1580.75,39.86,1580.45,40.8,1580.31,41.35Zm4.36-2.2c-.6,1.62-.73,1.84-1.26,2.14a7.23,7.23,0,0,1-2.23.93,17.45,17.45,0,0,1,1.31-4,18,18,0,0,1,2,0l.55,0Zm2.76-.18c-.11.4-.18.46-1,.87a4.47,4.47,0,0,1-.91.41s0-.22.11-.46a9.66,9.66,0,0,0,.36-1l.17-.53.66.08a3.55,3.55,0,0,1,.67.11A2.77,2.77,0,0,1,1587.43,39Zm1-.13c-.06-.16.19-.32.44-.28s.22.07.2.11S1588.49,38.94,1588.45,38.84Z"/><path class="cls-2" d="M1683.91,541.63c.91.25,2.61.76,3.78,1.14s2.83.81,3.69,1,1.91.41,2.35.53c.87.25,1.09.25,1.44,0h0c.14-.1.24-.23.23-.3,0-.25-.26-.53-.39-.5a9,9,0,0,1-1.49-.93,17.17,17.17,0,0,0-4.82-2.29c-.52-.17-1.39-.49-1.92-.7a16.56,16.56,0,0,0-2.15-.64,5.74,5.74,0,0,1-1.27-.36s.17-.38.47-.72c.93-1,5.49-7.28,6.26-8.59.4-.66,1-1.59,1.32-2.06a4.42,4.42,0,0,0,.67-1.29c.09-.63-.09-1.35-.38-1.48s-.47.19-1.5,1.52a24.39,24.39,0,0,1-1.93,2.24c-.38.34-1.33,1.35-2.11,2.25a38,38,0,0,1-2.9,2.91l-1.48,1.28-.1-.44c-.06-.24-.28-.91-.48-1.48a6.59,6.59,0,0,1-.39-1.69,15.13,15.13,0,0,0-.41-2.31c-.22-.93-.65-3.15-1-4.95s-.61-3.35-.66-3.45-.15-.35-.22-.54c-.21-.54-.72-.47-1.31.19,0,0,.11,1.46.32,3.16s.4,3.92.43,4.91.17,3,.31,4.52a24.76,24.76,0,0,1,.16,2.69,41.47,41.47,0,0,1-7.51-4.45c-1-.76-1.79-1.18-1.93-1s-.16,0-.28,0-.24-.09-.3.06-.12.15-.2.05a.33.33,0,0,0-.24-.11c-.07,0,0,.2.2.42s.47.56.62.77a35.82,35.82,0,0,0,2.82,2.64,49,49,0,0,1,3.69,3.74c.66.74,1.26,1.4,1.34,1.47s-.35.78-1.23,2c-.75,1-1.68,2.26-2.06,2.81s-1.28,1.86-2,2.89c-2.75,3.89-2.82,4-2.4,4.09a2.19,2.19,0,0,0,1.92-.63c2.46-2.26,3-2.72,3.5-3.26.34-.33.95-1,1.36-1.42a16.83,16.83,0,0,1,2.41-2.35,10.59,10.59,0,0,1,.42,1.45c.18.76.45,1.72.6,2.12a26.06,26.06,0,0,1,.62,2.69c.21,1.08.45,2.27.55,2.63s.39,1.54.65,2.61c.38,1.51.53,1.95.72,2a.45.45,0,0,1,.27.29c0,.1.06.19.09.18l.3,0c.2,0,.22,0,.11-.23a2.38,2.38,0,0,1,0-1,48.23,48.23,0,0,0-.19-6.35c-.07-.94-.11-2.19-.08-2.77a23.46,23.46,0,0,0,0-4.18C1682,541.13,1682,541.12,1683.91,541.63Z"/><path class="cls-1" d="M386.41,525.21a7.85,7.85,0,0,1,1.78,1.55c.47.79,7.91,4.19,11.75,5.37s8.51,1.92,8.93,1.4-1.11-2.89-4.05-7.1c-3.61-5.18-4.26-6.31-6.1-10.64a32.85,32.85,0,0,1-2.47-9.49c-.4-5.36.84-13.46,2.7-17.64a20.11,20.11,0,0,0,1.17-3.25,22.1,22.1,0,0,1,4-7.78,53.49,53.49,0,0,1,9.43-8.5c4.94-3.09,13.26-5.88,18.63-6.25a24.45,24.45,0,0,1,9.17,1c2.56.69,14.71,5,15.23,5.43a4,4,0,0,0,1.63,0c1.31-.17,1.4-.23,1.47-1,.18-1.95-2.45-6-6.33-9.86-4.53-4.45-13.19-10-18.82-12-1.51-.55-3.37-1.27-4.15-1.61-4-1.75-14.8-3.18-20.37-2.69-3.93.35-13.39,3.54-16.07,5.43a72.88,72.88,0,0,0-7.45,6.82h0a5.67,5.67,0,0,0-.87,1.07c-.09.18-1.35,1.86-2.81,3.72-4.05,5.18-5.39,8.4-7.59,18.12a69.54,69.54,0,0,0-2.1,14.19c0,1.33-.05,3-.1,3.65-.1,1.49.37,4.63.73,4.77a14.28,14.28,0,0,1,1,3.74,50.55,50.55,0,0,0,2.1,7.14c.39.92,1.08,2.57,1.53,3.67C380,518.41,383.73,523.43,386.41,525.21ZM402.68,528l.41.87-.68-.76h0a3.33,3.33,0,0,1-.74-1.14C401.59,526.41,402.2,527,402.68,528Z"/><line class="cls-2" x1="147.12" y1="77.81" x2="147.12" y2="77.81"/><path class="cls-2" d="M254.94,51.51c0,.1-1.57,2.48-1.86,2.86-.43.56-.36.72.37.92a3,3,0,0,0,1.49,0c.47-.09,1.88-.29,3.14-.45s2.92-.41,3.69-.57a20.13,20.13,0,0,1,2.42-.35,9,9,0,0,0,1.24-.13c.28-.08.35.06.4.75,0,.25.17,1.1.34,1.88s.34,1.58.38,1.79c.13.59.31,2,.4,2.94a4.8,4.8,0,0,0,.6,2.37,1.07,1.07,0,0,0,1.13,0c.22-.27,3.21-5.55,3.65-6.44.21-.44.57-1.24.79-1.78a6.42,6.42,0,0,1,.49-1,24.33,24.33,0,0,1,2.75.41,35.49,35.49,0,0,0,4.78.68l2,.17a10.19,10.19,0,0,0,1.64,0c.57-.06,1.18-.39,1.25-.68a2.66,2.66,0,0,0-.66-.82c-.38-.37-1.09-1.11-1.57-1.65s-1.17-1.24-1.52-1.56a17.18,17.18,0,0,1-2.74-3.26c-.71-1.15-.75-1.34-.4-1.78a15.32,15.32,0,0,0,.86-1.33c.32-.55.93-1.49,1.35-2.08s1-1.38,1.2-1.75.89-1.25,1.44-2c1-1.25,1-1.29.95-1.74a1.22,1.22,0,0,0-.3-.68c-.24-.2-.31-.19-1,.08a16.32,16.32,0,0,1-1.82.66,23.09,23.09,0,0,0-2.41.86A1.58,1.58,0,0,1,279,38l-1.71.6c-1.62.59-1.92.64-2,.37a.31.31,0,0,0-.17-.22c-.08,0-.2-.29-.27-.61a34.6,34.6,0,0,0-1-3.94c-.31-1-.64-1.92-.74-2.14a8.12,8.12,0,0,1-.68-2.18c.07-.33-.69-.71-1-.48a2.7,2.7,0,0,0-.38.79,10.65,10.65,0,0,1-.53,1.22c-.73,1.38-2.23,4.33-2.52,5-.37.82-1,1.78-1.2,1.75a1.51,1.51,0,0,1-.4-.32,13,13,0,0,0-1.05-.9,30.2,30.2,0,0,1-2.75-2.37c-.32-.33-.71-.71-.88-.85s-.59-.5-.95-.82-1-.83-1.41-1.13c-.64-.47-.85-.57-1.26-.59a1,1,0,0,0-.64.14.69.69,0,0,0-.16.24c0,.07.78,3,1,3.77a12.68,12.68,0,0,1,.61,2.5,11.29,11.29,0,0,0,.85,2.58,10.49,10.49,0,0,1,.47,1.34.24.24,0,0,0,.14.2.3.3,0,0,1,.12.27,3.34,3.34,0,0,0,.27,1,6.35,6.35,0,0,1,.33,1c0,.37-2.13,3-3.45,4.14a13.77,13.77,0,0,0-1.2,1.17C256,50.13,255,51.45,254.94,51.51Zm3.4-.35a10.32,10.32,0,0,0,1.46-1.62.17.17,0,0,1,.13-.13,19.19,19.19,0,0,0,3.15-3.89.57.57,0,0,1,.26-.38c.19-.09.18-.2-.07-1.09a22.7,22.7,0,0,0-1-2.83,11.61,11.61,0,0,1-.71-2.49,4.87,4.87,0,0,0-.34-1.13,14,14,0,0,1-.87-2.74,4.42,4.42,0,0,1,.63.52c.3.28,1,.83,1.47,1.22a40.59,40.59,0,0,0,4.2,3.14,7.54,7.54,0,0,1,1.15.67c1.18.79,1.3.84,1.66.64s.38-.53.08-.75-.39-1.16-.16-2c.11-.38.29-1.06.41-1.52a7.09,7.09,0,0,1,.31-1c.05-.09.24-.58.42-1.09a8.44,8.44,0,0,1,1.15-2.27c.06,0,.18.29.27.73a2.34,2.34,0,0,0,.26.82.1.1,0,0,1,.08.12,5.94,5.94,0,0,0,.25,1,25.33,25.33,0,0,1,.84,3.79c.21,1.57.2,1.68-.19,2s-.45.5-.22.81.24.22,1.79-.26c.89-.28,1.65-.5,1.69-.49a11.49,11.49,0,0,0,1.24-.35c.64-.21,1.47-.46,1.84-.56s1-.31,1.38-.45a3.24,3.24,0,0,1,.73-.23,8.52,8.52,0,0,1-1.42,1.74,39.41,39.41,0,0,0-4.06,5.4,3.16,3.16,0,0,0,.84,1.13,13.88,13.88,0,0,1,2.25,2.21,10.23,10.23,0,0,0,1.25,1.33,13.94,13.94,0,0,1,2.2,2.2,1.68,1.68,0,0,1-.78-.05,17.36,17.36,0,0,0-2.28-.22,26.8,26.8,0,0,1-4.41-.49c-1.4-.24-1.92-.28-2.08-.18a.68.68,0,0,1-.4.09.73.73,0,0,0-.45.19A58.15,58.15,0,0,0,269.24,58c-.75,1.58-.69,1.59-.91,0a9.6,9.6,0,0,0-.58-2.52c-.12-.28-.35-1-.53-1.63l-.49-1.69a2.76,2.76,0,0,1-.15-.73c0-.12,0-.11-.23,0a.72.72,0,0,1-.62.14,5.39,5.39,0,0,0-2.28.34,10.13,10.13,0,0,1-1.47.37,5.3,5.3,0,0,0-1.53.52,4.62,4.62,0,0,1-1.48.5l-1.08.19-.73.15c-.27,0-.59.12-.71.16a.7.7,0,0,1-.33,0c-.06,0-.11-.06-.1-.1S257.57,51.94,258.34,51.16Z"/><path class="cls-2" d="M6.33,207a25.79,25.79,0,0,1-5,.48.87.87,0,0,0-.53.11.81.81,0,0,1-.44.12c-.2,0-.4.39-.26.56a3.35,3.35,0,0,0,.87.33c.43.12,1.39.44,2.13.72a15.73,15.73,0,0,0,2.42.71,10.62,10.62,0,0,1,2,.57c.48.21,1,.41,1.14.45s.21.13-1,1c-.68.49-1.61,1.15-2.08,1.47a5.5,5.5,0,0,0-.89.66c-.26.77-.12,1,.47.68A8.75,8.75,0,0,1,7.7,214l1.5-.15a14.63,14.63,0,0,0,1.51-.23,5.23,5.23,0,0,1,.77-.15,1.81,1.81,0,0,1,.18.73,12.89,12.89,0,0,0,.27,1.35c.1.35.28,1.3.4,2.11a11.15,11.15,0,0,0,.79,2.95,7.75,7.75,0,0,1,.78,2.88.74.74,0,0,0,.12.46.8.8,0,0,1,.12.49h0c-.05.22,0,.26.18.23a1.13,1.13,0,0,0,.34-.08A21.83,21.83,0,0,0,15.83,221c.2-.78.48-1.75.61-2.15.4-1.21,1.15-3.9,1.31-4.73.11-.59.18-.77.26-.71l.67.44,1.47.95c1.18.75,3.2,2.09,3.63,2.41s.66.22.75-.27a.52.52,0,0,0-.18-.56c-.25-.24-1.07-1.18-1.93-2.21-.28-.34-.65-.78-.84-1a9.37,9.37,0,0,1-1.13-1.49,7.7,7.7,0,0,1,1.05-.08c.57,0,1.56-.08,2.22-.14l2-.17a27.44,27.44,0,0,0,3.37-.56c.6-.15,1.24-.54,1.24-.77s-.16-.21-.49-.32c-3.25-1.07-4.6-1.5-5.87-1.88a20.53,20.53,0,0,1-2.31-.85,13.68,13.68,0,0,0-1.27-.56c-.28-.09-.43-.19-.39-.26s.29-.52.57-1a20.65,20.65,0,0,1,1.71-3c.43-.56.51-1,.27-1.26-.1-.12-.25-.07-.84.27a11.93,11.93,0,0,0-2.26,1.67l-1.14.94c-.11.08-.19-.12-.35-.89a45.19,45.19,0,0,0-1.21-4.36,16.18,16.18,0,0,1-.47-1.75c-.22-1.18-.64-1.28-1.35-.31a8.41,8.41,0,0,0-1,2.43c-.15.49-.4,1.3-.56,1.8a17.88,17.88,0,0,1-.73,1.93,12.77,12.77,0,0,0-.49,1.22c0,.28-.07.27-.79-.19l-2-1.25c-.79-.47-2-1.2-2.59-1.61a12.08,12.08,0,0,0-1.26-.77c-.06,0-.2.1-.32.26-.27.35-.23.5.39,1.26l.57.71c.09.12,1.21,1.42,2.72,3.15a8.24,8.24,0,0,1,.85,1.07,6.52,6.52,0,0,1-1.31.26C7.71,206.75,6.77,206.91,6.33,207Zm2,.68c-.11,0-.13-.06-.05-.07a.19.19,0,0,1,.19,0S8.4,207.69,8.3,207.67Z"/><path class="cls-3" d="M39,36.71c.22-.44.08-.72-.47-.93s-4.27.72-5.95,1.49c-.4.18-.42.21-.21.45s.17.3.09.36h0c-.08.05.08.09.35.08l.72,0a17.52,17.52,0,0,0,1.77-.36c.83-.2,2-.43,2.5-.51C38.6,37.16,38.8,37.07,39,36.71Z"/><path class="cls-3" d="M45.75,39.86c.32-.4.32-.45.1-.76a.74.74,0,0,0-.63-.31c-.62,0-5.35,3.58-5.46,4.11a2.14,2.14,0,0,1-.6.68A12.38,12.38,0,0,0,38,44.66h0l-.57.65.36.07c.39.08,2-.94,3.94-2.47.61-.49,1.68-1.28,2.38-1.75A10.29,10.29,0,0,0,45.75,39.86Z"/><path class="cls-3" d="M44.1,48.84h0c.22.34.74.15,1-.36a5.62,5.62,0,0,0,.09-3.36c-.75-1.07-1.36.07-1.09,2.07a4.68,4.68,0,0,1,0,1.12A.89.89,0,0,0,44.1,48.84Z"/><path class="cls-3" d="M29.64,30a62.88,62.88,0,0,0,6.22,1.87,45.51,45.51,0,0,1,4.82,1.57c.49.18,1.47.49,2.18.69a58.49,58.49,0,0,1,6.82,2.48c.36.22.39.81.2,3.88a69.84,69.84,0,0,1-.79,7.39c-.53,3.24-.7,5.48-.42,5.53.07,0,.11.17.07.34h0a.28.28,0,0,0,.25.37c.45.1,1.1-.67,1.27-1.5A14.51,14.51,0,0,1,51,50.54,17.69,17.69,0,0,0,51.87,48a76.22,76.22,0,0,1,2.49-7.36c.2-.53.49-1.41.65-2,.48-1.59.67-2,.88-1.84a49.53,49.53,0,0,0,5.76.81l4.17.45a43.29,43.29,0,0,0,4.43.3c.93,0,2.57,0,3.65,0,1.95,0,2,0,2-.37a.9.9,0,0,0-.11-.67,8.46,8.46,0,0,0-2-.84c-2-.65-5.61-1.86-9.07-3.08A38.45,38.45,0,0,1,61.07,32c-.78-.39-1.72-.83-2.1-1a13.42,13.42,0,0,1-2.76-1.24,2.43,2.43,0,0,1-.19-.86,11.34,11.34,0,0,0-.16-1.2c-.07-.28-.23-1-.37-1.61a31.49,31.49,0,0,1-.55-4.51,12.16,12.16,0,0,0-.26-1.76A43,43,0,0,1,54,13.93a2.89,2.89,0,0,0-.11-1c-.22-.78-.73-1.08-1.32-.77l-.39.2-.08,1.73a23.08,23.08,0,0,1-.35,3A45.13,45.13,0,0,0,51.23,24a27.18,27.18,0,0,1-.43,5c-.15.23-1.44.23-5.51,0-2.37-.12-3.76-.14-6.57-.07-.62,0-1.52,0-2,0s-1.27-.06-1.76-.06a32,32,0,0,1-4.81-.39c-.31-.2-.8.35-.8.9A.74.74,0,0,0,29.64,30Z"/><path class="cls-3" d="M34.7,48.75a8.15,8.15,0,0,0,2-1.32c.28-.27.29-.33.11-.64s-.72-.41-1.41.16c-.86.72-1.14,1.16-1,1.5h0A.63.63,0,0,0,34.7,48.75Z"/><path class="cls-3" d="M55.43,46.16c-.5.4-.5.87,0,2.66.39,1.4.48,1.56.86,1.63s.43,0,.5-.4a10.33,10.33,0,0,0-.73-3.91C55.82,45.9,55.74,45.9,55.43,46.16Z"/><path class="cls-3" d="M61,45.12c-.44-1.22-2.74-3.69-3.35-3.59-.37.06-.43.74-.1,1.35a5.7,5.7,0,0,0,1,1.21,6.13,6.13,0,0,1,1,1.18,1.48,1.48,0,0,0,.77.66h0C61.05,46.14,61.24,45.87,61,45.12Z"/><path class="cls-3" d="M67.43,45.21c.17,0,.29-.06.34-.28s-.23-.53-1.92-1.66c-2.13-1.44-2.31-1.48-2.47-.58-.11.6,0,.7,1.69,1.72a4.73,4.73,0,0,0,1.69.76A3.39,3.39,0,0,1,67.43,45.21Z"/><path class="cls-3" d="M62.2,48.52c-.09.46.17.93,1.58,2.82.58.78,1.22,1,1.41.43.08-.23-.12-.7-.68-1.62C63.23,48.08,62.42,47.5,62.2,48.52Z"/><path class="cls-4" d="M1687.68,74a.66.66,0,0,1,0-.37h6.11c-1,1-2,1.76-3.47.6C1689.62,73.68,1688.58,74,1687.68,74Z"/><path class="cls-2" d="M50,504c-2.3,2.22-4.2,4.7-4.48,5.83s-.12,2.17.42,2.48h0c.47.27,1-.17,1.74-1.52A24.35,24.35,0,0,1,49.74,508a20.55,20.55,0,0,0,3-4.13,7.81,7.81,0,0,1,.8-1.31,5,5,0,0,0,.78-1.74,2.59,2.59,0,0,1,.38-1.1.79.79,0,0,0-.08-1.21c-.23-.17-.45-.15-.57.06s-.13.34.2.31.22.08-.18.31-.55.44-.51.55-.22.54-.6.94a9,9,0,0,0-.87,1.06A13,13,0,0,1,50,504Z"/><path class="cls-2" d="M117,479.41c-2,2.22-2,2.26-1.9,2.56a.9.9,0,0,0,.37.47.55.55,0,0,0,.45.07,7.37,7.37,0,0,0,1.22-2l.24-.61a.92.92,0,0,0-.12-.33C117.14,479.32,117.08,479.29,117,479.41Z"/><path class="cls-2" d="M104.37,492.9a13.09,13.09,0,0,0-1.51.9c-.64.48-.79.7-.63,1s1.17-.08,2.15-.56h0l1.17-.58c.3-.15.22-.79-.12-1S105,492.58,104.37,492.9Z"/><path class="cls-2" d="M102.78,481.64l-.49-.19.17.31a3.11,3.11,0,0,0,1.27.93.32.32,0,0,1,.22.15,1.94,1.94,0,0,0,.65.41c.3.14.71.33.91.44h0l.37.19,0-.33c.08-.59-.72-1.19-2.09-1.57C103.52,481.9,103.05,481.74,102.78,481.64Z"/><path class="cls-2" d="M113.56,497.34c-.2-.19-.4-.32-.44-.29a2,2,0,0,0-.23.66,4,4,0,0,0,.19,2.42.35.35,0,0,0,.37.06c.2-.12.39-.55.3-.69a1.38,1.38,0,0,1,.08-.59C114,498.12,114,497.73,113.56,497.34Z"/><path class="cls-2" d="M123.31,491.17a1.35,1.35,0,0,0,.6-.05c.49-.19.78-.44.71-.63a4.3,4.3,0,0,0-1.79-.34A13.45,13.45,0,0,0,121,490a.49.49,0,0,0-.11.24c0,.34.75.79,1.46.82C122.72,491.11,123.14,491.14,123.31,491.17Z"/><path class="cls-5" d="M567,270.44a48.4,48.4,0,0,0,.39-11.09,76.36,76.36,0,0,1,.46-8,9.12,9.12,0,0,0-.73-4.95c-.74-1.48-.6-3.23-.85-4.85a47.71,47.71,0,0,1-.92-8.88,28.67,28.67,0,0,0-.72-6.7,5.42,5.42,0,0,1,.09-1.44c0-.33.27-.77.13-1a8.4,8.4,0,0,1-1-4.55c-.07-2.42-1.82-4.43-1.09-7,.62-2.2-.16-4.55-.83-6.7a7.65,7.65,0,0,1,.31-4.74,23.47,23.47,0,0,1,2-5.73,11.68,11.68,0,0,1,4.73-4.59,25.17,25.17,0,0,0,3.07-1.94c.59-.41,1.11-.76,1.85-.34.35.2.72,0,1.1-.11,1.22-.5,2.6-.44,3.5-1.87a2.62,2.62,0,0,1,2.85-.38c1.58,1,2.75.15,4-.41.78-.34,1.53-1,2.23.12a.46.46,0,0,0,.38.13c.84-.7,1.8,0,2.5-.15a5.76,5.76,0,0,1,3.84.37c.64.28,1.55-.08,1.89.9a.31.31,0,0,0,.23.16c2.36-.23,4.06,1.69,6.28,1.92.23,0,.65.08.66.15.16,1.63,1.51,1.47,2.57,1.78a1.32,1.32,0,0,1,.82.77c1.16,2.48,3.43,3.75,5.59,5.17a4.17,4.17,0,0,1,1.49,1.74,31.86,31.86,0,0,0,1.78,2.91c1,1.86,2.25,3.56,3.32,5.37.63,1,.73,2.42,1.64,3.28,1.34,1.27,1.25,3.15,2.19,4.66s2,3.36,1.38,5.43a2,2,0,0,0,.14,1.7c1.3,1.81.62,3.72.35,5.59a3.13,3.13,0,0,0,.4,2.07c.67,1.26,1,2.46,0,3.77a2.81,2.81,0,0,0-.25,3.06c1,1.76.32,3.48-.14,5a14.47,14.47,0,0,0-.7,7.7,1.43,1.43,0,0,1-.45,1.44,3.16,3.16,0,0,0-1,2.8c.38,2.26-.3,4.43-.39,6.65a3.28,3.28,0,0,0,3.49,3.42,50,50,0,0,1,14.91.07,26.82,26.82,0,0,0,5.23.07c2.71-.05,5.3.7,7.94,1.08,3,.43,5.53,1.84,8.22,2.95,1.66.69,3,2,4.66,2.64a1.37,1.37,0,0,1,.74.68c.77,2,2.94,3.15,3.47,5.37a7.14,7.14,0,0,0,1.13,2.19c1,1.39,1,2.93,1.14,4.54.27,2.5-.5,4.89-.19,7.42a7.53,7.53,0,0,1-2.72,6.32c-1.41,1.32-2.15,3.1-3.23,4.64-.47.68.24.71.6.75,2.74.26,4.29,1.89,5.16,4.35.16.45.14.94,1,.65s1,.91.92,1.44a4.29,4.29,0,0,0,1.49,3.48c1.33,1.3,1.06,3.14,1.69,4.68.22.55-.73.87-.58,1.57.62.21,1.23-.87,1.82-.05v2.92a9.47,9.47,0,0,0-.9,3.05c-.37,3.65-2.07,6.68-4.17,9.56a2.82,2.82,0,0,1-1.71,1.23,5.78,5.78,0,0,0-2.5,1.44c-.67.63-.83,1.36,0,2a12,12,0,0,1,3.73,4.6,68.47,68.47,0,0,1,2.93,6.89,8.46,8.46,0,0,1,.08,3.33c-.12,1.59-.55,3.15-.18,4.76a2.21,2.21,0,0,1-.39,1.53,58.87,58.87,0,0,1-4.15,6.67,11.52,11.52,0,0,1-2.15,2.15c-.78.6-.89,1.22,0,1.88.69.53,1.21,1.28,1.92,1.78a5.91,5.91,0,0,1,2.38,5,3.14,3.14,0,0,0,.08.87c1.69,4.73.05,9.14-1.34,13.57a3.71,3.71,0,0,1-1,1.58c-1.62,1.53-3,3.37-5,4.41-.17.09-.39.2-.44.37-.64,1.85-2.51,1.86-3.83,2.72-2.38,1.53-5.06,2.1-7.58,3.16a23.31,23.31,0,0,1-7.17,1.7c-5.55.48-11.09,1.14-16.66,1.25a.44.44,0,0,0-.25.13h-1.46a28.62,28.62,0,0,0-6.41,0h-4.37c-.3-.23-.65-.14-1-.14-4.84,0-9.68-.21-14.51-.2-3.91,0-7.84-.43-11.75,0a6.71,6.71,0,0,1-2.6-.1c-.48-.54.06-.79.35-1,.94-.72.69-1.34,0-2a8.3,8.3,0,0,0-2.52-1.7,2.8,2.8,0,0,1-1.77-1.81c-.28-.95-1.17-1.39-1.72-2.13a41.17,41.17,0,0,1-3.86-6,13.3,13.3,0,0,1-1.11-7c.14-1.93.22-3.87.47-5.8a8.66,8.66,0,0,1,.43-2.13c1.11-2.87,2.11-3.45,5.13-2.85a6.6,6.6,0,0,0,3.58-.06,2.7,2.7,0,0,1,1.73,0c1.73.57,3.45.07,5.18.06,4.08,0,8.06-1.21,12.15-.81a37,37,0,0,0,6.39-.38,54.52,54.52,0,0,1,9.73,0,35.86,35.86,0,0,0,6.38-.39c.23,0,.5-.23.7-.15,2,.75,4-.06,6,.12a16.86,16.86,0,0,0,4.9-.38c.47-.1,1-.37,1.4-.06a3.54,3.54,0,0,0,3.21.27,2.61,2.61,0,0,1,1.3-.09c3,.78,6.07-.19,9.11-.06a.56.56,0,0,0,.29,0,38.35,38.35,0,0,0,4.54-4c.39-.4,0-.94-.38-1.25a2.58,2.58,0,0,0-2.71-.55,14.8,14.8,0,0,1-7.31.71c-2.24-.2-4.45-.09-6.68-.07a36.54,36.54,0,0,1-7.39-.24,4.14,4.14,0,0,0-1.3-.16c-3.41.42-6.85.28-10.27.41-.87,0-1.74.14-2.62.15-4.85.06-9.68.49-14.52.61-3.28.08-6.55.64-9.85.3a12,12,0,0,0-4,.54,31.71,31.71,0,0,1-9.64,1.17,3.51,3.51,0,0,0-3,1.24c-1,1-2.2,1.74-3,3a1.2,1.2,0,0,1-1.15.5c-5.29-.25-10.59-.23-15.88-1-2.83-.39-5.59-1.09-8.42-1.48-.82-.11-1.58-.47-1.65-1.37s.76-1.28,1.51-1.51c2.06-.6,4.24-.59,6.3-1.1a23.31,23.31,0,0,1,9.58-.62,6.27,6.27,0,0,0,3.82-.65c1.4-.69,2.87-.22,4.3-.07a12.68,12.68,0,0,0,2.89-.08c.66-.08.89-.38.53-1-1.69-2.76-1.52-5.76-1.47-8.85.05-2.86.18-5.7.36-8.55.2-3.08,2.27-4.94,4.11-7a1.85,1.85,0,0,1,1.79-.41,27.51,27.51,0,0,0,5.36.36,143.12,143.12,0,0,0,17.81-.48,32.76,32.76,0,0,1,8.68,0,1.26,1.26,0,0,0,.58,0c3.7-1.05,7.41-.27,11.11-.1A37.91,37.91,0,0,0,633,340c4.27-.36,8.52.7,12.79,0a12.87,12.87,0,0,1,4,.29c2.48.39,4.91-.56,7.37-.1a2.2,2.2,0,0,0,1.76-.56,9.39,9.39,0,0,1,2.17-1.46,1.4,1.4,0,0,0,.8-1.13c.41-1.92.31-1.94-1.66-2.11-2.24-.2-4.46-.9-6.74-.55-3.61.56-7.22,0-10.83,0-2,0-4,.4-6.1.32a2.14,2.14,0,0,0-1.5.47,1.82,1.82,0,0,1-2.5.05,3.43,3.43,0,0,0-2.66-.45c-2.93.35-5.87.44-8.82.54-3.82.13-7.67-.05-11.47.5-2,.28-4,0-6,.27a24.8,24.8,0,0,0-3.31.44,2.5,2.5,0,0,1-1.29.13c-3-.88-6.05,0-9.07,0a10.46,10.46,0,0,1-4.28-.68,1.28,1.28,0,0,0-1.75.55c-.46.68-1,1.34-1.47,2a6.2,6.2,0,0,1-4.62,2.33c-2.92.28-5.87.16-8.78.68a6.43,6.43,0,0,1-4.79-.64,1.11,1.11,0,0,0-1-.09,17,17,0,0,1-10.65-.33c-.57-.22-1.32-.35-1.34-1.15s.65-1.28,1.35-1.53a20.62,20.62,0,0,1,5.94-1.32,9.93,9.93,0,0,0,2.86-.5,4,4,0,0,1,1.56-.35c4.08.27,8.1-.84,12.18-.64a20.49,20.49,0,0,0,4.49-.46c1.3-.22,1.47-.74.66-1.76s-1.64-1.66-2.43-2.51a2.32,2.32,0,0,1-.8-1.81c.25-2.42-.28-4.82-.24-7.23a27.25,27.25,0,0,1,2.56-12,5.14,5.14,0,0,1,3.82-2.87,12.82,12.82,0,0,1,4.62-.3,4.68,4.68,0,0,0,3-.35,3.4,3.4,0,0,1,1.84-.24,37.59,37.59,0,0,0,7.27-.13,9,9,0,0,1,2.32-.06c5.55.54,11.11,0,16.66.27a7.24,7.24,0,0,0,2.18-.13c4.4-1.17,8.85-.8,13.31-.5a22.58,22.58,0,0,0,5.51-.21c2.57-.47,5.26,0,7.76-1a2.77,2.77,0,0,1,1.31,0,21.73,21.73,0,0,0,7.77-.86c1.22-.3,2.79-2.57,2.77-3.81,0-.84-.56-1.05-1.25-1.1a9.93,9.93,0,0,0-4.58.59,7.24,7.24,0,0,1-3,.55c-3.16,0-6.27.59-9.42.73-4,.17-7.93.59-11.91.4a20.73,20.73,0,0,0-5.78.45c-5.14,1.19-10.32.79-15.51.54-.67,0-1.35-.08-2-.08-4.36,0-8.72.27-13.08,0a13.27,13.27,0,0,0-3.75.36,10.19,10.19,0,0,1-4.31-.32,2.48,2.48,0,0,0-3,1.49c-1.06,2-2.39,3.57-5.07,3.7a17.89,17.89,0,0,0-7.75,2.29,7.48,7.48,0,0,1-3.17.94c-2.28.15-4.47.85-6.74,1.09a31.26,31.26,0,0,0-8.1,1.64,5.36,5.36,0,0,1-2.46.12c-1.53-.18-2.05-1.31-1-2.43,1.95-2.05,4.06-4.05,6.92-4.64,3.9-.8,7.73-1.9,11.55-3,2.64-.74,5.26-1.53,8-2.1a38.28,38.28,0,0,0,4.37-1.6c1.24-.43,1.31-1,.53-2a10.16,10.16,0,0,1-2.45-5.14c-.18-1.79-1.39-3.43-1.51-5.29-.18-2.8-.71-5.67,1-8.28a3.73,3.73,0,0,0,.37-2.39,3,3,0,0,1,2.22-3.47,1,1,0,0,1,.27-.1c3.41-.34,6.68-1.49,10.12-1.71s7-.45,10.43-.86c2.84-.33,5.77.21,8.52-.62,2.95-.89,6-.25,8.9-.88a2.61,2.61,0,0,1,1.3.09,5,5,0,0,0,1.29.21c1.9,0,2.38-.6,2.29-2.92-.06-1.26-.91-1.84-2.53-1.57s-2.92-.36-4.44-.33c-3.81.07-7.61-.07-11.45.26-3.55.31-7.11,1.09-10.72.59a6.63,6.63,0,0,0-1.88.18c-4.47.76-9,1.22-13.39,2.51-3,.88-5.88,2.11-8.79,3.27A1.76,1.76,0,0,1,567,270.44Z"/><path class="cls-6" d="M237.22,232c.52-.77.29-1.69.53-2.52a3.71,3.71,0,0,1,4.54-2.94,6.22,6.22,0,0,1,3.26,1.61c2.53,2.12,4.87,4.43,7.21,6.76a6.65,6.65,0,0,0,4.1,1.65c1.22.15,2.88-1.76,3.09-3.41a4,4,0,0,0-.09-2c-1.39-3-2.69-6.16-5.58-8.15a6.44,6.44,0,0,1-3-4.43,3.58,3.58,0,0,1,.33-2.54c1.06-1.77,1.8-1.87,3.82-1.59,2.63.36,4.51,2,6.44,3.45,3.63,2.69,6.87,5.82,8.75,10.1a8.26,8.26,0,0,1,0,6.49c-.51,1.36-.42,2.19,1.14,2.95,2.1,1,3.4,3.13,5.25,4.54,2.34,1.78,4,4.27,6.13,6.18a31.75,31.75,0,0,1,5.08,5.54,3.58,3.58,0,0,1,.63,3c-.53,2.81-1.34,5.38-3.93,7.05a4.16,4.16,0,0,1-4.69,0c-.08-.06-.16-.15-.24-.16-3.34-.22-4.64-3.34-7-5-4.08-2.84-6.82-7.12-10.34-10.58-.76-.74-1.48-1.23-2.54-.56a1.49,1.49,0,0,1-1,.21c-2.57-.55-5.18-.14-7.76-.42a2.33,2.33,0,0,1-1.47-.55c-1.48-1.54-3.66-2-5.23-3.3-3-2.45-5.87-5-7.46-8.71Z"/><path class="cls-6" d="M334.52,140.86a114.62,114.62,0,0,0,13.07,11.37,83.32,83.32,0,0,1,9.73,8.64c1.29,1.33,1.13,1.43-.11,2.8s-3.17,1.84-4.61,3a4.2,4.2,0,0,1-2.42,0c-5.54-1.89-9-6.53-13.5-9.86a67.35,67.35,0,0,1-6-5.68,6.34,6.34,0,0,1-2-4.39c-.12-2.86.69-4,3.39-5,.48-.18,1-.26,1.32-.79Z"/><path class="cls-5" d="M587.28,405.9c-.85.62-2,0-2.83.6H583c-.2-.27-.62-.4-.52-.85A4.87,4.87,0,0,1,587.28,405.9Z"/><path class="cls-7" d="M622.9,406.5a13.75,13.75,0,0,1,6.41,0Z"/><path class="cls-8" d="M481.22,234.56c.62,3.33,1.22,6.66,1.88,10,.61,3.12,2.61,5.09,5.24,6.77s5.31,1,8,1c4.16-.1,8.26-.39,12.33,1.16a61,61,0,0,1,11.22,5.32c1.58,1,2.94,2.25,3.14,4.31.05.59.6.85,1,1.16a3.87,3.87,0,0,1,1.85,3.41,3.47,3.47,0,0,0,1.29,2.51c2.17,2.24,2.69,5.06,2.6,8a26.42,26.42,0,0,0,.42,3,105.4,105.4,0,0,1,.66,12.05,31.46,31.46,0,0,1-1.42,7.65c-.81,2.69-1.75,5.32-2.76,7.93a7,7,0,0,1-2.89,3.68c-1.55,1.07-2.6,2.58-4,3.8-3.32,3-6.75,5.62-11.22,6.66a27.86,27.86,0,0,0-3.25,1c-2.91,1.07-6,1-9,1.71-3.56.84-7.22.76-10.78,1.53a4.77,4.77,0,0,1-1.3.15,59.49,59.49,0,0,1-12.56-2.08,44.6,44.6,0,0,1-15.44-7.46c-2.06-1.54-4.06-3.16-6.06-4.77-1.16-.93-1.77-2.42-3-3.32a62,62,0,0,1-8.76-20.6,99.43,99.43,0,0,1-2.81-15.85c-.56-6.41-1-12.85-2.07-19.22a27.52,27.52,0,0,1-.48-5.21,53.28,53.28,0,0,1-.33-6.68c0-2-.56-2.49-2.48-2-3.23.84-6.54.78-9.82,1a126.34,126.34,0,0,0-18.28,2.3c-4.59,1.05-9.28,1.55-13.94,2.16-3.3.44-6.68.4-9.91,1.4a6.31,6.31,0,0,1-2.16.25c-4.38-.21-8.7.52-13,.78-2.82.18-5.59.53-8.37.95-1,.15-1.65.61-1.45,1.73.85,4.57.35,9.2.61,13.79a91.7,91.7,0,0,0,.77,13.45c.31,2,.38,4.12.56,6.18a56.39,56.39,0,0,1-.14,10.55c-.3,3.06-.31,6.18-.75,9.22-.82,5.64-1.65,11.32-4.93,16.23-.51.77-.61,1.75-1.3,2.41a14.9,14.9,0,0,0-1.95,1.94c-2.06,2.86-4.73,5.11-7.15,7.62a28.27,28.27,0,0,1-6.12,4.4,50.52,50.52,0,0,1-14.7,6.48c-2.13.49-4.31.35-6.46.64a87.09,87.09,0,0,1-13.8.49,36.42,36.42,0,0,1-10.76-1.54,29.1,29.1,0,0,1-8-4.12c-1.61-1.19-3.65-1.66-5-3.17a37.18,37.18,0,0,1-5.8-8.42c-1.35-2.75-2.79-5.41-3.38-8.42-1.42-7.23-2-14.43,0-21.73a94.69,94.69,0,0,1,2.88-9.12c1.06-2.79,3.35-4.83,5.16-7.17,2.8-3.61,6.76-5.57,10.91-6.89,3.41-1.08,7.07-1.38,10.64-1.92,4.37-.67,6.37-3.89,7.67-7.48a13.23,13.23,0,0,0,.26-6.05c-.63-4.82.5-9.45,1.12-14.15.39-3,1.69-5.63,2.43-8.48.46-1.73,2-3.21,2.83-5a101.76,101.76,0,0,1,5.5-9.41c2.63-4.28,6-8,9-11.94,1.71-2.22,4.35-3.51,6.51-5.31,6.34-5.26,13.53-9.18,20.84-12.91,2.11-1.09,4.15-2.58,6.4-3.06,4-.87,7.72-2.75,11.9-3.09,2.49-.19,4.91-1.29,7.37-1.95s4.92-1.53,7.52-.87a6.12,6.12,0,0,0,2.73-.18,5.73,5.73,0,0,1,3.57.08,1,1,0,0,0,.71,0c2.13-.81,4.3-.48,6.48-.3a24.22,24.22,0,0,0,4.5-.18,22.34,22.34,0,0,1,7.74.7c2.77.71,5.42-.16,8.11.52a41,41,0,0,0,7.47.85c1.67.09,3.29,1.24,4.9,2a9.5,9.5,0,0,0,4.42,1.2,2.18,2.18,0,0,1,1.13.21c3.23,1.85,7.08,2.35,10.13,4.64a7.76,7.76,0,0,1,1.79,1.44c.06.08.12.23.18.23,1.92.09,3.25,1.57,5,2.11.69.22,1.43.25,1.89.91a1.65,1.65,0,0,0,1.11.59,3.41,3.41,0,0,1,2,1.14,5.9,5.9,0,0,0,3,2.13c1.25.4,1.14,1.81,1.77,2.69,2.29,3.23,4.55,6.48,7,9.6a22,22,0,0,1,2.4,3.64,4,4,0,0,0,1.41,1.81c.93.32,1.22,1.2,1.63,1.94a75.66,75.66,0,0,1,5.82,13.38A2.56,2.56,0,0,1,481.22,234.56Z"/><path class="cls-8" d="M587.28,405.9a20.31,20.31,0,0,0-4.8-.25,2.1,2.1,0,0,0-2.09-.21,2.41,2.41,0,0,1-2.93-.38,1.59,1.59,0,0,0-1.38-.27c-1.29.29-2.56.52-3.63-.59a.8.8,0,0,0-.68-.19c-1.06.42-1.92,0-2.94-.3a24.3,24.3,0,0,0-7.94-.41c-1.28.1-2.52.27-3.47-.89a1,1,0,0,0-1.08-.24c-.79.25-1.07-.18-1.62-.68a2.64,2.64,0,0,0-2.43-.88,3.07,3.07,0,0,1-3.51-1.07,4.55,4.55,0,0,0-2.53-1.85c-.17,0-.46-.21-.46-.32,0-1.61-1.51-1.83-2.35-2.63a2.24,2.24,0,0,1-.93-2.26,4.33,4.33,0,0,0-.86-3.43,7.68,7.68,0,0,1-1.24-5.8c.27-1.62.34-3.28.57-4.91.08-.54-.16-1.42,1.12-1.16.36.07,1.12-1.2,1.49-2,.23-.5-.43-.48-.78-.58-.55-.89-.12-1.29.73-1.56a2.34,2.34,0,0,0,1-4.05,21.36,21.36,0,0,1-4.11-5.25,3.6,3.6,0,0,1-.69-2.32c.1-.65-.37-.95-.83-1.23a2.56,2.56,0,0,1-1.31-3,8.82,8.82,0,0,0-.21-3,11.15,11.15,0,0,1,.27-5c.5-1.72,1-3.44,1.36-5.2.37-1.93,1.85-3,3.34-4,1.72-1.18,1.73-1.18.1-2.33-2.49-1.75-4.6-4-5.18-6.92s-1.68-5.8-.79-9c.81-2.89,1.58-5.78,2.55-8.62.32-.92,1.21-1.23,1.9-1.72,2.06-1.45,2.11-1.71.65-3.79-.62-.9-1.51-1.66-1.63-2.86a8.14,8.14,0,0,1-1.62-4.17.45.45,0,0,0-.12-.26c-1.19-1.06-1.1-2.47-1.39-3.89a19.09,19.09,0,0,1,.08-5.45,3.13,3.13,0,0,1,1.05-2.17c.18-.16.47-.35.46-.53,0-2,1.61-2.54,2.88-3.48,2-1.49,3.82-3.21,6.11-4.35A36.69,36.69,0,0,1,553,277.8a6.2,6.2,0,0,0,2.15-1.18,2.21,2.21,0,0,1,1.27-.66c2-.07,3.41-1.44,5-2.43,1.79-1.13,3.71-2.07,5.57-3.09,1.51-.66,3-1.26,4.52-2a25.37,25.37,0,0,1,5.46-1.68c2.32-.57,4.61-1.65,7-1.81,3.32-.23,6.54-1.17,9.94-1a54.32,54.32,0,0,0,9.68-.65,40.19,40.19,0,0,1,7.07-.46c2,.1,4-.19,5.9.18a33.39,33.39,0,0,0,4,.2,1.83,1.83,0,0,1,1.63,2.38,5.67,5.67,0,0,0-.1.57c-.1.65.72,1.46-.22,2a4.23,4.23,0,0,1-3.37.45,3.13,3.13,0,0,0-2.35,0,2,2,0,0,1-1,.12c-3.75-.55-7.3,1-11,1.06-2.31,0-4.59.21-6.89.36a96.42,96.42,0,0,0-10,.78c-2.77.49-5.61.78-8.34,1.55-1.84.53-2.28,1.28-2.09,3.2a3.41,3.41,0,0,1-.92,3.21,1.29,1.29,0,0,0-.51,1c0,1.74-.29,3.52-.16,5.2a10.67,10.67,0,0,0,1.18,4.68,6.2,6.2,0,0,1,.74,2.92c.08,1.57,1.25,2.66,2.2,3.74s1,2.35-.56,2.75c-2.84.72-5.4,2.52-8.51,2.17a.75.75,0,0,0-.42.07c-4.75,2.27-9.93,3.06-15,4.31-3,.73-5.06,2.79-7.15,4.8-.71.67-.3,1.49.7,1.59a9.71,9.71,0,0,0,4.55-.71c2.56-1,5.35-.7,8-1.36,2.94-.75,6.2-.27,8.86-2.23a9.69,9.69,0,0,1,2.74-.9,24,24,0,0,1,5.88-1.16,2.32,2.32,0,0,0,2.1-1.56c.39-1,2-1.65.94-3.23.53.15,1,.44,1.18.32,1.86-1.79,3.66.37,5.47,0,.28-.05.61.1.86,0,2.89-1,5.83-.56,8.76-.3,1.66.15,3.26-.31,4.91-.3,4.7,0,9.39.49,14.1.38a28.85,28.85,0,0,0,6.75-.8c3.33-.89,6.73-.21,10.09-.42,4.82-.29,9.65-.28,14.43-1.09a13.44,13.44,0,0,1,2.62-.07,7.47,7.47,0,0,0,3.38-.67c1.6-.73,3.33-.53,5-.45.88.05,1.19.72,1.09,1.57a5.45,5.45,0,0,1-3.87,4.3,42.93,42.93,0,0,1-8,.73c-2.06.07-4.26.5-6.4.76a49.5,49.5,0,0,1-8.53.31c-3.94-.2-7.9-.5-11.86.5-2.57.65-5.31.07-8,.22-2.34.12-4.7-.64-7,.18a3.07,3.07,0,0,1-1.85-.19c-2.9-.73-5.79.22-8.68,0-1.3-.09-2.62.21-3.9-.22,0,0-.11-.05-.14,0-2.57,1.69-5.48.22-8.18.87a6.22,6.22,0,0,0-4.54,4.07,26,26,0,0,0-1.87,9.44c-.06,2.13-.39,4.45.53,6.58a.7.7,0,0,1,0,.55c-.89,1.56,0,2.49,1.1,3.45a17.25,17.25,0,0,1,2.21,2.31c.72.94.42,1.57-.74,1.8a24.8,24.8,0,0,1-5.89.59c-3.93-.16-7.83.49-11.72.8a36,36,0,0,0-8.94,1.58c-.55.19-1.1.36-1.63.6a1,1,0,0,0-.68.88c0,.55.49.5.81.67,3.14,1.67,6.54.84,9.84,1,1.13-1.25,2.13-.35,3.35,0a11.08,11.08,0,0,0,6.79-.48c.17-.06.42-.15.55-.07,2.14,1.1,4.24-.14,6.36-.16,2,0,3-2,4-3.48s1-1.58,3-1a8.42,8.42,0,0,0,3.71.42c1.7-.26,3.45.2,5.1-.48a1.33,1.33,0,0,1,.86,0c3.37,1,6.68-.33,10-.23,2.91.09,5.77-.34,8.65-.45,5.24-.18,10.52.24,15.72-.75a2.92,2.92,0,0,1,2.82.8c.54.59.89.5,1.36-.06a2,2,0,0,1,1.53-.75c3,0,5.89-.48,8.82-.42,1.06,0,2.44-.2,3.52.55a1,1,0,0,0,1,0c2.52-.93,5.23-.6,7.75-.51,1.59.06,3.34.56,5,.65.14,0,.38.07.39.13.16,1.05-.36,2.06-.18,3.14.08.44-.55.64-1,.74a3.07,3.07,0,0,0-1.7,1.05,3.14,3.14,0,0,1-3.31,1,4.63,4.63,0,0,0-3,.14c-1,.41-2-.1-3-.08-2.26.06-4.51-.4-6.8-.07a29.56,29.56,0,0,1-5.94-.18c-2.72-.18-5.47.13-8.2.18s-5.68-.29-8.53-.45a4.12,4.12,0,0,0-1.44,0,12.52,12.52,0,0,1-4.57.39,42.38,42.38,0,0,0-7.38.26,69.58,69.58,0,0,1-10,.5c-1.3,0-2.62-.21-3.86.42a.58.58,0,0,1-.42.08c-2.61-1-5.41-.14-8-.8a2.47,2.47,0,0,0-3.08,1.18c-.57.94-1.41,1.72-2.07,2.61-1,1.38-.88,3-1,4.62a56,56,0,0,0,.08,13.38,5.57,5.57,0,0,0,1.15,2.29c.71,1,.42,1.32-.77,1.57-2,.41-3.84,0-5.75-.24a2.31,2.31,0,0,0-1.26.26,10.21,10.21,0,0,1-7.75.34,2,2,0,0,0-1.29,0c-3.09,1.29-6.45,1.18-9.64,1.91-.14,0-.3,0-.43.06-.85.24-2.19.16-2.21,1.23s1.23,1,2.14,1.13a24.33,24.33,0,0,1,2.81.64c4.54,1.14,9.24.91,13.82,1.77,1.37.26,2.92-.61,4.38-.2,3.46,1,4.71-2,6.69-3.66a2.7,2.7,0,0,1,2.05-.93c4.33.49,8.45-.74,12.61-1.57,1.79-.35,3.54,0,5.32-.1,4.71-.35,9.46-.25,14.16-.71,3.38-.33,6.77,0,10.15-.46,2.74-.33,5.55.35,8.32-.3,1.14-.27,2.31.16,3.46.24a51.14,51.14,0,0,0,7.73,0c2.76-.23,5.51.32,8.27.27a9.77,9.77,0,0,0,4.64-.95c.87-.46,3.3.63,3.56,1.55a1.48,1.48,0,0,1-.72,1.75,11.46,11.46,0,0,0-3.54,3.18,1.14,1.14,0,0,1-.87.46c-2.51-.24-5,.49-7.46.3a15,15,0,0,0-5.1.12.62.62,0,0,1-.43,0c-2.07-1.5-4.19.17-6.24-.09-1.83-.23-3.73.57-5.3.16-2.28-.59-4.27.15-6.38.25-1.91.1-3.76-.32-5.65-.36-4.18-.07-8.31.64-12.47.6a126.28,126.28,0,0,0-14.67,1.17s-.1,0-.14,0c-2.77-.78-5.61.16-8.39-.31-3-.49-4.78.94-5,4a46.36,46.36,0,0,0-.52,6.62c.17,2.62.06,5.31,1.84,7.71a40,40,0,0,1,3,4.61,2.22,2.22,0,0,0,1,1c.3.15.74.25.74.63,0,1.62,1.14,2,2.34,2.55a10.43,10.43,0,0,1,2.8,2.29c.53.48.23.85-.07,1.25s-1.06.66-1.56,1Z"/><path class="cls-5" d="M539.94,304.77c.87,1.22,1.78,2.41,2.62,3.66a1.73,1.73,0,0,1-.62,2.79c-.32.21-.67.38-1,.59-2.39,1.61-2.43,4.39-3.31,6.73a22,22,0,0,0-.83,3.82,8,8,0,0,0,.23,5.1,3.16,3.16,0,0,1,.3,2.66c-.15.36.11.64.32.91a3.2,3.2,0,0,1,.58.83c.85,2.89,3.06,4.55,5.43,6.08.93.59,1,1.18-.08,1.73a12.24,12.24,0,0,0-2.93,2.12,4.36,4.36,0,0,0-1.39,2.64,38.25,38.25,0,0,1-1.32,5.05,11.25,11.25,0,0,0-.24,4.59,8,8,0,0,1,.17,3.71c-.34,1.14.49,1.78,1.4,2.26.64.34,1.36.62.78,1.61-.28.48.12.92.34,1.34a19.43,19.43,0,0,0,4.81,6.14c.71.59,1,1.27.46,2s-.27,2.5-2.06,2.3c-.92-.09-.77.64-.8,1.2a4.24,4.24,0,0,1-3.47-.47c-1.85-1.18-3.79-.91-5.68-.81a28.83,28.83,0,0,1-5.17-.28c-4.41-.56-8.86-.88-13.31-1.22a18.79,18.79,0,0,1-4.57-.64c-1.06-.36-2.36.37-3.51,0-4.17-1.35-8.57-1.17-12.83-2a123.57,123.57,0,0,0-13.16-1.83,12.88,12.88,0,0,1-5.29-1.43.86.86,0,0,0-.83-.14c-1.29.7-2.57.32-3.8-.08-3.13-1-6.41-.64-9.61-1.08-2-.27-4-.15-6.06-.56a11,11,0,0,0-4.91,0,3.74,3.74,0,0,1-3-.56,6.54,6.54,0,0,0-3.88-1c-1.25.07-2.42-.45-3.72-.32-.77.08-.7-.89-.33-1.32,1.47-1.69.39-3-.64-4.2a6.48,6.48,0,0,1-1.41-2.33,6.19,6.19,0,0,0-1.07-2.05c-3.28-4.08-6.66-8-11.53-10.36-.73-.35-1.31-.84-1.16-1.79,1.84-1.4,3.59-3,6.06-3.15a2.54,2.54,0,0,0,1.24-.38c2.11-1.49,4.67-1.86,7-2.85,5-2.13,10.31-2.82,15.64-3.57a27.44,27.44,0,0,0,7-1.87A46.58,46.58,0,0,1,471.78,325a68.48,68.48,0,0,0,7.93,1.64,46.07,46.07,0,0,0,9.74-.28c4-.47,7.92-1.45,11.95-1.76a30.29,30.29,0,0,0,4.33-1.18,55.56,55.56,0,0,0,6.57-2.18,15.3,15.3,0,0,0,4.47-2.91c1.21-1,2.4-2.11,3.71-3a1.62,1.62,0,0,0,.45-.36c1.5-2.45,4.3-3.68,5.78-6.15C531.1,307.4,535.64,306.47,539.94,304.77Z"/><path class="cls-5" d="M433.51,248.83c.29,4.68,1.21,9.29,1.67,13.95.25,2.49.42,5,.64,7.5.31,3.56.89,7.08,1.31,10.62a49.22,49.22,0,0,0,1.59,7.33c.93,3.4,1.85,6.84,3.1,10.19,1.52,4,3.88,7.55,5.78,11.33.33.73-.18,1.23-.56,1.68-6.7,8-14.61,14.41-24.46,18.15-3.12,1.18-6.35,2.09-9.44,3.37-1.36.56-1.55,1.1-.66,2.24.48.61,1,1.16,1.51,1.77,1.08,1.37,2.3,2.51,4.25,2.31a.81.81,0,0,1,.65.29,11,11,0,0,1,1.64,4.23c.28,1.56.9,3.1,1.07,4.75a37.82,37.82,0,0,1-.24,12c-1,4.82-4.1,7.77-8.48,9.6a5.35,5.35,0,0,1-2.14.34c-1.79,0-3.59.07-5.38,0a12.52,12.52,0,0,1-8.86-4.32c-1.08-1.17-2-2.53-2.94-3.79a4.34,4.34,0,0,0-2-1.58c-1.26-.43-1.33-1.51-1.12-2.64-.12-1.61.77-2.83,1.33-4.24,1-2.5,2.14-5,3.06-7.49,1.06-2.95,2.17-5.9,3.22-8.86.69-1.93.51-2.24-1.57-2.1-3.58.22-7.16.29-10.74.19a70.23,70.23,0,0,0-7.68-.09,10.47,10.47,0,0,1-4-1c-3.56-1.26-7.38-1.64-10.84-3.18a36.21,36.21,0,0,1-7.56-4.17,2.13,2.13,0,0,0-.73-.44c-2.71-.64-4.73-2.38-6.7-4.18a6.5,6.5,0,0,1,1.29-3.18,27.46,27.46,0,0,0,3.73-11.31c.17-1.81,1-3.5.94-5.39-.09-2.42.67-4.8.5-7.25a18.18,18.18,0,0,1,.28-2.73,47.54,47.54,0,0,0-.41-11.3c-.28-2-.48-4.06-.59-6.09-.19-3.56-.69-7.12-.31-10.7a8.65,8.65,0,0,0,5.49-.84,2.63,2.63,0,0,1,2.95.17,1.41,1.41,0,0,1,.34.47c.67,1.9.68,1.81,2.62,1.87a22,22,0,0,0,4.73-.64c2.72-.51,5.49-.38,8.21-.84.79-.13,1.62-.25,1.63-1.44,0-1.66-.58-2.23-2.42-2.09-.94.07-1.9.57-2.79-.17a3.66,3.66,0,0,1,3.6-1.68c3,.06,5.74-.87,8.58-1.42,6.62-1.27,13.16-2.88,19.73-4.35a85.59,85.59,0,0,1,9.87-1.58c1.4-.15,2.68-1,4.15-1.16a59.9,59.9,0,0,0,7-1.49A15.12,15.12,0,0,1,433.51,248.83Z"/><path class="cls-6" d="M390.42,358.15a3.56,3.56,0,0,1,.34,1.4c.06.44.26,1,.75.92,1.31-.14,1.75.86,2.37,1.63,1,1.26,1.94,2.54,2.92,3.8a4.84,4.84,0,0,0,1.09,1.16c2.59,1.62,5.09,3.51,8.45,3a11.92,11.92,0,0,1,1.89,0c7.29.19,12.19-4.16,13.12-11.44.53-4.19-.15-8.31-.28-12.47a2,2,0,0,0-.59-1.29c-.58-.61-1-1.19-.38-2.05.33-.49-.16-.9-.42-1.29a3.88,3.88,0,0,1-1-1.91,1.22,1.22,0,0,1,1.06-1.17,4.59,4.59,0,0,1,4.05,1.78c.44,1.11,1.55,1.31,2.41,1.89a26.24,26.24,0,0,1,5.32,4c1.76,2,3.91,3.67,5.29,6,1.07,1.81,1.8,3.8,3.25,5.43.83.94,1.39,2.31-.2,3.35-.3.19-.23.61-.14,1.08a4.84,4.84,0,0,1,3.94.54c1,1.67,1.5,3.56,2.31,5.26,1.52,3.23,3.09,6.45,4.53,9.71,1.12,2.53,2.28,5.13,1.21,8.07a14.38,14.38,0,0,0-.28,2.74c-.06.38-.18,1.11-.71.86-1-.49-1.57.18-2.23.57a10.52,10.52,0,0,1-5.54,1.51,8.38,8.38,0,0,0-2.44.31c-2.82.8-5.75.43-8.61.73-3.07.32-6.15.45-9.22.66s-6.34,1.09-9.66.57c-1.54-.24-3.36.17-5,.05-2.92-.2-5.8.2-8.7.15-2.56-.05-5.13.33-7.7.45s-4.88-.66-7.35-.67c-.71,0-1.44-.11-2.17-.14s-1.46-.26-1.67-1.11c-.61-2.49-1.69-4.9-1.13-7.57.06-.28-.05-.65.1-.85,1.82-2.48,1.22-5.6,2.23-8.29,1.42-3.78,2.31-7.73,4.34-11.32a17.13,17.13,0,0,0,2.45-5.49C388.73,357.35,389.69,358.09,390.42,358.15Z"/><path class="cls-6" d="M481.22,234.56a35.07,35.07,0,0,1-2.5-6.32c-1.33-3.69-3.42-7-5.26-10.39,4.87-5.08,10.21-9.68,14.82-15a2.65,2.65,0,0,1,1.61-.91c1.49-.26,2,0,2.33,1.5.13.56.29,1.12.4,1.69a5,5,0,0,1-2.05,5.57c-3.52,2.67-6.26,6.2-9.46,9.24-.2.2-.42.45-.24.77s.49.26.78.27a29.33,29.33,0,0,0,4.75-.57q6.84-.79,13.69-1.46c3.81-.36,7.56-1.29,11.4-1.22,2.7,0,5.37-.43,8.06-.33,1.51,0,3,.06,4.51.06,1.87,0,2.59.95,2,2.69-.07.22-.2.51-.12.69.83,1.88-.6,3-1.44,4.28A5.72,5.72,0,0,1,521,228a29.24,29.24,0,0,0-4.52,1.93,4.23,4.23,0,0,1-1.77.62c-2.34-.19-4.54.75-6.85.68a6.06,6.06,0,0,0-2.69.48c-.22.1-.53.3-.67.23-1.74-1-3.4.31-5.1.14a2.11,2.11,0,0,0-1.15.06c-2.33,1.32-5,1.1-7.51,1.67-1.14.26-2.49.86-3.8.33a1.08,1.08,0,0,0-.7.08A11,11,0,0,1,481.22,234.56Z"/><path class="cls-8" d="M593.73,158.79a30.92,30.92,0,0,1-.47,5.15,12,12,0,0,0,.2,3.17c.24,2.4-.91,4.53-.93,6.86a1.41,1.41,0,0,1-1.4,1.26,4.23,4.23,0,0,1-3.7-.87c-2-2-4.15-4.06-2.79-7.38a.89.89,0,0,0,.07-.42c-.84-5.11-.06-10.24-.26-15.36-.05-1.22.62-1.84,1.83-1.56.85.2,1.29.05,1.54-.76.1-.31.22-.68.67-.64a.89.89,0,0,1,.78.76,6.11,6.11,0,0,0,3.38,4.13,1.62,1.62,0,0,1,.83,1.45A25.73,25.73,0,0,1,593.73,158.79Z"/><path class="cls-8" d="M569.88,178.86c0,1-.54,1.49-1.46,1.28-1.37-.32-2.94-.35-3.7-1.9a.79.79,0,0,0-.86-.41c-.52,0-.67-.27-.7-.71a3.64,3.64,0,0,0-1.61-2.58,8.33,8.33,0,0,1-1.5-2.33,78.75,78.75,0,0,1-4.45-9,4,4,0,0,1-.33-3,1.76,1.76,0,0,0-.23-1.53,4.12,4.12,0,0,1-.32-2.27c0-.36.09-.64.53-.73a7.26,7.26,0,0,1,8.12,4.72c.39,1.11.72,2.18,1.89,2.77a1.68,1.68,0,0,1,.81,1.48c.07,3.06,1.53,5.67,2.71,8.33C569.63,175,569.55,176.93,569.88,178.86Z"/><path class="cls-8" d="M615.4,179c-.92-.16-1.82-.55-1.85-1.84a11.69,11.69,0,0,0-1-4.94,2.49,2.49,0,0,1,.14-2.5,124.33,124.33,0,0,0,5.76-11.41,12.08,12.08,0,0,1,1.39-2.21c.79-1,1.57-1,2.41,0,.06.07.11.16.17.24,1.17,1.59,3.27,3.1,3.24,4.84,0,2.33-1.29,4.71-2.31,6.93a27.34,27.34,0,0,0-1.9,5.31C620.88,175.73,617.45,178.94,615.4,179Z"/><path class="cls-6" d="M363,164.7c3.67.08,5.31,1.18,5.7,4,.25,1.83-.39,3.62-.63,5.41a2.15,2.15,0,0,1-2.18,1.79,34.11,34.11,0,0,1-3.46.36c-4.05-.15-5.67-2.85-5.31-6.74C357.45,165.86,359.18,164.61,363,164.7Z"/><path class="cls-8" d="M614.19,234a36.78,36.78,0,0,1-2.05,12.35,9.64,9.64,0,0,1-1.46,2.65,1.78,1.78,0,0,1-2.13.82c-1-.42-.41-1.32-.38-2,.12-3.48,2.26-6.42,2.64-9.85.19-1.71.82-3.37.74-5.14a1.73,1.73,0,0,1,.46-1.33c.43-.46.55-.88.1-1.39s-.16-1,.13-1.45a.62.62,0,0,1,.74-.33,1.32,1.32,0,0,1,.85,1.25A26.08,26.08,0,0,1,614.19,234Z"/><path class="cls-8" d="M595.64,241.21c-1.32,4.15-1.54,8.67-4.35,12.3a2,2,0,0,1-.18.23c-.62.54-1.06,1.66-2.09,1.18s-.8-1.57-.71-2.47a13.57,13.57,0,0,1,2.43-6.43,50,50,0,0,0,3-5.32c.3-.55.41-1.59,1.17-1.41S595.58,240.44,595.64,241.21Z"/><path class="cls-8" d="M599.28,250.76a10.35,10.35,0,0,1,1-4.67c1-2.37,1.66-4.85,2.48-7.28a3.69,3.69,0,0,1,.31-.8c.3-.45.72-.91,1.28-.84s.52.77.5,1.2c-.14,3.38.44,6.85-1.57,10-.58.9-.33,2.26-1.1,3.21-.15.18-.21.44-.35.63-.51.73-1.14,1.56-2.08,1.3s-.37-1.24-.51-1.9A5.55,5.55,0,0,1,599.28,250.76Z"/><path class="cls-7" d="M361.55,234.4a7.24,7.24,0,0,0,0-1.16c-.09-.46-.09-1-.65-1.2s-.75.3-1.06.6a20.69,20.69,0,0,1-4.8,3.74c-3,1.52-6,1.55-7.95-2.17s-1.53-6.3,1.74-8.9a34.35,34.35,0,0,1,5.35-3.19c.43-.23,1.28-.23,1.13-.84s-.94-.34-1.43-.29c-3.65.35-6.66-1.09-8-4.36-.93-2.21-1.86-4.61-.8-7.09,1.15-2.7,5.66-4.29,8.32-3a18.26,18.26,0,0,1,1.74,1c.48.32,1,.83,1.56.47s.24-1,.09-1.57c-.64-2.28-1.34-4.56-1-7,.36-2.26.7-4.51,2.87-5.92a5.89,5.89,0,0,1,5.09-.14c2.82,1.41,3.41,4.22,4.5,6.73.22.5.36,1.2,1,1.1s1.46-.31,1.49-1.29a1.37,1.37,0,0,1,.25-.67,22.88,22.88,0,0,1,4.53-5.09,7.77,7.77,0,0,1,6.16-1.52,3.94,3.94,0,0,1,3.29,3.72c.3,2.87-1,5.28-2.26,7.67s-.92,3.14,1.87,3.15a21.29,21.29,0,0,1,5.9.6,6.37,6.37,0,0,1,4.52,3.77,4.91,4.91,0,0,1-2.79,6.33,18.89,18.89,0,0,1-6.6,1.54c-.29,0-.58,0-.87,0a1.42,1.42,0,0,0-1.34.72c-.21.54.44.77.79,1,1.13.83,2.3,1.62,3.45,2.42a5.81,5.81,0,0,1,2.39,3.37c.43,1.63,1.26,3.17.53,5a5.72,5.72,0,0,1-5.33,4,10.84,10.84,0,0,1-9.33-4.12c-.28-.34-.55-.68-.85-1-.15-.16-.4-.37-.57-.35-.39.05-.25.44-.3.71a40.32,40.32,0,0,1-.85,5,9.63,9.63,0,0,1-1.75,3.32,2.86,2.86,0,0,1-2.66,1.17,3.83,3.83,0,0,0-2,.14,1.57,1.57,0,0,1-1.52-.3C363.15,239.07,361.26,237.3,361.55,234.4Z"/><path class="cls-6" d="M433.51,248.83c-4.41.53-8.67,1.86-13.05,2.5-1.52.22-2.9,1.29-4.21,1.23-2.14-.11-4,.79-6.07.89a38.71,38.71,0,0,0-9.78,2c-4.65,1.45-9.48,1.86-14.16,3.06-2.7.69-5.37,1.53-8.26,1.37a6.23,6.23,0,0,0-3.63,1.27,2.89,2.89,0,0,1-1.77.94c-3.56.66-7.05,1.75-10.7,1.93-2.32-.7-4.16,1-6.32,1.27-.89.09-1.46.12-1.95-.62-.05-1.11-.15-2.22-.14-3.34a57.86,57.86,0,0,0-.54-10.43c-.35-1.92-.19-2,1.77-2.26a51.85,51.85,0,0,1,6-.84c4.94-.1,9.82-1.27,14.77-.91,2.62.19,5-.84,7.59-1.06a130.24,130.24,0,0,0,18.75-2.67,106.2,106.2,0,0,1,11.83-1.88c2.25-.27,4.57-.34,6.86-.48,3.57-.21,7.16-.22,10.62-1.25,1.2-.35,1.77.12,1.95,1.23a19.89,19.89,0,0,1,.2,2.17C433.38,244.9,433.44,246.86,433.51,248.83Z"/><path class="cls-6" d="M441.2,254.87a128.18,128.18,0,0,1-.35-14c0-.34,0-.68,0-1s.17-.79.62-.86.63.37.75.72a37,37,0,0,1,1.2,6.26c.91,5.63,1.46,11.34,2.73,16.88A64.68,64.68,0,0,0,452,278.75c1.76,3.33,3.19,6.83,4.74,10.27.36.81.12,1.24-.85,1.32-1.94.17-3-1.15-3.85-2.44-1.76-2.64-4-5-5.09-8-2.16-6.3-4.57-12.52-5.3-19.22A25.62,25.62,0,0,1,441.2,254.87Z"/><path class="cls-6" d="M342,294.28c.51-4,1.39-7.91,2.29-11.88A67.8,67.8,0,0,0,346,262.26c-.24-3.23-.15-6.49-.21-9.74,0-.37-.1-.84.44-.93s.68.28.86.64c.07.13.2.29.17.4-.71,2.44,1.52,4.07,1.71,6.35s.57,4.5.91,6.75a49.6,49.6,0,0,1,.11,10.55,82.72,82.72,0,0,1-1.94,13.41c-.13.56-.14,1.17-.84,1.4a.62.62,0,0,0-.42.67,6.43,6.43,0,0,1-3.18,5.7c-.82.52-1.06.27-1.31-.51A15.94,15.94,0,0,1,342,294.28Z"/><path class="cls-6" d="M308.53,278c-4.18.19-7.17,2.19-10.12,4.51a29.69,29.69,0,0,0-9.74,14.11,4.35,4.35,0,0,1-.58,1c-.82,1.18-1.44,1.19-2.18,0a8.13,8.13,0,0,1-1-7.21,14.75,14.75,0,0,1,2.61-5.15c4-4.6,8.53-8.47,14.65-9.92a12,12,0,0,1,5.61.09,2.57,2.57,0,0,1,1.05.47c.58.47,1.55.9,1.35,1.72S308.88,277.75,308.53,278Z"/><path class="cls-6" d="M481.35,264.68a2.36,2.36,0,0,1,1.42-1.65,35.5,35.5,0,0,1,11.55-3.65,40.69,40.69,0,0,1,8.8-.51c5.91.4,10.76,3.22,15.09,7.07.71.64.4,1.06-.35,1.38a2.76,2.76,0,0,1-2.25,0c-1.38-.59-2.81-1.08-4.13-1.78a30.23,30.23,0,0,0-10.32-3.28,23.05,23.05,0,0,0-4.77,0C491.39,262.7,486.34,262.76,481.35,264.68Z"/><path class="cls-6" d="M450.46,250.35c.31-1-.06-2.59.86-2.7s1.24,1.43,1.42,2.38c1.57,8.39,5.29,16,8.82,23.59.07.14.2.26.2.39,0,.89,1.15,1.94,0,2.61a2.55,2.55,0,0,1-3-.71,11.12,11.12,0,0,1-3-4.72c-1.27-4.36-3.48-8.42-4.21-12.94C451.06,255.63,450.79,253,450.46,250.35Z"/><path class="cls-6" d="M297.83,295.64a8.51,8.51,0,0,1,1.93-4.74,24.53,24.53,0,0,1,10.64-7.31c.63-.23,1.52-.76,2,0s-.49,1.22-.94,1.71c-1.42,1.58-2.94,3.08-4.35,4.68a15.2,15.2,0,0,0-4,8.9,3,3,0,0,1-.42,1.52c-.83,1.22-1.82,1.23-2.67.08C299,299.05,297.84,297.71,297.83,295.64Z"/><path class="cls-6" d="M481.89,273.44a2.85,2.85,0,0,1,1.9-1.29,60.08,60.08,0,0,1,12.88-2.73A16.35,16.35,0,0,1,508,272a23.89,23.89,0,0,1,3.1,2.07c.57.55.4.88-.17,1.21a3.51,3.51,0,0,1-2.81.27c-1.63-.44-3.29-.83-4.87-1.43-4.39-1.66-8.93-1.4-13.48-1.2C487.23,273.06,484.69,273.26,481.89,273.44Z"/><path class="cls-6" d="M337.13,267.08a44.67,44.67,0,0,1-1,9.78,3.23,3.23,0,0,1-2.86,2.49c-.91.18-1.6-.07-1.26-1.23a4.11,4.11,0,0,0-.41-2.8,4.17,4.17,0,0,1-.11-2.83c1.08-4,2.72-8,2.54-12.27,0-.47-.07-1.21.56-1.36s1,.48,1.2.91a11.7,11.7,0,0,1,1.33,5C337.19,265.53,337.13,266.31,337.13,267.08Z"/><path class="cls-6" d="M311.2,301.51a9.45,9.45,0,0,1,1.93-4.84c1.32-1.67,2.73-3.27,4.08-4.92a4.19,4.19,0,0,1,2.63-1.41c.75-.14,1.16.1.82,1-1.75,4.35-2.59,9-5,13.15a3.69,3.69,0,0,1-2.08,1.88c-1.37.46-1.9.17-2.07-1.24C311.41,304,311.33,302.87,311.2,301.51Z"/><path class="cls-6" d="M459.72,248.82c.3-.89-.44-2.21.58-2.41s1.11,1.23,1.39,2c2,5.36,3.82,10.74,6.81,15.65a6.9,6.9,0,0,1,.43.91c.2.46.41,1,0,1.37s-.88.28-1.37.19a4.52,4.52,0,0,1-2.51-1.32,14.44,14.44,0,0,1-3.2-5.14A48.2,48.2,0,0,1,459.72,248.82Z"/><path class="cls-6" d="M494.33,278.68a16.13,16.13,0,0,1,8.34,2.44,5.83,5.83,0,0,1,2.2,2.81c.4.83-.14,1.36-1.08,1.4a8.82,8.82,0,0,1-5.61-1.59,19.83,19.83,0,0,0-9.09-3.08c-.4-.05-1,.15-1-.52s.51-.77.89-.81C490.71,279.15,492.37,278.51,494.33,278.68Z"/><path class="cls-6" d="M322.3,272.94a27.23,27.23,0,0,1,2-7.24,52.6,52.6,0,0,0,2.44-6.51c.1-.38.11-1,.71-.94s.78.48,1,.93c.45.92,0,1.82-.06,2.72a33,33,0,0,1-1.74,8.79A7.17,7.17,0,0,1,324.4,274c-.47.36-.89,1-1.62.63S322.33,273.66,322.3,272.94Z"/><path class="cls-8" d="M394.13,325.8a8.56,8.56,0,0,1-3.64-.39,3.36,3.36,0,0,0-2,0,4,4,0,0,1-1.87.06c-1.55-.39-3.11-.67-4.67-1-2.53-.52-4.14-2.55-6.07-4.05-3.07-2.38-4-5.75-4-9.35,0-3.94,2.09-6.95,4.91-9.51a2.29,2.29,0,0,1,1.43-.66c2.07.08,4.08-.65,6.2-.2,1.79.37,3.64-.27,5.49-.2a45.14,45.14,0,0,0,11.12-.85c2.36-.5,4.36-1.85,6.6-2.62a11.59,11.59,0,0,1,5.54-.78,11.54,11.54,0,0,1,8.93,10.71,15.17,15.17,0,0,1-3.6,9.72c-3.27,3.7-7.49,5.57-12.13,6.73a16.1,16.1,0,0,0-3.83,1.33c-1.36.74-2.88.27-4.27.62A12.62,12.62,0,0,1,394.13,325.8Z"/><path class="cls-7" d="M373,296.42c-4.58-.47-8.88-1.75-12-5.46a12.75,12.75,0,0,1-2.22-4.88,11.56,11.56,0,0,1-.12-6.51,41.15,41.15,0,0,1,2.32-5.44,6.22,6.22,0,0,1,3.38-3.23,9.8,9.8,0,0,0,2-1.19c.94-.68,1.78-1.44,3.12-1.06.58.17,1.18-.26,1.72-.6,3.47-2.25,8.32-1.49,11.6.84a1,1,0,0,1,.31.31c1.73,3.57,4.82,6.46,5.33,10.64a10.89,10.89,0,0,1-.76,5.54c-.63,1.56-1.72,3-2,4.72-.16,1.16-1.29,1.67-2.05,2.34a9.87,9.87,0,0,1-4,2.32C377.52,295.33,375.56,297,373,296.42Z"/><path class="cls-7" d="M400.85,279.4c1.26-3.7,1.36-8.41,5.21-11.54a6.72,6.72,0,0,0,1-1.22c.21-.27.43-.65.8-.5,1.31.55,2.11-.55,3.16-.85,2.35-.66,4.78-1.29,7.27-.8a5.84,5.84,0,0,0,2.28.19,1.13,1.13,0,0,1,.71,0c2.43,1.43,5.43,2,7.16,4.47a14.21,14.21,0,0,1,2.65,11.2,37.2,37.2,0,0,1-1.92,5.68c-1,2.84-3.28,3.63-5.52,4.72-.73.36-1.49.68-2.22,1a5.05,5.05,0,0,1-3.9.58c-1-.31-1.93.47-2.94.59a4.55,4.55,0,0,1-2.14-.05c-1.81-.65-3.63-1.27-5.43-1.95a4.08,4.08,0,0,1-1.74-1.5,14.59,14.59,0,0,0-1.71-2.17C401.37,285.33,401.14,282.66,400.85,279.4Z"/><path class="cls-8" d="M419,257.69a20.88,20.88,0,0,0,2.7-.2c1.17-.27,1.72.46,1.31,1.59a3.66,3.66,0,0,1-2.59,2.56A92,92,0,0,1,407,263.47c-.92,0-2.08.3-2.48-.92-.31-1,1-2.8,2.17-3.12a64.39,64.39,0,0,1,8.84-1.45A11.33,11.33,0,0,1,419,257.69Z"/><path class="cls-8" d="M361.88,264c.66-1,1.85-.74,2.62-.72,1.94,0,3.59-1,5.46-1.08a18.9,18.9,0,0,0,4.39-1.07c1.23.23,2.4-.34,3.61-.25,1.62.11,2.14.7,1.92,2.16-.31,2.06-.44,2.43-3.09,2.4-4.44-.05-8.69,1.31-13.09,1.38-.95,0-1.49-.28-1.52-1.27A3.73,3.73,0,0,0,361.88,264Z"/><path class="cls-8" d="M369.46,307a18.8,18.8,0,0,1-4.67-3.21c-.24-.21-.43-.64-.81-.48s-.4.67-.3,1c.34,1.35.23,2.78.7,4.12.37,1.06-.19,1.56-1.2,1.63a3.09,3.09,0,0,1-1.43-.1,17.46,17.46,0,0,1-6.05-3.91c-.69-.73-.59-1,.42-1.31a2.45,2.45,0,0,1,2.17.4,26.37,26.37,0,0,0,3.5,2.52,27.42,27.42,0,0,1,.07-7,1.5,1.5,0,0,1,1.55-1.38c.8-.09,1.47-.06,1.79,1,.61,1.93,2.11,3.33,3.32,4.89A3.46,3.46,0,0,1,369.46,307Z"/><path class="cls-8" d="M431.61,297.67a15.21,15.21,0,0,0,2.54-4.52c.22-.63.13-1.85,1.36-1.28a1.69,1.69,0,0,1,1,2.38,33.4,33.4,0,0,1-3,5,4.29,4.29,0,0,0-.85,1.5c-.12.67-.21,1.51-1.11,1.41a2,2,0,0,1-1.79-1.66,18.86,18.86,0,0,1-.32-3.89c0-.37.15-.86-.34-1s-.64.29-.86.62a24,24,0,0,1-3.59,4.5,2.83,2.83,0,0,1,.27-2.34,45,45,0,0,1,3.33-5.09c1-1.36,2.07-1.23,2.72.42A14.41,14.41,0,0,1,431.61,297.67Z"/><path class="cls-7" d="M429.53,366.68a14.76,14.76,0,0,1-1.29,3.49c-1.21,2.59-2.5,5.13-3.7,7.72a14.41,14.41,0,0,0-.86,2.6c-.17.64-.11,1.62-1,1.37s-1.89-.64-1.74-2a8.65,8.65,0,0,1,.94-3l6-11.28c.21-.4.47-.78,1-.55S429.59,365.77,429.53,366.68Z"/><path class="cls-9" d="M428.37,381.88a4.12,4.12,0,0,1,.33-2.66c1.4-2.43,2.87-4.82,4.32-7.22.18-.29.44-.6.82-.43.54.25.37.81.26,1.16-.65,2-1.36,3.91-2.08,5.86-.44,1.17-.88,2.35-1.43,3.47-.35.73-.83,1.73-1.71,1.56C427.84,383.43,428.52,382.31,428.37,381.88Z"/><path class="cls-10" d="M438.62,376.23a1.53,1.53,0,0,1,.57,1.88c-.48,1.37-.89,2.76-1.36,4.13a1.94,1.94,0,0,1-.6,1c-.57.39-1.19,1.05-1.93.62-.93-.54-.08-1.19.11-1.75C436.17,380,437.57,378.22,438.62,376.23Z"/><path class="cls-6" d="M344.9,173.19a14.15,14.15,0,0,1-2.07-2.43c-2.48-3.72-5.93-6.55-9.25-9.39s-6.89-5.82-10.53-8.5a60.09,60.09,0,0,0-5.58-3.54c-2.36-1.38-5.1.46-5.44,3.12-.27,2.1,1.19,3.25,2.12,4.52a79.39,79.39,0,0,0,5.91,6.55,1.4,1.4,0,0,1,.07,2.08c-.89,1-1.84,2-2.76,3-.75.82-1.26.58-2-.18-1.48-1.51-2.38-3.62-4.22-4.69a76.2,76.2,0,0,1-6.34-4.33,3.65,3.65,0,0,0-3.26-.83,4.57,4.57,0,0,1-2.94.1,7,7,0,0,0,1.44,6.69c1.36,1.48,2.78,3,4.27,4.34,2.08,1.94,4,4,6,6.12,2.46,2.66,5.28,4.95,7.65,7.74,1.91,2.24,4.63,3.8,7,5.6a7.37,7.37,0,0,0,4.78,1.44c1.93-.07,2.65-.74,3.11-2.62.53-2.21-.78-3.75-2.07-5.15a48.67,48.67,0,0,0-7-6.77c-1.21-.88-1.18-1.36-.11-2.46.88-.9,1.77-1.8,2.69-2.66a1.58,1.58,0,0,1,2.11-.36,24.69,24.69,0,0,1,4.07,3,17,17,0,0,0,5.8,3.74,2.77,2.77,0,0,0,3.14-.29c.32-.27.65-.5,1-.2,1.62,1.2,2-.56,2.67-1.23S345.65,173.92,344.9,173.19Z"/><path class="cls-6" d="M296.21,211.82a3.06,3.06,0,0,0-3.66.77c-1.21,1.24-1.77,2.91-2.84,4.16-1.77,2.07-3.67,4-4.86,6.49-.34.72-1,.93-1.63.22s-1.29-1.31-2-1.94-.92-1.29,0-1.91c2.9-2.07,3.47-5.31,4.27-8.43a4.72,4.72,0,0,0,.09-1.3c-.16-3-2.46-4.31-5.18-3.2-2.93,1.19-4.13,3.82-5.49,6.31-.56,1-1.06,1.21-1.77.31-1.54-1.94-1.8-5.86.07-7.63a11.16,11.16,0,0,0,3.65-8.89c.41-1.84-.62-3.2-2.45-4.13s-3.68-.33-5.26.89a8.51,8.51,0,0,0-2.44,3c-.48,1-.95,2-1.52,3-2.11,3.54-3.78,7.11-3.27,11.48a11.93,11.93,0,0,0,3.74,7.25,14.73,14.73,0,0,1,2.29,2.38,17.36,17.36,0,0,0,2.89,3.45c3.25,3,6.66,5.79,10,8.68,1.65,1.42,3.31,2.77,5.49,3.09,1.87.27,3.81.23,5.11-1.52a60.16,60.16,0,0,0,8.14-13.88C300.82,217.19,300.13,213.27,296.21,211.82Z"/><path class="cls-6" d="M319.59,193.2c.67-.94-.08-1.36-.65-1.89a76.17,76.17,0,0,1-6.09-5.79c-1.93-2.24-4.48-3.57-6.5-5.6-1-1-2.6-1.63-3.61-2.63-2.54-2.49-5.89-3-8.94-4.28a2.66,2.66,0,0,0-1.29-.08,18.15,18.15,0,0,0-5.78,1.32,12.19,12.19,0,0,0-5.9,6.05,3.67,3.67,0,0,0,.13,3c.58,1.34-.27,2.71.42,4.07,1.6,3.11,3.59,6,5.46,8.89s5.4,4.6,7.43,7.56a.32.32,0,0,0,.12.08c2.5,1.11,3.63,3.88,6.09,5,.55,1.92,2.1,1.65,3.54,1.56.44,0,.88,0,1.31,0,1.92-.1,2.68-1.17,2.11-3a3,3,0,0,1-.15-2,1.59,1.59,0,0,0-.86-2.19c-2-.89-3.38-2.66-5.11-3.91-1.29-.93-1.29-1.76-.05-2.8.74-.62,1.54-1.18,2.26-1.83,1.61-1.46,2.46-1.53,4.1-.14,1.36,1.16,2.68,2.38,4,3.56,1.49,1.31,3.21,2.26,5.17,1.46,3.35-1.38,4.67-2,2.92-5.64C319.62,193.75,319.38,193.5,319.59,193.2Zm-21.94-6.33a27.92,27.92,0,0,0-2.32,3.5c-.84,1.21-1.34,1.19-2.1,0a18.08,18.08,0,0,1-2.73-5.4c-.41-1.83-.19-2.12,1.73-2.1,2.4,0,4,1.5,5.48,3.11A.66.66,0,0,1,297.65,186.87Z"/><path class="cls-5" d="M359,217.12a6.72,6.72,0,0,1,.49-2.73,27.6,27.6,0,0,1,2.16-4.9c1.58-2.45,4.17-3.41,6.95-3.59,1.63-.11,3.44-.18,4.51,1.59a1,1,0,0,0,.48.32c3.64,1.37,4.47,4.46,4.3,7.78-.19,3.47-.81,7-3.92,9.3a5.68,5.68,0,0,1-4.14,1.49c-1.84-.12-3.63-.06-5.31-.87C360.94,223.82,359.3,220.88,359,217.12Z"/><path class="cls-11" d="M387,307.41a7.81,7.81,0,0,1,2.75.48c.38.63,0,1.22-.11,1.82-.38,2.13.64,3.38,2.56,3.16,1.29-.14,1.83-.81,2-2.26.09-.93-.33-1.95.44-2.78h2.59c.63.85.28,1.87.49,2.8.45,2,1.36,2.41,3.07,1.33,2-1.23,2.15-1.68,1.54-3.9a1.12,1.12,0,0,1,0-.7,15.57,15.57,0,0,1,4.95-1.71,2.43,2.43,0,0,1,.53,1.62c0,.38,0,.77.06,1.16.17,1.47,1.2,2.63,2.28,2.6s1.84-1,2.16-2.54c.36-1.73,0-3.43,0-5.14,1.22.1,2.75,2.47,2.58,4a6,6,0,0,0-.14,1.44c.41,2.65-1,4.23-3.05,5.57-6.11,4-12.89,5.15-20,4.75a48.6,48.6,0,0,1-8.41-1.55c-2.94-.69-5.49-4.86-5-7.84.33-1.91,1.84-2.83,4.58-2.78.61.59.39,1.36.41,2.06a4.66,4.66,0,0,0,.67,2.63c.69,1,1.21,1,1.75-.1a7,7,0,0,0,.89-2.89A1.62,1.62,0,0,1,387,307.41Z"/><path class="cls-7" d="M412.24,303.34c1,1.89.5,3.88.27,5.82a2.7,2.7,0,0,1-2.58,2.33,3.05,3.05,0,0,1-2.56-2.59c-.13-1.08-.14-2.17-.19-3.26C408.47,304,410.31,303.58,412.24,303.34Z"/><path class="cls-7" d="M394.58,307.83c0,1.06-.05,2.11-.05,3.17a2,2,0,0,1-1.41,2.1c-1.22.33-2.69.62-3.46-.5a3.08,3.08,0,0,1-.49-2.78,18.4,18.4,0,0,0,.54-1.93C391.32,306.78,393,307.53,394.58,307.83Z"/><path class="cls-7" d="M402.23,307.35a6,6,0,0,1,.75,1.71A3.9,3.9,0,0,1,399.2,313c-1.3-.13-1.89-1-2.05-3,0-.72,0-1.44,0-2.17C398.87,307.84,400.49,306.92,402.23,307.35Z"/><path class="cls-12" d="M387,307.41c.32,1.82-.53,3.38-1.17,4.95-.48,1.2-1.3.5-1.8,0-1.22-1.17-1.19-2.76-1.24-4.3a10.94,10.94,0,0,1,.09-1.14C384.31,306.27,385.59,307.25,387,307.41Z"/><path class="cls-11" d="M365.68,280.85c0-2.8,4.42-7,9-6.46a9.3,9.3,0,0,1,5.9,2.66,4.15,4.15,0,0,1,1.27,3.22,14.34,14.34,0,0,1-.15,3.51,8.47,8.47,0,0,1-3,4.92,7.56,7.56,0,0,1-7.87,1.45C367.6,289,365.59,286.38,365.68,280.85Z"/><path class="cls-11" d="M418.21,270.2a7.12,7.12,0,0,1,3.63.95c.74.48,1.5.9,1.34,2a.87.87,0,0,0,.26.66c1.68,1.45,1.47,3.5,1.6,5.36a5.88,5.88,0,0,1-3,5.6c-.94.58-1.72,1.83-3.18,1.28-.11,0-.36.28-.55.43s-.55.6-.8.58c-1.74-.15-3.63.66-5.2-.74-.54-.48-1.14-.89-1.73-1.32a4,4,0,0,1-1.6-2.18C407.11,275.61,411.49,270.78,418.21,270.2Z"/></g></g></svg>