<svg xmlns="http://www.w3.org/2000/svg" viewBox="0 0 588.1 764.21"><defs><style>.cls-1{fill:#2fb094;}.cls-2{fill:#e14122;}.cls-3{fill:#010101;}.cls-4{fill:#030303;}.cls-5{fill:#020101;}.cls-6{fill:#020202;}.cls-7{fill:#2fb095;}.cls-8{fill:#020302;}.cls-9{fill:#020303;}.cls-10{fill:#070707;}.cls-11{fill:#0b0b0b;}.cls-12{fill:#fefefe;}.cls-13{fill:#010202;}.cls-14{fill:#010302;}.cls-15{fill:#000201;}.cls-16{fill:#020605;}.cls-17{fill:#f8fcfb;}.cls-18{fill:#fbf0d4;}.cls-19{fill:#e24527;}.cls-20{fill:#faefd4;}.cls-21{fill:#faefd3;}.cls-22{fill:#2ca68c;}.cls-23{fill:#080807;}.cls-24{fill:#0b0a09;}</style></defs><g id="Capa_2" data-name="Capa 2"><g id="Capa_1-2" data-name="Capa 1"><path class="cls-1" d="M245,561.37c3,18.87,4,37.77,0,56.58-6.26,29.41-21.41,52.4-49,66-2.38,1.18-2.94,2.58-2.91,5,.13,12.16,0,24.31.57,36.46.14,3,1,4.18,3.9,4.45,3.12.29,5.1,2.09,4.33,5.36-.73,3.11-3.18,3.86-6.24,3.49-8.58-1.05-10.84-3.14-11.14-12.15-.38-11.48-.41-23-.35-34.47,0-3-.8-3.7-3.62-3a66.94,66.94,0,0,1-17.34,1.66c-2.66-.05-3.52.87-3.44,3.44q.54,15.72.85,31.45c.05,2.59,1,4,3.64,4.24,2.87.3,4.76,1.92,4.25,5s-2.76,4.23-5.9,3.89c-8-.85-10.43-2.77-10.91-10.75-.68-11.29-.78-22.63-.92-34,0-3.09-.59-4.44-4.13-5.23C113,681.26,84.5,664.78,61.49,639q-10.14-11.35-20-23c-4.93-5.82-10-11.63-12.72-18.94-.62-4.81-3.07-9.1-3.7-13.94-1.19-9.13,3.31-17.36,11-19.52,4.3-1.21,6.23-.25,7.49,4s2.13,8.45,4.77,12c1.1,1.47,2.44,3.74,4.81,2.47,2.56-1.37,2.33-3.9,1.28-6.14a33.47,33.47,0,0,0-6.78-9.8c-4.42-4.35-5-9.5-1.47-14.15,3.81-5.06,8.09-5.77,14.11-2.14-2.43-5.53-1.89-10.72,2.1-14.82a15.33,15.33,0,0,1,15-4.51c9.11,2,14.47,8.17,18.85,15.8,1.85,3.23,2.12,7.41,5.63,9.67,3,6.7,6.53,13,13,17.1,2,1.4,1.59,3.55,1.6,5.48a47.5,47.5,0,0,0,1,8.89c2,10.23,9.41,13.4,18.35,12.87a61.23,61.23,0,0,0,11.83-1.63c10.48-2.73,21.11-1.59,31.7-1,12.94.67,16.86-6.73,14.95-18-2-11.64-4.07-23.25-6.57-34.78S182.25,522.31,176.5,512a59.44,59.44,0,0,0-15.32-18.15c-7.19-5.66-15.34-4.56-23.42-3.89a63.52,63.52,0,0,1-9.44.47c-1.52-.09-3.49.31-4-2-4.5-17-10.47-33.51-15.66-50.28-4.76-15.35-9.7-30.65-14.56-46,7-5.79,30.84-6.4,37.21,1.28-1,2.47-3.26,1.81-5.11,2q-15.35,1.31-15.76,16.89c-.33,13.1,4.32,23.79,15.52,31,8.91,5.72,22.36,4.65,29-1.88-11.81,8.69-28.79,6.05-37.08-5.9-4.45-6.41-7.13-13.48-7.09-21.44,0-14.35,10.69-21.91,24.29-17.16a32.91,32.91,0,0,1,12.4,8.14c2.93,2.94,5.69,6.07,9.1,8.49,1.86,1.78,2.78,4.13,3.91,6.35a38,38,0,0,0,3.83,6.44c3.06,3.87,7.23,5.36,11.5,3.93s6.21-4.85,6.77-9.08a30,30,0,0,0,0-9c-3.56-20.33-5.69-40.93-12.8-60.54-8.81-24.25-23.57-43.07-47.47-54-15.7-7.14-32-9.93-49.19-7.43-2.53.37-5.11,1.9-7.75.34a91.61,91.61,0,0,1,2.17-28.3,1.09,1.09,0,0,1,.93.23c4.62,5.38,4.63,5.4,9.86.14,11.38-11.46,22.73-23,34.79-33.7,3.38-3,5.19-5.9,2.12-10.13a2.48,2.48,0,0,1-.11-3.24c-.5-5.95-1.38-11.82-.1-17.86,3.57-16.75,19.66-27.58,35.83-23.65,9.58,2.33,15.67,8.54,18.12,18,.79,3.08,1.87,5.22,4.64,7a19.74,19.74,0,0,1,8.15,22.73c-1.16,3.46-.42,4.29,2.72,5.42,24.36,8.78,45.85,22,62.77,41.9,20.52,24.19,34.35,52.1,44.84,81.77a262.48,262.48,0,0,1,14.84,102c-.15,2.93,1.07,6-.61,8.8-1.28-.64-1.33-1.75-1.26-3-4.29,44.55-25.66,78.53-63.32,102.46C242.83,561.9,244,560.24,245,561.37Z"/><path class="cls-2" d="M470.09,50.44c2.17-7.37,4.62-12.92,9.19-17.36,11.7-11.38,27.45-8.82,33.79,6.15,7.41,17.5,5,34.82-2.81,51.67-4.25,9.18-10.48,16.93-17.34,24.25-8.87,9.46-18.4,18.4-24.57,30-6.27,11.83-8.73,24-3.29,36.88,3.41,8.09,2.21,15.59-3.45,22.38a26.81,26.81,0,0,0-4.79,7.55c-.41,1.09-.55,3-2.54,2.18-1.59-.66-.64-2-.37-3,.68-2.57,1.35-5.14,2.16-7.67,2-6.26.16-11.44-4.35-15.89a29.58,29.58,0,0,0-3.35-3c-15.13-11-18-25.87-13.64-43a62.24,62.24,0,0,1,3.12-9.45c6.34-14.51,3.87-28-4.84-40.6-4.45-6.41-9.75-12.22-14.64-18.33C411.82,65,405.3,56.8,400.45,47.45c-3.8-7.34-6.38-15.1-5-23.52C398.75,4.67,419.7-5.44,439,3c14.28,6.24,22.25,18,27,32.29C467.46,39.78,468.48,44.43,470.09,50.44Z"/><path class="cls-2" d="M65.37,290.67c33.54-9.69,85.53,5.62,104.72,57.92,6.23,17,9.36,34.59,12,52.35.93,6.24,2.52,12.39,2.07,18.79s-3.47,11-8.41,12.31c-5.23,1.42-9.89-.56-13.43-6.22-2.38-3.79-4.27-7.88-6.39-11.84-5.7-8.53-13-15.06-22.85-18.5a2.93,2.93,0,0,1-1.87-1.54c-12.09-7-24.59-5-37.14-1.72-.66-.05-1.32-.13-2-.15-5.14-.18-9.77-1.67-11.7-6.84s.13-9.74,4.27-13.31l2.49-2.13c-3.9-.6-7.08-1.07-10.24-1.59-1.64-.26-3.28-.55-4.88-1-7.47-2-11.77-6.49-11.83-12.29S65.14,343.19,72,341.15c1.06-.32,2.11-.68,4.58-1.47-5.46-.65-9.48-1-13.44-1.63-8.26-1.36-15.49-4.56-18.53-13.08-3.25-9.14-.82-17.33,5.33-24.53C54.08,295.62,59.63,293,65.37,290.67Z"/><path class="cls-1" d="M440.24,385.26c-1.18,3.75-4.55,4.84-7.7,5.57-4.1.95-5.43,3.6-5.48,7.18-.06,4,.22,8,.45,11.95,1.09,18.23-1.44,35.37-16,48.31-10.08,9-22.27,14.39-34.8,19-22.95,8.5-46.79,12.5-71.13,13.89-1.81.1-3.61.44-5.41.67-1-4.94.68-9.09,3.87-12.77,30.85-1.59,60.52-7.66,88.24-22.06,18.46-9.59,24.57-25,23.17-44.63-.65-9.24-2.25-18.66,3.39-27.14,5-3.14,10.59-1,15.88-1.55C436.7,383.51,438.76,383.53,440.24,385.26Z"/><path class="cls-3" d="M115.13,215.67c4.17,8.79,4.14,8.76-3.09,15.85q-17.1,16.78-34.16,33.61c-.59.59-1.16,1.2-1.78,1.75-3.95,3.47-5,3.25-7.08-1.45-.46-1-1-2-1.48-3.06-4.08-9.91-8.13-19.83-13.21-29.83-2.48,4-4.42,7.59-6.83,10.86-7.22,9.81-17,13.18-28,9.89A27,27,0,0,1,.06,228.72c-.88-16,8.35-29.46,24.42-35.54,1.84-.69,3.7-1.32,6.09-2.17C16.8,183.81,7.41,173.5,3.82,158.8c-4.58-18.79,1.31-34.71,15.62-47,14.58-12.57,31.5-14.5,49-6.82,17.11,7.53,26.65,21,27.77,39.87a46.65,46.65,0,0,1-8.91,31c-1.21,1.67-1.63,2.88-.12,4.74C96.56,192.18,105.82,203.94,115.13,215.67Z"/><path class="cls-4" d="M440.24,385.26H418.87L338,385c-1.66,0-3.33.05-5,0-6.84-.28-11.3-4.48-11.39-10.69-.09-6.4,4.46-10.68,11.55-11.09,2-.12,4.34,1,6-1.08.93-1.08.67-2.52,1.13-3.73.69-1.8,1.66-1.8,2.75-.27,1,2.49,3,3.38,5.56,3.35,1.5,0,3,0,4.49,0H558.49a32.5,32.5,0,0,0,7.94-.53c2-.5,2.13-2.07,2.2-3.76.09-1.88-.29-3.92,1.48-5.35.12,7.08.76,12.91,10.72,12.42,4.67-.23,7.25,4.75,7.27,9.82s-2.5,8.42-7.23,10.2c-2.26.85-4.58.69-6.9.69q-63.89,0-127.76,0C444.22,385,442.23,385.18,440.24,385.26Z"/><path class="cls-5" d="M341.84,357.15c-1.76,1.2.52,4.54-2.65,5-.56-25.77,7.7-48.74,23.11-69,19.38-25.5,45.16-40.64,77-45.14,1-.14,2-.33,2.95-.53.48-.1.94-.28,1.42-.43-4.4-9.31-3.6-15.8,2.48-20.59a14,14,0,0,1,17.93.38c5.77,4.94,6.45,11.54,1.87,20.17,5.54,1.07,11,1.89,16.42,3.2,49.36,12,83.09,54.16,87.77,99.72a16.4,16.4,0,0,1,0,2c-1.14,3.32,1.84,7.41-1.89,10.26-2.74-3.4-1.9-7.64-2.33-11.45-5.72-50.91-45.26-91.75-95.82-98.29-33-4.27-62.45,4.27-87.82,25.9-21.57,18.39-34,41.85-38.1,69.88C343.71,351.21,344.21,354.58,341.84,357.15Z"/><path class="cls-6" d="M124.29,488.47c4.23,1.47,8.55,1,12.74.14,14-2.9,25,1.57,33.93,12.58,10.19,12.57,14.69,27.43,18,42.78,2.53,11.86,4.66,23.81,6.74,35.75,2.36,13.49-3.4,20.78-17,19.45s-26.83.31-40.17,2.16c-14.94,2.06-22.68-4.58-23.42-19.72-.13-2.82-.19-5.65-.29-8.47-.26-13.63-.61-27.25-.72-40.88,0-2.87-1.31-3.19-3.61-3.2-5,0-10-.28-14.93-.43-2.57-.08-3.64-1.16-3.71-4-.23-8.95-.11-17.84,2.21-26.57,1.72-1,2.71-.12,3.47,1.35,0,6.48-1.45,12.88-1,19.4.33,5.25.57,5.67,5.76,5.79,10.82.26,10.91.15,10.29-10.57-.17-3-1-5.92-.9-8.94.29-6.69-2.74-11.28-8.68-14.26-1.83-.92-4.81-1.24-4.1-4.59,6.07-3.62,12.23-4.39,18.65-.8C119.68,486.68,122,487.49,124.29,488.47Z"/><path class="cls-7" d="M98.89,486.29c.39,2.57,2.75,2.64,4.47,3.34,6.62,2.69,9.81,7.53,9.65,14.65-6.28,1.34-11.43-1-16-5l-2.9-1.17c-16.53-9.17-29.09-22-36.4-39.63a74,74,0,0,1-3.74-11.33c-1.06-4.54-2.8-8.16-7.86-9.1-1-.19-2.1-.59-1.95-1.81.22-1.77,1.71-1.21,2.76-1.06a19.76,19.76,0,0,1,2.83.9c.85.26,1.87,1.17,2.3-.49.27-1,1.22-2.17-.2-3.06a16.47,16.47,0,0,0-2.63-1.38c-1.29-.52-3.64-.47-2.66-2.54.64-1.37,2.7-.49,4.15-.16,2.58.59,4.21,4.24,7.62,2.33-.38-2.23-2.17-3.24-3.79-4.35-1-.72-2-1.45-1-2.74.83-1,1.81-.25,2.66.23,4.38,2.53,6.18,6.75,7.26,11.37,1.75-.27,1.63-1.6,1.81-2.67.21-1.28,0-3.12,2-2.69,1.67.37,1.06,2.18,1,3.44a4,4,0,0,1-.66,2.35c-4.11,4.32-2.23,8.83-.57,13.37C72.93,465.49,82.94,478.44,98.89,486.29Z"/><path class="cls-6" d="M235.2,746.78C267,746.5,306.05,749,345,753.16c3.81.41,7.61.85,11.39,1.44,1.3.2,3.52-.06,3.15,2.1-.3,1.78-2.11,1-3.38.89-12.58-1.3-25.15-2.72-37.74-3.89a1011.86,1011.86,0,0,0-130.76-3.15,989.63,989.63,0,0,0-105.38,9.5c-8.39,1.21-16.75,2.63-25.14,3.87-1.36.2-3.43.94-3.72-1.17-.24-1.8,1.73-1.54,3-1.75C113.13,751.46,170.29,746.69,235.2,746.78Z"/><path class="cls-8" d="M101.86,556c-2.58,1.36-3.08-.59-3.77-2.33-2.34-5.91-5.12-11.6-9.84-16-5.56-5.2-12-7.81-19.62-5.34C60.8,534.9,58,542.69,62.22,549.77c.51.86,1.36,1.71.45,2.63-1.27,1.28-2.11,0-2.82-.83-2.84-3.09-6.05-4-9.8-1.82-3.55,2.07-6,7.93-5.23,11.72.32,1.56,1.58,2,2.55,2.85a30.92,30.92,0,0,1,8.75,12.54c1,2.55.74,5-1.9,6.5s-4.94.16-6.51-1.93c-3.07-4-4.53-8.91-5.4-13.8-.59-3.3-2.28-3.63-4.89-3.18-6.14,1-10.73,6.76-11.24,14.11-.32,4.57.88,8.88,2.54,13.09.7,1.81,1.9,3.63.05,5.47-6.77-7.43-7.6-21.83-1.73-29.57A14.5,14.5,0,0,1,38,561.39c2.62-.15,3.59-.83,4-3.52,1.28-8,5.08-11.59,13.05-12.29,1.6-.15,1.72-.53,1.95-1.86,2.38-13.3,14.12-19.14,26.5-13.06,9.62,4.73,14.21,13.51,17.69,23C101.45,554.47,101.63,555.26,101.86,556Z"/><path class="cls-9" d="M304.07,479.08l-3.87,12.77c-10.05,29.8-29.28,52.31-55.19,69.52-2.28.49-4.86,4.35-6.3,2-1.59-2.6,2.72-3.35,4.56-4.56,35.21-23.16,55.74-55.3,60-97.49a5.36,5.36,0,0,1,.11-1c.44-1.29-.08-3.62,2-3.36,1.7.22.74,2.18.8,3.4,0,.49.1,1,.16,1.47Q305.21,470.46,304.07,479.08Z"/><path class="cls-10" d="M563.94,217.81c-.28.48-.66,1.21-1.11,1.9Q552.65,235.34,542.42,251c-.81,1.23-1.51,3.71-3.57,2.08-1.67-1.31.4-2.64,1.1-3.72Q550,233.59,560.25,218c.67-1,1.15-2.61,2.94-2C563.89,216.18,564.16,216.8,563.94,217.81Z"/><path class="cls-11" d="M554,273.67c-1.41.41-2.13.06-2.36-.87-.32-1.26.67-1.8,1.58-2.14,4-1.53,8.08-3,12.13-4.46q9.1-3.33,18.21-6.66c.92-.33,2-.82,2.5.52.43,1.12-.16,1.87-1.25,2.27Z"/><path class="cls-10" d="M520.25,230.75c0,4,0,8,0,12,0,.94,0,2.2-1.33,2.22-1.2,0-1.65-1-1.67-2.07q-.21-13-.34-25.94c0-.83.21-1.73,1.31-1.7,1.26,0,1.67,1,1.67,2.05,0,4.49,0,9,0,13.47Z"/><path class="cls-12" d="M117.15,205.74c-.1-19.17,17-33.51,34-28.47,7,2.08,11.7,6.69,14.36,13.49,1.28,3.26,1.34,5.06-3.15,5.29-5.7.29-8.69,4-8.43,9.08.15,2.88,1.25,5.14,4,6.36s5.19.2,7.33-1.62a9.42,9.42,0,0,0,3.49-5.36c1-5.9,3.31-3.21,5.49-1,4.75,4.9,6.55,10.65,4.79,17.39-.7,2.68-1.87,4-4.93,3.09a122.68,122.68,0,0,0-50.87-3.89c-2.33.32-3.35-.63-4-2.66A41.48,41.48,0,0,1,117.15,205.74Z"/><path class="cls-2" d="M263.34,440.25a17.83,17.83,0,0,1-21.29,3.88C235,440.57,231,431.81,232.37,423c1.67-10.63,7.18-16.51,18-19.23,7.08-2,12.36.22,15.73,6.61,4.33,8.21,4.4,16.44-.09,24.62A48.6,48.6,0,0,0,263.34,440.25Z"/><path class="cls-2" d="M270.25,395.23c5.09-4.81,10.93-7.13,17.69-4.21C296,394.49,300,401.25,301,409.65c1.43,11.87-4.36,20.38-14.46,21.87-6.47,1-11-2.78-15.38-6.62-2.23-6.35-4.09-12.84-5.92-19.29C264.13,401.69,266.1,397.5,270.25,395.23Z"/><path class="cls-13" d="M272.15,365c-.2,10.88-5.78,19.22-16.11,24.13-11.42,5.43-22.51,4.27-32.19-3.94-13.88-11.77-19.41-27.77-21.65-45.22-.15-1.14-.34-2.61,1.3-2.7s1.57,1.39,1.71,2.53c1.23,10.16,3.91,19.87,9,28.83A47.32,47.32,0,0,0,227,383.75,26.5,26.5,0,0,0,257.37,385c9.13-5.61,13.05-15.31,11.28-26.74-2.07-13.4-8.43-24.35-18.14-33.57-1.07-1-3.53-2.11-1.94-3.86s2.87.56,3.94,1.58C264.44,333.79,271.53,347.46,272.15,365Z"/><path class="cls-14" d="M131.21,393.94c10.51,2.1,17.57,9.18,24.26,16.82a3,3,0,0,1,.46,3.22c-4.33-1.18-6.11-5.32-9.14-8-5.75-5.07-11.72-9.26-19.87-9-7.85.23-12.73,4.11-14.48,11.8-2.78,12.22,4.3,27.76,15.35,33.67a24.21,24.21,0,0,0,27.1-2.56c1.07-.86,2.17-2.91,3.62-1.19s-.8,2.58-1.74,3.49c-8.45,8.14-24.39,8.45-34.5.28-10.74-8.67-14.65-20.37-12.9-33.79,1.18-9,7.71-14.3,16.85-14.66C127.88,393.94,129.54,394,131.21,393.94Z"/><path class="cls-5" d="M270.25,395.23c-3.62,5.26-5.92,10.34-1.56,16.69,2.49,3.64,2.51,8.48,2.47,13-1.56,5.65-2,11.87-7.82,15.35-1.61-2,.07-3.35,1-4.82a24.08,24.08,0,0,0,2.32-20.93c-2.57-8-8.2-11.16-16.26-10.77,1.58-5.83,5.79-9,11.17-10.88C265,391.61,268,392,270.25,395.23Z"/><path class="cls-15" d="M211.05,289.73a51.23,51.23,0,0,1-16,31.14c-1.61,1.51-3.27,1.68-4.78,0s-.61-3.09.67-4.35c8-7.87,12.94-17.21,14.15-28.44.21-2,1.07-3.59,3.35-3.62C210.29,284.43,211.18,286.1,211.05,289.73Z"/><path class="cls-16" d="M145.56,420.74c-2.16-1.48-2.9-2.07-3.72-2.53-2.3-1.31-4.64-2.56-6.94-3.86-1-.56-2.36-1.14-1.78-2.54s2-.77,2.95-.25c3.79,2,7.54,4.14,11.3,6.22,1.59.88,2.35,2,.72,3.47-3.47,3.07-7,6.07-10.54,9.07-.81.69-1.76,1.13-2.54,0s.09-1.83.83-2.48c2.11-1.86,4.21-3.74,6.41-5.5A19.33,19.33,0,0,1,145.56,420.74Z"/><path class="cls-17" d="M156.87,204.39c.23-4.1,3-5.4,6.66-5.41,1.25,0,3.14-.7,3.15,1.84,0,3.19-3.55,8.08-6.21,8.06S157,206.88,156.87,204.39Z"/><path class="cls-18" d="M64.11,245.15c-3.52-4.85-4.82-10.8-7.89-15.87-.59-1-.65-2.46-2-2.5s-1.65,1.39-2.12,2.42a65.19,65.19,0,0,1-6.72,12.19c-6.68,8.93-15.52,12-25.39,8.87A23.89,23.89,0,0,1,3.11,227.89c-.57-16.74,11-30.37,28.59-33.77,2.45-.48,6.64.41,7-2.16.36-3-4-2.58-6.22-3.57-19-8.47-30-28.67-26.24-48.87,3.66-19.69,20.91-34.68,41.24-35.84,19.44-1.1,38.68,12.18,44,30.92,5.09,18,.27,33.47-13.29,46.21-3,2.84-6.4,5.3-9.61,7.94-1,.79-2.76,1.43-1.53,3s2.44.07,3.39-.68c3.52-2.79,7.12-5.5,10.35-8.61,2-1.92,3-1.74,4.55.37,6.22,8.22,12.61,16.3,18.93,24.44-12.73,13-26,25.47-39.4,37.75Z"/><path class="cls-18" d="M105.45,208.66c3,3.76,5.82,7.67,9,11.21,2.17,2.38,1.46,3.66-.54,5.61Q94.7,244.22,75.68,263.2c-2.65,2.65-3.67,2.19-4.84-1.07-2.07-5.72-5.24-11-6.73-17l0,0c5.06-2,8.62-6.09,12.42-9.69,7.57-7.19,14.78-14.77,22.25-22.07C100.69,211.52,102.39,209.08,105.45,208.66Z"/><path class="cls-19" d="M105.45,208.66q-18.4,17.9-36.8,35.8c-1.46,1.44-2.74,2.47-4.59.73,12.07-12.95,25.35-24.67,37.92-37.12.51-.5,1.48-.54,2.23-.79C105.08,207.33,105.33,207.94,105.45,208.66Z"/><path class="cls-18" d="M341.84,357.15c3.71-42.92,24-75.27,62.43-95.07,66.93-34.49,149,7,161.9,81.25,1.09,6.24,1.45,12.54,2.05,18.82-1.05,2.05-3,1.08-4.44,1.08-72.53.06-145,0-217.58.2C340.23,363.45,342.4,359.83,341.84,357.15Z"/><path class="cls-20" d="M455,366.34H573c1.5,0,3-.09,4.5,0,4.7.43,7.53,3.34,7.59,7.65.06,4.54-2.88,7.52-7.86,7.9-1.15.09-2.33,0-3.49,0H336.3a30.67,30.67,0,0,1-4.5-.07c-4.32-.66-7-3-7.06-7.61s2.51-7.08,6.83-7.81a30.74,30.74,0,0,1,5-.12Z"/><path class="cls-21" d="M455,246.94c-7.9,0-11.25-2.89-11.14-9.6a11.13,11.13,0,0,1,11.22-11A11.28,11.28,0,0,1,466,237.67C466,244.11,462.6,246.94,455,246.94Z"/><path class="cls-18" d="M105.16,487.13c5-1.92,8.49-.55,11.55,1.38,6.5,4.1,13.51,4.68,20.68,3.12,13.24-2.89,23.37,1.68,31.64,11.94,9.72,12.06,13.8,26.39,16.9,41.09,2.5,11.88,4.6,23.84,6.74,35.79,2,11.33-2.51,17.09-13.94,15.79-13.63-1.55-26.85.14-40.21,2.07-13.71,2-19.88-3.43-20.33-17.53-.51-15.82-.73-31.65-1.11-47.48-.22-9.32-.43-18.65-.76-28C116,497.63,113.9,490.87,105.16,487.13Z"/><path class="cls-21" d="M97,499.28c5.24,2,10.39,4.27,16,5,1,6.42.56,12.92.94,19.38.13,2.09-.82,2.5-2.65,2.45-4.31-.13-8.64-.17-13-.12-2.5,0-3.52-1-3.55-3.53C94.71,514.65,94.89,506.88,97,499.28Z"/><path class="cls-22" d="M45.3,567c4,2.68,5.7,6.09,7.45,9.48.69,1.33,1.36,3.26-.1,4.11-1.66,1-2.65-.91-3.34-2.15A35.15,35.15,0,0,1,45.3,567Z"/><path class="cls-3" d="M350.94,350.13c1.3-19.49,9.77-35.88,22-50.65a4.23,4.23,0,0,1,6.21-.79c2.51,1.78,2.41,4.29.66,6.55a118.07,118.07,0,0,0-10.45,15.14c-5.17,9.4-8.77,19.32-9.26,30.14-.16,3.48-.08,7.28-4.65,7.3C350.28,357.84,350.81,353.69,350.94,350.13Z"/><path class="cls-3" d="M416.75,272.54a5.23,5.23,0,0,1-2.81,4.43,92.34,92.34,0,0,0-19,13.58c-2.25,2.08-4.89,2.56-7,0s-1.19-4.87,1.12-6.95a97.47,97.47,0,0,1,20.25-14.45C412.88,267.3,416.61,269.08,416.75,272.54Z"/><path class="cls-23" d="M142.13,530.17c0,.67.12,1.33.1,2,0,1.1.29,2.68-1.39,2.62-1.36,0-1.66-1.42-1.67-2.66a53,53,0,0,0-1.65-11.83,66.58,66.58,0,0,0-7.39-18.4c-.63-1.06-2-2.47-.48-3.46,1.91-1.22,2.5.91,3.19,2.08A68.19,68.19,0,0,1,142.13,530.17Z"/><path class="cls-24" d="M162.82,531.52c.11,1,.13,2.18-1.13,2.39-1.68.29-1.76-1.18-1.91-2.28-1-6.77-2.46-13.39-5.54-19.54-1.62-3.25-3.54-6.36-5.36-9.52-.63-1.1-2-2.3-.41-3.36,1.14-.76,2.08.41,2.78,1.41A66.13,66.13,0,0,1,162.82,531.52Z"/></g></g></svg>