<svg xmlns="http://www.w3.org/2000/svg" viewBox="0 0 211.3 275.46"><defs><style>.cls-1{fill:#f3eddd;}.cls-2{fill:#ebebeb;}.cls-3{fill:#e6612e;}.cls-4{fill:#d4d4d4;}.cls-5{fill:#3a8da1;}.cls-6{fill:#dedede;}.cls-7{fill:#d7caa2;}.cls-8{fill:#010304;}.cls-9{fill:#cccccb;}.cls-10{fill:#030001;}.cls-11{fill:#140302;}.cls-12{fill:#4f8591;}.cls-13{fill:#398fa3;}.cls-14{fill:#200603;}.cls-15{fill:#040b0e;}.cls-16{fill:#496d7b;}.cls-17{fill:#426f80;}.cls-18{fill:#447081;}.cls-19{fill:#3a7287;}.cls-20{fill:#4a6e7b;}.cls-21{fill:#397489;}.cls-22{fill:#3b7084;}.cls-23{fill:#416f81;}.cls-24{fill:#688088;}.cls-25{fill:#436f7f;}.cls-26{fill:#3e7082;}.cls-27{fill:#4a6b78;}.cls-28{fill:#466c7a;}.cls-29{fill:#446f7f;}.cls-30{fill:#457282;}.cls-31{fill:#687e86;}.cls-32{fill:#496f7d;}.cls-33{fill:#486d7b;}.cls-34{fill:#5f8692;}.cls-35{fill:#4c6b78;}.cls-36{fill:#437385;}.cls-37{fill:#4a7381;}.cls-38{fill:#5e8793;}.cls-39{fill:#4a6874;}.cls-40{fill:#588694;}.cls-41{fill:#3a798f;}.cls-42{fill:#4c180a;}.cls-43{fill:#596970;}.cls-44{fill:#467080;}.cls-45{fill:#afc7c6;}.cls-46{fill:#3b1109;}.cls-47{fill:#0c1c22;}.cls-48{fill:#33758d;}.cls-49{fill:#eea987;}.cls-50{fill:#661f10;}.cls-51{fill:#61666a;}.cls-52{fill:#ea8;}.cls-53{fill:#ed9f7b;}.cls-54{fill:#ec9872;}.cls-55{fill:#eeac8a;}.cls-56{fill:#ec9972;}.cls-57{fill:#ec9670;}.cls-58{fill:#0c1e25;}.cls-59{fill:#ec9169;}.cls-60{fill:#1c3841;}.cls-61{fill:#8d7169;}.cls-62{fill:#99bbbf;}.cls-63{fill:#abc4c5;}.cls-64{fill:#ec966f;}.cls-65{fill:#ed9b76;}.cls-66{fill:#eb8c63;}.cls-67{fill:#8a5f54;}.cls-68{fill:#ed9a74;}.cls-69{fill:#eb885c;}.cls-70{fill:#e96c3c;}.cls-71{fill:#a2bfc2;}.cls-72{fill:#eeae8c;}.cls-73{fill:#ed8f66;}.cls-74{fill:#df6332;}.cls-75{fill:#ca653c;}.cls-76{fill:#c1a87b;}.cls-77{fill:#c8653c;}.cls-78{fill:#f5f5e9;}.cls-79{fill:#ca663d;}.cls-80{fill:#f7f4e1;}.cls-81{fill:#cab98c;}.cls-82{fill:#498896;}.cls-83{fill:#f6f4e8;}.cls-84{fill:#f5f2e5;}.cls-85{fill:#cebd92;}.cls-86{fill:#378ba0;}.cls-87{fill:#b46948;}.cls-88{fill:#328ba1;}.cls-89{fill:#f4f1e5;}.cls-90{fill:#f3efe0;}.cls-91{fill:#f2e9dd;}.cls-92{fill:#a46b52;}.cls-93{fill:#f2e4d7;}.cls-94{fill:#9a6e59;}.cls-95{fill:#bd6642;}.cls-96{fill:#9d6d55;}.cls-97{fill:#edd3c2;}.cls-98{fill:#e4ccba;}.cls-99{fill:#4c8693;}.cls-100{fill:#df6433;}.cls-101{fill:#667d80;}.cls-102{fill:#51848f;}.cls-103{fill:#f1eede;}.cls-104{fill:#f0f1e1;}.cls-105{fill:#707878;}.cls-106{fill:#c4d4cd;}.cls-107{fill:#7e746f;}.cls-108{fill:#d9e7df;}.cls-109{fill:#c9b78a;}.cls-110{fill:#d46538;}.cls-111{fill:#4a8896;}.cls-112{fill:#607f85;}.cls-113{fill:#0a191f;}.cls-114{fill:#a56b50;}.cls-115{fill:#b36a4b;}.cls-116{fill:#0e1c22;}.cls-117{fill:#0d2026;}.cls-118{fill:#6f736e;}.cls-119{fill:#a54223;}.cls-120{fill:#d5c89f;}.cls-121{fill:#cbba8e;}.cls-122{fill:#cab78a;}.cls-123{fill:#3b1107;}.cls-124{fill:#40150a;}.cls-125{fill:#752c15;}.cls-126{fill:#996e5f;}.cls-127{fill:#87b5bb;}.cls-128{fill:#8fb9bd;}.cls-129{fill:#86b4bb;}.cls-130{fill:#8bb8bd;}.cls-131{fill:#040101;}.cls-132{fill:#224853;}.cls-133{fill:#f2eddd;}.cls-134{fill:#f1edde;}.cls-135{fill:#f3eede;}.cls-136{fill:#e7e7d9;}.cls-137{fill:#f0edde;}.cls-138{fill:#f2efdf;}.cls-139{fill:#f2eedf;}.cls-140{fill:#edeedf;}.cls-141{fill:#a86b4f;}.cls-142{fill:#f4efe0;}.cls-143{fill:#b06b4d;}.cls-144{fill:#be6844;}.cls-145{fill:#857165;}.cls-146{fill:#a06b53;}.cls-147{fill:#f3ecdd;}.cls-148{fill:#f3edde;}.cls-149{fill:#f4f1e6;}.cls-150{fill:#eee9de;}.cls-151{fill:#607c80;}.cls-152{fill:#7f7268;}.cls-153{fill:#aa784e;}.cls-154{fill:#d46032;}.cls-155{fill:#db5b29;}.cls-156{fill:#bc6b49;}.cls-157{fill:#b0694a;}.cls-158{fill:#a36b52;}.cls-159{fill:#f5f3e2;}.cls-160{fill:#a56b51;}.cls-161{fill:#254b56;}</style></defs><g id="Capa_2" data-name="Capa 2"><g id="Capa_1-2" data-name="Capa 1"><path class="cls-1" d="M1.14,13c0-3.67.05-7.33,0-11,0-1.43.48-2.12,2-2,.38,0,.75,0,1.13,0q97.48,0,195,0c2.17,0,3.5.33,3.06,2.86,1.21,1.54.77,3.35.81,5.08a31.28,31.28,0,0,1,0,3.75c.21,62.77,0,125.53.09,188.3a8.61,8.61,0,0,1-.56,4.14c-1.33,1.46-3.13,1-4.76,1.08-3,.21-3.71.8-3.74,3.71q-.12,14.33,0,28.65c0,3.24.51,3.56,3.83,3.71,1.55.07,3.22-.29,4.57.9a4.06,4.06,0,0,1,.59,2.14c.09,5.6.1,11.2,0,16.8,0,1.59-.45,3-2.4,3.21-11.93.25-23.87.34-35.8,0-1.38-.26-1.89-1.42-2.53-2.46-2.75-4.49-5.39-9.07-9.12-12.85-2.71-2.73-5.17-5.72-8-8.3-3.61-3.28-6.25-7.26-8.8-11.33-.68-1.09-1.53-2.19-1.09-3.65A4.49,4.49,0,0,1,137,224.2c12.46-8.25,20.67-19.69,25.32-33.77a4.17,4.17,0,0,1,3.17-3.14c8.66-2.29,11.19-11.42,5.15-18.31-1.44-1.65-3.37-2.68-4.94-4.16a4.7,4.7,0,0,1-.87-2.63c-.43-8.69-3.36-16.64-7.12-24.35a18.83,18.83,0,0,0-2.13-4.43c-5-6.65-10.39-12.85-18.68-15.57a39.13,39.13,0,0,0-8.25-2.08,13.69,13.69,0,0,0-4.46-.37c-1.09,0-2.19,0-3.28,0a52.06,52.06,0,0,0-16.79,2.7,6.84,6.84,0,0,1-4.66-.08c-12-3.3-23.63-2.86-34.77,3.16-2.89,1.69-5.74,3.46-8.52,5.32-7.48,6.42-10.85,15-12.93,24.31-.6,2.63-1.07,5.31-1.5,8-.59,2.75-.4,5.67-1.7,8.27a6.36,6.36,0,0,1-1.94,1.59c-5.27,3.59-6.88,11.94-3.36,17.27a10.71,10.71,0,0,0,6.54,4.58,7.49,7.49,0,0,1,5.56,4.57,33.34,33.34,0,0,0,2.62,5A63.42,63.42,0,0,0,67,220c2,1.52,4.78,2.42,5.42,5.38,0,1.84-.88,3.49-1.24,5.25-.27.77-.68,1.47-1,2.21a39.75,39.75,0,0,1-1.93,3.5,63.79,63.79,0,0,1-8.85,10.49A71.18,71.18,0,0,0,47,262a4.63,4.63,0,0,1-1.94,2,6.86,6.86,0,0,1-2.76.46c-10.41,0-20.83.12-31.24,0-1.23.08-2.46,0-3.7,0-.9.12-1.8,0-2.7,0-3.75-.09-4.08-.38-4.08-4q0-121.33,0-242.66A19.22,19.22,0,0,1,1.14,13Z"/><path class="cls-2" d="M1.14,13q0,123.33,0,246.66c0,3.91,0,3.91,4,3.92,2.62,6.18,7.87,7,13.73,7q87-.08,173.91,0c10.53,0,13.69-3.13,13.69-13.61q0-118.46,0-236.9c0-4.55-.62-8.84-4.18-12.14V2.86c3.31.34,5.49,2.32,7,5.05a17.59,17.59,0,0,1,2,8.66q0,122,0,244c0,9.64-5.17,14.84-14.78,14.84q-90.93,0-181.86-.06c-7.89,0-12.18-2.91-13.78-9.12A25.5,25.5,0,0,1,0,259.88Q0,139.14,0,18.4A10,10,0,0,1,1.14,13Z"/><path class="cls-3" d="M166.35,164.88c6.54,3.2,9.69,10.29,7.47,16.56a9.42,9.42,0,0,1-8,6.55c-1.79.25-2.23,1-2.73,2.47-5.06,14.93-13.47,27.3-27.45,35.32-1.66,2.18-4.28,2.43-6.61,3.22a19.54,19.54,0,0,1-4.64.89,16.18,16.18,0,0,1-4.31-.7c-1.33-.47-1.61-1.62-1.85-2.89a2.9,2.9,0,0,1-2.9,2.31,9.26,9.26,0,0,1-2.75-.64,22.89,22.89,0,0,0-2.66-.86,18.5,18.5,0,0,1-7.09-3.71c-3.19-2.8-6.83-5.07-9.61-8.33-.27-.26-.52-.53-.76-.8-.56-.6-1.14-1.18-1.72-1.75a9.17,9.17,0,0,1-1.3-1.61,9.52,9.52,0,0,0-1-1.33c-.45-.54-.79-1.16-1.25-1.7a13.28,13.28,0,0,1-1.36-1.8,69.7,69.7,0,0,1-7.08-13.46c.26-1.65,1.48-2.81,2.39-4.06.44-.59,2.19-2.42,2.54.44a.71.71,0,0,0,1,.68,3.73,3.73,0,0,0,2-1.83c.32-.47,0-.88-.49-1.1a13.69,13.69,0,0,1-1.55-.64,2.15,2.15,0,0,1-1.2-1.53c.93-1.06,4-1.32,5.35-.46.16.1.28.25.44.35,1.33.9,2,3.47,4.46,1.46,1.39-1.15,3.55-1.34,4.32-3.34.24-.65.55-1.22,1.38-1.13s.88.6,1,1.18c.23,1.33,2.73,2.31.59,4-.19.15.72.89,1.32.74,2-.49,3.48-.75,2.52,2.21-.28.87,2.2,1.75,3.12.88a1.7,1.7,0,0,1,2.2-.4c.16.07.22.7.66,0,1.47-2.25,1.52-2.21,3.29.11a15.82,15.82,0,0,1,.67,3,2.16,2.16,0,0,1,0,.27c0,.26.32.36.35.21.58-2.79,1.86-1.86,3.21-.64a1.19,1.19,0,0,0,1.58.09c1.25-.59,1.32.45,1.7,1.17a9.22,9.22,0,0,1,.57,3.56c.33-2.74,2.31-3.52,4.41-4.17a10.88,10.88,0,0,1,.15-1.51c.86-1.5,1-3.63,3.42-3.69a4.35,4.35,0,0,1,1,3c.05-1.19-.32-2.28.07-3.35,1.93-2.06,1.15.8,2,.82,0-.87-.82-2,.07-3,.35-.4.67-1.07,0-1.45s-1,.21-1.36.66a1.33,1.33,0,0,1-1.43.65,3.17,3.17,0,0,1-1.07-2.15c0-1.55.12-3,2.22-3.19,1.19-.1,1.68-1,1.86-2.13a4.1,4.1,0,0,1,1.92-3.22c3.39-.07,6.88.66,10.69-1.39-.26.12-.84-.13-.58.15.08.09,0,.18-.14.25a14.3,14.3,0,0,1-8.81.7c-.57-1.4-.64-2.8.64-3.79,2.49-1.92,4.14-5.4,8.17-4.6a1.2,1.2,0,0,1,.29.45c.9,3.61,1.38,3.75,4.42,1.2,2.35-.28,2.92-2.77,4.54-4.05a6,6,0,0,0-2.35.16c-.77.17-1.56.34-1.74-.74-.3-1.85-1.54-1.16-2.59-1a1.28,1.28,0,0,1-1.28-.83c-.05-2,1.4-3.4,2.17-5.06.47-.57,1.36-.57,1.74-1.27.18-.22.49-.59.63-.52,2.63,1.4,4.4-.84,6.54-1.5,2.31,1.23,3.08,3.68,4.44,5.65A54.78,54.78,0,0,0,166.35,164.88Z"/><path class="cls-4" d="M200.55,263.61c1.94.12,1.71-1.25,1.71-2.47q0-9.55,0-19.11c-1-1.08-.86-2.45-.86-3.74q0-15.07,0-30.14c0-1.3-.13-2.66.88-3.74l0-193.07c1.72-.12,2.2,1.2,2.68,2.41a19.66,19.66,0,0,1,1.05,7.5q0,37.94,0,75.87v158a32.46,32.46,0,0,1-.45,6.45,9.64,9.64,0,0,1-8.23,8.18,22.62,22.62,0,0,1-4.49.43q-87.11,0-174.21,0A16.89,16.89,0,0,1,11.43,269c-2.23-1-4.46-2.26-4.06-5.36h3.39a12.63,12.63,0,0,0,7.92,2.47q87,0,174,0A12.57,12.57,0,0,0,200.55,263.61Z"/><path class="cls-5" d="M79.13,192.43a107.75,107.75,0,0,0,7.18,13.45,1.44,1.44,0,0,1-1.71.65c-2.63-.68-5.41-.6-7.95-1.67-1.56-2.11-.19-4.33.08-6.37s.27-3.6-2-4.41c.11,2.79-1.62,5.36-1.5,8.31,0,1.18-1,1.69-1.8,2.36-2.9,1.15-2.9,1.15-1,3.59,5.37,6.91,11.48,8.8,19.81,6.14a4.68,4.68,0,0,1,2.45-.44l.52.52c.74,1,0,2-.13,2.92-.58,3.34-1.43,6.63-1.78,10a2.93,2.93,0,0,1-3,1.18c-4.37-.46-8.83-.51-12.89-2.53-1.1-.55-2.34-.69-3.46-1.16-2.35-2.66-5.48-4.35-8.17-6.59a59.09,59.09,0,0,1-14.73-17.77,4.08,4.08,0,0,1,4.58-.52A8.14,8.14,0,0,1,55.42,202c.29-1.31,1.34-2.15.54-3.42-.45-.72-1.05-1.45,0-2.13.75-.49,1.54-1.15,2.48-.28.28.26.72.09,1,.35,1.2,1.53,2.3,1.13,3.36-.17,1.63,1.52,1.63,1.52.79,4.82.63-2.3,1.31-4.58,1.77-7-.38,1.42-2,1.31-2.7,2.34a4.33,4.33,0,0,1-3.35-.08,17.4,17.4,0,0,0-7.2-3.65c-1.33-.25-2-.64-1.44-2.45.93-2.8-.52-5.42-1.61-8-.66-1.84-1.08-3.76-1.68-5.62A6.89,6.89,0,0,1,48.72,170a1.53,1.53,0,0,0,.51-1.5c-.09-1.87.54-2.83,2.48-1.66.74.45,1.2.06,1.76-.31.8-.52,1.59-.6,2.15.39.13.66-.29,1-1,1.51,1-.53,1.52-1.39,2.53-1.17a2.45,2.45,0,0,1,1.71,1c-.18,1.64-1.78,1.72-2.77,2.45-2,1.5-2,2.06.32,3.15a14.15,14.15,0,0,0,3,.94c-.16-2.37-.93-4.84,1.14-6.77,1.05-1.45,3.2-1.36,4.14-3a8.61,8.61,0,0,1,8.15,2.34c.36,1.22-.53,1.44-1.37,1.7-1.17-.37-2.11-.41-1.69,1.31-1.44,2.6-1.8,5.61-3.15,8.25-2.89,1.08-5.68.62-8.79-.48,2.87,1.48,5.84.76,8.49,1.58,1,1.64.86,3.68,1.91,5.29,1.67,3.54,4.65,5.39,8.27,6.42A6.1,6.1,0,0,1,79.13,192.43Z"/><path class="cls-6" d="M7.37,263.61c1.71,4.77,5.76,5.58,10,5.59,19.77.08,39.54,0,59.31,0H193.05a22.35,22.35,0,0,0,3.9-.35c6.34-1.1,7.33-4.66,8.12-9.85a11.91,11.91,0,0,0,0-1.69q0-118.78,0-237.57c0-3.08-.1-6.21-2.8-8.43,0-1.13,0-2.26,0-3.4,3.2.06,3.45,2.91,4.25,4.91a14.26,14.26,0,0,1,.86,5.23q0,120.48-.1,241c0,9-3.41,12.36-12.38,12.38q-89.25.19-178.5,0c-4,0-8.12-.56-10.52-4.62a5.25,5.25,0,0,1-.77-3.23Z"/><path class="cls-7" d="M124.31,229.18a40.84,40.84,0,0,0,11.28-3.4c1.13,4,3.76,7.13,6.22,10.21,3,3.78,6.77,6.95,10.12,10.47a63.3,63.3,0,0,1,11.95,17.12,2.87,2.87,0,0,1-2.29.85c-6.07,0-12.14.29-18.2-.15-.17,0-.47-.07-.5-.19-.64-2.09-2.06-2-3.75-1.46-.53.18-.9-.19-1.08-.66a2,2,0,0,1,.38-2.1,6,6,0,0,1,2.44-1.31c-2.8.25-2.85.25-3,2.89-.08,1.36-.49,2.37-1.9,2.77a72.13,72.13,0,0,1-12.47,0,1.54,1.54,0,0,1-1.31-1.6c.16-2.5-.56-5.06.22-7.48a6.49,6.49,0,0,0-.77-6.31c-.81.37-1.72,1.38-2.84.8s-1.31-1.74-1.62-2.83c-.59-2.06-2-3.82-2.13-6.05a1.09,1.09,0,0,0-1.31-1.11,1.74,1.74,0,0,1-2-1.17c-.29-1.24,1-1.42,1.68-1.92a4,4,0,0,1,1-.48c.73-1-1.09-2,0-3.11.52-.53.81-1.29,1.67-1.33a1.39,1.39,0,0,1,1.59,1.26c.12.9.42,1.36,1.43,1.22s2.14-.17,2.34.92-1.08,1.22-1.93,1.64c1.39.48,2.89.38,4,1.46.36.37.66,1.1,1.3.75s.54-1.15.46-1.79c-.24-2-1.17-3.93-1.41-6C123.68,230.33,123.43,229.63,124.31,229.18Z"/><path class="cls-8" d="M124.31,114.64a8,8,0,0,1,4.5.53c-1,1.71,1.12,2.5,1.17,4,0,.77,1,.59,1.27.14,1.5-2.42,4.06-1.19,6.05-1.85,4,1.24,7.58,3,10.44,6.15,2.18,2.42,4.59,4.63,6.86,7a5.07,5.07,0,0,1,1.49,2.64,1.34,1.34,0,0,1-.75.89,36.05,36.05,0,0,1-10.6,2.36,4.11,4.11,0,0,1-2.33-1.39c-.19-.17-.37-.36-.55-.55-.51-.8-1.74-1.32-1.08-2.6,1-1.46.42-2.73-1.26-2.88a8.6,8.6,0,0,0-2.17.38,7.55,7.55,0,0,1-2.92,0c-2.41-.62-4.82-1.32-7.36-1.06-.77,0-1.54,0-2.31,0-1.25,0-2.5,0-3.75,0a31.2,31.2,0,0,0-9.5,1.36c-1.43.25-2.83.77-4.32.49-1.38-.95.33-1.56.21-2.6-1.6.2-3,.46-3.83-1.92-.41-1.13-3.31-2.08-5.28-2.32-1.34-.17-2.39,2.61-1.55,3.74A11.47,11.47,0,0,0,99,129.63c3.09.43,1,2,.89,3.17a1.36,1.36,0,0,1-.91.69c-2.32-.84-3.12-.3-3.23,2.19a38,38,0,0,1-5.62,5.79,32,32,0,0,0-7.62,10.94,9.19,9.19,0,0,1-2.75,4.13c-1.35-.11-2.76,0-3.85-1-.45-1.93.3-3.77.39-5.66.5-1.94,1.07-3.87,1.71-5.77,2.43-6.83,5.53-13.26,10.83-18.41a32.64,32.64,0,0,1,3-2.06c2.59-1.25,5-2.77,7.66-4.36-.42-.75-2-.65-1.69-1.67.2-.72,1.07-.47,1.67-.16,1.94.78,3.65.14,5.57-.46a44.23,44.23,0,0,1,15.84-2.27c.41,1.14.75,2.35,2.34,2.42C124,116.46,123.44,115.23,124.31,114.64Z"/><path class="cls-9" d="M142.37,263.58h21.51l36.67,0c-.6,2.73-3.05,2.7-5,3.32a6.79,6.79,0,0,1-2,.05q-87.88,0-175.79,0c-2.8,0-5.76,0-7-3.35l31.69,0c1.11,0,2.25.15,3.24-.57,3-.62,6-.3,8.93-.31,7,0,14-.11,21,.05,2.71-.08,5.42-.09,8.13,0,9.17-.19,18.34,0,27.5,0,2.68.14,5.35-.14,8,0,1.18.05,2.43-.09,3.37.88l14.12,0C138.63,262.8,140.5,262.51,142.37,263.58Z"/><path class="cls-10" d="M75.49,263.52l-28.09.06c-.6,0-1.35.28-1.71-.56a70,70,0,0,1,12.38-15.87A89.63,89.63,0,0,0,67.83,236c1.27,0,3.4-1.07,2.37,1.94-.43,1.22.66,1.89,1.6,1.65,2.17-.56,4.25.2,6.32.05,1.68-.11,2.53,1.17,3.72,1.7,1.68.75.74,2.41-.26,3.7-.6.76,1.56,2.81,3.24,2.83.92,0,1.44,0,1.48,1.05-1,2.56-3.5,4-4.61,6.47C79.2,257.75,78,261.11,75.49,263.52Z"/><path class="cls-11" d="M99.48,117.41a3.21,3.21,0,0,0-.83.07c-.73.27-.3.39.08.53.69.25,1.37.52,2.3.87a46.2,46.2,0,0,1-9,5.3c-.9-.15-1-1.33-1.88-1.52-.85,1.15-.48,2.89-1.93,3.68a28.53,28.53,0,0,1-6.44.87c-2.64-.68-3.11-1.35-2.44-3.85a15.46,15.46,0,0,0,.27-4.16c.71,2.36-1.27,5-.92,7.88a2.15,2.15,0,0,1-1.37.89c-5.65.64-9.88,4-14.13,7.32-1.16.88-2.1,2-3.18,3-.71.63-1.29,1.62-2.52,1.2-.79-1.28-.08-2.55.12-3.79.24-1.48-.12-2.35-1.66-2.59-.19,0-.36-.14-.54-.16-1.14-.11-2.13-1.76-3.28-.66s.5,1.93.72,2.93a4.56,4.56,0,0,1-.7,3.72c-.29.43-1.15.8-.33,1.6.55.55.94,1.06,1.85.66,1.1-.47,2-.44,2.12,1.13-.28,1.75-1.42,3.05-2.39,4.4-2.54,3.5-5,7-6.51,11.11a3.73,3.73,0,0,1-1.46,2c-1.28-.27-2.38-1.63-3.91-.57-.24.17-.58-.33-.4-.76,1.32-10.44,4.07-20.35,10.75-28.79a16.39,16.39,0,0,1,4-3.84c1.46.34.84,2.68,2.68,2.68.05-.81-.75-1.79.15-2.47.71-.53,1.16.24,1.61.66s.39.44.66-.11c1.46-2.94,1.94-.37,2.76.25a28.73,28.73,0,0,0,.07-5.89c4-3.2,8.8-4.45,13.8-5C85,115.25,92.38,114.27,99.48,117.41Z"/><path class="cls-12" d="M59.36,196.44c-.45-.13-.51,1.26-1.16.29-.83-1.23-1.52-.06-2,.27-.82.54.18.94.45,1.19.83.78.94,1.32.16,2.31a12.38,12.38,0,0,0-1.21,3.25c-.95-1-1-2.33-2-2.95-.74-.45-1.51-1.53-2.24-.13-.87,1.69-1.48-1.63-2.25,0a10.25,10.25,0,0,1-1.64-2.92c-1.56-3.07-2.76-5.92-7.09-6.85a10.24,10.24,0,0,1-8.14-10c-.28-5.91.91-11.3,7.35-13.74a1.23,1.23,0,0,1,1,.71c.15.45.34,1.13,0,1.33-2.1,1.35-.2,2.36.15,3.54a2.09,2.09,0,0,0,1.72-1.65c.65-1.91,1.69-1.34,2.22-.14a53.82,53.82,0,0,1,3.66,11.16c-2.09,1.69.36,2.64.5,3.34a2.75,2.75,0,0,1-1.07-2.74,1.44,1.44,0,0,1,2-.37c1.38,2,1.64,4.35,2,6.66.14,1,.54,2.13-1.61,2.58,4,1,7.44,1.51,9.26,4.9Z"/><path class="cls-13" d="M202.24,204.41q0,18.81,0,37.62l-5.92,0a2.63,2.63,0,0,1-3-2.95q0-15.92,0-31.83c0-2,1-2.92,3-2.92Z"/><path class="cls-14" d="M85.86,248.84c-.58-1.82-1.52,1.52-2.33-.2a5.72,5.72,0,0,0-2.45-2.23c-1.3-.69-1.11-1.52-.16-1.94a2,2,0,0,0,.78-2.81c-.93-1.14-1.27.87-2.14.78-.85-.69.09-1.42-.22-2.35-2.53,1.41-5.1-1.14-7.83.23-.65.33-2.81-.29-2.08-2,.82-2-.66-1.85-1.6-2.33l1.79-3.38c2.27-.81,4.74-.11,7.42-1-2.21-1.95-4.51-.5-6.56-.8q.73-2.9,1.49-5.8c1.4-1.14,2.58,0,3.74.47a29,29,0,0,0,15.26,2,1.9,1.9,0,0,1,2-.45c2.22,2.24,2.3,3.67.4,5.73,1.43-.78,2,.29,2.26,1.38s.42,2.64-.74,3.35a2.21,2.21,0,0,1-3-.71,8.13,8.13,0,0,0-4.06-4.05c-.83-.36-.55-1.28-.31-2.07A3.75,3.75,0,0,1,85.81,233c-1.33.94-1.73,0-2.2-1-.2-.43-.88-.17-1.32-.11-.84.12-.36.68-.25,1,.36,1.16-.1,3,2.33,2.33,1.09-.31,1.15.59.71,1.43-.32.59-1,.89-1.31,1.56,1.88.67,3.1,1.48,2.77,4-.18,1.39,1.74,2.8,1.88,4.57C88,248,87.59,249.22,85.86,248.84Z"/><path class="cls-15" d="M144.77,136c1.56-.89,4.27-1.63,4.91-1.39,2.31.87,3.7-1.73,5.67-.85-.1,2,.62,3.29,2.81,3.39,4.16,8,7,16.31,7.39,25.37a7.07,7.07,0,0,0,.8,2.33c-1.57-.44-2.37-1.71-3.17-3a76.23,76.23,0,0,0-5.54-8.37c-1.17-.44-1.53-1.55-2-2.53-1.6-3.25-4.08-5.93-5.73-9.14,0-.46-.06-1,.4-1.2,1.77-.78,1.82-1.51.14-3.26a8.71,8.71,0,0,0-3.15,1.64C145.85,138.53,144.42,138,144.77,136Z"/><path class="cls-16" d="M59.59,35.45a90.17,90.17,0,0,0-1,11.91c0,.71.45,2-.86,1.87-.93-.08-1.15-1.26-1-2.07.66-3,.28-6,.58-9,.22-2.23.16-4.49.19-6.74,0-.75-.18-1.64.86-1.75.88-.09,1.32.63,1.5,1.4A12.45,12.45,0,0,0,62.8,36.5c1.29-1.91.66-3.8.87-5.54.09-.75-.32-2,1-1.93,1.11.09.92,1.29.8,2.08-.78,5.49-.18,11-.83,16.52-.07.53.1,1.27-.65,1.36s-1-.66-1-1.32a18.25,18.25,0,0,1,.21-3.92C63.9,40.34,62.3,38,59.59,35.45Z"/><path class="cls-17" d="M67.83,43.44c.4-3.17.82-6.7,1.3-10.22a7.55,7.55,0,0,0,.09-3.34c-.74-2.34.35-2.83,2.4-2.62,5.8.59,7,2.7,5.12,8.3A45.82,45.82,0,0,1,72.61,45c-.77,1.26-1.22,3.34-3.36,2.67C67.35,47.1,68,45.23,67.83,43.44Z"/><path class="cls-18" d="M79.82,38c.44-3.47.09-7.31,2.21-10.68,1.33-2.12,2.38-2.14,3.64,0,2.51,4.31,1.1,8.78.47,13.19a18.79,18.79,0,0,1-1.39,4.26,2,2,0,0,1-2.18,1.44,2.21,2.21,0,0,1-1.77-1.64A19.7,19.7,0,0,1,79.82,38Z"/><path class="cls-19" d="M98.6,58.15c-.28,3.79-.53,7.3-.83,10.81,0,.67.47,1.8-.51,1.91s-1.2-1.07-1.1-1.87a113.67,113.67,0,0,0,.62-14.87c0-.69,0-1.39.9-1.47s1.17.56,1.36,1.19a10.08,10.08,0,0,0,2.72,5c1.2-1.66.51-3.46.72-5.11.09-.68-.13-1.72,1-1.64.9.06.72,1,.69,1.58-.21,5.31-.46,10.62-.7,15.93,0,.46,0,1-.62,1.1-.75.1-1-.51-1-1.07a34.59,34.59,0,0,1,.14-3.94C102.38,62.17,101.87,60.87,98.6,58.15Z"/><path class="cls-20" d="M153,61.43c-.25,3.51-.48,7-.74,10.42-.06.72.47,2-.79,1.89-.94-.07-1-1.29-.83-2.11a41.17,41.17,0,0,0,.36-6.46q.17-3.95.31-7.88c0-.72-.25-1.68.84-1.76.89-.06,1.28.7,1.44,1.47a10.4,10.4,0,0,0,1.76,3.8,1.33,1.33,0,0,0,.85.61c.58,0,.68-.58.7-1,.07-1.12,0-2.25.1-3.37.05-.78-.33-2.1.78-2.08,1.33,0,.9,1.42.86,2.26-.08,1.59-.72,3.25-.43,4.75.63,3.25-.43,6.39-.26,9.59,0,.75.35,2-.84,2s-.71-1.32-.72-2.11c0-3.2,1.08-6.63-1.84-9.26A1.64,1.64,0,0,0,153,61.43Z"/><path class="cls-21" d="M105.53,39.49c.17-2.74,0-6.06,1.77-9,.51-.88.86-2.08,2-2.1,1.36,0,1.75,1.28,2.22,2.27,2,4.11.7,8.29.14,12.44a17.68,17.68,0,0,1-1,3.51c-.42,1.18-1.08,2.32-2.54,2.22s-1.73-1.25-2.06-2.36A21.72,21.72,0,0,1,105.53,39.49Z"/><path class="cls-22" d="M37.49,34.84c0,2.06-.06,4.13,0,6.19,0,1.15-.24,2.84,1.31,3,1.2.09,1.45-1.48,1.78-2.55,1.26-4,1-8.16,1.09-12.28,0-.87-.6-2.15.88-2.13,1.12,0,.85,1.27.84,2.06-.09,4.87.09,9.78-1.75,14.43-.57,1.45-1.06,3.38-3,3.26s-2.21-1.88-2.63-3.51a19.88,19.88,0,0,1-.21-8.61c.34-1.9-.21-3.74-.06-5.61.08-.94-.26-2.43,1.22-2.39,1.31,0,.87,1.41.88,2.28,0,2,0,3.93,0,5.9Z"/><path class="cls-23" d="M162.36,56.34c.09-1.24-1.38-3.2,1.48-3.22,3.5,0,6.43,1.57,6.19,3.91-.56,5.42-2.86,10.23-5.93,14.68a1.57,1.57,0,0,1-2,.46c-.91-.41-1-1.22-1.07-2.12-.15-3.31.66-6.53.92-9.8C162,58.94,162.2,57.64,162.36,56.34Z"/><path class="cls-24" d="M141.69,42.81c-.12-3.82,1.6-8.25.31-12.76a1.61,1.61,0,0,1,1.09-2c1-.35,1.26.46,1.54,1.17.5,1.27,1.59.61,2.44.69.55.06,1.25,0,1.4.65.19.9-.61,1-1.23,1.18a7.54,7.54,0,0,1-.83.12c-1.15.16-1.9.65-2,2a1.89,1.89,0,0,0,1.7,2.18c.64.13,1.5.18,1.49,1s-.88.82-1.52.77c-1.46-.1-1.94.79-2.25,2a16,16,0,0,0-.22,5.88c.31,2.37,2.11,2.54,4.07,2.06.55-.14,1.26-1,1.59,0,.26.84-.5,1.37-1.28,1.55-4.32,1-6.66.31-6.35-4.11C141.72,44.58,141.69,44,141.69,42.81Z"/><path class="cls-25" d="M51.88,43.6c.07-.94.44-2.33-1-2.71a2.66,2.66,0,0,0-3.44,1.68c-.47,1.32-.8,2.69-1.22,4-.2.62-.4,1.39-1.29,1.09a1.12,1.12,0,0,1-.64-1.62c.49-1.22,1-2.4,1.52-3.62a86.73,86.73,0,0,0,3.89-13.19c.18-.85.41-1.89,1.37-1.88s1.16,1.16,1.23,1.94c.43,5.23.27,10.5,1.27,15.68.11.58-.07,1.35-.74,1.22C51.47,46,51.56,44.84,51.88,43.6Z"/><path class="cls-26" d="M59.75,59.72c0,2,0,3.94,0,5.91,0,.9-.11,2.18,1.07,2.27s1.32-1.16,1.61-2c1.29-3.72.91-7.61,1.06-11.44,0-.46-.07-.93-.06-1.4a1,1,0,0,1,.8-1c.56-.06.82.42.83.91,0,5.43.41,10.93-2.21,16-.43.82-1,1.8-2.08,1.61a2.66,2.66,0,0,1-2.13-2,16.7,16.7,0,0,1-.84-6.9,57.26,57.26,0,0,0,.35-8.38c0-.72,0-1.68,1.08-1.58.83.09.79.93.79,1.59,0,2.16,0,4.31,0,6.47Z"/><path class="cls-27" d="M123.26,66.11c.38-3.33.15-6.78,2-9.8,1.26-2,2.25-2,3.43,0,2.31,4,1,8.24.4,12.38a16.3,16.3,0,0,1-1.2,3.74,2,2,0,0,1-2.16,1.47,2.12,2.12,0,0,1-1.68-1.71A17.83,17.83,0,0,1,123.26,66.11Z"/><path class="cls-28" d="M179,61.13c-.43,3.23-.54,6.73-1.73,10-.41,1.14-.9,2.41-2.44,2.33s-1.81-1.23-2-2.36c-.93-5.15-1.07-10.28,1.36-15.11,1.15-2.27,2.26-2.17,3.53.06A11.58,11.58,0,0,1,179,61.13Z"/><path class="cls-29" d="M87.16,64.28c.36-2.8,0-6.36,2-9.49,1.35-2.18,2.48-2.26,3.52,0,2.53,5.59,1,11.06-1.08,16.33C90.81,73,88.8,72.7,88,70.7A15.52,15.52,0,0,1,87.16,64.28Z"/><path class="cls-30" d="M78.61,69.33c0,.94,0,2.35,0,3.75,0,.59.14,1.52-.84,1.41-.8-.09-.86-.93-.76-1.58.72-4.46.28-9,.68-13.46.06-.65,0-1.31.1-2,.12-1.34.21-2.74,2.06-1.23a.92.92,0,0,0,.24.13c4.18,1.37,4.31,1.42,2.65,5.59-1.06,2.65.2,4.72,1.06,7,.27.7.63,1.36.94,2s.33,1.37-.49,1.62-.68-.59-.86-1c-.69-1.73-1.3-3.5-2.12-5.17-.92-1.87-1.6-3.6.08-5.42.47-.51,1.11-1.5.33-2-1-.61-1.79.46-2.08,1.27A21,21,0,0,0,78.61,69.33Z"/><path class="cls-31" d="M132,48.25c-.88-.68-1-.73-1-.79.16-6.18.32-12.37.54-18.55.05-1.44.71-2.15,2.15-1.2a3.65,3.65,0,0,0,2.17.4c3.19.08,3.86,1.1,2.65,4-.81,1.94-1.72,3.74-4.08,4.28-1.5.34-1.53,1.69-1.63,2.93C132.51,42.15,132.24,45,132,48.25Z"/><path class="cls-32" d="M71.44,72.29c-2.82.4-3.79-1-3.71-3.41s-.13-5,.53-7.55a15.19,15.19,0,0,0-.19-6.7c-.18-.94-.16-2,1-2.39s1.19.61,1.5,1.23c.49.93,1.25.59,2,.49s1.47-.07,1.58.74-.73,1-1.36,1.09c-.93.14-2,.06-2.34,1.18-.56,1.67.25,2.46,1.83,2.76.54.1,1.2.23,1.08,1-.1.55-.67.66-1.13.59-2-.27-2.38,1.14-2.53,2.6-.14,1.3,0,2.62-.1,3.93-.15,2.52,1.33,3,3.41,2.9.64,0,1.54-1.24,1.86-.06s-.85,1.49-1.83,1.6A13,13,0,0,1,71.44,72.29Z"/><path class="cls-33" d="M40.89,70.63c-1.18,2.89-3.39,2.09-5.17,2.07s-2.21-1.39-2.23-2.76c0-2.52-.36-5.06.42-7.55s.3-4.84,0-7.27c-.12-.9-.26-2,.86-2.44s1.23.5,1.53,1.2a1,1,0,0,0,1.15.58c.9-.07,2.31-.58,2.42.59.12,1.32-1.48,1.05-2.41,1.29-1.7.46-1.58,1.65-1.17,2.89.25.72,1.05.66,1.67.85s1.19.31,1,1.07c-.13.58-.72.53-1.16.49-1.66-.14-2.1,1-2.3,2.25a20.37,20.37,0,0,0-.25,2.8C35.18,71.11,36,71.78,40.89,70.63Z"/><path class="cls-34" d="M164.47,28.94c-1.05,2-.84,3.43,1.69,3.88.47.09,1,.35,1,.86,0,.79-.66.82-1.21.78-2.11-.16-2.5,1.26-2.65,2.85-.09,1-.08,2.06-.08,3.1,0,4.08.38,4.4,4.59,3.79.4-.06.79-.18,1,.17a.93.93,0,0,1-.38,1.22c-1.6,1.17-3.44.84-5.16.59-1.56-.22-2-1.67-2-3,0-2.69-.39-5.43.5-8.08s.15-5.19-.08-7.79c-.2-2.31.33-2.67,2.22-1.84-.64.68-.37,1.23.17,1.84C164.41,27.74,164.87,28.24,164.47,28.94Z"/><path class="cls-35" d="M117.15,64.86q1.21-5,2.44-10c.16-.64-.13-1.79,1-1.54.9.2.78,1.21.63,1.94-.5,2.38-1.33,4.67-1.76,7.09-.51,2.85-1.43,5.63-2.16,8.44-.16.63-.21,1.43-1.06,1.43-1.14,0-.9-1-1-1.68-.63-5.11-.22-10.35-1.8-15.35-.18-.57-.07-1.23.58-1.38.93-.2,1,.59,1.1,1.25.4,3.25.79,6.5,1.19,9.76Z"/><path class="cls-36" d="M140.17,68.25a136.24,136.24,0,0,0,3.9-13.46c.15-.75.4-1.65,1.31-1.54s.93,1,1,1.8c.55,4.83.28,9.73,1.16,14.53.1.56.09,1.24-.68,1.27-.62,0-.94-.51-1-1.11a2.1,2.1,0,0,1,0-.56c.15-1.24,1-2.81-.89-3.3s-2.85.91-3.56,2.44A.8.8,0,0,1,140.17,68.25Z"/><path class="cls-37" d="M50.66,72c-1.06-3.2-.9-6.45-.78-9.68.1-2.43.57-4.86-.14-7.28-.41-1.38.33-1.92,1.6-1.92.85,0,1.69.08,2.54.13s1.61.18,1.69,1.13-.64,1.34-1.46,1.36c-1.19,0-2,.35-2,1.73s.77,2,2.18,1.82c.74-.09,1.38.27,1.37,1,0,1-.88.77-1.49.73-2.45-.14-2.72,1.46-2.72,3.32C51.41,67,52.08,69.57,50.66,72Z"/><path class="cls-38" d="M157.8,41.54c.64,2.12-.23,3.85-1.23,5.49-.67,1.09-1.69,1.07-2.62.21a3.47,3.47,0,0,1-1-1.29,27.21,27.21,0,0,1,0-17.38c.56-1.75,3.18-1.71,4.13-.11.57.95.55,2.22-.78,1.93-2.11-.46-2.17,1-2.45,2.12a30,30,0,0,0-.64,10.6c.12,1.12.28,2.5,1.61,2.66s1.66-1.28,2.16-2.24C157.27,42.89,157.52,42.2,157.8,41.54Z"/><path class="cls-39" d="M33.08,41.4a10.22,10.22,0,0,1-1.8,5.52,1.53,1.53,0,0,1-2.61.29,4.53,4.53,0,0,1-1.57-2.3A32.41,32.41,0,0,1,27.37,29a2.35,2.35,0,0,1,4-1,1.6,1.6,0,0,1,.52,1.77,1,1,0,0,1-1.4.55c-1.33-.48-1.55.34-1.84,1.35a27.91,27.91,0,0,0-.8,11.71c.14,1,.31,2.28,1.56,2.39s1.51-1.19,2.06-2S31.79,41.89,33.08,41.4Z"/><path class="cls-40" d="M177.51,28.62c-.08.54-.46.71-.92.91-2.69,1.18-3.23,2.49-2.26,5.46.75,2.31,1.74,4.57,2.29,6.93a4.78,4.78,0,0,1-3.74,5.92c-.7.11-1.37.07-1.64-.69-.18-.52.25-.84.67-1.09,4-2.31,4.36-3.75,1.81-7.76-1.85-2.89-1.63-5.86-.75-8.92.48-1.68,2-1.88,3.36-2C177.06,27.3,177.52,27.82,177.51,28.62Z"/><path class="cls-41" d="M103.3,46.79c-1.57,1.83-3.57,1.4-5.35.91s-1.32-2.08-1.17-3.36c.56-5,1.79-10,1-15.07-.11-.78-.07-1.65,1-1.66,1.22,0,1.18,1,1.1,1.86-.29,3.55-.68,7.09-1,10.64-.13,1.67-.54,3.38-.06,5C99.56,47.51,102,45.42,103.3,46.79Z"/><path class="cls-42" d="M63.87,121c1.43,2.06,1.19,5.49-.56,8a7.28,7.28,0,0,0-1.51-3.14c-.56.83.41,2.36-.79,2.66-1.41.35-.36-2.16-2-2-.49.85.87,1.74.19,2.67-2.63.43-3-1.44-3.23-3.38A61.36,61.36,0,0,1,63.87,121Z"/><path class="cls-43" d="M31,54c-.09.69-.36,1.08-.87,1.17-3.48.6-2.68,3.06-2.11,5.19.67,2.52,2.11,4.83,2.11,7.54,0,2.15-2,4.36-3.92,4.37-.48,0-1,0-1.18-.55s.18-.84.6-1.09c3.72-2.16,4.16-3.51,1.84-7.1-1.75-2.72-1.66-5.47-.87-8.37.47-1.72,1.83-2,3.29-2A1.13,1.13,0,0,1,31,54Z"/><path class="cls-44" d="M135,56.13c-.39,3.85-.76,7.38-1.08,10.92-.19,2.08-.34,4.17,2.86,3.63.46-.08,1,0,1.09.59s-.45.72-.89.88c-3.22,1.19-5.09-.2-4.77-3.63.43-4.64,1.62-9.23.92-13.94-.11-.76.14-1.36,1-1.32.68,0,.85.62.87,1.21S135,55.78,135,56.13Z"/><path class="cls-45" d="M76.31,102.16c1.34-.77,1.85-2.73,3.79-2.65,2.4.09,4.78.68,7.22,0,.69-.2.71.7.42,1.23-.51,1-.55,1.86.55,3.1-3.82-2.2-7.33.27-10.77-.65-.73-.2-1.14-.17-1.26-.92Z"/><path class="cls-46" d="M40.14,167.76c-.19-.21-.39-.41-.59-.62q.81-4.33,1.6-8.66c.21.11.57.37.62.32,1.78-1.87,2.75-1,3.4,1,.8,1,.14,2-.1,2.93-.54,1.17-1,2.38-1.64,3.51S41.88,168.62,40.14,167.76Z"/><path class="cls-47" d="M137.3,117.42a2.37,2.37,0,0,1-3.3,1.06c-1.87-.8-1.74,1.23-2.64,1.79-.69.42-1.61,1.48-1.8.1-.3-2.14-1.53-3.18-3.46-3.88.92-1,2.65.67,2.71-1.32C131.85,115.15,134.58,116.26,137.3,117.42Z"/><path class="cls-48" d="M117.66,37.27c-2.23-2.86-1.76-6-.81-9.12.51-1.72,2.05-1.73,3.44-1.82a1.05,1.05,0,0,1,1.1,1.06c0,.56-.33.83-.77,1.06-3.21,1.66-3.5,2.34-2.42,5.77.2.62.38,1.25.57,1.88C118.92,37,118.5,37.32,117.66,37.27Z"/><path class="cls-49" d="M120.19,101.42c-.69.44-.3,1.55-1.45,1.72-.19-1.39-1.6-2.94,1-3.7.35-.11.82-.4,1-.13,1,1.83,1.3-.28,2.06-.4a3.28,3.28,0,0,1,0,2.57c-.15.47-.17,1,.41,1.13s.8-.36,1-.8a5.29,5.29,0,0,0,.13-.54c.19-.73-.5-1.75.66-2.15.19-.07.68.12.71.27.24,1,.38,2,.56,2.94-1.42-.27-2,1.73-3.2,1.38S120.2,103.32,120.19,101.42Z"/><path class="cls-50" d="M70.48,230.8c1.68-1.9,3.9-.63,5.85-.92,1.36-.21,1.43,1.4,1.49,2.26.1,1.38-.92.52-1.56.51-2.21-.05-4.43.73-6.64-.08Z"/><path class="cls-51" d="M117.66,37.27l1.11-1.17a11.87,11.87,0,0,1,1.67,6.44,4.83,4.83,0,0,1-4.11,4.27c-.6,0-1.17-.05-1.4-.68s.25-.84.65-1.08C119.88,42.48,119.92,42.31,117.66,37.27Z"/><path class="cls-52" d="M104.06,99.1a5.49,5.49,0,0,0-.45,3.26c1.69-.31.37-2.26,1.71-2.87.35,1.33,1,2.77-.38,3.64-1.19.75-2.27-.11-3.33-1s-.07,1.27-1.06,1C99.55,100,99.55,100,104.06,99.1Z"/><path class="cls-53" d="M106.9,99c1,.67-.77,1.63.91,2,.42-.39-.23-1.89,1.26-2,.33,1.15-1.4,2.22-.28,3.37a1.58,1.58,0,0,0,1.26-1.35c.16-.71,0-1.58.91-1.91.42-.15.7.25.78.6.27,1.12.55,2.75-.38,3.14-1.45.61-3.23.43-4.87.59C107.17,102.1,105.41,100.5,106.9,99Z"/><path class="cls-54" d="M112.22,90.73c.12,2.11,1,3.75-1.39,4.66-.72.27-1.2.14-1.38-.2-1.33-2.52-.84,1-1.84.22-.17-1.34-.67-3.67.87-4,2.11-.52.21,2.34,1.55,3.1C111.26,93.75,110.75,92,112.22,90.73Z"/><path class="cls-55" d="M132.14,103.68c-2,0-1.43-1.35-1.83-2.07-.74.42,0,2.27-1.44,1.75-1-.36-.59-1.63-.61-2.53,0-1.84,1.35-1.39,2.44-1.6,1.55-.28.86.84.88,1.36A4.84,4.84,0,0,0,132.14,103.68Z"/><path class="cls-56" d="M97.56,102c.35-.86.7-1.73,1.14-2.84,1.17,1.19,1,3.18.62,3.4-1.07.65-2.64.5-3.84.4s-.07-1.7-.29-2.62c-.12-.49.07-1.21.86-1.13,1.09.11,1,.8.72,1.63C96.61,101.27,96.78,101.73,97.56,102Z"/><path class="cls-57" d="M85.08,95.78a2.83,2.83,0,0,0,.24-2.53,1.89,1.89,0,0,1,1-2.44c-.17,1.46-.38,2.69.41,3.77,1.16-.79.88-2.35,1.73-3.32C90.12,94.22,89.28,95.39,85.08,95.78Z"/><path class="cls-58" d="M124.31,114.64a5.75,5.75,0,0,1,0,.83c-.15,1,.49,2.22-.51,2.84-1.25.78-1.49-1.93-3.06-1.19a5.56,5.56,0,0,1,.15-2.44A7.74,7.74,0,0,1,124.31,114.64Z"/><path class="cls-59" d="M136.69,99.52a5.92,5.92,0,0,0,.12,1.34c.78,2.67-1.79,2-2.86,2.75-.47.33-1.24-.39-1.19-1.15.07-1.15-.48-2.51.5-3.38.44-.4.73.22.84.9.16,1-1.63,2.22-.16,2.58s1.25-1.66,1.76-2.63a3.73,3.73,0,0,0,.26-.82Z"/><path class="cls-60" d="M158.16,137.18c-1.44,1.67-2.26-.07-3-.72a1.49,1.49,0,0,1,.22-2.67l.74-.61A10.92,10.92,0,0,1,158.16,137.18Z"/><path class="cls-61" d="M164.47,28.94c0-1.2-3.18-1.82-.63-3.48.25,1.59,1.49,1.05,2.43,1.12.74.06,1.73-.1,1.8.86s-.91,1.07-1.65,1.22S165.12,28.85,164.47,28.94Z"/><path class="cls-62" d="M71.69,103.5c-.85-.47.7-1.7-.73-2-.71.39,0,2.2-1.31,1.87-1.09-.27-.67-1.59-.71-2.49-.1-2.08,1.46-.66,2.2-1,2-.85.66.84.9,1.29A1.62,1.62,0,0,1,71.69,103.5Z"/><path class="cls-63" d="M68.15,103.78c-3-.59-1.76-2.73-2.07-4.27C67.48,99.83,67.48,99.83,68.15,103.78Z"/><path class="cls-64" d="M91.61,94.21c2.52.5,1-2.36,2.8-2.93,0,1.35.93,2.53,0,3.94-.73-1.18-2.76,2-3-.88Z"/><path class="cls-65" d="M101.73,95.44a5.42,5.42,0,0,0,.52-3c-.06-.53-.12-1.24.68-1.27s1.14.54,1,1.31a4.78,4.78,0,0,0,.51,2.66c-1.4-2.1-1.75.93-2.78.27Z"/><path class="cls-66" d="M117.84,92.26c-1.17-.32-.78.69-1.18,1a1.62,1.62,0,0,1,.14-2.15c.36-.32.9-.08,1.29.22.91.67.58,1.49.23,2.27a10.18,10.18,0,0,1-1,1.69c-.25.35-.63.85-1.09.25s-.44-.87.45-1.09C117.82,94.16,117.62,93.08,117.84,92.26Z"/><path class="cls-67" d="M140.17,68.25l1.21.07a6.51,6.51,0,0,1-.28,1.34c-.38.87,0,2.11-1.22,2.56a.78.78,0,0,1-.69-.28c-.73-1.13,0-2.07.47-3A3.83,3.83,0,0,1,140.17,68.25Z"/><path class="cls-68" d="M91.46,94.34c-1.58-1-.69.94-1.57,1.18,0-1,0-2,0-2.9,0-.72-.18-1.67,1-1.45.93.17,1.11.79.75,1.67a4.41,4.41,0,0,0-.08,1.37Z"/><path class="cls-65" d="M101.7,95.41c-1.67,1.33-2.37.19-2.18-1.19.15-1.07-.37-3.2.72-3.13,1.53.1.54,1.76.35,2.78a1.19,1.19,0,0,0,1.14,1.57Z"/><path class="cls-45" d="M76.26,102.23c-.51.13-.71,1.23-1.23.77-.91-.83.15-1.84.13-2.8,0-.55.49-.76,1-.51s.64.81.39,1.41a6.23,6.23,0,0,0-.22,1.06Z"/><path class="cls-69" d="M115.26,102.22c1.15-.56.67-2,1.52-2.77,1.24,2.32.9,3.38-1.21,3.66a5.34,5.34,0,0,1-.3-.92Z"/><path class="cls-70" d="M113.34,95.24a7.86,7.86,0,0,1,.27-3.58c1.51.7,2.08,1.72,1.51,3.25-.75-.22.08-1.15-1-1.39C113.61,93.7,114.27,95,113.34,95.24Z"/><path class="cls-71" d="M73.86,103.26c-.57-.27-.7-.3-.71-.34-.18-1.14-.72-2.32.24-3.35.11-.11.73.05.73.07C74.06,100.79,74,101.93,73.86,103.26Z"/><path class="cls-72" d="M115.27,102.19c-.86.37-.27,1.62-1.43,2.21l.62-5.38c1.06,1.29.61,2.32.8,3.2Z"/><path class="cls-73" d="M105.93,95.92c-.69-1.57.08-2.84-.57-4-.31-.53-.07-.91.53-.9s1,.21.74,1A36.68,36.68,0,0,0,105.93,95.92Z"/><path class="cls-45" d="M89.38,99.64c-.8,1.22,1.41,2.71-.56,4.16C89.2,102.22,88.13,100.89,89.38,99.64Z"/><path class="cls-56" d="M94.06,98.52c.43,1.91-.29,3.1-.64,4.36C93.24,101.54,92.6,100.15,94.06,98.52Z"/><path class="cls-74" d="M144.77,136a9.69,9.69,0,0,0,2.72,2.73,2.7,2.7,0,0,1,1,.46,3.81,3.81,0,0,1,1.77,2.33c2.57,3.93,5.65,7.54,7.36,12-.81,1.52-2.9,1.37-3.78,3-.38.69-1.25-.37-1.65-.91-.91-1.24-1.1-.18-1.47.4a6.44,6.44,0,0,1-3.57-2.12c-3.79-3.5-8.27-3.62-12.95-2.81a10.83,10.83,0,0,0-2.76.5c-2.41-.55,0-1.95-.61-2.57a8.35,8.35,0,0,0-.55,6.36c2.27-.08.54-3.07,2.24-4a14.43,14.43,0,0,1,13.81,2.8c1.58,3.61.77,5.25-3.07,6.26-4.55-.21-8.89.25-12.28,3.8a3.63,3.63,0,0,0-1.08.87c.34,0,.58-.46.9-.34.75.28.78,1,.78,1.63a11.59,11.59,0,0,1-.47,2.67,3.28,3.28,0,0,1-1,.91c-2.36,1.33-2.87,1.1-3.47-1.54-.11-.45-.31-.88-.46-1.32-.75-2.16.39-4,.9-5.95-.37.59-.34,1.41-.89,2-.41.24-.92.15-1.33.44-.67.46-1.36,1.26-2.13.19s-.83-2,.17-2.75c.58-.44.92-.59.24-1.24a1.44,1.44,0,0,1-.18-1.6c1.2-2.6.89-5.11.42-7.89a8.34,8.34,0,0,1,2.91-8.07c.09-.08.35,0,.53,0s-.05-.14-.26-.27c-2.15-1.31-.75-3.22-.8-4.86,0-1.44.68-1.51,1.82-.94,1.67.84,2.52,2.42,3.69,3.72.44,1.81,1.86,2.4,3.44,2.63-1.39-.48-.73-2.07-1.47-3-.16-.19-.32-.38-.47-.58a14.12,14.12,0,0,0-2.75-2.54c-1.52-.82-2.41-2.75-4.77-2.11-1,.28-1.92-1.08-2.21-2.2-.33-1.29.4-1.67,1.58-1.42.1-1.47,1.17-2,2.35-2.4,1.38-.51,2.25-.26,2.45,1.43,0,.39-.22,1.88,1.32,1.11.45-.23.75.69.63,1.26-.47,2.29.84,2,2.25,1.56,1-.86,3.17-.49,3-2.84,0-.57,1.05-.92,1.86-.85a2.91,2.91,0,0,1,2.3,2.18l1.76,2.08c-2.26,1-4.83,1.09-6.82,2.77.92-.64,2-.92,2.89-1.53a1.16,1.16,0,0,1,1.55,0,1.35,1.35,0,0,1,.08,1.8c-.24.4-.6.72-.86,1.11a2.46,2.46,0,0,0-.57,2.1.67.67,0,0,0,.88.47,2.81,2.81,0,0,0,2.17-1.62,1.79,1.79,0,0,0-.2-1.88c-1.73-1.73-.5-2.46,1-3.18Z"/><path class="cls-75" d="M113.59,190.23c-.68-.45-1.13-1.64-2-1.31-1.32.52,0,1.37.05,2.09,0,.45-.09.73-.53.82s-1.09.16-1.2-.36c-.17-.83-.39-1.6-1.33-1.1s.8,1-.11,1.82c-.69-.32-1.42-1.58-2.75-.65-.4.28-1.6-.23-2-1.19-.29-.75-.57-1.35.45-1.83s-.16-1-.2-1c-1.4,1.6-3.18-.36-4.76.87-.06-1.86,1.72-2.18,2.08-3.63-1.94-.05-2.34-1.25-1.83-3.27-1.12,4.33-5.28,4.1-7.67,6.16-.86.74-.67-.26-1-.39-1.69-.72-1.88-4.64-5-2.37-.75.55-1.18-2.33-2.24-.3-1.48,2.17-2.78,2-4.71-.56.37-1.8,1.61-1.43,3.25-1-1.27-.53-2.14-.84-3-1.13a2.32,2.32,0,0,1-1.87-2.47c.09-1.29,1.2-1.85,2.16-2.38.79-.44,1.43,0,1.81.79A3.33,3.33,0,0,0,83.82,180c.45-1.24-.63-3.74,2.24-3.24.26-2.71,2.28-1.07,3.63-1.46a3.11,3.11,0,0,1-1.23-2.53c.07-.94,1.28-1.5.87-2.61a3.35,3.35,0,0,1,.19-1.95,2,2,0,0,1,1.28-1,1.73,1.73,0,0,1,1.16.15c.09.7-.25,1.48.36,2.09.08,1.8,1.64,2,2.82,2.65,1,.49,2.2.42,3,1.36.29,1,.93,1.83.56,2.91a3.55,3.55,0,0,1-3.48-.67c2.61,1.63,5.78.77,8.54,1.7.52,1.09,1.07,1.5,1.68,0a4.42,4.42,0,0,1,2-1c-1,.07-2,.88-3,.13-.5-1.89,1.45-2.06,2.17-3.09,2.13-1.28,4.5-2,6.72-3.09,1.63-.31,3-.19,1.93,2-.66,1.36,1.65,1.53.88,2.77-.55,1.6-1.65,2.92-2.3,4.48-.33.79-.8,1.53-1.9,1.14-.94-.94-.17-2.06-.31-3.11-.39,1.13,0,2.37-.57,3.45-.46.57-1.89-.2-1.6,1.56.48,3,.29,3.07-2.57,3.47,1.92.24,3-.78,3.36-2.92.09-.65.13-1.68,1.13-1.65s1.23,1.1,1.24,1.88c0,1.5.89,2.32,1.95,3.11A3.41,3.41,0,0,1,113.59,190.23Z"/><path class="cls-76" d="M122.63,263.59H111.31a1.57,1.57,0,0,1,.5-1.87c1.12-.59,3,.62,3.43-2,.19-1.09,1.76-1.89,1-3.67-.59-1.43-.73-3,1.92-1.74,1.9.87,1.88-1,2.14-2.6-.81,1.49-1,3.75-3.09,1.5-.54-.59-1-.23-1.45.15-.85.69-2,1.83-2.65.26-.49-1.25-1.39-3.3,1.31-4.25a7.71,7.71,0,0,1-3.2-1.78c-2.33-1.63-2.36-2-.23-4.1-2.07-.14-2.84-2.81-5.14-2.58-.41.05-1-.4-1.32,0-1.71,2-3.51-.13-5.28.14-1.05.16-1.4-1-1.08-1.84.64-1.59,0-3-.2-4.52a3.29,3.29,0,0,1,1.37-2.39,42.11,42.11,0,0,1,6.05-.25c1,0,1.57-.25,1.78-1.23.77-1.61,1.27-3.4,2.95-4.39l2.41,1c-1.77,1.16-.67,3.71-2.75,4.94,2.28-.12,2.43.11,2.22,2.88.93.49,1.85-.35,2.72-.07,1.19.38.48.89,0,1.33l-2.56,1.61c1.42,1.09,1.42,1.09,3.24.32.16,3.52,2.15,6.47,3,9.79.32,1.26,1.23,1.25,2.17.62.69-.46,1.32-1,1.84-1.42C124.86,252.78,122.17,258.19,122.63,263.59Z"/><path class="cls-77" d="M131.08,166.49a4.57,4.57,0,0,0-.05-.83c-.07-.3-.26-.43-.54-.18l-2.11,1.85c.46-1.94.91-2.89,2.27-3.15,5.15-4.4,10.45-5,16.25-1.89.39.21,1,.82,1.1-.25,2.36-1.44,2.5-1.44,3,1.21.26,1.27.63.28,1,.19,2-.51,2.86-.11,4.13,2.36-1.38-1.12-2.18-1.15-2.47.37-.36,1.87-1.85,2.13-3.44,2.13-2.25-.76-3.11-3.54-5.61-3.91.41.65,1.09,1.26.4,2.13-3.1.79-5.14,3.09-7.5,5-1.08.87-.38,2.2-1.35,2.88-1.24.78-2.24-.31-3.23-.39.52.62,2,0,2.15,1.44-.07,1.25-1.31,2.1-.92,3.66.21.85-1.39,2.42-2.11,2.27-2.24-.45-2,.92-2.16,2.21-1-.09-1.4-.88-1.67-1.67a42.8,42.8,0,0,1-2.46-11.77c0-1.08-.18-2.28.94-3.05.84.86,1,1.9.43,3.5l4.06-1.87c1.38-.74,2.17.83,3.6.84.34-1.45-.07-3.09.72-4.53C133.77,164.92,132.81,166.87,131.08,166.49Z"/><path class="cls-78" d="M114.11,202c6,1.51,11.85,2.58,17.68-.9,2-1.2,4.65-1.37,7.06-2-.54,9-10,16.18-18.67,15.19-7.19-.81-10.75-5.87-14.81-10.61-.67-1-.52-1.21,1.17-1.59,1.25-.29,2.56-.12,3.79-.56A5.09,5.09,0,0,1,114.11,202Z"/><path class="cls-79" d="M129.81,188.52a13.87,13.87,0,0,0-2.74,4.08c-.53.45-.93.91-.15,1.48s.07,1.23-.3,1.07c-2.9-1.22-2.92,1.42-3.85,2.79-.34.5-.16,1.32-1.2,1.61-.68-1.89.19-4-.75-5.84-.32-.63-.57-.14-.86-.08a4.23,4.23,0,0,0-1.84,0l-1.92-1.29c-1.07.61.84,2.25-1.08,2.43-1,.08-1.47-.18-.94-1.23,1-2,.14-4.62,2-6.36,2.1-.82,4-2,3.9-4.51-.07-2.81,2.25-4.55,2.7-7.18.33-1.94,1.89-1.1,2.89,0a3.41,3.41,0,0,1,.5,2.35c-1,2.75-3.25,4.89-4,7.82-.2.78-.91,1.43-.27,2.76.68-1.26.31-2.51.81-3.45s.42-3.44,1.77-3c1.94.61.65-2.23,2.08-1.41C128,183.07,129.89,185.4,129.81,188.52Z"/><path class="cls-80" d="M76.31,204.1l10,1.78,1.23,1.83a2.84,2.84,0,0,1-3.06.92c-3.72-.82-7.35-2.09-10.8-1.92,3.83,2,8.23,3.6,13.21,2.69a4.44,4.44,0,0,1,2,.17l.91,1c-1.4,2.44-3.89,2.05-6,2a17.13,17.13,0,0,1-10.18-3.26,39.27,39.27,0,0,0,6.31,3.5,9.27,9.27,0,0,0,7.89.2,6.5,6.5,0,0,1,3.51-.76l1.4,1.81c-10.14,5.45-19.05,1.48-25.12-8.9,1-1.22,2.59.46,3.58-.75A5.1,5.1,0,0,1,76.31,204.1Z"/><path class="cls-81" d="M114.69,236.5c0-.34.4-1.29-.2-.87-1.42,1-2.59.37-4.33,0,1.76-1,1.72-2.05.91-3.21-1.47-.26-.14,1.95-1.27,1.47-1.3-.56-.31-1.61.09-2.36.5-.93,1.42-1.55.82-3-.32-.76,1-1,1.83-1.15l2.73.69c1,.38,2.33-.17,3.19,1.18.55.88.69-.78,1.33-.64l4.52.53c-.09,2.27.8,4.35,1.33,6.49a7.4,7.4,0,0,1,.3,2.75c-.1.74-.27,1.57-1,1.86-1,.39-1.25-.58-1.56-1.2-.87-1.74-2.56-1.3-4-1.51-.56-.09-1.13,0-1.43-.67.64-1.19,2.23-.74,3.1-1.76a2,2,0,0,0-2.39-.17c-1.23.63-2-.3-1.94-1.43,0-.56.8-1.13-.26-1.43-.84-.23-1.2.41-1.43,1s-1.09,1.11.13,1.79S116.83,236.53,114.69,236.5Z"/><path class="cls-75" d="M79.13,192.43c-5.1-.37-9.15-2.39-11.4-7.24.73-1.57,3-1.36,3.39-1.14,1.65,1,2.37-.3,3.43-.82,1.32-.65,2.57-2.23,4.15-.42.1.38-.09.73-.1,1.08,0,.69-1.66.67-.75,1.63a2.8,2.8,0,0,0,2.22,1c1.59-.09,3-.94,4.65-.83a7.39,7.39,0,0,1,2.35.49c.46.27.59,1.11.87,1.69-1.39.47-1.6,2.37-3,2.64a2.35,2.35,0,0,1-2.51-.86c-.48-.75,1.13-.64.67-1.56C80.71,188.62,80.26,190.85,79.13,192.43Z"/><path class="cls-82" d="M93.12,227.26,91,227.5c-.51-4.53,1.27-8.67,2.23-12.94L103,223a1.71,1.71,0,0,1-1.08,1.85c-2,.18-3.56,1.63-5.5,2C95.32,227.1,94.29,227.72,93.12,227.26Z"/><path class="cls-83" d="M116.37,187.45a15.64,15.64,0,0,0-1,5.46c0,.91-.16,1.62-1.17.61-.2-1.1-.39-2.19-.59-3.29.19-1.33.39-2.66.58-4-.15-3.82,1.45-7.36,1.85-11.1a16.13,16.13,0,0,0-3.52-12.6,4,4,0,0,1-.67-1.23c-.17-.44-.34-.92,0-1.32.51-.55,1.05-.18,1.49.13a13.82,13.82,0,0,1,4.51,6.32,15.59,15.59,0,0,1,1.27,7.13c-.22,2.95-.49,5.89-.91,8.81C118,184.17,117.94,186.1,116.37,187.45Z"/><path class="cls-84" d="M125.63,177.81c-.12-.74-.24-1.48-.37-2.22a11.48,11.48,0,0,1-1.12-3.61c0-3.06-.27-6.18,1.67-8.89.81-1.1.62-2.77,2.29-3.77-.81,2.71-2,5.11-1.38,7.78a34.24,34.24,0,0,0,3.19,16.49c.22.71.45,1.42.67,2.14.91.58.82,1.55.93,2.44-.15,1.49.54,3.08-.59,4.85l-1.11-4.5-3.4-7.83A2.6,2.6,0,0,1,125.63,177.81Z"/><path class="cls-85" d="M101.9,224.49c.34-.52.3-1.31,1.08-1.52,2.39,1.13,4.38,3.1,7.15,3.46-.87,1.5-1.4,3.22-2.76,4.42-2.37-.49-4.85-.24-7.19-1C100.17,227.87,100.22,225.91,101.9,224.49Z"/><path class="cls-86" d="M88.84,209.57c-5.75,1.75-11.27.7-16.9-3.32,3.47-1,6.53.06,9.58.88,2,.53,3.93,1.29,6,.58Z"/><path class="cls-87" d="M106.74,202.41c-.53.34-1.69,0-1.37,1.25-.42-.59-1.66,3.11-1.69-.36,0-.8-1.41-1.59-2.32-2.55-.09,1.41-.28,2.13-2.2,2-3.55-.2-4.38-4-7.68-4.12.7-1.37,1.27-1,1.75-.8,1.69.81,3.51-.07,5.46.77,1.51.65,3.46.89,5,1.94a8.07,8.07,0,0,0,3.15.94l.19.3A.61.61,0,0,1,106.74,202.41Z"/><path class="cls-88" d="M91.28,212.23c-7.28,3.66-13.36,2.44-19.93-4.46,6.26,3.17,12,6,18.4,2.79Z"/><path class="cls-89" d="M131,151.27c7.5-2.28,14.3-1.67,19.7,4.76-.09,1-.09,1-1.55.32a2.7,2.7,0,0,1-2.84-1.47,16,16,0,0,0-14.18-2.9C131.53,152.17,131,152.2,131,151.27Z"/><path class="cls-90" d="M145,166.52c-.21-1.26-1.17-2.07-2-3.27,3.49.44,5.54,2.5,7.24,5.05-.63,2.73-3.19,1.84-4.94,2.81C145.25,169.43,145.69,167.94,145,166.52Z"/><path class="cls-91" d="M148,162l1.47,2c-6.82-3.76-12.92-4.28-18.82.11,2-3.39,5.4-4.05,8.87-4.5a25,25,0,0,1,3.86.1c1.17.55,3-.11,3.48,1.72C147.05,162.09,147.57,162,148,162Z"/><path class="cls-92" d="M114.11,202l-4,.18c-1.07-.46-2.35,0-3.37-.69h0c.53-1.85-.09-3-2.28-3.37C108.2,198.66,112.14,198,114.11,202Z"/><path class="cls-93" d="M135.1,175.45c-1.15-.88-2.87-.67-4.13-2.15,2.1-.27,3.53,1.1,5.21,1.1,3.32.79,6.56-.29,9.85-.46C142.63,176.45,138.87,176,135.1,175.45Z"/><path class="cls-94" d="M84.72,185.72a30.09,30.09,0,0,0-3.9,1.4c-2.25,1.12-3.19-.88-4.53-1.8-.67-.46-.06-1.19.47-1.12,1.14.17,1.44-.54,1.8-1.28.94-.06.89.43.6,1.06,1.33,1.29,2.7,2.26,4.45.63Z"/><path class="cls-95" d="M131.51,188.17l-.93-2.44c.31-.34.87-.66.9-1,.13-1.7.69-1.49,2.07-1,1.67.65.86,1.54.63,2.38-.15.56-1.19.62-.73,1.73.16.39,1.68,2-.23,2.33s-.57-1.45-1.09-2.08c0-.07-.13-.18-.15-.17A5,5,0,0,0,131.51,188.17Z"/><path class="cls-77" d="M146.86,161.5l-3.48-1.72c2.76-.57,3.76-2.19,3-4.9l2.84,1.47C149.15,158.4,147.46,159.71,146.86,161.5Z"/><path class="cls-96" d="M119.79,228.65c-.94.37.63,1.62-.78,2-1.65.42-.89-1-1.24-1.45-.64-.9-1.9-.19-2.5-1.06,2.14-.05,2.15-2.15,3.29-4.13C118.86,226.12,118.77,227.58,119.79,228.65Z"/><path class="cls-97" d="M118.12,193.61c.09-.53.21-1.15.88-1.12s.79.63,1,1.14C119.32,195.21,118.72,194.55,118.12,193.61Z"/><path class="cls-98" d="M126.92,194.08c-.62.43-1.31.66-1.42-.37s.48-1.54,1.57-1.11Z"/><path class="cls-99" d="M44.54,162.43l.63-2.65c2.37-6.44,6.58-11.8,10.29-17.45a2.32,2.32,0,0,1,1.56-1.6c1.81-.56,3.59-1.17,2.41,2-.34.91,1.36,1.51.87,2.32a8.74,8.74,0,0,1,.22-1.29c.23-1-.12-2.48,1.5-2.62,1.1-.09,2.75,2.34,2.49,3.65-.2,1.05-.78,2-1,3.13.83-1.86,1.32-3.76,2-5.58.23-.58.37-1.4,1.2-1.38s1.13.87,1.35,1.59c.49,1.59-.09,3.15-.15,4.73a28.58,28.58,0,0,1-.6,5.84,1.51,1.51,0,0,1-1,.41c-6-.35-10,3-13.45,6.8,3-3.49,7.19-5.36,11.9-6.41,1-.22,2.36.22,2.85-1.23a29.47,29.47,0,0,0,.67-5.81c-.15-2.71,1.46-3.69,4-2.8.53.19,1,.61,1.55.62,1.11,0,2.35-1.14,3.25.44.68,1.2-.12,2.39,0,3.58a3,3,0,0,1-.17,1.1l-.61,6c.33,3.27-.81,6.38-1,9.6-.12.77-.25,1.54-1.06,1.93a2.06,2.06,0,0,1-1.8-.59c-4.63-3.24-9.39-2.63-14.17-.45a5.39,5.39,0,0,1-2.9.9c-1.83-1.72-1.9.54-2.76,1.26-.28-.22-.54-.47-.84-.68-.56-.38-1-1.47-1.78-.8A1.61,1.61,0,0,0,50,169c.89,1.48.1,1.25-.86.89-3.21.56-3.51.34-4.15-2.61A14,14,0,0,1,44.54,162.43Z"/><path class="cls-100" d="M79.16,184l-.6-1.06c-2.44-1.19-3.6,1.19-5.28,2-.36.18-.69,1-1.14.51-1.44-1.64-2.94-.37-4.41-.26A9.25,9.25,0,0,1,66.28,180a1.66,1.66,0,0,1,.07-1.53c.66-3,1.28-6,3.2-8.58.28-.74.65-1.37,1.6-1.26l1.73-.91c.24-.42.64-.4,1.05-.38,1.2-.15,2.67,1.14,3.57-.85.22-.5,1.41.12,2.14.07.46,0,1.16.5,1.33-.45.59-3.34,2.43-.76,3.51-.57,1.76.33,1.56,1.7.88,3.09.57-2,1.19-3.87,3-5,.39-.26.77-.63,1.26-.47.68.22.49.89.62,1.41.33,1.29-1.31,2.35-.39,3.68l0,2.25c-.5.69-1.69,1-1.14,2.25.88.1,0,2.32,1.76,1.46.36-.17.51.68.4,1.13-.21.86-1,.75-1.6.79-1.14.09-2.15-.7-3.24,1.08s-1.71,1.31-.88,3.44c-2.15.79-3.5-.41-4.54-2-.28-.42,0-1.78-.75-1.2s-2,.76-2.08,1.86c0,.64,0,1.63,1,1.82,1.51.31,2.8,1.29,4.46,1.17C82.42,184.61,80,182.24,79.16,184Z"/><path class="cls-101" d="M44.54,162.43c.87,1,.77,2.45.85,3.58.19,2.55,1.1,3.93,3.75,3.9-1.8,3.11-1.53,6.27-.3,9.48.36,1,.58,2,.87,2.93a1.41,1.41,0,0,1-1.66,0h0c-2-3.81-2.36-8.23-4.67-12.06.63,1.9-1.39,2.34-1.79,3.66a.61.61,0,0,1-1.1.18c-.75-1.35-1.39-2.77-2-4.2-.12-.29,0-.67.56-.5,1.81.47.79-1.06,1.11-1.64,1.75,0,2.51-1.18,3-2.67A23.73,23.73,0,0,1,44.54,162.43Z"/><path class="cls-102" d="M76.31,204.1l-5.17.29c2.09-2.38,1.4-5.65,2.64-8.33a16,16,0,0,0,.67-3.68c1.16.71,1.16,2.48,3,2.12.91-.18.33,1.27.22,1.85C77.17,198.93,77.39,201.63,76.31,204.1Z"/><path class="cls-103" d="M61,168.22c-1.72,2.37-1.75,4.79.09,7.77-1.92-.58-3.48-.93-4.95-1.53-1-.41-2.59-.92-2.55-1.88,0-1.15,1.23-2.13,2.5-2.68,1-.44,2-1,2.92-1.56C59.67,167.73,60.28,166.73,61,168.22Z"/><path class="cls-104" d="M73.86,167.6l-1,.15c-2.56-1.67-5.27-2.83-8.43-2.25a38.41,38.41,0,0,1-7.59,2.07c-1.39.23-1.92,1.68-3.14,2.3-.5-1.68.93-2,1.69-2.69,7.91-4.76,13-4.64,18.54.12Z"/><path class="cls-105" d="M62.73,196.46c-.06-.6-1.13-1.67.37-1.6,2.33.11,1.59-1.34,1.55-2.5,2.12,1.68,1.89,3.41-1.57,11.29-.73-2.6,1.76-5.09-.37-7.22Z"/><path class="cls-99" d="M56.86,167.57c2.23-1.78,4.87-2.08,7.59-2.07.4,1.38.38,1.47-.67,1.32-1.29-.18-1.66,1.29-2.75,1.4-.71-.82-1.31.33-2,.12Z"/><path class="cls-106" d="M66.35,178.5a1.63,1.63,0,0,1-.07,1.53c-3.08-.12-6.19,0-8.9-2A44.23,44.23,0,0,0,66.35,178.5Z"/><path class="cls-107" d="M62.71,196.43c-.18,1.09-.36,2.31-1.83,2.14a1.65,1.65,0,0,1-1.52-2.13l0,0c1.13-1,2.26-.23,3.39,0Z"/><path class="cls-108" d="M71.15,168.66l-1.6,1.26c-.33-.65-.66-1.31-1-2A2.78,2.78,0,0,1,71.15,168.66Z"/><path class="cls-109" d="M142.37,263.58h-5.62c.85-1.88.63-3.79-.05-6.21,1.81,1.55,3.29,0,4.83.39.44.1,1-.08,1.14.45.22.84-.51.77-1,.93a12,12,0,0,0-2.6.94c-.72.42-.71,1.24-.39,2,.75-.94,1.76.12,2.5-.31.44-.25-.85-1.75.75-1.41,1.3.28.44,1.37.48,2.1A10.65,10.65,0,0,1,142.37,263.58Z"/><path class="cls-110" d="M73.86,167.6a.75.75,0,0,1,.09-.3c.69-.49.51-1.29.7-2,1.34-3.17,2.47-6.46,4.94-9,1.46-2.8,3-5.59,4.37-8.43,2.62-5.29,7.66-8.32,11.53-12.44a5.31,5.31,0,0,1,3.31-2.27l.71-.46c.3-.76.8-1.14,1.64-.81,1,1.58,2.14,2.81,4.22,2.36a2.66,2.66,0,0,1,.28-1.72c.36-.56.76-1.18,1.52-1,.6.15.72.81.78,1.36.27,2.22.68,4.43.15,6.66.54,1.65-2.36,1.51-1.67,3.23,1.12,3.49,1.38,7.17,2.54,10.64.43,1.29.34,2.94,2.83,2.26,1.67-.45,1.74.11,1.44-1.81-.34-2.16-1.15-4.24-.26-6.61.27-.73,0-1.64,1-1.88.7-.16.89.34,1,2.11.6-3-.16-5.87-.59-8.75-.22-1.46-1.65-1.18-2.74-.5-1.23.39-2.11,1.84-3.67,1.24-.3-1.44.73-2.2,1.65-2.88,3-2.2,3.25-3.26,1.58-6.72a.66.66,0,0,1,.06-.76c3.07-1.4,6.36-1.39,9.62-1.54,1.32,1.34,2.63.46,3.94,0l2.18-.07a.75.75,0,0,1,.09,1.17c-1.77.07-1.6,2.82-3.63,2.62-.24,0-.08.66.17.94.54.62,1,2,1.74,1.58,2.25-1.33,3.26-.2,4.2,1.57.15.29.6.41.9.61.41,1.48,1.74,2.05,2.84,2.84h0c.48.73.82,1.64,0,2.16-1,.62-1.43-.84-2.28-1-.43.14-1.25.42-1.21,0,.21-2.53-2.48-2.27-3.38-3.74.75,2.17-2.62,5.59,2.56,6.56-3.3-.75-4.05,1.54-4.53,3.26-.57,2-1.17,4.2,0,6.41a4,4,0,0,1-.44,4.19c-1.34,2.06-.9,2.95,1.09,3.5-.14,1.54-2.59.3-2.48,2a4.74,4.74,0,0,0,.58,1.5c1.2.44,1-2.7,2.53-.65-.79,3-.68,6-.92,9.08-1.53.7-3.23.87-4.75,1.59-.69.32-1.26.26-1.57-.54-1.11-7.28-2.52-10.17-6.59-13,3.37,4.37,5.91,9,4.45,14.74a.36.36,0,0,1-.6-.05c-.41-1.14-2.07-1.75-.93-3.6.53-.86-1.1,0-1.59-.42a18,18,0,0,0-6-4.43c2.22,3,.08,5.06-.54,7.37,0,1.53-2.36,1-2.26,2.57-1.93,1.25-3.83,1.4-5.67-.19a5.27,5.27,0,0,1-1.07-2.51A11.13,11.13,0,0,1,97.4,167c-2,.29-3.17,2.47-5.35,2.33-1.45-.61-.25-1.16,0-1.74.86-2.66,3.34-3.53,5.52-4.21,4.71-1.46,9.46-1.59,13.55,2-5.52-5.16-14.39-3-18.84,1.2a7.93,7.93,0,0,1-1.33,1l-1.17.61-1.28,1.11c-.35-2.19,1.65-3.79.87-6.06C88.51,165,86,165.4,86.74,168c.21.73-.7,1.3-1.35,1.58s-1.09-.32-1.34-.78c-.72-1.33.79-.49,1-1,.3-.65.47-1.48-.27-1.67-.94-.23-2,.1-2.65-1-.18-.3-.71.06-.69.49.12,2.45-1.42,1.78-2.75,1.49s-1.41-.3-1.36,1c0,1.1-.23,1.33-1.09.78S74.91,167.6,73.86,167.6Z"/><path class="cls-111" d="M62.69,134.81c4.59-4,9.6-7.09,15.8-7.83.88-.79,2,.16,2.94-.45l7.23-.61c.23-.22.41-.19.51.13-4.85,5.19-8,11.38-10.56,17.93-.29.23-.57.81-.81.71-2.39-1-5.06-.23-7.44-1.2a2,2,0,0,1-1.11-1.81c-.1-.77.12-1.32,1.08-1.09.2,0,.48,0,.49-.1.13-1.74-.82-3.2-1.4-4.73-.41-1.1-1.61-1-2.67-.54a13.45,13.45,0,0,0-1.63,1.07C63.31,137.49,62.55,136.86,62.69,134.81Z"/><path class="cls-112" d="M62.69,134.81c.58,1,.73,2.59,2.38.65,2.22-2.6,4.63-1.94,5.49,1.35.29,1.13,1.09,2,1.18,3.28,0,.64.41,1.31-.16,1.74-1,.77-.92-1-1.73-.82-.73,2.5,2.08,1.43,2.72,2.58,1.93-1.12,3.53.23,5.26.67.22.06.52-.18.78-.28l-1.67,5.84c0-.93,0-1.88-.13-2.8-.15-1.23.32-3.54-2.12-1.35-1.12,1-1.53-.58-2.3-.88a3,3,0,0,0-2.66-.23,2.44,2.44,0,0,0-.92,2.56c1.23,2.31-.44,4-1,5.86a.38.38,0,0,1-.56-.09c-.65-2.31,0-4.6.19-6.88.12-1.58.34-3.09-.64-4.88-1.15,3-2.65,5.55-2.72,8.81-1.26-1.52-1.56-1.86-.64-3.73,1.18-2.42-.09-3.52-1.77-4.77-.49,2.07-1,4-1.43,6-2.05-.66.41-2.31-.72-3.17s-2-1.59-.07-2.67c.49-.27-.25-.86-.87-.89s-.93,1.28-1.56.16a1.12,1.12,0,0,1,.67-1.25Z"/><path class="cls-113" d="M101.15,132.12c-.69-.17-1.15.27-1.64.62-.49-1,.63-1.58.64-2.44-1.27-.41-1.43,1.24-2.77,1,2.08-1.79.33-2.67-.82-3.36-2.65-1.59-.7-3,.09-4.32.93-1.59,2.09-1.88,3.6-.39a3.37,3.37,0,0,0,3.16,1.08c2.09-.33.85,2,1.53,3.12.36-.11.7-.2,1-.33.92-.35,2-1.23,2.73,0s-.81,1.38-1.36,2c-.19.21-.35.44-.52.66-.62,1.43-1.91,1.36-3.15,1.41-.6-.18-1.33-1.35-1.66.25A1.25,1.25,0,0,1,101.15,132.12Z"/><path class="cls-114" d="M103.33,130.93c1.16-.38,2.45-.35,3.48-1.14l4.49-.62c2.85,2.76,2.4,6.27-1.13,7.92a5.69,5.69,0,0,0-2.25,2.37l0,0c-1.24-1,.55-2.36-.44-3.69-.6-.81-.11-2.44-.11-3.89-2.13.52-.68,4.92-4,3.22-1.15-.58-2.74-1-2.19-3l.57-.62C102.18,131.08,102.62,130.62,103.33,130.93Z"/><path class="cls-115" d="M127.13,128.71l-.09-1.17c2.84-.4,5.45.52,8.06,1.4,2,2.27-.4,3.62-1.11,5.32l-.25.12c-1.13.48-2.4.8-3.35,0-1.17-1,.89-1.89.42-3-1.42.95-2.08.83-2.24-1.82C128.45,127.62,127.51,129.06,127.13,128.71Z"/><path class="cls-116" d="M79.59,156.34c-1.51,3.08-2.74,6.31-4.94,9,.47-3.2.3-6.51,1.68-9.56A3.5,3.5,0,0,1,79.59,156.34Z"/><path class="cls-117" d="M140.72,132.15l-2.26-1.77c-.58-.41-1.83-.27-1.31-1.58,1.86-.56,3.77-1.51,4.88,1.21.24.62,1.21,1,.69,1.86S141.38,132,140.72,132.15Z"/><path class="cls-118" d="M137.15,128.8c.07.83.92,1,1.31,1.58a2.13,2.13,0,0,0-2,1.32c.72.88,1.09-.94,1.92-.1-.87,1.85-3.22,1.37-4.41,2.66,0-.54-.22-1.44,0-1.56,1.69-.92.94-2.46,1.11-3.76Z"/><path class="cls-119" d="M89.17,126.05a3.18,3.18,0,0,1-.51-.13,4.67,4.67,0,0,1,.11-1.36c.43-1.13,0-3.06,1.47-3.18,1-.08,1.34,1.73,1.82,2.8Z"/><path class="cls-113" d="M98.8,133.2l-3.31,2.27c-1.07-1.35.31-2.58.76-3.23C97,131.23,98.07,132.41,98.8,133.2Z"/><path class="cls-74" d="M124.86,127.61c-1.31,1.63-2.61,3-3.94,0Z"/><path class="cls-120" d="M98.32,234.82c1.4,1.22.93,2.67.55,4.14-.27,1-.73,1.72,1.25,1.3,1.42-.3,3.24,1.59,4.62-.61a.83.83,0,0,1,.75,0c1,1.67,2.3,1,4.05-.14-1.2,3.42,1,3.32,3.45,3.64-1.74.76-3.59,1.64-2.83,2.56,1.46,1.79,3.42,3.35,6,3.31-.06,1-.69,1.1-1,1-1.8-.24-1.66,1.22-1.89,2.21a1.76,1.76,0,0,0,.41,1.54c.48.36,1-.16,1.43-.56,1.91-1.8,1.92-1.79,3.77,1-.41-1.57,2.28-2.32-1.12-3.86,3.1.49,3.83,2.19,3.14,3.39s-2.4,3.31-3.91.19c-1.11,1.5.18,2.4.34,3.39.44,2.66.71,2.61-1.8,2.27-.07.7.59.88,1.12,1.55-1.71,0-3,1.24-4.72.73-2.4,1.39-4.93.64-7.36.26s-.88-2.43-1.09-3.67c-.24-1.43.83-1.37,1.86-.84a6.07,6.07,0,0,1-2.08-2.31c-1.33-2-2.76-2.08-4.19-.25s-3.94,2.22-5,4.39c-.15.31-.67.28-1,.16-2.88-.9-5.12,1.49-7.86,1.5-1.34,0-.62,1.83-1.5,2.43l-8.13-.07a26.4,26.4,0,0,1,5.77-8.65c.27.07.63.08.78.28,1.74,2.34,4,1,5.48.16,1.89-1.06,1.92-3.64,1.89-5.69a13.68,13.68,0,0,0-.47-3.54c1.52-3.12,4.3-5.27,6.31-8C96.1,236.88,96.42,235,98.32,234.82Z"/><path class="cls-121" d="M83.62,263.59c-.26-2-.6-3.62,2.72-3.32,2.31.21,4.58-2.47,7.31-1,.39-3,4.19-2.57,5-5,.56-1.67.84-2.15,2.8-1.17a4.65,4.65,0,0,1,2.81,2.88c.43,1.36,1.53,1.36,2.75.91-.63,2.39-2.07.83-3,.8-.94,1,1.89,1.62-.11,2.72-.89.49,0,1.39.86,1.23,2.13-.43,4.25,1.15,6.35-.08.14-.08.5.21.75.33l-.57,1.66Z"/><path class="cls-122" d="M89.21,246c2,3.2.57,6.33-.27,9.44a1.68,1.68,0,0,1-1.3,1c-2-.35-3.35.68-4.9,2,.85-2-1.18-2.3-1.48-3.5,1-2.39,3.28-3.86,4.6-6l2.32-2.16A.87.87,0,0,1,89.21,246Z"/><path class="cls-123" d="M57.69,139.64,57,140.89l-1.56,1.44c-.13-.42-.33-1.22-.74-.91-1.53,1.16-2.66.2-3.93-.41-.83-.39-1-.73-.27-1.4,2-1.83,3.15-3.67.38-5.91-1.11-.89.7-1.39.7-2.34s.95-.74,1.55-.36a9,9,0,0,0,4.66,1.7c1.08,0,.74.82.65,1.44C58.21,136,57.94,137.81,57.69,139.64Z"/><path class="cls-124" d="M81.43,126.53a6.15,6.15,0,0,1-2.94.45,5.7,5.7,0,0,1,.27-4.53,4.56,4.56,0,0,0-.74-5c1.54-.57,2.4-.4,2.21,1.38s.37,3.61-.46,5.44A1.65,1.65,0,0,0,81.43,126.53Z"/><path class="cls-125" d="M67.38,120.58c1.49.11,1.57-3,3.21-1.58.94.79,1.28,3.49.4,4C69,124.31,68.84,121.32,67.38,120.58Z"/><path class="cls-5" d="M48.05,182.32c0,.91-.2,1.86.88,2.42,2.61,1.37.6,2.08-.48,3.3a9,9,0,0,0-1.7-5.08c-.29-.48-.64-1.09,0-1.43s.78.65,1.29.79Z"/><path class="cls-126" d="M36.58,179.41c-.45-.89-1.69-1.22-1-2.33a1.3,1.3,0,0,1,1.25-.08C37.92,177.81,37.13,178.5,36.58,179.41Z"/><path class="cls-5" d="M48.84,191.13c-1.11.34-1.86.22-2.27-.68a.71.71,0,0,1,.33-.62C47.87,189.6,48.39,190.17,48.84,191.13Z"/><path class="cls-127" d="M197.67,235.94c.24-1.16-3-.57-.65-2.28.59-.43,0-.51-.25-.6-.79-.25-1.62-.91-1.13-1.54a2.62,2.62,0,0,1,2.78-.58c1.11.37.35,1.08.24,1.78-.18,1.13.21,2.37,0,3.48-.15.7.39,2.28-1.44,2-.67-.11-1.49-.15-1.53-.9C195.61,235.75,197,236,197.67,235.94Z"/><path class="cls-128" d="M198.78,226.78c-.16,1.29-.29,2.35-.42,3.51-.91-.15-2.31-.17-2.07-1.19S196.65,226.23,198.78,226.78Z"/><path class="cls-129" d="M196.32,225.51c-.08-1.23,1.43-.3,1.35-1.23,0-.17-.76-.28-1.38-.48,1-.41,1.8-.5,2.39.23a1.09,1.09,0,0,1,0,1A1.66,1.66,0,0,1,196.32,225.51Z"/><path class="cls-130" d="M198.56,239.3a3.65,3.65,0,0,1-2.83.58c-.06,0-.15-.63,0-.72C196.62,238.43,197.58,238.9,198.56,239.3Z"/><path class="cls-131" d="M89.21,246l-1,.72c-1.18-1.15-1.08-3.16-2.7-4-.53-.28-.14-.55,0-.86.92-1.56.27-2.39-1.36-2.52a4.35,4.35,0,0,1-2.21-1c1.08-.88,2.5-1.19,3-2.51-.84-.68-1.37.91-2.21.32-.54-.38-2.35.2-1.06-1.49.05-.07.11-.21.08-.25-2.48-3.77.54-3.35,2.71-3.57.66.64-.58,1.42.22,2.12,1.43-.91,2.85-1.78,2.24-3.91,1.24.22,1,.81.9,1.36-.27,1.35,0,2.14,1.6,2.5a3.28,3.28,0,0,1,2.41,2.79c.21,1.75,1.71,1,2.55,1.53.58.35.52-.59.62-.94a3,3,0,0,0-.54-3.15c-.46-.46-1-.16-1,.38-.06.78-.26,1.5-1.09,1-.62-.41-.2-1.39.28-1.74,2.35-1.68,1.14-3.55.42-5.43,2.61-1,5.34-1.64,7.73-3.13.59-.37.82-.08,1.05.36-.46,1.93-.92,3.87-1.39,5.8a2,2,0,0,1-1.05,2.28l-1.14,2.25A91.66,91.66,0,0,1,89.21,246Z"/><path class="cls-132" d="M150.28,141.55,148,139.4c0-1.54,1.94-1.49,2.21-2.79,2.22-1.38,1.93,1.14,2.09,1.72.31,1.11-.12,2.42-.24,3.61C151.28,142.54,151.32,139.8,150.28,141.55Z"/><path class="cls-8" d="M150.23,136.61c.08,1.58-1.71,1.68-2.21,2.79-.18-.21-.36-.42-.53-.64C147.16,136.47,149.8,138,150.23,136.61Z"/><path class="cls-133" d="M69.6,41c.52-2.35.47-5.55.81-8.71.19-1.69.8-3.18,3-2.93s2.32,1.78,2.23,3.31c-.25,4.35-2.39,8-4.62,11.6-.21.35-.54.63-.9.4a1.37,1.37,0,0,1-.49-.9C69.55,43.13,69.6,42.47,69.6,41Z"/><path class="cls-103" d="M82.5,43.92a29.08,29.08,0,0,1,.26-14.19,1,1,0,0,1,.95-.88c.55,0,.82.32,1,.76C86.22,32.5,85,41.37,82.5,43.92Z"/><path class="cls-134" d="M108,46.5a28.25,28.25,0,0,1,.28-14.16,1.07,1.07,0,0,1,.94-.91c.5,0,.82.32,1.06.75C111.76,34.67,110.41,44,108,46.5Z"/><path class="cls-135" d="M162.72,69.32c-.36-4.16.47-8.28.85-12.41.11-1.29,1.13-1.83,2.46-1.76s1.95.93,2.13,2.16c.45,3.18-1.21,5.8-2.36,8.53a29.33,29.33,0,0,1-2.31,3.75Z"/><path class="cls-136" d="M50.27,34.28A3.69,3.69,0,0,1,50.65,39a.71.71,0,0,1-1.19-.05C48.43,37.28,49.51,36,50.27,34.28Z"/><path class="cls-137" d="M126.08,71.6c-1.69-4.28-1-8.5-.18-12.72.11-.57.39-1.13,1-1.15A1.14,1.14,0,0,1,128,58.87C128.49,63.27,128.49,67.61,126.08,71.6Z"/><path class="cls-90" d="M174.93,71.08c-1.5-4.24-1.06-8.46-.14-12.67.11-.53.39-1.12,1.08-1.1a1,1,0,0,1,.92.9C177.37,62.65,177.45,67,174.93,71.08Z"/><path class="cls-138" d="M90,69.9c-1.68-4.23-1-8.43-.17-12.63.11-.58.36-1.16,1-1.2a1.09,1.09,0,0,1,1.09,1.1C92.33,61.56,92.41,65.9,90,69.9Z"/><path class="cls-139" d="M133,32.76c.44-1.35.59-3,2.68-2.93.9,0,1.84.48,1.53,1.52-.49,1.64-1.49,3.18-3.28,3.43C132.91,34.92,132.88,33.68,133,32.76Z"/><path class="cls-140" d="M145.38,62c-.19.83.23,2-1,2.23-.71.1-1.07-.68-.95-1.38.19-1,.12-2.48,1.34-2.67C145.54,60.09,145.21,61.36,145.38,62Z"/><path class="cls-141" d="M142.55,134.29c-.12.92-2.26,1.61-.19,2.89a2.28,2.28,0,0,1,0,3,6.24,6.24,0,0,1-3.74,1.75c-1,.12-.7-.89-.77-1.48-.22-1.93,1.37-3,2.26-4.56-2.24.29-4,1.73-6.14,1.93.8-1.89,5.69-3.94,8.49-3.64Z"/><path class="cls-142" d="M131.08,166.49a17.13,17.13,0,0,1,5.43-2.84c-.8,2.5-1.32,4.86-.33,7.3-2.14-.11-3.31-1.69-5-2.22A1.37,1.37,0,0,1,131.08,166.49Z"/><path class="cls-143" d="M131,151.27c0,.8.69.58,1.13.71-.57.87.09,1.36.6,1.89s.35,1.7-.12,1.56c-2.17-.66-2.09,1.35-2.89,2.47-1-3.77-.17-7.19.61-10.47C131.36,148.14,131.36,148.14,131,151.27Z"/><path class="cls-144" d="M131.05,140c.81-.46.87-.44,2.18.81,0-.74.08-1.35.11-2,1.89.95.23,3.88,1.81,4.19C134.36,142.2,130.55,144.15,131.05,140Z"/><path class="cls-145" d="M136.71,153.75c1.09,1.47-.11,2.33-.62,3.37C135.05,155.66,136.5,154.87,136.71,153.75Z"/><path class="cls-144" d="M133.35,138.87c-1.4-.49-3.33-.46-2.84-2.84A8.86,8.86,0,0,1,133.35,138.87Z"/><path class="cls-146" d="M115.83,175l.6.05a30.9,30.9,0,0,1-2.26,11.23c-1.15.54-2.15,1-2.1-1.07a22.21,22.21,0,0,0-.5-3.53c-2,5.29-3.9,6.33-6.65,4,.46-.71,1-.06,1.47,0,2.72,0,3.55-.94,2-3.34a1.2,1.2,0,0,1,.31-1.72c.95-.83,1.34.65,2.13.67a1.3,1.3,0,0,1,1.14-.59C113.85,179.13,113.92,176.41,115.83,175Z"/><path class="cls-147" d="M106.78,173.87h-1.91c3.61-2.44,3.24-5.13,1.12-8.58,3.46,1.36,6.18,2.44,7.32,5.64C111.36,172.4,109,173,106.78,173.87Z"/><path class="cls-148" d="M92.05,169.34a19.45,19.45,0,0,1,6.61-3.59c-1.2,2.69-1.57,5.27-.13,7.8l-.75.19c-1.88-.78-3.88-1.19-5.64-2.34C90.86,170.57,91.35,170.05,92.05,169.34Z"/><path class="cls-149" d="M91,167.62c4.53-6,15.58-9.32,22.34-.54-7.28-4.93-14.4-5.94-21.24.52Z"/><path class="cls-150" d="M98.85,176.25c1.87.64,3.78.3,5.67.19l5.23-1c-1.33,1.59-3,1.47-4.08,2.32a1.26,1.26,0,0,1-1.67.11c-3.25-.3-6.65,0-9.4-2.39A16.2,16.2,0,0,0,98.85,176.25Z"/><path class="cls-151" d="M112,180.6l-1.14.59v-5.33C113.21,177.21,111.86,179.05,112,180.6Z"/><path class="cls-110" d="M88.71,172.73c-.58-1-.75-1.95-.34-2.38s1,0,1.48.13C91.45,172.22,89,171.92,88.71,172.73Z"/><path class="cls-152" d="M104,177.9l1.67-.11a2.25,2.25,0,0,1-.35.75c-.54.51.2,2.13-1.12,1.74S104,178.72,104,177.9Z"/><path class="cls-153" d="M99.46,232.57l1.05-2.28,2.35-1.22c.77,2.44,3.8-.8,4.51,1.78.52,1.6.8,2.62-1.69,1.86C103.74,232.12,101.54,233.27,99.46,232.57Z"/><path class="cls-154" d="M135.68,201.29c-4.1,6.34-15.93,10.4-26.36,2.71a16.44,16.44,0,0,1,9.61.94,12.36,12.36,0,0,0,11.23-1.09A60.13,60.13,0,0,1,135.68,201.29Z"/><path class="cls-155" d="M120.51,209.89c6.49.17,11.63-2.69,16.55-7.8a12.55,12.55,0,0,1-4.79,6.43,29.65,29.65,0,0,1-9,3.84,7.17,7.17,0,0,1-4.63-.64C117.89,209.72,118.9,209.5,120.51,209.89Z"/><path class="cls-156" d="M120.51,209.89c-1.2,0-2.05.41-1.88,1.83a21.65,21.65,0,0,1-9.23-6C112.75,208.16,116.63,209,120.51,209.89Z"/><path class="cls-3" d="M106.79,201.5c1.23-.28,2.5-.77,3.37.69a5.42,5.42,0,0,1-3.42.22C106.75,202.11,106.77,201.8,106.79,201.5Z"/><path class="cls-157" d="M118.57,173.22c1.38.57,2.26-.64,3.39-.92.92-.23,1.93-.7,2.93-.13.12,1.14.25,2.28.37,3.42-.7.17-.94-1.15-1.61-.63s-1.05,1.08-.31,1.89a1.14,1.14,0,0,1-.32,1.7c-2.33,1-2,3.42-2.36,5.17-.5,2.65-2.1,3.36-4.29,3.73C117.67,182.79,117.65,177.94,118.57,173.22Z"/><path class="cls-158" d="M125.63,177.81l.78,2.88c-1,1,.25,2.67-1.13,3.51-.84-.47-.08-1.47-.79-2a8,8,0,0,0-1.3,5c.09,1.2-.36,2.11-1.54,2.17-.22,0-1.36-1.72-.73-2.45,1.68-1.94.68-5.25,3.25-6.5C125.5,179.78,124.13,178.07,125.63,177.81Z"/><path class="cls-159" d="M67.25,152.89l.56.09c0,1.11,0,1.16-1.18,1.32a27,27,0,0,0-9.71,3.41,19.64,19.64,0,0,0-5.35,4.78C53.64,156.39,59.71,152.78,67.25,152.89Z"/><path class="cls-157" d="M111.25,137.81c1-.11,1.58-2.24,2.34-1.11.55.8,3.27.85,1.65,3.25-.36.54.61,3,.57,4.68s-.22,3.08-.36,4.89c-1.14-.89-.61-2-.79-2.86-.07-.39-.19-.8-.62-.74s-.83.45-.8.6c.52,2.55-.59,5.31,1,7.71.53.8.74,1.65-.35,2.08s-.64,1.64-1.12,2.51c-1.37-.58-.72-1.7-.8-2.85-1.49,2-2.37,1.89-3.17-.46-1.42-4.15-1.81-8.54-3.15-12.69a1,1,0,0,1,1.09-.19,1.11,1.11,0,0,1,.27,1c.19-.73-.31-1.41.09-2.05C108.6,140.45,110.38,139.63,111.25,137.81Z"/><path class="cls-160" d="M97.23,151.83c.32-2.66-.93-5.23-.27-8,.31-1.33,1.6-2.35,1.11-4-.14-.46.9-.44,1.42-.31s1,.48.35.9c-1.32.81-.63.91.26,1.27,1.33.53.48,1.64.28,2.35-.33,1.18-.78.37-1.3-.06s-.82.07-.75.55c.15.92-.49,2.59.45,2.64,2.6.16,1.81,2.18,2.35,3.47C100.08,151.91,98.87,152.58,97.23,151.83Z"/><path class="cls-89" d="M97.23,151.83l3.9-1.14c1.68.25,3.53-.46,5.42,1.11-6.76,1-12.68,3-16.94,8.25C90.22,157.38,92.26,155.18,97.23,151.83Z"/><path class="cls-145" d="M111.25,137.81c.06,2.65-1.81,3.38-3.9,3.88-.37.3-.18.86-.55,1.15l-1.14,0c-.82-2.19,2-1.92,2.28-3.38l0,0Z"/><path class="cls-100" d="M81,162.46c-.47-.27-2,.85-2.13-.7a1.43,1.43,0,0,1,2-1.24c1,.59,2.89-.48,2.89,1.24C83.81,163.07,82.38,162.83,81,162.46Z"/><path class="cls-161" d="M103.33,130.93l-1.61.57c-.09-.81-1-1.91.69-2.09C103.64,129.28,103.37,130.21,103.33,130.93Z"/><path class="cls-110" d="M106.8,142.84c0-.45,0-.92.55-1.15-.29,1.31.5,2.37,1.16,3.87A2.42,2.42,0,0,1,106.8,142.84Z"/></g></g></svg>