<svg xmlns="http://www.w3.org/2000/svg" xmlns:xlink="http://www.w3.org/1999/xlink" viewBox="0 0 151.32 102.85"><defs><style>.cls-1{fill:#dcdaea;}.cls-2{fill:#ebe9f4;}.cls-3{fill:#f4f3ff;}.cls-4{fill:#fab21b;}.cls-5{fill:#f79828;}.cls-6{font-size:16.65px;fill:#645ca7;font-family:Montserrat-Bold, Montserrat;font-weight:700;}.cls-7{fill:#b2aad3;}.cls-8{fill:#7cd0e8;}.cls-9{fill:url(#linear-gradient);}.cls-10{fill:url(#linear-gradient-2);}.cls-11{fill:#f0678f;}</style><linearGradient id="linear-gradient" x1="-180.99" y1="117.49" x2="-180.99" y2="137.51" gradientTransform="matrix(0.91, 0.42, -0.42, 0.91, 345.35, 46.63)" gradientUnits="userSpaceOnUse"><stop offset="0" stop-color="#b2aad3"/><stop offset="0.99" stop-color="#f17fb0"/></linearGradient><linearGradient id="linear-gradient-2" x1="-58.26" y1="500.47" x2="-58.26" y2="520.49" gradientTransform="matrix(1, -0.03, 0.03, 1, 56.78, -444.26)" gradientUnits="userSpaceOnUse"><stop offset="0" stop-color="#f79828"/><stop offset="0.99" stop-color="#f17fb0"/></linearGradient></defs><g id="Capa_2" data-name="Capa 2"><g id="OBJECTS"><path class="cls-1" d="M57.79,36.76s12.3,8.94,16.09,18.59V98L54.61,82.44l2.14-36.3"/><path class="cls-1" d="M89.52,45.92l-1-9.37s-12.3,8.93-16.09,18.59V97.79L91.66,82.23Z"/><path class="cls-2" d="M48.68,47.22l1.53-9.38s18,8.94,23.56,18.59V99.08L45.54,83.52Z"/><path class="cls-2" d="M97.59,47l-1.53-9.37s-18,8.93-23.56,18.59V98.87l28.23-15.56Z"/><line class="cls-1" x1="56.75" y1="46.14" x2="57.79" y2="36.76"/><path class="cls-3" d="M41,48.73l1.9-9.37S65.34,48.29,72.26,58V100.6L37.1,85Z"/><path class="cls-3" d="M105.25,48.52l-1.9-9.38S80.93,48.08,74,57.73v42.65l35.16-15.56Z"/><path class="cls-4" d="M70.17,57.71v44.63S50.77,95.17,40.3,90.57c-4.93-2.16-6.09-5.32-6.09-9.14L32.9,49.38s-.88-7.44,6.2-6.11S67.94,56,70.17,57.71Z"/><path class="cls-4" d="M77.6,57.42v44l30.56-12.86s5.39-1.41,5.39-5.82l1.31-34.28s.89-7.44-6.19-6.1S79.83,55.69,77.6,57.42Z"/><path class="cls-5" d="M70.17,102.34V57.71s4.84-3,7.43-.29v44S76.43,103.88,70.17,102.34Z"/><text class="cls-6" transform="translate(19.68 44.87) rotate(-51.58)">L</text><text class="cls-6" transform="matrix(0.7, -0.71, 0.71, 0.7, 25.82, 37.31)">I</text><text class="cls-6" transform="translate(29.25 33.47) rotate(-37.9)">B</text><text class="cls-6" transform="matrix(0.89, -0.47, 0.47, 0.89, 38.93, 25.91)">R</text><text class="cls-6" transform="translate(49.39 20.43) rotate(-18.11)">E</text><text class="cls-6" transform="matrix(0.99, -0.15, 0.15, 0.99, 59.55, 17.02)">R</text><text class="cls-6" transform="matrix(1, -0.02, 0.02, 1, 71.35, 15.45)">I</text><text class="cls-6" transform="translate(76.46 15.08) rotate(6.02)">A</text><text class="cls-6" transform="matrix(0.97, 0.23, -0.23, 0.97, 88.78, 16.6)"> </text><text class="cls-6" transform="translate(93.15 17.46) rotate(19.24)">L</text><text class="cls-6" transform="translate(102.3 20.78) rotate(25.6)">I</text><text class="cls-6" transform="matrix(0.84, 0.55, -0.55, 0.84, 107.04, 22.76)">B</text><text class="cls-6" transform="matrix(0.73, 0.68, -0.68, 0.73, 117.35, 29.45)">R</text><text class="cls-6" transform="matrix(0.61, 0.8, -0.8, 0.61, 125.93, 37.52)">E</text><path class="cls-7" d="M24.56,86.68l0-7.31-5.15,5-7.31,0,5.05,5.15,0,7.31,5.15-5.05,7.31-.06Z"/><path class="cls-8" d="M138,65l1.39-7.17-6.05,3.91-7.16-1.39,3.92,6.05-1.4,7.17,6-3.92,7.16,1.4Z"/><path class="cls-9" d="M125.52,81.67s3.65-5.69,5.15-5,1.82,6.18,1.82,6.18,6,2.87,5.71,4.46-5.61,2.47-5.61,2.47,1.23,7.11-.2,7.55S126.51,92,126.51,92s-6.32,2.33-7.74,1.22c-.88-.68,3.62-6.19,3.62-6.19s-4.67-4.31-3.75-5.62S125.52,81.67,125.52,81.67Z"/><path class="cls-10" d="M9.68,64.51s.73-6.73,2.39-6.76,4.39,4.72,4.39,4.72,6.64-.11,7.09,1.43-3.91,4.72-3.91,4.72,4.28,5.81,3.19,6.85-7.64-2.17-7.64-2.17-4.61,4.91-6.39,4.55c-1.09-.21.47-7.15.47-7.15s-6.1-1.77-5.85-3.35S9.68,64.51,9.68,64.51Z"/><path class="cls-11" d="M149.76,82.43a3.88,3.88,0,1,1,.79-5.42A3.88,3.88,0,0,1,149.76,82.43Z"/><path class="cls-8" d="M4.7,81.89a2.41,2.41,0,1,1-3-1.54A2.41,2.41,0,0,1,4.7,81.89Z"/></g></g></svg>