<svg xmlns="http://www.w3.org/2000/svg" viewBox="0 0 425.76 579.37"><defs><style>.cls-1{fill:#2fb094;}.cls-2{fill:#000101;}.cls-3{fill:#010101;}.cls-4{fill:#040404;}.cls-5{fill:#050505;}.cls-6{fill:#fbf0d4;}.cls-7{fill:#e14122;}.cls-8{fill:#e04122;}.cls-9{fill:#e14123;}.cls-10{fill:#010302;}.cls-11{fill:#010403;}.cls-12{fill:#010504;}.cls-13{fill:#d83e20;}.cls-14{fill:#dc3f21;}.cls-15{fill:#d63d20;}</style></defs><g id="Capa_2" data-name="Capa 2"><g id="Capa_1-2" data-name="Capa 1"><path class="cls-1" d="M385.19,442.78c-14.08,6.1-29,8.29-44.14,9.11-36.4,1.95-72.82,3.47-109.27,4.17-3.32.06-4,.67-2.47,3.86a496.34,496.34,0,0,0,29.07,52.33c1.13,1.77,1.82,3.3,4.29,1.16,1.83-1.6,4.29-.83,6.1.78a4.62,4.62,0,0,1,1,6.08,47.48,47.48,0,0,1-6.47,8.32c-2.43,2.46-5.92,1.34-8.49-2.42q-9.36-13.77-17.64-28.23a408.59,408.59,0,0,1-19.58-38.32c-1-2.23-2.2-3.07-4.68-3q-15.87.5-31.74.61c-2.11,0-2.9.85-3.55,2.71-7.28,20.51-21,35.24-40.69,44.26-3.24,1.49-1.6,2.71-.65,4.23,1.24,2,2,4,.63,6.21a5.47,5.47,0,0,1-5.33,2.62,5,5,0,0,1-4.1-2.64c-1.49-2.46-3-4.9-4.49-7.36-3.39-5.61-2.33-8.49,3.77-10.58,17.89-6.11,30.73-17.82,38.64-34.95,2-4.25,1.92-4.31-2.83-4.27-22.74.2-45.48.68-68.21.56-18-.09-35.94-1.83-52.21-10.17C15.42,434.18.52,412.21,0,381.89c-.33-19.68,7.37-37.22,18.1-53.35,24.08-36.2,56.93-61.71,96.63-78.87,24.84-10.73,50.71-18.44,76.41-26.65,11.35-3.62,22-8.87,32.33-14.76,22.25-12.65,35.45-31.68,41.17-56.41,2.73-11.77,3.73-23.7,4.69-35.66.81-10,2.18-20,6.31-29.32a41.7,41.7,0,0,1,16.91-19.5c16.73-10,35.3-5.33,45.26,11.46,6,10.19,7.92,21.52,8.24,33.07.69,25.18-4.34,49.55-11.2,73.62-1,3.63-2.28,7.2-3.42,10.81-.85,1.86-2.72,1.89-4.3,2.29a153.45,153.45,0,0,0-18.29,5.78c-1.27.49-2.81.67-3.6,2.12.88,1,1.75.26,2.49-.05a120.73,120.73,0,0,1,52.35-9.57c13.08.52,25.23,4,35.85,11.95,14.18,10.55,18,27.59,9.79,43.22-1.22,2.32-2.79,4.41-4.18,6.63-2.45,3.93-5.24,7.24-10.62,6.2-.62-.12-1.29.1-2,1.06,21.33,2.29,34.11,13.07,31.6,35.42-1.66,14.76-11.52,23.49-26.72,25.88,11,1.54,20.34,5.84,25.73,16a31.7,31.7,0,0,1,3.17,21.28c-3.07,16.2-15,26.47-27.9,27.62-.32.68.26.94.65,1.2,9.87,6.54,13,17,8.28,28-3.36,7.75-9.19,13.2-16.33,17.4C385.86,439.69,383.79,440.25,385.19,442.78Z"/><path d="M152.69,204.39c3.66-1.91,7.1-3.76,10.58-5.5,1.19-.59,2.69-1.9,3.74,0,1.24,2.19-1,2.6-2.21,3.25q-26.33,13.65-52.7,27.23c-6.48,3.34-12.93,6.72-19.44,10-1.37.68-3.19,2.41-4.35.13-1-2.07,1.27-2.45,2.53-3.15,3.19-1.75,8-2.68,9.22-5.32s-2.53-6.32-3.77-9.69c-1.53-4.17-3-8.35-3.38-12.8-.93-10.58,3.09-18.8,11.93-24.68,5.92-3.93,12.16-7.16,19.34-7.87,10-1,16.91,3.92,22,12C149.32,193,150.8,198.69,152.69,204.39Z"/><path class="cls-2" d="M385.19,442.78c-1-.09-2.27.06-2.57-1.26-.36-1.58,1.06-1.88,2.06-2.38a39,39,0,0,0,15.76-13.72,24.34,24.34,0,0,0,4.28-13.24c0-7.78-2.56-14.36-10.09-18-1.22-.59-2.63-1.1-2.07-2.76.63-1.85,2-1.11,3.24-.6,2.44,1,4.24-.74,6.18-1.5,17.11-6.78,25.3-27.73,17.25-44.31-4.8-9.89-13.17-14.79-23.86-16.11-1.58-.19-3.95.34-3.56-2.29.32-2.2,2.48-1.5,3.9-1.27a8.91,8.91,0,0,0,4.58-.32c12.82-4.66,20.66-17,19.69-31.08-.88-12.67-10.39-23.18-23.52-25.81a44.1,44.1,0,0,0-6.62-.48c-1.24-.06-2.58-.11-2.65-1.64-.08-1.69,1.26-2.06,2.69-2.09a1.27,1.27,0,0,1,.39,0c5.84,1.91,8.13-2.5,10.71-6.14,11.53-16.23,10.67-32.92-2.36-45.31a49.88,49.88,0,0,0-20.33-11.36c-17.56-5.3-35.11-3.67-52.59.48a103.86,103.86,0,0,0-18.5,6.26c-1.3.58-3.1,1.93-4-.23s1.37-2.44,2.64-3c8.22-3.75,16.95-5.92,25.63-8.24,6.22-.64,12.43-1.53,18.67-1.85,13.3-.7,26.37.59,38.47,6.66,12.94,6.49,22,16.22,23.81,31.23,1.05,8.78-1.82,16.73-6.34,24.11-1.76,2.88-3.83,5.56-5.92,8.55,13.67,5,22.11,14.6,23.44,29.14,1.35,14.84-6.07,25.37-18.78,32.86,15.84,7.39,22.87,19.91,20.52,37-2,14.4-10,24.64-24.08,29.51,0,.26-.05.61.08.75,11.35,11.52,8.42,30.05-5.24,41.72A42,42,0,0,1,385.19,442.78Z"/><path class="cls-3" d="M250.58,541.42A582.87,582.87,0,0,1,357.66,551.7c1.3.25,3.34.17,3,2.23-.39,2.24-2.33,1.59-3.83,1.29a553.94,553.94,0,0,0-128.24-9.79A565.39,565.39,0,0,0,59.76,577.74c-1.1.39-2.18.86-3.3,1.2s-2.74,1-3.3-.76.93-2.16,2.2-2.59c8.51-2.86,17-5.87,25.55-8.57a556.82,556.82,0,0,1,100.86-21.5A579.44,579.44,0,0,1,250.58,541.42Z"/><path class="cls-4" d="M318.74,28a1.48,1.48,0,0,1,0,.44c-.17,1.26.81,3.2-1.56,3.25-2.1,0-1.89-1.84-2-3.16-.37-3.23-.6-6.47-.86-9.72-.4-5.18-.82-10.37-1.17-15.56C313,2,312.33.05,314.6,0c2,0,1.82,1.79,1.95,3.18Z"/><path class="cls-5" d="M341.45,41.05c-1.3-.49-1.84-1.36-1-2.9q5.08-8.94,10.12-17.93a1.73,1.73,0,0,1,2.57-.88,1.59,1.59,0,0,1,.65,2.34Q348.6,31,343.29,40.28A1.63,1.63,0,0,1,341.45,41.05Z"/><path class="cls-5" d="M280.58,21.24c1.22.11,1.63,1,2,1.78,2.09,4.49,4.19,9,6.23,13.47.54,1.18,1.15,2.6-.61,3.31-1.46.59-2.05-.56-2.56-1.68-2.12-4.62-4.24-9.23-6.4-13.82C278.46,22.6,278.74,21.55,280.58,21.24Z"/><path class="cls-6" d="M207.39,294.63c.08-16.19,12.66-28.51,29.07-28.46,16.85.05,31.27,14.72,31.25,31.77,0,16.63-13.39,29.42-30.67,29.36C219.92,327.24,207.3,313.33,207.39,294.63Z"/><path class="cls-6" d="M166,271.42c14.68,4.3,23.33,17.45,21.71,33-1.47,14-13.63,24.79-28.52,26.11-22.15,2-33-14.76-32.42-29.62.55-12.89,7.31-22,18.8-27.64,1.29-.63,2.63-1.15,3.94-1.72.11-.07.22-.22.32-.21A101.51,101.51,0,0,0,166,271.42Z"/><path class="cls-7" d="M149.21,351.42c-1.48-.15-2.12-.23-2.77-.27-3.07-.22-6.26-.49-7.18-4.14-1-3.88,1.14-6.58,4.27-8.41,5.56-3.26,11.5-4.29,17.58-1.69,3.26,1.39,5.87,3.86,5.42,7.78-.41,3.58-3.56,4.66-6.52,5.25C156.19,350.69,152.28,351,149.21,351.42Z"/><path class="cls-7" d="M244.11,332.71c4.69.15,9.1,1.19,12.43,4.76,3.68,3.93,2.06,9.14-3.21,10.06a40.2,40.2,0,0,1-17.46-.56c-5.62-1.52-6.85-6.11-2.85-10.34C236,333.46,239.92,332.63,244.11,332.71Z"/><path class="cls-8" d="M255.34,244.59c0,1.76-.55,2.73-1.68,3.33-1.37.72-3,1-4-.25-3.5-4.47-8.2-5.18-13.35-4.66a22.25,22.25,0,0,0-13,5.75,8,8,0,0,1-2.56,1.72,3.17,3.17,0,0,1-3.77-1.34,3.25,3.25,0,0,1,.15-4.29c6.74-9.08,25.22-12,34.3-5.35C253.32,240.89,255.1,242.46,255.34,244.59Z"/><path class="cls-7" d="M194,320.51c-.95,2.87.7,4.17,2.58,5.22,2.33,1.29,4.57.74,6.59-.76,1.75-1.3,2.49-3.07,1.54-5.15-1.16-2.55-1.05-4.85,1.83-5.72s4.2,1.45,5.11,3.72c1.86,4.69-.18,10.23-4.78,13.28-5.41,3.58-12.16,3.18-16.57-1.18-2.89-2.85-5-6.06-3.45-10.48.78-2.28,2.05-3.69,4.58-3.16S194.28,318.64,194,320.51Z"/><path class="cls-9" d="M166,271.42a22.93,22.93,0,0,1-16.49.11l-3.27-2.09c-2-1.26-3.17-2.86-1.72-5.19s3.33-2.16,5.38-.83c4.81,3.13,9.72,3.6,14.63.34a28.68,28.68,0,0,0,3.72-3.44c1.53-1.46,3.21-1.85,4.87-.38s1.72,3.35.29,5.2A28.44,28.44,0,0,1,166,271.42Z"/><path class="cls-10" d="M334.56,152a78,78,0,0,1-10.49,31.52c-.7,1.17-1.31,3-3.16,1.87s-.58-2.52.11-3.69a78.91,78.91,0,0,0,10.1-30.12c.21-1.61-.56-4.45,2.15-4.17S334.3,150.35,334.56,152Z"/><path class="cls-11" d="M317.67,166.37A1.58,1.58,0,0,1,319,168.6a61.41,61.41,0,0,1-9.15,19.64c-.66.94-1.61,1.44-2.66.63s-.79-1.82-.16-2.77a70.94,70.94,0,0,0,8.6-18.23C316.05,166.5,316.63,166.28,317.67,166.37Z"/><path class="cls-12" d="M295.69,186.86c-1.39-.47-2.09-1.37-1.39-2.67,1.67-3.05,3.45-6,5.25-9a1.56,1.56,0,0,1,2.05-.6,1.48,1.48,0,0,1,.94,1.89,48.56,48.56,0,0,1-5.85,10C296.48,186.68,296,186.72,295.69,186.86Z"/><path class="cls-13" d="M137.59,210.07c-1.14-.08-1.82-.42-2.13-1.23a1.36,1.36,0,0,1,.56-1.71c2.22-1.31,4.46-2.6,6.76-3.76a1.52,1.52,0,0,1,2,.71,1.37,1.37,0,0,1-.12,1.79C142.52,207.81,139.84,208.82,137.59,210.07Z"/><path class="cls-14" d="M121.78,217.58a2,2,0,0,1-1.92-.84,1.32,1.32,0,0,1,.19-1.78c1.89-1.61,3.87-3.2,6.31-3.74a1.4,1.4,0,0,1,1.58,2.19C126.41,215.56,123.89,216.54,121.78,217.58Z"/><path class="cls-15" d="M113.77,220.84c-.18,1.66-6.17,4.52-7.46,3.53-.66-.51-1.11-1.39-.48-2a9.85,9.85,0,0,1,6.73-3.23C113.37,219.12,113.76,220,113.77,220.84Z"/><path d="M236.42,316.12c-10.46.05-18.46-8-18.49-18.62,0-10.79,9.4-20.2,20.26-20.19s19.09,8.54,19.07,19.59S248.33,316.07,236.42,316.12Z"/><path d="M157,318.88c-11.09-.05-19.18-8.85-19.15-20.83A18.28,18.28,0,0,1,156.5,279.6c10.77,0,20.19,9.56,20.13,20.35S168.13,318.93,157,318.88Z"/></g></g></svg>