<svg xmlns="http://www.w3.org/2000/svg" viewBox="0 0 1800 400"><defs><style>.cls-1{fill:#eef261;}.cls-2{fill:#283948;}.cls-3{fill:#fff;}.cls-4{fill:#f5a0ec;}.cls-5{fill:#abe050;}.cls-6{font-size:53px;fill:#616809;font-family:Montserrat-Medium, Montserrat;font-weight:500;}.cls-7{letter-spacing:0em;}.cls-8{letter-spacing:-0.01em;}.cls-9{letter-spacing:-0.01em;}.cls-10{letter-spacing:-0.01em;}.cls-11{fill:#a33434;}.cls-12{fill:#a93e3e;}.cls-13{fill:#a84040;}.cls-14{fill:#ab4242;}.cls-15{fill:#ab4343;}.cls-16{fill:#a94040;}.cls-17{fill:#b04c4c;}.cls-18{fill:#ad4646;}.cls-19{fill:#aa4040;}.cls-20{fill:#fefefe;}.cls-21{fill:#fdfdfd;}.cls-22{fill:#fefdfd;}.cls-23{fill:#fcfbfb;}.cls-24{fill:#fbfafa;}.cls-25{fill:#f6f2f2;}.cls-26{fill:#fdfcfc;}.cls-27{fill:#fafbfb;}.cls-28{fill:#f8f5f5;}.cls-29{fill:#f7f1f1;}.cls-30{fill:#a93a3a;}.cls-31{fill:#a83939;}.cls-32{fill:#ac4242;}.cls-33{fill:#ac4040;}</style></defs><g id="Capa_2" data-name="Capa 2"><g id="Capa_1-2" data-name="Capa 1"><rect class="cls-1" width="1800" height="400"/><path class="cls-2" d="M340.77,73.3c.31-.38.06-1.15-.85-.93l-.55,1.4Z"/><path class="cls-2" d="M334.39,71.29c-1,.73-2.2,2-1.4,3.15,1-1.37,1.27-.85,2.31-2.48.91-.22,1.64.31,1.52.82.3-.37,1.46.18,1.89-.7a3.59,3.59,0,0,0-4.32.11C334,71.92,334.33,71.54,334.39,71.29Z"/><path class="cls-2" d="M244.89,84.25l.61,0A1.61,1.61,0,0,0,244.89,84.25Z"/><path class="cls-2" d="M196.58,113.69c.25-.38.26-.61.18-.7C196.57,113.37,196.43,113.69,196.58,113.69Z"/><path class="cls-2" d="M189.8,121.46l.37-.5C190,121.11,189.78,121.29,189.8,121.46Z"/><path class="cls-2" d="M244.89,84.25c-.52,0-1,.06-1.56.11C243.37,84.81,244.16,84.38,244.89,84.25Z"/><path class="cls-2" d="M322.25,75.54a2.35,2.35,0,0,0,.78-.42l-.75.21A1.77,1.77,0,0,1,322.25,75.54Z"/><path class="cls-2" d="M268.64,76.53l.45-.1a3.21,3.21,0,0,0,.25-.62Z"/><path class="cls-2" d="M287.42,72.86c-.44,0-.41,1.17-.5,1.69a1.4,1.4,0,0,1,.81-.92A1.89,1.89,0,0,0,287.42,72.86Z"/><path class="cls-2" d="M317.61,71.31l.52-.21C318,71.16,317.77,71.23,317.61,71.31Z"/><path class="cls-2" d="M255.25,79.62a1,1,0,0,0-.28-.34A.65.65,0,0,0,255.25,79.62Z"/><path class="cls-2" d="M42.26,143.14c0-.07-.08-.1-.12-.16C42.13,143.13,42.15,143.21,42.26,143.14Z"/><path class="cls-2" d="M29.68,156.81l-.22-.23a3.83,3.83,0,0,0-.58.27A7,7,0,0,0,29.68,156.81Z"/><path class="cls-2" d="M183.35,139.86a.32.32,0,0,0,0-.09C183.28,139.24,183.29,139.54,183.35,139.86Z"/><path class="cls-2" d="M146.41,101.8c2,.93-3.14,1.44-.18,2.45C145.92,103.78,148.88,102.44,146.41,101.8Z"/><path class="cls-2" d="M321.75,75.43a6.48,6.48,0,0,1-.77.08A2.25,2.25,0,0,0,321.75,75.43Z"/><path class="cls-2" d="M146.23,104.25h0l.3.09Z"/><path class="cls-2" d="M211,173.69a1.51,1.51,0,0,0-.49-.52C210.5,173.29,210.61,173.43,211,173.69Z"/><path class="cls-2" d="M186.94,151.13a7.83,7.83,0,0,0,.1.83A5.38,5.38,0,0,0,186.94,151.13Z"/><path class="cls-2" d="M227.3,163.8a2.28,2.28,0,0,0,.68-1.3.78.78,0,0,0-.21.16A1.27,1.27,0,0,1,227.3,163.8Z"/><path class="cls-2" d="M224.84,145.32c0,.12,0,.26-.05.39l.32.46Z"/><path class="cls-2" d="M85.25,133.3a3.22,3.22,0,0,1-.53-1.11C84.82,133,82.59,133,85.25,133.3Z"/><path class="cls-2" d="M322.19,74.9a.63.63,0,0,1-.44.53l.53-.1C322.31,75.15,322.31,75,322.19,74.9Z"/><path class="cls-2" d="M219.41,159.44a4.65,4.65,0,0,0,.46-1C219.7,158.73,219.56,159.1,219.41,159.44Z"/><path class="cls-2" d="M97.62,172.65h.56A.65.65,0,0,0,97.62,172.65Z"/><path class="cls-2" d="M219,153.74a2.38,2.38,0,0,0,.3-1.36.84.84,0,0,0-.36-.1C218.93,152.78,219,153.27,219,153.74Z"/><path class="cls-2" d="M84.71,132.18h0Z"/><path class="cls-2" d="M69,134.53c2.21-.19.92-1.57,1.33-2.48,2.72-.6,1.33,1,2.29,1.75a10.22,10.22,0,0,0,2.25-1.1,3.83,3.83,0,0,1,2-.65c.09.25.34.34,0,.64a4,4,0,0,1,1.65-.5c.62,0,1.3,0,2,0a8.49,8.49,0,0,0,4-.45.79.79,0,0,1,.22.41,3.91,3.91,0,0,1,0-2.09c1.06.11,2.14-.65,2.36.41-.64-.16-.76.21-1.11.48.39-.1.77-.14,1.17-.22.72,1.58-1.58.18-1.75,1.25,2.15-.1,4.9-.74,6.41.12,0,.72-1,.58-1.7.49s-1.22-.1-.31.73c-.77-.36-1.56-.68-2.34-1,1.43,2.52-1.45-.44-.2,2.19a10.4,10.4,0,0,0,1.91.45,13.47,13.47,0,0,0,1.44.16,7.72,7.72,0,0,1,3.33.8c.93-.51.11-1.16,1-1.66,2.49.05,3.06,1.29,3.47,2.3s.67,1.9,2.57,1.79a16.78,16.78,0,0,1,1.8-.9c.66-.2,1.39-.06,2.28.94l-1.45,1c2.71,1.61,2.71-1.18,5.09,1.46-.83.22-2.42-.84-2.1-.43,1.24,2.17,1.76,0,3.22.88l-.45,1.36c2.95,1.62,6.56,3.08,9.6,5.43-.43.16-1.18,0-.82,1,4,2.63,7.07,7.32,9,11.42l2,.72c.21.35-.05.93-.47.69.57,1.73.68-.34,1.53.12.62.82.14,1.49-.5,1.15.31.26.65.55,1,.88s.69.7,1.05,1.09a19.27,19.27,0,0,1,2,2.5,5.23,5.23,0,0,1,.87,2.16,1.13,1.13,0,0,1-.6,1.16,2.28,2.28,0,0,0-.29-.33c-.33.31.14.76.33,1.39s.07,1.26-.81,1.07c0-.1.08-.2.11-.29l-1.43.46c-.61.19-1.31.38-2,.57s-1.38.4-2.07.57-1.38.34-2.07.47a15.23,15.23,0,0,1-7.58,0c-.34.86-1.74.8-3.07.69s-2.59-.14-2.81,1.07a16,16,0,0,1-2.84-1.49,17,17,0,0,0-3.69-1.45c-1.13-.31-2,1.23-3.49,1.17l.21-1.24c-.73.32-1.48.6-2.23.86l-.68-1.69-1.4-.06c.51.22,1,.86.81,1.18a5.42,5.42,0,0,1-3.19-1.26c-.83-.67-1.27-1.42-1.16-1.73a15.48,15.48,0,0,1-3.93-1.07c.39-.33.92-.1,1.5-.11-1.14,0-1-.36-.79-.64s.37-.57-.47-.62c-.1.32-.63.42-.84.54a4.41,4.41,0,0,0-.27-1.62c-.19-.63-.4-1.31-.59-1.9.29.08.6.14.89.19a21.11,21.11,0,0,1,2.37-9.68c-1.05,1.21-2.25.26-1.8-1l1.42.13c-.37-1.11-1,1-1.18-1,.89-1.41,1.83-.29,1.79.73.16-.66.34-1.3.51-2,.41.09.37.59.76.93-.35-1.12,2.77-2.29,2.14-4l.39.1c2.24-3.65,3-5.51,5-8.4-.86-.73.16-1.7.1-3.1,1.92-1.86,4.49-3.48,6.57-5.83,1.1-2-.27-1.15-.06-2.34.87.6,3-1.72,2.39,0,2.59-2.77,3.31-3.52,6.43-7.28-.67,0-1.25.24-1.24-.23.56-.7,1.82-.94,2-.46l-.12.22c1.6-2.31,4.59-3.59,7.38-4.52s5.37-1.6,6.78-3.38l-.17.18c1.13-.88,2.29-1.77,3.52-2.55,1.89-.43-.85,1.11.7,1.27a8.89,8.89,0,0,1,5.3-1.93,17.89,17.89,0,0,0,5.08-.7c1.48,1.47,3.92,1.47,6.62,1.58s5.6.38,7.3,1.77l-.06-.76c1.18-.42,1.12.72,1.81,1.07,0-.57-.93-.91-.2-1.13a41,41,0,0,1,12.89,4.8c4.15,2.25,8.23,4.93,12.19,7.37,2.89,1.77,3.51-2.39,6.43,1.24l-1.73.57a30.58,30.58,0,0,1,9.15,4.85c2.79,2,5.36,4.15,8.22,5.84-.49,0-.76.25-1.24-.16a4.59,4.59,0,0,0,2,2.27c.93.59,1.83,1,2.14.72.62.79-.36.66-.24,1.37a3.57,3.57,0,0,0,1.69,1.52c.7.4,1.29.81,1.1,1.39-.05.19-.47-.1-.67-.25a7.33,7.33,0,0,1,1.52,1.62c.52.59.9,1,1.16.36a14.05,14.05,0,0,0,1.71,2.87,5,5,0,0,1,1.2,2.63c.81.26,1,1.2,1.16,2s.24,1.38,1.14,1.39c-.92.11-1.12,1-1.15,1.78a5.8,5.8,0,0,0,.34,2.19c-.2-.23-.41-.1-.63,0a.61.61,0,0,1-.75-.16,1.25,1.25,0,0,0-.1.27.87.87,0,0,0-.1.24c0,.17-.08.34-.1.51a1,1,0,0,0,.46,1,2.36,2.36,0,0,0-1.63.42,15.09,15.09,0,0,0-1.24,1.1c-.85.77-1.93,1.32-2.87.05a11.88,11.88,0,0,1-3,.88,12.22,12.22,0,0,1-3.07.13,12.4,12.4,0,0,1-3.07-.66,13.84,13.84,0,0,1-2.9-1.34c.61-.69,1.53,0,2.5.4s1.93.77,2.2-.16a21.76,21.76,0,0,1-4.8-1.21,8.13,8.13,0,0,1-3.95-3.36c-.42-1,1,0,1.45,0a13.09,13.09,0,0,1-3.35-4.73c-.35-.9-.79-1.74-1.11-2.63-.17-.44-.38-.86-.58-1.29a10.89,10.89,0,0,0-.62-1.29c.17,0,.45.32.67.64-.22-.69-.14-1.68-.92-1.44.11.22.26.43.38.65-.43.7-1.27.16-2-.68s-1.39-1.92-1.69-2c1.25.54,1.31-.48,1.47-1.36s.45-1.65,2-.72c-.18-.47-.57-1.07-1.13-.95.16-.75.48-1,1.12-.24a5.72,5.72,0,0,0-.79-2.17,2.57,2.57,0,0,1-.31-2c.4.06.49.57.93.86a8.87,8.87,0,0,1-.78-2.08,5.07,5.07,0,0,1,.31-2.64c.21.18.56,0,.44.62a16.5,16.5,0,0,0,.27-2.57c.05-.85.1-1.67.15-2.51a14.69,14.69,0,0,1,.5-2.53,9.13,9.13,0,0,1,1.34-2.53c1,1.86,1.18-1,2.6-.4.2-.7.47-1.37.7-2.06l-1.08.35a16.57,16.57,0,0,0,1.09-2.55,8.77,8.77,0,0,1,.55-1.2,3.53,3.53,0,0,1,.87-.94c-.13.52-.26,1-.37,1.52.65-1,1.28-2,2-3-.6.39-1.18.81-1.75,1.25.62-2.06-1.68-1,.37-2.83-.12.26.21-.13.74-.6a4.17,4.17,0,0,1,2-1.07h0a4.36,4.36,0,0,1,2-2.91c.61.1.93,1.42,1.33,1.49-.08-.78.7-1.64,1.53-2.5a5,5,0,0,0,1.77-2.63,1.2,1.2,0,0,0,.57,1.17V106c.93-.32,1.13-.28,1.4.32,2.31-1.52-1.88-1,1.27-2.32-.16.22,0,.27-.31.72,2.9-1.61,4.91-4.22,7.82-5.36,1.54.85-2.08,1.71-.53,2.27,3.53-2.49,7-6.09,11.07-7.57l-.8.19c-.36-2.21,3.35-.39,4.94-2.13-.43.35-.17,1.37-.13,1.09a16.67,16.67,0,0,0,4.2-2c1.48-.85,3.11-1.85,5.09-3l-.33.72c1.77-.18,4.42-1.2,6.26-1.57.36-.7,1.41-1,.55-1.51,3.24.64,5.74-.51,8.2-1.71s4.86-2.37,7.68-1.64c-.6.14-1.32.8-.84.69l4.16-1.46c-.54-.84-.69-.43-1.75-.94a4.61,4.61,0,0,1,2.62-1.6c-1.81,1,.33,1.46,1.27,1.81-.2-.25,0-.62-.11-.89,2.6,1.19,0-1.93,3.32-1.43l-.07.51c1.1-.47,2.05-1.34,3.33-1.42.71,1-1.15.72-1.06,1.62,1.73-.4,3.1-2.63,4.88-1.85-.7.43-1.77.62-2.46,1,1.95,1,2.09.61,3.41.58h-.14c1,0,2,0,3.06.08l-.81-.23c1.76-3.12,4.39-1.21,7.11-3.46-2.65,2.15-.34,1.07-.39,2.32.81.23,2,.46,1.73.85,1.27-1.17,2.44.46,4.23-1.24.14.37,1.5-.16,1.31.87,1.79-.52-.52-.63-.42-1.14,2.66-1.67,6.8.82,10.67-1.42,3.43-1.14,4-2.52,7.17-3.49,1.16.53-.77,1.53-.77,1.53a7.83,7.83,0,0,0,4.8-.42c-.31.37.06.63.61,1,1.34-.22.78-1.51,2.6-1.08a5.5,5.5,0,0,1-1.2,1.7c1.55-.5,3.05-1.38,4.67-1.86.49.65-.91,1.12-1.45,1.62,1.82-.46,4.73-1,5.22-2.15l-1.22-.29c.67-.11.42.91-.06,1.15a1.5,1.5,0,0,1-2.43-.59l1.15-.34c-1.4-2.23-4.68.76-7,.83l.83-1.77-2.29,1.6c-.56-.39-1-1.3.15-1.65-1.77-.69-1.44.73-3-.06-.17-.13-.11-.22,0-.3L316,72c.29-.38-.39-1.16.65-1-3.07-.69-4.67,1.71-5.91.56l.24-.13c-4.06,1-.27,1.28-3.2,3.05l-2.41-2.83-.27,1.28c-.43,0-1.27,0-1.18-.5-1.48,1,.33.5-.49,1.41-2.17-.88-5.55,1.18-6.26-.7-.61,1,2,.46-.05,1.4-.89-2-2.46.69-4.45,0,.42-1.17,2.27-.83.27-1.55-.87,2-3.69.12-5.22.71.15,1.48-3.32,1.11-5.86,2.07.08-.52-5.09,0-7.63,0l0-.26c-.19,1.57-2.76,1.75-4.51,2.48-.12-.89.14-1.32,1.05-1.92l-1.72.39a3.16,3.16,0,0,1-1.86,1.34l.19-1.18A23.62,23.62,0,0,0,264,78a9.63,9.63,0,0,1-4,1c.11,1,3,2.22.15,3.67-.26-.51-.62-1.41.13-1.84-.25.14-.82.69-1.41.6l1-1.23c-1.43-.07-.49.94-1.57,1.12-.19-.78-.93-.35-.95-1,.25-.15,1,.08,1.34-.33a6.13,6.13,0,0,1-3.44-.32A.91.91,0,0,1,254.7,81c-2.23.71-1-.7-2.47-.71-.39.69-2,.55-1.68,1.72-.66.21-1-.28-1.3-.51-1,.88-5.36,1.92-3.64,2.7l.32,0c-.05,0-.11.07-.17.12h0a16.22,16.22,0,0,1-5.68,2.23,20.1,20.1,0,0,0-5.76,2l-.15-.37c-2,1.31-4.73,2.32-5.86,3.84-.62.3-1.8.06-1.74-.5-1.49,1.09-1.46,1.55-4.08,2.2,1.28-1.48-.85-.26,1.42-1.33-2.25.8-3.06.49-4.72,2.71.24-1.33-2.21-.22-3,.65l1.81-.23a20.54,20.54,0,0,1-3,1.82l-.21-1.47c-2.52.64-4,2.48-5.34,4.18a15.16,15.16,0,0,1-2.08,2.26,5.16,5.16,0,0,1-2.81,1.12c-.38,1.56,2.48-1.24,2.29.37a9.66,9.66,0,0,1-3.2,1.27,8,8,0,0,0-2.23.7c-2.81,1.71-.72,3.45-3.28,5.52.64,0,1.84.57.66,2.67-1.52,1.58-3.29.94-2.72-.47.3-.46.59-.57.7-.45.34-.68.82-1.56-.17-1.19l.17.53c-1.12.56-3,3.17-3.19,2.1-.64,1.76.2,1.07,1.17.17-2.31,2.05-2.71,3.84-4.57,6.36.47-.32,1.18-.44,1,0a6.89,6.89,0,0,0-1.13,2,1.24,1.24,0,0,0,0,.88c.19.43.47.7,0,2.14-1.3,1.32-1.43-1.24-1.93,1.87-1.07,1.64-1.35,0-1.47-.9a8.63,8.63,0,0,1-1.15,3.88,16.57,16.57,0,0,0-1.48,2.89l-.07-1.63a10.2,10.2,0,0,1-.27,2.52l1.12-.72c-.35.87-.46,1.64-.84,1.57.5,1,1.67-.46,2.3,1.45a2.6,2.6,0,0,0-.28,1c0,.4,0,.82,0,1.22,0,.8-.14,1.49-.76,1.69.62-3.75-1.32.39-1.34-2.89a5.92,5.92,0,0,1-.16,2.34c-.15.14-.26-.14-.32-.4-.63,1.87-.21,2.34.28,2.77a3.24,3.24,0,0,1,1.32,2.74c-.76-.42-1.3,1-1,1.66-.23-1.57,1.08-.86,1.85.41a3.4,3.4,0,0,0,.45,2.32,3.72,3.72,0,0,1,.71,1.37l-.08-1.45c.81.3,1,1.46,1.72,2.91-.48.32-.83-1.28-.88-.65.9.67.86,1.73,1,2.9a9.67,9.67,0,0,0,.24,1.82,3.54,3.54,0,0,0,1,1.64c.17,1.3-1.14.77-.86,1.89a5.49,5.49,0,0,1,1.78,2.71,4.79,4.79,0,0,0,2.06,2.71c.08-1.39-.21-1.24,2-.33a29.21,29.21,0,0,1-3.88-3.5,26.49,26.49,0,0,0,3.15,1.67c-1-1.11-2.51-2.1-2.87-3,1.52.83,1.24.79,1.47-.23a3,3,0,0,0,1.69,2.53,5.85,5.85,0,0,1,2.39,2.25l-1.65,1.75a8.06,8.06,0,0,0,4.55,3.1c1.84.61,3.73,1,6.1,2a15.4,15.4,0,0,1-1.43-.85c.46-.34,1.18-.16,2,.09a6.82,6.82,0,0,0,2.6.38c-.23.79.74,1.19,1.44,1.7,0-.29.9-.24,1.89-.4s2-.51,2.12-1.35a19.73,19.73,0,0,0,2.38.61,5.21,5.21,0,0,0,3.78-2.38l.56-.77a7.48,7.48,0,0,1,.59-.8c.22-.26.46-.52.74-.8s.61-.52,1-.84a1.17,1.17,0,0,0,.39,1.17c.18.27.23.65-.76,1.75a13.14,13.14,0,0,0,1.53-1.16c.36-.38.54-.69.35-.9.49-.09,1-1.06,1.43-2.08a7.08,7.08,0,0,1,1.31-2.56c-.11-.71-.79-1.14-.42-2.55.19-.13.39.08.39.08-.33-.12-.24-2.33-1.26-1.2a4.85,4.85,0,0,0,1-3.3,11.47,11.47,0,0,0-.79-3.72c-.43-1.19-.95-2.29-1.35-3.33a6.44,6.44,0,0,1-.58-2.93c-.69-1.08-1.63-2.13-2.43-3.23l-2.45-2.94c.28,0,.33-.25.52.14a2.13,2.13,0,0,0-2.23-1.48,2.57,2.57,0,0,1-2.44-1.63c-.3-2.2,1.79.87,1.38-.28.79-1.07,0-1.84-1.12-2.59s-2.45-1.57-2.87-2.91l.55.27c-.81-1.91-4-2.17-6.28-4,0,0,.25-.1.25-.31-2.41-.16-5.76-1.88-8.32-3,1.28-.42,1.36.21,1.47-1-1.14-.54-.58,1.6-2.85.57-.4-.9-1.68-2.25-1.34-3.33l2.07,1.15c-.3-1.88-2.67-1.52-3.64-2.33l.45-.48c-3.29-1.58-4.08-.19-7.46-2l.14.61c-2.58.46-1.19-1.58-3.59-1.45l.12-1.73c-1.43-.25-5.07-.68-7.48-1.35,1.76-.56,4.7.09,6.64.24-1.24-.62-4.36-1.87-5.34-1.42.58.07,1.38,0,1.79.46a11.74,11.74,0,0,1-6.9-.87c.8-1.37-.83-2.2-2.81-3s-4.33-1.54-5-3a35.35,35.35,0,0,1-7.56-1.53,32.22,32.22,0,0,0-8.37-1.45c1,1.26.57,1.24-.08,1.25s-1.53,0-1.37,1.28c-1.36.12-1.87.11-2,0a42.65,42.65,0,0,0-4.31-1.18c-1.1-.61,1.29-.69,1.12-1.23-3.18.17-1.44-.95-3.68-1.27.57.81-.9,1.43-2.77,1.47.93.17,1.85.42,2.74.64a5,5,0,0,1-4.13.47,4.35,4.35,0,0,0-4.12.86c.36-.4.73-.79,1.11-1.19-1,.56-3.07,1.3-4.94,2.33s-3.53,2.36-4,3.76c-.48-.07-1.28-.4-.5-1a26.43,26.43,0,0,0-6.63,5.22c-2,2-3.78,3.81-5.69,4.64l-.1-.72c-.61.77-.51,2-1.81,2.29-.12-.23-.12-.71-.47-.44-.24.51-1.18,2.49-2.32,3.12l.31-1.24c-4.21,2.92-4.29,6.61-6.68,10-.67-.59-1.75-.22-2.86.46a19.79,19.79,0,0,0-2.92,2.44l-.16-.21c-3.79,4.59-4.65,9-6.67,14a8.55,8.55,0,0,0-2.41,2.43,29.89,29.89,0,0,0-2.23,3.87,44.74,44.74,0,0,0-3.32,10.13c.19-.53.54-.45.85-.11a3.44,3.44,0,0,1,.69,1.53,2.94,2.94,0,0,0,.1,1.36,9.73,9.73,0,0,0,.47,1.38c.31.84.52,1.46-.3,1.58-.05-.2-.11-.4-.15-.6a2.49,2.49,0,0,0-.41,1.58,6,6,0,0,0,.53,2,14.11,14.11,0,0,0,2.8,3.83c.62-.4,1.23-.81,1.82-1.23a8.37,8.37,0,0,0,3.82,4A18,18,0,0,0,94.12,181c3.26.66,6.15.88,7.39,2.53,1.4-.3,3,0,4.37-.43l-.2,1.14a31.56,31.56,0,0,0,10.06.62l-.92.84a3.59,3.59,0,0,0,2.83-1.74c.73-.88,1.4-1.79,2.53-1.94l.87,1.64c4.36-.5,9.19.07,13.08-2.82a1,1,0,0,1-.69,1.08l1.38-.35c.28-.08.59-.16.91-.27s.62-.19,1.11-.39a9.8,9.8,0,0,0,4.31-3.16c.87-1.34.87-2.29,0-2.33.66.39,1.76-1.24,1.75-3.56a9.64,9.64,0,0,0-.66-3.49,10.84,10.84,0,0,0-1.31-2.47c.41,0,.81,0,1.22,0-1.1-.92-1.76-1.22-2.34-1.68a6.54,6.54,0,0,1-.88-.82,15.07,15.07,0,0,1-1.09-1.26c-.19-.64.51-.95.69,0-.58-2.19-1.73-1-2.63-3.46l1.14.44c-1.15-1.94-1.36-1.6-2.76-2.12a5.09,5.09,0,0,1-1.47-2.22,2.84,2.84,0,0,1-.19-2.22,2.8,2.8,0,0,1-2.69-1.46c.17-.38.68-.19.92-.07a9,9,0,0,0-3.17-3.2,5.46,5.46,0,0,1-2.53-2.58.78.78,0,0,0,.14-.78,27.8,27.8,0,0,1,3.51,3.79c.8-.72-.81-2.61,1.62-2.19-1-.45-2.38-1-3.67-1.62a8.31,8.31,0,0,1-3.29-2.33,1.29,1.29,0,0,1,0-.48l.26.08a2.61,2.61,0,0,0-1.26-.84,9.64,9.64,0,0,0-1.32-1.5c.34-.88-2-2.07-2.92-2.84-.58,1-1.75-.09-1.11,1.55-.1-.18.26,0,.93.46a1.8,1.8,0,0,0,.49.21l-.13,0c.64.46,1.51,1,2.41,1.77a3.28,3.28,0,0,1-2.85-1.65c-.93.23-1.9.44-2.4.51-.4-2.19-2.6-4.68-2.51-5.71-.88-.33-1.8-.77-2.75-1.18s-1.94-.79-2.89-1.12a8.36,8.36,0,0,0-5.26-.39c-1.06-.12-.87-1-1.11-1.46.64,0,1.29.31,1.71.15-1.08-.13-2.53-.65-3.84-1s-2.51-.34-3,.3c-2.27-1.43,1.82-.91-1.69-1.69l.6-.32c-3.12-2.1-6.3-1.83-9.34-1.37-.77.11-1.53.22-2.31.29a22.61,22.61,0,0,1-2.36.16,15.72,15.72,0,0,1-2.49-.26,12.4,12.4,0,0,1-2.75-.81c.54.2.8.29.91.55a34.61,34.61,0,0,0-13.48.91c-4.46,1-8.72,2.36-13.24,3-2.49.62-2.4,1.53-3.42,2.89l-1-.85c-.58.82-1.13,1.63-1.66,2.45a5,5,0,0,1-2.24,1.35,12.8,12.8,0,0,1-1.29.33l-1.31.36a9.58,9.58,0,0,0-2.66,1.07A6.84,6.84,0,0,0,34,139.62l1,.22a16.25,16.25,0,0,0-2.32,2.31c-.75.78-1.39,1.35-1.65.94,0,.24.27,1-.49,1.25L30,144a20.05,20.05,0,0,0-1.44,4.29c-.46.72-.8,1-1.11,1.12a1.59,1.59,0,0,1-.89-.08.86.86,0,0,0-.94.32,5,5,0,0,0-.91,2.91,6.76,6.76,0,0,0,.56,2.23,5.33,5.33,0,0,0,.59,1.08,5.17,5.17,0,0,0,.71.87,4.13,4.13,0,0,0,1.34,1c.35.14.54.1.52-.12-.48-.73-.66-2.08,0-2.32a6.53,6.53,0,0,0,1,1.34A8.56,8.56,0,0,0,32,155.33a18.78,18.78,0,0,0,1.63-2,1.84,1.84,0,0,1-1.12-1,8.14,8.14,0,0,1,1-.26,3.24,3.24,0,0,0-.09,1c.43-.2.48-.34.37-.58s-.36-.54-.51-.89a1.82,1.82,0,0,0,1.19-.25,8.27,8.27,0,0,1-.67-2.5c.74.23.76,1.51,1.8.69-.08-.6-.53-.68-.93-.78s-.74-.22-.45-1.07a5.92,5.92,0,0,1,1.36-.07c.29,0,.38-.19.6-.92.49.2.51.62.32,1.12.39-1.2,1.95-2.36,1.74-3.49.81,0,1.52-.69,2.18-1.22s1.3-.79,1.77-.06a4.9,4.9,0,0,1,.55-1.47A4.23,4.23,0,0,1,43.91,140c-.56,2.85,3.59-2.06,4.29.3.38-2.39,4.34-3.14,6.5-4.93-.09.2-.26.58-.51.57a7.15,7.15,0,0,1,3.06.12c-.29-1.55,1.87-2.6,2.92-3.83,2.18,1.09-.68,2.06.26,3.36-.42-1.23,2.81-1.93,2-2.85,1.57.62,1.29.21,2.24,1.39-.09-2,1.23-.53,2.22-1.93,2.17.74.74,1.8,2.9,1C70.88,133.63,69,134.53,69,134.53Zm50.23,13.28h0c-.37-.3-.68-.55-.9-.7C118.52,147.26,118.78,147.45,119.23,147.81Zm3.35,3.17a17.68,17.68,0,0,0-1.38-1.45c.15-.39.57-.58.89-.23C121.73,149.31,122.34,150.26,122.58,151Zm-2.5-12.75c.75.36.83.7.77,1a11.48,11.48,0,0,0-1.22-.75l-.16.05A1.63,1.63,0,0,1,120.08,138.23Z"/><path class="cls-2" d="M118,138.56a2.33,2.33,0,0,1-.31-.13,4.48,4.48,0,0,0,.23.49l.44-.12Z"/><path class="cls-2" d="M245.61,84.21h-.11a.45.45,0,0,1,.26.09A1.28,1.28,0,0,1,245.61,84.21Z"/><polygon class="cls-2" points="102.54 173.27 102.49 173.56 102.92 173.38 102.54 173.27"/><path class="cls-2" d="M272.23,81.06a.68.68,0,0,0,.4.22C272.6,81.21,272.43,81.14,272.23,81.06Z"/><path class="cls-2" d="M283.47,79.22l1.65.13A10.58,10.58,0,0,0,283.47,79.22Z"/><path class="cls-2" d="M292.2,78.43a1.57,1.57,0,0,0,.1-.5h0Z"/><path class="cls-2" d="M194.17,148.55a1,1,0,0,0,.12.27C194.66,149.43,194.47,149,194.17,148.55Z"/><path class="cls-2" d="M203.17,112.7a8,8,0,0,1-.49,1.32C203.24,113.55,203.63,113.16,203.17,112.7Z"/><path class="cls-2" d="M219.34,159.53h0a.47.47,0,0,0,0-.1A.28.28,0,0,1,219.34,159.53Z"/><path class="cls-2" d="M201.45,115.42a3.35,3.35,0,0,0,1.23-1.4A4.14,4.14,0,0,0,201.45,115.42Z"/><path class="cls-2" d="M330.07,75l.43,0a.28.28,0,0,1,0-.19Z"/><path class="cls-2" d="M330.54,74.82l.45-.17C330.78,74.67,330.59,74.69,330.54,74.82Z"/><path class="cls-2" d="M332,74.28l-1,.37C331.34,74.62,331.76,74.63,332,74.28Z"/><path class="cls-2" d="M318.43,75.46l-.1.42A.69.69,0,0,0,318.43,75.46Z"/><path class="cls-2" d="M314.92,75.91c.85,0,2.19.68,3.33.31l.08-.34C317.84,76.55,315.65,75.14,314.92,75.91Z"/><path class="cls-2" d="M299.66,72.41l3,0c-.57-.38-1.32-.89,0-1.15C298.78,70.37,303.56,72.13,299.66,72.41Z"/><path class="cls-2" d="M290.38,73c1.56-.45-.11-.64-.06-.9C289.37,72.66,289.14,72.79,290.38,73Z"/><path class="cls-2" d="M225.78,91.41l-.32-1C224.4,91.11,225.63,90.77,225.78,91.41Z"/><polygon class="cls-2" points="217.39 102.36 218.71 102.27 218.67 101.17 217.39 102.36"/><polygon class="cls-2" points="206.9 100.76 207.25 100.29 205.78 101.93 206.9 100.76"/><path class="cls-2" d="M227.22,147.63l-1,.93C226.82,149.3,228.25,148.92,227.22,147.63Z"/><path class="cls-2" d="M188.76,115.82a2.19,2.19,0,0,0-2.28-1.6C187.43,114.77,188.19,115.71,188.76,115.82Z"/><path class="cls-2" d="M86.75,178.49c-.43-.11-.88-.25-1.33-.4a18.81,18.81,0,0,0,2.26,1C87.37,178.93,87.06,178.72,86.75,178.49Z"/><path class="cls-3" d="M1740.34,105.08c.5-.22.83-1.18,0-1.43l-1.36,1.18Z"/><path class="cls-3" d="M1736.59,99.52c-1.3.2-3,1-3.13,2.63,1.65-1,1.55-.24,3.43-1.42a1.09,1.09,0,0,1,.68,1.68c.48-.23,1,1,2,.28-.39-1.69-1.67-2.44-3.52-2.21C1735.9,100,1736.38,99.76,1736.59,99.52Z"/><path class="cls-3" d="M1653.83,72l.54.26A1.14,1.14,0,0,0,1653.83,72Z"/><path class="cls-3" d="M1598.9,73.25c.4-.18.53-.38.51-.53C1599.05,72.93,1598.77,73.14,1598.9,73.25Z"/><path class="cls-3" d="M1589,75.15l.59-.16C1589.32,75,1589.07,75,1589,75.15Z"/><path class="cls-3" d="M1653.83,72c-.46-.24-.93-.47-1.4-.68C1652.28,71.85,1653.14,71.78,1653.83,72Z"/><path class="cls-3" d="M1724.11,97.93a1.76,1.76,0,0,0,.88-.09,5.86,5.86,0,0,1-.73-.13Z"/><path class="cls-3" d="M1677.88,74.43l.44.09a3.77,3.77,0,0,0,.5-.59Z"/><path class="cls-3" d="M1696,78.67c-.39-.17-.93,1.16-1.26,1.72a1.48,1.48,0,0,1,1.16-.7A3,3,0,0,0,1696,78.67Z"/><path class="cls-3" d="M1722.74,91l.56,0C1723.15,91,1722.92,91,1722.74,91Z"/><path class="cls-3" d="M1664.84,71.76a1.3,1.3,0,0,0-.09-.53A1.08,1.08,0,0,0,1664.84,71.76Z"/><path class="cls-3" d="M1330.44,170.71l-.2-.15C1330.28,170.72,1330.34,170.81,1330.44,170.71Z"/><path class="cls-3" d="M1313,183.88l.08-.29a7.12,7.12,0,0,0-.66-.46Z"/><path class="cls-3" d="M1572.64,84.46l.08,0C1573,84,1572.79,84.18,1572.64,84.46Z"/><path class="cls-3" d="M1513.79,213.81c.78.6.22,1-.3,1.5s-1,.93.29,1.56c-.13-.27.39-.85.66-1.46A1,1,0,0,0,1513.79,213.81Z"/><path class="cls-3" d="M1723.76,97.56a5,5,0,0,1-.67-.29A1.64,1.64,0,0,0,1723.76,97.56Z"/><path class="cls-3" d="M1513.78,216.87v0l.26.12Z"/><path class="cls-3" d="M1553.14,121.7a1.84,1.84,0,0,0,.7-.26A1.05,1.05,0,0,0,1553.14,121.7Z"/><path class="cls-3" d="M1567.75,94.57l-.61.5A2.54,2.54,0,0,0,1567.75,94.57Z"/><path class="cls-3" d="M1552.26,137.46c-.16.38-.37.49-.25,1a.67.67,0,0,0,.19-.14C1552,138.15,1552,137.88,1552.26,137.46Z"/><path class="cls-3" d="M1550.61,153.22a2.66,2.66,0,0,0,.31-.26c0-.16,0-.34,0-.51Z"/><path class="cls-3" d="M1363.49,139.37a4.55,4.55,0,0,1-1.3-.66C1363,139.41,1361.34,141,1363.49,139.37Z"/><path class="cls-3" d="M1724.43,97.19c-.23.29-.42.4-.67.37a4.74,4.74,0,0,0,.5.15A.63.63,0,0,0,1724.43,97.19Z"/><path class="cls-3" d="M1563.35,139.55c-.19.78-.34,1.58-.51,2.37A14.44,14.44,0,0,0,1563.35,139.55Z"/><path class="cls-3" d="M1447.46,147.28l-.32-.47A.58.58,0,0,0,1447.46,147.28Z"/><path class="cls-3" d="M1562.29,149.14a3.48,3.48,0,0,0-1.11,1.29,1.31,1.31,0,0,0,.34.32Z"/><path class="cls-3" d="M1362.18,138.7a0,0,0,0,1,0,0A0,0,0,0,0,1362.18,138.7Z"/><path class="cls-3" d="M1351.69,150.93c1.75-1.41-.36-2.09-.68-3.23,1.8-2.13,1.86.28,3.18.45,1-1.46,1-3.61,2-4.32.26.19.53.13.53.61.27-1.13,1.32-2,2.4-2.83a5.93,5.93,0,0,0,2.52-3.14,1,1,0,0,1,.49.23,5.83,5.83,0,0,1-1.72-1.94c.83-.64,1-2.07,2-1.27-.56.32-.33.76-.37,1.24l.62-1c1.8.93-.91,1.33-.18,2.41,1.45-1.62,2.72-4.26,4.4-4.68,1.18,1.26-2.9,2.54-.26,2.65l-2.45.83c3.09,1.22-1.37.67,1.69,2.14,3-1.38,2.59-2.72,5.63-4,.14-1.2-.94-1.08-.8-2.29,3.21-3.85,5.34,1.91,7.16-1.71.2-1.42-.48-3.54,2.21-3.57l.12,2.11c2.86-1.17.4-3.33,4-3.47-.24.92-2,1.59-1.46,1.6,2.54.54.91-1.61,2.43-2.27l1,1.47c2.92-1.5,5.94-3.91,9.42-5.23-.06.55-.51,1.24.46,1.51,4.17-2.09,9.58-2,13.83-1.33.49-.54,1-1.06,1.52-1.59.38,0,.73.63.34.94,1.65.51,0-1,.82-1.56,1-.13,1.26.82.68,1.29a16,16,0,0,1,5.67-1.43c2.12-.11,4.25.3,5.5,1.44l-.66.3c1,.54,1.83,0,2.66-.46s1.61-.78,2.4.25l-.48.1a52,52,0,0,1,6.7,3.67,8.73,8.73,0,0,1,3.94,5.36c1-.45,1.66.66,2.24,1.69s1.15,2,2.52,1.37a12.43,12.43,0,0,1-.14,3.16,13.43,13.43,0,0,0,.34,3.77c.3,1.06,2.37.8,3.18,2l-1.46.58c.75.4,1.47.84,2.21,1.27l-1.44,1.59c.27.38.54.77.8,1.16-.07-.54.31-1.31.77-1.37,1.35,1.81.49,5.38-.26,5.63.88,1.53,1.78,3.07,2.64,4.65-.64.05-1.07-.74-1.63-1.3,2.25,2.28-1.47.91.6,3,.26-.42,1-.06,1.27-.08-.59,1.48.13,4.31,1.06,6.34l-1.15-.14c.72,3.91,2.61,8,3.93,12.43a1.29,1.29,0,0,1,2.47-.67l-1.43,1c1.23.52.19-1.52,1.9-.2.33,1.68-1.45,1.67-2.26.88l1.19,1.83c-.43.27-.83-.12-1.47-.05.63.26.52,1.25.52,2.27s.16,2.07,1.21,2.36l-.42.28c.39,1.11.84,2.06,1.22,2.91s.78,1.59,1.19,2.31l1.2,2.13c.42.72.86,1.48,1.32,2.35,1.29-.58,1.7.93,3.3,1.37.25.67.46,1.38.69,2.11s.54,1.47.81,2.23a16.17,16.17,0,0,0,2.53,4.49c2.15,1.49,1.41-.19,2.77.11-.89,1,1.51,3.58-.38,2.81a28,28,0,0,0,8.74,6.31c-.12-.78-.47-1.34.06-1.49.87.4,1.35,1.74.88,2.16l-.28-.05a8.21,8.21,0,0,1,1,.47,7.81,7.81,0,0,1,1,.55,12.33,12.33,0,0,1,1.92,1.44c1.25,1.05,2.49,2.25,3.73,3.44a21.43,21.43,0,0,0,4,2.92,6.43,6.43,0,0,0,4.14.84l-.31,0,2.62.07,1.28,0,1.3-.06c2.19.72-1.59.64-.1,1.8a19.12,19.12,0,0,1,7,.35c1,.13,2,.28,3,.32a7.49,7.49,0,0,0,3.22-.53,4.91,4.91,0,0,0,3.73,1.28,14.94,14.94,0,0,0,4.78-.94l2.44-.87c.81-.29,1.57-.67,2.34-.94a14.74,14.74,0,0,1,4.4-1.06l-.68-.67c.74-1.34,1.62-.26,2.56-.58-.48-.53-1.6,0-1.17-.82A99.69,99.69,0,0,0,1545,210.18a54.82,54.82,0,0,0,9.68-13c.87-1.75-.07-2.69-.7-3.62s-1-1.86.71-3.74l1.18,1.79a76.23,76.23,0,0,1,1.93-11.23c.74-3.6,1.41-7.2,1-10.75.33.46.83.54.73,1.21,1.43-1.31.72-5.39-.26-5.51.22-1.05.92-.15,1.49-.75.87-1.39-1.17-3.8.1-4.44.21-.11.36.44.42.72-.49-1,.57-4.36-.92-3.59.9-2.48-.18-4.89.84-6.81-1.45-1.46,1.16-4.19-1-4.82,2.26.4,2.3-4.13,1.44-5.81.62.6.89-1.24,1.76-.52.19-1.75,0-3.4-1.2-3.27,1.6-1.4,1.31-3.07,1.13-4.57s-.28-2.82,1.62-3.33a48.36,48.36,0,0,1,1.7-14.49c1,.52.63,1.71.25,2.86s-.63,2.31.54,2.59c.47-4.29-.35-7.45,2.11-11.07.78-.85.6,1,.78,1.51a19.68,19.68,0,0,1,2.65-5.6c.55-.83,1.08-1.66,1.55-2.52a13.07,13.07,0,0,0,1.25-2.64c.16.14.11.61,0,1,.38-.64,1.28-1.18.42-1.75l-.21.76c-1,0-1.17-1.07-1.11-2.24s.33-2.42.07-2.74c.7,1.49,1.47.85,2.25.39s1.61-.71,2.3,1.3a1.4,1.4,0,0,0-.33-1.67c.66-.39,1.1-.26,1.17.82a4.78,4.78,0,0,0,.77-2.27,2.46,2.46,0,0,1,1.06-1.78c.33.39.09.86.31,1.47a7.38,7.38,0,0,1,.59-2.27A4,4,0,0,1,1585,88c.08.32.51.48,0,.86a8.77,8.77,0,0,0,.91-.92,10.29,10.29,0,0,0,.83-.92c.52-.64,1-1.31,1.51-2a11.87,11.87,0,0,1,1.82-1.71,8,8,0,0,1,1.13-.71,9.05,9.05,0,0,1,1.39-.43c-.08,2.47,1.53.08,2.48,1.72.53-.48,1.09-.9,1.66-1.33l-1.12-.54a10.52,10.52,0,0,0,2.24-1.49,3.3,3.3,0,0,1,2.29-.92c-.37.39-.73.76-1.08,1.16,1.06-.47,2.13-1,3.23-1.35-.71-.06-1.41-.12-2.12-.14,1.56-1.5-.9-2.26,1.74-2.45-.23.17.24,0,.92,0a3.6,3.6,0,0,1,2.2.42h0c.8-.77,1.65-1.63,3.16-1.4.46.53.07,2.11.38,2.47.63-1.75,4.31-1.11,5.3-2.91a1.89,1.89,0,0,0-.11,1.62l.65-1.37c.93.33,1.08.51,1,1.32,2.68,0-1.07-2.34,2.21-1.57-.24.13-.11.31-.62.54,3.22.29,6.17-1.18,9.17-.59.9,1.89-2.57.52-1.54,2.11,2.1-.23,4.3-.8,6.51-1.24a20.9,20.9,0,0,1,6.49-.45l-.77-.23c.69-2.7,3,1.48,5.2.33-.53.17-.76,1.45-.61,1.16a14,14,0,0,0,4.52,0c1.65-.18,3.51-.5,5.7-.73l-.6.64c1.62.73,4.35.85,6.11,1.36.62-.62,1.64-.39,1.14-1.46,2.53,2.28,5.19,2.22,7.86,2s5.26-.38,7.39,1.66c-.58-.09-1.5.35-1,.43,1.43,0,2.84.14,4.26.22-.09-1.22-.4-.81-1.09-1.89a3.83,3.83,0,0,1,3-.63c-2,.36-.37,1.85.29,2.66-.06-.38.3-.71.31-1.08,1.71,2.52.89-2.27,3.53-.18l-.29.56c1.17,0,2.38-.58,3.53-.11.17,1.44-1.33.32-1.67,1.39,1.67.34,3.94-1.71,5.1,0-.8.16-1.82-.09-2.62.11,1.24,1.93,1.52,1.61,2.66,2.19l-.11-.07,2.59,1.47-.59-.62a3.42,3.42,0,0,1,3.76-1,5.46,5.46,0,0,0,4,.18c-3.34,1.25-.82,1.07-1.48,2.48.57.62,1.49,1.41,1.06,1.73,1.67-.77,1.85,1.57,4.22.49-.08.5,1.35.52.66,1.6,1.79.2-.11-1,.23-1.49,1.56-.36,2.91.65,4.41,1.63s3.11,2,5.36,1.65c3.5.33,4.69-.91,8-.46.67,1.14-1.52,1.32-1.52,1.32a5.47,5.47,0,0,0,2,1.36,7,7,0,0,0,2.26.52c-.48.26-.32.73-.11,1.44,1.23.42,1.54-1.28,2.79.1a7,7,0,0,1-2,1.26c1.56.23,3.34,0,4.94.31,0,1-1.42.76-2.16,1,1.74.43,4.43,1.33,5.54.36l-.8-.94c.61.23-.23,1.19-.77,1.2-1.83.29-1.75-1.4-1.61-1.88l1.15.21c.12-1.55-1-2-2.3-2.11s-3,0-4-.53l1.74-1.53-2.85.63c-.23-.71-.06-1.93,1.1-1.75-1.08-1.63-1.62.06-2.46-1.55-.07-.22,0-.29.2-.31l-1.73,0c.46-.28.34-1.47,1.13-.81-2.21-2.24-4.91-.35-5.32-2.24l.28,0c-4-.77-.95,1.3-4.4,1.93l-.53-4.3-.91,1.31c-.37-.2-1.09-.6-.74-1.13-1.81.47,0,.71-1.16,1.36-1.41-2-5.38-1.17-5-3.66-1,.89,1.51,1.49-.76,1.57.27-2.74-2.47-.32-3.83-2,1-1.14,2.39.07,1-1.65-1.75,1.9-3.25-1.56-4.87-1.56-.59,1.75-3.45-.16-6.1-.26.33-.6-4.46-2.15-6.65-3.39l.14-.28c-.88,1.68-3.22.84-5.07.83a2.06,2.06,0,0,1,1.78-1.72l-1.67-.35a2.75,2.75,0,0,1-2.22.68l.69-1.28c-2.24-.42-4.8.77-7.5-.69-.37,1.26,1.63,4-1.5,4.29,0-.71.09-1.92.93-2.06-.28.05-1,.41-1.49,0l1.4-1c-1.22-.74-.84.84-1.87.58.19-1-.65-.82-.38-1.59.29,0,.85.55,1.31.22a4.92,4.92,0,0,1-2.85-2c0,.58-.2,1.34-1.09,1.33-2.25-.26-.59-1.3-1.83-2-.64.6-2-.32-2.22,1.18-.65-.09-.69-.8-.89-1.23-1.25.51-5.48-.47-4.34,1.28l.29.14a1.77,1.77,0,0,0-.2,0h0a11.76,11.76,0,0,1-5.88-.36c-1-.24-2-.52-2.92-.71a10.12,10.12,0,0,0-2.9-.14l0-.5c-2.31.44-5.08,0-6.73,1.09-.67,0-1.56-1-1.25-1.55-1.76.33-2,.89-4.45,0,1.76-.84-.6-.79,1.8-.6-2.25-.49-2.78-1.29-5.22.09.83-1.29-1.74-1.61-2.83-1.19l1.62.89a14.16,14.16,0,0,1-3.37,0l.54-1.71c-2.41-1-4.54,0-6.48.9s-3.69,1.58-5.73.11c-1.1,1.33,2.68.5,1.72,2-2.15,0-4.81-2-5.52-1.88-3.23-.35-2.33,2.94-5.54,3,.55.5,1.27,1.94-.79,3.1-2.09.36-3.3-1.63-2.09-2.53.49-.21.8-.09.83.11.63-.4,1.49-.9.45-1.3l-.12.66c-1.24-.32-4.2.73-3.82-.43-1.45,1.13-.36,1.17.93,1.06a9.2,9.2,0,0,0-3.66.9l-1.65.7a12.25,12.25,0,0,1-2,.68c.58.09,1.27.55.84.75-2.15.6-2.46,1.07-2.52,1.6a2,2,0,0,1-1.12,1.88c-1.9,0-.61-2.22-2.76,0-1.86.5-1.21-1.12-.84-2a5.6,5.6,0,0,1-3.21,2.21,19.46,19.46,0,0,0-3,1.05l.89-1.32a7.31,7.31,0,0,1-1.72,1.71l1.44.4c-.82.38-1.41.83-1.71.45-.15,1.19,1.78,1.08,1.22,3-1.25.31-2.07,2.74-3.43,1.92,1.43-1.08,1.13-1.25.65-1.52s-1.07-.51,0-1.66a4.47,4.47,0,0,1-1.64,1.49c-.21,0-.14-.33,0-.57-1.73.76-1.7,1.39-1.53,2.12a2.69,2.69,0,0,1-.73,2.89c-.39-.94-1.83-.48-2.07.1,1-1.11,1.58.46,1.29,1.88a2.61,2.61,0,0,0-1.38,1.72,2.79,2.79,0,0,1-.47,1.4l1-.87c.46.91-.3,1.7-1,3.1-.67-.3.41-1.4-.16-1.14.12,1.14-.69,1.71-1.68,2.33a8.27,8.27,0,0,0-1.41,1,2.6,2.6,0,0,0-.76,1.57c-1.09.66-1.52-.75-2.38-.1a3.29,3.29,0,0,1-1.41,2.5,3.42,3.42,0,0,0-1.52,2.58c1.44-.24,1.21-.48,1.47,1.82.35-1.53.83-3,1.28-4.54l.23,3.43c.63-1.21.64-2.94,1.21-3.59.23,1.72,0,1.43,1.22,1.33-1.23.4-1.42,1.36-1.55,2.37s-.13,2.08-1.14,2.81l-2.72-1.27c-1.33,1.26-1.46,2.84-1.64,4.48-.09.83-.09,1.71-.26,2.6a10.79,10.79,0,0,1-.91,2.79c.3-.39.58-.79.9-1.16.94.9-.59,2.56-.52,4-.94-.4-1.51.34-2.26.77.75.11-.85,3.06,1.07,3.86l-1.68,1.57c-1.19,3.27,2.06,4.32,1.24,7.42-.93-1.13-1.86.22-2.29-2-.18,1.07-.51,2,.17,2.13-.73.55.93,3.15-.15,4,.38.51,1.4.78,1.18,2a.57.57,0,0,1-.49-.06c.49.06.45,1.94,1.67,1-3.5,2.91-.71,9.1-3.64,11.66a66.71,66.71,0,0,1,.07,7.18c-.29-.17-.5-.06-.36-.44-1.21,2.75,2.69,2,1.31,5.18-1.8,1.47-.67-1.81-1.4-.85-3.33.08,0,3.94-2.2,5.84l-.13-.55c-1.32,1.47.69,4.15,0,6.77a.65.65,0,0,0-.49-.1,8.46,8.46,0,0,1,1.08,3.94c0,.74.07,1.5,0,2.24s-.09,1.44-.12,2.1c-1.06-1.11-.39-1.3-1.78-1.15-.1,1.15,2.16.18,1.9,2.53-.89.54-1.94,2-3.36,1.72.21-.67.36-1.36.54-2.05-2,.54-.74,2.62-1.4,3.59l-.7-.39c-.84,3,1,3.87-.61,7l.7-.06c.45,1.29,0,1.55-.47,1.76s-1,.37-.86,1.56l-2-.49a21.22,21.22,0,0,1-1.8,6.79,8.89,8.89,0,0,1,.14-3.19c.16-1.11.37-2.2.42-3.08a14.49,14.49,0,0,0-1.23,2.24,3.36,3.36,0,0,0-.5,2.27c.14-.51.1-1.29.64-1.49a6.36,6.36,0,0,1-.18,3.15,7.48,7.48,0,0,1-1.85,2.9,1.67,1.67,0,0,0-1.9-.7,3.9,3.9,0,0,0-1,.49,10.56,10.56,0,0,0-1.07.72c-.36.26-.72.56-1.11.8a9.59,9.59,0,0,1-1.2.6,3.39,3.39,0,0,1-1.18.28,2.35,2.35,0,0,1-1.16-.33,7.9,7.9,0,0,1-1.06,1.1,6.3,6.3,0,0,1-1.26.78,13.07,13.07,0,0,1-1.38.6c-.49.13-1,.25-1.48.36a26,26,0,0,1-3.1.45c-1,.21-2.13.23-3.23.48,2.06,2.72-1.31.3-.69,3.34-1.15.26-1.6.23-1.72,0l-1.76-.83-1.69-1c-.74-.93,1.07-.64,1-1.34-2.32-.34-.93-1.35-2.33-2.24.21,1.15-1,1.47-2.2.88.54.55,1.1,1.11,1.69,1.67a2.26,2.26,0,0,1-3-.91,2.33,2.33,0,0,0-2.93-1.16c.43-.23.85-.48,1.26-.72-.89.16-2.37-.38-3.94-.6a10.46,10.46,0,0,0-2.34-.28,4.77,4.77,0,0,0-2.18.56c-.14-.47-.14-1.42.64-1.28a14,14,0,0,0-3-1.25c-1.07-.4-2.24-.68-3.33-1.08a18.42,18.42,0,0,1-3-1.4,5.89,5.89,0,0,1-2-2.07l.73-.39c-.77-.29-2,.18-2.23-1.05.25-.2.74-.35.5-.63a8.09,8.09,0,0,1-1.48-.37,2.42,2.42,0,0,1-1.41-1.17l1.23,0a6.74,6.74,0,0,0-1.86-2A9.49,9.49,0,0,0,1478,197a23.48,23.48,0,0,1-2.24-1.13,6.86,6.86,0,0,1-2-1.63,2.8,2.8,0,0,0,1-2.85,15.79,15.79,0,0,0-.7-3.17l.31-.1a18.06,18.06,0,0,0-1.72-3,26.35,26.35,0,0,0-2-2.59l-2.07-2.58a29.17,29.17,0,0,1-1.94-2.93,6.89,6.89,0,0,0,.23-3.15A31,31,0,0,0,1466,170a35.35,35.35,0,0,1-1.41-8.21c-.2.83-1.72.32-2.16-.48.15-1.25-2.3-2.76-.27-3.08l.06.41c1.73-1.35.61-3.58.18-5.44l-2.68.38c1.26-2.9,0-6-1.25-8.82s-2.65-5.3-1.56-7.29c-1.09-1-1.72-2.45-2.86-3.34l1.33-.54a30.81,30.81,0,0,0-1.85-4.42,25.32,25.32,0,0,0-3.19-4.61l1.41.2c-.75-1.17-2.16-1.22-3.47-1.19s-2.64.18-3.48-.63c.36-.66.7-1.34,1-2-1.66-1.64-3.19-3.56-5.05-5.1a10.64,10.64,0,0,0-6.51-2.78,1.1,1.1,0,0,1,1.31-.51,27,27,0,0,0-4.55-2.26c-1.69-.59-3.13-.51-3.13,1,.24-.94-.91-1.29-2.42-1.32a21.63,21.63,0,0,0-4.56.63l.55-1.35c-1.13.75-1.69,1.29-2.33,1.64a7.55,7.55,0,0,1-2.71.74c-.63-.21-.53-1.16.32-.75a1.7,1.7,0,0,0-2,.24,2.37,2.37,0,0,1-2.29.31l.94-.93c-2.21-.06-2,.42-3.16,1.55-1.31.62-4.09,0-4.59-1.21a2.53,2.53,0,0,1-2.53,1.83c-.25-.45.16-.82.38-1a6.8,6.8,0,0,0-4.25,1.07,4.27,4.27,0,0,1-3.42.76,1.07,1.07,0,0,0-.62-.72,24.73,24.73,0,0,1,4.93-.9c-.24-1.3-2.64-1-1.14-3.17-1.74,1.35-4.35,4.19-6.68,4.24a1.48,1.48,0,0,1-.42-.35l.19-.21a2.05,2.05,0,0,0-1.33.62,6.32,6.32,0,0,0-1.93.21c-.6-1-2.77.31-3.88.68.58,1.31-.92,1.63.82,2.23-.2,0,.15-.24.85-.56a1.56,1.56,0,0,0,.42-.3,1,1,0,0,1,0,.14c.71-.29,1.63-.65,2.7-1-.65,1-1.34,1.85-2.8,1.53-.25,1-.52,2.17-.7,2.71-2.14-1.35-5.38-1.15-6.27-2.1-3,2.11-7.42,4.1-8,7.52-.69.79-1.36-.11-1.88-.3.36-.51,1-.81,1-1.3-1.38,1.57-5,3.11-4.37,5-2.55.57.29-2.2-2.45-.16l.09-.73a7.26,7.26,0,0,0-4.25,2,19.35,19.35,0,0,0-2.79,3.49,16,16,0,0,1-2.87,3.49,9,9,0,0,1-4.66,2.18c.56-.12.83-.19,1.1,0a26.11,26.11,0,0,0-5.34,3.58c-1.65,1.39-3.16,3-4.71,4.48-3,3.14-6,6.18-9.85,8.31-2,1.37-1.35,2.35-1.62,4l-1.48-.63-.31,3c-.68,1.71-2.31,2.29-4,3s-3.27,1.78-3.64,4.29l1.17.17c-1.15,1.13-2.46,4.42-3.28,3.51.06.25.58,1.05-.22,1.25l-.69-.42c-.39,1.32-.71,2.67-1,4-2.13,2.24-2.45-2.16-5,1.57-.61,1.61-.42,5.26.37,5,.37-.55,1.3-1.2,2-.83l-.4,1.49c1.9,1.42,3.47,3.52,6.67,1.39v-2.84l1.4,0c-.36.57-.68,1.18-1,1.77,1.5-.43,1.09-1.54,1-2.58a2,2,0,0,0,1.62-.17l-.59-3.25c.93.29.93,1.92,2.25.88-.22-1.5-2.34-.28-1.83-2.19,1.56-.35,2.07.44,2.11-1.21a1,1,0,0,1,.67,1.25,6.74,6.74,0,0,1,.75-2.09,2.17,2.17,0,0,0,.24-1.94c1.8-.17,2.22-3.51,3.93-2a6.11,6.11,0,0,1,.63-3.69c.38,1.64,1.07.86,1.9-.05s1.86-1.89,2.76-.74c-.85-2.74,2.83-4.72,3.73-7.57,0,.24.09.71-.15.8,1.2-.93,2-.72,3-1.07-1.25-1.54.08-3.55.2-5.3,2.68.14.77,2.47,2.47,3.41-1.18-1.1,1.25-3.34-.12-3.91,1.84-.08,1.28-.41,2.92.34-1.46-2,.71-1.17.6-3.09,2.35-.41,1.9,1.42,3.12-.61.66,0,.74.42.66.89A4.64,4.64,0,0,1,1351.69,150.93Zm43.69-29.7v0l-1,.38Zm4.31-1.13a16.63,16.63,0,0,0-1.89.4c-.27-.44-.23-1,.22-1C1397.86,119.83,1399,119.84,1399.69,120.1Zm-12.29-6.75c.67-.45,1-.26,1.21,0a9,9,0,0,0-1.24.6c0,.06,0,.13,0,.19A2,2,0,0,1,1387.4,113.35Z"/><path class="cls-3" d="M1386.7,115.58c-.09.07-.13.15-.26.21l.54.15c0-.18.07-.36.1-.52Z"/><path class="cls-3" d="M1654.47,72.31l-.1,0a.6.6,0,0,1,.19.23A.75.75,0,0,1,1654.47,72.31Z"/><polygon class="cls-3" points="1445.24 142.93 1445.57 142.79 1445.15 142.56 1445.24 142.93"/><path class="cls-3" d="M1679,81.3a.73.73,0,0,0,.24.43C1679.2,81.63,1679.09,81.47,1679,81.3Z"/><path class="cls-3" d="M1689.5,84.21l1.36.9A7.39,7.39,0,0,0,1689.5,84.21Z"/><path class="cls-3" d="M1697.37,87.22a2.52,2.52,0,0,0,.34-.53s0,0,0,0Z"/><path class="cls-3" d="M1575.78,99.77a.88.88,0,0,0-.13.28C1575.46,100.78,1575.65,100.33,1575.78,99.77Z"/><path class="cls-3" d="M1605,77.26a7.22,7.22,0,0,1-1.06.95C1604.63,78.16,1605.15,78.06,1605,77.26Z"/><path class="cls-3" d="M1563.41,139.29h0l0,.27Z"/><path class="cls-3" d="M1602.18,78.63a2.48,2.48,0,0,0,1.75-.42A3.24,3.24,0,0,0,1602.18,78.63Z"/><path class="cls-3" d="M1730.77,101.25l.33.24a.42.42,0,0,1,.15-.19Z"/><path class="cls-3" d="M1731.25,101.3l.47,0C1731.54,101.26,1731.37,101.19,1731.25,101.3Z"/><path class="cls-3" d="M1732.73,101.45l-1-.1C1732,101.5,1732.35,101.72,1732.73,101.45Z"/><path class="cls-3" d="M1721,96l-.32.43A1.25,1.25,0,0,0,1721,96Z"/><path class="cls-3" d="M1717.86,94.79c.7.42,1.43,1.79,2.58,1.92l.27-.33C1719.92,96.88,1718.91,94.28,1717.86,94.79Z"/><path class="cls-3" d="M1706.82,83.73l2.6,1.34c-.29-.69-.67-1.61.62-1.3C1707.12,81,1710.34,85.18,1706.82,83.73Z"/><path class="cls-3" d="M1698.49,80.18c1.57.22.22-.78.39-1.05C1697.78,79.31,1697.52,79.36,1698.49,80.18Z"/><path class="cls-3" d="M1634.27,69.8l.2-1.29C1633.25,68.66,1634.44,69,1634.27,69.8Z"/><polygon class="cls-3" points="1622.03 76.53 1623.18 77.3 1623.68 76.09 1622.03 76.53"/><path class="cls-3" d="M1614.05,67.81l.53-.24c-.68.22-1.36.44-2,.69Q1613.3,68,1614.05,67.81Z"/><path class="cls-3" d="M1549.61,150.32l1.62-.21C1551,149.28,1549.25,148.94,1549.61,150.32Z"/><path class="cls-3" d="M1542.67,194.78c-.94.09-1.92.92-1.56,1.95C1541.64,195.92,1542.63,195.32,1542.67,194.78Z"/><polygon class="cls-3" points="1461.11 150.8 1461.87 151.59 1460.96 149.96 1461.11 150.8"/><path class="cls-4" d="M1701.06,333.53c.49.16,1.41-.2,1-1-.59-.07-1.18-.16-1.78-.27Z"/><path class="cls-4" d="M1703.43,327.58c-.84-.88-2.16-2.15-3.75-1.58a5.63,5.63,0,0,1,1.26,1.2,4.29,4.29,0,0,0,1.58,1.14,1.08,1.08,0,0,1-1.07,1.39c.47.24-.23,1.38.91,1.65,1.11-1.29,1-2.45,0-3.86C1702.67,327.22,1703.11,327.52,1703.43,327.58Z"/><path class="cls-4" d="M1750.87,270.54c-.11.16-.24.31-.36.47A1.08,1.08,0,0,0,1750.87,270.54Z"/><path class="cls-4" d="M1722.53,233.72c.37.09.57,0,.64-.16C1722.8,233.56,1722.5,233.56,1722.53,233.72Z"/><path class="cls-4" d="M1715,229.52c.16.1.31.16.46.24C1715.29,229.56,1715.12,229.43,1715,229.52Z"/><path class="cls-4" d="M1750.87,270.54a15.17,15.17,0,0,0,.88-1.28C1751.24,269.05,1751.19,269.91,1750.87,270.54Z"/><path class="cls-4" d="M1701.73,315.86a1.75,1.75,0,0,0,.13.87,4.28,4.28,0,0,1,.1-.73A1.42,1.42,0,0,1,1701.73,315.86Z"/><path class="cls-4" d="M1738.24,288.44l-.3.25a5.07,5.07,0,0,0,.2.73Z"/><path class="cls-4" d="M1726.19,298.64c.31-.17-.51-1.35-.81-1.91a1.38,1.38,0,0,1,0,1.24A3.61,3.61,0,0,0,1726.19,298.64Z"/><path class="cls-4" d="M1708.52,314.94c0,.15,0,.31,0,.47C1708.49,315.28,1708.52,315.09,1708.52,314.94Z"/><path class="cls-4" d="M1747.06,280.41a1.5,1.5,0,0,0,.49.21A1,1,0,0,0,1747.06,280.41Z"/><path class="cls-4" d="M1577.21,220.61a1.35,1.35,0,0,0-.08-.24C1577.09,220.53,1577.1,220.64,1577.21,220.61Z"/><path class="cls-4" d="M1558.17,220.82l.19-.19c-.1-.25-.2-.49-.32-.73Z"/><path class="cls-4" d="M1699.73,225.55l.07,0C1700.23,225.43,1700,225.45,1699.73,225.55Z"/><path class="cls-4" d="M1616.39,303.71c-.91-.73-.07-1,.56-1.44s1.12-.81-.12-1.59c.1.29-.52.8-1,1.34S1615.22,303.18,1616.39,303.71Z"/><path class="cls-4" d="M1702.08,315.51a5.66,5.66,0,0,1,.27-.68A1.78,1.78,0,0,0,1702.08,315.51Z"/><path class="cls-4" d="M1616.83,300.68v0l-.25-.15Z"/><path class="cls-4" d="M1664.42,231.49a1.54,1.54,0,0,0,.54.48A1.18,1.18,0,0,0,1664.42,231.49Z"/><path class="cls-4" d="M1690.62,228.42l-.66-.15A1.57,1.57,0,0,0,1690.62,228.42Z"/><path class="cls-4" d="M1652.58,238.43c-.36,0-.55-.08-.9.29a.58.58,0,0,0,.21.1C1652,238.57,1652.13,238.39,1652.58,238.43Z"/><path class="cls-4" d="M1640.31,245a2.65,2.65,0,0,0,.37.12l.34-.29Z"/><path class="cls-4" d="M1615.37,215.7a4.78,4.78,0,0,1-.5-1.33C1615,215.4,1613.1,215.63,1615.37,215.7Z"/><path class="cls-4" d="M1702.48,316.15c-.3-.21-.42-.4-.4-.64a4.37,4.37,0,0,0-.12.49A.64.64,0,0,0,1702.48,316.15Z"/><path class="cls-4" d="M1656.91,248.84c-.65.21-1.28.45-1.92.7A12.63,12.63,0,0,0,1656.91,248.84Z"/><path class="cls-4" d="M1688,261.58l-.24-.2C1687.75,261.49,1687.82,261.57,1688,261.58Z"/><path class="cls-4" d="M1649.76,252.54a2.93,2.93,0,0,0-1.5-.31,1.62,1.62,0,0,0,0,.45C1648.74,252.61,1649.25,252.58,1649.76,252.54Z"/><path class="cls-4" d="M1614.87,214.35v0Z"/><path class="cls-4" d="M1601.53,217.67c1.9,0,.8-1.87,1.16-3,2.31-.63,1.13,1.33,1.93,2.26,1.4-.57,2.5-2.23,3.59-2.17.08.31.29.42,0,.81,1.56-1.55,4.51.07,6.41-1.73a1.12,1.12,0,0,1,.21.47,7,7,0,0,1-.11-2.58c.9,0,1.77-1,2,.22-.55-.09-.63.4-.92.76l1-.45c.68,1.84-1.32.49-1.42,1.79,1.82-.38,4.11-1.71,5.43-1,0,.88-.78.9-1.4.95s-1,.12-.22,1l-2-.85c1.35,2.85-1.26-.31-.06,2.72,2.67.73,3.15-.53,5.79.33.76-.86,0-1.43.78-2.29,2.11-.54,2.7.72,3.13,1.82s.75,2.08,2.38,1.29c1-1,1.75-3,3.51-1.4l-1.16,1.73c2.53.79,2.2-2.33,4.58-.3-.7.59-2.21,0-1.88.37,1.31,2,1.53-.71,2.89-.31l-.23,1.73a39.43,39.43,0,0,0,4.5.57,27.57,27.57,0,0,1,4.74.85c-.37.4-1.07.71-.59,1.46,4,.8,7.65,3.73,10.32,6.58l2-.55a.58.58,0,0,1-.28.95c.94,1.28.56-.76,1.47-.87a.74.74,0,0,1-.21,1.42,15.51,15.51,0,0,1,5.12,1.49,9.94,9.94,0,0,1,2.37,1.53,5.76,5.76,0,0,1,1.47,2h-.7c1.29,1.78,3.86-.8,4.48,1.61l-.47-.06c1.59,1.77,3.45,3.41,5.08,5.09a19.38,19.38,0,0,1,2.07,2.67,7.7,7.7,0,0,1,1,3c1-.41,1.62.61,2.14,1.6s1.14,1.83,2.45,1.1a11.2,11.2,0,0,1-.05,3,10.26,10.26,0,0,0,.55,3.38c.35.9,2.33.33,3.22,1.27l-1.37.76,2.21.66c-.45.51-.91,1-1.39,1.45l.67.59a1.39,1.39,0,0,1,.83-1c1.37,1.4-.58,2.26-1.37,2.1a1.91,1.91,0,0,1,.71,1.59c-.43-.47-.52-.72-.81-1,.56.61.15.46-.21.23s-.68-.52-.52.42c.37.1.64.69.83.94a2.87,2.87,0,0,0-1.86.71,12.87,12.87,0,0,0-2,1.89l-.4-1a38.56,38.56,0,0,0-3.88,3.13,34.89,34.89,0,0,1-4.18,3.27,1.36,1.36,0,0,1,1.33,2.18l-1.25-1.15c0,1.24,1.27-.1.76,1.74-1.27.57-1.78-1.11-1.41-2l-1.1,1.34c-.34-.37-.15-.79-.39-1.38,0,1.22-3.22.06-3.18,2l-.32-.38c-3.11,1.75-4.3,3-6.9,4.35.57,1.31-.61,1.52-.93,2.95-1.08.28-2.31.34-3.54.53a15.31,15.31,0,0,0-3.69.95c-1.46,1.34-.07,1.33-.54,2.42-.59-1.14-3-.16-2-1.49-1.45.62-2.38,1-3.37,1.54a43.75,43.75,0,0,0-3.85,2.23c.57.39,1.11.45,1,1a1.3,1.3,0,0,1-1.83-.69l.15-.18a6.09,6.09,0,0,1-3.39,1.21,24.49,24.49,0,0,1-3.9-.19c-2.61-.32-5-.58-6.52,1l.17-.16c-1.13.66-2.27,1.36-3.44,2-1.72,0,.88-1.1-.49-1.73a7,7,0,0,1-4.8,1.43,7.43,7.43,0,0,0-3.93.37,3.88,3.88,0,0,0-3.23-2.36,2.35,2.35,0,0,1-1.32-.61,1.08,1.08,0,0,1-.06-1.43l-.74.52c-1,0,.21-.68.32-1-.64.28-.58.74-1.13.68a4.25,4.25,0,0,1-.8-3.14,5.4,5.4,0,0,1,.47-1.65,10.75,10.75,0,0,1,1-1.61c1.71-2.21,4.49-4.08,7.39-6.17,2.14-1.57-2-4.53,2.19-5.2l.29,1.94a16.34,16.34,0,0,1,2.83-3.45,41.69,41.69,0,0,1,3.41-2.81,31.23,31.23,0,0,0,6.53-5.75c-.05.51.23.92-.21,1.24,1.67.3,3.61-2.46,3.07-3.31.79-.39.68.63,1.41.75,1.38-.05,1.61-2.94,2.81-2.27.19.11-.07.51-.2.71.33-.92,3.11-1.78,1.74-2.58,2.11-.57,3.12-2.6,5-2.75.19-1.9,3.49-1,2.75-3.18.94,2.08,4.08,0,4.81-1.56-.1.81,1.34.17,1.29,1.25,1.33-.65,2.39-1.61,1.68-2.58,1.81.7,2.85-.31,3.82-1.22s1.89-1.59,3.21-.21a45.63,45.63,0,0,1,11.24-6.07c.18,1.13-.87,1.44-1.89,1.75s-2,.71-1.56,1.83c3.32-1.89,5.1-4.27,8.89-4.37,1,.14-.39,1.08-.63,1.53a9.58,9.58,0,0,1,1.31-.51c.45-.11.9-.21,1.34-.28.89-.16,1.78-.25,2.65-.35a15.77,15.77,0,0,0,5.08-1c0,.21-.35.45-.68.63.65-.09,1.53.31,1.43-.73l-.64.29c-1.14-1.49,2.58-3.2,2.74-4-.58,1.51.28,1.66,1,2s1.41.72.48,2.57a1.37,1.37,0,0,0,.91-1.35c.65.22.83.64.15,1.4,2.36-.46,1.6-1.67,3.75-1.44,0,.5-.49.65-.75,1.23,1.13-.88,2.34-1.78,4.12-1.16-.14.29,0,.7-.52.63a14.62,14.62,0,0,0,4.42-.62,6.9,6.9,0,0,1,4.54.51c-1.49,1.88,1,1,.66,2.89l1.9-.08-.46-1.07c1.54.4,3.31-.41,4.45.63l-1.39.35c1,.22,2,.39,3,.66-.43-.46-.91-.83-1.37-1.26,1.9-.36.66-2.36,2.55-1-.49,0,1.55.67,1.9,2h0a2.62,2.62,0,0,1,2.93.54c0,.69-1.17,1.76-1.17,2.22.7-.53,1.6-.21,2.53.13a3,3,0,0,0,2.68.34,2.11,2.11,0,0,0-1,1.23l1.25-.75c.42.74.4,1-.14,1.56,1.69,1.47.77-2.43,2.36,0-.23,0-.26.18-.72.08a15.63,15.63,0,0,0,3.17,2.27,17.17,17.17,0,0,1,1.56,1.07,8.37,8.37,0,0,1,.7.62,6.28,6.28,0,0,1,.53.78c-.44.93-.88.63-1.28.32s-.83-.58-1.08.27c.69.49,1.37,1,2.14,1.49s1.58.94,2.3,1.47a9.11,9.11,0,0,1,3.34,3.91l-.11-.64c1.28-.47,1.33.28,1.19,1.2s-.44,2,.42,2.52c-.32-.32-1.58,0-1.26,0a10.71,10.71,0,0,0,1,3,11.47,11.47,0,0,1,1.09,4q-.3-.27-.6-.51c-.77,1-1.16,2.88-2.09,3.92.42.67-.08,1.31,1,1.4a6.17,6.17,0,0,0-3,1.88,14.92,14.92,0,0,0-1.64,2.75c-1,2-2.14,3.95-4.82,4.11.38-.34.5-1.25.2-1-.75.95-1.52,1.89-2.3,2.83,1,.71.81.24,2,.43a3.08,3.08,0,0,1-1,2.5c.77-1.65-1.23-1.43-2.18-1.49.32.2.39.67.66.91-2.8-.4,1.26,2-1.66,2.6l-.29-.57c-.56.87-.75,2.07-1.69,2.6-1.19-.78.42-1.15-.23-2.06-1.11,1-.67,3.84-2.57,3.64.25-.69,1-1.27,1.21-2-2.14-.31-2,.11-3,.61l.11,0-2.43,1.06.77-.08c.81,3.91-2.55,3-2.93,6.38.4-3.27-.53-1.23-1.41-2.5-.77.12-1.84.43-1.92-.08-.07,1.74-2.21.67-2.21,3.21-.41-.3-1,.89-1.66-.19-.88,1.44.88.33,1.21.88-.28,1.48-1.65,2.14-3.06,3.05s-2.87,2.09-3,4.27c-1.07,3.12,0,4.5-.57,7.28-.57.22-.88-.16-1-.6a3.4,3.4,0,0,1-.17-.95,4.32,4.32,0,0,0-1.9,3.73c-.28-.44-.73-.31-1.42-.09-.36,1.19,1.35,1.39.15,2.63a6,6,0,0,1-1.47-1.83,13.72,13.72,0,0,0,.15,2.38c.14.82.25,1.6.32,2.37-.46.1-.74-.19-.95-.6s-.31-.93-.5-1.27a15.76,15.76,0,0,0,0,3.07,2.82,2.82,0,0,0,1.15,2.2l.62-1c0,.59-1.21.16-1.39-.34-.84-1.65.87-2,1.35-1.94l.1,1.08c1.53-.25,1.59-1.2,1.47-2.41-.08-.61-.18-1.27-.22-1.91a3.37,3.37,0,0,1,.24-1.72c.55.54,1.09,1,1.65,1.55-.3-.82-.57-1.68-.83-2.56.7-.18,1.87.06,1.77,1.06,1.52-.8-.16-1.45,1.42-2,.22,0,.28.06.3.21l.09-1.48c.26.45,1.4.54.75,1.1a3.23,3.23,0,0,0,1.36-2.56c.14-.83.23-1.5,1.14-1.41v.24c.67-1.54.43-1.84,0-2.14s-1.07-.6-1-2.19c1.38.34,2.7.69,4,1.11l-1-1.26c.27-.22.81-.66,1.19-.15.07-1.67-.66-.29-.89-1.52,2.15-.29,2.8-3.85,4.8-2.33-.37-1.27-1.79.47-1.06-1.38,2.19,1.57,1.21-1.77,3.2-1.91.56,1.34-1,1.76,1,1.66-.86-2.36,2.56-1.59,3.26-2.75-1.14-1.45,1.67-2.41,3-4.26.28.56,3.86-1.82,5.89-2.61l.15.28c-.87-1.7,1-2.78,2-4.07a2.08,2.08,0,0,1,.41,2.34l1.12-1a2.38,2.38,0,0,1,.62-2l.63,1.3c1.46-1.37,1.91-3.82,4.42-5-.84-1-3.93-1.21-2.71-3.65.57.43,1.5,1.2,1.21,1.9.1-.23.16-1,.69-1.11l.1,1.6c1.19-.48-.27-1.12.44-1.72.71.7,1,0,1.49.62-.1.24-.87.32-.84.86a4.93,4.93,0,0,1,3.07-1.1c-.5-.29-1-.88-.62-1.57,1.23-1.7,1.4.19,2.57-.53-.25-.82,1.13-1.63-.12-2.46.34-.52,1-.28,1.47-.3a28.33,28.33,0,0,1,.85-3c.25-1.07.2-1.85-.76-1.49l-.2.23c0-.06,0-.12,0-.19h0a24.51,24.51,0,0,1,.76-5.58,9.15,9.15,0,0,0-.46-5.57l.48-.14c-1.15-1.93-2.13-4.35-3.83-5-.29-.51,0-1.7.66-1.81-1.22-1.14-1.74-.92-2.53-3.23,1.7.7.26-.94,1.53.9a23.37,23.37,0,0,0-1-2.23,3.61,3.61,0,0,0-2.24-1.29c1.45-.31.09-2.33-.94-2.71.17.54.29,1.12.41,1.69-.44-.34-.82-.69-1.2-1s-.7-.71-1-1.07l1.53-.91a4.86,4.86,0,0,0-2.16-2.34,15.57,15.57,0,0,0-2.87-1,13.1,13.1,0,0,1-1.34-.4,5.14,5.14,0,0,1-1.2-.5,3.32,3.32,0,0,1-1.53-2.28c-1.55.44,1.56,1.92,0,2.58a7.34,7.34,0,0,1-1.7-2.62,6.66,6.66,0,0,0-1-1.93c-2-2.1-3.32,1.13-5.58-.52a1.83,1.83,0,0,1-2.26,2.07c-1.64-.81-1.33-3.13,0-3.19.46.1.6.35.51.53.66,0,1.51.1,1-.81l-.45.46c-.68-.89-3.25-1.69-2.34-2.43-1.59.07-.9.74,0,1.39-2.08-1.68-3.69-1.16-6-2.41.31.43.49,1.21.11,1.1-3.44-1.58-1.85.76-4.31.5-1.21-1.18.91-2.09-1.7-1.77-1.43-.84-.08-1.63.64-2a3.92,3.92,0,0,1-3.22-.45c-.46-.25-.88-.54-1.27-.79a5,5,0,0,0-1.09-.51l1.3-.36a5.17,5.17,0,0,1-2,.09l.59,1.26c-.7-.27-1.32-.33-1.26-.83-.81.72.38,2.05-1.16,3-.9-.73-2.89.47-3.14-1.13,3,.66-.26-1.64,2.32-1.76a3.11,3.11,0,0,1-1.83-.12c-.1-.18.12-.32.32-.41-2.88-1.52-1.42,1.73-4.39,1.65a1.13,1.13,0,0,0-1.19-1.5c1.23,0,.58,1.49-.5,2.2-1.91-.66-2,.54-3,.52.38.08.76.18,1.14.28-.35.9-1.28.84-2.55,1.22-.16-.69,1.14-.57.66-.84-1.32,1.7-3.41-1.46-5.34-.1-1-.49-.3-1.67-1.19-2-2.14,1.43-2.7-.87-5,.52.92,1.06,1,.75-.48,2.21,1.24-.51,2.5-1,3.77-1.53-.75.71-1.49,1.45-2.21,2.18,1.16-.19,2.34-1.22,3.08-1.08-1,1.13-1,.82-.26,1.74-1.88-1.55-2.94,1.59-5,.71l-.56-2.95c-1.53-.33-2.7.34-3.92,1.09a9,9,0,0,1-4.35,1.83l1.28.18c-.14,1.27-2.12.76-3.09,1.61-.2-1-1-1.1-1.69-1.54.29.68-2.6.79-2.21,2.81l-2-.67a3.28,3.28,0,0,0-2.49,2.25c-.47,1-.91,2-2.25,2.39.34-1.32-1.13-1.47.31-2.92-.88.35-1.74.52-1.47,1.17-.76-.34-1.8,2.32-3,1.82-.17.56.16,1.55-.8,2a.7.7,0,0,1-.22-.45c.22.45-1.15,1.34.16,1.93-2-.77-3.75.2-5.39,1.25s-3.19,2.14-5,1.62c-1.58,1.32-3.46,2.91-5,4-.06-.32-.26-.42.08-.53-2.62.63.29,3.26-2.65,4-2.12-.51.76-1.59-.34-1.58-2.2-2.49-2.6,2.35-5.28,1.92l.26-.44c-1.86,0-2.21,3.14-4.24,4.43a.75.75,0,0,0-.29-.41c-.31,2.33-2.39,4.7-3.88,6.5-.27-1.46.38-1.18-.79-1.93-.68.8,1.56,1.44.2,3-1-.12-2.5.35-3.55-.6l1.46-1.3c-1.93-.76-1.92,1.65-2.91,2.09l-.41-.69c-2.17,2.21-.9,3.71-3.38,5.91l.66.18c.15,2.66-1.88.31-2,2.68l-1.89-.88c-.23.64-.56,1.82-.88,3.1s-.61,2.66-.94,3.73a6.16,6.16,0,0,1-.23-3.21c.17-1.15.5-2.31.69-3.25a12.09,12.09,0,0,0-1.51,2.41,3.43,3.43,0,0,0-.41,2.54c.08-.57,0-1.41.55-1.7a13.15,13.15,0,0,1-.45,6.68c-1.8-.74-2.58,1-2.77,3.26s.27,4.72-.76,6.3a52.25,52.25,0,0,0,5,7.27,14.69,14.69,0,0,0,8.16,4.74c-.76-1.73-.28-1.64.35-1.53s1.49.19,1.54-1.37c1.25,0,1.7,0,1.8.24a33.81,33.81,0,0,0,3.7,1.88c.93.87-1.15.74-1,1.42,2.8.13,1.24,1.28,3.14,2-.45-1.08.82-1.66,2.31-1.41l-2.22-1.21a2.62,2.62,0,0,1,3.35.1,2.53,2.53,0,0,0,3.31,0l-1,1.12c1.71-.79,6.66-1.05,7.87-3.88.38.29,1,1,.23,1.41,2.16-.22,4.35-1.45,6.42-2.48s4-2,5.81-1.77l-.09.82c.7-.45.9-1.78,2.09-1.35,0,.31-.08.82.29.75.33-.36,1.61-1.91,2.74-1.86l-.58,1.11a7.14,7.14,0,0,0,4.67-2.47,20,20,0,0,1,3.63-3.49c.85,2.07,4.2,1.44,5.85,1l.08.32c4.61-1.86,6.66-5.41,10-8.44a5.89,5.89,0,0,0,3-.4,20.17,20.17,0,0,0,3.26-1.67c1.14-.66,2.24-1.45,3.37-2.13a24.25,24.25,0,0,1,3.37-1.76c-.8.11-1-1.45-.48-2.12,1.12-.27,1.33-3,2.52-1.37l-.34.23c1.92,1,3.54-1,5.12-2.87-.6-.67-1.22-1.33-1.85-2a5.27,5.27,0,0,0,2.33-1.58,7.52,7.52,0,0,0,1.56-2.73,10.17,10.17,0,0,0-.2-6.45,13.87,13.87,0,0,0-.55-1.41c-.18-.41-.36-.77-.54-1.12-.35-.69-.68-1.3-.92-1.85a3.41,3.41,0,0,1-.19-3c-1.14-.64-1.78-1.86-2.92-2.43l1.26-.7c-.68-1.39-1.19-2.45-1.83-3.53a27,27,0,0,0-2.76-3.55h1.28c-1.2-1.85-4.94.4-6.18-1L1687,239c-1.16-1.43-2.13-3.05-3.21-4.59a8.43,8.43,0,0,0-4.47-3.33c.26-.2.77-.58,1.26-.22-1.22-1.23-4.12-5.62-5.54-2.9.6-.75-.12-1.39-1.24-1.89a17.53,17.53,0,0,0-3.67-1.1l1.09-1c-2.43.49-2.73.86-4.88,0-.35-.45.23-1.2.64-.51-1.11-1.6-1.92.36-3.33-1.45l1.16-.32c-1.51-1.1-1.63-.64-3-.24-1.29-.09-2.83-2-2.46-3.31-.59.54-2,1-2.77.18.09-.5.59-.58.83-.62a5.35,5.35,0,0,0-3.45-1.44c-1.09-.11-2-.2-2.71-1.28a1.11,1.11,0,0,0,0-.92,18.82,18.82,0,0,1,3.79,2c.6-1.18-1.15-2.27,1.1-3.18-1,.08-2.31.33-3.59.38a5,5,0,0,1-3.29-.72,1.6,1.6,0,0,1-.07-.52l.24-.06a1.55,1.55,0,0,0-1.23-.26,5,5,0,0,0-1.38-1c.09-.55-.4-.92-1-1.16s-1.41-.39-1.89-.58c-.39,1.38-1.55.74-.78,2.25-.11-.15.24-.1.88.06a1.42,1.42,0,0,0,.46,0l-.11.09a20.91,20.91,0,0,1,2.35.79c-1,.38-2,.64-2.72-.44-.79.7-1.62,1.41-2.06,1.73a10.45,10.45,0,0,0-1.62-3.13,4.85,4.85,0,0,1-1.2-2.28c-3.16-.15-7.19-1.34-9.58.9-.9.18-.81-.93-1-1.4.54-.18,1.12,0,1.46-.36-1.83.36-5.08-.69-5.77,1.16-2-1.14,1.45-1.54-1.53-1.65l.48-.51c-2.72-1.94-5.31-.89-7.81,0s-5,1.78-8.2-.09c.45.23.67.34.76.66a18.55,18.55,0,0,0-2.77-.43c-.93,0-1.87,0-2.8,0a46.27,46.27,0,0,0-5.61.72c-3.73.62-7.36,1.33-11.19.68-2.14-.12-2.12,1.13-3.13,2.28l-.78-1.39c-.57.74-1.14,1.44-1.67,2.21-1.3,1-2.79.46-4.39.07s-3.27-.47-4.72,1.28l.81.83c-1.38.23-3.87,2.09-4.09.88-.07.23,0,1.16-.73.85l-.34-.73c-.89.83-1.74,1.74-2.59,2.59-1.32.26-1.56-.51-1.91-1.16s-.84-1.25-2.64-.43c-1.2.94-2.65,3.92-1.91,4.15a1.63,1.63,0,0,1,2,.49l-1,.94c.87,2.21,1.22,4.74,4.6,4.91l1.21-2.21,1.08.75c-.51.25-1,.55-1.51.82,1.34.54,1.47-.6,1.85-1.46a2,2,0,0,0,1.3.81q.46-1.42,1-2.88c.58.76-.11,2,1.31,2,.48-1.35-1.63-1.57-.43-2.81,1.34.64,1.37,1.56,2.14.3a1,1,0,0,1-.06,1.37c.7-1,2.42-1.26,2.52-2.61,1.41.94,3.24-1.41,3.8.76a4.85,4.85,0,0,1,2.14-2.55c-1,3.05,3.47-.8,3.73,2.14.68-2.61,4.21-2.09,6.22-3.74-.1.21-.28.63-.49.55,1.29,0,1.77.62,2.64.93-.15-2,1.77-2.71,2.71-4.07,1.8,1.7-.67,2.44.07,4.21-.29-1.59,2.48-2,1.81-3.22,1.33,1.08,1.1.48,1.87,2.07,0-2.49,1.07-.51,1.94-2.12,1.82,1.07.6,2.28,2.45,1.43C1603.15,216.72,1601.53,217.67,1601.53,217.67Zm44.79,3.18v0l-.91-.28Zm3.53,1.56a13.92,13.92,0,0,0-1.5-.75c.08-.5.42-.9.77-.72C1648.79,221.15,1649.51,221.8,1649.85,222.41Zm-4.1-12.45c.7,0,.81.4.79.7a7.62,7.62,0,0,0-1.15-.25,1.85,1.85,0,0,0-.14.14A2.13,2.13,0,0,1,1645.75,210Z"/><path class="cls-4" d="M1644,211.33a.92.92,0,0,1-.29,0,3.52,3.52,0,0,0,.27.43l.37-.35Z"/><path class="cls-4" d="M1750.45,271.09l.06-.08a.77.77,0,0,1-.26.12A.88.88,0,0,1,1750.45,271.09Z"/><polygon class="cls-4" points="1685.95 258.85 1686.26 258.68 1685.83 258.55 1685.95 258.85"/><path class="cls-4" d="M1732.43,284.83a.69.69,0,0,0-.45-.09A.87.87,0,0,0,1732.43,284.83Z"/><path class="cls-4" d="M1724.83,290.6l-1.38.47A7.39,7.39,0,0,0,1724.83,290.6Z"/><path class="cls-4" d="M1718.65,294.86a2.86,2.86,0,0,0,.29.56h0Z"/><path class="cls-4" d="M1691.57,237.93a.77.77,0,0,0-.27.08C1690.7,238.33,1691.11,238.19,1691.57,237.93Z"/><path class="cls-4" d="M1724.42,240.32a6.5,6.5,0,0,1-1.26.21C1723.66,240.86,1724.07,241.06,1724.42,240.32Z"/><path class="cls-4" d="M1657.12,248.77s0,0,0,0l-.2.1Z"/><path class="cls-4" d="M1721.75,239.91a1.69,1.69,0,0,0,1.41.62A2.65,2.65,0,0,0,1721.75,239.91Z"/><path class="cls-4" d="M1699.58,323.08l-.12.4a.51.51,0,0,1,.22.08Z"/><path class="cls-4" d="M1699.68,323.56l.11.48C1699.82,323.83,1699.83,323.65,1699.68,323.56Z"/><path class="cls-4" d="M1700,325c-.09-.32-.16-.65-.24-1C1699.75,324.37,1699.64,324.78,1700,325Z"/><path class="cls-4" d="M1703.68,312.86l-.41-.35A1.07,1.07,0,0,0,1703.68,312.86Z"/><path class="cls-4" d="M1705.13,310c-.51.57-1.93,1.14-2.18,2.27l.32.28C1702.84,311.68,1705.49,311,1705.13,310Z"/><path class="cls-4" d="M1717.92,304.12c-.66.46-1.31.95-2,1.44.69.07,1.59.18,1,1.06C1720.16,305.59,1715.59,306.21,1717.92,304.12Z"/><path class="cls-4" d="M1723.94,299.62c-.82,1.05.53.6.68.88C1724.92,299.58,1725,299.36,1723.94,299.62Z"/><path class="cls-4" d="M1747.94,252.2l1.16-.6C1748.29,250.73,1748.68,251.87,1747.94,252.2Z"/><polygon class="cls-4" points="1735.84 248.88 1736 250.09 1737.12 249.5 1735.84 248.88"/><polygon class="cls-4" points="1736.2 237.64 1736.73 237.75 1734.86 237.16 1736.2 237.64"/><path class="cls-4" d="M1641.81,242.66l1.08,1.22C1643.35,243.27,1642.6,241.63,1641.81,242.66Z"/><path class="cls-4" d="M1609.63,268.56a1.6,1.6,0,0,0-2.1,1.41C1608.29,269.3,1609.42,269.05,1609.63,268.56Z"/><path class="cls-4" d="M1698.84,268.58c-.06.5-.13,1-.24,1.53a15.36,15.36,0,0,0,.84-2.65C1699.26,267.85,1699.05,268.22,1698.84,268.58Z"/><path class="cls-5" d="M329.65,233.79c.4-.24.48-1-.38-1.16l-1,1.09Z"/><path class="cls-5" d="M325,229.59c-1.16.28-2.68.92-2.5,2.31,1.42-.85,1.47-.25,3-1.35.86.14,1.28.9,1,1.32.4-.22,1.18.71,1.88,0a3.22,3.22,0,0,0-3.73-1.51C324.41,230,324.82,229.8,325,229.59Z"/><path class="cls-5" d="M343.81,230l0-.54A1.21,1.21,0,0,0,343.81,230Z"/><path class="cls-5" d="M324.69,268.57c.34-.17.43-.35.4-.47C324.8,268.31,324.56,268.49,324.69,268.57Z"/><path class="cls-5" d="M316.18,270l.51-.05C316.47,269.84,316.26,269.82,316.18,270Z"/><path class="cls-5" d="M343.81,230c0,.46,0,.92-.08,1.38C344.19,231.33,343.9,230.6,343.81,230Z"/><path class="cls-5" d="M312.75,227.21a2,2,0,0,0,.9.18,6,6,0,0,1-.73-.32Z"/><path class="cls-5" d="M332.37,212l-.28-.27a3.33,3.33,0,0,0-.61.17Z"/><path class="cls-5" d="M319,205.62c.31,0,.5-1.05.68-1.54a1.36,1.36,0,0,1-.79.73A2.63,2.63,0,0,0,319,205.62Z"/><path class="cls-5" d="M312.58,221.05l.43.21C312.89,221.22,312.72,221.1,312.58,221.05Z"/><path class="cls-5" d="M339,221.47a.93.93,0,0,0-.29.32A.75.75,0,0,0,339,221.47Z"/><path class="cls-5" d="M73.42,323a1.23,1.23,0,0,0,0-.2C73.3,323,73.28,323,73.42,323Z"/><path class="cls-5" d="M52.77,316.63h.29a5.24,5.24,0,0,0,.17-.62Z"/><path class="cls-5" d="M300.68,272.17h.07C301.13,272,300.91,272.05,300.68,272.17Z"/><path class="cls-5" d="M242.8,278.48c.85-.25.73.42.67,1.06s-.08,1.21,1.08.66C244.1,280.05,244.46,277.46,242.8,278.48Z"/><path class="cls-5" d="M312.43,226.79a4.45,4.45,0,0,1-.66-.48A2,2,0,0,0,312.43,226.79Z"/><path class="cls-5" d="M244.55,280.2h0l.24-.13Z"/><path class="cls-5" d="M265,275a1.29,1.29,0,0,0,.33.52C265.32,275.36,265.24,275.21,265,275Z"/><path class="cls-5" d="M291.93,275.81l-.69-.07A2.26,2.26,0,0,0,291.93,275.81Z"/><path class="cls-5" d="M250.94,275c-.34-.15-.43-.32-.94-.25a.61.61,0,0,0,.12.16A.7.7,0,0,1,250.94,275Z"/><path class="cls-5" d="M237.56,271.08a2.08,2.08,0,0,0,.12.32l.41.13Z"/><path class="cls-5" d="M117.16,303.54a3.05,3.05,0,0,1-1.23-.27C116.65,303.71,115.07,305.5,117.16,303.54Z"/><path class="cls-5" d="M313.12,226.68a.64.64,0,0,1-.69.11l.49.28C313.06,227,313.16,226.83,313.12,226.68Z"/><path class="cls-5" d="M248.82,283.78c-.82-.2-1.64-.41-2.47-.64A14.51,14.51,0,0,0,248.82,283.78Z"/><path class="cls-5" d="M150.6,305.46H150A.75.75,0,0,0,150.6,305.46Z"/><path class="cls-5" d="M238.81,281.31a4.37,4.37,0,0,0-1.16-1.25,1,1,0,0,0-.39.17C237.77,280.6,238.29,281,238.81,281.31Z"/><path class="cls-5" d="M115.91,303.26h0Z"/><path class="cls-5" d="M103.59,315c2.19-1.14.31-1.83.34-2.83,2.26-1.8,1.7.29,2.95.45a8.55,8.55,0,0,0,1.55-2.18,4.79,4.79,0,0,1,1.36-1.73c.22.15.49.07.41.5.9-2,4.56-3.43,5.26-6a.88.88,0,0,1,.45.08,3.75,3.75,0,0,1-1.6-1.32c.76-.73.79-2,1.75-1.55-.49.41-.27.74-.28,1.17l.52-1.05c1.71.35-.78,1.37-.08,2.14a29.83,29.83,0,0,0,1.81-3,7.36,7.36,0,0,1,1.85-2.36c.63.33.05,1.13-.38,1.75s-.77,1,.47.64l-2.22,1.48c2.94.14-1.25,1,1.69,1.39a9.54,9.54,0,0,0,2.51-2.8,14.33,14.33,0,0,1,2.34-2.94c-.09-1.09-1-.52-1.14-1.6a4.37,4.37,0,0,1,1.58-2.21,4.14,4.14,0,0,1,1.71-.64,3.49,3.49,0,0,0,1.53-.53,2.59,2.59,0,0,0,.8-1.94c-.28-1.3-1.66-2.44.34-4.29.34.49.67,1,1,1.49a3,3,0,0,0,.33-2.86,1.92,1.92,0,0,1-.07-1.09,6.69,6.69,0,0,1,.9-1.9c.44.85-.54,3-.15,2.55,1.08-1,1-1.59.76-2.07a2.33,2.33,0,0,1-.44-1.87l1.44-.12a17.22,17.22,0,0,0-.4-6.65,16.07,16.07,0,0,0-3.4-6.69c.5,0,1.5.53,1-.82-.35-.33-.65-.69-1-1l-1.16-.9a14.79,14.79,0,0,0-1.27-.77,8,8,0,0,0-1.32-.63,13,13,0,0,0-1.35-.49l-1.36-.34a10.52,10.52,0,0,0-1.42-.23,8.87,8.87,0,0,0-1.46-.07,15,15,0,0,0-10.24,4.2,13.52,13.52,0,0,0-.52,2.83c-.31.48-1,.75-.91,0-.8,1.15-.62,1.28-.29,1.26s.84-.11.81.53c-.41,1.38-1.28,1.7-1.33.64a14.8,14.8,0,0,0,.16,4.44,17.82,17.82,0,0,0,1.54,4.3c1.33,2.65,3,4.67,3.81,6.5l-.77-.31a3.44,3.44,0,0,0,2.81,1.57,2.59,2.59,0,0,1,2.39,1.48l-.51-.15c4.38,4.08,10.3,6.38,13.51,9.86a1.41,1.41,0,0,1,1.41,0,13.36,13.36,0,0,1,1.76.85c1.22.65,2.42,1.19,3,.15a25.19,25.19,0,0,1,2.3,2.3,11.71,11.71,0,0,0,3.46,2.3c1.16.48,2.22-.88,3.73-.67l-.31,1.21c.79-.23,1.58-.5,2.35-.75l.69,1.72,1.47,0c-.54-.22-1-.85-.87-1.18a7.54,7.54,0,0,1,3.39,1.1c1,.58,1.68,1.25,1.65,1.57,1.8,0,3.6-.07,5.38-.14-.19.48-1.09.51-1.83.72,3-.82.31,1.39,3,.63-.3-.34.29-.71.38-1,1.17.9,4.09,1.27,6.27,1.14l-.49.83c3.9.54,8.27.17,12.64.16-1.57-.4-1.19-1.9.07-2l.51,1.32c.82-.82-1.32-.5.36-1.5,1.6.15,1.1,1.5.16,1.93l2-.46c.12.4-.34.61-.45,1.11.79-.81,3.48,1.21,4.6-.25l.13.39c4.39-.23,6.33-.84,9.86-1.3-.06-1.15,1.35-1,2.28-2.08,1.31,0,2.72.13,4.19.16a19.89,19.89,0,0,0,4.55-.4c2.06-1,.44-1.08,1.27-2,.37,1,3.44.23,2,1.3a38.29,38.29,0,0,0,9-3.56c-.63-.25-1.24-.27-1.06-.69.78-.39,2-.21,2.05.31l-.19.18c2.31-1.59,5.45-2,8.5-2.6s6-1.5,7.36-3.56l-.16.23c1.12-1.16,2.24-2.24,3.27-3.44,1.83-1.11-.59,1.4,1.06,1a15.45,15.45,0,0,1,2.35-2.62,21.58,21.58,0,0,1,2.28-1.91,15.1,15.1,0,0,0,2.14-1.86,13,13,0,0,0,1-1.11,5.71,5.71,0,0,0,.79-1.35,5.58,5.58,0,0,0,3.1-1.82,21.12,21.12,0,0,0,2.42-3.83l1.87-4.44a21.15,21.15,0,0,1,1.92-3.93l-.77.11c-.4-1.37.74-1.39,1.06-2.32-.58,0-.88,1.25-1.13.41a35.07,35.07,0,0,0-.08-8.18,23,23,0,0,0-2.81-8.35,17.47,17.47,0,0,0-1.29-2,20.69,20.69,0,0,0-1.54-1.81,22.37,22.37,0,0,0-3.52-3,21.88,21.88,0,0,0-8.39-3.48,3.41,3.41,0,0,0-3.69,1.4,3.2,3.2,0,0,1-1.37.91,3.69,3.69,0,0,1-1.16.17,11.8,11.8,0,0,1-1.78,0c.39-.55.82-1.11,1.29-1.66a24.51,24.51,0,0,0-6.43,3.35,17.33,17.33,0,0,0-4.94,5.58,15.21,15.21,0,0,0-1.87,7,13.87,13.87,0,0,0,1.45,6.48c-.44-.39-.87-.28-1.06-1.13a5.87,5.87,0,0,0,1.15,4c.87,1.27,1.91,2.08,2.26,1.85.7,1.14-.41.67-.24,1.6a3,3,0,0,0,1,1.24,6.46,6.46,0,0,0,1.36.91c.89.51,1.67.88,1.72,1.53,0,.23-.57-.05-.86-.2a20.13,20.13,0,0,1,2.43,1.55c.85.55,1.55.77,1.41,0a7.74,7.74,0,0,0,1.72,1.2,14.63,14.63,0,0,0,1.8.78,12,12,0,0,1,3.18,1.49c1.72-.66,4.19,2,5.09.39-.34.86.69,1.53,2,1.86a7.82,7.82,0,0,0,3.81.06c-.63.46,1.28.81.53,1.46,1.83.29,3.53.17,3.34-.81,1.5,1.29,3.22,1.11,4.74.88s2.82-.35,3.63,1.12l15.13-1.53c-.08.92-1.4,1-2.68,1s-2.51.08-2.43,1c4.61-.66,7.17-2.3,11.66-2.06,1.18.18-.61.84-1,1.17,4.49-1,8.81-.45,12.7-1.93,0,.17-.4.4-.79.59.79-.14,1.87,0,1.68-.79l-.74.34c-1.4-1,2.77-2.95,2.79-3.6-.48,1.27.52,1.3,1.43,1.38s1.75.25.94,1.91c.49-.24,1.07-.74.86-1.27.79,0,1.09.31.42,1.07,2.74-.92,1.57-1.63,4.1-2.11.07.4-.41.65-.58,1.17a6.82,6.82,0,0,1,4.43-2.2c-.07.27.24.52-.39.66a19.11,19.11,0,0,0,4.7-2.17,12.8,12.8,0,0,1,5-1.75c-.65,2,1.5.16,2.16,1.53.67-.36,1.33-.75,2-1.12l-1.08-.42c1.87-.58,3.1-2.21,4.83-2.36-.37.38-.75.74-1.13,1.11,1.11-.52,2.21-1.07,3.3-1.64-.71.11-1.42.18-2.13.26,1.52-1.47-.91-1.68,1.6-2.29-.41.36,1.74-.75,3-.41h0a4.76,4.76,0,0,1,2.69-2.15c.57.23.58,1.6,1,1.76.1-.81,1.06-1.46,2-2.23s1.87-1.61,1.93-2.5a1.2,1.2,0,0,0,.56,1.18c0-.44,0-.89,0-1.32.91-.34,1.13-.32,1.43.26,2.22-1.82-1.93-.78,1-2.5-.13.25.08.28-.2.77a12.28,12.28,0,0,0,3.1-3.81c.79-1.41,1.45-2.81,2.31-4.11.89-.1.69.56.45,1.21s-.57,1.24.27,1.06a20.68,20.68,0,0,0,1.67-6.95c.21-2.35.23-4.59.54-6.69l-.22.78c-1.06-.39-.72-1.11-.29-2.07s1-2.15.44-3.19c.18.51,1.22.65,1,.51.24-2.95-.9-6-2.54-10l.66.4c.15-1.78-.85-4.41-1.26-6.23-.71-.33-1-1.34-1.52-.46.47-3.19-1.19-5.58-2.95-7.56s-3.66-3.63-4.32-6.4c.41.45,1.3.81,1,.43A40.61,40.61,0,0,0,336,208c-.42.91,0,.8.1,1.94a4.5,4.5,0,0,1-2.64-1.21c1.78.82,1.06-1.1.72-2.08-.08.31-.51.36-.64.63-.34-1.36-.73-1.05-1.21-.75s-1.06.63-2-.67l.41-.33c-1.1-.41-2.29-.37-3.27-1,0-.59.34-.58.72-.5s.81.24,1.06-.13a5.84,5.84,0,0,0-2.68-.34,2.41,2.41,0,0,1-2.25-.8,25.5,25.5,0,0,1,2.57.34c-1.09-1.85-1.47-1.62-2.66-2.23l.12.07a22.84,22.84,0,0,0-3-1.28l.75.49a5,5,0,0,1-1.92,1,3.89,3.89,0,0,1-.89.12,9.1,9.1,0,0,1-.91,0,4.49,4.49,0,0,0-3.78,1.38c1.1-1.23,1.28-1.46,1-1.61s-.87-.13-.9-.76c-.9-.14-2.35,0-2.11-.46a3.8,3.8,0,0,1-2.08,1.2,4.28,4.28,0,0,0-1.17.68,3.35,3.35,0,0,0-.89,1.5c-.39-.24-1.29,1.37-1.8.43-.64,1.06-.35,1.06,0,.83s1-.57,1.13-.34c-.6,1.72-1.87,3.14-2.71,5.21a6.86,6.86,0,0,0,.37,6.63,7.07,7.07,0,0,0,.66,1.17,4.84,4.84,0,0,0,.7.88,7,7,0,0,0,.69.66c.24.2.48.36.71.53.93.65,1.88,1.14,3.11,2,.13.58-.27.69-.73.62a3.1,3.1,0,0,1-.92-.33,5.6,5.6,0,0,0,3.42,3.27c-.47.06-.4.52-.23,1.17,1.18.71,1.54-.66,2.68.76a4.67,4.67,0,0,1-2,.62,33.85,33.85,0,0,0,4.86,1.07c.08.81-1.33.53-2.05.64,1.78.63,4.54,1.44,5.45.62l-.89-.79c.61.2-.06,1-.58,1-1.75.18-1.86-1.26-1.75-1.65.37.09.74.18,1.11.24,0-1.29-1-1.65-2.3-1.92s-2.81-.45-3.71-1.2c.59-.27,1.15-.55,1.72-.86a22.14,22.14,0,0,1-2.66-.21c-.12-.66.26-1.56,1.23-1.11-.34-.79-.67-.89-1-1s-.65-.19-.76-1c0-.21.11-.22.25-.17a12.32,12.32,0,0,1-1.34-.73c.45,0,.78-.93,1.11-.14a5.36,5.36,0,0,0-1.78-2.37,2.94,2.94,0,0,1-.71-.84.78.78,0,0,1,.09-.9l.15.16a5.69,5.69,0,0,0-.85-1.33.57.57,0,0,0-.6-.12,1.19,1.19,0,0,1-.72.07,2.09,2.09,0,0,1-1.13-1.07,11.65,11.65,0,0,1,1.47-1.06,9.93,9.93,0,0,1,1.54-.82q-.6-.19-1.2-.42c.05-.37.29-1,.75-.81-.56-1.46-.57.12-1.19-.84.79-.74,1.07-1.89,1.7-2.77s1.32-1.44,2.1-.78c-.09-.55-.49-.44-.8-.37s-.48.08.05-.81c.87.61,1.21.3,1.65-.27s1.08-1.26,2-1c-.15,1.18-1.54,1.15.12,1.54a1.07,1.07,0,0,1,.56-.95,2.27,2.27,0,0,1,1.11-.05c.4.09.81.26,1.18.35a1.8,1.8,0,0,0,1,.11c0-.75.76-.86,1.76-.77s2.22.48,3.37.66c-.14.2.81.74,1.94,1.5a16.54,16.54,0,0,1,3.1,2.57l-.19.17c1.17-1,2.81.52,4.16,1.45a1.78,1.78,0,0,1-2,.4c.35.3.71.62,1.06,1a2.39,2.39,0,0,1,1.91.66l-1.07.49c1.37,1.36,3.68,2.18,4.53,4.77,1-.42,1.18-3.46,3.39-1.39-.41.4-1.16,1-1.77.5.19.17.89.47.94,1-.46-.17-.95-.3-1.41-.44.31,1.22,1,.1,1.45,1-.7.4-.12.91-.74,1.11-.2-.17-.15-.89-.6-1a4.14,4.14,0,0,1,.31,3,.89.89,0,0,1,1.42.13c.94,1.81-.57,1.06-.44,2.27.71.21.66,1.61,1.79,1.19.23.55-.27.86-.49,1.19.93.75,1.63,4.56,2.52,3.07V229s.05.1.1.15h0a9.4,9.4,0,0,1,1.36,5.23,29.68,29.68,0,0,0,.26,5.38h-.4c.57,2,.3,4.53,1,6.09-.06.62-.92,1.34-1.35,1,.07,1.55.49,1.87-.71,3.83-.28-1.64-.71.35-.11-1.63-.8,1.84-1.51,2-1.24,4.27-.35-.52-.78-.3-1.13.13a3.57,3.57,0,0,0-.76,1.52,14.25,14.25,0,0,0,1.25-.83,5.14,5.14,0,0,1-.59,1.32,11,11,0,0,1-.78,1.11l-.9-1.12c-1.63,1.08-2,2.66-2.78,4.21s-1.75,2.87-3.74,2.62c-.3,1.38,2.1-.73,2,.7a5.56,5.56,0,0,1-2.81.61,6.55,6.55,0,0,0-1.95,0,2.3,2.3,0,0,0-1.83,1.73,2.61,2.61,0,0,1-2,1.87c.5.29,1.38,1.33-.39,2.59-1.91.6-3-1-2-1.78.41-.21.68-.15.72,0,.51-.4,1.16-.92.26-1.1l0,.54c-1.06-.07-3.49.91-3.19-.05-1.18.93-.31,1,.79.81-2.54.21-3.64,1.29-6.23,1.6.46.13,1,.56.6.68-3.81.49-1.35,1.34-3.78,2.27-1.62-.33.05-1.82-2.31-.58-1.65-.09-.63-1.16-.13-1.69-2,1.51-4.4.44-5.71.56l1.1-.65a5.66,5.66,0,0,1-1.84.65l.89.79c-.74,0-1.35.1-1.41-.29-.61.76.89,1.46-.4,2.6-1.05-.29-2.83,1.09-3.39-.13,3.08-.11-.55-1.18,1.93-1.87a3.24,3.24,0,0,1-1.79.31c-.14-.12.05-.27.23-.38-3-.65-1.05,1.66-4.05,2.11.27-.76-.89-1.25-1.35-1,1.19-.16.75,1.11-.29,1.81-2-.27-2,.7-3.06.75l1.19.13c-.3.76-1.29.78-2.63,1.16-.17-.54,1.19-.52.68-.71-1.38,1.45-3.53-1-5.54.07-1-.41-.2-1.34-1.07-1.62-2.28,1.06-2.57-.79-5,.05.74.94.87.7-.84,1.7,1.35-.27,2.69-.53,4-.86-.84.53-1.69,1-2.55,1.54,1.24,0,2.57-.74,3.32-.62-1.2.87-1.09.62-.45,1.39-1.77-1.33-3.33,1-5.34.09v-2.4a6.58,6.58,0,0,0-4.14.18,10.67,10.67,0,0,1-4.82.39c.4.16.8.3,1.21.45-.54,1-2.35,0-3.6.37.15-.8-.6-1.12-1.09-1.65,0,.61-2.74-.26-3.22,1.32-.53-.39-1.07-.79-1.59-1.2-3-.73-3.73,1.92-6.65,1.25,1-.75-.25-1.48,1.78-1.85-1-.13-1.82-.39-1.91.16-.5-.56-2.85.67-3.61-.24-.46.28-.74,1.07-1.81.81a.4.4,0,0,1,.08-.39c-.08.39-1.79.17-1,1.24-1.24-1.53-3.25-2-5.21-2.49s-3.84-1.17-4.47-2.68a17.31,17.31,0,0,1-5.42-2.82c.24-.11.27-.3.47,0a1.58,1.58,0,0,0-2-.81,2,2,0,0,1-1.06-.1,2.05,2.05,0,0,1-.88-1.25c.19-1,.53-.72.8-.41s.56.69.52.21c.95-.9.52-1.39-.08-2.08a4.36,4.36,0,0,1-.79-1.18,1.44,1.44,0,0,1,.1-1.4l.23.33c.3-.67-.06-1.26-.42-2.05a3.58,3.58,0,0,1-.36-2.71.6.6,0,0,0,.38.12,3.63,3.63,0,0,1-.14-3,6.78,6.78,0,0,1,2.05-2.89c0,1.23-.48,1,.43,1.62.31-.28,0-.61-.17-1a1,1,0,0,1-.12-.67,1.3,1.3,0,0,1,.67-.84,12.59,12.59,0,0,1,1.56.31,1.81,1.81,0,0,1,1.22,1,4.08,4.08,0,0,0-.77.25,7,7,0,0,0-.73.31,1.33,1.33,0,0,0,.83.33,1.46,1.46,0,0,0,.67-.27c.22-.13.45-.3.67-.44a1.24,1.24,0,0,1,.7-.16l0,.65a7.64,7.64,0,0,0,1.44-.46c.4-.16.75-.35,1.12-.54a5.12,5.12,0,0,1,1.25-.37,4.57,4.57,0,0,1,1.81.26l-.18-.55c1.07-.52,1.39-.15,1.62.24s.43.81,1.47.67c-.08.54-.19,1.1-.32,1.65a12.56,12.56,0,0,1,2.6.62,9.05,9.05,0,0,1,1.58.74,6.76,6.76,0,0,1,1.29,1.06c-.4-.09-.83-.21-1.26-.35s-.86-.3-1.3-.46a10.76,10.76,0,0,0-2.47-.6,7.61,7.61,0,0,0,.78.51c.27.22.61.42.93.63a3.26,3.26,0,0,0,1.7.74c-.39-.21-.95-.33-1.07-.75a4.52,4.52,0,0,1,4.24,3.35c-1.52.39-1.18,1.67-1.08,3.24s0,3.45-1.28,4a7.72,7.72,0,0,1-1.19,5.33c-.54.84-1.13,1.67-1.66,2.54a24.12,24.12,0,0,0-1.82,2.64c1.41,0,1.26.3,1,.75s-.7,1,.38,1.61c-.58,1-.88,1.3-1.06,1.27a12.31,12.31,0,0,1-1.69.77l-1.69.68c-1,0,.33-1.12-.14-1.44-1.76,1.51-1.37,0-3,.48.84.45.24,1.47-1,2.07l2.15-.35a2.49,2.49,0,0,1-2.62,1.67,2.79,2.79,0,0,0-2.76,1.5,13,13,0,0,0,.43-1.24,29.39,29.39,0,0,1-3.14,2.5,6.78,6.78,0,0,0-2.87,3.32c-.42-.12-1.09-.56-.46-1.05a15.67,15.67,0,0,0-2.92,1.57L222,292.55a17.32,17.32,0,0,1-3,1.52,9.43,9.43,0,0,1-1.42.47,6,6,0,0,1-1.39.1l.13-.68c-.72.4-1,1.5-2.17,1.2,0-.25.15-.67-.22-.6-.33.35-1.8,1.57-2.94,1.51l.72-.89a10.48,10.48,0,0,0-5,1.76,17.55,17.55,0,0,1-4.49,2.35c-.29-1.74-3.68-1.85-5.37-1.93l0-.26a27.74,27.74,0,0,0-6.57,1.38c-1,.31-2,.67-3.07,1s-2.13.57-3.29.79c-1.48-.88-3.9-1.13-6.55-1.21s-5.5-.27-7.73-1c.67.37-.22,1.38-1.06,1.5-1.05-.41-3.11.93-2.77-.67l.38.07c-.64-1.71-2.87-1.47-4.55-1.8l-.6,2.08a7.53,7.53,0,0,0-3.57-1.77,23.2,23.2,0,0,0-4.08-.59,20.69,20.69,0,0,1-3.7-.61,3.21,3.21,0,0,1-2.26-1.65c-1.18.19-2.46-.21-3.65,0l.41-1.08a66.1,66.1,0,0,0-7.47-3.08l1-.46c-.91-.44-1.84.06-2.78.58s-1.86,1-2.75.56l.26-1.79a28.25,28.25,0,0,1-4.43-3.11c-.74-.5-1.43-1.06-2.2-1.49a8.55,8.55,0,0,0-2.58-1,.92.92,0,0,1,1.09-.24c-.7-.48-1.76-1.65-2.68-2.43s-1.76-1.2-2.41-.18c.53-.57,0-1.15-.83-1.73s-1.85-1.21-2.48-1.75c.37-.1.74-.2,1.1-.32a6.25,6.25,0,0,1-1.9-.55,2.56,2.56,0,0,1-1.1-1.53.41.41,0,0,1,.45-.28c.18,0,.28.09.19.39.07-.38.13-.49,0-.66a2.65,2.65,0,0,0-.31-.42.83.83,0,0,1-.25-.54,1.08,1.08,0,0,1,0-.38,2.31,2.31,0,0,1,.29-.47,5.34,5.34,0,0,0,.52.76,2,2,0,0,0,.19-1.15c-.09-.3-.25-.56-.41-1.16a1.94,1.94,0,0,1,1.26-1.34,1.64,1.64,0,0,1,.94-.12,1.11,1.11,0,0,1,.71.34,1.73,1.73,0,0,1,.07-1.11,1,1,0,0,1,1-.63.75.75,0,0,1-.08.8,7.24,7.24,0,0,0,2.47-.47c.76-.13,1.64-.16,1.92.73a1.09,1.09,0,0,0-.19.66,2.85,2.85,0,0,1-.41-.26c-.13-.08-.3-.12-.43-.19a4.44,4.44,0,0,0-.83-.27c-.49-.14-.75-.14-.69-.19a3.93,3.93,0,0,0,.32,1.2,1.33,1.33,0,0,1,0,.63c0,.23-.19.47-.32.85a2.2,2.2,0,0,1,.61-.62,3.58,3.58,0,0,1,.41-.27,2.41,2.41,0,0,1,.46-.22,1,1,0,0,1,1.38.57,1.49,1.49,0,0,1-.23.32l-.15,0c0,.26.23.31.45.47a4.54,4.54,0,0,0,0,.51,1.72,1.72,0,0,0,0,.5c-.37.17-.43.54-.36,1a9.3,9.3,0,0,1,.14,1.31c1.14-.09,1,1,1.9,0-.09.14-.11-.17-.2-.7a1.13,1.13,0,0,0-.15-.33l.1,0a6.49,6.49,0,0,0-.16-.87l-.11-.49c0-.15-.11-.31-.16-.48a1.83,1.83,0,0,1,.88.76,1.17,1.17,0,0,1,.15.56,1.79,1.79,0,0,1-.22.68,8.38,8.38,0,0,1,1.87,1.22c-.8.66-1.5,1.51-2.16,2.17s-1.27,1.13-1.79,1.12a6,6,0,0,1-.1.94,5.72,5.72,0,0,1-.25,1c-.26.77-.47,1.59-.74,2.36a8,8,0,0,0-.43,4.47c-.26.88-1.08.5-1.54.57.1-.53.46-1,.34-1.39-.45,1.75-2.73,4.27-1.88,5.51-1.94,1.27-.28-1.82-2,.65l-.09-.61c-2.81,1.41-3.76,3.67-5.08,6s-3,4.61-6.65,5.19c.5-.09.74-.15,1,0-3.53,1.59-6.78,3.75-10.29,5.58s-7.23,3.29-11.14,3.25c-2.16.16-2.15,1.07-3.28,2.11l-.72-1.1-1.92,1.83c-1.5.77-3,.28-4.55-.2a5.93,5.93,0,0,0-5.06.26l.56.8c-.73-.06-1.88.14-2.82.17s-1.67-.05-1.54-.53c-.15.15-.49.87-1.05.43l0-.65c-1.19.31-2.39.68-3.61.92-1.37-.34-1.2-1-1.2-1.56s-.15-1.15-2.07-1.46c-1.44.1-4.41,1.18-4,1.71.59.13,1.46.65,1.4,1.3l-1.43.1c-.57,1.82-2.14,3.52,1.3,5.43.91-.23,1.81-.54,2.7-.81l.72,1-2.16-.2c1.11,1,2,.36,2.9-.1a1.74,1.74,0,0,0,1,1.1c.9-.53,1.77-1.07,2.62-1.65.28.75-1.2,1.42.49,1.9,1.2-.8-1.06-1.71.88-2.18,1.19.9.84,1.57,2.27.84.21.49-.1.8-.67,1a10.26,10.26,0,0,1,2.26-.48,2.45,2.45,0,0,0,1.75-.86c1.33,1,4.24-.59,4.29,1.2a7.77,7.77,0,0,1,3.21-1.9c-.9,1.23.18,1.09,1.48.93s2.77-.39,2.71.8c1.21-2.14,5.48-2.09,7.87-4-.1.19-.31.58-.57.56,1.55-.32,2.17.1,3.27.12-.32-1.6,1.88-2.72,2.71-4.14,2.35.71-.4,2.17.69,3.32-.55-1.16,2.67-2.46,1.63-3.21,1.72.27,1.34-.09,2.59.79-.59-1.9,1.12-.9,1.68-2.54,2.36-.08,1.36,1.42,3.17-.24C105.14,313.36,103.59,315,103.59,315Zm25.18-48.37h0a8,8,0,0,1,.91,1.21A7.45,7.45,0,0,0,128.77,266.62Zm-5.15-3.45c.34.12.73.31,1.15.48a6.57,6.57,0,0,1,1.29.66c0,.45-.44.67-.92.36C125.56,264.56,124.41,263.77,123.62,263.17Zm-.2,10.65a.43.43,0,0,1,.17-.69,6.74,6.74,0,0,0,.29.74l.14,0A2.64,2.64,0,0,1,123.42,273.82Z"/><path class="cls-5" d="M125,274.53a.82.82,0,0,1,.1.21,1.85,1.85,0,0,0,.23-.34l-.38-.16Z"/><path class="cls-5" d="M343.83,229.32v.1a.45.45,0,0,1,.11-.23A.75.75,0,0,1,343.83,229.32Z"/><polygon class="cls-5" points="145.43 304.72 145.5 304.44 145.04 304.56 145.43 304.72"/><path class="cls-5" d="M334.2,206.64a.66.66,0,0,0-.08-.45C334.08,206.25,334.13,206.43,334.2,206.64Z"/><path class="cls-5" d="M324.29,200.84l-1.54-.82A12.36,12.36,0,0,0,324.29,200.84Z"/><path class="cls-5" d="M314.86,199.81a1.32,1.32,0,0,0-.08.51s0,0,0,0Z"/><path class="cls-5" d="M293.4,283.34a1.41,1.41,0,0,0-.31.08C292.36,283.73,292.86,283.59,293.4,283.34Z"/><path class="cls-5" d="M330.65,270.65a6.52,6.52,0,0,1-.92,1C330.42,271.46,330.93,271.24,330.65,270.65Z"/><path class="cls-5" d="M249.09,283.84h0l-.28-.05Z"/><path class="cls-5" d="M328,272.43a2.82,2.82,0,0,0,1.69-.74A5.1,5.1,0,0,0,328,272.43Z"/><path class="cls-5" d="M319.68,231.11l.37.21a.26.26,0,0,1,.12-.15Z"/><path class="cls-5" d="M320.17,231.17l.47.05C320.45,231.14,320.28,231.08,320.17,231.17Z"/><path class="cls-5" d="M321.64,231.32l-1-.1C321,231.35,321.32,231.55,321.64,231.32Z"/><path class="cls-5" d="M309.92,224.34l-.39.2A.72.72,0,0,0,309.92,224.34Z"/><path class="cls-5" d="M307.3,221.41c.22.43.38,1.06.69,1.68a3.67,3.67,0,0,0,1.22,1.6l.32-.15C308.65,224.56,308.27,221.79,307.3,221.41Z"/><path class="cls-5" d="M311,207.91l-.37.4a5.33,5.33,0,0,0-.32.46,5.24,5.24,0,0,0-.57,1c.56-.26,1.24-.44,1.06.43.26-.24.42-.41.53-.52s.18-.18.19-.23-.15-.12-.35-.16a.65.65,0,0,1-.53-.26C310.55,208.84,310.55,208.46,311,207.91Z"/><path class="cls-5" d="M316.87,205.15c-1.08.45.13.63.09.89C317.58,205.57,317.8,205.45,316.87,205.15Z"/><path class="cls-5" d="M344.32,247.42l-1-.3C343.31,248.15,343.71,247.2,344.32,247.42Z"/><path class="cls-5" d="M345,260.26c.41-.22.81-.46,1.22-.7-.17-.34-.33-.67-.51-1C345.49,259.13,345.25,259.7,345,260.26Z"/><path class="cls-5" d="M335.05,260.3l.23-.39c-.33.44-.65.89-1,1.32C334.55,260.93,334.79,260.6,335.05,260.3Z"/><path class="cls-5" d="M240.13,271.14l-.18,1.29C240.7,272.47,241.32,271.17,240.13,271.14Z"/><path class="cls-5" d="M241.13,251.88a1.7,1.7,0,0,0,.68.94,1.1,1.1,0,0,0,1.12.15,6,6,0,0,1-1-.72A1.59,1.59,0,0,0,241.13,251.88Z"/><polygon class="cls-5" points="159.21 297.27 160.12 296.98 158.47 297.08 159.21 297.27"/><text class="cls-6" transform="translate(546.52 176.01)">E<tspan class="cls-7" x="35.51" y="0">n</tspan><tspan x="71.76" y="0">cuent</tspan><tspan class="cls-8" x="228.37" y="0">r</tspan><tspan x="249.68" y="0">a lib</tspan><tspan class="cls-9" x="361.35" y="0">r</tspan><tspan x="382.44" y="0">os es</tspan><tspan class="cls-10" x="515.89" y="0">c</tspan><tspan x="545.73" y="0">ola</tspan><tspan class="cls-9" x="625.87" y="0">r</tspan><tspan x="646.96" y="0">es </tspan><tspan x="125.29" y="63.6">a un buen p</tspan><tspan class="cls-9" x="448.43" y="63.6">r</tspan><tspan x="469.52" y="63.6">ecio</tspan></text><path class="cls-11" d="M1320.53,213.66c.76,0,1.22-.52,1.81-.76a4.51,4.51,0,0,1,6.42,3.93,6.07,6.07,0,0,1-.31,2.74,1,1,0,0,0,.38,1.43,2,2,0,0,1,1,2.35,1.64,1.64,0,0,0,1,2,9,9,0,0,1,1.36,1c1.06.88,1.77,1.95,1.29,3.39-.28.83.16,1.18.72,1.58.75.53,1.49,1.09,2.21,1.67a1.53,1.53,0,0,1,.44,2c-.44.92-1,1.79-1.45,2.69a.72.72,0,0,0,.25,1c.6.43,1.27.77,1.85,1.22,1.38,1.08,1.56,2.05.75,3.64a8.31,8.31,0,0,1-.58.95c-5.7,8.34-11,17-16.42,25.46-9,14-18.1,27.81-28.24,41-1.24,1.61-2.51,3.21-3.72,4.85a3.34,3.34,0,0,1-3.63,1.39c-9.67-1.71-19.32-3.47-28.85-5.84-12.76-3.17-25.4-6.79-38-10.59a14.08,14.08,0,0,1-1.82-.66c-1.44-.66-2.55-1.61-2.41-3.36.07-.9-.5-1.1-1.12-1.31-1-.31-2-.56-2.92-.91-2.09-.74-2.41-1.5-1.47-3.58.41-.92,1-1.78,1.47-2.72-.3-.15-.52-.28-.76-.37-2.11-.86-2.22-1.08-1.64-3.3.09-.36.24-.71.32-1.07a1,1,0,0,0-.53-1.12c-3.11-2-3.39-3.06-1.61-6.33.62-1.14,1.3-2.25,2-3.33,15.37-23.27,30.83-46.49,47.6-68.8.5-.67,1-1.32,1.51-2a2.87,2.87,0,0,1,2.88-1.28c.92.11,1.83.29,2.74.44,2.21.36,1.91,0,2.42-1.36a19.64,19.64,0,0,1,1.41-3,8,8,0,0,1,4-3.35,6.27,6.27,0,0,1,7.85,2.3,7.7,7.7,0,0,1,1.47,4.42c0,.73,0,1.47,0,2.2.89.15,1.14-.6,1.62-1a8.5,8.5,0,0,1,5.37-2,6.62,6.62,0,0,1,6.35,4.53c.31.85.5,1.75.75,2.67,6.26-5,12-2.69,13.72,4.35.68.23.94-.38,1.3-.71a9,9,0,0,1,3.56-2.1,5.65,5.65,0,0,1,7.35,4.07A14.94,14.94,0,0,1,1320.53,213.66Z"/><path class="cls-12" d="M1365,234a5.13,5.13,0,1,1-5.15,5.06A5.11,5.11,0,0,1,1365,234Z"/><path class="cls-13" d="M1361.47,254.29c-.06.51-.41,1-.85.94-1.89-.08-2.94.52-2.71,2.64.06.56-.5,1-1.12,1a1.17,1.17,0,0,1-1.15-1,4.86,4.86,0,0,1-.07-.55c-.06-.53.15-1.13-.24-1.59s-1-.24-1.55-.34a3,3,0,0,1-.79-.23,1.07,1.07,0,0,1-.6-.87,1.15,1.15,0,0,1,.64-1.12.42.42,0,0,1,.25-.1c1.67.12,2.52-.56,2.48-2.32,0-.44.53-.72,1-.72a1.11,1.11,0,0,1,1.08.71,3.62,3.62,0,0,0,2.74,2.33A1.19,1.19,0,0,1,1361.47,254.29Z"/><path class="cls-13" d="M1209.59,237.41c-.72-.57-1.51-.21-2.19-.47a1.25,1.25,0,0,1-.87-1.25,1.18,1.18,0,0,1,.88-1c.26-.07.54-.08.81-.13,1.27-.2,1.27-.2,1.49-1.37a4.3,4.3,0,0,1,.16-.81,1.09,1.09,0,0,1,1-.76,1,1,0,0,1,1.06.71,7.62,7.62,0,0,1,.23,1.35.9.9,0,0,0,.89.86,12.08,12.08,0,0,1,1.9.27.94.94,0,0,1,.64.83,1,1,0,0,1-.6,1.12,5,5,0,0,1-1.34.26c-1.34.17-1.34.17-1.52,1.64a5.52,5.52,0,0,1-.16,1.08,1.06,1.06,0,0,1-1.07.72,1,1,0,0,1-1-.72A20.4,20.4,0,0,1,1209.59,237.41Z"/><path class="cls-14" d="M1310.45,323.35a3.48,3.48,0,0,1-3.77,3.5,3.58,3.58,0,0,1-3.5-3.54,3.76,3.76,0,0,1,3.68-3.73A3.67,3.67,0,0,1,1310.45,323.35Z"/><path class="cls-15" d="M1272,182.23a3.32,3.32,0,0,1-3.46,3.19,3.45,3.45,0,0,1-3.14-3.29,3.41,3.41,0,0,1,3.37-3.32A3.3,3.3,0,0,1,1272,182.23Z"/><path class="cls-16" d="M1198.61,289.36a3.23,3.23,0,1,1-6.46.32,3.23,3.23,0,1,1,6.46-.32Z"/><path class="cls-17" d="M1199.32,265.57a1.29,1.29,0,0,1-1.51,1.17,1.18,1.18,0,0,1-1.13-1.25,1.37,1.37,0,0,1,1.33-1.38A1.45,1.45,0,0,1,1199.32,265.57Z"/><path class="cls-18" d="M1206.5,259.69a1.43,1.43,0,0,1,1.32,1.5,1.4,1.4,0,0,1-1.36,1.13,1.28,1.28,0,0,1-1.28-1.45A1.39,1.39,0,0,1,1206.5,259.69Z"/><path class="cls-19" d="M1202.51,262.28a1.37,1.37,0,0,1,1.19,1.56,1.33,1.33,0,0,1-1.37,1.1,1.3,1.3,0,0,1-1.16-1.55A1.28,1.28,0,0,1,1202.51,262.28Z"/><path class="cls-3" d="M1326.76,223.36c-1.39,2.43-2.54,4.54-3.79,6.59q-18.71,30.77-39.08,60.43c-1.21,1.76-2.45,3.5-3.66,5.24a1.58,1.58,0,0,1-1.91.71c-1.07-.29-2.18-.42-3.26-.67l-33.81-7.82c-9.29-2.13-18.57-4.31-27.73-7a17.3,17.3,0,0,1-4.41-1.62.87.87,0,0,1-.4-1.19c.49-.89,1-1.8,1.52-2.65q6.27-9.51,12.58-19c11.22-16.79,22.59-33.48,34.74-49.63l.84-1.1c1.71-2.25,2-2.34,4.65-1.74,1.22.27,1.35.51,1.32,1.92a4.49,4.49,0,0,1-1.12,3.26c-1.12,1.22-.56,2.9.92,3.72a3.38,3.38,0,0,0,4.27-.83,2.29,2.29,0,0,0,0-3.28,3.14,3.14,0,0,1-.72-3.51,46.89,46.89,0,0,1,10,2.86c-.12,1.33,0,2.73-1.16,3.8a2,2,0,0,0-.4.73,2.65,2.65,0,0,0,.79,3,3,3,0,0,0,3.38.07,2.48,2.48,0,0,0,.83-3c-.25-.68-.79-1.23-.72-2.06.15-1.54.57-1.9,2.06-1.46,2.76.8,5.5,1.63,8.25,2.45a.78.78,0,0,1,.62,1.05c-.48,1.47-.55,3-1.55,4.39a2.78,2.78,0,0,0,1.06,4.06,3.34,3.34,0,0,0,4.27-.71,2.33,2.33,0,0,0,0-3,7.28,7.28,0,0,0-.8-.77,1.43,1.43,0,0,1-.43-1.52c.61-2.13.37-2.38,2.75-1.65,2.83.86,5.63,1.8,8.5,2.72a6.27,6.27,0,0,1-2.24,4.35,2.23,2.23,0,0,0,.59,3.72,3.14,3.14,0,0,0,3.43-.13,2.42,2.42,0,0,0,.89-3.17,3.62,3.62,0,0,1,.61-3.73l7.32,2.4a3.86,3.86,0,0,1-1.68,2.85c-2.11,1.56-1.8,4.18.49,5.42a2.86,2.86,0,0,0,4.28-2.34,3.28,3.28,0,0,0-.47-2.13,1.54,1.54,0,0,1,0-1.58c.34-.77.75-1.06,1.49-.82C1322,221.73,1324.17,222.49,1326.76,223.36Z"/><path class="cls-20" d="M1212.47,291.66c-.08-.66.32-1,.56-1.33,1-1.65,1.08-1.68,2.88-1.22q7.8,2,15.6,4c12.36,3.21,24.68,6.56,37.13,9.42l10.56,2.42c.18,0,.36.05.54.1,2.13.55,3.58-.11,5-1.94,10.44-13.73,20.13-28,29.61-42.36,5.66-8.59,11.23-17.24,16.52-26.06.05-.07.08-.16.13-.24.7-1.11,1.12-1.17,2.12-.27.28.26.47.55.24,1-.42.72-.81,1.45-1.22,2.18-5.09,8.83-10.68,17.35-16.31,25.85q-13.9,21-28.4,41.52c-.85,1.19-1.43,2.84-2.84,3.29-1.26.4-2.71-.3-4.06-.57q-30.39-6-60.44-13.46c-2.15-.53-4.29-1.15-6.42-1.75A7.48,7.48,0,0,1,1212.47,291.66Z"/><path class="cls-21" d="M1280.88,302.11c-1.25-.23-2.53-.46-3.8-.71-6.73-1.3-13.32-3.21-20-4.88q-21.81-5.47-43.61-11c-.54-.14-1.06-.31-1.6-.46a.49.49,0,0,1-.4-.6.77.77,0,0,1,.76-.68,5.42,5.42,0,0,1,1.36.29c6.39,1.9,12.85,3.51,19.35,5,10.28,2.38,20.57,4.72,30.85,7.1,3.79.88,7.56,1.84,11.33,2.76.63.16,1.25.36,1.88.49a5.19,5.19,0,0,0,6-2.31c8.5-12,16.64-24.32,24.54-36.75q8.57-13.5,17.1-27c1.08-1.73,2-3.53,3.07-5.29a.72.72,0,0,1,1.14-.29,11.67,11.67,0,0,1,1.18.73.75.75,0,0,1,.27,1c-.39.74-.78,1.48-1.2,2.19-4.57,7.75-9.43,15.31-14.33,22.84-9.45,14.54-19.14,28.9-29.5,42.8-1.06,1.41-2.15,2.79-3.22,4.19A1.47,1.47,0,0,1,1280.88,302.11Z"/><path class="cls-21" d="M1219.63,297.26a6.44,6.44,0,0,1,2.46.31c19.32,4.76,38.76,9,58.26,12.94,1.45.29,2.92.52,4.38.75a2.28,2.28,0,0,0,2.4-1c.27-.38.57-.74.84-1.11,14.8-21,29.36-42.09,42.93-63.88.68-1.1,1.32-2.23,2-3.33.59-.93.74-1,1.78-.39a4.82,4.82,0,0,1,.67.56c-.24.43-.45.84-.7,1.22-9.31,14.38-18.31,29-27.89,43.18-5.7,8.45-11.6,16.76-17.9,24.78a7,7,0,0,0-.68.87c-.88,1.62-2.1,1.86-3.93,1.57-17.6-2.73-34.76-7.32-51.85-12.23-4-1.15-8-2.44-11.93-3.66-.36-.11-.72-.17-.81-.61Z"/><path class="cls-22" d="M1268,201.9c.45-1.18.76-2,1.11-2.88a5.84,5.84,0,0,1,1.68-2.17,3.72,3.72,0,0,1,6.31,2.26,7.87,7.87,0,0,1-.09,3c-.38,1.9-.7,2.1-2.61,1.59S1270.29,202.56,1268,201.9Z"/><path class="cls-23" d="M1282,205.86a6.1,6.1,0,0,1,3.82-3.43,3.85,3.85,0,0,1,5.11,2.89c.07.27.1.55.15.82.38,2.13-.2,2.52-2.21,1.8C1286.69,207.17,1284.45,206.59,1282,205.86Z"/><path class="cls-24" d="M1296,209.72a5.73,5.73,0,0,1,2.79-2.56,4,4,0,0,1,5.23,1.62,4.59,4.59,0,0,1,.61,3.84,8.22,8.22,0,0,1-2.79-.68,21.21,21.21,0,0,1-3.14-1C1297.82,210.58,1296.68,210.7,1296,209.72Z"/><path class="cls-23" d="M1317.42,213.94c-.1.48-.25,1.2-.41,1.92-.13.54-.49.8-1,.63q-2.77-.88-5.52-1.84c-.35-.12-.64-.45-.35-.85a6.76,6.76,0,0,1,3.59-2.89C1315.87,210.31,1317.46,211.49,1317.42,213.94Z"/><path class="cls-25" d="M1321.1,218a6.19,6.19,0,0,1,2.35-2.25,1.45,1.45,0,0,1,2.09.63,2.44,2.44,0,0,1,0,2.36c-.22.49-.58.76-1.07.57A12.8,12.8,0,0,1,1321.1,218Z"/><path class="cls-21" d="M1219.67,297.21a5,5,0,0,1-.77,0,1,1,0,0,1-.44-.18c.1-.32.37-.31.62-.26a.56.56,0,0,1,.55.45Z"/><path class="cls-26" d="M1361.43,239a3.46,3.46,0,0,1,3.57-3.43,3.61,3.61,0,0,1,3.52,3.54,3.69,3.69,0,0,1-3.77,3.61A3.55,3.55,0,0,1,1361.43,239Z"/><path class="cls-27" d="M1306.86,325.38a2.15,2.15,0,0,1-2.1-2.1,2.09,2.09,0,0,1,4.18,0A2.17,2.17,0,0,1,1306.86,325.38Z"/><path class="cls-28" d="M1270.39,182a1.63,1.63,0,0,1-1.62,1.82,1.69,1.69,0,0,1-1.78-1.69,1.71,1.71,0,0,1,1.51-1.68A1.65,1.65,0,0,1,1270.39,182Z"/><path class="cls-29" d="M1195.45,287.79a1.81,1.81,0,0,1,1.7,1.79,1.77,1.77,0,0,1-3.54-.13A1.85,1.85,0,0,1,1195.45,287.79Z"/><path class="cls-30" d="M1254.25,233c.7.23,1.4.44,2.1.68,12.24,4.16,24.57,8,37,11.55,1.69.48,3.38.92,5.07,1.4a9.71,9.71,0,0,1,1.56.57.57.57,0,0,1,.3.69.55.55,0,0,1-.56.49,14.45,14.45,0,0,1-2.17-.36c-3.74-1-7.48-2.06-11.2-3.16q-15-4.43-29.82-9.47c-.88-.3-1.73-.65-2.58-1a.66.66,0,0,1-.37-.91A.72.72,0,0,1,1254.25,233Z"/><path class="cls-31" d="M1249.17,242.08a7,7,0,0,1,2.09.46c11.68,3.47,23.3,7.18,34.86,11,2.37.79,4.72,1.61,7.08,2.42a7.65,7.65,0,0,1,1,.36c.39.2.91.42.76,1s-.67.54-1.12.45a9.18,9.18,0,0,1-1.32-.42q-21-7.11-42.21-13.5a9.38,9.38,0,0,1-1.55-.6.58.58,0,0,1-.28-.7C1248.62,242.27,1248.82,242.15,1249.17,242.08Z"/><path class="cls-31" d="M1259.65,225.55c.63.24,1.32.49,2,.77a155.29,155.29,0,0,0,20.27,6.73c4.76,1.22,9.59,2.11,14.41,3a35.59,35.59,0,0,1,5.9,1.55c.6.23,1.22.44,1.81.71s.92.95.62,1.3-.82.29-1.26.1c-3.87-1.65-8-2.29-12.09-3a154,154,0,0,1-30.56-9c-.58-.24-1.3-.35-1.62-1a1.17,1.17,0,0,1,0-.76C1259.18,225.77,1259.42,225.7,1259.65,225.55Z"/><path class="cls-32" d="M1266,280.87c.72.15,1.46.26,2.17.46a88.08,88.08,0,0,1,9.51,3c.6.23,1.22.45,1.81.71s.92.92.62,1.28-.79.34-1.25.16a90.78,90.78,0,0,0-12.67-4,7.69,7.69,0,0,1-1-.37.47.47,0,0,1-.24-.68,1.34,1.34,0,0,1,.57-.53C1265.63,280.83,1265.84,280.88,1266,280.87Z"/><path class="cls-33" d="M1268.11,276.69c1.11.19,2.31.33,3.48.62,3,.74,5.91,1.53,8.85,2.34a4.82,4.82,0,0,1,1.46.75c.13.1.08.52,0,.77a.54.54,0,0,1-.38.34,4.39,4.39,0,0,1-1.07-.2,88.22,88.22,0,0,0-12.12-3,2.42,2.42,0,0,1-1-.42.55.55,0,0,1-.22-.72.92.92,0,0,1,.35-.38A1.94,1.94,0,0,1,1268.11,276.69Z"/></g></g></svg>