<svg xmlns="http://www.w3.org/2000/svg" viewBox="0 0 692.27 557.97"><defs><style>.cls-1{fill:#55b7c9;}.cls-2{fill:#173847;}.cls-3{fill:#f1bb1d;}.cls-4{fill:#e8686b;}.cls-5{fill:#53b6c8;}.cls-6{fill:#53b7c8;}.cls-7{fill:#54b7c9;}.cls-8{fill:#54b7c8;}.cls-9{fill:#56b8c9;}.cls-10{fill:#65bece;}.cls-11{fill:#e5b72d;}.cls-12{fill:#fdfdfd;}.cls-13{fill:#fdfdfc;}.cls-14{fill:#183847;}.cls-15{fill:#5096a6;}.cls-16{fill:#5095a6;}.cls-17{fill:#5096a7;}</style></defs><g id="Capa_2" data-name="Capa 2"><g id="Capa_1-2" data-name="Capa 1"><path class="cls-1" d="M692.27,549.37c-3.17,1.08-7.45-2-7.35-5.31.06-2,1.32-2.32,2.93-1.83,2.34.72,3.28,2.81,4.42,4.69Z"/><path class="cls-2" d="M188.59,361.28l-.91-1.58c.11-1,.44-2.09-.24-3-2.17-2.78-2.12-6.63-4.61-9.24a3.24,3.24,0,0,1-.7-1.68,115.72,115.72,0,0,1-1.68-33.17c.48-4.87.53-9.79,1.17-14.63,1.48-11.2,5.14-21.81,8.93-32.4,2.55-7.11,6.42-13.42,10.34-19.75a10.75,10.75,0,0,1,2.4-2.76c1.94-1.59,1.9-3.33.73-5.42-4-7.11-3.28-11,2.34-16.94a26.23,26.23,0,0,1,13.22-7.8c4.56-1.1,9-2.74,13.73-3a38.89,38.89,0,0,1,5.18.21,5.42,5.42,0,0,1,3.85,1.54c6.75,6.37,14.91,9.8,24,11.3,5.63.93,11.29,1.71,16.92,2.66a8,8,0,0,1,2.9.91c.65,2.13-1.27,2.17-2.35,2.66-2,.91-4.25,1.44-5.8,3.24a6.07,6.07,0,0,0-1.67,2.87c-.35,2,1,3.46,2.84,2.57,5.05-2.49,10.55-3.8,15.63-6.21,2.1-1,3.16-3.2,5.26-4.11a6.4,6.4,0,0,1,2.72.12c7.26,1.28,13.31-1.87,19.28-5.29a3.41,3.41,0,0,0,1.51-1.87c2-6.28,4.59-12.51,1.56-19.2a3.37,3.37,0,0,1-.37-2.65,2.6,2.6,0,0,1,2.3-1.28c4.58-.14,9.2-.68,13.57,1.29a5.31,5.31,0,0,0,4.71.29,3.78,3.78,0,0,1,3,.16,5.52,5.52,0,0,0,3.61.09,6.2,6.2,0,0,1,6.08.92c.56.45,1.36,1,1.95.66,4.57-2.56,9.05-.11,13.41.5,4.86.67,9.76.63,14.58,1.45a26.71,26.71,0,0,1,3.33.48,112.16,112.16,0,0,0,21.43,3.89,93.46,93.46,0,0,1,11.67,1.69,15.49,15.49,0,0,1,5.15,1.8c.51.34,1.11.91,1.63.76,3.64-1,6.44,1.42,9.65,2.14a16.07,16.07,0,0,0,6.36.59,3,3,0,0,1,2.1.17,14.65,14.65,0,0,0,8.73,2.26c.4,0,.07-.2.28.06,2.43,3,6.27,2.55,9.4,3.34,4.27,1.09,8.33,2.64,12.48,4l-.12,0c1,.54,2.09.83,2.71,1.85s1.12.19,1.64-.16a9.85,9.85,0,0,1,4.54,1.68c3.62,2.11,7.7,3.29,11.3,5.2s7.62,3.52,11.25,5.68c2.09,1.24,4.57,2.31,6.85,3.51,1.47.78,3.16.9,3.76,3.09.31,1.12,2.34.66,3.62.53.75-.08,1.43-.79,2.17.18,2,2.61,5.07,3.71,7.77,5.31,1.78,1.06,3.7,1.81,4,4.22,0,.19.1.54.18.55,5.09.7,4.32,6.38,7.6,8.91s3.64,7.39,5.65,11c2.88,5.21,3.53,11.21,6.15,16.49a6,6,0,0,1,.27,4.15,18.23,18.23,0,0,0,.85,9.63c2.76,8.42,6.3,16.69,8,25.31,3.65,18.17,7.7,36.29,9.95,54.72.47,3.83,1.61,7.57,2.41,11.36a3.46,3.46,0,0,0,2,2.56c3,1.44,5.37,4,8.63,5.18,1.65.59,3,2.2,2.18,4.17s-2.71,2.68-4.85,2.19c-1.16-.27-2.14-1.24-3.76-.93,1.57,3.31,3.16,6.5,4.6,9.76.56,1.27,2,2.93-.16,3.92-2,.91-4.16,1.13-5.68-1.2-.85-1.29-1.26-3.78-3.11-3.15-1.44.48-.64,2.88-.82,4.43-.22,1.92-.17,3.88-.5,5.78-.27,1.54-.47,3.52-2.94,2.91-2-.48-4-.66-3.83-3.7.22-3.44,0-6.93-.09-10.39,0-.57.16-1.21-.47-1.73-1.35,2.14-2.58,4.32-4.05,6.34-1.22,1.67-2,4.55-5,3-1.89-1-2.26-5.43-.77-7.58a22.48,22.48,0,0,0,2.81-6.5c-.78-.5-1.1.08-1.54.24-2.74,1-4.21-.15-3.75-3a7.1,7.1,0,0,1,3-4.83c.33-.23.69-.43,1-.64,7.77-4.68,8.23-4.86,6.53-13.78-1.14-6-.91-12.15-2.18-18.15-1.93-9.05-2.22-18.43-5.66-27.18-.17-.45-.36-.9-.66-1.63a14,14,0,0,0-1.44,6,129.66,129.66,0,0,1-3.41,22.59c-3.46,13.46-8.51,26.35-13.67,39.16a92.24,92.24,0,0,1-15,25.08c-6.31,7.51-14.24,12.57-21.93,18.14a44.32,44.32,0,0,0-4.78,3.78c-2.12,2-5.05,1.8-7.73,2-1.33.11-2.79-.21-3.77.81-1.65,1.71-2.93,1.53-4.17-1-1.88,4.73-2.45,9.12-3.41,13.44-1.71,7.64-2.85,15.38-4.26,23.07-.26,1.4-.27,2.84-.43,4.26-.38,3.35-2.21,4.83-5.43,4a8.54,8.54,0,0,0-5.56,0c-2.49.91-6-1.68-6.74-4.89-1.47-6.26-1-12.49.4-18.76,1.13-5.23,1.36-10.63,2.8-15.82.35-1.27-.22-1.78-1.66-1.61a20.57,20.57,0,0,1-5.2,0c-2.48-.34-3.33.94-3.56,3.05A77.06,77.06,0,0,1,447.86,487c-1.3,3.24-1.2,6.81-1.16,10.28,0,2.55-1,3.69-3.57,2.73a5.73,5.73,0,0,0-3.31-.34c-6.23,1.46-9.89-4.57-9-9.91q1.77-10.56,3.65-21.1c.76-4.23.55-4.83-3.71-4.66-5,.2-9.67-1-14.4-2.18-.29-.08-.78-.28-.83-.21-2,3.34-4.13,1-6.21.11a.46.46,0,0,0-.3-.05c-5.4,1.75-9.9-2.22-15-2.36a8.29,8.29,0,0,0-3.31.34c-1.17.44-2.53.72-2.72-1.2-.12-1.29-1-1.29-1.71-.87-4.76,2.65-9.49.94-14.09-.26-4.12-1.08-8.35-1.89-12.28-3.68a3.88,3.88,0,0,0-2.69-.08c-.67.17-1.66.43-2.08.1-4-3.13-8.89-.95-13.18-2.37-2.4-.8-5-1-7.24-2.33a9.38,9.38,0,0,0-4.69-1.27,17.6,17.6,0,0,1-7.93-2,6.36,6.36,0,0,0-3.27-.64c-.48,0-1.39,0-1.41-.18-.64-3.61-3.09-1.66-4.88-1.6-1.44,0-3,.24-4.12-.73-1.52-1.26-2.72-3.09-5.07-1.38-.4.29-1.28-.19-1.52-.75-1-2.28-2.79-2.23-4.85-2.09-2.89.2-5.59-1-8.21-1.57-1.31,6.37-2.67,12.71-3.89,19.07-.79,4.1-.85,8.32-2.09,12.36-.74,2.45-1.87,3.6-4.66,2.83a93.89,93.89,0,0,0-9.31-1.81c-2.17-.37-3.05-1.58-2.6-3.65,2-9.18,3.32-18.47,4.88-27.72a8.64,8.64,0,0,1,1.2-3.76c2.2-2.82-.35-4.12-1.88-4.12-3.63,0-6.55-2.22-10-2.4-.48,0-1,0-1.76,0,1.84,3.28.63,6.24.15,9.36-1.15,7.54-4,14.77-4.14,22.46,0,2.31-1.6,3.92-2.14,6-.28,1.09-1.6.65-2.41.46a56.32,56.32,0,0,0-7.53-1.25c-3.12-.31-6-3.36-6.59-6.38-.38-2.09,1.35-2.19,2.51-2.93-2.63-3.63,0-7.12.36-10.62.45-4.86,2.1-9.56,2.3-14.49a4.93,4.93,0,0,1,.61-2c1.93-3.52,2.28-7.13-.65-9.12-2.28-1.55-3.12-5.36-6.9-4.81-.66.09-1.51-.58-2.16-1.05-7.74-5.66-15.72-11-22-18.44a42,42,0,0,0-4-3.81c-1.76-1.58-7.47-10.07-8.18-12.25a15.22,15.22,0,0,0-3.33-5.09,18.12,18.12,0,0,1-4.34-9.26C191,362.61,189.68,362,188.59,361.28Z"/><path class="cls-3" d="M238.46,210.92c-9-1.06-17.16,2-25.17,5.27-3.94,1.6-6.95,5.11-9.39,8.59-2.64,3.76-2.08,8,.38,11.81s2.39,4.66-1.18,7.55c-1.51,1.21-2,3.05-3,4.58-9.69,15-15,31.73-17.52,49.16-1.83,12.68-2.9,25.59-1.17,38.47.47,3.5.56,7.56,2.11,10.29,1.81,3.19,2,7.14,4.83,9.78,1.44,1.37.89,2.48-.7,3.29a144.52,144.52,0,0,1-14.42-23.66c-13.27-26.39-26.35-52.89-39.49-79.35-1.25-2.52-2.88-4.87-2.78-7.94a6.2,6.2,0,0,0-1.35-3.36c-6.15-8.6-9.56-18.63-14.7-27.76-2.27-4-2.58-9-5.74-12.71,1.19-2.4,3.68-2.52,5.77-2.81,4.56-.63,8.53-2.83,12.43-4.83,5.17-2.64,10.69-4.43,15.76-7.38a260.43,260.43,0,0,0,37.76-26.52,225.59,225.59,0,0,0,28.63-29.67c4.38-5.36,7.4-11.4,10.64-17.39,1.24-2.29,2.17-5.18,5.28-5.94a11.08,11.08,0,0,1,3.85,2.44c1.46,1.27,2.83,2.21,4.93,1.44,1.46-.54,2.57.49,3.39,1.55a6.41,6.41,0,0,0,5,2.59c.83,0,1.66.06,2,1.07.16.53.61,1.13,1,.78,2.94-2.32,4.08.66,5.74,1.92a24.44,24.44,0,0,0,6.84,3.35c3.57,1.27,7.06,2.69,9.75,5.52.28.29.71.77.95.71,3.48-1,5.4,1.62,7.76,3.25a2.07,2.07,0,0,0,1.1.5c7.78-.41,12.57,6.26,19.45,8.16s13,5.27,19.1,8.86a11.59,11.59,0,0,0,6.64,2c1.45-.09,2.48.74,3.63,1.41,3.2,1.87,6,4.75,10.21,4.22a1.33,1.33,0,0,1,1.07.44c2.27,3.35,6.15,4.4,9.49,5.08,5.59,1.13,10.33,3.91,15.27,6.25,2.95,1.39,5.74,2.74,9,2.9a1.24,1.24,0,0,1,1,1c.71,2.24,2.29,2.42,4.36,2.18,3.67-.42,5.86,2.58,8.54,4.27,2.11,1.34,4.35,1.79,6.58,2.58,5.55,2,11.83,2.64,16.11,7.38.73.82,1.56,1.56,2.58,1.36,3.09-.61,5.52.94,8.08,2.18a12.94,12.94,0,0,0,3.4,1.34c2.19.34,3.78,1.17,4.5,3.45.3.95.69,2,1.83.19a2.15,2.15,0,0,1,3.73.31c1,1.94,2.55,2.18,4.2,2.54,2.32.51,4.59,1,5.69,3.52.46,1.1,1.4,1.13,2.14.11s1.43-1.12,2.55-.39c2.79,1.82,5.24,4.1,9,4.27,2.19.1,3.69,2.66,5.85,3.7,6.14,2.95,12.45,5.58,18.27,9.18a37.56,37.56,0,0,1-7.65-2c-.85-.27-2.07-2.39-3,.16-.21.55-.94-.36-1.35-.68a8.64,8.64,0,0,0-5.13-1.69c-1.58-.07-3.79,1.21-3.86-2,0-.76-1.18-.36-1.87-.41-2.47-.18-5.08.2-7.12-1.81-.91-.89-2.11-.53-3.22-.49a19.22,19.22,0,0,1-9.53-1.69c-1.82-.92-3.47-2.21-5.58-.72a1.19,1.19,0,0,1-1.14-.12c-3-3.27-7.47-2.29-11-4a2.81,2.81,0,0,0-1.74-.46c-3.66,1.12-7.1-.67-10.66-.66-2.07,0-4.1,0-5.79-1.42-.23-.19-.54-.44-.79-.42-7.6.41-14.72-2.92-22.39-2.63-4.48.18-9-1.36-13.53-2.09-.85-.14-1.86-.92-2.58,0-1.73,2.17-3.26,1.35-4.9-.08a3.63,3.63,0,0,0-3.38-1c-2.33.63-4.62,1.71-6.88-.24a1.48,1.48,0,0,0-1.43.11c-1.7,2.41-3.33.81-5.08.08-5-2.07-10.13-1.9-15.32-.92a2.36,2.36,0,0,1-1.91-.82c-4-4.09-9.07-4.24-14.27-3.55-4.69.63-4.83.61-7-3.38-3.25-6-12.53-9.31-18.91-6.75-.85.35-1.64.83-2.49,1.17-2.7,1.08-3.94.68-4.46-2.19-1.63-9.11-13.26-15.31-23.59-12.58-12,3.18-17.4,10.21-17.55,22.72,0,4.69.33,9.13,3.11,13.14C239,207.68,239.82,209.32,238.46,210.92Z"/><path class="cls-4" d="M225.47,110.39a22.56,22.56,0,0,0-6.31,9.27c-2.38,6.88-7.09,12.1-11.48,17.5a215.39,215.39,0,0,1-49.42,44.24c-8.3,5.43-16.62,10.9-26.08,14.53-4.23,1.61-8.78,3.17-12.55,6a3.93,3.93,0,0,1-2,.5,19.57,19.57,0,0,0-8.41,2.47c-6.27,1.26-12.48,3-19,2.87-8.21-.15-16.48.23-24.46-2.49-2.38-.82-5-1-7.44-1.62-7.13-1.91-12.66-5.91-16-12.66,2.54-2.45,2.41-3.49.93-7.37-.91-2.4-.73-5.14-1.55-7.7a33.92,33.92,0,0,1-.58-17.83,50.77,50.77,0,0,0,1-7.28c.5-7.76,3.69-14.81,5.89-22.12a7.73,7.73,0,0,1,2.28-3.6c4.59-4,7.11-9.4,10.13-14.47a37.83,37.83,0,0,1,5.9-7.31c2.19-2.2,4.54-4.31,6.54-6.67,2.63-3.12,6-5.69,8.32-8.78,3.15-4.3,7.52-6.68,11.18-10.08,12-11.18,26-19.25,40.71-26.21,4.88-2.32,9.59-5,14.71-6.85,6.32-2.27,12.82-4.13,19.24-6a34.28,34.28,0,0,1,16.27-.59,4.7,4.7,0,0,0,1.81.25c9.5-1.82,17.65,2.24,25.87,6a4.28,4.28,0,0,1,2,1.78c.25.45.42,1.17.87,1.2,3.31.23,5.36,2.52,7.74,4.37a11.92,11.92,0,0,1,2.51,2.1c.61.8.44-.64.94-.51,7.65,7.85,7.17,17.59,6.43,27.4-.47,6.21-2.13,12.15-3.57,18.17C227.08,102.69,226.23,106.54,225.47,110.39Z"/><path class="cls-2" d="M42.91,119.06c-2.18-2.25-3.88-4.53-4-8-.09-4.14,0-8.74-1.12-12.33-1.95-6.16-.19-11.77.25-17.49.33-4.31.51-9.12,3.72-12.8a2,2,0,0,0,.46-.79c3-11.59,11.87-19.07,19.41-27.45,2.16-2.39,5.85-3,7.56-6,.24-.44,1-.37,1.4-.06,1.37,1,2-.09,2.74-.9a12.18,12.18,0,0,1,3-2.62C86,25.83,96,22.17,107.11,23.15c4.47.39,9.07.14,13.36,1.53,5.89,1.92,11.37,4.91,17.22,7,2,.72,3.54,2.7,5.3,4.1.39,2.58-1.56,3.52-3.35,4-4,1-7.6,2.32-10.28,5.58a2.55,2.55,0,0,1-1.93.83c-4.2.09-7.58,2.21-10.93,4.37-6.09,3.92-12.59,7.19-18.42,11.5A147.25,147.25,0,0,0,83,74.94a4.21,4.21,0,0,0-1.13,2.13c-.67,3-2.21,4.22-5.45,4.08a1.86,1.86,0,0,0-1.84.69c-3.67,4.7-7.42,9.35-12.34,12.87A9,9,0,0,0,60,97.57,110.88,110.88,0,0,1,49.4,112.19a21,21,0,0,0-3,5.29C45.82,118.76,45.11,120.87,42.91,119.06Z"/><path class="cls-2" d="M632,61.24c-.17,1.63-.05,3.66-1.07,5.36-1.34,2.25-.28,2.52,1.57,2.1,4.38-1,8,.52,11.34,3.16,3.86,3.07,4.16,7.12.76,10.8-2.28,2.49-5.6,3.72-7.77,6.39-.6.74-1.72.36-2.63.29A237.09,237.09,0,0,0,610,88.83c-6,.17-12.2,1.27-18.16-.89a4.19,4.19,0,0,0-2.71,0c-5.49,2.09-11.06,1.29-16.64.69a3.43,3.43,0,0,0-1.22-.09c-7.07,2.06-14.23-.33-21.31.45-3.1.35-5.53-1-8-2.5-1.24-.78-1.34-1.91-1.2-3.2a26,26,0,0,1,3.3-10.41,8.06,8.06,0,0,1,11-3.31,2.28,2.28,0,0,0,3.19-.57A10.72,10.72,0,0,0,560,66.84c2.91-6.31,8.38-10,14.16-13,2.9-1.48,6.45-3.52,10.14-1.31.48.28,1.09.52,1.22-.13.32-1.59,1.64-1,2.46-1.12,4.33-.62,7.59,2.35,7.63,6.78,0,2.75,2.1,4.08,4.52,2.68A41.78,41.78,0,0,0,604.92,57c4.64-3.71,9.77-5.26,15.62-3.49a2.15,2.15,0,0,0,1.44-.13C626.56,51.77,631.93,55.85,632,61.24Z"/><path class="cls-2" d="M504.51,64.06a303,303,0,0,1-30.59.08,122.65,122.65,0,0,0-12.85.39c-10.31.61-20.63-.81-30.9.08-9.3.81-18.53-.91-27.81-.2a34.81,34.81,0,0,1-15.82-2.88c-1.81-.73-3.09-1.68-2.16-3.9.46-1.07-.15-2-.53-2.89-2-4.78-.89-8.64,3.24-11.88a4.35,4.35,0,0,0,1.32-1.23c3.62-7.28,10-7.94,17-7,5.55.76,10.14,3,12.26,8.73.8,2.17,2.41,1.9,4,.91,2.58-1.63,5.09-3.39,7.68-5,3.89-2.43,7.4-2.87,12.25-1,4.16,1.59,4.91,5.43,8,7.35,1.21.75.31,2.82.17,4.38,2-.4,3-1.7,4-2.94,7.15-8.53,17.49-10.89,27.5-6.28,5,2.32,5,2.32,5.71,7.9a12.16,12.16,0,0,1,5.77-3.9c5-1.35,9.64,1.49,10.21,6.63.46,4.16,3.53,3.06,6,3.28,2.38-.52,4.66.23,6.92.69,2.1.41,2.61,2.21,2.11,4.07-.64,2.37-2.1,4.39-4.54,4.94C510.51,65,507.44,65.36,504.51,64.06Z"/><path class="cls-3" d="M504.51,64.06c2,0,4.05-.14,6.07-.08a6.85,6.85,0,0,0,6.79-4.45,2.6,2.6,0,0,0-2.54-3.71A13,13,0,0,1,509,54.66a21.89,21.89,0,0,0,2.44-9.3c.21-3.55,2.12-6.92,1.89-10.71a76.41,76.41,0,0,0-2-13.88,13.86,13.86,0,0,0-3.6-6.3,22.54,22.54,0,0,1-4.22-5.21A1.87,1.87,0,0,0,501.55,8c-1.91.18-3.53.07-3.55-2.48s.7-4.45,3.25-5.27a6.19,6.19,0,0,1,3.92.08c6.18,2.13,12.38,4.4,17.79,8,7.88,5.22,12.71,13,16.23,21.67-1.05,5.81,3.51,11.06,1.41,17.25-.73,2.14-.53,5.3-.34,7.88.56,7.3-3.23,13.31-5.14,19.88-2,.66-3.15-1-4.63-1.71-3.42-1.63-8.94.34-8.87,3.87.06,3-2.12,6.9,1.81,9.29a1.15,1.15,0,0,1,.38,1.37A2.8,2.8,0,0,1,521.45,90c-3.15,0-5.2,2.09-7.64,3.48-3.37,1.92-7.13,2.39-10.88,2.68-10,.77-19.74-.62-29.39-2.94-3.6-.87-5.93-4.26-9.56-5.3-1-.28-.63-1.66-.21-2.46,1.35-2.54,3.14-4.52,6.32-4.61A51.47,51.47,0,0,0,489.84,76C495.82,73.37,500.45,69.07,504.51,64.06Z"/><path class="cls-5" d="M42.91,119.06a2,2,0,0,0,2.83-1.45c.56-4,3.68-6.27,5.8-9.18,2.93-4,6-8,8.47-12.34.2-.35.32-.89.62-1,5-2.34,7-7.85,11.52-10.73.61-.39,1.34-.7,1.4-1.49.22-2.68,1-3.86,3.89-2.22.3.18,3.52-.66,3.49-2.89a4.31,4.31,0,0,1,1.57-3.46,164.72,164.72,0,0,1,16.9-14c6-4.23,12.55-7.52,18.67-11.54,2.77-1.82,5.68-3.71,9.34-3.13a1.79,1.79,0,0,0,1.8-.94c2.21-3.32,5.61-4.54,9.28-5.25a5.36,5.36,0,0,0,4.5-3.61c1.89.91,3.55.16,5.21-.69,2.82-1.45,5.66-2.84,9-2.48a2.83,2.83,0,0,0,1.49-.24c8.77-4.29,18.27-4.33,27.7-4.61a21,21,0,0,1,10,2.28,27,27,0,0,0,4.82,1.9c9.52,2.68,16.2,9.1,22.09,16.57a9.86,9.86,0,0,1,1.79,4.82c-.28.46-.41,1.61-.5,1.42-1.09-2.22-4.31-1.12-5.27-3.62-.84-2.15-2.89-2.73-5.08-2.62-1.07.05-1.92.21-1.51-1.48.31-1.28-1.15-1.44-2-1.93-6.32-3.76-13.54-4.87-20.45-6.89a2.69,2.69,0,0,0-1.81-.05c-4.21,2.18-8.4.26-12.59,0-1.73-.1-3.1,1.5-4.68,1.17-4.83-1-8.56,2.22-12.91,3.1-9.45,1.9-17.89,6.58-26.6,10.52s-16.69,9.39-25,14.06c-3.89,2.17-7.17,5.67-10.64,8.66-3,2.59-5.8,5.42-9.53,7.06a2.93,2.93,0,0,0-1.59,1.36c-2,6.19-9.34,7.73-11.69,13.62a4.82,4.82,0,0,1-2.53,2.11c-1.22.51-2.18.91-2.2,2.47a2,2,0,0,1-.93,1.48c-4.81,2.52-6.4,7.53-9,11.72-2.08,3.42-4,6.87-7.11,9.49a9.54,9.54,0,0,0-2.84,4.3c-2.92,8.68-5.81,17.36-6.38,26.61a32.64,32.64,0,0,1-.8,5.74c-1.37,5.58-.08,10.85,1.64,16.09.43,1.33,1,2.59.47,4.1-.28.84-.59,2.18,1.1,2.23,1.49.05,1.34.83.93,1.84a6.34,6.34,0,0,0-.4,3.48c.2,1.49-2,.87-2.86,1.67-4.46-3.48-5.94-8.62-7.94-13.58-1.83-4.53-1.1-9.51-3.34-14-.94-1.91.55-5.37,1.61-7.84s1.54-4.58.48-7a2.43,2.43,0,0,1-.27-2c1.46-4.26,1.75-9,3.51-13C38.59,128.78,39.2,123.19,42.91,119.06Z"/><path class="cls-4" d="M30.19,264.77c4.38-3.24,9.22-5.55,12.59-9.8a3.89,3.89,0,0,1,.88-.84c9.42-6,17.29-14,26.52-20.17a8.81,8.81,0,0,0,3.59-3.64c.83-1.87,2-3.57,4.39-2.69s4.8,2.18,4.43,5.13c-1.07,8.52.59,17.17-1.36,25.63-.42,1.8,0,3.65.1,5.49a36.36,36.36,0,0,1-.27,10.67c-1.12,5.1,1.21,10.08.37,15.25,4.84-1.83,9.35-3.77,12.07-8.41a6.17,6.17,0,0,1,2.57-2.11c9.36-4.72,17.46-11.16,25.07-18.25.92-.86,1.81-1.37,3-.7,1.7,1,2.2,2.58,2.22,4.42s.07,3.87-2,4.74c-6.81,2.86-11.68,8.45-17.67,12.46-1.87,1.24-3.55,2.76-5.67,3.58a5.15,5.15,0,0,0-2.58,2.07c-1.84,3-4.61,4.89-7.49,6.64-2.58,1.57-5.54,2.41-7.69,4.84-1.27,1.45-3.68.91-5.49,1.62-.68.27-.84-.55-1.12-1.11-3.33-6.67-4.11-13.6-3.37-21a111.2,111.2,0,0,0-.11-20.8,14.53,14.53,0,0,1,1.09-7.19,7.73,7.73,0,0,0,.64-3.27c0-1.86.08-3.94-1.9-4.81-1.79-.79-2.61,1.13-3.75,2Q53,257.32,36.8,270.13a13.71,13.71,0,0,1-7.08,2.65c-3.68.42-6-1.62-6.45-5.28-.61-4.93.14-9.75.69-14.61a380.64,380.64,0,0,0,2.44-47.62,60,60,0,0,1,.59-6.39c.19-2.18,1.51-2.43,3.25-1.89,3,.94,5.69,4.56,4.68,7.67-1.89,5.77.11,11.53-.63,17.28-.43,3.29-.44,6.63-.89,10s-.54,7-.79,10.57c-.32,4.31.27,8.74-2,12.72-.28.48.08.76.31,1.05,1.15,1.45.75,2.83-.11,4.24A5.47,5.47,0,0,0,30.19,264.77Z"/><path class="cls-4" d="M229.78,14.11a55.94,55.94,0,0,1,13.93,1.71,4.28,4.28,0,0,0,2.11.18c6.59-2,13.36-.34,20-1.06a10.17,10.17,0,0,1,7.29,1.75c1.56,1.14,3.07-.65,4.61.07s4.44-.25,4.76,1.76c.4,2.55.91,5.56-1.26,7.89-.21.22-.42.45-.64.66a60.11,60.11,0,0,0-9.26,12.14c-3.54,5.91-8.37,10.8-12.83,16-1.5,1.74-1.78,2.63,0,5,4.14,5.58,10.9,6.58,16,10.49,7.4,5.73,15.37,10.63,21.93,17.52,3.54,3.72,6.69,8.21,12.14,10,2.37.76,2.54,5.36.65,7.57a14.3,14.3,0,0,1-4.64,3.44c-5.12,2.53-10.24,5.07-15.4,7.49-6.35,3-13.53,3.58-19.75,7-1.84,1-2.87-.16-3.14-2-.57-4,1.46-6.84,5.38-8.1,8.91-2.87,17.94-5.37,26.44-9.41,1.84-.88,1.79-1.63.48-2.85-12.66-11.84-25.33-23.63-41-31.58-3.51-1.77-6.55-4.5-9.79-6.8-1.58-1.11-2-2.3-.16-3.57A3.79,3.79,0,0,0,249,56.35a11.84,11.84,0,0,1,4-7.43c3.61-3.12,6.23-7,9-10.79,2.61-3.65,5.48-7.12,8.16-10.72,1.82-2.44,1.54-3-1.48-3.52-3.3-.56-6.6-1.15-9.92-1.62-2.38-.34-4.46,1.35-6.87,1.18a297,297,0,0,0-30-1.09c-1.67.05-2.33-.85-2.37-2.48a5.59,5.59,0,0,1,5.16-5.76C226.3,14,228,14.11,229.78,14.11Z"/><path class="cls-4" d="M565.21,231.23a7.18,7.18,0,0,1,5.7,3.75c2,3.33,4,6.61,7,9.2.55.47,1.24,1.21.87,1.82-1.54,2.53.73,3.37,1.81,4.9A80.59,80.59,0,0,1,586.3,261c2.41,4.77,4.84,9.64,5.59,15.1a21.86,21.86,0,0,0,2.17,6.66,15.89,15.89,0,0,1,1.82,9.74c-.36,2.33.61,4.51,1.64,6.43,2.42,4.5.38,8.75-.4,13-.25,1.32-1.83,1.81-3.28,1.32a2.54,2.54,0,0,1-1.27-.82c-2.1-3.15-4.59-5.7-5.42-10-2.14-11.17-2.51-23-9.35-32.88a8.52,8.52,0,0,1-1.36-2.73c-2-8.27-6.92-15-11.61-21.82-1.84-2.68-2.76-5.91-5-8.36a2.75,2.75,0,0,1-.39-3.43C560.55,231.56,562.4,231.21,565.21,231.23Z"/><path class="cls-4" d="M223.6,456c-1.34,3-.13,5.58,1.32,8.12a6.86,6.86,0,0,1,1.07,2.52c.45,4.8,3.32,8.37,5.66,12.32,3,5.05,7.75,8,11.84,11.78a26.58,26.58,0,0,1,3.58,3.3c1.67,2.19,4.29,1.58,6.52,1.87,4,.51,4.13.56,3.92,4.48a13.93,13.93,0,0,1-.09,1.83c-.22,1.2,2.08,2.64-.26,3.61-2,.85-4,2.72-6.16,0-.81-1.06-2.31-1.38-3.59-1.56-7.42-1-13.4-5.45-17.88-10.52-8.31-9.39-15.41-19.89-16.57-33.11-.24-2.83.25-5.65-.17-8.51-.23-1.6.81-2.93,3-2.11s4.8,1.12,6.54,3.08A3.78,3.78,0,0,1,223.6,456Z"/><path class="cls-4" d="M37.45,34c1.62,3.09.24,5.12-1.91,7a11.7,11.7,0,0,0-2.71,3.28,201.81,201.81,0,0,0-11.28,25.7c-1.08,3.14-.21,6.52-1.06,9.71-.33,1.26-.16,2.74-1.91,3.08A4.36,4.36,0,0,1,14,81a7.67,7.67,0,0,1-1.33-6.68c2.7-10.23,4.92-20.66,11.85-29.18A5.15,5.15,0,0,0,25.56,42c0-1.61.07-3.12,2.25-3.28,1-.08,1.1-1.13,1.37-1.84a32.41,32.41,0,0,1,7.61-11.37A112.71,112.71,0,0,1,51.43,13c1.66-1.18,3.81-2.67,5.6-1.51s-.11,3.34-.29,5.05A6.65,6.65,0,0,1,53,21.83,26.53,26.53,0,0,0,42.51,31.88C41.35,33.88,39.67,33.88,37.45,34Z"/><path class="cls-4" d="M549.53,456c-.77,3.59-1.61,7.87-2.69,12.09-.19.74-.21,2.89-2.31,1.6-1-.62-.74.62-.84,1a23.72,23.72,0,0,1-8.7,12.61c-1.38,1-2.2,2.87-3.19,4.39-1.95,3-4.7,4.2-8.08,3.39-1.32-.32-1.73-.95-1.45-2.43.93-5,2.12-9.6,6-13.65,6.69-7.08,8.74-16.59,11.29-25.67,1.06-3.79,2.86-4.64,6-2.18A10.26,10.26,0,0,1,549.53,456Z"/><path class="cls-4" d="M617.52,280.16c.05,6-2.42,7.56-6.68,5.56a7.35,7.35,0,0,1-4.34-5.56c-1.21-6.59-2-13.3-5.93-19.05a3.14,3.14,0,0,1-.43-1.76c.19-3.86-.91-7.45-2.26-11-.59-1.56-1.09-3.2.24-4.61s3-.7,4.6-.37c4.12.87,5.9,4.13,6.76,7.57A139.63,139.63,0,0,0,615,267.06C616.71,271.52,616.88,276.59,617.52,280.16Z"/><path class="cls-3" d="M495.43,205c-3.15.14-5.55-.93-7-3.92-1-2.14-2.38-1.91-3.67-.15a7.86,7.86,0,0,1-5.18,3.5c-1.23.2-2.62,1.2-3.61-.34a4,4,0,0,1-.05-4.87c1.38-1.89,2.77-3.79,4.25-5.61s1.59-3.19-.3-4.69a13.38,13.38,0,0,1-2.05-2.26c-.94-1.21-3.66-1.55-2.27-3.93,1.6-2.73,5.19-4,7.53-3,1,.44,1.57,1,1.21,2.07-.59,1.72.59,2.39,1.7,3.14s2.12.06,3-.67c1.48-1.24,2.87-2.62,4.44-3.73s3.92-2.6,5.54-1c1.49,1.47,1.07,4,.18,6.06-.75,1.73-2.35,2.81-3.45,4.27-2.69,3.55-2.56,4.5,1,7.18a6.68,6.68,0,0,1,2.46,6C499,205.59,497,204.9,495.43,205Z"/><path class="cls-3" d="M416.46,138.68c-.11,3.95-1.38,6-4.74,6.58-2.87.49-3.13,2-2.66,4.34.71,3.45.53,3.63-2.9,3.8a20.52,20.52,0,0,0-2.73.27c-1.63.29-2.61-.06-2.43-2,.28-2.91-1.47-3.48-3.85-3.18-1.11.14-2.2.39-3.3.63s-2.18.89-2.83-.66c-.58-1.37-1-2.77.17-4,1.94-1.91,3.52-4.29,6.33-5.13,1.68-.5,2.12-1.46,1.13-3a3.15,3.15,0,0,1-.74-2c.18-2.18-.22-4.73,2.41-5.75,1.76-.67,6.39,2.23,6.89,4.65.8,3.88,3,4,6,3.1C415.22,135.88,416.81,136.08,416.46,138.68Z"/><path class="cls-4" d="M218.42,511.4a22.64,22.64,0,0,1-12.62-8.06,33.87,33.87,0,0,1-6.57-13c-.46-1.74-1.48-3.84.62-4.95s5.24-1.35,6.81.59c2,2.5,4.37,4.7,5.67,8.06a11.73,11.73,0,0,0,9.1,7.29c2.47.4,3.85,1.66,4.13,4.13S221.73,511.56,218.42,511.4Z"/><path class="cls-4" d="M0,43.74a13,13,0,0,1,3-7C4.51,34.87,5.76,33,5.68,30.41A3.16,3.16,0,0,1,6,28.94,45.31,45.31,0,0,1,19.52,13.09a4.85,4.85,0,0,1,3.53-.7,2.82,2.82,0,0,1,2.28,1.79c.61,1.18-.39,1.56-.93,2.26-4.79,6.2-9.88,12.32-13.13,19.42A49,49,0,0,0,7,49.46c-.22,1.65-1.44,1.89-2.74,1.15A7.68,7.68,0,0,1,0,43.74Z"/><path class="cls-3" d="M121.24,383a8.79,8.79,0,0,1-4.33-.5c-2.86-1-4.25-.25-5,2.63-.84,3.19-2.51,4-4.69,2.26-.37-.29-.91-.9-.82-1.15,1-2.67-1.27-5.44.38-8.09.65-1.05-.18-1.94-1-2.63-1-.88-2.07-1.67-3-2.59s-2.38-1.75-1.29-3.29,2.49-2.74,4.66-2.09c5.24,1.56,5.25,1.55,7.76-2.78.86-1.49,1.87-2.93,3.82-2.28s2.72,2.34,2.44,4.41c-.17,1.31-.05,2.82-.68,3.89-2.27,3.84.48,5.46,2.9,7.35,1.2.94,3.39,1.49,2.5,3.6C124.12,383.62,122,382.81,121.24,383Z"/><path class="cls-3" d="M155.62,442c-1.13-.66-3.29,2.28-3.68-1-.33-2.83,1.24-5.41,3.76-5.28,3.73.19,3.82-1.76,3.74-4.49,0-1.41-.83-3.65,1.71-3.83,2-.14,3.89.61,4.41,2.94.57,2.59,2.23,3.72,4.76,3.9,1.11.08,2.21.34,3.33.45s2.34.14,2.82,1.39c.56,1.43-.22,2.47-1.14,3.54-1.75,2-3.33,3.6-6.32,1.71-1.84-1.16-2.28.45-1.92,1.95a25.32,25.32,0,0,1,1,6c0,1.94-.64,2.62-2.75,2.5-3.59-.2-5.6-1.38-5.65-5.39C159.71,444.12,158.6,442,155.62,442Z"/><path class="cls-4" d="M552,485.6c.28-2.66.71-5.8,2.83-8.56s2.69-6.18,4.61-9.08c1.11-1.68,1.73-1.57,3-.82a9,9,0,0,1,3.82,9.28c-.93,3.72-3.1,6.86-5.21,9.94a16.49,16.49,0,0,0-2,3.55c-.55,1.44-1.28,3.39-3.16,3.34s-2.81-1.77-3.46-3.45A10,10,0,0,1,552,485.6Z"/><path class="cls-2" d="M379.54,54.74c0,3.4-6.32,8.93-10.13,8.91-3.31,0-8.29-4.32-8.21-7.08.11-3.62,5.57-9.58,8.74-9.54C374.77,47.09,379.57,50.94,379.54,54.74Z"/><path class="cls-2" d="M523.81,87.86a25.69,25.69,0,0,1-2.76-2.76c-2-2.72.59-5.7-.34-8.52,4.45-5.74,6.48-6.53,12-2.8A24.66,24.66,0,0,0,535.12,75C537,85.2,534.06,88.59,523.81,87.86Z"/><path class="cls-6" d="M246,546c-1.28,2.33.67,4.89.56,7.59s-1.12,3.4-3.66,2.17-4.41-3.14-4.43-6.34a22,22,0,0,0-.68-4.22c-.79-3.78-.18-5.27,2.4-5.69s5.6,2.35,5.8,5.12C246,545,246,545.27,246,546Z"/><path class="cls-7" d="M377.17,540.9l3.55,1.05c.5.15,1.21.65,1,1-1.92,2.34.32,2.51,1.57,3.3a2.21,2.21,0,0,1,.89,2.43,11.35,11.35,0,0,1-.76,2.94c-.93,1.82-.29,4.87-3.35,5.08-1.77.13-5.68-4.41-5.82-6.5a15.9,15.9,0,0,1,.33-3.62c.22-1.27.78-2.45.29-3.85S375.14,540.61,377.17,540.9Z"/><path class="cls-7" d="M360.32,541.33a7.15,7.15,0,0,1,6.76,8.09c-.18,1.2-.53,2.38-.83,3.56-.36,1.43-.28,3.35-2.53,3.09s-4.22-.85-4.53-3.64a74,74,0,0,0-1.22-8.14C357.41,541.82,358.31,541.05,360.32,541.33Z"/><path class="cls-7" d="M231.68,550.32c.09,1.59.19,2.5.18,3.42,0,1.2.24,2.57-1.06,3.29s-2.78.15-4-.64a4.66,4.66,0,0,1-2.22-3.18c-.47-3.41.17-6.91-.73-10.31a1.25,1.25,0,0,1,.62-1.3c1-.65,5.07.44,5.74,1.48A10.41,10.41,0,0,1,231.68,550.32Z"/><path class="cls-8" d="M258.18,545a14.09,14.09,0,0,0,.4,7c.48,1.81-.24,2.37-2,2.37-3.14,0-5-1.67-5.21-5-.16-2.41.14-4.82-.58-7.23a2.85,2.85,0,0,1,1.89-3.69,3.3,3.3,0,0,1,4.11,1.78A13.14,13.14,0,0,1,258.18,545Z"/><path class="cls-1" d="M353.3,549.08c-.05.92,0,1.84-.15,2.74-.22,1.58-.2,3.5-2.41,3.63s-4.15-.81-4.59-3.13a31.18,31.18,0,0,1,0-9.69c.31-2.45,3.27-2.91,5.23-1C353.48,543.72,352.82,546.55,353.3,549.08Z"/><path class="cls-8" d="M270.35,548.6c0,1.73.06,3.46,0,5.18-.07,1.39-.86,2-2.28,1.62-2.44-.71-4.85-4.21-4.27-6.7a15.31,15.31,0,0,0,0-6.9c-.56-2.51.37-3.23,2.79-2.54s4,2.24,3.85,5.06c-.09,1.42,0,2.85,0,4.28Z"/><path class="cls-7" d="M309.18,544.81c.45-1.19-1.29-3.77,1.73-4.06s3.27,2.16,3.75,4.24c.65,2.86,1.25,5.74,1.85,8.61.28,1.3,1.42,3.06-.63,3.58s-4.62.53-5.06-2C310.24,551.84,308.33,548.69,309.18,544.81Z"/><path class="cls-7" d="M328.65,547c.58-2.75.09-5.91,3.79-7,1.18-.33,1.75-.24,2.46.84,2.81,4.25,1.08,8.61.34,12.88-.26,1.49-1.84,1.24-3.06.72C328.73,553,329.38,549.69,328.65,547Z"/><path class="cls-7" d="M304.57,548.28c.1.52.31,1.82.57,3.12s.29,2.26-.84,3a3,3,0,0,1-3.19.07c-2.37-1.25-3.79-3.09-3.64-5.86.13-2.24.37-4.47.53-6.7.12-1.63.9-1.83,2.27-1.25C303.5,542,304.69,543.84,304.57,548.28Z"/><path class="cls-1" d="M429.86,547.88c0,2.41-.85,4.33-.66,6.4.12,1.34-1.05,1.38-2,1.18-2.29-.51-3.95-1.91-4.15-4.29-.22-2.6-.85-5.21-.17-7.86.27-1.08.11-2.32,1.62-2.55a3.18,3.18,0,0,1,3.24,1.25A9.79,9.79,0,0,1,429.86,547.88Z"/><path class="cls-7" d="M467.86,546.39c0-.61-.05-1.22,0-1.82.1-1.13-.86-2.74.65-3.26s3,.31,4.3,1.1c1.12.67,1.27,1.67.87,2.91a7.63,7.63,0,0,0,1.22,6.94c.8,1.15,1.39,2.28.26,3.57s-2.32.55-3.4.18c-2.49-.84-3.61-2.87-3.87-5.35a40.51,40.51,0,0,1,0-4.27Z"/><path class="cls-6" d="M327.36,548.26a18.61,18.61,0,0,0,.3,3c.26,1,.82,2-.31,2.71s-1.87-.3-2.71-.78c-2.56-1.46-4.34-3.27-3.4-6.62.42-1.51-.23-3-.86-4.39a2.41,2.41,0,0,1,.59-3c1-.85,2.12-.44,3.1.19C327.38,541.48,327.21,545,327.36,548.26Z"/><path class="cls-7" d="M445.14,549.82c-.67,1.11,1.59,4-2.13,3.88-3.17-.1-4.75-1.56-4.61-4.67a11.89,11.89,0,0,0-.65-4.48c-.49-1.44-1.28-3,.68-4s3.62-.24,4.81,1.4C444.86,544.22,445.26,546.83,445.14,549.82Z"/><path class="cls-7" d="M217.41,554.74c-.15,1.76-1.35,2.27-3,1.83A4.77,4.77,0,0,1,211,553.3c-.78-2.63-1.34-5.32-1.88-8-.3-1.5.83-2.14,2-2.72a2.3,2.3,0,0,1,3,.75,10.9,10.9,0,0,1,2.54,6.11C216.85,551.15,217.14,552.86,217.41,554.74Z"/><path class="cls-7" d="M413.43,551.1a9.45,9.45,0,0,0,.39,4.51c.24.76.47,1.66-.42,2.18a2.06,2.06,0,0,1-2-.24c-3.32-1.77-6.36-8.57-5.43-12.21.52-2,2.52-2.64,4.28-1.1C412.45,546.18,414,548.51,413.43,551.1Z"/><path class="cls-7" d="M396.29,552.57c-3,.06-4.86-1.51-5.05-4.42-.09-1.28-.78-2.32-1-3.5-.32-1.73-.42-3.69,1.62-4.39a3.27,3.27,0,0,1,4.4,2.23c.84,2.29,1.56,4.62,2.45,6.9C399.66,551.85,398.44,552.53,396.29,552.57Z"/><path class="cls-7" d="M556.7,543.88a8.81,8.81,0,0,1,0,2.12c-.34,1.36,1.68,2.84.14,3.87s-3-.85-4.65-.56c-1,.16-1.22-.95-1.41-1.7a16.24,16.24,0,0,1-.52-7.51c.28-1.26-.3-3.47,2.11-3.34,2.18.12,4,1.09,4.34,3.49a24.4,24.4,0,0,1,0,3.63Z"/><path class="cls-1" d="M573.77,543.23a30,30,0,0,0,.56,3c.18,1.42-.08,3-1.63,3.56s-1.77-1.32-2.55-1.91c-3.09-2.32-2.75-5.52-3-8.54-.29-3.43.81-4,3.9-2.49C573.51,538,574.22,540.05,573.77,543.23Z"/><path class="cls-7" d="M485.44,553.29c-.23,1.16-.09,2.68-1.28,3.26-1.37.65-2.2-.75-3-1.57a10.75,10.75,0,0,1-3-9c.14-1.43.55-3.16,2.26-3.15s3.44.73,3.79,2.88C484.65,548.23,485,550.74,485.44,553.29Z"/><path class="cls-1" d="M510,551.56c-.13,1.6,1,4.4-.75,5.09s-2.55-2.37-4-3.51c-1.73-1.35-1.94-3.5-2.27-5.51-.3-1.77-.52-3.76,1.7-4.29a4.23,4.23,0,0,1,5,2.52C510.59,547.65,509.93,549.48,510,551.56Z"/><path class="cls-7" d="M542.55,549.74c-.19.56,1.24,2.62-.93,3.13-1.86.43-3.25-.89-4.22-2.45-1.92-3-1.57-6.46-1.5-9.81,0-1.29.81-1.44,1.9-1.19,2.27.51,3.93,1.62,4.33,4.09A20.82,20.82,0,0,1,542.55,549.74Z"/><path class="cls-1" d="M185.21,551a18.1,18.1,0,0,1,.22-3.45c.37-1.48.16-3.64,2-4s4.41,2.58,4.57,4.63a4.69,4.69,0,0,0,.28,1.78c1.13,2.07.38,3.32-1.49,4.43-1.55.91-3.29,1.82-4.82,1C184.26,554.43,185.6,552.36,185.21,551Z"/><path class="cls-7" d="M523.63,550.93c0,1.61-.75,2.25-2.12,2a4.77,4.77,0,0,1-3.5-2.21A16.59,16.59,0,0,1,516.4,542a2,2,0,0,1,2.12-1.79,3.7,3.7,0,0,1,3.61,2.3C523.48,545.21,522.61,548.32,523.63,550.93Z"/><path class="cls-7" d="M533.66,548.59c-.17,1.1.27,2.55-1.43,2.62s-3.71.41-4.48-1.69a28.77,28.77,0,0,1-1.67-7.41c-.09-1.17,0-2.23,1.43-2.67a2.69,2.69,0,0,1,3.25,1A15.1,15.1,0,0,1,533.66,548.59Z"/><path class="cls-7" d="M651,540.63a4.78,4.78,0,0,1,4.49,4.17,9.13,9.13,0,0,0,1.33,4.91c1.18,1.72.23,2.87-1.07,3.85-1.84,1.37-1.84-.81-2.56-1.46-2.86-2.56-4.4-5.57-3.79-9.61C649.61,541.22,649.71,540.61,651,540.63Z"/><path class="cls-1" d="M631.55,539.38c-.2-1.72-.31-3.72,2.5-3.93,2.45-.17,4.69,2.7,4.8,6,.1,3.06-1.14,5-3.23,5C633.16,546.43,631.64,543.89,631.55,539.38Z"/><path class="cls-1" d="M491.09,543.36c1.07.26,2.53.41,2.92,1.68a38.79,38.79,0,0,1,1.81,7.9c.14,1.54-1.06,2.59-2.92,1.62-2.73-1.42-5-7-4-9.83C489.38,543.56,489.75,543.31,491.09,543.36Z"/><path class="cls-7" d="M284.48,544.87c0,.33,0,.22,0,.13.41-1.37-1-3.4.87-4.08,1.48-.53,2.91.75,4,1.87a3.57,3.57,0,0,1,.47,4.53c-1,1.32-.83,1.93,0,3.08s.43,2.35-.62,3.27c-1.43,1.26-1.65-.41-2.23-1C284.34,550,284.36,549.93,284.48,544.87Z"/><path class="cls-1" d="M613.22,544.29c.17-1-.67-2.38.81-2.85a3.57,3.57,0,0,1,4.06,1.38c1.63,2.17,1.73,4.92,2.23,7.42.3,1.48-.88,2.73-3,1.86C613.61,550.62,613.47,547.5,613.22,544.29Z"/><path class="cls-1" d="M590.41,543a3.32,3.32,0,0,1-4.3,3.24c-2.84-1-4.73-7.2-2.78-9.45a2.07,2.07,0,0,1,2.8-.24A10.26,10.26,0,0,1,590.41,543Z"/><path class="cls-7" d="M603.24,537.7c0-1.44-.22-3.17,1.7-3.41a3.79,3.79,0,0,1,4.31,3.11,26.6,26.6,0,0,1,.55,6.37c0,1.63-1.33,1.54-2.5,1.13C604.58,543.94,603.28,541.62,603.24,537.7Z"/><path class="cls-7" d="M457.23,541.94a3.45,3.45,0,0,1,3.25,2.68,32,32,0,0,1,.63,5.45c.1,2.19-1.09,2.67-3,1.86s-4.81-6.37-4.22-8.26C454.35,542.33,455.5,541.89,457.23,541.94Z"/><path class="cls-1" d="M277,551.94a5.43,5.43,0,0,0-1.2-3.76,7.19,7.19,0,0,1-1.46-3.95,3.08,3.08,0,0,1,2.17-3.31c1.43-.51,2.3.31,3,1.46a17.8,17.8,0,0,1,1.94,3.4c.89,2.94.14,4.05-2.74,4.87C278.13,550.79,277.73,551.33,277,551.94Z"/><path class="cls-9" d="M171.76,554.53c0,.94.07,2.38-1.53,2.6a2.51,2.51,0,0,1-2.7-2,15.73,15.73,0,0,1-.77-3.56c-.08-1-.48-2.45,1-2.82a2.79,2.79,0,0,1,3.38,1.91A10.35,10.35,0,0,1,171.76,554.53Z"/><path class="cls-10" d="M148.91,553c1.08-.1,1.9.12,1.92,1.36a1.33,1.33,0,0,1-1.74,1.5c-1-.2-2.53,0-2.49-1.57C146.64,552.89,148.07,553.27,148.91,553Z"/><path class="cls-3" d="M484.35,225.66c0,1,0,2-1.51,2.57-.09-2-1.43-3.17-2.83-4.26A8,8,0,0,1,484.35,225.66Z"/><path class="cls-11" d="M188.59,361.28c1.33-.28,2.11.6,2.77,1.48,1.13,1.51.1,1.65-1.12,1.58Z"/><path class="cls-4" d="M255.19,272.77c3.2.48,6.4,1.1,9.64.8,1.85-.17,2.7,1.77,4.37,1.81a12.86,12.86,0,0,0,4.5-.31c8.16,1.69,16.72,2.33,22.88,9.05,1.29,1.4,3.56,1.65,4.31,3.68a3.47,3.47,0,0,0,1.37,2.9c1.44,1,2.32,2.29,1.38,4.17-.44.89.14,1.52.75,2.13,2.21,2.16,2.82,4.9,2.66,7.86-.45,8-.69,16-4.05,23.63-1.35,3.06-2.15,6.2-6,7-.9.19-1.1,1.08-1.53,1.77-2.11,3.51-4.91,5.28-9.19,6.5a41.12,41.12,0,0,1-14.18,2,217.4,217.4,0,0,1-24.22-3.27c-4.51-.81-9-1.7-13.49-2.6-7.68-1.56-13.54-5.94-19.17-10.84-2.13-1.85-4.11-3.94-3.67-7.21a1.8,1.8,0,0,0-.55-1.35c-2.93-2.74-2.83-6.34-3-9.93-.49-8.79,2.2-16.9,5.22-24.94.36-.93.83-2.21,1.58-2.54,4.38-1.89,5.63-7.25,10.13-8.92,2.5-2.68,6-3,9.23-3.48a48.39,48.39,0,0,1,17.59.36C253,271.32,254.38,271.53,255.19,272.77Z"/><path class="cls-5" d="M238.46,210.92c.39-1.86-.5-3.35-1.41-4.85-5.68-9.38-3.57-25.89,5.33-32.1s20.54-7.82,30.14.93a13.33,13.33,0,0,1,4.27,7.93c.35,2.27,1.15,3.08,3.35,1.8,6.51-3.76,12.62-2.83,18.55,1.49,2.06,1.5,3.88,3.19,4.55,5.57s2,2.6,3.85,2.11a27.79,27.79,0,0,1,5.75-.67,14.54,14.54,0,0,1,12.35,5.52c-.05.29-.24.69-.12.88,4.19,6.44,1.56,13,.13,19.42a7.45,7.45,0,0,1-4.57,5.35c-5.1,2.24-10,5.16-15.9,4.41-1.61-.2-3.2-.49-4.81-.74-.69-.62-.31-1.3-.05-1.93.38-.93,1-1.85,0-2.74s-2-.58-3.11-.12c-2.22.95-4.43,1.93-6.61,3-1.24.6-2.47,1.45-4,1-7.6-1.27-15.25-2.29-22.78-3.9-8.22-1.76-15.84-5-21.84-11.24C240.62,211.05,239.55,211.07,238.46,210.92Z"/><path class="cls-5" d="M471,292.39c-.33-10.2,4.3-17.52,13.08-22.42,1.42-.79,2.81-1.65,4.19-2.52a3.75,3.75,0,0,1,2.3-.65c16.18.84,28.4,11,32.11,26.76,1.21,5.15.64,10.32.18,15.5a3.33,3.33,0,0,1-.48,1.44c-3.71,5.44-7.4,11.16-13.6,13.87-5.25,2.29-10.83.89-16-1.18-12.14-4.82-18.46-14.45-21.69-26.54A16.82,16.82,0,0,1,471,292.39Z"/><path class="cls-12" d="M255.19,272.77a46.28,46.28,0,0,0-30.26,1.38c-.6-.8-1.15-1.66-1.83-2.4-7.6-8.27-8.42-18.86-2.18-28.37a2.71,2.71,0,0,0,.46-.78c2.28-8.71,9.77-10.28,16.88-11.85a21.19,21.19,0,0,1,21.36,6.81c2.65,2.95,4.59,6.48,3.24,10.8-.26.83.49,1.26.72,1.89.77,2.12,1.59,4.23-.29,6.27a2.53,2.53,0,0,0-.51,1.68c.39,5.64-2.33,9.74-6.36,13.23A15.62,15.62,0,0,0,255.19,272.77Z"/><path class="cls-12" d="M300.89,287.8a25.64,25.64,0,0,1-7-5.22,11,11,0,0,0-6.35-3.35c-3.87-.76-7.36-2.9-11.41-3-.8,0-1.6-.77-2.4-1.18-.77-3.47-1.71-6.92-1.52-10.55a16.89,16.89,0,0,1,1-5.38,87.36,87.36,0,0,1,5.34-10.53c2.51-4.44,7.56-6.1,12.35-7.22,8.41-2,16.49-1.71,22.94,5.23,2.65,2.86,4.41,6.11,4.42,10.12a10.87,10.87,0,0,0,.89,4.17c.45,1.05.93,2.25.47,3.25-2.18,4.75-1.28,10.44-5.08,14.77a28.67,28.67,0,0,1-12.83,8.47A5.23,5.23,0,0,0,300.89,287.8Z"/><path class="cls-5" d="M424.91,298.53c.43-5.76,2.68-11.71,9.17-15.32,1.35-.75,2.55-1.7,4,0,1,1.18,2.3.54,3.36-.07,3.15-1.81,6-1.11,8.87.74,8,5.23,10.67,13.74,8.77,23.11-1.75,8.62-7.18,12.29-14.79,14.08-3.21.76-6.26-.25-9-2C428.8,315,424.82,307.57,424.91,298.53Z"/><path class="cls-5" d="M464.69,348.91c0-7.89,5.52-16.35,14.43-18.2,3.76-.79,7,.51,10.48,3.07,6.21,4.57,8.79,10.64,10.18,17.52,1.24,6.11-1,11.35-5.9,15.11a14.61,14.61,0,0,1-16.71,1.39C469.83,363.79,464.78,357.89,464.69,348.91Z"/><path class="cls-5" d="M344.55,266.28c1.82.21,3.63.55,5.45.59a9.14,9.14,0,0,0,9-11.07c-1.43-7-3.86-13.44-9.41-18.3-.27-.23-.58-.83-.47-1,.9-1.54,2.86-1.36,4.12-2.42,1-.85,1.68.26,2.22.91a40.14,40.14,0,0,1,8.77,17.54,20.39,20.39,0,0,1-.47,11.23c-2,5.9-6.68,8.08-12.27,9.14a13,13,0,0,1-8.29-1c-1.65-.79-2.88-1.71-2.33-3.69C341.4,266.38,342.9,266.09,344.55,266.28Z"/><path class="cls-4" d="M286.14,227.13c3.33-1.5,6.69-2.93,10-4.55,1.71-.84,3.14-1.12,4.7.31,1.83,1.69-.1,2.66-.55,3.93-.14.37-.22.77-.33,1.15-3.06,5.39-9,5.77-13.91,8-2.1,1-4.48,1.31-6.37,2.79-1.24,1-2.3.26-3.35-.39a2.41,2.41,0,0,1-1-2.95,8.5,8.5,0,0,1,5.6-6C282.71,228.8,284.64,228.46,286.14,227.13Z"/><path class="cls-13" d="M252,137.77a11.28,11.28,0,0,0-5.33,4.28c-1.1,1.65-1,3,.85,4,.9.48,1.76,1,2.62,1.56,2,1.24,2.59,2.87,1.17,4.87s-3,1.87-4.74.53c-1.45-1.12-2.84-2.33-4.34-3.37-2.8-2-4.55-1.6-6.26,1.3-.8,1.37-1.55,2.64-3.45,2.45s-1.83-1.71-2.29-2.87c-.69-1.71,0-2.95,1.52-3.84.18-.11.34-.23.5-.35,1.24-1,3.24-1.88,3.54-3.13.45-1.93-2.28-1.75-3.32-2.92s-1.66-2.3-.67-3.8,2.1-2.28,3.83-1.59a12.1,12.1,0,0,1,2.61,1.5,4.68,4.68,0,0,0,6.39-.2C248.65,132.9,248.65,132.9,252,137.77Z"/><path class="cls-12" d="M162.54,211.15a13.67,13.67,0,0,1,1.69-.1c.77,0,1.73-.41,2.22.49s-.8,1.16-.84,1.73c-.36,4.69-3.54,4.6-7.06,4.6-2.43,0-3.58,1.67-3.07,4.21.15.7.16,1.42.32,2.11.23,1,.35,1.81-.7,2.38a2.24,2.24,0,0,1-2.81-.47c-1.74-1.84-3.7-3.64-3.28-6.56.31-2.13-.69-2.91-2.71-3.06s-4.35-.1-4.18-3.16c.14-2.42,2.16-4.08,4.93-3.74,1.51.19,2-.12,2.14-1.6a11.81,11.81,0,0,1,.61-3.29c.41-1.11.14-2.78,2.11-2.89a3.69,3.69,0,0,1,3.54,1.95,4.78,4.78,0,0,1,.83,2.88c-.22,4.23,0,4.41,4.28,4.52Z"/><path class="cls-5" d="M90,157.46c-3.1-3.46-2-7.52-1.36-11.36,1.44-9.25,6-17.06,12-24.07a121.3,121.3,0,0,1,44.46-33.26c8.41-3.66,17.3-4.55,26.36-4a7.19,7.19,0,0,1,5.39,2.51c2.7,3.59,2.54,4.85.56,8.56s-2.42,7.72-3,11.71c-.33,2.34-.87,4.36-2.55,6a5.66,5.66,0,0,0-1.45,2,42.64,42.64,0,0,1-7.08,11.92c-1.92,2.37-3.4,5.12-5.77,7.09-4.83,4-9.47,8.26-14.41,12.19-9.81,7.78-21.56,10.39-32.81,14.3-4,1.4-8.66,2.33-13.21,1.21-1.33-.33-2.64-.65-3.13-2.11C93.35,158.23,91.9,157.56,90,157.46Z"/><path class="cls-2" d="M90,157.46c1.61-1.08,2.84-1.68,4,.85.42.92.2,2.79,1.85,3,2.21.25,4.34.95,6.65.6,12.4-1.9,23.73-7,35.19-11.7a5.08,5.08,0,0,0,2.57-2.06,7.27,7.27,0,0,1,2.63-2.51c8.44-5.16,14.8-12.31,21-20,3.65-4.56,4.29-10.67,8.89-14.43a2.08,2.08,0,0,0,.67-1.65c-.81-4.11,2.47-7.54,1.85-11.61a1.4,1.4,0,0,1,.3-1.15c3.42-2.77,2.79-6,1.26-9.46,6-1.92,12,6.41,10.6,14-1.21,6.57-3.86,12.61-6.65,18.63-6.83,14.77-18,25.64-30.81,35.2-9.93,7.41-21,11.92-33,14.52C109,171.37,93.19,167.52,90,157.46Z"/><path class="cls-2" d="M113.51,79.17a30.84,30.84,0,0,1,3.6.8c3.33,1.08,3.87,2.29,2.79,5.64q-.8,2.46-1.48,5c-1.33,4.81-4.86,7.11-9.41,8.1-2.65.57-4.69-.69-6.48-2.59s-1.86-3.75-.67-6c1.42-2.69,2.36-5.64,4.59-7.86A9.74,9.74,0,0,1,113.51,79.17Z"/><path class="cls-2" d="M72.16,165.64c4.16,0,6.75,5.5,4.47,9.82a13.23,13.23,0,0,1-8.37,7.07c-3.81,1.05-5.42.32-7.91-2.67-1.93-2.31.26-3.84.63-5.58C62.06,169.23,67,165.67,72.16,165.64Z"/><path class="cls-2" d="M209.22,79.19c-3.81,3.15-6.64,2.83-9.59-1.07a7,7,0,0,1,2.21-10.18,67.09,67.09,0,0,0,6.36-4.19c1.86-1.38,3.29-.93,4.87.45s2.89,2.33,1.7,4.56a4.06,4.06,0,0,0-.27,3.53c.33.83.45,1.9-1,2a1.59,1.59,0,0,1-.61-.65c-.58-1.06-.64-3-2.53-2.2a3.34,3.34,0,0,0-1.79,4.36C208.9,76.88,209.92,77.87,209.22,79.19Z"/><path class="cls-14" d="M166.76,167.5c-4.64,2.86-7,2.44-9.26-1.63-.24-.42-.76-1.23-.4-1.3,2.86-.62.93-2.51,1.09-3.8.67-5.45,10.56-9.91,14.93-6.72,1.18.87,1.84,1.8,1,3.32-1.21,2.08-1.39,4.72-3.46,6.32-1.28-.89-.8-2.43-1.34-3.59-.43-.94-.79-2-2.08-1.86a2.27,2.27,0,0,0-1.93,2.09,6.62,6.62,0,0,0,.66,4.73C166.37,165.8,167.24,166.44,166.76,167.5Z"/><path class="cls-15" d="M166.76,167.5c-1.57-1.89-2.74-3.86-2.5-6.53.18-2,1-3.42,2.81-3.8,2.12-.43,2.68,1.32,3,3,.25,1.17.34,2.37.51,3.56C170.09,165.73,169.34,167.54,166.76,167.5Z"/><path class="cls-15" d="M209.22,79.19c-.41-1.66-2-3-1.83-4.71.26-2.06,1.41-4.2,3.63-4.28,2.4-.09,2.23,2.32,2.46,4.06C213.37,78.46,213.12,78.76,209.22,79.19Z"/><path class="cls-5" d="M60.9,77.47c-3-.53-6-1-8.68-2.48s-3-4.42-2.94-6.94c.23-5.49,1.9-10.56,6.09-14.5a6.19,6.19,0,0,1,5.25-1.91c4.36.61,8.65,1.35,11.73,5a7.1,7.1,0,0,1,1.6,6.5c-1,4.9-2.59,9.45-7,12.33A9.71,9.71,0,0,1,60.9,77.47Z"/><path class="cls-5" d="M77.32,38c3.21,0,7.46,3,8.56,6,1.15,3.16-1.27,6.66-5.19,7.5-3.53.75-9-2.09-10.48-5.4S72.9,38,77.32,38Z"/><path class="cls-2" d="M277.28,295.6c8.94,0,15.42,9.18,12.6,18.11a16.37,16.37,0,0,1-12.46,11.47,8.44,8.44,0,0,1-9.85-4.85c-.59-1.25-1.13-2.28-2.57-2.76a2.84,2.84,0,0,1-2-2.8c-.06-5.77-.42-11.67,6.15-14.68a2.61,2.61,0,0,0,1.12-1C271.88,296.19,274.47,295.43,277.28,295.6Z"/><path class="cls-2" d="M224.23,305.45a15.83,15.83,0,0,1,13-15.24c5.12-.81,12.59,5.3,13.08,10.7.87,9.39-5.6,16.6-14.95,16.67C228.91,317.62,224.25,312.56,224.23,305.45Z"/><path class="cls-2" d="M252.07,254.71a12.55,12.55,0,0,1-13.17,12.07c-4.74-.16-11.29-6.59-11.19-11,.12-5.74,6.69-12.26,12.2-12.12C247,243.85,252.23,248.59,252.07,254.71Z"/><path class="cls-2" d="M307.64,264.67c-.06,6.54-6,12.31-12.78,12.33-5.08,0-11.9-6.39-11.51-11.2.54-6.67,5.45-12.05,14.55-12.33C302.69,253.31,307.7,259.25,307.64,264.67Z"/><path class="cls-16" d="M115.29,91.37c.12,1.38-.31,2.49-2.06,2.57S109,91.27,109,89.07c0-1.82,1.13-2.44,2.75-2.49C113.92,86.51,115.24,88.23,115.29,91.37Z"/><path class="cls-17" d="M65.64,176.7a7.81,7.81,0,0,1,0-2.09c.58-1.87,1.8-3.37,3.82-3.36,2.48,0,1.45,2.18,1.62,3.51a5.53,5.53,0,0,1-.27,2.38,3.38,3.38,0,0,1-3.64,2.6C64.94,179.54,65.82,177.69,65.64,176.7Z"/></g></g></svg>