<svg xmlns="http://www.w3.org/2000/svg" viewBox="0 0 1280 413"><defs><style>.cls-1{fill:#7a0ed4;}.cls-2{fill:#3e412a;}.cls-3{fill:#d9006b;}.cls-4{fill:#85b93e;}.cls-5{fill:#fccb00;}.cls-6{fill:#3f412a;}.cls-7{fill:#d8006b;}.cls-8{fill:#63913c;}.cls-9{fill:#76a93d;}.cls-10{fill:#d8011c;}.cls-11{fill:#c10064;}.cls-12{fill:#0085b0;}.cls-13{fill:#af0e5f;}.cls-14{fill:#edbb00;}.cls-15{fill:#0092c8;}.cls-16{fill:#89a221;}.cls-17{fill:#0093d7;}.cls-18{fill:#00728d;}.cls-19{fill:#859e21;}.cls-20{fill:#7c244c;}.cls-21{fill:#0094d7;}.cls-22{fill:#008848;}.cls-23{fill:#476c37;}.cls-24{fill:#a17320;}.cls-25{fill:#39462b;}.cls-26{fill:#542c28;}.cls-27{fill:#016039;}.cls-28{fill:#6a8029;}.cls-29{fill:#c5930e;}.cls-30{fill:#7b2726;}.cls-31{fill:#060606;}.cls-32{fill:#040404;}.cls-33{fill:#030303;}.cls-34{fill:#040305;}.cls-35{fill:#06a6e0;}.cls-36{fill:#36b349;}.cls-37{fill:#25a9e0;}.cls-38{fill:#05673a;}.cls-39{fill:#dc2029;}.cls-40{fill:#ee3f30;}.cls-41{fill:#14a69c;}.cls-42{fill:#8cc53f;}.cls-43{fill:#f5931d;}.cls-44{fill:#f05840;}.cls-45{fill:#0e75b9;}.cls-46{fill:#0a9344;}.cls-47{fill:#fdca31;}.cls-48{fill:#283990;}.cls-49{fill:#d61d5c;}.cls-50{fill:#b41c2a;}.cls-51{fill:#f8ac1a;}.cls-52{fill:#9c1f61;}.cls-53{fill:#bdd331;}.cls-54{fill:#06502b;}.cls-55{fill:#91278f;}.cls-56{fill:#652f8d;}.cls-57{fill:#4fbae6;}.cls-58{fill:#727c83;}.cls-59{fill:#5fbbe2;}.cls-60{fill:#8c7778;}.cls-61{fill:#60997d;}.cls-62{fill:#8e7877;}.cls-63{fill:#f07462;}.cls-64{fill:#a2cf68;}.cls-65{fill:#f7a64a;}.cls-66{fill:#db7132;}.cls-67{fill:#755490;}.cls-68{fill:#5581b0;}.cls-69{fill:#6dc67a;}.cls-70{fill:#6a786b;}.cls-71{fill:#3b89c1;}.cls-72{fill:#738178;}.cls-73{fill:#4fb8e3;}.cls-74{fill:#707c84;}.cls-75{fill:#8e5d5e;}.cls-76{fill:#af5080;}.cls-77{fill:#a1cb6d;}.cls-78{fill:#62a3c3;}.cls-79{fill:#876586;}.cls-80{fill:#cc706a;}.cls-81{fill:#a76da6;}.cls-82{fill:#48b6e3;}.cls-83{fill:#42b6e4;}.cls-84{fill:#5b9ccc;}.cls-85{fill:#907c7a;}</style></defs><g id="Capa_2" data-name="Capa 2"><g id="Capa_1-2" data-name="Capa 1"><path class="cls-1" d="M1280,332.39c-127,59.58-238.94,78.89-331.5,80.5-201.39,3.51-235.79-78.05-426-59-148.51,14.87-201.85,72-339,50-81-13-143.6-46-183.5-71.5V8.39c43.15,22.4,108.89,50,191.5,58.5,132.3,13.61,178.35-35.09,309-58,240.44-42.17,319.85,81.49,600,43A917.47,917.47,0,0,0,1280,8.39Z"/><path class="cls-2" d="M213.35,204.14v-.66q0-7.26,0-14.5c0-.35.07-.54.44-.57a11.53,11.53,0,0,1,3.66.07,2.4,2.4,0,0,1,2.2,2.72c0,7.52,0,15,0,22.55,0,.49-.12.66-.65.72a10.94,10.94,0,0,1-4.07-.25,5.22,5.22,0,0,1-3.17-2.37c-2.58-4.22-5.2-8.42-7.8-12.62l-.34-.53v14.94c0,.74,0,.73-.73.82a9.59,9.59,0,0,1-3.5-.13,2.3,2.3,0,0,1-2-2.6V189c0-.25-.11-.55.32-.61a9.65,9.65,0,0,1,5.26.53,4.82,4.82,0,0,1,2.19,1.93Q209,197.26,213,203.6Z"/><path class="cls-2" d="M321.37,198.92v2.76c0,4.06,0,8.11,0,12.17,0,.41-.11.56-.53.6a11.11,11.11,0,0,1-3.77-.12,2.3,2.3,0,0,1-2-2.59c0-7.55,0-15.1,0-22.65,0-.52.16-.67.65-.72a10.08,10.08,0,0,1,4.53.42,5,5,0,0,1,2.6,2.1c2.6,4.23,5.23,8.44,7.84,12.66l.37.59V189c0-.24-.07-.49.33-.54a10.1,10.1,0,0,1,4.13.15,2.19,2.19,0,0,1,1.82,2.45q0,11.37,0,22.75c0,.49-.12.63-.61.68a10.25,10.25,0,0,1-4.44-.35,5,5,0,0,1-2.74-2.17q-3.87-6.27-7.75-12.52l-.34-.54Z"/><path class="cls-2" d="M160.07,188.15a39.73,39.73,0,0,1,9.49,1.23c.33.07.48.2.44.58a5.82,5.82,0,0,1-.69,2.42,3.05,3.05,0,0,1-2.63,1.65c-1.47.06-2.91-.22-4.37-.29a14.09,14.09,0,0,0-4.2.17,2.2,2.2,0,0,0-.88.4,1.09,1.09,0,0,0-.13,1.73,5.41,5.41,0,0,0,1.7,1c1.9.85,3.9,1.47,5.79,2.37a17.55,17.55,0,0,1,2.64,1.49c3.19,2.21,4,5,2.79,8.71-.88,2.69-3,4-5.58,4.68a18.82,18.82,0,0,1-6.35.3,43.27,43.27,0,0,1-8.18-1.71c-.53-.15-.64-.4-.47-.87s.23-.8.4-1.17a3.67,3.67,0,0,1,4.27-2.25,34.64,34.64,0,0,0,6.5.68,6.43,6.43,0,0,0,2.34-.39,1.84,1.84,0,0,0,1.29-1.52,1.67,1.67,0,0,0-.93-1.65,15,15,0,0,0-3.14-1.41,31.6,31.6,0,0,1-5.67-2.52,7.56,7.56,0,0,1-3.79-4.54c-1-3.87.36-7.52,5.25-8.68A16.1,16.1,0,0,1,160.07,188.15Z"/><path class="cls-3" d="M93.91,173.81a24.39,24.39,0,0,1,3.73-8.74c.21.25,0,.48,0,.71a6.15,6.15,0,0,0-.38,2.75,7.74,7.74,0,0,0,1.27,3.23,16.94,16.94,0,0,0,4.57,4.44,26.46,26.46,0,0,0,2.92,1.89,64.42,64.42,0,0,0,13.6,5.83,5.84,5.84,0,0,0,1,.29,15.18,15.18,0,0,1,2.7,1,6.79,6.79,0,0,1,1.26.92,2.19,2.19,0,0,1-.1,3.11,14.76,14.76,0,0,1-1.46,1.27,18.74,18.74,0,0,1-9.45,3.71.85.85,0,0,1-.32,0,50,50,0,0,1-6.17-3.29,42.36,42.36,0,0,1-6.25-4.56,22.94,22.94,0,0,1-5.72-7,12.72,12.72,0,0,1-1.23-4.26C93.79,174.67,94,174.25,93.91,173.81Z"/><path class="cls-4" d="M138.22,167.06c1.7,0,3.39.22,5.07.37,2.7.26,5.38.59,8.05,1.06a43.75,43.75,0,0,1,9.8,2.6,9.87,9.87,0,0,1,2.56,1.51c1.39,1.19,1.41,2.51,0,3.72a11.87,11.87,0,0,1-3.95,2.07,46.69,46.69,0,0,1-8.73,2c-3,.47-6.05.74-9.09,1h-.38c-1-1.67-2.1-3.25-3-5-.62-1.23-1.24-2.46-1.79-3.72a1.16,1.16,0,0,1-.05-1.1,1.57,1.57,0,0,1,.76-.23,10.18,10.18,0,0,0,3-.83c.88-.47,1-1.13.19-1.79a9.25,9.25,0,0,0-2-1.25C138.48,167.42,138.2,167.38,138.22,167.06Z"/><path class="cls-5" d="M120.78,196.85a44.83,44.83,0,0,0,5.59,1.41c1.33.27,2.68.32,4,.5,2.53.34,2.51,2.61,1.35,4a5.43,5.43,0,0,1-3.4,1.6c-1.58.29-3.2.29-4.77.65a3.28,3.28,0,0,0-1.38.56.34.34,0,0,1-.23.11,24,24,0,0,1-2.65-.56,71.8,71.8,0,0,1-11.76-3.92,36.43,36.43,0,0,1-8.47-5A17.87,17.87,0,0,1,94,190.05a11,11,0,0,1-.46-1.37A38.86,38.86,0,0,1,93,182.5c.26.05.25.28.3.46a12.28,12.28,0,0,0,4.65,6.8,20.36,20.36,0,0,0,10.26,4.13c1,.13,2.08.18,3.12.25a28.15,28.15,0,0,1,4.45.93c1.57.5,3.11,1.06,4.67,1.58A.55.55,0,0,1,120.78,196.85Z"/><path class="cls-2" d="M234.84,204.23c0,3.21,0,6.41,0,9.61,0,.45-.14.57-.57.61a11,11,0,0,1-3.66-.11,2.32,2.32,0,0,1-2.09-2.63q0-8.52,0-17.05c0-.45-.11-.58-.56-.57-1.86,0-3.72,0-5.58,0-.54,0-.67-.16-.68-.67a8.12,8.12,0,0,1,.33-3.21,2.62,2.62,0,0,1,2.65-1.83c5.44,0,10.88,0,16.32,0,.44,0,.61.15.64.56a10.13,10.13,0,0,1-.08,2.75,2.81,2.81,0,0,1-3,2.4c-1.09,0-2.17,0-3.25,0-.42,0-.54.1-.54.53C234.85,197.82,234.84,201,234.84,204.23Z"/><path class="cls-6" d="M254.6,200.08V189c0-.27,0-.48.35-.52a10.08,10.08,0,0,1,4.13.15,2.22,2.22,0,0,1,1.83,2.45c0,5.8,0,11.59,0,17.39,0,.54.16.64.67.64,3.12,0,6.25,0,9.38,0,.38,0,.55.05.61.5a3.2,3.2,0,0,1-2.14,3.8,15.57,15.57,0,0,1-4.61,1.08,31.07,31.07,0,0,1-4.92.23,9.24,9.24,0,0,1-3.32-.64,3,3,0,0,1-2-2.95Z"/><path class="cls-2" d="M273.06,200.11q0-5.58,0-11.14c0-.35.08-.52.45-.56a11.1,11.1,0,0,1,3.77.09,2.4,2.4,0,0,1,2.12,2.68c0,5.72,0,11.44,0,17.16,0,.71,0,.7.72.71,2.59,0,5.17,0,7.75,0,.34,0,.47.1.52.43a3.11,3.11,0,0,1-1.82,3.67,13,13,0,0,1-4.1,1.13,24.78,24.78,0,0,1-5,.23,7.76,7.76,0,0,1-2.32-.49,3,3,0,0,1-2.07-3Z"/><path class="cls-7" d="M125.17,153.26a2.48,2.48,0,0,1,1-.08,73.82,73.82,0,0,1,22.65,3,41.34,41.34,0,0,1,8,3.22,6.11,6.11,0,0,1,.67.46c.11.09.23.21.18.37s-.23.13-.36.14h-.38c-3.22,0-6.43,0-9.65,0-5.3.05-10.61.12-15.9.53-1.8.13-3.59.33-5.39.5a1.25,1.25,0,0,1-.26-.7,24.59,24.59,0,0,1-.45-5.07A17.21,17.21,0,0,0,125.17,153.26Z"/><path class="cls-2" d="M250.44,202.37c0,3.82,0,7.64,0,11.46,0,.44-.13.58-.57.62a10.71,10.71,0,0,1-3.66-.11,2.37,2.37,0,0,1-2.12-2.68V189c0-.26-.08-.53.35-.58a10.1,10.1,0,0,1,4.13.15,2.26,2.26,0,0,1,1.86,2.49Z"/><path class="cls-8" d="M120.55,184.33a3.33,3.33,0,0,1-1-.3,9.58,9.58,0,0,1-1.37-2.61c-.37-.91-.82-1.78-1.11-2.71a7.24,7.24,0,0,0-.7-1.9,1.28,1.28,0,0,1-.17-.62c-.13-1,.12-1.39,1.12-1.61,1.45-.32,2.89-.68,4.35-.92,1.92-.37,3.84-.75,5.78-1a1.26,1.26,0,0,1,.64,0,3.56,3.56,0,0,1,.55,1.39,32.59,32.59,0,0,0,1.44,3.45c.69,1.57,1.59,3,2.36,4.57.1.21.26.4.15.66l-4.57,1.1a4.05,4.05,0,0,0-.55.2.37.37,0,0,1-.36.11,29.36,29.36,0,0,0-4.78.11A11.47,11.47,0,0,1,120.55,184.33Z"/><path class="cls-4" d="M121.94,205.56h.25a11.11,11.11,0,0,1,1.25.48c.54.34.61.68.2,1.15a8.57,8.57,0,0,1-5.41,2.81,17.29,17.29,0,0,1-7.12-.49c-.21-.06-.43-.23-.67-.09s-.31,0-.45,0a40.76,40.76,0,0,1-8.54-4.75,19.75,19.75,0,0,1-4.64-4.75,6.25,6.25,0,0,0-.62-1.06,40.11,40.11,0,0,1-2.13-7.27c.27,0,.26.21.32.35a18.26,18.26,0,0,0,5,7.15,21.51,21.51,0,0,0,5.85,3.69,33.3,33.3,0,0,0,10.25,2.58,44.52,44.52,0,0,0,5,.19C121,205.48,121.46,205.61,121.94,205.56Z"/><path class="cls-9" d="M132.57,182.71c-.72-1.4-1.52-2.77-2.2-4.19a22.41,22.41,0,0,1-1.8-4.25c-.13-.52-.52-1-.44-1.54a.73.73,0,0,1,.56-.28c1.36-.23,2.72-.41,4.09-.56,1.16-.17,2.32-.28,3.48-.39a.61.61,0,0,1,.55.14,4.72,4.72,0,0,0,.84,2.52,49.45,49.45,0,0,0,2.84,5.27,10.54,10.54,0,0,0,.86,1.24,1,1,0,0,1,.23.74C138.56,181.75,135.56,182.15,132.57,182.71Z"/><path class="cls-10" d="M111.32,194.26a23.54,23.54,0,0,1-9-1.77,16.69,16.69,0,0,1-7.71-6.07A12.41,12.41,0,0,1,93,182.5a34.37,34.37,0,0,1,.9-8.69,20.32,20.32,0,0,0,.37,3,14.82,14.82,0,0,0,2.81,5.5,36.18,36.18,0,0,0,9.26,8.05,45.3,45.3,0,0,0,6.3,3.46c.18.08.34.2.52.29-.27.28-.64.21-1,.21A3.81,3.81,0,0,1,111.32,194.26Z"/><path class="cls-11" d="M125.17,153.26c.28.05.25.26.25.46,0,.63,0,1.27,0,1.9a23,23,0,0,0,.52,5.36,2.07,2.07,0,0,1,0,.43,88,88,0,0,0-9.09,1.66,1.55,1.55,0,0,1-1.1.11c-.37-.05-.45-.38-.53-.68a17.76,17.76,0,0,1-.29-2.42c-.17-1.53-.21-3.06-.3-4.59a1.07,1.07,0,0,1,.25-.91,36.18,36.18,0,0,1,5.37-1A35,35,0,0,1,125.17,153.26Z"/><path class="cls-12" d="M127.15,184h.3l2.63.37a53.49,53.49,0,0,0,5.68,8c.24.29.45.58.18,1-2.61.36-5.25.54-7.84,1.1l-2.46.54a24.84,24.84,0,0,1-1.6-2.21,9.53,9.53,0,0,1-1.05-1.69c-.1-.21-.23-.42-.07-.66.38-.33.76-.65,1.13-1,1.41-1.32,1.32-2.58-.26-3.7l-.58-.39a.5.5,0,0,1,.28-.24,32,32,0,0,1,3.18-1.06A1.29,1.29,0,0,1,127.15,184Z"/><path class="cls-13" d="M114.9,154.58a23.2,23.2,0,0,0,.09,3.82c.08.88.18,1.75.23,2.63a15,15,0,0,0,.2,1.5c.06.44.29.57.69.53a6.4,6.4,0,0,1,.76,0l0,.06a.25.25,0,0,1-.14.13,1.07,1.07,0,0,1-.47.06,52.73,52.73,0,0,0-8.52.45c-.8.13-1.59.32-2.39.4a.72.72,0,0,1-.63-.52,3.78,3.78,0,0,1-.3-1.52,10.87,10.87,0,0,0-.2-2.35,2.09,2.09,0,0,1,.09-1,33.69,33.69,0,0,1,10.62-4.24Z"/><path class="cls-14" d="M116.73,163.16l.11,0a81.89,81.89,0,0,1,13.95,1.76,38.76,38.76,0,0,1,6.68,2c.07,0,.12.08.19.11a1.11,1.11,0,0,1-.93.18,21.05,21.05,0,0,0-4.2,0,2.44,2.44,0,0,1-.54,0,64.5,64.5,0,0,0-11.4,1.58,24.44,24.44,0,0,1-2.57.55c-.41-.11-.53-.46-.62-.81a42.39,42.39,0,0,1-.88-4.6A.69.69,0,0,1,116.73,163.16Z"/><path class="cls-15" d="M135.94,193.35a1.23,1.23,0,0,0-.35-1,50,50,0,0,1-3.79-5c-.46-.75-1-1.46-1.48-2.18a1.4,1.4,0,0,1-.24-.81,33.72,33.72,0,0,1,10,3,8.19,8.19,0,0,1,2.92,2.27,1.16,1.16,0,0,1-.26,1.88,5.66,5.66,0,0,1-1.8.83A26.87,26.87,0,0,1,135.94,193.35Z"/><path class="cls-16" d="M121.94,205.56c-.15.14-.34.08-.51.08-1,0-1.92,0-2.87,0a40,40,0,0,1-4.77-.4,32.47,32.47,0,0,1-6.74-1.62,23.58,23.58,0,0,1-7.28-4.05A18.78,18.78,0,0,1,94.24,192c-.06-.15,0-.34-.18-.43a17.41,17.41,0,0,1-.52-2.85,18,18,0,0,0,2.11,3.82,24.08,24.08,0,0,0,6.9,5.93,58.41,58.41,0,0,0,15.25,6.12C119.17,204.92,120.56,205.22,121.94,205.56Z"/><path class="cls-17" d="M111.81,210a19.39,19.39,0,0,1,4.84,2.19,2,2,0,0,1,.4.36.8.8,0,0,1-.24,1.35,6.28,6.28,0,0,1-2.67.77,13.21,13.21,0,0,1-9.13-3,24.2,24.2,0,0,1-6.29-7.57c-.17-.3-.33-.6-.49-.9.29,0,.41.19.54.38,2.68,3.67,6.42,5.47,10.8,6.14A21.08,21.08,0,0,1,111.81,210Z"/><path class="cls-18" d="M122.92,190.43a8.3,8.3,0,0,0,1.44,2.58,11.16,11.16,0,0,1,1.28,2,32.91,32.91,0,0,0-4.3,1.55c-.19.09-.37.2-.56.31a33.35,33.35,0,0,1-3.63-1.17,27.18,27.18,0,0,0-5.63-1.35,1.59,1.59,0,0,1-.2-.07l1.85-.15a18.32,18.32,0,0,0,9.13-3.25Z"/><path class="cls-19" d="M131.92,167a42.28,42.28,0,0,1,5.74,0l.56.1a6.25,6.25,0,0,0,1.36.75,6.09,6.09,0,0,1,1.4,1,1,1,0,0,1-.28,1.8,10.26,10.26,0,0,1-3.15.91c-.24.05-.49.08-.74.11-1.35.08-2.68.23-4,.43.32-1.55-.61-2.84-.9-4.27C131.84,167.52,131.7,167.25,131.92,167Z"/><path class="cls-20" d="M104.28,158.82c.07.63.12,1.26.21,1.88a11,11,0,0,0,.32,2.85c.1.21.13.47.44.48,0,.29-.26.27-.43.31-.86.21-1.69.51-2.53.79a16.11,16.11,0,0,0-4.45,2.4,3,3,0,0,0-.74,1.08,5.51,5.51,0,0,1,.39-3c.06-.17.19-.31.15-.51a19.36,19.36,0,0,1,4.61-4.86A13.49,13.49,0,0,1,104.28,158.82Z"/><path class="cls-21" d="M122.07,217.38a4.15,4.15,0,0,1-1.6-.2c-1.11-.4-1.34-1.23-.55-2.13a4.36,4.36,0,0,1,2.13-1.22,9.14,9.14,0,0,1,4.53-.14,2.87,2.87,0,0,1,.71.26.65.65,0,0,1,.3,1,3.24,3.24,0,0,1-1.22,1.27A7.79,7.79,0,0,1,122.07,217.38Z"/><path class="cls-22" d="M111.81,210c-4.86-.12-9.11-1.65-12.42-5.38a11.24,11.24,0,0,0-1.16-1.42,35.66,35.66,0,0,1-2-4.39.28.28,0,0,1,.24.18,20.77,20.77,0,0,0,6.79,6.69,48.87,48.87,0,0,0,7.22,3.74Z"/><path class="cls-2" d="M364.13,214q-4.65-11.91-9.26-23.83a2.91,2.91,0,0,0-2.09-1.86,8.25,8.25,0,0,0-3.95.09.86.86,0,0,0-.73.6l-7.59,18.92c-.57,1.4-1.14,2.8-1.68,4.21a1.46,1.46,0,0,0,1,2.14l.36.11a12.61,12.61,0,0,0,4.2.09c.31,0,.36-.27.44-.48.54-1.44,1.08-2.87,1.6-4.31a.51.51,0,0,1,.57-.42c2.76,0,5.53,0,8.29,0a.5.5,0,0,1,.57.42c.25.76.54,1.49.79,2.25a3.53,3.53,0,0,0,2.22,2.27,10.15,10.15,0,0,0,3,.5c.6-.06,1.3-.15,2-.2C364.19,214.42,364.27,214.33,364.13,214Zm-10.82-10.39H349c-.13,0-.38.08-.26-.23l2.48-6.65c.8,2.25,1.55,4.4,2.31,6.54C353.67,203.49,353.58,203.56,353.31,203.56Z"/><path class="cls-2" d="M314.11,213.92q-4.67-12-9.3-23.93a2.81,2.81,0,0,0-1.9-1.7,5.26,5.26,0,0,0-1.77-.24,14.39,14.39,0,0,0-2.35.3.85.85,0,0,0-.69.58q-3.72,9.31-7.46,18.61c-.62,1.52-1.24,3-1.83,4.57a1.44,1.44,0,0,0,.93,2.08,3,3,0,0,0,.51.15,12.54,12.54,0,0,0,4.1.08c.3,0,.36-.24.44-.46.55-1.45,1.1-2.9,1.63-4.36a.48.48,0,0,1,.53-.39q4.19,0,8.35,0c.32,0,.43.12.52.4.24.74.54,1.46.77,2.2a3.6,3.6,0,0,0,2.49,2.42,10.42,10.42,0,0,0,4.71.22C314.21,214.4,314.26,214.29,314.11,213.92Zm-11-10.36c-1.35,0-2.71,0-4.06,0-.18,0-.44.09-.3-.29.81-2.15,1.61-4.31,2.47-6.6.78,2.22,1.5,4.31,2.26,6.4C303.67,203.48,303.59,203.57,303.15,203.56Z"/><path class="cls-2" d="M196.07,214,186.78,190a2.8,2.8,0,0,0-1.74-1.67,5.65,5.65,0,0,0-1.71-.3,12.73,12.73,0,0,0-2.72.33.69.69,0,0,0-.52.48q-4.58,11.43-9.18,22.88c-.61,1.53-.24,2.23,1.39,2.62a12.17,12.17,0,0,0,4,0c.26,0,.32-.23.4-.44l1.62-4.36a.49.49,0,0,1,.53-.4q4.2,0,8.4,0c.3,0,.4.13.49.37.23.7.52,1.39.73,2.1a3.7,3.7,0,0,0,2.86,2.65,11.23,11.23,0,0,0,4.51.11C196.28,214.38,196.16,214.18,196.07,214Zm-10.86-10.4c-1.37,0-2.75,0-4.12,0-.36,0-.43-.08-.3-.43.8-2.1,1.58-4.21,2.42-6.46.51,1.43,1,2.71,1.42,4,.29.83.57,1.67.88,2.49C185.65,203.51,185.55,203.56,185.21,203.56Z"/><path class="cls-23" d="M118.05,169.15l2.49-.56a4.07,4.07,0,0,1,.53,1.63c.22.78.48,1.55.71,2.33.12.43.24.88-.16,1.26-1.55.34-3.11.66-4.67,1-.59.13-.79.6-.62,1.44a1.74,1.74,0,0,0,.49,1.06.75.75,0,0,1,.25.63,2,2,0,0,0,.2,1c.56,1.3,1.1,2.61,1.66,3.91a1.32,1.32,0,0,0,.53.72c.17.09.34.27.07.46a45.62,45.62,0,0,1-5.66-2,62,62,0,0,1-7.45-3.55c-.19-.11-.36-.24-.54-.35a8.7,8.7,0,0,1,2.27-1c1.62-.57,3.24-1.13,4.89-1.57.76-.2.9-.48.63-1.21-.43-1.13-.59-2.35-1.08-3.46.06-.23.27-.26.45-.33,1.28-.5,2.6-.91,3.92-1.3A3.42,3.42,0,0,1,118.05,169.15Z"/><path class="cls-24" d="M103,176.31a16.17,16.17,0,0,1-4.56-4.43,7,7,0,0,1,1.63-1.39,25.94,25.94,0,0,1,2.74-1.81c.71-.47,1.48-.83,2.21-1.25.19-.11.4-.29.64-.08a40.15,40.15,0,0,0,1,4.86,3.43,3.43,0,0,0,.48,1.19c.09.21-.06.3-.2.39a36.67,36.67,0,0,0-3.64,2.44A1,1,0,0,1,103,176.31Z"/><path class="cls-25" d="M103,176.31a25.11,25.11,0,0,1,3.8-2.61,3.21,3.21,0,0,0,.3-.21,1.87,1.87,0,0,1,1-.67c1.28-.62,2.56-1.24,3.89-1.75.22-.08.45-.26.71-.08a4,4,0,0,1,.71,1.89q.24.84.51,1.65c.21.61,0,1.06-.6,1.22-2.06.53-4.06,1.24-6.06,2a5.17,5.17,0,0,1-1.32.46A20.32,20.32,0,0,1,103,176.31Z"/><path class="cls-26" d="M102.85,168.79a30.45,30.45,0,0,0-4.18,3,1.08,1.08,0,0,1-.24.12,6.55,6.55,0,0,1-1.33-3.27c-.16-.82.53-1.1,1-1.45a15,15,0,0,1,4.11-2.14.47.47,0,0,1,.34.38c.19.87.32,1.74.46,2.61A.88.88,0,0,1,102.85,168.79Z"/><path class="cls-27" d="M127.15,184l-3.94,1.33a22.45,22.45,0,0,0-2.66-1,5.7,5.7,0,0,1,1.83-.29,30.31,30.31,0,0,1,4.47-.12A.34.34,0,0,1,127.15,184Z"/><path class="cls-28" d="M121.62,173.81c.33-.82-.11-1.54-.33-2.28-.28-1-.55-1.95-.75-2.94a27.38,27.38,0,0,1,4.1-.85,42.87,42.87,0,0,1,6.49-.66c.26,0,.52-.16.79-.1a11.66,11.66,0,0,0,.78,2.83c.23.75.58,1.48.1,2.26a45.63,45.63,0,0,0-4.67.66c-1.26.12-2.51.35-3.76.58Z"/><path class="cls-29" d="M112.64,171a22.32,22.32,0,0,0-3.16,1.3c-.81.38-1.59.8-2.39,1.2-.31-.06-.38-.36-.43-.57a23.81,23.81,0,0,1-1.08-5.6c0-.26.27-.33.47-.41a65.36,65.36,0,0,1,8.68-3.4,14.3,14.3,0,0,1,1.58-.33l.42,0c-.23.71.13,1.38.19,2.06a21.19,21.19,0,0,0,.59,3.06c.08.35.13.72.54.87-1.34.43-2.69.85-4,1.3A6.36,6.36,0,0,0,112.64,171Z"/><path class="cls-30" d="M116.31,163.18a64.22,64.22,0,0,0-7.14,2.5c-1.21.52-2.42,1-3.59,1.64-.94.42-1.82,1-2.73,1.47a10.3,10.3,0,0,0-.36-2.76c-.07-.34,0-.74-.28-1,1-.42,2-.63,3-1a45.09,45.09,0,0,1,4.89-.74A57.7,57.7,0,0,1,116.31,163.18Z"/><path class="cls-31" d="M647.4,193.12a10.12,10.12,0,0,1,8.79-4.39c5.64.06,9.24,2.81,9.64,8.42.51,6.93.25,13.91.32,20.87,0,2.35-1.77,1.4-2.92,1.57-1.39.2-2.33-.06-2.29-1.85.09-4.64,0-9.29,0-13.93a39.72,39.72,0,0,0-.22-5.12c-.54-4-2.84-5.88-6.7-5.57-4.24.33-6.66,2.69-6.66,6.52,0,5.74-.06,11.49,0,17.23,0,1.9-.28,2.88-2.56,2.85s-3-.43-3-2.82c.14-8.06,0-16.12.1-24.18,0-1.19-1.08-3.07,1.29-3.54,2.06-.4,2.81.91,3.37,2.52A12.81,12.81,0,0,0,647.4,193.12Z"/><path class="cls-32" d="M714.31,181.25c0,.47.12.93.13,1.39.08,6.12.08,6.19,6.29,6.53,1.56.09,2.16.49,2.17,2.09s-.43,2.11-2.08,2.15c-2.11.06-4.93-1.14-6.16.67-1,1.43-.23,4-.23,6.09,0,3.05-.07,6.11,0,9.15.19,5.25,2.25,7,7.49,6.19,1.67-.25,2.6-.49,2.88,1.75s-.94,2.34-2.47,2.6c-9.82,1.67-13.71-3.66-13.16-11.22.28-3.76.09-7.56,0-11.35,0-1.85,1-4.31-2.67-4.08-1.37.09-.73-1.5-.84-2.37s.21-1.75,1.37-1.61c1.84.24,2.51-.6,2.15-2.29C708.39,182.83,710.77,181.61,714.31,181.25Z"/><path class="cls-33" d="M592.45,194.39c0-5.87.12-11.75-.06-17.62-.07-2.42,1.12-2.37,2.89-2.43s2.51.44,2.49,2.4c-.09,10.77,0,21.54,0,32.3,0,3.23.36,6.05,4.13,7.24,2.11.67,1,2.76.92,4.13-.1,1.92-1.74.83-2.57.7-4.88-.75-7.53-3.67-7.66-8.74-.16-6,0-12,0-18Z"/><path class="cls-34" d="M511.33,163.54c-20-.81-36.63,14.9-36.88,33.82-.25,19.3,15.35,35.65,34.21,35.85,20.48.21,36.66-15,36.85-34.62C545.68,181.29,532.44,164.38,511.33,163.54ZM500,168.85a39.16,39.16,0,0,1,10.42-1.66,36.74,36.74,0,0,1,11.41,2.22c1.29.47,1.59,1,.57,2.28-5,6.35-18.17,6.29-23.19-.11C498,170.08,498.08,169.39,500,168.85Zm-12.63,7.77c.8-.56,1.43-1.35,2.18-2,4.07-3.35,4.08-3.34,7.64.28,7.15,7.28,20.87,7,27.76-.63,1.55-1.72,2.65-2.58,4.53-.62,1.75,1.81,5.23,3.2,4.83,5.47s-3.88,3-6.26,3.9a48,48,0,0,1-18,3.09c-7.79-.11-15.32-1.31-22.25-5.19C485.38,179.6,484.79,178.38,487.33,176.62Zm-8.54,16.23a39.27,39.27,0,0,1,3.15-8.94c.7-1.38,1.17-1.59,2.69-.76,16.95,9.28,34,9.26,50.94,0,1.27-.69,1.9-.83,2.5.54.29.67.66,1.3,1,2,4.53,9.8,4,10.65-6.45,10.65H510.2c-9.53,0-19.07-.16-28.6.09C478.37,196.52,478.23,195.3,478.79,192.85Zm22.1,35.35c-2.92-.8-1.78-1.83-.56-3.08,5.93-6.06,16.89-5.56,23.23,1.46A33.24,33.24,0,0,1,500.89,228.2Zm30.78-7.06c-3.87,3.5-3.83,3.54-7.88.24-7.91-6.44-20.89-5.25-27.37,2.76-1.36,1.69-2.1,1.31-3.46.42a51,51,0,0,1-6.47-5.36c-1.8-1.66-1.51-2.53.47-3.72,7-4.14,14.61-5.41,22.51-5.53,10.67-.17,19.41,2.43,26.48,8.11A48.5,48.5,0,0,0,531.67,221.14Zm9.65-17.35a45.61,45.61,0,0,1-2.93,8.62c-.64,1.4-1.11,1.64-2.66.78-17.15-9.55-34.4-9.62-51.6-.11-1.37.76-1.8.51-2.39-.67a39,39,0,0,1-3-9c-.55-2.48-.08-3.41,2.75-3.36,9.55.18,19.1.07,28.65.07s18.85.13,28.27-.08C541.6,200,542,201,541.32,203.79Z"/><path class="cls-32" d="M576.42,178.47c-4.07-1.19-8.2-1-12.36-.85-2,.06-2.41.76-2.37,2.61.11,6.23,0,12.46,0,18.69s0,12.22,0,18.33c0,1.72-.11,2.94,2.34,3s2.83-.94,2.69-3c-.16-2.55,0-5.13,0-7.69,0-5.31,0-5.3,5.06-5.48a24.09,24.09,0,0,0,3.29-.3c6.14-1.07,9.8-5.41,10.19-12C585.67,184.34,583,180.38,576.42,178.47Zm-8.7,20.37c-1.38-.55-1-1.52-1-2.39,0-3.52.16-7.06-.08-10.57-.19-2.89,1-3.72,3.26-3.33,6.83.12,10.26,3,10.15,8.25C580,196.78,573.3,201.06,567.72,198.84Z"/><path class="cls-32" d="M754.69,218.39c-3.37-3.27-1.86-7.34-2.12-11.1-.16-3-.18-6.11-.52-9.13-.42-3.79-2.29-6.67-6-8a17.8,17.8,0,0,0-13.55.78c-1.76.78-2.09,1.59-1.09,3.29.86,1.46,1.2,2.07,3.14,1,5.45-3,11.14-1.38,12.3,3.08.5,1.92.85,3.13-2.23,2.6-6.44-1.13-13.13,2.33-15.15,7.21a9.22,9.22,0,0,0,2.49,10.34c3.26,2.82,8.85,3,13,.25,1.62-1.08,2.81-2.68,4.31.21.67,1.28,2.48,1.43,3.94,1.65C755.24,220.9,755.43,219.11,754.69,218.39ZM747.05,209c0,5.4-4.59,8.74-9.82,7.16-3-.91-4.1-4.44-2.3-7.48s7.13-5.05,10.61-3.89C747.05,205.33,747.05,205.33,747.05,209Z"/><path class="cls-32" d="M634.46,218.47c-3.27-3.59-1.83-7.87-2.35-13.12a61.14,61.14,0,0,0,0-6.45c-.37-3.86-1.94-7.1-5.84-8.58a17.26,17.26,0,0,0-13.88.64c-1.48.69-2,1.39-1.17,3.08s1.26,2.25,3.33,1.12c5.34-2.94,11.15-1.18,12.22,3.32.4,1.67.81,3.09-2.08,2.45a14.56,14.56,0,0,0-10.26,1.84c-5,2.77-7,7.71-5.07,12.32s6.39,6.69,11.91,5c3.56-1.08,6.86-4.15,10.27.18.22.28.92.2,1.4.29C634.92,221,635.2,219.28,634.46,218.47ZM627,208.88a7.5,7.5,0,0,1-10.36,7.17c-2.6-1.08-3.51-4.4-2-7.17,1.82-3.26,7.38-5.24,10.94-4C628.18,205.69,626.36,207.76,627,208.88Z"/><path class="cls-32" d="M694.84,190.35a12.28,12.28,0,0,0-14.31,1.42c-4.06,3.61-5.45,8.37-5.35,13.52.26,12.69,9.75,18.94,20.87,13.73,1.47-.69,2.2-1.51,1.17-3.41s-1.64-1.28-3-.58c-6.82,3.48-12.89.15-13.94-7.35-.29-2.1.36-2.56,2.26-2.48,2.56.12,5.14,0,7.7,0s5.38,0,8.07,0c1.15,0,2,0,2.35-1.56C701.61,199,699,192.77,694.84,190.35Zm-.72,11.05c-2.06-.08-4.14,0-6.21,0h-4.38c-3.39,0-3.75-.68-2.09-3.78a7.69,7.69,0,0,1,8.52-4.18c3.28.57,5,2.73,5.82,5.79C696.23,200.8,695.84,201.46,694.12,201.4Z"/><path class="cls-35" d="M993.22,220.48c-10.31,0-18.1-5.89-20.14-15.24-2.36-10.82,1.94-20.72,10.9-24.85a19.39,19.39,0,0,1,8.91-1.7c3.58.11,7.14-.1,10.51,1.3,1.41.58,3.64.8,3.7,2.54a11.42,11.42,0,0,1-2.28,6.46c-.63,1-1.55.17-2.26-.12-3.27-1.33-6.72-2.25-10.18-1.75-7,1-11.19,7.14-10.06,14.35,1.43,9.08,7.08,11.07,14.74,10.22a22.06,22.06,0,0,0,6.45-1.8c.52-.23,1.1-.78,1.62-.36,1.88,1.53,1.9,3.95,2.59,6,.48,1.44-.93,2-1.93,2.52C1001.84,220.08,997.56,220.43,993.22,220.48Z"/><path class="cls-35" d="M1107,190.22l.5-.28c3.33-.63,3.33-.63,3.29-4.32,0-.25,0-.49,0-.73.58-6.86,6.4-10,13.63-9.29.49.05,1,.2,1.46.27,4.54.58,4.71.95,3.54,5.29-.52,1.92-1.41,2.44-3.37,2.16-4.84-.69-6.56,1.07-6.26,6.09,2.27.65,4.64-.1,6.92.42,2.27,1.65,1.13,4,.9,5.92-.2,1.63-2.09.86-3.21.88-4.71.08-4.71,0-4.71,4.71,0,5.32-.05,10.64,0,16,0,1.69-.46,2.53-2.26,2.33-2.12-.24-4.3.44-6.38-.42-.55-5.13-.07-10.28-.25-15.41-.09-2.31.33-4.63-.26-6.92-1.18-.73-2.84.6-3.84-.9C1107,194.07,1106.47,192.12,1107,190.22Z"/><path class="cls-35" d="M1058.41,219.13c-2.65,1-5.39.4-8.09.39-1.21,0-1.17-1.22-1.17-2.14,0-3.74-.1-7.49,0-11.24a57.13,57.13,0,0,0-1.19-13.62c-.44-2,.16-3,2.26-3,.33,0,.66-.06,1-.1,5-.64,5-.64,6.52,4.16a31.44,31.44,0,0,1,2.09-2.47c2.2-2.09,7.18-2.79,10-1.44,1.25.61,2,1.45,1.34,3a17.48,17.48,0,0,0-.56,1.91c-1.2,4.11-1.2,4.11-5.2,3.45-2.77-.45-4.81.76-6.47,2.82-.53,5.05-.08,10.11-.24,15.16C1058.61,217,1058.9,218.09,1058.41,219.13Z"/><path class="cls-36" d="M916.59,202.5c2.3,4.07,4.35,8.22,4.57,13,.05,1.09-.5,1.5-1.42,1.62q-5.76.72-11.53,1.41c-1.31.16-1.76-.45-1.7-1.73s0-2.83,0-4.24a46,46,0,0,1,.06-9.67l.48-.39A55.84,55.84,0,0,0,916.59,202.5Z"/><path class="cls-37" d="M933,175.84c.41,1.7-.26,2.54-2,3.07a20.06,20.06,0,0,0-10,7.16c-.38.49-.64,1.4-1.41,1.25s-.52-1.13-.6-1.7c-.6-4.09-1.07-8.19-1.64-12.28-.18-1.24-.06-2.19,1.39-2.38,4.19-.55,8.37-1.07,12.55-1.64.53-.07,1-.14,1.3.38C933.16,171.72,932.57,173.81,933,175.84Z"/><path class="cls-38" d="M906.14,173.44c1.42-1.66,3.63-.59,5.3-1.5.53-.29,1.36,0,2-.2,2-.66,2.31.65,2.5,2,.55,4,1,8,1.57,12,.26,1.86-.06,3-2.29,3.19s-4.24.68-6.38.83c-.91.07-2.28.77-2.67-.93C906.37,183.74,906.38,178.59,906.14,173.44Z"/><path class="cls-39" d="M955.22,184.33c-.21,1.36-1.1,1.22-1.7.52-2.57-3-6.08-4.62-9.42-6.49a25.66,25.66,0,0,1-.05-7.11c0-.83.06-1.66.05-2.49,0-.64.15-1.28.84-1.3,3.29-.09,6.41-1.45,9.72-1.18.2,0,.38.29.57.44C955.51,172.59,955.52,178.46,955.22,184.33Z"/><path class="cls-40" d="M942.54,222.13c-.39-2.09.26-3.3,2.5-4a18.55,18.55,0,0,0,7.68-4.88c.95-1,1.93-1.56,2.5.36a114.43,114.43,0,0,1,0,14.93c-4.14,1-8.34.38-12.52.38-.49,0-.46-.59-.43-1C942.63,226,942.08,224,942.54,222.13Z"/><path class="cls-41" d="M932.8,162.37c-.21,5.62.7,4.71-4.24,5.49-3.26.51-6.54.87-9.79,1.41-1.43.24-1.89-.19-2.09-1.6-.9-6.06-.95-6,4.82-8.46a47.47,47.47,0,0,1,9-2.66c1.34-.26,1.9.09,2,1.39C932.63,159.68,932.74,161.41,932.8,162.37Z"/><path class="cls-42" d="M906.68,221c1.72-1.21,3.76-.88,5.67-1.15,2.37-.33,4.74-.66,7.11-.95.91-.11,2-.26,2.16,1,.43,2.77.78,5.55,1.11,8.33,0,.19-.43.43-.66.65-4.67-.27-9.35-.19-14,0a2.2,2.2,0,0,1-1.35-1.36A45.63,45.63,0,0,0,906.68,221Z"/><path class="cls-43" d="M904.38,218.48c-3.24,1.52-3.49,1.44-5-1.56a43.34,43.34,0,0,1-3.8-12.28c-.28-1.55.13-2.17,1.73-2.09a37.61,37.61,0,0,0,5,0c1.87-.16,2.38.7,2.16,2.34C904.13,209.41,904.24,213.94,904.38,218.48Z"/><path class="cls-44" d="M955.24,236.6c0,1-.67,1.22-1.38,1.51A46.28,46.28,0,0,1,943.4,241c-.89.14-2,0-1.7-1.09.53-2.22-.14-4.46.38-6.65.15-1.63,1-2.13,2.65-2,3.47.26,7-.27,10.43.28l0-.06A15,15,0,0,1,955.24,236.6Z"/><path class="cls-45" d="M924.71,228.41c-.84-2.85-.84-5.82-1.27-8.73a1,1,0,0,1,.81-1.31,12.74,12.74,0,0,1,9.32.78c1.63.86.55,2.57.84,3.86-.26,1.84.24,3.72-.28,5.54h0A35.67,35.67,0,0,1,924.71,228.41Z"/><path class="cls-46" d="M906.77,200.46c-1.37-2.6-.47-5.33-.39-8,0-.56.65-.88,1.09-.9,3-.11,6-1.26,9.1-.67.56.11,1.46.07,1.29.8-.68,2.92-.32,6.06-1.81,8.8A43,43,0,0,1,906.77,200.46Z"/><path class="cls-47" d="M904.46,173.45c0,4.8-.06,9.45,0,14.1,0,1.9-.36,3.15-2.59,2.9a1.1,1.1,0,0,0-.25,0c-6.47.94-6.49.94-4.33-5.18a46.84,46.84,0,0,1,5.1-10.51A2.1,2.1,0,0,1,904.46,173.45Z"/><path class="cls-48" d="M929.89,231c5.26,0,5.26,0,5.19,5.29s-.07,5.26-5.22,4.29c-3.89-.74-3.89-.74-4.46-5.28-.54-4.29-.54-4.29,3.74-4.3Z"/><path class="cls-49" d="M942.55,161.08c.08,4.84-1.69,6.37-6.67,5.82-.81-.08-1.25-.43-1.26-1.22,0-2.64-.6-5.25-.36-7.91.11-1.14.45-1.7,1.66-1.53a11.21,11.21,0,0,0,1.74.1C942.48,156.29,942.48,156.28,942.55,161.08Z"/><path class="cls-50" d="M944.29,161.45c0-5.25.09-5.33,4.79-4,1.51.43,3,1,4.47,1.47,1.73.59,2.07,2.06,2,3.58s-1.16,1.93-2.54,2.06a48.35,48.35,0,0,0-6.36.85c-2.2.51-2.66-.48-2.51-2.32Z"/><path class="cls-51" d="M899.59,200.8c-4.69,0-5.11-.48-4.44-5.16.24-1.66.66-2.95,2.85-2.8a15.38,15.38,0,0,0,4.66-.56c1.53-.38,1.74.38,1.78,1.52,0,.74,0,1.49,0,2.24C904.43,201.39,904.91,200.77,899.59,200.8Z"/><path class="cls-52" d="M942,175.38c.19,2-.43,3.05-2.67,2.53a7.64,7.64,0,0,0-2.24,0c-1.74.13-2.45-.69-2.32-2.38a20.62,20.62,0,0,0,.14-2.48c0-1.44-1.12-3.38.44-4.14a11.58,11.58,0,0,1,6.24-.79c.39,0,.45.42.46.77A24.82,24.82,0,0,0,942,175.38Z"/><path class="cls-53" d="M914.16,230.57c2.18.58,4.83.43,7.47.4,1,0,1.55.39,1.68,1.37.2,1.55.44,3.1.57,4.65.12,1.31-.35,1.85-1.76,1.26a40.41,40.41,0,0,1-9.28-5.13c-.67-.52-2-.84-1.59-1.89S912.83,230.59,914.16,230.57Z"/><path class="cls-54" d="M907.74,170.93c-.6-.12-1.21,0-1.42-.57s.29-.73.56-1a38.45,38.45,0,0,1,5.71-5.18c1.1-.82,1.9-.54,2.07.88.65,5.51,1.82,4.28-3.63,5.43C909.89,170.7,908.7,170.39,907.74,170.93Z"/><path class="cls-55" d="M940.48,226c-.71.9.71,2.66-1.24,3.06-2.23.45-2.64,0-2.71-2.9a20.28,20.28,0,0,1,.05-6.27,4.92,4.92,0,0,1,3.54-.2C940.72,221.78,940.09,223.92,940.48,226Z"/><path class="cls-56" d="M940.1,234.51c0,1.65,0,3.3.06,5,0,1.37-.58,2-1.94,1.93s-1.66-.75-1.6-1.94c.07-1.48,0-3,0-4.45a3.52,3.52,0,0,0,.18-1.7c0-1.09-.19-2.14,1.54-2.1,1.56,0,1.74.89,1.72,2.07C940.1,233.68,940.11,234.1,940.1,234.51Z"/><path class="cls-57" d="M1110.52,196.88c1,.54.49,1.48.49,2.21,0,6.71,0,13.42,0,20.12-.8-.63-.51-1.53-.51-2.32Q1110.49,206.89,1110.52,196.88Z"/><path class="cls-58" d="M1081.47,207.58c0-1,.83-.62,1.3-.62,5.74,0,11.48,0,17.21.06-1,.84-2.23.38-3.34.4C1091.58,207.52,1086.53,207.53,1081.47,207.58Z"/><path class="cls-59" d="M1058.41,219.13c0-5.16,0-10.31,0-15.46,0-1-.22-2,.47-2.88,0,5.41,0,10.84,0,16.26C1058.9,217.76,1059.16,218.57,1058.41,219.13Z"/><path class="cls-60" d="M955.22,184.33q0-8.81,0-17.61c.95,2.89.37,5.87.37,8.8S956.19,181.44,955.22,184.33Z"/><path class="cls-61" d="M906.14,173.44c.42,5.15.81,10.3,0,15.45Z"/><path class="cls-62" d="M955.19,228.55l0-14.93c1,3.67.25,7.41.4,11.11C955.66,226,956.11,227.37,955.19,228.55Z"/><path class="cls-63" d="M955.16,231.48c-3.39,0-6.79.07-10.18,0a2.63,2.63,0,0,0-2.9,1.75c-.26-1.11-.47-2.22,1.25-2.22,3.78,0,7.56,0,11.34,0C954.84,231.05,955,231.33,955.16,231.48Z"/><path class="cls-64" d="M908,228.84a53.15,53.15,0,0,1,14,0A99.54,99.54,0,0,1,908,228.84Z"/><path class="cls-65" d="M904.38,218.48a48.41,48.41,0,0,1,.06-13.6A84.6,84.6,0,0,1,904.38,218.48Z"/><path class="cls-66" d="M904.48,224.64a6,6,0,0,1-2-2.12c-.31-.41-.61-1-.16-1.31s.92-.2,1.41-.24a.74.74,0,0,1,.91.86C904.6,222.69,904.54,223.54,904.48,224.64Z"/><path class="cls-67" d="M940.1,234.51c-1-.76.27-3.1-1.84-2.89s-.48,2.5-1.59,3.38c-.06-.57-.14-1.13-.19-1.7-.14-1.48.08-2.42,2-2.4s2.06,1.12,2,2.52C940.5,233.83,940.5,234.24,940.1,234.51Z"/><path class="cls-68" d="M926.35,216.11a22.07,22.07,0,0,1-2.43.53c-1.13.09-.88-1-1.21-1.58a.94.94,0,0,1,.28-1.32c.68-.3,1,.45,1.38.79Z"/><path class="cls-69" d="M916.59,202.5a22.63,22.63,0,0,1-9.59,0A53.89,53.89,0,0,1,916.59,202.5Z"/><path class="cls-70" d="M906.52,202.92l-.06,9.67A20.93,20.93,0,0,1,906.52,202.92Z"/><path class="cls-71" d="M924.71,228.41l9.46.13C931,229.27,927.84,229.62,924.71,228.41Z"/><path class="cls-72" d="M906.77,200.46l9.28,0A19.29,19.29,0,0,1,906.77,200.46Z"/><path class="cls-73" d="M1110.74,184.89a7,7,0,0,1,.28,1.18c.27,3.78.21,3.84-3.52,3.87.27-.13.57-.41.81-.37,1.87.29,2.44-.53,2.22-2.3A10.8,10.8,0,0,1,1110.74,184.89Z"/><path class="cls-74" d="M1126.66,189.83c-2.31-.11-4.67.63-6.92-.42C1122,189.62,1124.4,189,1126.66,189.83Z"/><path class="cls-75" d="M944.05,171.25c0,2.37,0,4.74.05,7.11A11.89,11.89,0,0,1,944.05,171.25Z"/><path class="cls-76" d="M942,175.38a10.54,10.54,0,0,1,.05-6.5C942.12,171.05,942.45,173.22,942,175.38Z"/><path class="cls-77" d="M906.68,221a12.93,12.93,0,0,1,0,6.51A28.35,28.35,0,0,1,906.68,221Z"/><path class="cls-78" d="M933,175.84c-.69-2-.33-4.09-.33-6.14C933.62,171.7,932.93,173.79,933,175.84Z"/><path class="cls-79" d="M936.58,219.9q0,3.14-.05,6.27A9.19,9.19,0,0,1,936.58,219.9Z"/><path class="cls-80" d="M942.54,222.13a15.74,15.74,0,0,1-.3,5.8C942.26,226,941.66,224,942.54,222.13Z"/><path class="cls-81" d="M940.48,226c-.88-2.06-.05-4.22-.36-6.31C941,221.76,940.58,223.89,940.48,226Z"/><path class="cls-82" d="M1072.65,201.9a11.87,11.87,0,0,1,0,5.56A13.53,13.53,0,0,1,1072.65,201.9Z"/><path class="cls-83" d="M1107,190.22c-.1,1.92.37,3.87-.32,5.76C1106.52,194,1106,192.09,1107,190.22Z"/><path class="cls-84" d="M934.13,228.55c.16-1.84-.43-3.72.28-5.54C934.62,224.87,935.05,226.75,934.13,228.55Z"/><path class="cls-85" d="M955.24,236.6c0-1.72,0-3.45,0-5.18A6.83,6.83,0,0,1,955.24,236.6Z"/><path class="cls-35" d="M1041.92,197.29c-3-6.24-10.36-9.55-18.39-8.15-13,2.28-16,16.34-10.26,24.7,3.45,5,8.56,6.75,14.53,6.66,9.31-.15,15.67-6.44,15.66-16.07A13.1,13.1,0,0,0,1041.92,197.29Zm-14.76,15.57c-4.67.16-7.78-3.37-7.72-8.43.06-4.83,3-7.71,7.83-7.67,4.51-.44,7.6,3.12,7.46,8C1034.58,210.25,1031.76,212.7,1027.16,212.86Z"/><path class="cls-35" d="M1162.31,204.76c0-10.66-5.89-15.83-19.08-15.56-6.88.13-13.69,5.31-13.79,15.46-.09,9.36,6.77,16,17,15.86C1156.2,220.39,1163,213.07,1162.31,204.76Zm-16.24,8.13c-4.53.05-7.74-3.36-7.76-8.22,0-4.69,2.85-7.89,7.1-7.91,5.43,0,8.33,2.77,8.27,8C1153.61,209.52,1150.51,212.85,1146.07,212.89Z"/><path class="cls-35" d="M1100.25,194.54c-3.26-4.78-9.43-6.75-16.22-5.21-6.47,1.47-10.34,5.74-11.38,12.57.08,1.85,0,3.7,0,5.56a13.73,13.73,0,0,0,2.5,6.65c5.37,8.11,18.12,7.33,24,4.28a2.11,2.11,0,0,0,1.16-2.66c-.56-1.49-.26-3.41-2-4.33a1.55,1.55,0,0,0-1.18.11c-1.85.83-3.86.9-5.79,1.38a8,8,0,0,1-9.9-5.31c.68-.75,1.56-.35,2.34-.37,5.39-.14,10.79.21,16.17-.19a2.55,2.55,0,0,0,2.63-2.72C1102.72,200.83,1102.26,197.48,1100.25,194.54Zm-7.86,7.3c-1.5,0-3,0-4.5,0-1.25,0-2.51.07-3.75,0-.85-.07-2.11.57-2.44-.41-.2-.64.53-1.68,1-2.43,2.46-3.79,9.17-3.77,11.27,0C1095.09,201,1094.63,201.82,1092.39,201.84Z"/></g></g></svg>