<svg xmlns="http://www.w3.org/2000/svg" viewBox="0 0 700.79 401.14"><defs><style>.cls-1{fill:#55b6c8;}.cls-2{fill:#f1bb1c;}.cls-3{fill:#e76368;}.cls-4{fill:#e66166;}.cls-5{fill:#193948;}.cls-6{fill:#54b7c9;}.cls-7{fill:#e8666a;}.cls-8{fill:#e86669;}.cls-9{fill:#e8696a;}.cls-10{fill:#fefefe;}.cls-11{fill:#fefdfa;}.cls-12{fill:#fefdfb;}.cls-13{fill:#fefcf9;}.cls-14{fill:#f8df96;}.cls-15{fill:#dedede;}.cls-16{fill:#dfdfdf;}.cls-17{fill:#fdfdfd;}</style></defs><g id="Capa_2" data-name="Capa 2"><g id="Capa_1-2" data-name="Capa 1"><path class="cls-1" d="M331.11,62.55c.43-2,.52-4.12,1.36-5.9,4.09-8.64,7.43-17.59,10.74-26.54C348.61,15.5,359.55,8.8,374.53,7c15.41-1.89,31-1.74,46.36-3.55a487.31,487.31,0,0,1,84-2.68c39.63,2.21,79.26,2.56,118.91,2.63,9,0,17.7,2,26.21,4.85,13.47,3,19.72,18.76,18.65,30.22-.53,5.63-2.18,11.07-3.46,16.57-4.76,20.61-7.58,41.66-14.1,61.88a38,38,0,0,0-1.87,13,8.79,8.79,0,0,1-.38,3.73c-5,11.86-5.24,24.79-8.35,37.08a137.35,137.35,0,0,1-8.25,23,83.09,83.09,0,0,0-5.61,18.89c-2.87,15.07-7.56,29.49-16.33,42.25-5.93,8.62-14,14.19-24.57,15.68-20.53,5.08-41.3,2.64-62,1.93a7.39,7.39,0,0,1-4.12.59c-9.06-.28-18.11-.9-27.15-1.48-6.2-.4-7,.16-8.12,6.06-2.41,12.87-3.41,25.73-.81,38.7a24.42,24.42,0,0,1,.23,6.56c-.95,13.12,1.9,26.22.3,39.35-.36,2.94,1.47,3.15,3.83,3.16,7.05,0,14-1.12,21.07-1.15,12.36,0,24.67,1.52,37,1a7.2,7.2,0,0,1,4.86,1.42c7,1,14.08.71,21.13.82,7.7.12,12.18,3.23,13.73,9.54,1.83,7.49-.89,15.24-6.78,18.58-8.32,4.7-17.61,5.71-26.84,5.6-13.46-.16-26.93-1.07-40.37-1.94a347.46,347.46,0,0,0-38.05-.05c-19.27.88-38.57.74-57.85-.06-15.52-.63-31-1.19-46.46,1a38.74,38.74,0,0,1-9.38.18c-12.39-1.29-18.26-10.45-15.79-24.37,1.68-9.47,5-12.51,14.63-12.06,11.72.55,23.29,3,35.1,2.89,3.32,0,4.74-.76,5.86-4.19,5.73-17.55,11.41-35.08,14.44-53.39.78-4.72,2.85-9.26,4.6-13.77,2.7-7,2.59-14.09,2-21.33-.21-2.5-1.14-3.26-3.87-3.2-27.72.63-55.45,2.1-83.14-1-5.75-.64-11.57-.76-17.36-1-16.44-.56-24.49-8.68-25-25.32-.19-6,1.11-11.82,1.78-17.72A54.1,54.1,0,0,1,307,223a65.92,65.92,0,0,0,15-3.2c3.05-1,6.1-3.33,9.6-1.2,1.29,3.69,1.94,7.57,3.8,11.1,3.16,6,8.05,9.07,14.7,9.37,5.16.23,10.34.09,15.52.06,4.72,0,9.4-.14,13.64,2.56,1.89,1.21,4,.75,5.85-.26,5.32-2.89,10.73-1.92,15.94-.08a16,16,0,0,0,10.1.62c13.9-4.06,28-2.23,42-1.33,11.4.73,22.72,1.53,34.24.75a272.25,272.25,0,0,1,49.76,1.05,78.38,78.38,0,0,0,26.19-1.29c10.61-2.35,17.94-8.4,21.43-19,2.51-7.6,4.69-15.29,7.27-22.87,4.09-12,7.76-24.18,11.37-36.36,5.5-18.54,8.2-37.68,12.47-56.49a369.46,369.46,0,0,0,7.59-44c1.18-11.46-4.12-21-14.75-25.77-9.21-4.13-19-5.34-28.91-5.56-15-.34-30.11-.07-45.16-.1a52.48,52.48,0,0,0-12.53,1.91,28.45,28.45,0,0,1-13.51.21c-7.59-1.85-15.26-1.32-22.92-.73-1.87.14-3.76.73-5.6.4-10.86-1.95-21.58-.28-32.28,1.26-5,.72-9.95.35-15,.17-13-.46-26-1.28-38.95.67-11,1.64-17.64,8.09-21.24,18.24-2.69,7.56-3.88,15.52-6.41,23.12-1.13,3.4-1.87,7-4.17,9.88-3.71.63-5.94-2-8.31-4a29.5,29.5,0,0,1-5-4.91C344.24,70.59,336.44,68.09,331.11,62.55Z"/><path class="cls-2" d="M235.84,232.08c5.37,4.19,8.35,10.51,12.74,15.15,5.07,5.38,6.54,11.36,8.62,17.55,1.14,3.36,1.14,7,2,10.47.87,3.32-.16,7.05-3.91,8-5.49,1.35-9.14-1-10.53-5-2.25-6.5-3.8-13.23-6.11-19.66-1.73-4.82-4.71-9.3-10.42-10.87-1.4-.39-2.53-1.77-3.78-2.7-6.75-4.16-12.44-9.69-18.64-14.56-4.27-3.35-8.16-7.19-12.74-10.15-8.21-6.68-16.44-13.33-25.09-19.44-1.67-1.17-3.57-1.91-5.32-2.9-2.68-1.52-4.91-1.13-7.36.53s-4.62,3.75-7.63,4.39c-2.16.72-3.93,2.35-6.29,2.59,2.66-.06,4.45-2.36,7-2.6A55.25,55.25,0,0,0,159.94,201c5.12-1.46,9.06,1.79,12.88,4.13,7,4.32,13.25,9.76,19.7,14.88a44.51,44.51,0,0,0,9.9,8.51c7.53,5.09,13.52,12,20.41,17.79,4.49,8,11.45,14.65,13.3,24.13.91,4.67,1.4,9.48,4.33,13.51,1.12,1.54-.28,1.88-1.19,2.28-6.16,2.75-15-2.31-15.46-9.07-.62-8.61-5.8-14-12.45-18.38-4.81-2.44-8.44-6.39-12.46-9.83-6.05-5.17-11.63-10.9-18.28-15.35-4.58-4.47-8.76-9.33-14-13.1-3.92-2.81-7.75-3.81-12.22-1.58-3.14,1.57-6.46,2.8-9.39,5,6.71,1.22,12.48-3.73,19.84-1.28,7,2.34,11.26,6.76,15.84,11.54,7.58,7.17,14.33,15.16,22,22.21,2,1.87,4.54,3.43,4.66,6.66a83.17,83.17,0,0,1,12.18,16.15c2.12,3.65,2.36,7.64-1.17,10.68-2.83,2.44-7.44,1.35-10.65-2.54-2.05-2.49-5.1-4.13-4.91-8.57.12-2.81-3-5.61-6.44-6.61a7.2,7.2,0,0,1-3.91-2.46c-7.92-8.22-16.69-15.51-25.17-23.12-2.18-2.21-3.9-4.86-6.54-6.64-3.72-2.52-9.88-1.12-12.68,3.5,7.25-1.54,14-1.93,19.25,3.91,7.14,7.1,13.53,14.93,21.42,21.28a11.85,11.85,0,0,1,4.54,8.39c2.09,1.08,3.33,3.12,5.07,4.58a7.63,7.63,0,0,1,2.82,8.11c-.78,3-2.9,6-6,5.71s-6.73-2.39-7.8-5.83c-.67-2.14-1.82-2.5-3.4-3-5.45-.78-9.29-3.85-12.52-8.19-4.73-6.34-10.32-12.05-13.87-19.24-1.35-2.7-1.8-4.44-5.82-1.61-4.66,3.29-9.68,6.81-15.56,8.2-3.22-1.84-4.09-5.4-5.88-8.25-2.15-3.44-3.79-7.2-6.08-10.57-3.07-4.54-7-7.32-12.94-6.42-3.57.54-7.11,1-10.48,2.33-4.49,1.81-4.82,2.32-3,7,3.07,7.67,6,15.41,8.88,23.16.79,2.13,2.22,4.22,1.22,6.7-2.5,2.23-5.53,3.44-8.6,4.6-4-4.41-5.2-10.21-7.32-15.5S88.26,258.16,86,253c-1.14-2.56-2.58-3.2-5.13-2-6.75,3.26-13.93,5.47-20.85,8.29-2.94,1.19-3.63,2.7-2.71,5.77,3,10.07,7.79,19.46,10.75,29.52.48,1.62,1.56,3.15.56,4.92-2.38,2.6-6.41,2.15-8.78,4.75-5.52-9.66-8.26-20.47-12.64-30.6-.18-.43-.3-.88-.46-1.32-2.65-7.29-2.54-7-9.88-3.95-7.16,3-14.6,5.33-21.87,8.12-1.3.5-2.7.87-4-.13-4.42-8.77-7.65-18-10.76-27.28-.17-.53-.3-1.45,0-1.71,3.74-3.4,6.22-7.94,11.72-9.66,17.21-5.39,33.74-12.67,50.62-19,5.15-1.93,10.27-4.18,15.9-4.78,3-.32,4.86-3,7.76-4.09,11.53-4.24,22.91-8.92,34.21-13.76,9-3.85,18.13-7.5,27-11.85,3.3-1.62,8.41-2.11,12.81-2.64,11.39-1.4,18.27,5.51,26.07,11.11,6.31,4.53,12.42,9.35,18.61,14.05,2.19.28,3.55,1.85,5,3.27,6.79,6.71,14.78,12,22,18.1C233.29,229.37,234.93,230.36,235.84,232.08Z"/><path class="cls-3" d="M235.84,232.08c-7.58-4.65-14.16-10.61-21.08-16.12-3.51-2.79-6.63-6.08-9.92-9.15,3-2,4.89-5.12,6.81-8,2.39-3.56,6.25-5.22,9-8.18,1.65-1.75,1.94-2.15.08-4.53-3.39-4.33-5.65-9.63-7.67-14.89-3.3-8.64-5.65-17.34-5.5-26.79.06-4.18.06-8,1.28-12.1.74-2.51-.41-6.15.21-9.34a82.26,82.26,0,0,1,23.35-43.28c4-4,8.23-7.91,13-10.74,8.9-5.27,17.7-11.16,28.23-12.73,5.59-.83,11.15-2.63,16.64-2.78a83.56,83.56,0,0,1,40.77,9.09c5.78,3.55,11.66,6.54,16.48,11.89,3.86,4.28,8,9.08,13.67,11.65,6.67,6.27,10.54,14.32,13.85,22.59,5.14,12.79,6,25.91,4.89,39.81-1.49,18.43-8.78,33.8-20.17,47.44-6.78,8.13-14.78,15.32-24.41,20.28-1.51.78-2.94,1.86-4.79,1.72-11.95,5.13-24.54,7.24-37.43,7.95a69.47,69.47,0,0,1-31.52-6,17.25,17.25,0,0,1-2.56-1.12c-6.11-4-8.73-3-13.14,2.52C242.93,225.08,240,229.27,235.84,232.08Z"/><path class="cls-4" d="M585.74,270.48c18.4-5.47,28.58-19.2,33.43-36.42,6.27-22.26,13.69-44.12,20.45-66.2,2.09-6.84,2.37-14.21,4.12-21.17,4.68-18.58,7.86-37.48,12.75-56,4.08-15.53,6.46-31.53,10.07-47.23,3.29-14.29-1.81-28-16.55-35.2,9.82.86,19.74,1.31,29.1,4.7,10.12,3.67,18.31,9.53,21,20.86a20.34,20.34,0,0,1-.67,12.5c-6.39,15.44-6.33,32.15-10.1,48.09-3.58,15.18-5.62,30.81-13.21,44.83-2.08,3.84-2.27,8.14-1.92,12.38A39.68,39.68,0,0,1,671.55,170c-8.27,20.44-11.06,42.31-16.89,63.39a102.23,102.23,0,0,1-6.86,17.94c-6.35,12.94-17.11,19.18-31.09,20.14A158.8,158.8,0,0,1,585.74,270.48Z"/><path class="cls-4" d="M550.85,366.59c-10,0-20,0-30.06-.58a234.67,234.67,0,0,0-34.26,1.05c-3.26.29-4.4.12-4.25-3.61.8-19.39.91-38.77-1.59-58.09-1.17-9,.68-17.78,2-26.59a9.51,9.51,0,0,0,.44-2.77c-.89-4.94,1.71-6.37,6-6.07,11.54.82,23.14.65,34.6,2.48,4.08,12.31,5.71,25.22,9.13,37.63C538.08,329.1,544.78,347.76,550.85,366.59Z"/><path class="cls-5" d="M10.94,276.41c10.34-3.45,20.62-7,30.6-11.43,1.88-.83,3.22-1.43,4.26,1.33,4.32,11.49,8.91,22.88,13.33,34.34a18.87,18.87,0,0,1,.67,3.64C53.51,308.2,46.74,311.08,40,314c-2.39,1-4.4,2.66-7,3.53-3,1-4.81-.77-5.86-2.24-5.25-7.38-8.73-15.76-11.32-24.37C14.32,286,11.15,281.69,10.94,276.41Z"/><path class="cls-6" d="M68.58,299.54c-3.2-8.59-6.41-17.17-9.57-25.77-1.29-3.48-2.44-7-3.73-10.49-.87-2.32.14-3.43,2.22-4.24,8.39-3.28,16.77-6.58,25.1-10,2.45-1,3.13,0,3.94,2.14,4.16,11.07,8.52,22.07,12.8,33.1-9.5,5.1-19,10.23-28.53,15.28C70.23,299.86,69.33,299.56,68.58,299.54Z"/><path class="cls-3" d="M157.56,259.18c1.07.6,2.47.89,2.93,2.16,2.3,6.39,7.72,10.49,11.51,15.78,2.65,3.7,5.32,7.36,10.43,7.89.55.06,1,1,1.52,1.6-3.78,3.66-7.39,7.53-11.39,10.93-5.44,4.62-11.29,7.74-19,5.3-9.93-3.12-14.32-14.53-10.13-24.14C146.78,271,152.23,265.23,157.56,259.18Z"/><path class="cls-6" d="M107.94,279.68c-4-10.57-7.94-21.18-12.1-31.69-1.31-3.3-.63-4.78,2.82-5.68,4.63-1.2,9.1-2.69,14-3.23,5.67-.64,9.41,1.67,12,5.89,4.14,6.75,7.73,13.85,11.55,20.8-7.32,3.79-14.57,7.72-22,11.28C112.18,278,110.61,280.25,107.94,279.68Z"/><path class="cls-7" d="M181.68,232.91c10.44,8,20.06,16.94,29.68,25.87l-4,4.26c-7.89-8-15.71-16.13-23.75-24a15.37,15.37,0,0,1-3.37-4.28C179.86,233.46,180.8,233.21,181.68,232.91Z"/><path class="cls-8" d="M168.46,246.12c9.59,8.35,19.19,16.7,27.88,26L193.25,277c-2.71-5.42-7.19-9.2-11.54-13.23-5.24-4.85-9.84-10.36-14.72-15.59C167.08,247.22,167.11,246.21,168.46,246.12Z"/><path class="cls-9" d="M193.51,219.66c6.74,3.18,11.47,9,17.25,13.4,4.79,3.68,9.86,7.13,13.73,11.9l-1.66,1.35a15,15,0,0,1-6.62-4.31,118.68,118.68,0,0,0-19.46-16.18,15.15,15.15,0,0,1-4.4-4.77A1.33,1.33,0,0,1,193.51,219.66Z"/><path class="cls-10" d="M330.62,217.93A103.35,103.35,0,0,0,358,196.33a77.3,77.3,0,0,0,20.21-41.5c1.24-8.33,2.56-17.08,1.12-25.5-1.75-10.23-4.31-20.2-9.8-29.52-2.69-4.57-6.95-8.33-8.28-13.72,3.87-8.78,5.7-18.17,8.2-27.36.24-.91.51-1.81.78-2.7,5-16.18,13-22.63,29.92-23.51a243.17,243.17,0,0,1,35.7.62c7.57.73,15-.78,22.41-1.85A71.21,71.21,0,0,1,477,31.11c5,.61,10-.39,15-.4,6.42,0,12.82-.29,19.11,1.53a13.65,13.65,0,0,0,7.93,0c8.51-2.8,17.27-2.71,26-2.66,15,.07,30.09-.83,45.09,1,8.15,1,16.1,2.64,23.17,7,9,5.62,12.52,14,11.52,24.43-2.29,24-8.75,47.33-13.11,71C606.1,163.76,595.17,193,586,222.68c-4.06,13.08-13.85,18.55-26.49,20.64-10.82,1.79-21.59.71-32.33-.32a261.59,261.59,0,0,0-40.85-.23c-11.17.68-22.23.07-33.31-.78-14.53-1.11-29.06-2.66-43.36,1.64-3.05.91-5.64.22-8.57-.85-5.23-1.92-10.77-3.53-16,.3-2.36,1.73-4.66,1.54-6.88-.25s-5-2.24-7.95-2.18c-5.49.1-11-.25-16.46,0-15.26.78-21-9.44-22.87-19.94C330.7,219.82,330.7,218.87,330.62,217.93Z"/><path class="cls-11" d="M193.51,219.66l-1.16,1.39c-6.49-4.8-12.8-9.88-19.53-14.32-4.39-2.88-8.89-6.46-15-4-3,1.2-6.32,1.19-9.57,1-.49-.44-1.48-.63-.8-1.64,1.74-1,3.77-1.73,5.17-3.1,4.18-4.11,8.8-4.32,13.19-1.12C175.32,204.76,185.11,211.34,193.51,219.66Z"/><path class="cls-12" d="M181.68,232.91l-1.47,1.84a10.51,10.51,0,0,1-4.43-4.05c-2.14-3.25-4.51-6-8.95-5.33-1,.16-1.71-.51-2.46-1.1-2.7-2.17-5.55-2.25-8.75-.93a75.53,75.53,0,0,1-9.14,2.83A2.7,2.7,0,0,1,143.2,225a2,2,0,0,1,.85-2.81c6.18-1.54,11.27-7.22,18.23-5.42,5.07,1.31,8.41,5.54,12.18,8.9C177,227.93,179.28,230.48,181.68,232.91Z"/><path class="cls-13" d="M168.46,246.12,167,248.19c-.3-.1-.69-.11-.88-.31-4.93-5.33-10.84-5.35-17.19-3.27-.8.26-1.84.92-2.47-.18a2.79,2.79,0,0,1,.31-2.67c1.73-3.51,10.71-5.7,13.85-3.47S166,243.36,168.46,246.12Z"/><path class="cls-14" d="M147.46,202.06c.26.55.53,1.1.8,1.64l-8.58,3.12-.41-.88Z"/><path class="cls-6" d="M352.52,138c.92,13.11-3.33,24.44-10.87,35.15a66.06,66.06,0,0,1-22.85,20.2c-9.61,5.26-20,6-30.66,5.67-10.39-.3-19.27-4.62-27.16-10.56-9.53-7.17-18.46-15.64-22.94-26.81-3.47-8.64-4.36-18.31-3.32-27.87a50.55,50.55,0,0,1,13.15-29.48c8.31-9.15,17.38-16.83,29.27-21a41.14,41.14,0,0,1,17.43-2.12c3.1.26,6.19.69,9.29.74,9.43.15,16.68,5,23.68,10.55a80,80,0,0,1,15.39,16.38c1.63,2.28,2.93,4.77,4.86,6.87,3.27,3.55,2.19,8.55,4,12.7C353,131.18,352.34,134.76,352.52,138Z"/><path class="cls-15" d="M476.75,189.66H410c-7.22,0-8.65-1.45-8.61-8.87,0-2.31-.43-4.68.79-6.9,1.62-3,4.15-4,7.39-4q67.2,0,134.39,0c5.32,0,8,2.83,8,8.08,0,1.57,0,3.14,0,4.7-.08,5.26-1.75,6.93-7.11,6.94Q510.82,189.7,476.75,189.66Z"/><path class="cls-15" d="M477.18,97.41q-33.63,0-67.27,0c-6.64,0-8.47-1.79-8.52-8.2-.06-8.84,1.84-11.54,8.49-11.54q66.8-.06,133.59,0c6,0,8.5,2.62,8.54,8.54,0,1.41,0,2.82,0,4.23-.08,5.29-1.74,7-7.09,7Q511,97.45,477.18,97.41Z"/><path class="cls-15" d="M434.34,143.54c-8.3,0-16.61,0-24.92,0-6.17,0-8-1.92-8-8.21,0-1.25,0-2.51,0-3.76.19-4.86,2.76-7.71,7.54-7.74,16.61-.1,33.23-.14,49.84,0,6.78.06,8.75,3,8.49,11.58-.18,5.68-2.84,8.12-8.95,8.13Q446.34,143.56,434.34,143.54Z"/><path class="cls-16" d="M519.33,143.54c-7.37,0-14.74-.2-22.1.05-8.89.31-10.76-1.2-10.21-10.5,0-.47,0-.94,0-1.41.06-4.77,2.63-7.82,7.28-7.85q25.15-.18,50.31,0c4.73,0,7.31,3,7.38,7.77,0,1.57,0,3.14,0,4.7-.07,5.61-1.66,7.22-7.29,7.24C536.25,143.56,527.79,143.54,519.33,143.54Z"/><path class="cls-17" d="M269.85,129.11c9.28-2.05,20.24-.14,31.18-1a92.57,92.57,0,0,1,18.85.54c3.23.42,6.22-.12,9.33-.2,1.78,0,4.25-1.89,5.58,1.12.24.55.91.58,1.55.08,3.77-3,4-.24,4,2.57.05,5.62-2.9,9.6-7.63,11a17.75,17.75,0,0,1-5.66.18c-9.17-.47-18.1,2.53-27.39,1-5.95-1-12.3.88-18.45.75-5.65-.12-11.25,1-16.91.32-4.11-.5-8.05,1.22-12.19,1.48-3.45.22-3.8-2.21-5.36-3.42s-.22-3,.53-4.61C251.57,129.71,259.72,129,269.85,129.11Z"/><path class="cls-17" d="M298.77,173.52c-7.77-1.66-15.32,1.35-22.79-.68-2.73-.74-7.12.17-7.59-2.81-.62-3.85,1.56-7.73,4.6-10.77,4.41-4.42,9.88-2.47,14.75-2.19a105,105,0,0,0,11.78-.22c4.11-.22,8.44-.71,12.31.29,5.88,1.52,6.54,7.05,2.06,11.38S303.58,171.87,298.77,173.52Z"/></g></g></svg>