<svg xmlns="http://www.w3.org/2000/svg" viewBox="0 0 333.55 82.85"><defs><style>.cls-1{fill:#060606;}.cls-2{fill:#040404;}.cls-3{fill:#030303;}.cls-4{fill:#040305;}</style></defs><g id="Capa_2" data-name="Capa 2"><g id="Capa_1-2" data-name="Capa 1"><path class="cls-1" d="M205.56,35.19A12,12,0,0,1,216,30c6.7.08,11,3.34,11.46,10,.6,8.23.3,16.53.38,24.81,0,2.79-2.11,1.66-3.47,1.86-1.65.24-2.77-.08-2.73-2.21.11-5.51.07-11,0-16.55a47.34,47.34,0,0,0-.26-6.08c-.64-4.78-3.38-7-8-6.63-5,.4-7.92,3.2-7.92,7.76,0,6.82-.07,13.65,0,20.47,0,2.27-.32,3.43-3,3.39-2.53,0-3.58-.51-3.53-3.35.18-9.57,0-19.16.12-28.74,0-1.42-1.28-3.65,1.53-4.2,2.46-.48,3.35,1.07,4,3A16.39,16.39,0,0,0,205.56,35.19Z"/><path class="cls-2" d="M285.08,21.09c.06.55.15,1.1.16,1.65.1,7.28.09,7.36,7.48,7.77,1.85.1,2.57.57,2.57,2.47s-.51,2.51-2.46,2.56c-2.52.07-5.87-1.36-7.32.8-1.15,1.7-.28,4.77-.28,7.24,0,3.62-.09,7.25,0,10.87.23,6.24,2.68,8.31,8.91,7.36,2-.3,3.09-.58,3.42,2.08s-1.11,2.78-2.93,3.08C283,69,278.37,62.63,279,53.64c.32-4.47.1-9,0-13.48,0-2.2,1.12-5.13-3.18-4.85-1.63.1-.87-1.79-1-2.82s.24-2.09,1.63-1.91c2.18.27,3-.72,2.55-2.73C278.05,23,280.88,21.52,285.08,21.09Z"/><path class="cls-3" d="M140.25,36.71c0-7,.14-14-.07-20.94-.09-2.89,1.33-2.82,3.43-2.89s3,.52,3,2.85c-.1,12.8,0,25.6-.06,38.39,0,3.84.43,7.19,4.91,8.61,2.5.79,1.18,3.28,1.1,4.91-.12,2.27-2.07,1-3.06.83-5.8-.9-8.94-4.37-9.1-10.39-.19-7.12-.05-14.25-.05-21.37Z"/><path class="cls-4" d="M43.83,0C20-.92.3,17.75,0,40.23c-.3,23,18.24,42.38,40.66,42.62C65,83.1,84.23,65,84.46,41.7,84.66,21.14,68.92,1,43.83,0ZM30.31,6.35a46.59,46.59,0,0,1,12.39-2A43.94,43.94,0,0,1,56.27,7c1.53.55,1.89,1.18.67,2.71-5.95,7.54-21.6,7.48-27.56-.14C28,7.82,28.08,7,30.31,6.35Zm-15,9.23c1-.65,1.7-1.59,2.59-2.33,4.84-4,4.84-4,9.08.33,8.49,8.65,24.81,8.37,33-.75,1.84-2.05,3.15-3.06,5.39-.74,2.08,2.16,6.22,3.8,5.74,6.51s-4.61,3.53-7.44,4.63A57.09,57.09,0,0,1,42.29,26.9c-9.27-.12-18.2-1.56-26.44-6.17C13,19.13,12.29,17.67,15.31,15.58ZM5.16,34.87A47,47,0,0,1,8.9,24.25c.83-1.64,1.39-1.89,3.2-.9,20.14,11,40.38,11,60.54,0,1.51-.82,2.27-1,3,.65.34.79.77,1.55,1.14,2.33C82.14,38,81.52,39,69.09,39H42.5c-11.34,0-22.68-.2-34,.1C4.66,39.23,4.49,37.78,5.16,34.87Zm26.27,42c-3.47-1-2.12-2.18-.67-3.66C37.81,66,50.84,66.63,58.37,75A39.49,39.49,0,0,1,31.43,76.89ZM68,68.5c-4.6,4.16-4.56,4.21-9.37.29-9.4-7.66-24.83-6.24-32.52,3.27-1.63,2-2.51,1.57-4.12.51a60.9,60.9,0,0,1-7.69-6.37c-2.14-2-1.8-3,.56-4.42,8.27-4.93,17.36-6.44,26.76-6.58,12.68-.2,23.06,2.88,31.47,9.63A57.42,57.42,0,0,0,68,68.5ZM79.48,47.88A54.68,54.68,0,0,1,76,58.12c-.76,1.67-1.32,2-3.16.93C52.45,47.7,31.94,47.62,11.5,58.92c-1.62.9-2.13.61-2.83-.79a46.42,46.42,0,0,1-3.6-10.69c-.66-2.95-.1-4.06,3.27-4,11.34.2,22.69.08,34,.07,11.2,0,22.41.17,33.6-.09C79.82,43.34,80.26,44.55,79.48,47.88Z"/><path class="cls-2" d="M121.2,17.78c-4.84-1.41-9.75-1.14-14.7-1-2.39.06-2.85.9-2.81,3.09.13,7.41,0,14.82,0,22.22s0,14.53,0,21.79c0,2-.13,3.49,2.78,3.53s3.36-1.12,3.2-3.6c-.19-3,0-6.1,0-9.15,0-6.3,0-6.29,6-6.5a29.75,29.75,0,0,0,3.9-.36c7.3-1.27,11.65-6.44,12.12-14.31C132.19,24.76,129,20.06,121.2,17.78ZM110.85,42c-1.63-.64-1.13-1.8-1.14-2.83-.06-4.19.18-8.4-.1-12.57-.23-3.43,1.22-4.42,3.87-4,8.13.15,12.2,3.58,12.07,9.8C125.4,39.55,117.48,44.64,110.85,42Z"/><path class="cls-2" d="M333.08,65.24c-4-3.89-2.21-8.73-2.52-13.2-.19-3.62-.21-7.26-.62-10.86-.5-4.5-2.71-7.92-7.19-9.49a21.15,21.15,0,0,0-16.11.93c-2.08.93-2.47,1.89-1.29,3.91,1,1.73,1.43,2.46,3.74,1.19,6.47-3.56,13.23-1.65,14.62,3.66.59,2.28,1,3.72-2.66,3.08-7.66-1.33-15.61,2.77-18,8.58a10.9,10.9,0,0,0,3,12.28c3.87,3.36,10.51,3.59,15.46.3,1.93-1.27,3.34-3.18,5.12.25.8,1.53,2.94,1.7,4.69,2C333.74,68.21,334,66.09,333.08,65.24ZM324,54.11c0,6.41-5.46,10.39-11.67,8.51-3.6-1.09-4.88-5.28-2.73-8.89s8.46-6,12.6-4.62C324,49.71,324,49.71,324,54.11Z"/><path class="cls-2" d="M190.18,65.32c-3.89-4.26-2.17-9.35-2.79-15.59a69,69,0,0,0-.06-7.67c-.43-4.58-2.29-8.44-6.93-10.19a20.5,20.5,0,0,0-16.5.76c-1.76.82-2.41,1.65-1.39,3.66s1.5,2.68,4,1.33c6.34-3.49,13.25-1.4,14.52,4,.48,2,1,3.66-2.47,2.91a17.28,17.28,0,0,0-12.2,2.19c-5.9,3.28-8.27,9.15-6,14.64s7.6,8,14.16,6c4.22-1.29,8.15-4.93,12.2.2.27.34,1.09.24,1.66.35C190.72,68.28,191.06,66.28,190.18,65.32Zm-8.9-11.39A8.92,8.92,0,0,1,169,62.46c-3.1-1.29-4.17-5.24-2.33-8.53,2.18-3.88,8.77-6.23,13-4.82C182.71,50.14,180.55,52.6,181.28,53.93Z"/><path class="cls-2" d="M261.94,31.9a14.6,14.6,0,0,0-17,1.69c-4.83,4.29-6.49,9.95-6.36,16.07.3,15.08,11.58,22.52,24.81,16.32,1.74-.82,2.61-1.8,1.38-4.05s-1.94-1.52-3.56-.69c-8.11,4.13-15.33.18-16.57-8.74-.34-2.49.43-3,2.69-2.94,3,.14,6.1,0,9.15,0s6.4,0,9.59,0c1.36,0,2.41,0,2.79-1.85C270,42.14,266.9,34.78,261.94,31.9ZM261.09,45c-2.45-.09-4.92,0-7.38,0H248.5c-4,0-4.46-.8-2.48-4.49a9.14,9.14,0,0,1,10.13-5c3.89.68,5.9,3.25,6.92,6.89C263.6,44.33,263.14,45.11,261.09,45Z"/></g></g></svg>