<svg xmlns="http://www.w3.org/2000/svg" viewBox="0 0 340 80.52"><defs><style>.cls-1{fill:#3e412a;}.cls-2{fill:#d9006b;}.cls-3{fill:#85b93e;}.cls-4{fill:#fccb00;}.cls-5{fill:#3f412a;}.cls-6{fill:#d8006b;}.cls-7{fill:#63913c;}.cls-8{fill:#76a93d;}.cls-9{fill:#d8011c;}.cls-10{fill:#c10064;}.cls-11{fill:#0085b0;}.cls-12{fill:#af0e5f;}.cls-13{fill:#edbb00;}.cls-14{fill:#0092c8;}.cls-15{fill:#89a221;}.cls-16{fill:#0093d7;}.cls-17{fill:#00728d;}.cls-18{fill:#859e21;}.cls-19{fill:#7c244c;}.cls-20{fill:#0094d7;}.cls-21{fill:#008848;}.cls-22{fill:#476c37;}.cls-23{fill:#a17320;}.cls-24{fill:#39462b;}.cls-25{fill:#542c28;}.cls-26{fill:#016039;}.cls-27{fill:#6a8029;}.cls-28{fill:#c5930e;}.cls-29{fill:#7b2726;}</style></defs><g id="Capa_2" data-name="Capa 2"><g id="Capa_1-2" data-name="Capa 1"><path class="cls-1" d="M150.88,63.9v-.82c0-6.06,0-12.12,0-18.18,0-.44.08-.67.55-.72a14.15,14.15,0,0,1,4.59.1c2,.45,2.75,1.39,2.75,3.41q0,14.13,0,28.26c0,.63-.14.84-.8.9a13.52,13.52,0,0,1-5.11-.3,6.54,6.54,0,0,1-4-3c-3.24-5.28-6.52-10.55-9.78-15.82l-.43-.66V75.81c0,.93,0,.92-.91,1a12.22,12.22,0,0,1-4.39-.15,2.9,2.9,0,0,1-2.58-3.27q0-14.22,0-28.46c0-.31-.14-.69.39-.76a12.29,12.29,0,0,1,6.6.66,6.08,6.08,0,0,1,2.76,2.43q4.91,8,9.86,15.94C150.53,63.41,150.66,63.58,150.88,63.9Z"/><path class="cls-1" d="M286.3,57.36v3.46q0,7.63,0,15.26c0,.51-.14.7-.67.75a13.61,13.61,0,0,1-4.72-.15,2.87,2.87,0,0,1-2.51-3.25q0-14.19,0-28.39c0-.65.2-.85.81-.9a12.76,12.76,0,0,1,5.69.52,6.17,6.17,0,0,1,3.25,2.64q4.9,7.94,9.84,15.87l.46.74v-19c0-.31-.09-.62.41-.68a12.69,12.69,0,0,1,5.17.19,2.75,2.75,0,0,1,2.29,3.07q0,14.27,0,28.53c0,.6-.15.79-.76.85a13,13,0,0,1-5.57-.44,6.3,6.3,0,0,1-3.44-2.72q-4.83-7.86-9.71-15.71l-.43-.66Z"/><path class="cls-1" d="M84.08,43.86A49.4,49.4,0,0,1,96,45.4c.41.09.6.26.55.72a7.34,7.34,0,0,1-.86,3.05,3.84,3.84,0,0,1-3.3,2.06c-1.84.08-3.65-.27-5.48-.36a17.92,17.92,0,0,0-5.27.21,2.82,2.82,0,0,0-1.1.5,1.36,1.36,0,0,0-.16,2.17,6.63,6.63,0,0,0,2.12,1.3c2.4,1.07,4.9,1.85,7.27,3a22.43,22.43,0,0,1,3.31,1.86c4,2.78,5,6.27,3.5,10.93-1.11,3.37-3.71,5.06-7,5.86a23.15,23.15,0,0,1-8,.38,54.56,54.56,0,0,1-10.26-2.14c-.66-.2-.8-.51-.59-1.1s.3-1,.51-1.47a4.61,4.61,0,0,1,5.35-2.82,43,43,0,0,0,8.15.86,8.13,8.13,0,0,0,2.93-.49A2.3,2.3,0,0,0,89.31,68a2.07,2.07,0,0,0-1.16-2.06,19.5,19.5,0,0,0-4-1.78A40.28,40.28,0,0,1,77.09,61c-2.21-1.36-4.09-3.08-4.74-5.7-1.2-4.84.45-9.42,6.58-10.88A19.67,19.67,0,0,1,84.08,43.86Z"/><path class="cls-2" d="M1.13,25.89a30.67,30.67,0,0,1,4.68-11c.27.31,0,.6-.07.88a8,8,0,0,0-.47,3.45,9.58,9.58,0,0,0,1.6,4,21.09,21.09,0,0,0,5.73,5.57,31.26,31.26,0,0,0,3.66,2.36,70.8,70.8,0,0,0,8.5,4.23,71.9,71.9,0,0,0,8.54,3.09,8,8,0,0,0,1.27.36A18.53,18.53,0,0,1,38,40.22a8.08,8.08,0,0,1,1.58,1.15,2.74,2.74,0,0,1-.12,3.89,18.66,18.66,0,0,1-1.84,1.6,23.49,23.49,0,0,1-11.85,4.65.91.91,0,0,1-.4,0,61.58,61.58,0,0,1-7.73-4.12,53,53,0,0,1-7.84-5.72,29,29,0,0,1-7.17-8.79,15.84,15.84,0,0,1-1.54-5.34C1,27,1.18,26.43,1.13,25.89Z"/><path class="cls-3" d="M56.69,17.42c2.13,0,4.24.27,6.36.47,3.37.32,6.74.73,10.08,1.32a54.9,54.9,0,0,1,12.29,3.26,12.53,12.53,0,0,1,3.21,1.9c1.74,1.48,1.77,3.15,0,4.65a14.79,14.79,0,0,1-5,2.6,59,59,0,0,1-11,2.55c-3.78.59-7.59.92-11.4,1.23H60.9c-1.22-2.1-2.63-4.07-3.72-6.25-.77-1.54-1.54-3.08-2.24-4.66a1.47,1.47,0,0,1-.06-1.37,1.94,1.94,0,0,1,1-.3,12.58,12.58,0,0,0,3.71-1c1.12-.59,1.2-1.41.25-2.25A11.82,11.82,0,0,0,57.25,18C57,17.87,56.66,17.82,56.69,17.42Z"/><path class="cls-4" d="M34.82,54.76a56.33,56.33,0,0,0,7,1.77c1.66.34,3.36.41,5,.63,3.18.42,3.15,3.27,1.69,5a6.81,6.81,0,0,1-4.26,2c-2,.37-4,.37-6,.81a4.24,4.24,0,0,0-1.73.71.46.46,0,0,1-.29.13A28.59,28.59,0,0,1,33,65.12,90.86,90.86,0,0,1,18.24,60.2,46,46,0,0,1,7.61,53.94a22.58,22.58,0,0,1-6.37-7.69,17.5,17.5,0,0,1-.57-1.73A47.88,47.88,0,0,1,0,36.77c.32.07.32.36.37.59a15.42,15.42,0,0,0,5.83,8.52,25.52,25.52,0,0,0,12.87,5.17c1.3.17,2.6.23,3.91.32a36.62,36.62,0,0,1,5.58,1.16c2,.63,3.9,1.33,5.86,2A.68.68,0,0,1,34.82,54.76Z"/><path class="cls-1" d="M177.82,64c0,4,0,8,0,12,0,.57-.18.72-.72.77a14.14,14.14,0,0,1-4.59-.14,2.91,2.91,0,0,1-2.61-3.3c0-7.13,0-14.25,0-21.38,0-.56-.14-.72-.71-.72-2.33,0-4.66,0-7,0-.67,0-.84-.2-.85-.84a10.32,10.32,0,0,1,.41-4,3.29,3.29,0,0,1,3.33-2.29c6.82,0,13.64,0,20.46,0,.56,0,.77.19.8.7a12.16,12.16,0,0,1-.1,3.46,3.51,3.51,0,0,1-3.71,3c-1.36,0-2.72,0-4.08,0-.52,0-.67.13-.67.67C177.84,56,177.82,60,177.82,64Z"/><path class="cls-5" d="M202.6,58.82q0-7,0-14c0-.33,0-.6.44-.65a12.73,12.73,0,0,1,5.18.19,2.78,2.78,0,0,1,2.29,3.08c0,7.26,0,14.52,0,21.79,0,.68.19.81.83.8,3.92,0,7.84,0,11.76,0,.47,0,.69.06.76.63a4,4,0,0,1-2.67,4.76,19.89,19.89,0,0,1-5.78,1.36,37.45,37.45,0,0,1-6.17.28,11.87,11.87,0,0,1-4.17-.79,3.72,3.72,0,0,1-2.45-3.71Z"/><path class="cls-1" d="M225.74,58.85c0-4.65,0-9.31,0-14,0-.45.1-.66.56-.7a14.11,14.11,0,0,1,4.72.1,3,3,0,0,1,2.67,3.37V69.18c0,.88,0,.87.92.88,3.23,0,6.47,0,9.71,0,.43,0,.58.13.65.54a3.92,3.92,0,0,1-2.28,4.6,16.46,16.46,0,0,1-5.14,1.42,30.85,30.85,0,0,1-6.3.29,9.64,9.64,0,0,1-2.9-.62,3.71,3.71,0,0,1-2.6-3.8Z"/><path class="cls-6" d="M40.33.12A3,3,0,0,1,41.6,0,92.54,92.54,0,0,1,70,3.79a51.94,51.94,0,0,1,10,4,6.85,6.85,0,0,1,.83.58.45.45,0,0,1,.24.46c-.07.23-.29.16-.46.17s-.32,0-.48,0c-4,0-8.06,0-12.09,0-6.65.06-13.3.15-19.94.65-2.25.17-4.5.43-6.75.64A1.64,1.64,0,0,1,41,9.46a30.75,30.75,0,0,1-.57-6.35A18.65,18.65,0,0,0,40.33.12Z"/><path class="cls-1" d="M197.38,61.69c0,4.79,0,9.58,0,14.37,0,.55-.16.73-.71.78a13.87,13.87,0,0,1-4.59-.14c-1.92-.47-2.66-1.4-2.66-3.36q0-14.21,0-28.4c0-.32-.1-.67.43-.73a12.74,12.74,0,0,1,5.18.19,2.85,2.85,0,0,1,2.33,3.13Z"/><path class="cls-7" d="M34.54,39.07a4.38,4.38,0,0,1-1.28-.37,12,12,0,0,1-1.73-3.28c-.45-1.13-1-2.23-1.38-3.39a9.08,9.08,0,0,0-.88-2.38,1.72,1.72,0,0,1-.22-.78c-.15-1.29.16-1.75,1.41-2,1.82-.41,3.62-.85,5.45-1.16,2.41-.46,4.82-.94,7.25-1.27a1.45,1.45,0,0,1,.8,0,4.42,4.42,0,0,1,.7,1.73,39.09,39.09,0,0,0,1.8,4.33c.87,2,2,3.81,2.95,5.73.13.26.33.5.2.83l-5.74,1.38a6.13,6.13,0,0,0-.68.24.43.43,0,0,1-.45.14,36.31,36.31,0,0,0-6,.15A13.65,13.65,0,0,1,34.54,39.07Z"/><path class="cls-3" d="M36.28,65.68h.31a11.52,11.52,0,0,1,1.57.6c.67.42.76.84.25,1.44a10.82,10.82,0,0,1-6.78,3.53,21.9,21.9,0,0,1-8.93-.62c-.27-.07-.53-.3-.84-.11s-.39,0-.57-.06a51.78,51.78,0,0,1-10.71-6,24.47,24.47,0,0,1-5.8-5.95A8.48,8.48,0,0,0,4,57.21a49.66,49.66,0,0,1-2.66-9.12c.34,0,.32.26.4.45a23.11,23.11,0,0,0,6.23,9,27.64,27.64,0,0,0,7.34,4.62,42,42,0,0,0,12.86,3.23,53.17,53.17,0,0,0,6.31.24A15.66,15.66,0,0,0,36.28,65.68Z"/><path class="cls-8" d="M49.61,37c-.91-1.76-1.92-3.48-2.76-5.25a27.88,27.88,0,0,1-2.26-5.34c-.16-.65-.65-1.2-.55-1.92a.85.85,0,0,1,.7-.35c1.7-.3,3.41-.51,5.13-.7,1.45-.22,2.9-.35,4.36-.5a.76.76,0,0,1,.69.18c-.14,1.22.6,2.16,1.06,3.16a63.6,63.6,0,0,0,3.55,6.61,13,13,0,0,0,1.08,1.55,1.2,1.2,0,0,1,.29.93C57.12,35.83,53.35,36.33,49.61,37Z"/><path class="cls-9" d="M23,51.52A29.47,29.47,0,0,1,11.73,49.3a20.88,20.88,0,0,1-9.67-7.61A15.76,15.76,0,0,1,0,36.77,43.31,43.31,0,0,1,1.13,25.89a26.51,26.51,0,0,0,.47,3.75,18.68,18.68,0,0,0,3.52,6.9A45.55,45.55,0,0,0,16.73,46.63,56.08,56.08,0,0,0,24.63,51a6,6,0,0,1,.65.37,1.48,1.48,0,0,1-1.2.25A4.25,4.25,0,0,1,23,51.52Z"/><path class="cls-10" d="M40.33.12c.35.06.31.33.31.58,0,.79,0,1.58,0,2.38a29.24,29.24,0,0,0,.65,6.72,3.2,3.2,0,0,1,0,.54,112.31,112.31,0,0,0-11.39,2.07,1.92,1.92,0,0,1-1.39.14c-.46-.06-.57-.47-.66-.85a22,22,0,0,1-.36-3c-.22-1.91-.27-3.84-.39-5.76a1.32,1.32,0,0,1,.32-1.13A46.8,46.8,0,0,1,34.18.56,45.19,45.19,0,0,1,40.33.12Z"/><path class="cls-11" d="M42.81,38.68l.38,0,3.29.47a67.37,67.37,0,0,0,7.12,10c.31.36.57.72.23,1.2-3.28.45-6.59.67-9.83,1.38l-3.09.68c-.74-.87-1.35-1.84-2-2.77a13.28,13.28,0,0,1-1.32-2.13c-.12-.26-.28-.52-.08-.82.47-.41,1-.82,1.42-1.25,1.77-1.65,1.65-3.22-.33-4.63l-.72-.49a.56.56,0,0,1,.34-.3c1.31-.51,2.64-.95,4-1.34A1.77,1.77,0,0,1,42.81,38.68Z"/><path class="cls-12" d="M27.45,1.78a29.34,29.34,0,0,0,.12,4.78c.09,1.1.22,2.2.28,3.3,0,.64.16,1.25.25,1.88s.36.71.87.66c.32,0,.64,0,1,0l-.05.09a.33.33,0,0,1-.17.16,1.5,1.5,0,0,1-.6.07,66.84,66.84,0,0,0-10.67.56c-1,.17-2,.4-3,.51a.9.9,0,0,1-.78-.65,4.7,4.7,0,0,1-.39-1.91,13.89,13.89,0,0,0-.25-3,2.88,2.88,0,0,1,.11-1.2A35.38,35.38,0,0,1,22.05,3.3,34.93,34.93,0,0,1,27.45,1.78Z"/><path class="cls-13" d="M29.75,12.53l.13,0a100.81,100.81,0,0,1,17.49,2.2,47.93,47.93,0,0,1,8.38,2.46l.23.13a1.32,1.32,0,0,1-1.16.22,28.12,28.12,0,0,0-5.27,0,3.1,3.1,0,0,1-.68,0,81.79,81.79,0,0,0-14.28,2,32,32,0,0,1-3.23.7c-.51-.14-.66-.58-.78-1a56.62,56.62,0,0,1-1.1-5.78A.87.87,0,0,1,29.75,12.53Z"/><path class="cls-14" d="M53.83,50.38a1.51,1.51,0,0,0-.45-1.2,64.8,64.8,0,0,1-4.74-6.3c-.58-.93-1.23-1.83-1.85-2.73a1.78,1.78,0,0,1-.31-1A42.26,42.26,0,0,1,59.05,42.9a10.32,10.32,0,0,1,3.66,2.83,1.46,1.46,0,0,1-.33,2.37,7.14,7.14,0,0,1-2.26,1A34.49,34.49,0,0,1,53.83,50.38Z"/><path class="cls-15" d="M36.28,65.68c-.19.18-.43.11-.65.11-1.2,0-2.39,0-3.59,0a52,52,0,0,1-6-.5,40.69,40.69,0,0,1-8.45-2,29.72,29.72,0,0,1-9.12-5.07,23.5,23.5,0,0,1-6.94-9.54c-.07-.19,0-.43-.22-.55a19.69,19.69,0,0,1-.66-3.57,22.15,22.15,0,0,0,2.65,4.79A30.42,30.42,0,0,0,12,56.75a73.34,73.34,0,0,0,19.12,7.67C32.81,64.88,34.55,65.27,36.28,65.68Z"/><path class="cls-16" d="M23.58,71.25A24.22,24.22,0,0,1,29.65,74a2.68,2.68,0,0,1,.5.45,1,1,0,0,1-.31,1.69,7.82,7.82,0,0,1-3.34,1c-4.34.34-8.06-1.23-11.44-3.77a30.07,30.07,0,0,1-7.89-9.48c-.22-.38-.41-.76-.62-1.13.37,0,.52.24.68.47,3.36,4.61,8,6.86,13.54,7.7A24.26,24.26,0,0,1,23.58,71.25Z"/><path class="cls-17" d="M37.51,46.72A10.37,10.37,0,0,0,39.31,50a13.54,13.54,0,0,1,1.6,2.49,42.59,42.59,0,0,0-5.38,1.94c-.24.11-.47.25-.71.38a37.51,37.51,0,0,1-4.54-1.46,33.72,33.72,0,0,0-7.07-1.69L23,51.52l2.32-.18a23.14,23.14,0,0,0,11.45-4.08Z"/><path class="cls-18" d="M48.79,17.32a53.92,53.92,0,0,1,7.19,0l.71.13a8.14,8.14,0,0,0,1.71.94,7.57,7.57,0,0,1,1.75,1.26,1.28,1.28,0,0,1-.36,2.26A12.92,12.92,0,0,1,55.85,23c-.31.06-.62.1-.93.14-1.69.1-3.36.29-5,.54.41-1.95-.76-3.57-1.13-5.35C48.69,18,48.52,17.65,48.79,17.32Z"/><path class="cls-19" d="M14.13,7.09c.09.79.16,1.57.27,2.35.19,1.19-.1,2.43.41,3.58.11.27.16.58.54.6,0,.36-.33.34-.54.39-1.08.26-2.12.64-3.17,1a20.5,20.5,0,0,0-5.58,3,3.72,3.72,0,0,0-.93,1.35,6.9,6.9,0,0,1,.5-3.8c.07-.2.23-.39.18-.63a24.13,24.13,0,0,1,5.78-6.1A16.31,16.31,0,0,1,14.13,7.09Z"/><path class="cls-20" d="M36.44,80.51a5.23,5.23,0,0,1-2-.26c-1.4-.5-1.68-1.54-.69-2.66a5.31,5.31,0,0,1,2.66-1.53,11.54,11.54,0,0,1,5.69-.18,3.58,3.58,0,0,1,.88.32.82.82,0,0,1,.38,1.25A4.17,4.17,0,0,1,41.83,79,9.76,9.76,0,0,1,36.44,80.51Z"/><path class="cls-21" d="M23.58,71.25C17.49,71.09,12.15,69.18,8,64.5a13.17,13.17,0,0,0-1.46-1.78A45.11,45.11,0,0,1,4,57.21a.38.38,0,0,1,.31.23,26,26,0,0,0,8.5,8.38,61.72,61.72,0,0,0,9.06,4.7Z"/><path class="cls-1" d="M339.91,76.21q-5.82-14.92-11.61-29.88A3.63,3.63,0,0,0,325.69,44a10.53,10.53,0,0,0-5,.12,1.11,1.11,0,0,0-.92.75q-4.74,11.87-9.51,23.72c-.71,1.76-1.43,3.52-2.1,5.29a1.82,1.82,0,0,0,1.23,2.67,3.88,3.88,0,0,0,.45.14,15.81,15.81,0,0,0,5.27.11c.39,0,.44-.34.54-.6.68-1.8,1.36-3.6,2-5.4.14-.38.29-.53.71-.52q5.2,0,10.4,0a.63.63,0,0,1,.72.52c.31.95.67,1.87,1,2.82a4.47,4.47,0,0,0,2.79,2.85,12.71,12.71,0,0,0,3.72.62c.75-.08,1.63-.19,2.5-.25C340,76.8,340.09,76.68,339.91,76.21Zm-13.56-13H321c-.17,0-.48.09-.33-.29l3.11-8.34,2.9,8.2C326.81,63.09,326.7,63.18,326.35,63.18Z"/><path class="cls-1" d="M277.21,76.17q-5.85-15-11.67-30A3.54,3.54,0,0,0,263.16,44a6.62,6.62,0,0,0-2.21-.29,17.25,17.25,0,0,0-2.95.37,1.05,1.05,0,0,0-.86.73q-4.68,11.67-9.37,23.33c-.76,1.91-1.54,3.81-2.28,5.73a1.81,1.81,0,0,0,1.16,2.61,4.84,4.84,0,0,0,.65.19,16.05,16.05,0,0,0,5.13.1c.38,0,.46-.31.56-.59.68-1.81,1.37-3.63,2-5.46a.6.6,0,0,1,.67-.48q5.24,0,10.47,0c.4,0,.54.15.66.5.3.92.67,1.82,1,2.75a4.52,4.52,0,0,0,3.12,3,13.26,13.26,0,0,0,5.91.28C277.33,76.77,277.39,76.64,277.21,76.17Zm-13.74-13c-1.7,0-3.4,0-5.1,0-.22,0-.55.11-.37-.36,1-2.7,2-5.41,3.09-8.28,1,2.78,1.89,5.41,2.84,8C264.12,63.08,264,63.19,263.47,63.18Z"/><path class="cls-1" d="M129.22,76.21q-5.82-15-11.65-30a3.44,3.44,0,0,0-2.18-2.08,6.37,6.37,0,0,0-2.14-.38,15.54,15.54,0,0,0-3.41.41.84.84,0,0,0-.66.6q-5.75,14.34-11.51,28.68c-.77,1.92-.3,2.8,1.74,3.29a15.08,15.08,0,0,0,5.06.06c.34,0,.42-.28.51-.55.67-1.82,1.36-3.64,2-5.46.12-.32.25-.51.67-.5,3.51,0,7,0,10.53,0a.55.55,0,0,1,.61.46c.3.88.66,1.74.91,2.63a4.7,4.7,0,0,0,3.6,3.33,14.33,14.33,0,0,0,5.65.13C129.48,76.75,129.33,76.5,129.22,76.21Zm-13.62-13q-2.58,0-5.16,0c-.45,0-.54-.1-.38-.54,1-2.63,2-5.27,3-8.1l1.78,5c.37,1,.71,2.1,1.11,3.13C116.15,63.12,116,63.19,115.6,63.18Z"/><path class="cls-22" d="M31.4,20l3.12-.7a5.12,5.12,0,0,1,.67,2c.27,1,.6,1.95.88,2.93.16.54.31,1.11-.19,1.59-2,.41-3.91.82-5.85,1.25-.74.17-1,.76-.79,1.82a2.2,2.2,0,0,0,.62,1.32,1,1,0,0,1,.31.8,2.44,2.44,0,0,0,.26,1.24c.7,1.63,1.37,3.27,2.07,4.9a1.66,1.66,0,0,0,.67.9c.21.11.43.34.09.58a57.28,57.28,0,0,1-7.1-2.46,76.85,76.85,0,0,1-9.34-4.46c-.24-.13-.45-.29-.68-.44A11.5,11.5,0,0,1,19,30.14c2-.71,4.05-1.41,6.13-2,.95-.25,1.13-.61.79-1.53-.54-1.41-.74-2.93-1.36-4.32.07-.3.34-.34.57-.42,1.61-.63,3.26-1.14,4.92-1.63A4.48,4.48,0,0,1,31.4,20Z"/><path class="cls-23" d="M12.52,29A20,20,0,0,1,6.8,23.46a9,9,0,0,1,2.05-1.74,31.44,31.44,0,0,1,3.44-2.27c.88-.59,1.85-1,2.77-1.57.23-.13.49-.37.79-.1a50,50,0,0,0,1.2,6.09,4.69,4.69,0,0,0,.61,1.5c.11.26-.08.38-.25.48a46.51,46.51,0,0,0-4.56,3.06A1.26,1.26,0,0,1,12.52,29Z"/><path class="cls-24" d="M12.52,29a30.93,30.93,0,0,1,4.77-3.26c.13-.08.25-.18.37-.27a2.3,2.3,0,0,1,1.2-.84c1.6-.77,3.2-1.56,4.87-2.19.28-.11.56-.33.88-.1a4.89,4.89,0,0,1,.9,2.37c.2.7.41,1.39.64,2.07a1,1,0,0,1-.75,1.52c-2.59.67-5.1,1.56-7.61,2.46a6.09,6.09,0,0,1-1.65.57A23.74,23.74,0,0,1,12.52,29Z"/><path class="cls-25" d="M12.35,19.59A37.75,37.75,0,0,0,7.1,23.31a1.4,1.4,0,0,1-.3.15,8.33,8.33,0,0,1-1.67-4.1c-.19-1,.66-1.38,1.26-1.82a19.14,19.14,0,0,1,5.15-2.68.59.59,0,0,1,.43.48c.24,1.08.4,2.18.58,3.28A1.17,1.17,0,0,1,12.35,19.59Z"/><path class="cls-26" d="M42.81,38.68l-4.93,1.67a30.64,30.64,0,0,0-3.34-1.28,7.12,7.12,0,0,1,2.29-.36,36.23,36.23,0,0,1,5.61-.15A.43.43,0,0,1,42.81,38.68Z"/><path class="cls-27" d="M35.88,25.89c.4-1-.14-1.94-.41-2.86-.36-1.23-.69-2.45-.95-3.7a34.86,34.86,0,0,1,5.15-1.06,54,54,0,0,1,8.13-.83c.33,0,.65-.19,1-.12a14.11,14.11,0,0,0,1,3.54c.29.95.73,1.87.12,2.84a58,58,0,0,0-5.85.83c-1.58.15-3.15.43-4.72.73Z"/><path class="cls-28" d="M24.61,22.35A28.3,28.3,0,0,0,20.66,24c-1,.47-2,1-3,1.5-.39-.07-.47-.45-.54-.72a29.36,29.36,0,0,1-1.35-7c.06-.32.34-.4.58-.51A83.17,83.17,0,0,1,27.23,13a15.28,15.28,0,0,1,2-.41l.53,0c-.29.89.16,1.73.23,2.59A29.42,29.42,0,0,0,30.72,19c.1.43.17.9.68,1.08-1.68.54-3.37,1.07-5,1.63A8,8,0,0,0,24.61,22.35Z"/><path class="cls-29" d="M29.22,12.56a78.37,78.37,0,0,0-8.95,3.13c-1.52.65-3,1.29-4.5,2-1.18.53-2.29,1.22-3.42,1.85a13,13,0,0,0-.46-3.46c-.09-.43,0-.93-.35-1.27,1.23-.53,2.55-.79,3.81-1.24a55.48,55.48,0,0,1,6.14-.93A68.73,68.73,0,0,1,29.22,12.56Z"/></g></g></svg>