<svg xmlns="http://www.w3.org/2000/svg" viewBox="0 0 341.1 108.63"><defs><style>.cls-1{fill:#06a6e0;}.cls-2{fill:#36b349;}.cls-3{fill:#25a9e0;}.cls-4{fill:#05673a;}.cls-5{fill:#dc2029;}.cls-6{fill:#ee3f30;}.cls-7{fill:#14a69c;}.cls-8{fill:#8cc53f;}.cls-9{fill:#f5931d;}.cls-10{fill:#f05840;}.cls-11{fill:#0e75b9;}.cls-12{fill:#0a9344;}.cls-13{fill:#fdca31;}.cls-14{fill:#283990;}.cls-15{fill:#d61d5c;}.cls-16{fill:#b41c2a;}.cls-17{fill:#f8ac1a;}.cls-18{fill:#9c1f61;}.cls-19{fill:#bdd331;}.cls-20{fill:#06502b;}.cls-21{fill:#91278f;}.cls-22{fill:#652f8d;}.cls-23{fill:#4fbae6;}.cls-24{fill:#727c83;}.cls-25{fill:#5fbbe2;}.cls-26{fill:#8c7778;}.cls-27{fill:#60997d;}.cls-28{fill:#8e7877;}.cls-29{fill:#f07462;}.cls-30{fill:#a2cf68;}.cls-31{fill:#f7a64a;}.cls-32{fill:#db7132;}.cls-33{fill:#755490;}.cls-34{fill:#5581b0;}.cls-35{fill:#6dc67a;}.cls-36{fill:#6a786b;}.cls-37{fill:#3b89c1;}.cls-38{fill:#738178;}.cls-39{fill:#4fb8e3;}.cls-40{fill:#707c84;}.cls-41{fill:#8e5d5e;}.cls-42{fill:#af5080;}.cls-43{fill:#a1cb6d;}.cls-44{fill:#62a3c3;}.cls-45{fill:#876586;}.cls-46{fill:#cc706a;}.cls-47{fill:#a76da6;}.cls-48{fill:#48b6e3;}.cls-49{fill:#42b6e4;}.cls-50{fill:#5b9ccc;}.cls-51{fill:#907c7a;}</style></defs><g id="Capa_2" data-name="Capa 2"><g id="Capa_1-2" data-name="Capa 1"><path class="cls-1" d="M125.39,82c-13.15,0-23.08-7.52-25.68-19.43-3-13.8,2.47-26.44,13.9-31.7A24.73,24.73,0,0,1,125,28.67c4.57.14,9.11-.13,13.41,1.66,1.8.74,4.64,1,4.71,3.24.09,2.9-1.25,5.76-2.9,8.24-.81,1.22-2,.21-2.88-.16-4.18-1.7-8.58-2.86-13-2.23-9,1.28-14.28,9.11-12.83,18.31,1.82,11.57,9,14.12,18.79,13a28.11,28.11,0,0,0,8.23-2.3c.67-.29,1.41-1,2.07-.46,2.39,2,2.43,5,3.31,7.68.61,1.84-1.19,2.57-2.46,3.22C136.39,81.45,130.92,81.91,125.39,82Z"/><path class="cls-1" d="M270.49,43.38l.65-.36c4.24-.81,4.24-.81,4.19-5.52,0-.31,0-.61-.06-.92.74-8.75,8.17-12.74,17.38-11.84.63.06,1.24.25,1.87.33,5.78.75,6,1.22,4.51,6.75-.67,2.45-1.8,3.11-4.31,2.76-6.17-.88-8.36,1.36-8,7.76,2.9.84,5.91-.13,8.82.54,2.89,2.1,1.44,5.08,1.15,7.54-.26,2.09-2.66,1.1-4.1,1.13-6,.1-6,0-6,6,0,6.79-.06,13.57,0,20.35,0,2.16-.57,3.22-2.87,3-2.7-.3-5.48.56-8.14-.53-.7-6.54-.09-13.11-.33-19.66-.1-2.94.43-5.9-.32-8.82-1.5-.93-3.63.77-4.9-1.15C270.52,48.29,269.82,45.79,270.49,43.38Z"/><path class="cls-1" d="M208.54,80.24c-3.39,1.31-6.89.51-10.33.5-1.55,0-1.49-1.55-1.49-2.72,0-4.78-.12-9.56,0-14.34a72.82,72.82,0,0,0-1.53-17.37c-.55-2.59.21-3.85,2.89-3.88a10.76,10.76,0,0,0,1.26-.13c6.31-.82,6.31-.82,8.31,5.31a37.92,37.92,0,0,1,2.67-3.15c2.81-2.67,9.15-3.55,12.69-1.83,1.6.78,2.57,1.84,1.71,3.78a20.1,20.1,0,0,0-.71,2.44c-1.53,5.24-1.53,5.23-6.64,4.4-3.52-.58-6.13,1-8.25,3.6-.67,6.43-.09,12.88-.31,19.32C208.79,77.53,209.16,78.92,208.54,80.24Z"/><path class="cls-2" d="M27.66,59c2.93,5.2,5.55,10.49,5.83,16.62.07,1.39-.64,1.92-1.81,2.07q-7.35.91-14.7,1.8c-1.67.2-2.25-.57-2.17-2.21.09-1.8,0-3.6-.07-5.4a58.51,58.51,0,0,1,.08-12.34l.61-.49A70.35,70.35,0,0,0,27.66,59Z"/><path class="cls-3" d="M48.56,25c.52,2.17-.32,3.25-2.49,3.92a25.64,25.64,0,0,0-12.71,9.13c-.49.63-.81,1.78-1.8,1.59s-.66-1.43-.76-2.16C30,32.3,29.43,27.06,28.7,21.84c-.22-1.57-.07-2.78,1.78-3,5.34-.7,10.68-1.36,16-2.08.68-.1,1.24-.18,1.65.47C48.79,19.78,48,22.44,48.56,25Z"/><path class="cls-4" d="M14.33,22c1.82-2.12,4.63-.76,6.76-1.92.68-.37,1.73,0,2.51-.25,2.52-.85,2.95.82,3.19,2.58.71,5.11,1.28,10.24,2,15.34.34,2.38-.07,3.89-2.91,4.08s-5.42.86-8.14,1.06c-1.16.08-2.91,1-3.41-1.19Q14.78,31.83,14.33,22Z"/><path class="cls-5" d="M76.93,35.87c-.27,1.72-1.41,1.55-2.17.65-3.28-3.84-7.76-5.88-12-8.27a33.19,33.19,0,0,1-.06-9.07c0-1.06.08-2.11.07-3.17,0-.82.18-1.64,1.07-1.66C68,14.23,72,12.5,76.22,12.84c.25,0,.48.37.71.56A224.54,224.54,0,0,1,76.93,35.87Z"/><path class="cls-6" d="M60.76,84.07c-.5-2.67.32-4.21,3.18-5.08a23.68,23.68,0,0,0,9.8-6.23c1.21-1.22,2.46-2,3.19.46a147.52,147.52,0,0,1,0,19c-5.28,1.33-10.64.49-16,.48-.63,0-.6-.74-.56-1.28C60.88,89,60.17,86.51,60.76,84.07Z"/><path class="cls-7" d="M48.34,7.86c-.27,7.17.88,6-5.41,7-4.16.66-8.34,1.12-12.49,1.81-1.82.3-2.4-.24-2.67-2-1.15-7.73-1.2-7.71,6.15-10.79A59.34,59.34,0,0,1,45.47.44C47.17.1,47.88.55,48,2.21,48.12,4.42,48.26,6.64,48.34,7.86Z"/><path class="cls-8" d="M15,82.59c2.2-1.54,4.8-1.11,7.23-1.46q4.53-.64,9.07-1.22c1.16-.14,2.51-.32,2.76,1.31.54,3.53,1,7.08,1.41,10.63,0,.24-.54.55-.83.83-6-.34-11.94-.24-17.9-.05A2.73,2.73,0,0,1,15,90.89,57.48,57.48,0,0,0,15,82.59Z"/><path class="cls-9" d="M12.09,79.41c-4.13,1.94-4.45,1.84-6.39-2A55.32,55.32,0,0,1,.85,61.76C.5,59.79,1,59,3.06,59.1a48.21,48.21,0,0,0,6.36,0c2.37-.2,3,.89,2.75,3A172.92,172.92,0,0,0,12.09,79.41Z"/><path class="cls-10" d="M77,102.53c0,1.21-.85,1.55-1.76,1.92a58.73,58.73,0,0,1-13.33,3.62c-1.14.18-2.52,0-2.18-1.39.68-2.83-.17-5.69.49-8.47.19-2.09,1.3-2.72,3.37-2.56C68,96,72.43,95.3,76.86,96l0-.09A19.12,19.12,0,0,1,77,102.53Z"/><path class="cls-11" d="M38,92.08C37,88.44,37,84.65,36.4,80.94a1.32,1.32,0,0,1,1-1.67,16.21,16.21,0,0,1,11.89,1c2.08,1.08.7,3.27,1.07,4.92-.34,2.34.3,4.74-.35,7.06l0,0C46.05,92.55,42,92.85,38,92.08Z"/><path class="cls-12" d="M15.14,56.44c-1.75-3.32-.61-6.8-.5-10.21,0-.71.83-1.12,1.39-1.14,3.88-.14,7.66-1.61,11.6-.86.72.14,1.87.09,1.65,1C28.41,49,28.87,53,27,56.48A55.69,55.69,0,0,1,15.14,56.44Z"/><path class="cls-13" d="M12.19,22c0,6.12-.07,12.05,0,18,0,2.42-.46,4-3.3,3.7a1.12,1.12,0,0,0-.32,0C.34,44.9.32,44.89,3.07,37.09a59.7,59.7,0,0,1,6.5-13.4A2.67,2.67,0,0,1,12.19,22Z"/><path class="cls-14" d="M44.62,95.36c6.71,0,6.71,0,6.62,6.75s-.08,6.7-6.65,5.46c-5-.94-5-.94-5.7-6.72-.68-5.48-.68-5.48,4.78-5.49Z"/><path class="cls-15" d="M60.77,6.21c.1,6.18-2.16,8.13-8.51,7.43-1-.11-1.59-.55-1.61-1.56,0-3.36-.76-6.69-.45-10.09C50.33.54,50.77-.18,52.32,0a16.29,16.29,0,0,0,2.21.13C60.68.1,60.68.1,60.77,6.21Z"/><path class="cls-16" d="M63,6.68c0-6.69.12-6.79,6.1-5.1C71,2.13,72.9,2.82,74.8,3.46,77,4.21,77.44,6.09,77.35,8s-1.48,2.47-3.24,2.63A59.43,59.43,0,0,0,66,11.74c-2.81.64-3.39-.62-3.2-3C62.87,7.93,63,7.09,63,6.68Z"/><path class="cls-17" d="M6,56.87c-6,0-6.51-.61-5.66-6.59.3-2.1.84-3.75,3.64-3.57A19.68,19.68,0,0,0,9.9,46c1.94-.49,2.22.48,2.27,1.93,0,1,0,1.9,0,2.86C12.15,57.62,12.76,56.82,6,56.87Z"/><path class="cls-18" d="M60.09,24.46c.24,2.52-.54,3.88-3.4,3.22a9.71,9.71,0,0,0-2.85,0c-2.23.17-3.13-.88-3-3a25.8,25.8,0,0,0,.18-3.17c-.06-1.83-1.43-4.31.56-5.27a14.7,14.7,0,0,1,8-1c.5.06.58.54.59,1A31.17,31.17,0,0,0,60.09,24.46Z"/><path class="cls-19" d="M24.56,94.83c2.78.75,6.17.55,9.53.51,1.32,0,2,.5,2.14,1.75.25,2,.56,4,.73,5.93.15,1.68-.45,2.36-2.25,1.61a51.75,51.75,0,0,1-11.83-6.54c-.85-.66-2.52-1.08-2-2.41S22.86,94.86,24.56,94.83Z"/><path class="cls-20" d="M16.38,18.77c-.78-.15-1.55.06-1.81-.72-.2-.6.36-.94.7-1.32a50.21,50.21,0,0,1,7.29-6.61c1.41-1,2.42-.68,2.64,1.13.83,7,2.33,5.46-4.63,6.93C19.11,18.48,17.6,18.08,16.38,18.77Z"/><path class="cls-21" d="M58.13,89c-.9,1.15.9,3.39-1.59,3.9-2.84.58-3.36,0-3.45-3.7a25.86,25.86,0,0,1,.07-8A6.27,6.27,0,0,1,57.67,81C58.44,83.62,57.63,86.36,58.13,89Z"/><path class="cls-22" d="M57.65,99.86c0,2.1,0,4.21.07,6.32.05,1.73-.74,2.49-2.48,2.45s-2.11-.95-2-2.46c.1-1.9,0-3.79.07-5.69a4.42,4.42,0,0,0,.23-2.16c0-1.39-.24-2.73,2-2.68,2,0,2.23,1.13,2.2,2.64C57.65,98.81,57.66,99.33,57.65,99.86Z"/><path class="cls-23" d="M275,51.87c1.29.69.62,1.89.63,2.82.05,8.55,0,17.11,0,25.66-1-.81-.65-1.95-.66-3C275,68.88,275,60.38,275,51.87Z"/><path class="cls-24" d="M237.94,65.51c.05-1.29,1.06-.78,1.66-.78,7.31,0,14.63,0,22,.07-1.31,1.07-2.85.48-4.26.51C250.84,65.44,244.39,65.46,237.94,65.51Z"/><path class="cls-25" d="M208.54,80.24q0-9.85,0-19.71c0-1.25-.28-2.56.6-3.68,0,6.91,0,13.83,0,20.74C209.15,78.5,209.49,79.53,208.54,80.24Z"/><path class="cls-26" d="M76.93,35.87V13.4c1.23,3.7.48,7.5.48,11.23S78.16,32.17,76.93,35.87Z"/><path class="cls-27" d="M14.33,22c.55,6.56,1,13.13,0,19.7Z"/><path class="cls-28" d="M76.89,92.26q0-9.53,0-19c1.24,4.68.32,9.45.5,14.17C77.49,89,78.07,90.75,76.89,92.26Z"/><path class="cls-29" d="M76.86,96c-4.33,0-8.67.09-13,0-1.84,0-3,.53-3.7,2.23-.33-1.42-.6-2.83,1.59-2.83,4.82,0,9.65,0,14.47.07C76.44,95.44,76.65,95.8,76.86,96Z"/><path class="cls-30" d="M16.76,92.63a67.9,67.9,0,0,1,17.9.05A127.3,127.3,0,0,1,16.76,92.63Z"/><path class="cls-31" d="M12.09,79.41a61.8,61.8,0,0,1,.08-17.34A109.12,109.12,0,0,1,12.09,79.41Z"/><path class="cls-32" d="M12.22,87.27a7.51,7.51,0,0,1-2.56-2.71c-.4-.51-.79-1.21-.22-1.66.42-.33,1.19-.25,1.8-.3a1,1,0,0,1,1.17,1.09C12.36,84.78,12.29,85.87,12.22,87.27Z"/><path class="cls-33" d="M57.65,99.86c-1.25-1,.34-4-2.36-3.69s-.6,3.2-2,4.31c-.08-.72-.18-1.44-.24-2.16-.18-1.88.1-3.09,2.59-3.06s2.62,1.42,2.55,3.21C58.16,99,58.16,99.52,57.65,99.86Z"/><path class="cls-34" d="M40.11,76.39a28.15,28.15,0,0,1-3.11.68c-1.44.11-1.11-1.29-1.53-2a1.18,1.18,0,0,1,.36-1.68c.86-.39,1.21.57,1.76,1Z"/><path class="cls-35" d="M27.66,59a28.66,28.66,0,0,1-12.23,0A68.43,68.43,0,0,1,27.66,59Z"/><path class="cls-36" d="M14.82,59.57q0,6.16-.08,12.34A26.8,26.8,0,0,1,14.82,59.57Z"/><path class="cls-37" d="M38,92.08l12.07.16C46.05,93.18,42,93.63,38,92.08Z"/><path class="cls-38" d="M15.14,56.44l11.83,0A24.78,24.78,0,0,1,15.14,56.44Z"/><path class="cls-39" d="M275.27,36.58a8.81,8.81,0,0,1,.35,1.5c.35,4.82.27,4.9-4.48,4.94.34-.17.72-.53,1-.48,2.38.37,3.11-.66,2.83-2.92A14.32,14.32,0,0,1,275.27,36.58Z"/><path class="cls-40" d="M295.57,42.88c-2.94-.14-5.95.8-8.83-.54C289.68,42.61,292.69,41.76,295.57,42.88Z"/><path class="cls-41" d="M62.68,19.18l.06,9.07A15.33,15.33,0,0,1,62.68,19.18Z"/><path class="cls-42" d="M60.09,24.46a13.45,13.45,0,0,1,.07-8.3C60.23,18.93,60.64,21.7,60.09,24.46Z"/><path class="cls-43" d="M15,82.59a16.66,16.66,0,0,1,0,8.3A36,36,0,0,1,15,82.59Z"/><path class="cls-44" d="M48.56,25c-.87-2.57-.41-5.21-.42-7.83C49.38,19.75,48.5,22.42,48.56,25Z"/><path class="cls-45" d="M53.16,81.22c0,2.67,0,5.33-.07,8A11.7,11.7,0,0,1,53.16,81.22Z"/><path class="cls-46" d="M60.76,84.07c.12,2.48.4,5-.39,7.39C60.4,89,59.64,86.49,60.76,84.07Z"/><path class="cls-47" d="M58.13,89c-1.12-2.63-.07-5.38-.46-8C58.84,83.6,58.25,86.32,58.13,89Z"/><path class="cls-48" d="M226.69,58.27a15.17,15.17,0,0,1,0,7.09A17.46,17.46,0,0,1,226.69,58.27Z"/><path class="cls-49" d="M270.49,43.38c-.12,2.44.47,4.93-.4,7.34C269.88,48.25,269.17,45.76,270.49,43.38Z"/><path class="cls-50" d="M50,92.26c.19-2.35-.55-4.75.35-7.06C50.66,87.57,51.2,90,50,92.26Z"/><path class="cls-51" d="M77,102.53c0-2.2,0-4.41,0-6.62A8.77,8.77,0,0,1,77,102.53Z"/><path class="cls-1" d="M187.5,52.39c-3.82-8-13.22-12.17-23.45-10.39C147.43,44.9,143.66,62.83,151,73.5c4.4,6.42,10.92,8.61,18.54,8.49,11.86-.19,20-8.21,20-20.49A16.81,16.81,0,0,0,187.5,52.39ZM168.68,72.25c-6,.2-9.93-4.3-9.85-10.75.07-6.16,3.82-9.83,10-9.78,5.76-.57,9.69,4,9.52,10.19C178.14,68.93,174.54,72,168.68,72.25Z"/><path class="cls-1" d="M341,61.92c0-13.59-7.52-20.19-24.34-19.85-8.76.17-17.46,6.77-17.59,19.72C299,73.73,307.75,82.2,320.75,82,333.24,81.85,341.88,72.52,341,61.92ZM320.33,72.29c-5.78.06-9.88-4.28-9.9-10.48,0-6,3.63-10.06,9.06-10.1,6.92,0,10.62,3.54,10.54,10.2C330,68,326,72.24,320.33,72.29Z"/><path class="cls-1" d="M261.89,48.88c-4.16-6.09-12-8.6-20.68-6.64-8.26,1.87-13.2,7.33-14.52,16,.1,2.36.06,4.72,0,7.09a17.6,17.6,0,0,0,3.2,8.48c6.84,10.35,23.1,9.35,30.59,5.46A2.67,2.67,0,0,0,262,75.91c-.71-1.9-.33-4.35-2.51-5.52a2,2,0,0,0-1.51.13c-2.35,1.06-4.93,1.15-7.38,1.77C244.9,73.7,240,71,237.94,65.51c.86-1,2-.44,3-.46,6.88-.19,13.76.26,20.63-.25a3.25,3.25,0,0,0,3.35-3.47C265,56.91,264.46,52.64,261.89,48.88Zm-10,9.32c-1.91,0-3.83,0-5.74,0-1.6,0-3.2.1-4.78,0-1.08-.09-2.7.72-3.11-.53-.27-.81.66-2.14,1.28-3.09,3.14-4.84,11.69-4.82,14.37,0C255.31,57.09,254.72,58.17,251.87,58.2Z"/></g></g></svg>