<svg xmlns="http://www.w3.org/2000/svg" viewBox="0 0 135.77 133.96"><defs><style>.cls-1{fill:#adbbf4;}.cls-2{fill:#4b6ae7;}.cls-3{fill:#2043b6;}.cls-4{fill:#9caef2;}.cls-5{fill:#b1bdeb;}.cls-6{fill:#9eaee7;}</style></defs><g id="Capa_2" data-name="Capa 2"><g id="Capa_1-2" data-name="Capa 1"><path class="cls-1" d="M97.46.11V0h1.91A6.45,6.45,0,0,1,97.46.11Z"/><path class="cls-2" d="M99.37,0h7.93c1.38.15,2.77.06,4.16.14a39.58,39.58,0,0,1,5,.46,6.54,6.54,0,0,1,4.94,4.15,39.39,39.39,0,0,1,2,5.89,178.39,178.39,0,0,1,3.65,18.78c.69,4.54,1.28,9.09,1.84,13.65.51,4.18,1,8.35,1.39,12.53s.86,8.56,1.26,12.84c.34,3.62.63,7.25.94,10.88q.44,5.07.82,10.15c.24,2.94.44,5.89.65,8.84.23,3.11.45,6.23.68,9.35.18,2.53.29,5.07.49,7.6.36,4.46.36,8.94.58,13.41a16,16,0,0,0,.07,2.4v1.62c-.35,1.14-.47,1.24-1.69,1.24H98.64c-.21,0-.48.12-.6-.14s.11-.4.26-.56a1.78,1.78,0,0,0,.44-1.43c-.25-2.75-.63-5.48-.95-8.23q-.71-5.92-1.42-11.87T95,99.91c-.55-4.68-1.13-9.37-1.67-14-.13-1.1-.27-2.19-.39-3.28s.15-1.53,1.36-1.62c3-.22,5.94-.5,8.91-.77a1.52,1.52,0,0,0,1.54-1.56c.17-2.68.39-5.36.48-8,.06-1.75.25-3.5.37-5.26.07-.93.07-1.85.12-2.78a1.28,1.28,0,0,0-1.24-1.38,7.12,7.12,0,0,0-1.46,0c-3.2.18-6.39.34-9.59.45-1.1,0-2.19.15-3.29.1-.51,0-.84-.21-.89-.76a27.19,27.19,0,0,1,.14-7.75,7.93,7.93,0,0,1,3.74-5.62,10.57,10.57,0,0,1,5.08-1.24,54.86,54.86,0,0,1,7.47.33c1.34.14,1.85-.21,2.07-1.55.76-4.63,1.49-9.27,2.22-13.9a1.44,1.44,0,0,0-1.28-1.87,83.11,83.11,0,0,0-9.26-1.52c-1.36-.14-2.73-.3-4.1-.31-.54,0-1.09,0-1.63-.05a3.22,3.22,0,0,0-.76,0c-.63,0-1.26,0-1.89.05a24.27,24.27,0,0,0-12.26,3.28A15.56,15.56,0,0,0,71.41,41a37.08,37.08,0,0,0-.64,10c.21,4,.69,7.93,1.16,11.89.13,1.08-.1,1.37-1.16,1.51l-7.85,1c-1.29.18-1.75.69-1.78,2-.09,3.61-.34,7.22-.49,10.83a31.07,31.07,0,0,1-.24,4.09,2.26,2.26,0,0,0,0,.37c0,1.57.58,2.09,2.12,1.83,3.55-.62,7.08-1.27,10.62-1.89l.29,0c1.22-.21,1.45,0,1.64,1.2q1.74,11.49,3.47,23c1.24,8.29,2.52,16.57,3.74,24.87a3.43,3.43,0,0,0,.69,1.75c.27.34.22.59-.29.56H39.54c-.28,0-.59.11-.84-.11a.38.38,0,0,1,0-.36,3.53,3.53,0,0,0,.55-2.51c-.11-4-.05-8-.18-12-.18-5.46-.17-10.91-.07-16.35.08-4.18,0-8.37.14-12.54.1-2.57,0-5.13.12-7.69.16-3.91.18-7.82.31-11.73.09-3,.18-6,.29-8.93.14-3.68.29-7.37.45-11,.12-2.9.26-5.81.43-8.71.26-4.21.51-8.43.82-12.64C42,24.19,42.39,19.11,43,14c.23-2,.47-4,.82-5.95.21-1.18.3-2.28-.68-3.18,0-.49.39-.51.71-.57,1.76-.29,3.53-.5,5.3-.71,4.27-.52,8.54-1,12.82-1.44,3.45-.34,6.91-.67,10.36-1S79.34.66,82.87.42C85.08.27,87.29.27,89.5.22,92.14.16,94.77.07,97.41.07A10.71,10.71,0,0,0,99.37,0Z"/><path class="cls-3" d="M.19,60.78l-.07-3.1a12.17,12.17,0,0,1,0-1.6c0-.93,0-1.86,0-2.79v-10c.07-.74,0-1.48,0-2.22a8.67,8.67,0,0,1,0-1.44c0-.59.05-1.17.05-1.76,0-2.9.24-5.79.46-8.67A57.53,57.53,0,0,1,2.24,18.68a10.74,10.74,0,0,1,2.54-5.15,9,9,0,0,1,3.15-1.75,50.84,50.84,0,0,1,6.82-2q4.65-1,9.35-1.94c3.93-.73,7.86-1.4,11.8-2,2.4-.38,4.81-.64,7.22-1,1.06.4,1.37.93,1.2,2.19-.19,1.42-.44,2.84-.63,4.27q-.59,4.37-1,8.73c-.23,2.65-.49,5.3-.7,8-.19,2.44-.32,4.87-.47,7.31-.19,3.09-.38,6.19-.56,9.28-.07,1.08-.08,2.15-.15,3.22-.17,2.85-.2,5.71-.33,8.57-.22,4.37-.34,8.74-.46,13.11q-.15,4.91-.29,9.81c-.08,3.11,0,6.22-.17,9.31-.11,2.47,0,4.94-.1,7.41-.15,6.55-.21,13.11-.12,19.66,0,3.71,0,7.43.16,11.14,0,1.71.05,3.42.13,5.13a1.94,1.94,0,0,1-.94,1.92l-17.1,0c-5,0-10,0-15,0-1.49,0-1.9-.77-2-1.89-.22-2.58-.38-5.17-.62-7.74-.16-1.76-.3-3.52-.44-5.28-.21-2.54-.42-5.07-.59-7.61-.14-2-.31-4-.44-5.93s-.3-4.26-.44-6.39-.31-4.54-.44-6.82c-.15-2.54-.32-5.08-.45-7.63-.1-1.94-.19-3.88-.29-5.82C.77,76.61.69,74.47.59,72.34c-.14-2.75-.27-5.5-.28-8.25,0-.48-.27-.94-.1-1.44C.21,62,.25,61.4.19,60.78Z"/><path class="cls-4" d="M92.92,27a8.5,8.5,0,0,1-2,.08A7.47,7.47,0,0,1,92.92,27Z"/><path class="cls-4" d="M95.31,27.11A5.77,5.77,0,0,1,93.65,27,6.17,6.17,0,0,1,95.31,27.11Z"/><path class="cls-2" d="M0,53.29a12.38,12.38,0,0,1,.08,2.79Q0,56.08,0,56Z"/><path class="cls-2" d="M.12,41.1A8,8,0,0,1,0,43.29V41.15C0,41.07.05,41.05.12,41.1Z"/><path class="cls-2" d="M.19,60.78a4.07,4.07,0,0,1,0,1.87C.2,62,.2,61.4.19,60.78Z"/><path class="cls-5" d="M0,56l.09.09v1.6A4.79,4.79,0,0,1,0,56Z"/><path class="cls-6" d="M.12,41.1l-.08,0a4.32,4.32,0,0,1,.08-1.52Z"/></g></g></svg>