<svg xmlns="http://www.w3.org/2000/svg" viewBox="0 0 595.9 766.53"><defs><style>.cls-1{fill:#f5a40c;}.cls-2{fill:#010101;}.cls-3{fill:#e14223;}.cls-4{fill:#30b195;}.cls-5{fill:#33b297;}.cls-6{fill:#040404;}.cls-7{fill:#33b296;}.cls-8{fill:#080808;}.cls-9{fill:#e24527;}.cls-10{fill:#34b297;}.cls-11{fill:#e2472a;}.cls-12{fill:#37b398;}.cls-13{fill:#f2a513;}.cls-14{fill:#f5a311;}.cls-15{fill:#3db69c;}.cls-16{fill:#e2492b;}.cls-17{fill:#090909;}.cls-18{fill:#e34b2d;}.cls-19{fill:#40b79d;}.cls-20{fill:#fefefe;}.cls-21{fill:#fbf0d4;}.cls-22{fill:#010000;}.cls-23{fill:#030200;}.cls-24{fill:#e24521;}.cls-25{fill:#e24621;}.cls-26{fill:#fefbf5;}.cls-27{fill:#fefdfd;}.cls-28{fill:#2fb095;}.cls-29{fill:#e14122;}.cls-30{fill:#505050;}.cls-31{fill:#f4bfb4;}.cls-32{fill:#fdfdfd;}.cls-33{fill:#fcfdfd;}.cls-34{fill:#060606;}.cls-35{fill:#faefd3;}.cls-36{fill:#f8eed2;}.cls-37{fill:#df4022;}.cls-38{fill:#b3765b;}.cls-39{fill:#040403;}.cls-40{fill:#070706;}.cls-41{fill:#e14628;}.cls-42{fill:#3eb59b;}.cls-43{fill:#2fb094;}.cls-44{fill:#96d7c9;}.cls-45{fill:#1a1818;}.cls-46{fill:#1e7ec0;}.cls-47{fill:#e34c2f;}.cls-48{fill:#e34e31;}.cls-49{fill:#e34f33;}.cls-50{fill:#e35034;}.cls-51{fill:#e45338;}.cls-52{fill:#e2492c;}.cls-53{fill:#e34b2e;}.cls-54{fill:#efe4ca;}.cls-55{fill:#34b296;}.cls-56{fill:#fafafa;}.cls-57{fill:#fefdfc;}.cls-58{fill:#0b0302;}.cls-59{fill:#110503;}.cls-60{fill:#180704;}</style></defs><g id="Capa_2" data-name="Capa 2"><g id="Capa_1-2" data-name="Capa 1"><path class="cls-1" d="M426.82,584.33c-17,4.16-34.09,7.28-51.66,6.89-1.73,0-2.69.42-3,2-4.75,22.24-18.93,38.82-33.36,55.17A269.2,269.2,0,0,0,320,672.76c-9,12.92-11.85,27.5-12.52,42.81-.25,5.6-1,11.16-3.82,16.2a6,6,0,0,0-.61,3.62,178.53,178.53,0,0,1,.44,23.81c-.11,3.45,1,4.5,4.25,3.84a18.42,18.42,0,0,1,2.79-.18c.87-.05,1.65.24,1.75,1.14.12,1.14-.7,1.58-1.75,1.65l-.47,0c-9.13,1.74-9.38,1.5-9.31-7.78.05-6.94,0-13.88,0-21.84-8.49,6.23-16.57,6.86-25.26,2.49,0,7.7,0,15,0,22.24,0,1.87.79,2.5,2.53,2.33,1.08-.1,2.17-.18,3.26-.21s2.9-.51,2.95,1.27-1.69,1.45-2.89,1.54c-10.12.81-8.56,1.64-8.62-7.57,0-4.83,0-9.66,0-14.49,0-4-.16-8-2.57-11.64-2-3.12-1.91-7.18-.87-10.48,6.77-21.34-2.43-38-14.72-54.21a195.37,195.37,0,0,0-19.14-21C228,639.15,221.8,631,215.62,622.84a69.7,69.7,0,0,1-12-26.09c-1-4-2.35-5.38-6.63-5.52A163,163,0,0,1,153,583.32c-2.33-3.19-.48-6.19.39-9.24,1.67-1.61,3.47-.91,5.21-.2,12,4.84,24.6,6.56,37.37,7.58,2.63.21,3.29-1,3.1-3.29-1.9-23.12,4.54-44,16.91-63.33a58.6,58.6,0,0,1,13.53-14.76c13.34-10.26,27.68-18.75,44.88-20.43,16.26-1.58,32.39-1.11,47.7,5.74,4.29,1.93,4.35,1.94,5.14-2.69,1.44-8.53,4.93-15.78,12.86-20.07,12.63-6.83,24.32-2,28.37,11.72a5.19,5.19,0,0,0,2.39,3.28c7.63,4.44,8.12,11.75,7.08,19.2-.5,3.58-.78,6.13,2,9.22,5.1,5.77,2.8,16.24-3.84,21.63-2.36,1.92-6.46,2.28-7,5.64-.46,2.82,1.79,5.53,2.52,8.4,2.78,11.06,4.73,22.21,4.34,33.71-.21,6.33.22,6.15,6.65,5.91a201.24,201.24,0,0,0,36.5-5.08c2.46-.56,4.67-2.86,7.51-1.32C428.63,578,429.18,581.14,426.82,584.33Z"/><path class="cls-2" d="M426.82,584.33a24,24,0,0,0-.72-9.35c-2.17-3.48-1.45-7.53-2-11.31-.47-3-.77-6.16-1-9.26a6.47,6.47,0,0,0-3.1-5.33c-4.62-3.18-7.76-7.58-6.7-13.39,1.13-6.21,5.65-9.41,11.67-10.6a16.5,16.5,0,0,1,3.21-.61c7.51.11,11-3.32,13.51-12.86,1.69-6.41.78-12.67-.84-18.9a14.69,14.69,0,0,0-8.3-10.09c-4.36-2.07-8.73-4.16-13.25-5.81-30.15-11-42.24-50-30.1-75.14,2-4.07,3.56-8.3,6.51-11.81,1.61-1.92,1.24-3.57-.38-5.35-10-11-19.94-22.23-30.26-33-4.4-4.61-9.21-8.84-12.7-14.28-1.69-2.64-3.62-3.52-6.38-.86-23,22.15-50.22,23.8-79.16,16a64.76,64.76,0,0,1-30-17.21,6.12,6.12,0,0,0-3.74-3c-18-14.87-27.3-34.31-29.93-57.2-1.52-13.33-.54-10.94-11.86-11-29.27-.13-58.55,0-87.83-.05a35.69,35.69,0,0,1-6.53-.26c-3.42-1.37-2.85-3-.28-4.71,2.42-.81,4.94-.54,7.42-.54q46,0,92.08,0c6.42,0,6.11-.08,7.2-6.14,3.65-20.46,12.45-38.13,29.13-51.14C242.53,193.2,253.11,186,266,183.31c3.91-.81,3.73-3.43,3.35-6.4-2-15.76-4.14-31.49-5.86-47.28-.17-1.55-.53-3.08,0-4.62a2.43,2.43,0,0,1,3.35-1.31c3.3,4.46,2.27,9.87,3,14.84,1.94,12.45,3.14,25,4.87,37.5.68,4.83,1,5.29,5.87,4.61A80.83,80.83,0,0,1,326.31,187c20.7,9.46,35.61,24.74,43,46.71a56.61,56.61,0,0,1,2.79,9.39,23,23,0,0,0,.8,3.57c5.38,28.65-.06,55-16.8,78.94-2.26,3.22-2.5,5.07.28,8.29C369.8,349.4,384.28,364,398,379.25c3.5,3.91,3.29,3.74,7.83.62,11.86-8.14,24.6-13.94,39.4-13.87a61.67,61.67,0,0,1,8.79,1.05c5.71.84,6.19.57,7.83-5.09,1.78-6.13,3.55-12.26,5.25-18.41,8.08-29.09,16-58.21,24.41-87.22.73-2.54.92-5.22,2-7.66.67-1.37,1.45-2.6,3.16-2.76a2.66,2.66,0,0,1,1.38.39c1,1.23.39,2.18-.54,3.08q-7.91,28.25-15.82,56.51c-5.73,20.48-11.42,41-17.25,61.43-.86,3-.5,4.39,2.78,5.78,21.76,9.27,32.16,30.24,30.19,52.37-1.71,19.26-10.26,34.3-27.44,44.39-8.63,5.06-11.38,14.42-13,23.82a39.3,39.3,0,0,0,2.62,22.38,9.43,9.43,0,0,0,4.91,5.18c10.15,4.92,11.37,15.5,2.45,22a3.23,3.23,0,0,0-1.49,3.46c.27,2.47.5,4.95.74,7.43a2.14,2.14,0,0,1-2.72.48c-.23-.2-.57-.42-.59-.68-.46-6.79-4.61-8-10.32-6.82a7.31,7.31,0,0,0-5.17,1.26,102.72,102.72,0,0,1-13.87,1.76c-4.87.45-5.52,1.52-4.9,6.34,1,7.87,1.49,15.79,2.34,23.68,1.59,14.55-6.34,24.74-16.49,33.26-12.74,10.71-21,24-23.59,40.18-4,25.52,3.07,47.43,23.63,64.16,22.63,18.4,47.89,18.74,72.33,6.61,22.27-11,34.33-30.89,35.25-56.58.63-17.61-4.58-33.09-15.84-46.6-3.64-4.37-8.16-7.66-12.81-10.79-5-3.39-10-6.83-15.11-10.17-8.78-5.76-13.59-14.07-14.08-24.54-.16-3.45-1.95-7,.08-10.48,3.84-1,4.05,1.24,3.55,4-.71,15.39,7,25.1,20.09,32.33,34.56,19,46.25,56.36,33.37,89.95-4.72,12.31-12.43,22-22.72,30-21.87,17-55.95,19.88-79.14,5.22C388.54,707.23,378,671.17,390.9,638.4c4.66-11.83,12.56-20.8,22-29,6.3-5.48,11.88-11.83,13.63-20.49A33.57,33.57,0,0,0,426.82,584.33Z"/><path class="cls-3" d="M234.47,332.11c2.21-.78,2.78.3,2.56,2.26-2.47,6.36-7.09,11.3-11.38,16.35-10.67,12.59-20.06,26.19-30.88,38.64-2,2.29-1.87,4.06-.08,6.54,5.95,8.22,11.13,16.83,13.07,27.08,4,21.31-6.44,46.77-24.46,58.93-7.79,5.26-15.88,9.77-25.26,11.62-7.73,1.53-8.92,7.79-9.13,14.86-.17,5.5,3.16,8.64,9.63,10.12a30,30,0,0,1,3.61,1c5.54,2,9.29,6.62,9.32,12.21a12.63,12.63,0,0,1-8,12.13c-3.39,1.48-4.56,3.36-5,6.85-.72,6-1.49,12-2.38,18-.28,1.87-.41,3.73-1.93,5.1-.38,3.17-.75,6.34-1.13,9.52-2.66,8.34-1.48,16.62.49,24.86a566.49,566.49,0,0,0,26.1,80.12c3,7.49,6.13,14.94,9.22,22.41a37.43,37.43,0,0,1,2.79,16.89c-.75,11.72-8.25,18.25-19.93,16.89-16.23-1.91-32.43-4.1-48.63-6.24-22.83-3-45.61-6.58-68.5-9-18-1.9-22.52-14.38-19.15-25.67a44.64,44.64,0,0,1,7.76-15.26c2.63-3.28,5.4-6.45,8-9.78a646.69,646.69,0,0,0,47.09-70.49c6.34-11,11.45-22.43,11.21-35.52.26-1.24-.37-2.39-.37-3.58,0-2.46,1.05-3.76,3.71-2.83,2.51,4.87.08,9.75-.09,14.6-.44,12.85-7.41,23.35-13.57,33.91a574.92,574.92,0,0,1-50.47,73.49,58.18,58.18,0,0,0-8.3,14c-4.73,11.11,0,20,11.88,22.36,7.64,1.5,15.41,2.22,23.13,3.21,29.66,3.8,59.29,7.85,88.93,11.83a91,91,0,0,0,9.3.82c8.17.24,13-4.54,13.63-12.73.63-8.41-2.33-15.83-5.48-23.37-14.21-33.95-27-68.39-34.1-104.65-1-5.25-.11-10.26.77-15.29,2.05-11.66,3.15-23.45,4.9-35.15.46-3.07-.5-4.67-3.72-5.09-9.42-1.24-18.85-2.43-28.25-3.78-3.34-.48-4,1.38-4.33,4-.44,3.82-.09,7.82-2.39,11.25a2.42,2.42,0,0,1-3-.35c.32-2.47.72-4.93.93-7.41.4-4.95,2.39-9.85-4.3-13.25-4.34-2.2-4.74-8.6-2.7-13.07,2.64-5.79,7.59-8.7,13.75-8.08a81.58,81.58,0,0,0,8.36.83c8.92,0,16.32-13.17,11.86-21-1-1.77-3-2.07-4.66-2.83-13.13-5.94-24.7-13.91-31.14-27.29-7.89-16.38-8-33.1.13-49.46,4.67-9.37,10.69-17.9,19.57-23.87,2.1-1.41,2-2.4.9-4.38Q113.56,366.1,103,346.63,90,322.72,77.11,298.7c-1.42-2.65-2.47-3.26-5.58-1.93-17,7.29-36.48,3.66-47.47-9.67-15.41-18.67-16.5-48.62,8.55-63.44,12.27-7.26,24.32-7.9,37.39-4.09,3.55,1,5.79,4,9,5.48a21.68,21.68,0,0,1,3.69,1.63c10.43,7.57,14.31,18.38,15.17,30.67a2.28,2.28,0,0,1-1.26,2.32c-1.31.93-2.48,1.87-.23,3.08,1.29,1.38.71,3,.31,4.41C94,276.58,90.26,285.42,82.3,291.7c-2.5,2-2.49,3.81-1,6.41,6,10.89,11.94,21.85,17.88,32.78,9.21,16.95,18.66,33.78,27.68,50.83,1.43,2.71,2.54,3,5.31,1.77,18-8.14,35.68-7.64,52.4,3.52,3.72,2.48,5.29.3,7.22-2.06,10-12.14,19.11-24.94,29.32-36.89a111,111,0,0,0,8.72-11.53A10.56,10.56,0,0,1,234.47,332.11Z"/><path class="cls-4" d="M81.55,226.82c-1.49.33-2.4-.19-2.58-1.77,9.17-10.21,20.43-18.17,30.1-27.82,11-11,23.34-20.54,34.37-31.47,9.85-9.75,20.83-18.22,30.6-28,10.78-10.8,22.52-20.49,33.8-30.71,3-2.72,3.58-4.86,1-8.54-7.59-11-9.39-23.26-5.47-36.08,6.41-20.94,19.11-35.78,41.29-40.7,19.63-4.36,41.62,7.09,50.84,24.92,8,15.54,10,31.2,4.45,47.75-.79,2.36.34,2.81,2.11,3.59,27.13,11.94,55.1,21.82,82.32,33.48,23.39,10,47.24,18.82,70.72,28.59,3.54,1.47,5.28,1.26,7.61-2.34,18-27.67,42.13-37.15,74.23-30.47,23.86,5,41.16,24.86,44.28,51.07,5.65,47.4-33.6,80.23-80.57,71.59-1.07-.2-2.14-.36-3.21-.54.14-.9.29-1.79.43-2.68,2.51-1.93,5.12-.38,7.62-.08,18.09,2.19,34.83-1.3,49.48-12.34,13.41-10.11,20.46-24,22.25-40.58,1.81-16.85-1.82-32.43-13.13-45.25-9.19-10.42-20.8-17-35.08-18.61a66.58,66.58,0,0,0-21.34.73c-23.29,4.85-38.68,19.1-47,41-5.92,15.61-6.57,31.33,1.2,46.66,6.5,12.84,17.62,20.2,30.57,25.33,1.64.65,3.83.46,4.63,2.64-1.57-.07-1.9,1.36-2.7,2.23-2.66,1-4.9-.44-7.1-1.4-13.54-5.9-24.64-14.6-31-28.3-1.54-3.3-3.24-3.9-6.53-2.45-20.37,9-41,17.35-61.73,25.48-3.92,1.54-7.9,2.91-11.8,4.48-1.37.55-2.82,1.61-4.34.27A2.27,2.27,0,0,1,371,244c1.21-2.1,3.46-2.55,5.45-3.36,13.85-5.64,28-10.51,41.67-16.62,10.1-4.52,20.3-8.75,30.57-12.81,3.09-1.22,3.86-3.13,3.31-6.18a62.43,62.43,0,0,1,3.84-35.72c1.14-2.73-.22-4.1-2.31-5.24-4.26-2.32-8.85-3.87-13.35-5.61-16.86-6.51-33.89-12.67-50.4-20-24.66-10.92-50-20-75-30.17-4.05-1.65-7.58-4.27-11.75-5.72-3.28-1.14-5.2-.42-6.8,2.67-4.94,9.55-13.42,14.9-23.05,18.69-2,.77-4.12,1.68-6.29.35-1-.08-2.21-.66-2.84.76-4.59,2.25-9.52,1.43-14.17.87a55.91,55.91,0,0,1-32.89-15.21c-2.67-2.56-4.49-2.87-7.37-.19-7.51,7-15.64,13.36-22.88,20.59-8.71,8.69-18.18,16.49-27.12,24.89-12.45,11.7-25.55,22.73-37.79,34.6-12,11.69-25.45,21.88-36.84,34.24C84.12,225.87,83.17,227,81.55,226.82Z"/><path class="cls-5" d="M164.38,75.21c0-9.64,5.72-15.85,14.49-15.77,7.8.08,14.18,6.25,14.16,13.71,0,8.46-7.67,16.31-15.95,16.37C169.79,89.57,164.36,83.46,164.38,75.21Z"/><path class="cls-6" d="M506.13,358.68c8.68.11,14.55,5.88,14.41,14.17-.12,7.75-6.51,13.53-14.82,13.42-8.15-.11-14.26-6.19-14.18-14.1S497.64,358.57,506.13,358.68Z"/><path class="cls-7" d="M518.57,105.71a14.23,14.23,0,0,1,14.57-14.33c7.63.17,13,5.81,13,13.52s-7,13.79-15.77,13.61C523.21,118.37,518.48,113.22,518.57,105.71Z"/><path class="cls-8" d="M510.55,436.58c-2.12,17.06-9.22,32.38-24,43.51-1,.75-2.35,2.47-3.5.75-1-1.54.89-2.34,1.94-3.14,13.66-10.39,20.5-24.51,22.6-41.23,0-.3,0-.63.09-.92.3-1.11-.07-2.89,1.68-2.82S510.55,434.47,510.55,436.58Z"/><path class="cls-9" d="M84.76,429.85c.66,15.51,4.54,30,13.93,42.65.81,1.09,3,2.37,1.22,3.79s-2.58-1-3.38-2.08c-10.51-14.28-15-30.42-14.59-48,0-1.39-.52-3.7,1.77-3.53,1.91.14.89,2.23,1,3.47A33.12,33.12,0,0,1,84.76,429.85Z"/><path class="cls-9" d="M21.26,310.94c0,6.31-4.06,10.58-10,10.49a9.9,9.9,0,0,1-9.93-10.15c0-5.91,4.84-11,10.43-10.93C17.22,300.41,21.27,305,21.26,310.94Z"/><path class="cls-10" d="M251.62,11.05c-14.77-.26-25.86,7.14-35.73,17.14-.86.88-1.48,3.14-3.09,1.89-1.9-1.48.19-2.77,1.09-3.78,10.37-11.71,23-18.7,39.06-18.14.93,0,1.87,0,2.79.13s1.9.54,1.79,1.7c-.14,1.34-1.33,1-2.18,1C254.11,11.09,252.86,11.05,251.62,11.05Z"/><path class="cls-11" d="M4.52,253.14a44.54,44.54,0,0,1,3.81-14.32A57.47,57.47,0,0,1,25.05,217.5c1-.79,2.3-1.65,3.2-.27.76,1.16-.66,1.8-1.45,2.51C16.71,228.7,8.87,239,7.41,253c-.12,1.13,0,2.86-1.72,2.76C4.26,255.65,4.45,254.23,4.52,253.14Z"/><path class="cls-10" d="M463.38,112.25c0-4.71,3.85-9.21,7.93-9.2s8.19,4.29,8.21,8.41c0,4.39-4.07,8.07-9,8.1C466.05,119.59,463.41,116.88,463.38,112.25Z"/><path class="cls-12" d="M590.57,164.28c-.14,1.16.61,2.57-1,2.82s-1.68-1-1.82-2.13a42.46,42.46,0,0,0-14.49-27.32c-1.4-1.23-1.33-2.62-.22-3.56,1.45-1.24,1.55.84,2.19,1.41A46,46,0,0,1,590.57,164.28Z"/><path class="cls-13" d="M467.88,569.26c-1.43-.94.54-5.1-3.44-3.64-2,.2-2-1.16-2.14-2.62-.17-2-.87-3.87-1.11-5.84-.2-1.65-.05-3.16,2.26-2.94l2.74-.08c5,3.43,6.49,7.34,4.69,12.41C470.38,568,470,569.62,467.88,569.26Z"/><path class="cls-14" d="M113,566.65c-5.34-.53-1.72,4.3-3.52,5.88-.15-2.29-2.71-3-3.18-5.3-1.05-5.05.41-8.66,5.41-12l2.72.13C117.33,558.44,116.5,565,113,566.65Z"/><path class="cls-15" d="M240.25,0c.38,0,2-.18,2.09,1.41s-1.62,1.64-2.79,1.7a30.92,30.92,0,0,0-16,5.58c-.86.58-2,1.51-2.84.31-1.09-1.5.42-2.18,1.38-2.85C227.28,2.52,233.14.7,240.25,0Z"/><path class="cls-16" d="M73.48,447.73c1.47,0,1.69,1.1,1.78,2.23.48,6.47,2.31,12.43,6.66,17.43.58.67,1.33,1.49.4,2.39s-1.71.38-2.39-.37c-5.06-5.68-7.3-12.43-7.5-19.93C72.41,448.75,72.44,447.89,73.48,447.73Z"/><path class="cls-17" d="M519.48,455.55a39.13,39.13,0,0,1-8,19.19c-.62.82-1.31,2-2.59.94-1-.78-.43-1.65.15-2.4a38,38,0,0,0,7.63-18.13c.16-1.12.33-2.32,1.82-2S519.47,454.76,519.48,455.55Z"/><path class="cls-18" d="M2.27,237.66C.12,237.2-.21,236.52.1,235.41a33.93,33.93,0,0,1,10.83-16.75c.65-.55,1.52-1.31,2.4-.28a1.47,1.47,0,0,1-.17,2.08c-4.42,4.73-8.85,9.44-10.5,16C2.5,237.06,2.27,237.65,2.27,237.66Z"/><path class="cls-19" d="M589.63,138.21a11.76,11.76,0,0,1,1.58,1.4,22.14,22.14,0,0,1,4.55,9.56c.21,1,.31,1.91-.71,2.41-1.22.59-1.74-.41-1.95-1.28a24.38,24.38,0,0,0-4.61-9.55C587.59,139.63,588.05,138.75,589.63,138.21Z"/><path class="cls-20" d="M154.16,573.8c1.16-8.94,2.41-17.87,3.42-26.83.23-2,.78-2.75,2.87-3.28,6.42-1.61,10-6.11,9.89-11.86-.07-5.9-4-10.39-10.5-12-11.29-2.75-13.66-6.37-11.55-17.6,1-5.17,3.55-8.57,9.08-9.89,17.75-4.23,32.67-13.2,41.6-29.43,11.41-20.73,12.36-41.7-2.23-61.81-.71-1-1-2.54-1.88-3.13-6.85-4.41-2.22-7.84.77-11.56q17.51-21.81,34.94-43.68c2.2-2.75,3.53-6.18,6.47-8.38,18.45,16,40.07,22.28,64.14,20.68a69.24,69.24,0,0,0,36.5-12.76c4.06-2.92,7.5-6.73,11.61-10.5,10.73,14.29,24.31,25.78,35.44,39.53a175.54,175.54,0,0,0,12.5,13.25c1.72,1.72,2,2.78.37,4.93-14.78,19.05-15.55,44.56-3,65,6.33,10.34,15,17.08,26,21.48,4.18,1.68,8.21,3.7,12.36,5.43,5.71,2.4,8.49,7,9.7,12.74,1.64,7.75,1.59,15.45-1.28,23-1.86,4.87-4.91,8.09-10.58,8.3a35.81,35.81,0,0,0-8.22,1.55,10.71,10.71,0,0,0-8.31,10.11c-.37,5.14,2.76,8.91,6.88,11.16,2.35,1.29,3,2.47,3.16,4.86.48,7.29,1.2,14.56,1.83,21.84-11.75,4.85-24.26,6-36.7,7.32-4,.44-8.08.43-12.13.62-2.13.09-3-.73-2.89-3,1-15.9-.95-31.37-7.2-46.13-1.14-2.7,1-2.74,2.34-3.43,7-3.47,12.14-8.18,12-16.74,0-2.93-.52-6.06-3-7.52-3.78-2.23-3.62-4.59-2.1-8.09,1.69-3.88.66-8-.24-12a10,10,0,0,0-7.76-7.89c-1.1-.27-1.09-1.24-1.24-2.21-1.89-12.52-13.31-18.66-24.81-13.12-9.54,4.59-13.3,13-14.35,23-.13,1.22-.19,2.45-.33,4.42-6.61-4.82-13.83-6.86-21.24-8.33-17.83-3.52-35.6-2.92-52.24,4.42-14.07,6.21-27.17,14.59-36.13,27.72-13.13,19.24-19.55,40.47-17.66,63.86.33,4.06-.22,5.37-4.73,5A226.23,226.23,0,0,1,164,577.56C160.53,576.77,157.76,574.22,154.16,573.8Z"/><path class="cls-21" d="M289.21,530.16c7.2.61,15,1.19,22.19,4.49,6.45,3,11.6,7.14,13.05,14.72a12.51,12.51,0,0,1-4.62,12.87c-4,3.28-8.62,3.28-13.15,1-2.63-1.34-5-3.11-7.68-4.42-6.71-3.34-13.07-3.49-18.88,2.15-3.9,3.78-8.55,5.72-14.07,4.08s-9.3-5-10.47-10.78c-1.23-6.13,1.16-11,5.79-14.8C269.27,532.94,278.55,530.29,289.21,530.16Z"/><path class="cls-20" d="M330.92,487.24c.29-12,6.74-21,16.59-23.17,6.58-1.46,13.86,1.83,16.18,7.29,1.77,4.15.9,5.71-3.48,6.26-5.59.71-8.29,4.06-7,8.73.95,3.51,4.48,4.68,7.13,2.2a36.68,36.68,0,0,0,4.17-4.94c2.33-3.11,4.67-3.35,7.15-.58,4.75,5.29,3.21,16.77-2.82,20.64-.8.52-1.82.81-1.48,2s1.41.91,2.34.84c7.81-.65,11.5,5.23,8,12.8-2.1,4.5-6,7-10.37,8.92-2.44,1.06-2.92-.72-3.73-2.18-4.51-8.19-9.28-16.16-16.38-22.5a98,98,0,0,0-12.59-9.66C330.81,491.47,330.81,491.48,330.92,487.24Z"/><path class="cls-22" d="M304.11,603.47c-.3,9.86.42,20.65-4.45,30.75a10.26,10.26,0,0,1-10,6.32c-4.54,0-7.79-2-9.89-6.33-3.43-7.1-4-14.64-4.32-22.26-.43-9.67.62-19.3.93-28.94a8.89,8.89,0,0,1,.18-1.86c.56-2.42,1.39-5.57,3.69-5.81,2-.2,2.41,3.06,3,5.09,1,3.18,2.52,5.63,6.46,5.55s5.38-2.43,6.44-5.63c.64-2,1-5.35,3-5.08,2.18.3,3.36,3.28,3.52,5.91C303.18,588.33,303.62,595.47,304.11,603.47Z"/><path d="M290.21,654.17c.77,0,1.56,0,2.33,0,2.25.18,5-.61,6.24,2s-.91,4.32-2.42,6a7.07,7.07,0,0,0-1.61,7.66c1.81,5.29,3.29,10.71,5.81,15.7a8.65,8.65,0,0,1-.78,9.58c-2,2.92-4.48,5.56-6.73,8.34-1.54,1.89-3,1.92-4.51,0-2.2-2.82-4.64-5.47-6.65-8.41-2.28-3.33-3-6.79-.94-10.83s3.05-8.49,5.06-12.49c1.81-3.62,1-6.4-1.33-9.19-1.57-1.88-3.86-3.67-2.57-6.48,1.38-3,4.42-1.32,6.7-1.79a7.25,7.25,0,0,1,1.4,0Z"/><path class="cls-23" d="M290.26,512.2c1.24.17,3.7.44,6.14.88,2.15.4,2.61,2.08,2.3,3.9a2.76,2.76,0,0,1-3.38,2.46c-6.79-1.39-13.24-.24-19.61,2.13-1.53.57-3.32.59-3.87-1.34s-.15-4,2.22-4.92A45.75,45.75,0,0,1,290.26,512.2Z"/><path class="cls-24" d="M263.84,578.47c-4.29-1.27-8.56-.85-12.86,0-1.24.25-3.06.6-3.38-1.39s1.16-2,2.65-2.35a32.08,32.08,0,0,1,14.26-.1c1.49.36,2.86.62,2.4,2.56C266.51,578.93,265,578.43,263.84,578.47Z"/><path class="cls-25" d="M322.87,572.06c1.86.31,5.16-.95,5.22,1.38.07,2.84-3.19,1.3-4.87,1.31-2.45,0-4.4,1-6.54,1.8-1.09.41-3,1-3.57-.91s.95-2.34,2.42-2.67C318,572.43,320.34,571.71,322.87,572.06Z"/><path class="cls-26" d="M362.48,480.75c-.38,1.87-1.52,2.7-2.48,3.65s-2,2-3.55,1.49c-.36-.13-.62-1-.65-1.53a3.11,3.11,0,0,1,2.2-3.12C359.4,480.62,360.79,480,362.48,480.75Z"/><path class="cls-20" d="M81.55,226.82c9.57-10.89,21.4-19.35,31.66-29.47,11.29-11.14,23.75-21,35.05-32,10-9.79,21.05-18.39,30.87-28.29,10-10.05,21-18.89,31.28-28.55,1.58-1.49,2.8-3.06,5.26-.61,13.4,13.32,29.73,18.71,48.45,17.19,2.29,18.36,4.52,36.73,7,55.08.35,2.64-.24,3.41-2.82,4-6.37,1.41-12.73,3.3-18.33,6.63-12.83,7.62-25.11,16.16-33.05,29.21-6.72,11.05-11.8,22.87-12.55,36.1-.11,2,.07,3.87-3.13,3.86-34.87-.17-69.75-.18-104.63-.23C96.78,246.33,92,235.3,81.55,226.82Z"/><path class="cls-20" d="M371.86,246.55c19.66-7.69,39.5-15,58.9-23.28,7.06-3,14.23-5.9,21.25-9.06,1.38-.62,2.92-1.8,4,.94,7,17.7,21,27.54,38.38,33.32-4,17.41-9.26,34.46-14.06,51.64-6,21.37-12,42.72-17.81,64.14-1.12,4.15-2.64,5.4-7.13,4.33-8.58-2.07-17.55-2.22-25.84.71-9.09,3.21-18.35,6.61-25.53,13.58-1.82,1.77-2.89,1.89-4.76-.15C386.8,369.08,374.16,355.6,361.61,342c-.92-1-1.5-2.31-2.36-3.37-2.51-3.09-7.49-5.47-7.45-8.93,0-3.13,4.45-6,6.47-9.33,12-19.56,17.1-40.77,14.74-63.68C372.66,253.34,372.24,250,371.86,246.55Z"/><path class="cls-20" d="M267,124.29c12.85-2.71,23.05-9.12,29-21.2,1.5-3.06,3.11-3.62,6.11-2.2,25.85,12.2,53.17,20.83,79.25,32.39,22.15,9.83,45,17.82,67.28,27.18,1.58.66,3.2,1.22,4.76,1.93,3.78,1.72,5.51,3.58,3.39,8.43-5,11.42-5.59,23.57-3.1,35.74.61,3-.07,4.16-2.77,5.14-6,2.17-12,4.33-17.79,7-20.26,9.44-41.26,17-62,25.27-5-20.23-15.26-36.58-32.73-48.72-18.19-12.64-38.08-15.66-59.31-13.07-4.35.53-5.07-.81-5.5-4.62C271.49,159.79,269.17,142.05,267,124.29Z"/><path class="cls-20" d="M234.47,332.11c-4,5.33-7.83,10.75-11.95,16-10.49,13.29-21.17,26.44-31.62,39.77-2.06,2.63-3.27,2.93-6.18.85-16.47-11.74-34-12.12-52.19-4.26-1.43.61-2.79,1.37-4.44,2.19q-20.88-38.6-41.68-77c-2.37-4.37-4.84-8.69-7.32-13-.92-1.59-1.65-2.81.42-4.28,10.15-7.23,14.53-17.82,16.83-29.56,34.58,0,69.17,0,103.75-.15,3.44,0,3.56,1.38,3.68,4.06C204.85,292.75,214.28,315,234.47,332.11Z"/><path class="cls-20" d="M278.28,321.12c.39-7.15.87-14.3,1.13-21.46a5.08,5.08,0,0,1,3.31-5c7.69-3.7,15.82-6.83,22.75-11.65,5.64-3.93,9.28-3.73,13.69,1,1.65,1.77,4.09,2.79,6.16,4.16,3.36,2.22,7,3.63,5.88,9.39-.86,4.52,3.83,8.76,8.49,9.68a10.72,10.72,0,0,0,9.19-18.4c-3.62-3.35-8.82-4.14-12.84-1-2.53,2-4,1.16-6-.24-4.57-3.34-9.1-6.74-13.74-10a3.82,3.82,0,0,1-1.8-3.87c.47-7.77.89-15.55,1.18-23.33.07-2,1-2.41,2.65-3.06,6.71-2.6,9.23-9.19,6.05-15.13-3.06-5.71-9.84-7.38-15.59-3.5-1.74,1.17-2.8,1.3-4.43.1-6-4.35-12-8.65-18.06-12.82-1.45-1-1.57-2.15-1.49-3.58.52-8.55,1.07-17.1,1.53-25.65.09-1.84.48-2.74,2.64-2.77,13.58-.17,26.84,1.74,38.87,8.16,23.36,12.47,37.31,32.09,41.55,58.24a97.12,97.12,0,0,1-13.52,68.44c-4.7,7.63-11.39,13.44-18.13,19.31-21.73,18.94-60.93,18.34-86,3.34A98.33,98.33,0,0,1,226,319.8c-4.69-5.7-7.82-12.26-11.39-18.6-1.39-2.46-.88-3.72,1.47-5.19,7.25-4.54,14.34-9.33,21.49-14,.28-.16.66-.37.86-.23,5.52,3.86,11,2.51,16.58.09,6.51,4.23,13,8.51,19.55,12.64,1.87,1.17,2.31,2.55,2.17,4.64-.5,7.29-.81,14.6-1.18,21.9-.94,2.23-3.48,2.33-5,3.82A9.27,9.27,0,0,0,267.87,335c1.14,3.66,3.3,6.24,7.46,6.65,4.58.45,7.75-1.36,9.58-5.65a9.72,9.72,0,0,0-2.39-11.46C281.17,323.33,279.1,323,278.28,321.12Z"/><path class="cls-27" d="M497.1,246.24a58.12,58.12,0,0,1-31.4-19.66C456.49,215.39,453.77,202,455.53,188c2.87-23,13.78-40.92,34.54-52.33,18.34-10.08,37.62-10.7,56-2.28,35.7,16.37,39.56,58.59,24.81,84.74-14.45,25.63-46.34,34.15-70.2,29-.9-.2-1.83-.26-2.75-.38A8,8,0,0,1,497.1,246.24Z"/><path class="cls-20" d="M446.65,503.47c-.31-2.8-.57-6.07-1.07-9.29-1.07-6.92-4.61-12.09-11.1-15-4.81-2.17-9.57-4.48-14.49-6.37-26.18-10.06-37.17-43.94-27.89-68.43,12.92-34.1,65-45.69,90.93-16.49,15.76,17.75,15.58,48.23.26,66.89A57.43,57.43,0,0,1,469,467c-9.42,5.89-13,15.45-14.87,25.83-1.56,8.53-.19,16.74,2.76,24.73,1.18,3.21,3.75,5.27,6.79,6.71,4.74,2.24,7.2,6.6,6.29,11.2-.75,3.82-4.25,6.15-9.59,6.65q-16,1.5-32,3.19c-6.13.66-10.33-1.71-11.09-6.54s2.52-8.6,8.46-9.79a41.21,41.21,0,0,1,5.08-.76c7.05-.54,11.34-3.75,13.54-10.56a59.64,59.64,0,0,0,1.85-8.17C446.51,507.69,446.49,505.8,446.65,503.47Z"/><path class="cls-20" d="M463.45,554.22c-2.92,2.11.5,4.8-.66,7.07,1.93.92-1.86,4,1.65,4.33.33,3.57.7,7.13,1,10.69.76,9.06,4.9,16.22,12,21.82a114.5,114.5,0,0,0,14.17,9.36c28.84,16.5,38.57,54.52,27.56,82.29a66.62,66.62,0,0,1-25.89,32c-22,14.56-45.59,16.05-68.37,4.35-24.7-12.68-37.11-34.56-36.35-62.78.53-19.78,8.35-36.43,23.54-49.37a64.13,64.13,0,0,0,11.2-11.66c4.38-6.18,7.22-12.68,6.51-20.38-.87-9.46-1.74-18.91-2.73-28.35-.28-2.67-.17-4.17,3.3-4.29,5.73-.2,11.43-1.1,17.15-1.7,1.35-1.3,3.51-.29,4.83-1.67l1.86-.07c2.7-.11,6.74-1.34,7.8-.08C463.57,547.68,463.07,551.33,463.45,554.22Z"/><path class="cls-20" d="M260.17,229.24a97.63,97.63,0,0,0,17.22-9.62c4-2.88,7.42-2.28,10.67.9,4.33,4.24,9.6,7.15,14.6,10.44,1.7,1.12,2.42,2.08,2,4.44-1,5.12,1.1,9.28,6,11.39,2.24,1,2.42,2.26,2.3,4.25q-.66,11.18-1.16,22.37a4,4,0,0,1-2.07,3.79c-9.39,5.58-19.13,10.51-28.89,15.4-2.11,1.06-3.38.48-5-.61-6.52-4.37-13.27-8.41-19.17-13.64-.1-.12-.29-.23-.29-.35-.08-6.67-3.42-11.45-8.72-15.11-1.39-6.35-.39-12.62.71-18.88a4.59,4.59,0,0,1,3.31-2.9c4.77-1.64,7.13-5,7.51-10A2.22,2.22,0,0,1,260.17,229.24Z"/><path class="cls-20" d="M236.27,278.41c-7.36,6.43-15.86,11.21-24.33,17-7.75-23.5-7.71-46.06,4.14-67.94.74-1.37,1.62-2.66,2.36-4,4.74-8.75,3.23-7.39,10.88-2,3.21,2.28,6.37,4.7,9.69,6.89.24.2.57.43.58.69.17,5.86,3.21,10.07,7.68,13.48.4,6-.54,12-.7,18a6.84,6.84,0,0,1-3.26,4.3c-4.22,2.66-6.82,6.18-6.22,11.46A2.44,2.44,0,0,1,236.27,278.41Z"/><path class="cls-20" d="M240.16,226.06a146.8,146.8,0,0,0-15.71-11.5c5.46-6.68,12-11.57,18.85-16.16a81.29,81.29,0,0,1,36.4-13.61c3-.35,4.14-.12,3.78,3.41-.75,7.42-1.07,14.88-1.32,22.34-.09,2.59-.65,4.26-3.28,5.31-7,2.81-13,7.38-19.67,10.89-1.78,0-2.65-1.41-3.78-2.39-4.27-3.72-7.61-3.76-11.76-.1C242.65,225.16,241.8,226.36,240.16,226.06Z"/><path class="cls-28" d="M236.27,278.41c-1.09-8.68-.16-10.47,7.55-14.87a7.08,7.08,0,0,0,1.48-1.67,4.58,4.58,0,0,1,2.87,1.49c7.62,2.89,9.26,5.8,8.44,15-1.3.82-1.17,2.3-1.64,3.5-6.83,5.19-9,5.21-17.45.14C237.37,280.7,237.53,279.31,236.27,278.41Z"/><path class="cls-29" d="M240.16,226.06c2.86-2.13,4.51-5.7,9-5.81,5.13-.13,7.08,3.77,10,6.49.32.83.65,1.66,1,2.5,0,8.73-2.35,11.64-10.9,13.65-1.27,1.07-2,.07-2.86-.68-6.55-2.42-8.12-7.5-7.41-13.81Z"/><path class="cls-29" d="M278.28,321.12c6.32,2.17,9.3,6,8.84,11.45-.43,5.1-4.48,9.92-8.87,10.54-6.09.86-10.78-2.61-12.1-8.95s2.09-11.23,9.36-13.13Z"/><path class="cls-30" d="M452.33,545.94c-1,2.37-3,1.81-4.83,1.67C448.43,545.09,450.48,545.8,452.33,545.94Z"/><path class="cls-20" d="M122.32,517.63c12.94,2.83,20.66-8.12,21.1-18.13.28-6.27-2.36-10.95-8.2-12.92-35.32-11.93-45.47-54.9-20.71-84.17,10.15-12,22.41-18.91,37.86-20.23,25.94-2.22,46.31,17.41,51.07,40.61,5.27,25.67-10,54.79-37.35,63.29-4.23,1.31-8.32,3.06-12.51,4.55a9,9,0,0,0-5.06,3.93c-3.73,6.81-5.18,13.83-1.91,21.38a9.37,9.37,0,0,0,6.92,5.58c1.95.5,4,.67,6,1.13,5.15,1.22,8.6,5.84,8,10.56s-4.61,8.15-10,7.86c-5.89-.32-11.75-1.28-17.62-2-6.64-.84-13.27-1.74-19.9-2.64a35.32,35.32,0,0,1-4.59-.84c-4.46-1.24-7.61-4-7.88-8.74s2.24-7.94,7-9.21A10,10,0,0,1,122.32,517.63Z"/><path class="cls-20" d="M113,566.65c3.58-.08,1.09-2.92,1.43-4.14.59-2.12,2.17-4.84,0-7.18.63-4.78,1.32-9.55,1.86-14.34.21-1.9.71-2.69,2.88-2.37,11.07,1.58,22.14,3.11,33.25,4.42,2.91.34,2.68,2,2.44,3.87-1,7.87-1.25,15.92-3.13,23.57-5,20.29-1.69,39.62,4.42,59.08,6.43,20.45,13.27,40.73,21.14,60.68,2.51,6.36,5.26,12.6,8,18.86,2.64,6.09,4.16,12.36,3.46,19.06-1,9.47-6.89,14.58-16.53,13.51-14.07-1.56-28.09-3.53-42.13-5.39-24.83-3.28-49.65-6.56-74.46-10-3.7-.51-7.52-.47-10.84-3.22-7.47-6.16-9.33-11.25-6.06-20.23a48,48,0,0,1,8.46-14.9c13.54-15.89,25.23-33.17,36.62-50.58,8.55-13.08,16.83-26.41,23.57-40.62,4-8.47,4-17.49,5.2-26.38C112.68,569.13,112.81,567.89,113,566.65Z"/><path class="cls-20" d="M54.35,297.37c-24.11.42-37.63-19.1-38.47-40C15,234.67,37.05,219.81,55.36,220c18.8.18,39.22,15.78,38.24,38.61C92.69,280,77.37,297.84,54.35,297.37Z"/><path class="cls-31" d="M122.32,517.63H114.4C117,514.73,119.68,515,122.32,517.63Z"/><path class="cls-20" d="M252.17,122.5c-9.43-.18-22.39-4.74-32.42-14.73-12.72-12.69-20.68-27.2-11.9-49.51C214.62,41,226.09,28.82,244.77,24.6c18-4.05,38.58,5.94,47.5,22.06,8.58,15.49,10.81,31.35,4.66,48C290.21,112.83,275.8,122.68,252.17,122.5Z"/><path class="cls-20" d="M167.22,75.32c.09-8.08,4.47-13.09,11.43-13.06,6.11,0,11.46,4.92,11.52,10.56.08,7-6.41,13.91-13.11,13.88C171.4,86.67,167.15,81.76,167.22,75.32Z"/><path class="cls-32" d="M506.31,361.55c7,.18,11.57,4.72,11.42,11.39-.13,6-5.34,10.62-11.94,10.53a11.27,11.27,0,0,1-11.42-11.13C494.43,365.69,499.21,361.37,506.31,361.55Z"/><path class="cls-20" d="M521.38,105.87a11.58,11.58,0,0,1,11.38-11.66,10,10,0,0,1,10.48,10.53c0,6.28-5.43,11-12.52,11C525,115.66,521.34,111.82,521.38,105.87Z"/><path class="cls-27" d="M18.43,310.92c0,4.54-2.69,7.58-6.85,7.67a7.07,7.07,0,0,1-7.35-7.24,7.63,7.63,0,0,1,7.3-8C15.65,303.28,18.41,306.29,18.43,310.92Z"/><path class="cls-33" d="M470.47,116.74c-3.13-.17-4.27-1.94-4.24-4.64,0-3.46,2-5.15,5.32-5.09,3,.06,5.29,1.37,5,4.76C476.31,115.5,473.39,116.32,470.47,116.74Z"/><path d="M275.89,466.21c-.16,1.81-1.78,2.07-2.93,2.67-8.4,4.4-17.38,7.35-26.29,10.47-7.8,2.74-16,4.6-22.79,9.71-1,.76-2.72,1.85-3.62.15s.57-2.62,2.1-3.43c6.61-3.5,6.84-3.64,4.55-10.78-3.13-9.73,2.8-20.12,10.32-23.38a14.92,14.92,0,0,1,19.16,6.61c1.79,3.26,3.85,6.39,5,9.94.65,2,1.54,2.38,3.41,1.39,2.73-1.45,5.57-2.72,8.39-4C274.22,465.09,275.3,464.77,275.89,466.21Z"/><path class="cls-34" d="M411.4,515.09A12.52,12.52,0,0,1,399.12,503c-.1-6.6,5.62-11.84,12.95-11.85,7.08,0,12.34,5,12.39,11.75S418.77,515.15,411.4,515.09Z"/><path class="cls-2" d="M296.32,542.92c.1,5.27-2.37,8.41-6.57,8.36-4.49,0-7.6-3.54-7.76-8.72-.14-4.43,2.72-7.78,6.76-7.93C293,534.48,296.24,538,296.32,542.92Z"/><path class="cls-35" d="M300.72,586.4c.09,5.45-.84,9.27-5.37,11-4.93,1.89-9.79,1.84-14.15-1.47-2.44-1.85-3.6-11.22-1.78-13.68,1.16-1.55,2.1-.79,2.56.69,1,3.27,2.88,5.45,6.63,5.33,4-.13,7.45-.95,8.53-5.56.22-.94.81-1.74,1.95-1.57.93.14,1.11,1,1.23,1.76C300.56,584.44,300.68,586,300.72,586.4Z"/><path class="cls-36" d="M299.19,630.14c-.32,5.11-4.24,8.48-9.75,8.39s-8.94-3.22-9.23-8.34c-.06-1.11-.11-2.24,1.1-2.79.84-.38,1.35.28,2,.76,4.58,3.56,7.72,3.58,12.32.12.85-.64,1.53-1.78,2.75-1.07S299.21,629.08,299.19,630.14Z"/><path class="cls-37" d="M289.45,624.63a18.45,18.45,0,0,1-3-.4c-2.62-.79-5.2-1.94-5.12-5.19.07-3.43,2.85-4.09,5.57-4.45a15.29,15.29,0,0,1,3.7.08c3.09.38,6.82.45,6.33,5C296.47,623.66,293.2,624.56,289.45,624.63Z"/><path class="cls-28" d="M315.86,305.94c0,6.81-4.35,11.68-10.5,11.7s-10.6-4.9-10.6-11.64a10.55,10.55,0,1,1,21.1-.06Z"/><path class="cls-38" d="M498.71,214.66c-1.62-10.14-4.56-20.11-3.66-30.59a21.62,21.62,0,0,1,11.35-17.86c4.46-2.54,9.05-5.42,14.69-4.07a8.82,8.82,0,0,1,1.38.21c2.15.94,5.71,1.62,5.19,4.06-.48,2.21-3.41-.31-5.28-.12-.46.05-.93.05-1.4.07-1.11,1-2.52.92-3.88,1a16.36,16.36,0,0,0-1.85.08c-1.33.25-3,.1-3.45,1.76-.37,1.39,1,2.16,1.81,3,5.43,5.49,10.92,10.92,16.36,16.4,2,2,4,3.91,4.9,6.65a2.35,2.35,0,0,1-2,2.32c-1.75,0-2.84-1.16-3.81-2.37-6.07-7.54-13.46-13.78-20.07-20.79-2.29-2.44-4.34-3-6.18.42-.58,1.15-1.41,2.14-2.09,3.23-1.74,2.76-.78,4.94,1.4,6.94,5.56,5.14,9.95,11.38,15.52,16.52,1.3,1.2,2.95,2.45,2.17,4.71-1,1-2,1.13-3.06,0l-19.3-20.46c-.25,6.92,1.16,12.38,2.2,17.91,1.65,8.68,3.94,17.38,1.46,26.26a42.47,42.47,0,0,1-3,6.7c-.54,1.13-1.6.85-2.39.46-1-.49-.48-1.38,0-1.93,2.43-3,.54-4.82-1.56-7-7.12-7.31-13.54-15.3-21.44-21.86.15-1.86,1.47-2.12,2.95-2.16,6.56,5,12,11.19,17.57,17.22,1.24,1.34,2,3.13,4.3,3.92.76-2.48.23-4.94.33-7.35A4.79,4.79,0,0,1,498.71,214.66Z"/><path class="cls-39" d="M532.7,197.42l1.66-2.54c-1.53-3.21,1.22-6.06.75-9.18-.47-2.67,1.13-5.18.56-7.86-1.58-8-4.41-15.8-5.38-24A24.64,24.64,0,0,1,532.74,139c.54-1,1.07-2.58,2.68-1.83,2,.92.43,2.25-.12,3-1.26,1.8-.26,2.73.91,3.89C544,151.81,552,159.31,559,167.76c-.27,1.44-1.26,1.85-2.57,1.79-2.6-1-4.1-3.24-5.76-5.27-4.75-5.78-10.41-10.62-15.74-16.29-1.7,2.3-.66,4.23-.39,6.1a8.34,8.34,0,0,1-.58,4.78c1.66,6.92,3.66,13.78,4.9,20.77,2.9,16.38-7.91,30-23,29.51a23.79,23.79,0,0,1-7.66-1.75c-1.09-.42-2.18-1-1.58-2.29.45-1,1.6-.73,2.48-.42a18.7,18.7,0,0,0,7.66,1.54,4,4,0,0,0,3.26-.66c1.41-1.75,3.78-1.49,5.49-2.61a19.54,19.54,0,0,0,3-2C530,199.88,531,198.24,532.7,197.42Z"/><path class="cls-40" d="M475.62,204.43c-1,.64-2,1.28-3,1.91-1.17,0-1.94.78-2.82,1.41s-2.1,2.56-3.41.81c-1-1.32.58-2.17,1.48-2.93,6.91-5.85,15.12-6.51,23.64-5.82,1,.08,1.87.42,1.7,1.67-.12,1-.92,1.12-1.72,1.13-1.37,0-2.74,0-5.07,0l12.27,12a6.16,6.16,0,0,1,.13,4.19c-2.51-.07-3.63-2.2-5.2-3.62a47.85,47.85,0,0,1-5.26-5.3C485.06,205.78,481.19,203.22,475.62,204.43Z"/><path class="cls-41" d="M533.93,158.87l-.45-5.14c4,.49,5.46,4.18,8.12,6.35a20.75,20.75,0,0,1,3.23,3.92c2.83,3.82,6.22,6.31,11.31,5.09l2.83-1.33c1.82-.1,3-4.24,4.78-1.53,1.21,1.84-1.88,3.06-3.41,4.13-4.55,3.18-9.71,3.92-15.11,3.34-1.73-.19-4.54.21-4.42-2.08.13-2.59,2.9-.19,4.68-1.36C540.75,167.22,539.18,161.29,533.93,158.87Z"/><path class="cls-42" d="M535.67,177.84c1.65,2.54.42,5.31.62,8-1.44.48-2.34-.49-3.2-1.32q-7.58-7.38-15-15c-.83-.85-1.81-1.75-1.3-3.19l4.16,0c4.12,4.17,8.28,8.31,12.35,12.53C535.3,180.92,535.66,179.89,535.67,177.84Z"/><path class="cls-43" d="M433.38,453.4c1.12-11.51,2-22.17,5.74-32.26,1.79-4.78,5.78-9.74,5.18-14.13-.54-4-7-6.14-9.88-10.34-3.27-4.78-6.56-9.46-8.26-15-.33-1.08-1.24-2.38-.09-3.5s2.38-.05,3.42.39c9.55,4.12,15.8,11.29,19.21,21.09,2.52-3.43,4.92-6.9,7.55-10.18.92-1.14,1.87-3.79,3.81-2.12,1.57,1.35-.69,2.65-1.53,3.75a115.84,115.84,0,0,0-17.09,31.82c9.47-8.56,19.08-14.11,30.27-16.64a52.27,52.27,0,0,1,12.45-1.6c4.91.08,5.22.6,2.63,5a36,36,0,0,1-6.55,8.47c-10.32,9.45-21.9,15.77-36.49,13.66-3.64-.53-4.91.7-5.49,4.06a101.41,101.41,0,0,0-.61,33c.21,1.36,1,3.2-.81,3.59-2.15.45-1.7-1.9-1.84-3-.31-2.44-2-3.1-3.8-4.11-15.87-8.73-28.14-20.66-33.59-38.51-.36-1.18-1.17-2.43-.23-3.52,1.25-1.45,2.71-.17,3.84.28,12.7,5,22.23,13.82,29.48,25.24C431.5,450,432.19,451.34,433.38,453.4Z"/><path class="cls-43" d="M455.83,722c-19.76-.3-34.94-7.64-45.75-22.91A56.16,56.16,0,0,1,400,669c-.07-1.52-.51-4.17,2.39-2.66,10.54,5.5,22,5.24,33.29,5.26,15.25,0,30.58-.91,45.31-5,9.54-2.67,19.52-4.93,27.46-11.65,2.29-1.93,2.5-.09,2.8,1.53a54.91,54.91,0,0,1-3.9,32.36C497.35,711.76,478.79,721.17,455.83,722Z"/><path class="cls-43" d="M415.68,663.78a36,36,0,0,1-10.4-2.46c-2.4-1-5.25-1.84-5.44-5.07-.18-2.93,2.19-4.28,4.26-5.65,4.6-3.06,9.8-4.75,15-6.22,2.55-.73,3.28-1.84,3.52-4.45,1.44-15.74,10.65-24.61,24.63-24.08a19.73,19.73,0,0,1,19,17.35c.4,3.72,1.86,4,5.05,3.88A104.46,104.46,0,0,1,500,639.4a24.94,24.94,0,0,1,6.09,2.26c4.19,2.26,4.5,5.43.83,8.44s-8.07,4.65-12.49,6.15c-11.09,3.76-22.66,5.23-34.13,7.31-13.24,2.4-26.49,2.53-39.82,1.88C419.18,664.1,417,665.12,415.68,663.78Z"/><path class="cls-5" d="M455.49,608.52c-5.63-.1-10.95-6.13-10.78-12.23.16-5.76,4.74-9.81,10.85-9.6,5.81.2,10.7,5.14,10.65,10.76S460.87,608.61,455.49,608.52Z"/><path class="cls-44" d="M415.68,663.78c1.79.05,3.93-.95,4.84,1.66C418.72,665.45,416.58,666.41,415.68,663.78Z"/><path class="cls-45" d="M246.42,242.21l2.86.68-1.11,20.47c-1.29.14-2.61.33-2.87-1.49Q245.85,252,246.42,242.21Z"/><path d="M169.93,456.32a51.33,51.33,0,0,1-22.09,11.92c-5.83,1.58-10.54-.85-12.54-5.4a11.47,11.47,0,0,1,3.77-14.18c6.27-4.6,13.32-7.9,20.35-11.17,1.64.38,2.52,1.6,3.37,2.92,2.53,3.86,4.39,8.09,6.79,12C170.31,453.63,170.84,454.94,169.93,456.32Z"/><path class="cls-46" d="M144.79,433.4A120.33,120.33,0,0,1,131.65,449c-3.06,3-6.65,5.28-11.15,4.78-7.74-.87-11.54-9.67-6.92-16.81,4.27-6.58,8.8-13.05,14.64-18.43,5.72.9,9,5.4,12.8,9C142.61,429.05,145.47,430.24,144.79,433.4Z"/><path class="cls-28" d="M169.93,456.32a122.16,122.16,0,0,0-10.51-18.83c5.48-3.14,10.86-6.45,16.45-9.37,4.48-2.33,9.31-.74,13.06,3.76,3,3.53,2.9,8.12-.47,12.37C183.65,450.31,176.65,453.12,169.93,456.32Z"/><path class="cls-29" d="M144.79,433.4c-4.51-6.08-10.41-10.6-16.57-14.84a92.38,92.38,0,0,1,11.88-13.63c3.25-2.95,7-4.5,11.53-3.16a8.88,8.88,0,0,1,6.53,10.34,15.86,15.86,0,0,1-2.52,6.93C152.08,423.87,148.41,428.62,144.79,433.4Z"/><path class="cls-29" d="M95.8,630.86c3.23,7.91,10.43,10.25,17.63,12.12,10.48,2.73,21.12,3.79,31.77.55.15,0,.29-.16.44-.16,2.6,0,4.13-4.51,6.7-2.35,1.63,1.38,1.82,4.49,2.59,6.84,6.06,18.44,12.66,36.66,20.42,54.46,2.62,6,4.62,12.2,3.27,19-2,9.88-7.48,14.27-17.46,13.15s-20-2.61-30.07-4c-15.11-2-30.31-3.52-45.29-6.23-8.22-1.49-16.54-2.4-24.68-4.27-10-2.29-14.15-9.24-11.57-19.2a37.08,37.08,0,0,1,7.57-15.29C69.86,670.75,80,654.1,91.19,638.25,92.8,636,93.15,633,95.8,630.86Z"/><path class="cls-29" d="M130.77,640.32c-5.79.09-11.39-1.09-17-2.37-4.69-1.07-8.31-3.89-11.92-6.68-4.26-3.29-4-7.8,1.06-9.17,6.43-1.74,10.37-4.54,11.8-11.36.61-2.9,3.45-5.48,6.48-6.81,3.9-1.72,8.28-2.06,11.45.92,3.87,3.65,6.78,8.35,4.81,14.09-1,2.95-.29,4,2.5,4.86a17,17,0,0,1,7.41,4.68c3,3.33,2.42,7.15-1.62,9.18C141.05,640,135.94,640.44,130.77,640.32Z"/><path class="cls-16" d="M124,596.62c-4.17,0-7.22-2.9-7.22-6.86a8.89,8.89,0,0,1,8.74-8.5,7.32,7.32,0,0,1,7.48,7.26C133.12,593,129,596.63,124,596.62Z"/><path class="cls-46" d="M65,288.81c-11.84.57-16.52-11-15.43-21.08.65-6.08,4.1-11,6.69-16.26a93.79,93.79,0,0,0,6.92-18.74c.35-1.35.53-2.94,2.43-2.84,1.57.08,1.87,1.49,2.13,2.69,2,9.51,6.33,18.12,10.86,26.62a23.08,23.08,0,0,1,.27,22.34C76.15,287,71.21,288.9,65,288.81Z"/><path class="cls-46" d="M47.39,258c0,8.74-4.75,13.87-11.79,13.65-6.8-.21-11.31-5.45-11-12.9a20.53,20.53,0,0,1,2.53-9.33A61.27,61.27,0,0,0,34,233.19c.24-1,.33-2.26,1.71-2.47a1.69,1.69,0,0,1,2.1,1.39c1.23,8.15,6.73,14.59,8.92,22.35A33,33,0,0,1,47.39,258Z"/><path class="cls-29" d="M281.13,73.84c-.11,15-11.59,26.59-26.21,26.54s-26.26-12.13-26.14-27.2c.12-14.37,12.56-25.87,27.72-25.64C270.52,47.76,281.25,59.21,281.13,73.84Z"/><path class="cls-47" d="M235,109.77c-.91,0-1.74-.72-1.43-1.35,1.14-2.29,1.57-5,3.78-6.68.65-.48,1.46-.27,1.8.7C239.62,103.88,236.4,109.6,235,109.77Z"/><path class="cls-48" d="M270.92,37.23c-1.07,1.52.12,4.64-2.92,5.16-1,.18-1.21-1.38-.87-2.16.84-2-.06-5,2.74-5.69C271.32,34.19,270.9,36,270.92,37.23Z"/><path class="cls-49" d="M280,95.85a11.28,11.28,0,0,1,4.55,5.44c.43,1-1,1.77-1.78,1.22a11.56,11.56,0,0,1-4.35-5.29C278.05,96.38,278.85,95.88,280,95.85Z"/><path class="cls-50" d="M218.22,57.69c1.58,1.22,4.09,1.8,4.83,4.2a1.13,1.13,0,0,1-1.76,1.22c-1.85-1.2-4.35-1.86-4.91-4.41C216.19,57.81,217.1,57.51,218.22,57.69Z"/><path class="cls-47" d="M286.9,57.11c-1.45.13-2.32-.44-2-1.17.95-2.44,3.19-3.63,5.41-4.68a1,1,0,0,1,1.24,1C291.09,55.19,288,55.44,286.9,57.11Z"/><path class="cls-51" d="M222.83,85.36c1.14-.11,2.11.47,1.9,1.12-.85,2.66-3.63,2.43-5.66,3.32-.8.35-1.83-.32-1.61-1.08C218.24,86,221.13,86.39,222.83,85.36Z"/><path class="cls-47" d="M292.16,78.13c1.33.43,3.76-.63,3.73,1.56s-2.38,1.36-3.76,1.33-3.67.59-3.46-1.76C288.84,77.31,290.93,78.48,292.16,78.13Z"/><path class="cls-52" d="M257.73,112.09c-.19,1.54.55,3.62-1.42,3.56-2.25-.06-1.38-2.35-1.47-3.7s-.76-3.39,1-3.47C258.46,108.36,257.15,111,257.73,112.09Z"/><path class="cls-53" d="M238.47,37.18a8.75,8.75,0,0,1,3.36,5.08c.26.81-.44,1.72-1.25,1.4-2.22-.85-2.87-3-3.57-5C236.75,37.88,237.27,37.16,238.47,37.18Z"/><path class="cls-54" d="M257.6,469.68c-.14,1.39-1.35,1.64-2.31,2q-9.39,3.36-18.81,6.61c-1,.34-2.31.86-2.84-.46s.64-1.82,1.73-2.2c6.57-2.3,13.14-4.6,19.69-6.95C256.31,468.21,257.15,468.35,257.6,469.68Z"/><path class="cls-32" d="M411.79,512.27a9.73,9.73,0,0,1-9.81-9.15c-.19-5,4.49-9.28,10.17-9.24,5.28,0,9.35,3.82,9.47,8.82C421.75,507.88,417.34,512.18,411.79,512.27Z"/><path class="cls-27" d="M516.83,166.33l19.46,19.47c.38,3.25-1,6.12-1.93,9.08-3.61-4.84-8.13-8.82-12.37-13.06s-8.66-8.38-13.42-13C511.56,167,514,165.93,516.83,166.33Z"/><path class="cls-27" d="M532.7,197.42a8.4,8.4,0,0,1-3.91,4.35c-3.41-.12-5-2.94-6.77-5.06-5.32-6.45-11.48-12.06-17.26-18.05-1.17-1.21-2.56-2.29-2.64-4.19,2.2-4.51,3.47-4.86,6.65-1.61Q520.77,185.1,532.7,197.42Z"/><path class="cls-27" d="M526.1,203.55a8.72,8.72,0,0,1-6.15,2c-6.34-6.75-12.51-13.67-19.09-20.19-2.82-2.8-3.23-5.12-.77-8.08,1.6-.9,2.68.16,3.7,1.09,7.73,7,14.4,15.07,21.59,22.62A2.3,2.3,0,0,1,526.1,203.55Z"/><path class="cls-27" d="M475.62,204.43c4.38-2.48,7.75-1.62,11.08,2.31,3.68,4.35,8.07,8.1,12.14,12.11-.14,2.87.47,5.79-.61,9.84C491.09,219.49,482.69,212.62,475.62,204.43Z"/><path class="cls-55" d="M526.1,203.55q-11.51-12.12-23-24.23c-.84-.89-1.62-1.91-3-2l2-2.83c9.39,8.61,17.75,18.23,26.67,27.3A4.36,4.36,0,0,1,526.1,203.55Z"/><path class="cls-56" d="M556.14,169.09c-6.35,3.46-6.07,2.29-12.51-4.84-3.28-3.62-6.59-7.17-10.15-10.51a10.32,10.32,0,0,1,.29-7.94A283.29,283.29,0,0,1,556.14,169.09Z"/><path class="cls-20" d="M445.77,618.71c9.33,0,17.14,6.7,17.87,15.11.21,2.46-.24,3.61-3.1,3.75a187.59,187.59,0,0,0-31.37,4.31c-1.78.39-3.74,1.21-3.75-2.1C425.37,627.94,434.23,618.68,445.77,618.71Z"/><path class="cls-32" d="M463.36,597.37a7.48,7.48,0,0,1-7.46,7.38,8.18,8.18,0,0,1-8.34-8.16c0-4.13,3.19-7.09,7.58-7.06A8.22,8.22,0,0,1,463.36,597.37Z"/><path class="cls-57" d="M126.09,606.62a9.13,9.13,0,0,1,8.35,12.83c-.71,1.61-1.45,2-3.18,1.57a47.86,47.86,0,0,0-12.94-1.49c-2.7.09-3.11-1.17-2.76-3.45A11,11,0,0,1,126.09,606.62Z"/><path class="cls-57" d="M124.92,593.7c-3.19.1-5.19-1.09-5.12-3.88.09-3.35,2.22-5.37,5.6-5.63,3.1-.23,4.7,1.73,4.63,4.52C130,592,127.53,593.39,124.92,593.7Z"/><path class="cls-58" d="M255.8,77.57c-2.58.26-3.8-1.42-4.89-3.44-.61-1.13-1.44-2.47-.35-3.35,1.46-1.18,1.86.61,2.62,1.44,2.26,2.48,4.22,2.22,5.7-.85.45-.93.69-2.44,2.12-1.79,1.12.52.9,1.91.51,2.93C260.51,75.15,259.46,77.83,255.8,77.57Z"/><path class="cls-59" d="M243.42,69c-.23-.17-.76-.34-.91-.68-.75-1.75,0-3.32.89-4.75a3.9,3.9,0,0,1,4.76-1.88,4.12,4.12,0,0,1,2.92,3.28c.16.77.06,1.65-.81,1.91-.49.15-1.45,0-1.62-.31-2.45-4.6-2.8-1-3.61.88C244.74,68.09,244.62,68.93,243.42,69Z"/><path class="cls-60" d="M268.77,64.38c-.18,1.13-.33,2.25-1.28,2.51-1.48.42-1.63-.7-1.87-1.88-.51-2.43-1.68-2.41-2.92-.45-.6.94-1,2.16-2.34,1-1-.86-.64-2-.06-3,1.11-1.89,2.65-3.07,4.95-2.46S268.38,62.47,268.77,64.38Z"/></g></g></svg>