<svg xmlns="http://www.w3.org/2000/svg" viewBox="0 0 592.09 770.53"><defs><style>.cls-1{fill:#f5a40c;}.cls-2{fill:#2fb094;}.cls-3{fill:#e14122;}.cls-4{fill:#010101;}.cls-5{fill:#f8c7b6;}.cls-6{fill:#e14224;}.cls-7{fill:#020201;}.cls-8{fill:#e14325;}.cls-9{fill:#020202;}.cls-10{fill:#e24527;}.cls-11{fill:#e24628;}.cls-12{fill:#eb9e0d;}.cls-13{fill:#060401;}.cls-14{fill:#fefefe;}.cls-15{fill:#020100;}.cls-16{fill:#020200;}.cls-17{fill:#030200;}.cls-18{fill:#010202;}.cls-19{fill:#040300;}.cls-20{fill:#e24321;}.cls-21{fill:#090600;}.cls-22{fill:#f5a20c;}.cls-23{fill:#faefd3;}.cls-24{fill:#f9eed2;}.cls-25{fill:#010504;}.cls-26{fill:#030b09;}.cls-27{fill:#eea00c;}</style></defs><g id="Capa_2" data-name="Capa 2"><g id="Capa_1-2" data-name="Capa 1"><path class="cls-1" d="M201.83,257.77l9.83-6.48c1-2.33,3.2-2.75,5.19-3.44,24.53-8.55,45.93-1.77,65.49,13.57,3.1,2.43,6.46,4.74,7.93,8.71,5.94,7.47,12,14.83,16.08,23.59-.34,4-3.89,5.5-6.3,7.88-11.54,11.42-22.44,23.2-25.63,40-1.81,9.58.36,18.32,5.42,26.18a42.63,42.63,0,0,0,15.85,14.92c10.46,5.49,21,11,33.36,10.63a3.6,3.6,0,0,1,3.14,1.22,124.93,124.93,0,0,0,4.06,16.61,2.84,2.84,0,0,1-1.51,2.38c-7.67,5.38-14.68,11.43-20,19.25-6.8-1.21-13.52-1.9-19.94,1.69-1.93,1.08-3.89.25-5.66-.85-9-5.56-18.9-9.05-28.4-13.46a29.27,29.27,0,0,0-12.67-2.37c-6.15,0-10.07,3-12.1,8.6a35.66,35.66,0,0,0-2.23,14.72c.65,8.45,1.11,16.94,3,25.27,4.7,21.2,21.85,27.29,39,13.88,4.56-3.57,7.43-8.5,11-12.88,2.08-2.57,3.83-5.51,7.31-6.52a9.62,9.62,0,0,1,4.24,1,16.91,16.91,0,0,0,15.95-1.6c1.5-1,2.91-2.17,4.85-2.16,1.7.55,2.49,2.1,3.58,3.31,10.5,11.75,22.86,13,35.53,3.68,1.06-.78,2-1.76,3.44-1.78a142.13,142.13,0,0,0,66.17,47.11c10.36,3.61,20.77,7.15,30.08,13.16,10.63,6.86,18.3,16,20.43,28.81,1.94,11.64-2.93,21.83-13.06,28-12.32,7.51-25.86,7.79-39.63,6.61-11.26-1-22.5-2.89-33.81-.56-7.83,1.62-14.87,4.79-20.31,10.88-7.87,8.81-7.77,19.63.24,28.3,5,5.37,11.21,8.82,17.79,11.73,5.47,2.42,11,4.65,16.4,7.29,27.36,13.46,21.89,39.88,8.57,53.92-9,9.47-20.52,14.39-32.92,16.55-35.73,6.22-71.56,12.27-108.07,10.27-35.06-1.92-64.26-15.66-86.12-43.73-5.32-6.83-10.26-14-16.17-20.32-13-14-28.5-17.76-46.28-11.12-10.26,3.83-20,9-30.38,12.57-21.62,7.48-43.83,9.62-66.32,4.49-12.44-2.84-22.6-9.06-26.76-22.08-4.92-15.37,3-33.07,17.91-40.32a137.49,137.49,0,0,1,22.49-8.11c29.82-8.55,52.94-26.58,71.9-50.5,17.63-22.25,28.89-47.65,36.65-74.77.79-2.78,0-3.54-2.49-4.5-38.14-14.61-58.5-46.95-55.47-88a10.34,10.34,0,0,0-1-6.23c-.88-1.57-2.75-3.87-.12-5.09,2.39-1.1,2.15,2.28,3.67,3.36,2-1.69-1-6.24,2.69-6.31,3.16-.05.78,3.68,2.21,5.32.16,0,.59.13.76,0,1.24-1.08.84-4.31,3.39-3.42s.76,3,.45,4.68c-.37,2-1.37,3.86,2.37,4.26,2.79.31,1.17,3-.18,3.44-4.11,1.44-3.51,4.68-3.54,7.75-.31,31.15,18,58.24,46,69,4.4,1.68,5.19.29,5.95-3.44,5.4-26.66,7.76-53.66,9.16-80.77.87-17,1.39-33.94,4-50.75a2.81,2.81,0,0,1,2.46-1.47c9.46,0,18.84-1.75,28.31-1.15a5.35,5.35,0,0,1,2.78.94c1.23,2.61-1.16,2.81-2.44,3.07-18.8,3.93-24.09,25.81-19,41.1a37.09,37.09,0,0,0,10.21,16.31c3.61,3.27,7.63,5.41,12.49,5.54a10.91,10.91,0,0,1,7.87,3.57c7.26,7.21,15.9,5.61,20.51-3.94-2.8,4.38-6.35,7.35-11.8,7a10.66,10.66,0,0,1-5.24-1.42c-3.4-2.16-3.6-4.61-.37-7,2.28-1.7,4.66-3.26,6.25-5.67,1.47-2.22,2.27-4.67.2-6.87-2.24-2.39-4.85-1.69-7.28-.16-3.38,2.13-4.66,5.65-5.37,9.26-.83,4.19-3.07,4.91-6.86,4-8.06-2-13.45-7.31-17.05-14.33a37.26,37.26,0,0,1-1.64-31.44,22.41,22.41,0,0,1,13.75-13.66c9-3.2,17,.09,21.35,8.63,1.05,2.07,1,5.15,4.31,5.5,6.05.09,7.87-2,6.75-8.37-2.25-12.66-6.72-24.68-10.93-36.76-3.78-10.85-8.18-21.43-14.59-31.06C202.1,261,201.18,259.58,201.83,257.77Z"/><path class="cls-1" d="M109.32,770.48c-14.5.16-28.94-.34-42.91-4.88C49,759.92,40.5,747,43.38,729.93c1.76-10.39,8.39-17.51,16.91-23,9.27-6,19.74-8.75,30.55-9.93,24.6-2.71,47.57.76,65.9,19.38,14.81,15,12.77,33.46-4.79,45.26a52.28,52.28,0,0,1-28.15,8.83C119,770.6,114.15,770.48,109.32,770.48Z"/><path class="cls-2" d="M202.5,320.51c-3.3-1.74-6.89-1.17-10.26-.8-8,.87-15.93,1-23.91,1.14-4.6-.65-9.25-1-13.77-2-8.89-1.92-12.55-5.78-12.39-12.43.16-6.87,6-13.33,13.29-14.78,1-.19,1.94-.27,3.63-.5-4.46-3.06-9.12-4.21-13.36-6.2a71.64,71.64,0,0,1-7.2-3.37c-7.43-4.6-7.2-12.31.55-16.43,7.4-3.93,15.3-3.91,23.31-2.26l3.93.79c-4.52-4.56-8.59-8.65-12.64-12.76-2-2-4-4-5.83-6.15-3-3.64-4.9-7.63-2.33-12.34,2.11-3.89,7.38-6.16,12.53-5.37,8.56,1.32,16.07,5.12,23.13,10,8.19,5.62,14.51,13.1,20.66,20.76,14.06,21.94,21.58,46.42,27.78,71.41a16.35,16.35,0,0,1,.46,4.92c-.34,5.32-3.21,7-8.39,5.17-1.64-.46-1.57-2-1.87-3.19-1.87-7.4-6.28-12.18-13.89-13.8A5,5,0,0,1,202.5,320.51Z"/><path class="cls-1" d="M499.9,600c12.58.51,24.9,2.22,36.46,7.45A30,30,0,0,1,552.88,644c-2.12,6.9-6.26,12.42-13.36,14.42-21.9,6.17-44.11,8.66-66.51,2.95-10.89-2.79-20.12-8.29-23.7-19.95-3.91-12.74,1.3-26.09,13.1-33.79C473.88,600.18,486.83,599.71,499.9,600Z"/><path class="cls-3" d="M392.66,296.57c13.89-5.61,27.14-12.35,39-21.71A129.76,129.76,0,0,0,454.5,252c1.05-1.38,1.8-3.67,4-3.34,2.7.4,2,3.21,2.38,4.91,2.59,10.63,4.29,21.46,7.38,32,3,4.28,2.91,9.44,4.15,14.22,1.6,6.1,2.62,12.33,4.07,18.47.42,1.77.76,3.59-.06,5.37,2.4,11.34,4.78,22.68,7.21,34,.25,1.16.63,2.27-.37,3.25s-2.17.26-3.14-.27c-23.9-12.83-49.5-17.44-76.38-15.94-3.45-12.56-5.76-25.39-8.55-38.1C394.42,303.21,392.65,300.11,392.66,296.57Z"/><path class="cls-3" d="M332.19,394.6c-18.78.27-34.72-6.71-48-19.57-12.08-11.67-15-28.61-8-44C281.69,318.86,290,308.8,300,300c2.24-2,4.25-4.2,6.36-6.32,3.28-1.13,5.89-3.59,9.43-4.36,10.08-2.18,17.76,4.92,15.71,15-.81,4-2.34,7.84-3.54,11.75.36,1.48-.74,2.51-1.16,3.75-3.1,4.53-5.77,9.32-8.65,14-.79,1.12-1.52,2.28-2.25,3.43-2.19,3.52-4.12,7.19-6.31,10.71-3.33,3.63-3.32,3.61,1,5.44,6.68,2.84,13.6,5.11,20.1,8.4,1.22,2,3.52,2.28,5.37,3.26,5.81,3.06,10.83,6.82,10.25,14.25-.6,7.63-5.32,12.09-12.31,14.45A13.73,13.73,0,0,0,332.19,394.6Z"/><path class="cls-2" d="M290.27,270.13c-8.94-8.54-18.57-16-30.31-20.39-16.31-6.05-32.42-5.89-48.3,1.55-1.17-.62-2.36-1.2-3.51-1.86-3.58-2.09-6.86-4.72-6.53-9.23s3.8-7.13,7.84-8.83c6.85-2.89,13.9-2.77,21-1.43,1.12.21,2.24.44,4,.79-2.72-3.93-6-6.48-8.87-9.35-3.55-3.5-7.47-6.66-10.3-10.82-5.21-7.67-1.24-15.68,8-16.3,4.95-.33,9.51,1.16,14,3.05,14.61,6.17,25.39,16.78,34.08,29.69C280.32,240.21,286.1,254.83,290.27,270.13Z"/><path class="cls-4" d="M453.52,0c46.27,0,77.41,31.94,75.19,79.4-2.38,50.9-26.14,91.34-66.52,121.9-11.72,8.86-25.61,13.3-40.34,14.44a10.82,10.82,0,0,0-8.42,4.26,93.28,93.28,0,0,1-26.51,22.47c-1.77,1-3.7,3.37-5.79,1.88-2.37-1.7,0-4,.57-5.84,2.32-7.62,4.92-15.15,7.54-22.67.69-2,.95-3.16-1.62-3.93-44.15-13.24-58.08-57-56.84-87.83C333.07,67.53,378.05,14.33,433.36,2.27A123.37,123.37,0,0,1,453.52,0Z"/><path class="cls-2" d="M315,432.24c3.14-8.25,10.08-12.93,16.76-17.86,1.46-1.08,3-2.11,4.45-3.17,13.16-5.71,18.74-3.52,26,10.19,2.64,3.05,4,6.48,3,10.57.52,4.75,1.85,9.39,1.8,14.23a30.69,30.69,0,0,1-5.51,17.21c-14,14-31.66,11.88-42.82-5.05.89-6.45,2.26-7.56,8.14-6.48a25.79,25.79,0,0,0,7.5.16c-2.38-.25-4.67-.9-7-1.34-3.85-.73-5.54-3.11-6.15-6.81s1.37-5.55,4.1-7.19,5.5-3.11,7.7-5.56c-2.61.51-4.65,2.23-6.86,3.58-5.46,3.35-5.93,3.31-10.61-1.2A2.67,2.67,0,0,1,315,432.24Z"/><path d="M392.66,296.57c3.47,3.83,3.5,8.85,4.56,13.5,2.21,9.72,4.25,19.48,6.46,29.2a10.89,10.89,0,0,1,0,5.41c-.09.14-.14.35-.27.41-7.81,3.59-4.15,8.81-2,13.82-.32,2-.82,3.93.06,5.88a2,2,0,0,1-1.33,1.54,3.42,3.42,0,0,1-3.43-.59c-1.37-2.82-2.92-5.57-4.06-8.49-1.38-3.53-1.76-7.6-7.36-7-1.86.21-3.15-2.16-4.25-3.84-1.92-1.84-2.25-4.35-2.78-6.74-2.19-10-4.41-19.95-6.51-29.94-.37-1.77-.91-3.55.26-5.25.66-4.1,3.13-6.33,7.17-6.9C383.7,297,388,294.53,392.66,296.57Z"/><path class="cls-5" d="M476.39,323.63c-3-12.62-6.05-25.24-8.16-38.06l27.08.11c1.87,8.67,3.77,17.34,5.9,25.95C493.46,316.72,484.61,319.52,476.39,323.63Z"/><path class="cls-1" d="M396.78,365.74l3.38-.14c.46.2,1.1.39,1.22.8,1.56,5.34,4.95,9.33,9.24,12.68-2.15.8-1.94,2.86-2.42,4.54-6.58,23-20.29,39.59-42.88,48.34q-1.53-5.28-3-10.56c18.43-8,30.12-21.67,35.39-41.1C399.07,375.14,397.8,370.55,396.78,365.74Z"/><path class="cls-3" d="M372.08,304.51l9,41.93a45.76,45.76,0,0,1-14.77-2.09c-14.77-4.82-18.44-20.92-7.25-31.64A39.39,39.39,0,0,1,372.08,304.51Z"/><path class="cls-6" d="M592.09,312.64a168.91,168.91,0,0,1-5.65,41.42c-.42,1.58-.1,4.35-3,3.47-2.43-.74-.87-2.79-.51-4.24,6.95-28,7.8-56-1.66-83.61-10.23-29.89-29.27-52.2-57.69-66.34-1.4-.7-4.37-.86-3.12-3.46s3.28-.54,4.72.18c35,17.45,55.42,46.12,63.88,83.82A142.31,142.31,0,0,1,592.09,312.64Z"/><path class="cls-7" d="M315.22,336.72a6.31,6.31,0,0,1,2.13-3.35c2-.42,3.54.7,5.17,1.46a14,14,0,0,0,5.77,1.46c5.8.08,8.09-3.7,5.4-8.92a12.76,12.76,0,0,0-4-4.35c-1.44-1-3.28-1.78-3.71-3.83.17-1.36.57-2.56,2-3.1,3.17,1.82,6.36,3.67,8.68,6.57,3.06,3.82,4.78,8.09,2.61,12.93-2.09,4.68-6.13,6.21-11,6.15-.65,0-1.29.07-2.26.12,1.58,6.78,3.12,13.36,4.66,19.93-5.58-.17-10.1-3.49-15.17-5.15-2-.66-4-1.53-6-2.33-5.84-2.36-5.88-2.88-.63-7.26,1.24.1,2,1,3,1.65,1.86,1.24,3.88,2.3,5.84.49s1.33-3.89.75-6C317.78,340.8,314.91,339.55,315.22,336.72Z"/><path class="cls-8" d="M559.16,309.17c-.2,8.9-1,15.82-2.87,22.59-.45,1.63-.25,4.41-2.9,3.59-2.43-.74-1-3-.58-4.7,6.26-27.29.76-51.77-17.51-73.18a76.83,76.83,0,0,0-13.69-12.34c-1.28-.92-3.43-1.88-2-3.81s3,.05,4.21.93C547.16,259.26,558.22,282.55,559.16,309.17Z"/><path class="cls-9" d="M501.21,311.63c-3.11-2-2.61-5.55-3.26-8.48-1.27-5.75-3.71-11.36-2.64-17.47q9.79,1.17,12.3,10.26C509.26,301.92,507,307.34,501.21,311.63Z"/><path class="cls-10" d="M532.39,303.27c-.2,1.69-.44,4.33-.83,6.94a1.64,1.64,0,0,1-2.18,1.42,1.66,1.66,0,0,1-1.23-1.88c0-1.16.13-2.32.22-3.47,1.15-14.37-3.62-26.33-14.47-35.88-1.19-1-3.94-2-2-4.16s3.32.52,4.49,1.54C526.87,276.89,532.1,288.46,532.39,303.27Z"/><path class="cls-10" d="M343.67,309.6c-1.7-.5-1.78-1.77-1.07-3.09,4.79-8.92,9.64-17.79,14.46-26.69.55-1,1.4-1.54,2.43-1.09,1.41.61,1.24,1.93.68,3-4.77,8.92-9.6,17.81-14.42,26.71A2,2,0,0,1,343.67,309.6Z"/><path class="cls-11" d="M357.44,361.89l4.11,1.61c7.4,2.85,14.8,5.67,22.19,8.56,1.35.53,3.13,1.1,2.35,3.09-.87,2.22-2.55.82-3.77.36-8.33-3.2-16.61-6.5-24.92-9.74-1.34-.52-2.5-1.13-2-2.83A1.6,1.6,0,0,1,357.44,361.89Z"/><path class="cls-12" d="M401.19,364.69c-4.13-2.14-1.14-3.92.29-5.78,7.87-.91,11.72,3.85,10.43,12.89C403.77,372.14,403.36,371.87,401.19,364.69Z"/><path class="cls-13" d="M401.19,364.69c.38,2.35,3.66,2.89,3.52,5.69,0,.58,1.39,1.41,1.94.74,2.25-2.76,3.58,0,5.26.68,2.25,2.9,3,5.53-1.28,7.27-5.47-1-7.42-5.38-9.31-9.78a38.54,38.54,0,0,1-1.16-3.69Z"/><path class="cls-2" d="M294.41,461.36c-4.73,3.08-7.34,8-10.68,12.3-5.23,6.72-11.35,12-19.91,14.11-11.19,2.72-21.23-1.47-25.37-12.14a85.6,85.6,0,0,1-4.61-46.54c2-11.21,10.18-15.49,21.93-11.83a168.9,168.9,0,0,1,34,15.26c2,1.14,3.24,1.86,5.65.47a20.6,20.6,0,0,1,19.62-.75c.09.15.2.31.3.45,1,2.09,1.88,4.25,3,6.28,3.15,5.64,3,11.16-.92,16.34s-9.28,7.25-15.77,6.31C299.27,461.28,296.88,459.93,294.41,461.36Z"/><path class="cls-14" d="M230,292.51c.75-10.91,8.08-20.26,19.48-26.6,10.72-6,21.37-5.19,31.5,1.75,11.56,7.9,12.77,21.32,2.71,31a89,89,0,0,1-22.11,16.07C245.78,322.55,230,312.74,230,292.51Z"/><path class="cls-15" d="M202.5,320.51c11.88,1.5,17.25,6.75,19.19,18.76-4.45,3.27-3.71-1.42-4.25-3.07-3.21-9.81-12.24-14.25-21.77-10.37a21.3,21.3,0,0,0-12.27,13.08c-4.46,12.45-2.73,24.22,4.83,35a21.4,21.4,0,0,0,10.13,7.8c6.36,2.42,7.09,2.05,8.8-4.36,1.14-4.24,3.52-7.44,7.78-9.07a6.06,6.06,0,0,1,6.87,1.47c2,2,1.91,4.5.76,6.93a16.48,16.48,0,0,1-8.49,8.08c-2.29,1-2,2-.38,3.54,4.86,4.53,12.52,2.88,15.92-3.44.73-1.38.66-4.44,3.38-3,2.24,1.21.56,3.35-.15,4.84a13.61,13.61,0,0,1-22.82,3c-1.75-2.09-3.29-3.15-6.09-3.08-6.18.15-11.39-2.57-15.4-7.05-10.89-12.13-14.25-26.11-8.73-41.61C183.54,327.54,191.22,321.53,202.5,320.51Z"/><path class="cls-16" d="M119.93,625.48c-1.49,0-2.24-.89-1.68-2.22a8.43,8.43,0,0,1,2.24-2.59c29.34-26.76,51-58.93,67-95.07.82-1.85,1.09-5.87,3.8-4.66,3.07,1.37.26,4.38-.63,6.4-16,36.35-37.79,68.6-67.15,95.55-.85.78-1.73,1.54-2.64,2.27A3.09,3.09,0,0,1,119.93,625.48Z"/><path class="cls-17" d="M307.18,528.94c1.12-2.06-2-6.58,1.94-6.71,3.12-.1,1.77,4.36,1.88,6.78,1.57,33.09,12.7,62.61,32.82,88.83a13.9,13.9,0,0,1,1.24,1.56c.87,1.56,3.78,3.07,1.37,4.92-2,1.55-3.08-1.21-4.11-2.48a157.54,157.54,0,0,1-31-63.51A165.41,165.41,0,0,1,307.18,528.94Z"/><path class="cls-18" d="M294.41,461.36c.49-4.31,3-2.27,5-1.58,8.55,2.92,16.94-1.29,19.29-9.72,1.31-4.68.1-8.88-2.7-12.66-1.11-1.51-2.46-2.84-.69-4.71.17,0,.41,0,.49.06,4.43,5.5,8.2,1.8,12.34-.62,2.35-1.39,5.79-5.49,7.4-2.83,2.14,3.55-3.52,3.9-5.55,5.88a17.38,17.38,0,0,1-4.21,2.63c-2.53,1.34-4,2.77-3.31,6.21s2,5,5.15,5.48c2.46.35,4.92.67,7.39.93,1.33.14,3,0,2.92,1.82s-1.84,1.68-3.13,1.62c-2.49-.1-5.16.15-7.4-.68-3.72-1.39-6.17-1.14-7.38,3a10.17,10.17,0,0,1-1.26,2.14C310,465.62,302.77,466.51,294.41,461.36Z"/><path class="cls-19" d="M239.7,573.35a154.19,154.19,0,0,1-16.29,46.25c-2.14,3.93-4.57,7.71-6.89,11.54-.76,1.26-1.58,3.09-3.34,2.12-2.26-1.26-.53-2.91.29-4.18a154.24,154.24,0,0,0,21.16-49.63c.53-2.26,1-4.52,1.52-6.79.24-1.14.33-2.52,2-2.3S240,571.89,239.7,573.35Z"/><path class="cls-17" d="M168.7,494.12c-.48,1.49-.93,2.91-1.41,4.33A156.11,156.11,0,0,1,140,547.89c-1,1.17-1.87,3.57-3.77,2.24-2.28-1.59-.14-3.24.92-4.54a153.66,153.66,0,0,0,27.4-50.51c.45-1.41.53-3.64,3-3.29C168.6,492,168.78,493.1,168.7,494.12Z"/><path class="cls-19" d="M400,544.23c-.33,1.24-1,2.17-2.42,1.51a13,13,0,0,1-2.45-1.68,115.37,115.37,0,0,1-32.26-38.65c-.73-1.42-2.89-3.32-.38-4.62s2.89,1.55,3.63,3a114.05,114.05,0,0,0,31,37.17C398.23,541.83,399.58,542.57,400,544.23Z"/><path class="cls-20" d="M248.15,335.57a21.79,21.79,0,0,0,1.93,2.36c2.72,2.41,2.56,4-1.17,4.95-5,1.3-9.87,2.76-14.79,4.18-1.23.36-2.38.53-2.77-1-.35-1.35.32-2.15,1.68-2.53,3.18-.9,6.31-2,9.52-2.78,2-.48,3.49-.82,1.37-3-3-3-1.59-4.39,1.8-5.43,4.43-1.35,8.77-3,13.17-4.47,1.07-.35,2.47-.73,3.06.63.69,1.6-.47,2.47-1.82,2.95C256.28,332.8,252.41,334.11,248.15,335.57Z"/><path class="cls-21" d="M205.87,354c-4.13-.62-7.26-1.06-10.38-1.56-1.39-.22-2.79-.75-2.58-2.43.19-1.45,1.56-1.56,2.78-1.38,4.44.66,8.89,1.3,13.31,2.1,2.16.39,2.76,1.73,1.39,3.6-2.27,3.09-4.58,6.14-6.86,9.22-.79,1-1.82,1.68-3,.87s-.72-2.07,0-3.07C202.14,359.08,203.79,356.85,205.87,354Z"/><path class="cls-22" d="M450.77,268.26A1.56,1.56,0,0,1,452,266c1.46-.21,1.95.93,2.23,2.15,1.61,6.94,3.29,13.86,4.82,20.82q5.54,25.25,11,50.51a4.16,4.16,0,0,1,.15,1c-.08,1.6,2,4-.83,4.58-2.55.49-2.34-2.44-2.76-4-1.16-4.15-1.95-8.4-2.88-12.6q-6.19-28.15-12.37-56.31C451,270.9,451,269.57,450.77,268.26Z"/><path class="cls-23" d="M325.94,319.19c3.46,2,6.95,4,9.06,7.56,1.5,2.54,2.09,5.3.49,8s-4.39,3.29-7.33,3.24c-4.23-.07-7.36-2.73-10.81-4.64C320,328.52,322.44,323.53,325.94,319.19Z"/><path class="cls-24" d="M315.22,336.72c2.36,2.1,4.47,4.42,5,7.65.49,2.71.23,5.48-2.47,6.93-2.47,1.32-4.79.22-6.68-1.63-.82-.8-1.51-1.73-2.25-2.61A60.52,60.52,0,0,1,315.22,336.72Z"/><path class="cls-14" d="M419.74,212.34c2.05-3.54,3.75-6.36,5.34-9.25.67-1.24,2-2.8.22-3.92-2.24-1.39-2.78.93-3.5,2.25a97.19,97.19,0,0,1-28,32.1c-2.38,1.75-4.88,3.34-8.46,5.77,2.9-8.84,5.18-16.56,8-24.08,1.42-3.77.58-5.26-3.15-6.39-34.12-10.31-50.61-35.43-54.76-68.93C330.33,98.46,347.86,65,376.59,36.8c21.48-21.09,47.55-32.8,77.93-33,41-.3,69.89,28.25,70.63,69.3.68,38.33-14.41,70.78-37.81,100-12.47,15.56-27.25,28.18-46.47,34.85A84.16,84.16,0,0,1,419.74,212.34Z"/><path class="cls-25" d="M297.26,446.94c-.08,6.26-7,15.24-13.31,17.39-1,.34-2,.61-2.61-.5a2,2,0,0,1,.77-2.61c1.74-1.27,3.56-2.45,5.23-3.81,6-4.85,7.06-8.7,4.33-16-.37-1-.8-1.95.18-2.68,1.18-.87,2.21-.2,3,.78A10.82,10.82,0,0,1,297.26,446.94Z"/><path class="cls-26" d="M272.82,451.71c-1.54-.09-3.22.26-3.38-1.58s1.51-2.05,2.79-2.18a16.32,16.32,0,0,0,10.82-5.45c.86-.95,1.8-2.22,3.3-1s.4,2.44-.43,3.38A19.28,19.28,0,0,1,272.82,451.71Z"/><path class="cls-9" d="M278.84,296.31c-.18,2.1-.82,3.79-3,4.19-2.38.43-3.84-1-4.45-3.06a42.82,42.82,0,0,0-7.42-14.5,50.08,50.08,0,0,0-8.62-8.22,3.49,3.49,0,0,1-1-4.88,3.3,3.3,0,0,1,4.79-1.2C269.27,275.39,275.65,284.79,278.84,296.31Z"/><path class="cls-27" d="M219.47,373.77c.12,2.56-5.62,8.35-8,8.05-.38,0-1-.41-1-.67a9.21,9.21,0,0,1,2.37-6.86c1.27-1.57,2.74-3,5-2.66A1.91,1.91,0,0,1,219.47,373.77Z"/><path d="M420.52,143.62a47.5,47.5,0,0,1-9.5-.87c-9.07-1.69-13.07-6.91-11.16-16,4.87-23.24,9.75-46.48,15.74-69.47,1.88-7.23,3.59-14.51,5.56-21.71,3.08-11.22,7.65-14.24,19.13-13.21,6.13.55,12.3.7,18.42,1.26,13.28,1.22,17.84,8.29,13.48,20.78Q457.6,86.23,443,128C438.49,140.73,434.44,143.63,420.52,143.62Z"/><path d="M407,185.74c-3.78-.46-7.63-.65-11.34-1.46-6.05-1.32-8.83-5.56-8.17-11.72,1.54-14.39,9.4-21,23.73-19.71a102,102,0,0,1,11.8,1.73c4.28.9,6.38,3.75,6.49,8.19C429.8,176.43,420.56,185.82,407,185.74Z"/></g></g></svg>