<svg xmlns="http://www.w3.org/2000/svg" viewBox="0 0 234.87 216.57"><defs><style>.cls-1{fill:#e14122;}.cls-2{fill:#1e7dc0;}.cls-3{fill:#f5a40c;}.cls-4{fill:#e14324;}.cls-5{fill:#207fc1;}.cls-6{fill:#010202;}.cls-7{fill:#2280c1;}.cls-8{fill:#e14224;}.cls-9{fill:#2883c3;}.cls-10{fill:#0d0d0d;}.cls-11{fill:#0f0f0f;}.cls-12{fill:#f6af28;}.cls-13{fill:#0e0e0e;}.cls-14{fill:#f5aa1b;}.cls-15{fill:#f5aa1c;}.cls-16{fill:#f6ad23;}.cls-17{fill:#151515;}.cls-18{fill:#f5a91a;}.cls-19{fill:#f6ae27;}.cls-20{fill:#f5aa1d;}.cls-21{fill:#f6ae26;}.cls-22{fill:#f7b73e;}.cls-23{fill:#2fb094;}.cls-24{fill:#f4a40c;}.cls-25{fill:#fefefe;}.cls-26{fill:#fbf0d4;}.cls-27{fill:#010203;}.cls-28{fill:#020100;}.cls-29{fill:#faebcf;}.cls-30{fill:#fdfaf9;}.cls-31{fill:#02090d;}.cls-32{fill:#fcf1ef;}.cls-33{fill:#f5c4bb;}.cls-34{fill:#f8d4ce;}.cls-35{fill:#fdfbfa;}.cls-36{fill:#040d0b;}.cls-37{fill:#030c0a;}.cls-38{fill:#05110e;}.cls-39{fill:#040f0d;}.cls-40{fill:#04110e;}.cls-41{fill:#081c18;}.cls-42{fill:#141311;}</style></defs><g id="Capa_2" data-name="Capa 2"><g id="Capa_1-2" data-name="Capa 1"><path d="M96.28,87.36l-12.37,4c-1.33.43-2.67.87-4,.24-.61-.27-1.12,0-1.65.21C72.67,93.59,67,95.13,61.66,97.41a19.8,19.8,0,0,1-2,.66c-3.6,1.06-5.69-.44-6-4.22-.1-1.46.79-2.09,1.91-2.55q6.8-2.82,13.6-5.61L73.41,84c1.41-.58,2.85-1,3.63-2.61.48-1,1.68-1.34,2.75-1.67,4.48-1.36,8.73-3.33,13-5.1.47-.19,1.18-.13.7-1.11C91.69,69.8,92,66,93.15,62.17a28.77,28.77,0,0,1,10.31-14.86c3.52-2.64,7.39-3.75,11.75-2.57s8.07-.21,11.26-3.26C129,39,130.84,36,132.77,33A72.9,72.9,0,0,1,168.51,4.21c7.33-2.82,14.86-4.77,22.85-4.07,7.17.64,12.61,5,14.13,11.37a10.28,10.28,0,0,1-1.11,7.7,25.3,25.3,0,0,0-3.23,7.62c-.69,3.64.55,6.14,3.91,7.8,2.57,1.28,5.4,1.64,8.13,2.35.51.13,1,.24,1.52.38,8.48,2.33,11.65,9.81,7.51,17.64a24.85,24.85,0,0,1-7.31,8c-2.39,1.82-4.86,3.54-7.32,5.28A30,30,0,0,0,197.74,80a95.63,95.63,0,0,1-5.26,10.34c-2.71,4.22-6.14,7.53-11.34,8.4a17.55,17.55,0,0,1-9.32-1.39A48.14,48.14,0,0,1,164,93.17c-2-1.24-4-2.49-6.08-3.67a19,19,0,0,0-18.89-.71c-3.57,1.76-7.07,3.68-10.66,5.4-4,1.92-8.14,3-12.6,2s-7.41-3.6-8.48-8.14c-.12-.51-.25-1-.37-1.52-.61-2.59-.61-2.59-3.22-1.48a13.91,13.91,0,0,1-5,1.94c-.85.23-1.48-.11-1.25-1.18a2.92,2.92,0,0,1,1.93-1c3.13-.87,6.15-2.06,9.26-3,1.12-.33,1.51-.74,1-1.94-1-2.34-1.83-4.76-2.81-7.11-.71-1.68-.94-1.78-2.58-1.09C98.35,74,92.42,76.38,86.55,78.85c-2,.86-4.15,1.46-6.19,2.28-2.69,1.07-3.07,2-2.08,4.67.28.76.59,1.51.9,2.26,1,2.34,1.53,2.66,4,1.87,3.75-1.2,7.54-2.28,11.26-3.59A3.29,3.29,0,0,1,96.61,86C97,86.55,96.92,87,96.28,87.36Z"/><path class="cls-1" d="M13.92,127.81a76.89,76.89,0,0,1,3-15.2c-.94-.16-1.84-.26-2.7-.47A6.06,6.06,0,0,1,9.36,106a2.49,2.49,0,0,0-.21-1.16c-2-4.07-.05-7.9,4.51-8.72.79-.14,1.59-.21,2.41-.32-.13-.55-.62-.5-.92-.7-1.86-1.18-1.92-3.09-.09-4.34,1.63-1.12,3.51-1,5.54-1-1-1.09-1.85-2.2-1-3.59a3.73,3.73,0,0,1,3.63-1.61,10.64,10.64,0,0,1,9.46,5.73c.55,1,1,1.08,2,.74a16.55,16.55,0,0,1,11.72.28c6.3,2.47,9.61,8.35,8.66,15.35-.22,1.66-.56,3.3-.84,5,.05,2-1.24,3.55-1.61,5.4-2.09,1.7-4.07,3.52-7.13,3.22a48.38,48.38,0,0,0-5.9,0c-3.35.08-4.69,2.14-3.38,5.24a32.66,32.66,0,0,0,3.85,6.58,7.49,7.49,0,0,0,2.25,2.8c2.07,1.74,4.27,1.37,5.67-1A39,39,0,0,0,50.51,128a3,3,0,0,1,2.39-2.19,4.4,4.4,0,0,0,2.79-1.91c.37-.51.63-1.12,1.29-1.35,1.6-.2,3.21-.23,4.8-.54,4.06-.8,5.5-3.4,4-7.24-.27-.71-1-1.36-.53-2.25l7.09-1.06c2.37-.31,4.6.45,6.79,1.08a56.08,56.08,0,0,1,22.94,12.9,58.42,58.42,0,0,1,9.53,11.41c1.62,2.52,1.6,2.62-.93,4.1-5.25,3.06-10.53,6.06-16,8.73-2.23,1.09-2.21,1.12-1.85,3.6.07.5.36,1.11-.1,1.49s-1.17.06-1.58-.29c-2-1.68-3.89-1.13-6.06-.08a295.48,295.48,0,0,1-29.47,12.31c-2.88,1-5.77,2.07-8.7,3-1.78.57-2,.42-2.56-1.42A66.52,66.52,0,0,0,29,141.24a85.12,85.12,0,0,0-14-12.17C14.56,128.74,14.05,128.44,13.92,127.81Z"/><path class="cls-2" d="M13.92,127.81c14.88,10.09,26,23,30.91,40.7.36,1.3.92,1.18,1.93.84a320.79,320.79,0,0,0,39.05-15.74c1.87-.9,3.39-1.19,5,.19a10,10,0,0,0,1.69.94c-.47-4.12-.47-4.13,3.21-6,5.19-2.69,10.28-5.56,15.35-8.44,1.21-.69,1.5-1.15.68-2.42-9.14-14.25-21.82-23.21-38.6-26.12a6,6,0,0,1-.82-.26c0-1.06.77-.81,1.34-.73,1.12.16,2.24.39,3.35.6a11.41,11.41,0,0,1,4.4.77,57.52,57.52,0,0,1,31,24.12c1.25,1.94,1.27,2,3.19.79,3.31-2,6.58-4.12,9.82-6.24.65-.42,1.25-1.13,2.19-.65,3.11,6.23,3,12.71,1.38,19.26-2.35,9.24-8,16.32-15,22.43a83.93,83.93,0,0,1-16.81,11.31c-1.07.55-1.48.91-.49,2,1.68,1.9,3.11,4,4.8,5.94,1.1,1.23,1.17,2.12-.24,3a2.93,2.93,0,0,0-.57.64c-.34,1.21-1.4,1.6-2.36,2.12-.73.64-1.29.6-2-.2-2.61-3-5.31-5.94-8-8.9-.07-.92.88-.73,1.35-1.35a71.2,71.2,0,0,1-19.46,6.2,67.83,67.83,0,0,1-18.82.6c-1.87-.21-2-.64-1.41-2.43a17.35,17.35,0,0,0,1.09-4.16,22.72,22.72,0,0,1-5,10.64,17.89,17.89,0,0,1-7.21,5.52l-1.07-1.08a4.64,4.64,0,0,1-2.1-2.68c-1-1.22-1.12-2,.71-2.62a9.15,9.15,0,0,0,4.17-3.29c.58-.75,1-1.28-.43-1.59a32.24,32.24,0,0,1-3.75-1.34A3.87,3.87,0,0,1,35,190a32.67,32.67,0,0,1-13-10.52,2.67,2.67,0,0,1-.52-1.32L21,177.07c.23-1.21,1.3-1.2,2.15-1.42,6.16-1.6,12.33-3.17,18.38-5.17,2-.67,2.08-.76,1.49-2.83-2.92-10.25-8.44-19-15.71-26.64A81.7,81.7,0,0,0,15,130.36a3,3,0,0,1-1.16-1.26C13.46,128.65,13.39,128.22,13.92,127.81Z"/><path class="cls-1" d="M13.86,129.1c14.47,9.85,25.19,22.52,30,39.68.33,1.16,0,1.47-1,1.8-6.5,2.07-13.08,3.83-19.68,5.53-.74.2-1.67.09-2.13,1a11.82,11.82,0,0,1-.9-1.47,5.31,5.31,0,0,0-3.5-3.37c-2.55-.81-3.73-3.53-3.25-6.75.18-1.18-.14-1.55-1.18-1.93a25.06,25.06,0,0,1-5.37-2.77c-6.55-4.29-8.52-11.12-5.34-18.3,2.27-5.11,6.43-8.37,11-11.21A2.34,2.34,0,0,0,13.86,129.1Z"/><path class="cls-1" d="M127.69,130.14c-.77,0-1.26.54-1.84.9q-5.56,3.53-11.12,7.09c-.7.44-1.2.69-1.79-.29a57,57,0,0,0-35.88-26.49c2.63-.49,5.29-.24,7.94-.33a2.24,2.24,0,0,0,2.08-1.2,123.79,123.79,0,0,0,9.16-18,5.54,5.54,0,0,0,0-4.46l.15-1.2c.14-.88.43-1.33,1.2-.42-.18.91.15,1.12,1,.84,1.68-.56,3.39-1.06,5.08-1.57-.9,6.15-3.88,11.55-6.37,17.11A89.22,89.22,0,0,1,92.55,111c3.49.46,6.8.73,10,1.47,8.52,2,16.25,5.3,21.87,12.36A21.26,21.26,0,0,1,127.69,130.14Z"/><path d="M221,31.1a14.44,14.44,0,0,1-6.28-1.26,8,8,0,0,1-4.71-8c.54-8.12,8.95-14.19,16.77-12,4.69,1.34,7.38,4.7,8,9.46.59,4.33-1.78,7.24-5.28,9.38A16.47,16.47,0,0,1,221,31.1Z"/><path d="M209.29,94.17A9.75,9.75,0,0,1,206,94c-3.48-.69-5.43-3.52-4.18-6.81,2.55-6.69,6.63-12.37,13-15.93,5.13-2.89,10.93.57,11.46,6.5a13.14,13.14,0,0,1-4,10.68A18.74,18.74,0,0,1,209.29,94.17Z"/><path class="cls-3" d="M45.07,30.68c5.32,0,9,4.74,7.38,9.82a14.79,14.79,0,0,1-11.1,10.41c-5.08,1.21-9-2-9.05-7.24C32.22,37.32,38.76,30.66,45.07,30.68Z"/><path d="M152.58,111.08c-1.62,0-3.24,0-4.86,0a7.35,7.35,0,0,1-7.12-8.73c.92-5.54,5.62-8.65,11.07-7.24A23,23,0,0,1,159,98a8.35,8.35,0,0,1,3.93,7.65c-.14,3.07-1.79,4.84-4.84,5-1.84.13-3.69,0-5.54,0Z"/><path class="cls-2" d="M52.43,117c0-2,1.09-3.59,1.79-5.34,3.77-5,6.53-4.93,10.4.11.21.28.44.53.66.79a15.65,15.65,0,0,1,1.54,4.16,4.55,4.55,0,0,1-2.95,5.22,15.58,15.58,0,0,1-6.94.85c-.52-.5-.38-1.16-.42-1.77a3.87,3.87,0,0,0-3.86-3.91Z"/><path class="cls-4" d="M35.26,189.7l1.16.53c-2.65,3.88-5.54,7.53-9.53,10.15-2.78,1.82-5.63,3.44-9.15,3.17a5.57,5.57,0,0,1-5.28-4.83c-.09-.59-.21-.89-.83-1.1-1.89-.65-3.46-1.74-3.69-3.92C7.7,191.34,9.28,190,11,188.88c.66-.42,1.36-.78,2-1.17-.25-.59-.81-.52-1.2-.72-1.48-.76-2.64-1.74-2.56-3.56A3.94,3.94,0,0,1,12.05,180c1.89-.81,4-.74,5.95-1.08a14.76,14.76,0,0,0,3.54-.73c.24.35.48.69.73,1-.43.68-1.15.71-1.83.84-1.77.31-3.55.5-5.33.69a6.32,6.32,0,0,0-3.24,1.13,2,2,0,0,0,.23,3.55,6.49,6.49,0,0,0,4.37.7c1.08-.2,2.17-.41,3.25-.55.73-.1,1.67-.37,1.92.61s-.75,1.29-1.49,1.54a14.1,14.1,0,0,1-3.41.66,10.58,10.58,0,0,0-6.07,2.73c-1.44,1.23-1.51,2.66-.35,3.93s1.81,1.3,3-.08a11.51,11.51,0,0,1,6.42-3.54c1-.22,2.12-.2,2.76.9s.14,2-.55,2.84a9.63,9.63,0,0,1-6.32,3.28c-.5.07-1.16-.11-1.39.47s.2,1.22.63,1.69A4.83,4.83,0,0,0,18.66,202a8.81,8.81,0,0,0,4-1,27.31,27.31,0,0,0,10.77-9.31A4.91,4.91,0,0,1,35.26,189.7Z"/><path class="cls-5" d="M117.58,207.36c-4.77-.6-9.56-.94-14.36-1.18a181.93,181.93,0,0,0-34.12,1.66,186.11,186.11,0,0,0-34.83,8.39c-.5.17-1.25.7-1.5,0s.65-.76,1.15-.93a187,187,0,0,1,39.63-9,183.3,183.3,0,0,1,43.48,0l.69.07c.37,0,.7.13.76.55S118.3,207.35,117.58,207.36Z"/><path class="cls-6" d="M38.89,202.83c.29-.64.94-.83,1.47-1.16a22.26,22.26,0,0,0,10.29-15c.05-.28.05-.58.12-.86s.25-.58.56-.57c.5,0,.45.45.42.78a15.82,15.82,0,0,1-1.41,5.33c-.54,1.17-.24,1.39.95,1.51a71.92,71.92,0,0,0,37.5-6.41c.66-.31,1.67-1.34,2.06-.47s-1.12.93-1.71,1.44a3.49,3.49,0,0,1-.74.4A74.09,74.09,0,0,1,64.69,194a66.5,66.5,0,0,1-13.53-.12,2.32,2.32,0,0,0-2.74,1.32,21,21,0,0,1-7.76,7.54C40.14,203,39.53,203.74,38.89,202.83Z"/><path class="cls-7" d="M137.94,142.53a35.84,35.84,0,0,1-7.52,21.72,8.63,8.63,0,0,1-.66.81c-.23.23-.46.58-.85.29s-.22-.6,0-.9c.11-.13.21-.27.32-.41a34.11,34.11,0,0,0,7-28,3,3,0,0,1-.06-.52c0-.42-.31-1,.4-1.09.5,0,.56.51.63.89a38,38,0,0,1,.72,6.19C137.94,141.84,137.94,142.19,137.94,142.53Z"/><path class="cls-8" d="M35.72,199.07a12.37,12.37,0,0,1,2.1,2.68c-.94.21-1.3.64-.66,1.54a4.78,4.78,0,0,1,.55,1.08,1.45,1.45,0,0,1-.71,1.91,1.39,1.39,0,0,1-2-.45,36.79,36.79,0,0,1-2.22-4.27,1.4,1.4,0,0,1,1.11-2Z"/><path class="cls-8" d="M98.37,196.91a10.37,10.37,0,0,1,2.36-2.12c1.09.29,1.44-.73,2.07-1.21.87-.67,1.76-1.09,2.57-.12s.39,1.81-.48,2.54-1.46,1.3-2.2,1.95c-1.7,1.5-2.2,1.46-3.64-.27C98.83,197.42,98.6,197.16,98.37,196.91Z"/><path class="cls-9" d="M143.54,147.05a24.23,24.23,0,0,1-2.4,8c-.18.36-.34.85-.85.62s-.3-.68-.12-1a23.18,23.18,0,0,0,2.35-8.1c0-.4.13-.83.65-.87C143.52,145.59,143.58,145.8,143.54,147.05Z"/><path class="cls-10" d="M50,86.77c-.15.43.44,1.29-.43,1.35s-.57-.82-.64-1.34c-.13-1.15-.24-2.29-.35-3.44,0-.33-.11-.76.36-.83s.66.33.7.76C49.75,84.42,49.86,85.56,50,86.77Z"/><path class="cls-11" d="M53.19,88.12c-.62-.14-.54-.58-.39-1,.46-1.17,1-2.33,1.45-3.49.12-.27.38-.49.68-.32a.66.66,0,0,1,.28.55c-.52,1.33-1.06,2.65-1.63,4C53.53,88,53.31,88.05,53.19,88.12Z"/><path class="cls-12" d="M57.89,46.53c-1-.2-2-.36-2.91-.6-.35-.09-.9-.18-.72-.75s.61-.39,1-.3c.9.19,1.81.32,2.7.55.4.09,1.05.12.88.78C58.74,46.7,58.27,46.66,57.89,46.53Z"/><path class="cls-13" d="M62.4,100.64c-.57,0-1.14,0-1.71,0-.39,0-.7-.17-.67-.58s.41-.48.76-.47c1,0,1.94.06,2.91.12.37,0,.91,0,.92.53,0,.7-.57.56-1,.55l-1.2-.08Z"/><path class="cls-14" d="M33.29,54.71A10.86,10.86,0,0,1,31,58.12c-.58,0-.76-.36-.5-.79a30.67,30.67,0,0,1,1.95-2.86C32.72,54.1,33.16,54.16,33.29,54.71Z"/><path class="cls-15" d="M58.06,28.37a1.14,1.14,0,0,1-.56.85c-.55.43-1.07.89-1.65,1.26-.38.25-.81,1-1.28.33s.29-.88.67-1.19c.62-.51,1.25-1,1.91-1.49C57.51,27.87,57.9,27.81,58.06,28.37Z"/><path class="cls-16" d="M50.82,24.87c-.26.8-.56,1.79-.9,2.77a.52.52,0,0,1-.68.35.43.43,0,0,1-.31-.54c.3-1,.62-2.08,1-3.11a.62.62,0,0,1,.54-.31C50.75,24.07,50.92,24.34,50.82,24.87Z"/><path class="cls-17" d="M59,102.85c.8.36,1.91.84,3,1.36.12.07.18.42.14.62-.08.35-.41.39-.69.27-1-.43-2-.88-3-1.34-.26-.12-.48-.33-.31-.67S58.42,102.71,59,102.85Z"/><path class="cls-18" d="M48.27,51c.14-.54.55-.62.87-.25a22.9,22.9,0,0,1,1.91,2.47c.28.42.1.8-.48.77A9.27,9.27,0,0,1,48.27,51Z"/><path class="cls-16" d="M42.19,26.57c.12.44,0,.85-.46.9s-.52-.38-.57-.71c-.12-.84-.21-1.69-.29-2.54,0-.34,0-.74.46-.74s.55.38.59.72C42,25,42.1,25.78,42.19,26.57Z"/><path class="cls-19" d="M43,58.46c0,.42,0,.71-.35.8s-.65-.14-.7-.52c-.14-1-.81-1.91-.33-3a.51.51,0,0,1,.45-.08C42.92,56.48,42.59,57.66,43,58.46Z"/><path class="cls-20" d="M33.14,33.41c0,.65-.27.9-.66.74a2.79,2.79,0,0,1-1-.71c-.49-.56-1.55-.69-1.38-1.74a.38.38,0,0,1,.56-.21C31.57,32.13,32.4,32.82,33.14,33.41Z"/><path class="cls-21" d="M27.42,42.39a.55.55,0,0,1-.61.48,3.46,3.46,0,0,1-.83-.2c-.71-.23-1.67,0-2-.93,0-.09.3-.45.42-.44a6.38,6.38,0,0,1,2.93.78C27.38,42.13,27.38,42.28,27.42,42.39Z"/><path class="cls-22" d="M58.57,38.37c-.49.05-1,0-1-.51.06-.83.88-.56,1.37-.74s.94,0,.89.49C59.8,38.36,59,38.25,58.57,38.37Z"/><path class="cls-12" d="M27.78,49.56c-.29.63-.94.68-1.55.71-.28,0-.62-.16-.5-.51.26-.71,1-.66,1.57-.81C27.62,48.87,27.78,49.17,27.78,49.56Z"/><path class="cls-23" d="M144.6,71.58c-.07,1.22-1,1.66-1.93,1.94-2.33.66-4.73,1.11-7,1.87-6.3,2.09-12.67,4-18.87,6.36-3.92,1.51-4.15,1.35-5.68-2.59-1.19-3.06-2.35-6.13-3.62-9.15a2.37,2.37,0,0,1,1.09-3.37,12.16,12.16,0,0,1,3-1.37c6.88-1.72,13.23-4.77,19.7-7.55,1.49-.64,3-1.29,4.5-1.8,1.93-.63,3-.21,3.67,1.53,1.73,4.4,3.36,8.84,5,13.27A4.83,4.83,0,0,1,144.6,71.58Z"/><path class="cls-23" d="M97.63,85.74c-.63-.52-.95-.16-1.2.42l-12.7,4.1c-3.32,1.07-3.85.83-5.11-2.31-.3-.75-.6-1.51-.88-2.26-1-2.77-.58-3.94,2.26-4.89,4.83-1.61,9.46-3.72,14.19-5.59,3.5-1.38,7-2.76,10.42-4.3,1.45-.65,2-.37,2.45,1.08.94,2.78,2,5.52,3.19,8.22.47,1.12.19,1.45-.9,1.78C105.43,83.18,101.53,84.48,97.63,85.74Z"/><path class="cls-3" d="M190.9,29c-.17,11.64-10.43,17.92-19.41,15.65A8.83,8.83,0,0,1,168.12,43a.71.71,0,0,1-.35-.73c.09-.35.4-.33.68-.39,7.41-1.48,12-6.11,12.75-13.22a12.92,12.92,0,0,0-5-12.11c-.38-.31-1.12-.51-.94-1.09s1-.41,1.52-.4C185.76,15.1,190.9,20.22,190.9,29Z"/><path class="cls-3" d="M200.71,63c-.54-.06-.72-.44-1-.76-1-1.43-2-2.82-3-4.28a1.25,1.25,0,0,0-2-.44c-1.37.86-2.77,1.66-4.18,2.45-.42.24-.87.82-1.38.36s0-.95.26-1.37a37.05,37.05,0,0,1,1.91-3.29c.62-.9.42-1.41-.47-1.9s-1.65-1.07-2.47-1.61c-.29-.19-.62-.39-.57-.79s.47-.47.8-.55c1.56-.4,3.12-.86,4.71-1.13A4.37,4.37,0,0,0,196.13,48c1.19-1.42,2.47-2.75,3.73-4.11.26-.29.5-.72,1-.52s.36.67.38,1.06c.07,1.22.16,2.43.19,3.64,0,.77.3,1,1.07.84,1.48-.25,3-.38,4.47-.57.49-.06,1.12-.39,1.38.24s-.44.87-.8,1.19c-1.87,1.63-3.73,3.28-5.67,4.83a2.12,2.12,0,0,0-1,2c.15,1.73.18,3.47.26,5.2C201.17,62.3,201.21,62.77,200.71,63Z"/><path class="cls-23" d="M57.61,97.47c-2-.07-2.2-1.68-2.69-3s.28-1.88,1.38-2.33q9.3-3.78,18.58-7.64c.78-.33,1.13-.21,1.4.58.53,1.51,1.11,3,1.72,4.51.27.68.2,1.07-.55,1.3-6.19,1.88-12.3,4-18.36,6.26A10,10,0,0,1,57.61,97.47Z"/><path class="cls-3" d="M148.63,42.8l-1.13.51-4.75,2.1c-.46.19-1,.64-1.42.12s.14-.84.37-1.22c.66-1.08,1.91-2.19,1.84-3.22s-1.85-1.25-2.87-1.86c-.75-.45-.69-.84.08-1.18a3,3,0,0,1,.66-.23c3.24-.6,6-2,7.66-5,.21-.38.5-.88,1.07-.7s.39.78.47,1.19c.58,2.71.56,2.71,3.45,2.4.35,0,.7-.07,1-.08s.73-.11.88.33-.14.64-.44.85c-1.09.75-2.17,1.54-3.3,2.22-.72.44-.79.87-.37,1.54.69,1.13,1.35,2.29,2,3.45.15.28.43.59.15.94s-.73.16-1.07,0c-1.08-.55-2.15-1.13-3.22-1.68C149.37,43.11,149,43,148.63,42.8Z"/><path class="cls-24" d="M168.63,74.57c-.66-.09-.82-.65-1.11-1-1.89-2.58-1.88-2.57-4.66-1-.45.25-.93,1-1.49.35s.17-1,.37-1.39a4.54,4.54,0,0,1,.6-1c.61-.8.6-1.36-.39-1.88-.55-.3-1.52-.52-1.34-1.36s1.18-.71,1.78-.74c2.45-.12,3.72-1.83,5.14-3.43.32-.36.59-1,1.19-.84s.5,1,.46,1.51c-.14,1.59.37,2.25,2,1.68a5.65,5.65,0,0,1,1.37-.16c.33,0,.73-.15.91.27s-.12.65-.37.88a12.42,12.42,0,0,1-1.83,1.59,4.34,4.34,0,0,0-2.22,5.2C169.18,73.59,169.37,74.28,168.63,74.57Z"/><path class="cls-2" d="M149.13,64.25a7.63,7.63,0,0,1-1.48,4.52c-.52.77-1,.77-1.34-.12-1.43-3.84-2.89-7.66-4.22-11.54-.47-1.37.61-1,1.3-.83A8.06,8.06,0,0,1,149.13,64.25Z"/><path class="cls-25" d="M9.88,104c-1.72-2.47.23-5.61,2.72-6.49a11.57,11.57,0,0,1,5.66-.42c.47.07,1.14.35,1.4-.25s-.34-1.09-.82-1.34c-.87-.46-1.81-.74-2.71-1.14-.64-.28-1.32-.59-1.32-1.43a1.71,1.71,0,0,1,1.25-1.53,8.37,8.37,0,0,1,6.74.19c.45.19,1,.74,1.38.16s-.2-1.1-.65-1.44c-.73-.56-1.54-1-2.3-1.54a1.62,1.62,0,0,1-.87-1.58c.1-.81.71-1.17,1.38-1.4,3.31-1.13,9.56,2.29,10.38,5.62.15.57-.13.71-.5.91C24.53,96.27,20.55,102.65,17.88,110a1.84,1.84,0,0,1-2.3,1.4,5.66,5.66,0,0,1-5-4.15c-.2-.85-.17-1.22.88-.89a4.19,4.19,0,0,0,3.81-.57,2.27,2.27,0,0,0,1.06-2.55,2.22,2.22,0,0,0-2.24-1.58C12.24,101.51,11.06,102.61,9.88,104Z"/><path class="cls-2" d="M39.9,132.43a24.25,24.25,0,0,1-4.26-7.06c-1.31-3.29.17-5.49,3.7-5.58,2.54-.07,5.08-.06,7.62,0a2.51,2.51,0,0,0,2.41-.94c.74-1,2.22-.93,3.06-1.85h0c3.84,1,5.12,4.29,2.85,7.21a3.64,3.64,0,0,1-1.81,1.28c-1.33.41-1.82.11-1.87-1.25a3.56,3.56,0,0,0-1.29-2.89,4.18,4.18,0,0,1,.75,4.34,42.62,42.62,0,0,1-2.93,7.41c-1.71,3.25-4.08,3.54-6.59.89A7.73,7.73,0,0,0,39.9,132.43Z"/><path class="cls-26" d="M52.16,100.32a6.33,6.33,0,0,1-6.22,6.19,6.46,6.46,0,0,1-6.21-6.26,6.22,6.22,0,0,1,12.43.07Z"/><path class="cls-27" d="M39.9,132.43c.6-.32,1,0,1.34.44a17.23,17.23,0,0,0,1.3,1.4c1.83,1.67,3.52,1.56,4.74-.56a33.32,33.32,0,0,0,3.58-9.16,2.77,2.77,0,0,0-1.08-3.08c-.32-.22-.84-.46-.53-.91s.83-.12,1.19.14A3.67,3.67,0,0,1,52,124.17c-.14,1.37.41,1.32,1.36.92A4,4,0,0,0,56,121.32a3.32,3.32,0,0,0-2.41-3.58,2,2,0,0,1-1.11-.76c1.84-.72,4.21.92,4.51,3.19a18.81,18.81,0,0,1,0,2.6c-1,2-2.35,3.56-4.81,3.66-.69,0-.72.65-.91,1.11-.78,1.86-1.49,3.74-2.32,5.58s-2,3.3-4.22,3.31C43,136.43,40.6,134.38,39.9,132.43Z"/><path class="cls-28" d="M42,111.07c.8.71,1.27-.07,1.81-.53.92-.79,1.83-1.59,2.74-2.39.63-.55,1.33-1.2,2.07-.33s-.15,1.44-.72,2c-.81.74-1.66,1.43-2.48,2.16-.63.58-1.67,1-.91,2.2.21.33,0,.8-.45,1a1,1,0,0,1-1.27-.19c-.66-.73-1.29-1.48-1.9-2.25a1,1,0,0,1-.05-1.29A1.09,1.09,0,0,1,42,111.07Z"/><path class="cls-29" d="M36.84,107.44c-2.17.7-3.92,1.29-5.67,1.83-.41.13-1,.4-1.19-.21s.47-.67.9-.81c2-.67,4.06-1.35,6.1-2,.4-.12.88-.48,1.27,0s0,.78-.19,1.12q-2,4-4.11,8c-.19.37-.33,1-1,.7s-.15-.84,0-1.22C34.23,112.52,35.45,110.16,36.84,107.44Z"/><path class="cls-30" d="M12.87,105.52c-.84,0-1.7,0-1.92-.7s.55-1,1-1.46l.13-.1a2.64,2.64,0,0,1,2.75-.33.87.87,0,0,1,.39,1.19A2.42,2.42,0,0,1,12.87,105.52Z"/><path class="cls-25" d="M35.26,189.7a28.18,28.18,0,0,1-12.69,11.91,7.84,7.84,0,0,1-6.22.53,4.4,4.4,0,0,1-2.29-1.78c-1-1.68-.76-2.23,1.15-2.38a9.38,9.38,0,0,0,6.43-3,2,2,0,0,0,.57-2.5,1.85,1.85,0,0,0-2.45-.68c-2.61.81-5.2,1.74-6.66,4.32a.93.93,0,0,1-1.4.45A4,4,0,0,1,9,193.81a3.17,3.17,0,0,1,1.53-3.27,11.82,11.82,0,0,1,6.62-2.73,18.48,18.48,0,0,0,3.55-.72c.37-.09.86-.26.77-.78s-.6-.47-1-.41c-1.25.19-2.52.33-3.75.63a6.87,6.87,0,0,1-4.86-.72c-1.94-1-2.09-3-.37-4.33a6.64,6.64,0,0,1,3.56-1.23,48.86,48.86,0,0,0,7.2-1.07A34.63,34.63,0,0,0,35.26,189.7Z"/><path class="cls-31" d="M93.49,184.74c0,.64-.61.77-1,1s-.74,0-.7-.44c.05-.61.63-.74,1.11-.89A.45.45,0,0,1,93.49,184.74Z"/><path class="cls-25" d="M13.32,137a102.37,102.37,0,0,0,1.32,21.93c-3-1.32-5.7-2.54-7.6-4.88-2.44-3-2.12-6.32-.62-9.62C7.83,141.31,10.3,139.17,13.32,137Z"/><path class="cls-32" d="M15.57,163.49l.95,3.16c.08.27.2.62-.12.75a1.14,1.14,0,0,1-.82-.1C14.35,166.72,14.3,165.7,15.57,163.49Z"/><path class="cls-33" d="M15.43,168.59c1.14-.21,2-.36,1.93,1.06C16.59,169.7,16.12,169.26,15.43,168.59Z"/><path class="cls-34" d="M18.21,171.5c-1.22.2-1.85-.44-2.74-1.29C16.57,170.56,17.5,170.52,18.21,171.5Z"/><path class="cls-35" d="M13.74,197c1.63-2.53,3.9-3.45,6.27-4.19.41-.13,1-.26,1.25.25s-.07.91-.39,1.23A9.08,9.08,0,0,1,13.74,197Z"/><path class="cls-36" d="M122.65,74.94l1.08-6.12c.06-.31.25-.54.58-.51a.48.48,0,0,1,.44.61c-.36,2.22-.73,4.43-1.13,6.64a.62.62,0,0,1-.51.33C122.54,75.81,122.67,75.33,122.65,74.94Z"/><path class="cls-36" d="M128.9,71.82c.26-1.22.52-2.52.84-3.81.08-.35.16-.89.75-.7.42.14.37.51.29.87-.28,1.29-.55,2.59-.83,3.89-.09.42-.22.85-.76.7S128.9,72.23,128.9,71.82Z"/><path class="cls-37" d="M119.2,73.62c-.23.89-.46,1.84-.73,2.77-.08.29-.29.51-.63.39a.54.54,0,0,1-.36-.69c.22-1,.45-1.89.7-2.83a.49.49,0,0,1,.65-.39C119.19,73,119.16,73.29,119.2,73.62Z"/><path class="cls-38" d="M92.14,85.25c-.35,0-.54-.15-.56-.39a2.13,2.13,0,0,1,.1-.83c.34-1,.28-2.07,1.13-2.79.18-.16.53.07.53.27a9.9,9.9,0,0,1-.9,3.45C92.39,85.09,92.21,85.18,92.14,85.25Z"/><path class="cls-39" d="M87.24,86.23c.25-1,.44-1.67.62-2.4.1-.37.27-.67.69-.6s.44.5.37.82c-.17.78-.39,1.56-.61,2.33-.09.34-.22.74-.66.62A.57.57,0,0,1,87.24,86.23Z"/><path class="cls-37" d="M66.87,90.91c-.57.87-.32,2.13-1.48,2.56-.22.08-.53-.32-.4-.61.42-.89.32-2.09,1.34-2.59C66.72,90.08,66.78,90.62,66.87,90.91Z"/><path class="cls-40" d="M62.71,92.87c-.42.65-.18,1.81-1.25,2.17-.33.11-.48-.33-.38-.6.28-.83.17-1.9,1.21-2.29C62.49,92.07,62.76,92.43,62.71,92.87Z"/><path class="cls-41" d="M69.35,91.92c-.46-.08-.65-.37-.56-.74.15-.58,0-1.37.8-1.55.36-.09.6.35.52.71C70,90.92,70,91.62,69.35,91.92Z"/><path class="cls-42" d="M49.87,98.64a4.6,4.6,0,0,1-1.62-2.16.47.47,0,0,1,.51-.34,2.48,2.48,0,0,1,1.57,2.06C50.28,98.49,50.08,98.55,49.87,98.64Z"/></g></g></svg>