<svg xmlns="http://www.w3.org/2000/svg" viewBox="0 0 143.17 133.91"><defs><style>.cls-1{fill:#fea8d7;}.cls-2{fill:#fefefe;}</style></defs><g id="Capa_2" data-name="Capa 2"><g id="Capa_1-2" data-name="Capa 1"><path class="cls-1" d="M142.38,4.53a4.43,4.43,0,0,0-2.93-2.65A28.44,28.44,0,0,0,132.8.6a82.45,82.45,0,0,0-8.6-.47.54.54,0,0,1-.22,0,.44.44,0,0,1-.19-.07H111.61a.62.62,0,0,1-.42.07c-4,0-8,.09-12,.17-1.17,0-2.34,0-3.51.09-2.17.18-4.34.24-6.5.39-1.83.12-3.66.21-5.48.34l-8.76.67c-2.65.21-5.31.41-8,.66Q60.65,3,54.35,3.65c-3.61.4-7.23.79-10.84,1.24C38.4,5.52,33.3,6.21,28.21,7c-5.7.91-11.38,1.87-17,3.28a37.27,37.27,0,0,0-7.43,2.48A5.23,5.23,0,0,0,1.18,15a9.6,9.6,0,0,0-.94,3.3C.05,20.53.05,22.76,0,25c0,2.46,0,4.93.06,7.4,0,1.95.09,3.91.1,5.86,0,1.78.13,3.57.25,5.34s.26,3.55.37,5.33c.14,2.24.36,4.48.51,6.72s.35,4.28.54,6.41c.17,1.85.3,3.7.49,5.55.29,2.71.55,5.44.81,8.16s.55,5.34.81,8,.54,5.14.82,7.72c.26,2.42.51,4.85.8,7.28.32,2.73.63,5.48.95,8.22s.62,5.48,1,8.21.62,5.19.95,7.78c.39,3,.7,6.06,1.16,9.08.24,1.61.56,1.86,2.22,1.86H125.16a5.81,5.81,0,0,0,.59,0,1.45,1.45,0,0,0,1.51-1.23c.12-.42.17-.86.25-1.29,1.06-5.94,2-11.89,3-17.84.94-5.59,1.83-11.18,2.73-16.77.51-3.18,1-6.37,1.5-9.55.69-4.42,1.34-8.84,2-13.26.59-4,1.13-7.92,1.7-11.89.48-3.4.93-6.82,1.38-10.23s.86-6.73,1.25-10.1c.33-2.81.63-5.63.94-8.44s.6-5.63.79-8.45.26-5.56.26-8.35a1.52,1.52,0,0,1,.07-.79V9.25a16.57,16.57,0,0,1-.28-2.44A13.42,13.42,0,0,0,142.38,4.53ZM124.43,28.74c-.36,2.28-.53,4.6-.79,6.9s-.56,4.59-.84,6.89-.51,4.5-.77,6.75c-.32,2.74-.66,5.47-1,8.2-.27,2.32-.52,4.65-.79,7s-.53,4.55-.79,6.83-.55,4.64-.82,7-.53,4.55-.8,6.83L117,92c-.27,2.27-.53,4.54-.8,6.82s-.5,4.65-.83,7-.26,4.79-1.15,7.05a8.62,8.62,0,0,1-8.05,5.56q-18.42,0-36.83,0h0q-18.57,0-37.12,0A8.82,8.82,0,0,1,24,111.17c-.34-2.44-.41-4.91-.6-7.36s-.37-4.67-.55-7c-.12-1.61-.21-3.21-.33-4.82-.18-2.41-.37-4.81-.55-7.22-.12-1.58-.21-3.16-.33-4.74-.18-2.43-.37-4.86-.55-7.29-.12-1.56-.22-3.12-.33-4.67-.18-2.46-.37-4.91-.55-7.37-.12-1.56-.22-3.11-.33-4.67-.18-2.46-.37-4.91-.56-7.37-.11-1.53-.21-3.06-.32-4.59-.18-2.43-.31-4.87-.57-7.29-.54-5.07,2.16-9,6.5-10.25A25,25,0,0,1,29.51,26c2.13-.21,4.27-.38,6.41-.56,2-.16,3.94-.31,5.9-.48,2.14-.17,4.28-.36,6.41-.54l6-.48,6.49-.55,5.75-.48,6.49-.55c1.36-.12,2.72-.22,4.08-.33l8.38-.7c2-.17,4-.31,6-.48s4.18-.37,6.27-.55,4-.31,6-.47,4.17-.38,6.26-.55c1.92-.17,3.84-.4,5.76-.46A8.57,8.57,0,0,1,124.43,28.74Z"/><path class="cls-2" d="M143.17.55c0-.49-.15-.55-.57-.55H123.79l.19.07a.54.54,0,0,0,.22.05,82.45,82.45,0,0,1,8.6.47,28.44,28.44,0,0,1,6.65,1.28,4.43,4.43,0,0,1,2.93,2.65,13.42,13.42,0,0,1,.5,2.28,16.57,16.57,0,0,0,.28,2.44C143.16,6.35,143.14,3.45,143.17.55Z"/><path class="cls-1" d="M108.45,29.63a13.4,13.4,0,0,0-4,.07c-2.63.17-5.25.46-7.87.68-2,.17-4.09.3-6.13.47-2.62.22-5.24.48-7.87.7s-5.3.39-8,.62c-3.2.26-6.41.58-9.61.84s-6.47.5-9.7.77c-3.79.31-7.58.67-11.37,1-3,.26-6.08.43-9.11.77a6,6,0,0,0-5.23,6.51c.07,1.14.18,2.28.26,3.42.11,1.56.21,3.12.33,4.68.18,2.31.38,4.61.55,6.92S31,61.7,31.22,64c.22,3,.48,5.93.69,8.89.18,2.34.3,4.68.47,7,.27,3.62.58,7.24.85,10.87.23,3.06.38,6.13.63,9.19a23.37,23.37,0,0,0,.31,3.13,6.09,6.09,0,0,0,6.15,4.76H99.24a6,6,0,0,0,6.1-4.71,37.74,37.74,0,0,0,.54-4.12q.42-3.45.82-6.9t.8-6.9c.27-2.35.54-4.69.82-7s.53-4.55.79-6.82.53-4.6.8-6.9.55-4.5.81-6.75.52-4.65.79-7,.55-4.65.83-7,.49-4.71.85-7A6.14,6.14,0,0,0,108.45,29.63ZM86.33,85.1a22.93,22.93,0,0,1-14,7,22.17,22.17,0,0,1-17-4.43,18.26,18.26,0,0,1-7.14-12.36,19.31,19.31,0,0,1,5.18-16.17,23.22,23.22,0,0,1,15-7.68c.9-.1,1.8-.08,3-.14a21.41,21.41,0,0,1,13.86,5,18.27,18.27,0,0,1,6.8,12.17C92.88,74.94,90.77,80.43,86.33,85.1Zm14-38.71a6,6,0,0,1-5.94-6,5.1,5.1,0,0,1,5.19-5.26,6.21,6.21,0,0,1,6,6.11A5.16,5.16,0,0,1,100.36,46.39Z"/><path class="cls-1" d="M70.83,60a12.42,12.42,0,0,0-1.83.13,13.55,13.55,0,0,0-9.94,6.15,10.72,10.72,0,0,0,1.62,14A13.07,13.07,0,0,0,73,83.19C78.16,82,82.64,77.45,83,72.13A10.46,10.46,0,0,0,80.21,64,12.58,12.58,0,0,0,70.83,60Z"/></g></g></svg>