<svg xmlns="http://www.w3.org/2000/svg" xmlns:xlink="http://www.w3.org/1999/xlink" viewBox="0 0 206.91 99.13"><defs><style>.cls-1{fill:#635ba7;}.cls-2{fill:#fbb21a;}.cls-3{fill:#f27fb2;}.cls-4{fill:#f9c1b9;}.cls-5{fill:#ed9996;}.cls-6{fill:#8e4f4f;}.cls-7{fill:#111;}.cls-8{fill:#ffcc73;}.cls-9{fill:#f0678f;}.cls-10{fill:#f0593a;}.cls-11{fill:#f06952;}.cls-12{fill:#f79828;}.cls-13{font-size:16.32px;fill:#fff;font-family:Montserrat-Bold, Montserrat;font-weight:700;}.cls-14{fill:#b2aad3;}.cls-15{fill:#4fc1b2;}.cls-16{fill:url(#linear-gradient);}.cls-17{fill:url(#linear-gradient-2);}</style><linearGradient id="linear-gradient" x1="-30.49" y1="174.5" x2="-30.49" y2="196.98" gradientTransform="translate(235.22 -129.56) rotate(7.35)" gradientUnits="userSpaceOnUse"><stop offset="0" stop-color="#b2aad3"/><stop offset="0.99" stop-color="#f17fb0"/></linearGradient><linearGradient id="linear-gradient-2" x1="-60.76" y1="461.53" x2="-60.76" y2="484" gradientTransform="matrix(1, -0.03, 0.03, 1, 62.04, -442.38)" gradientUnits="userSpaceOnUse"><stop offset="0" stop-color="#f79828"/><stop offset="0.99" stop-color="#f17fb0"/></linearGradient></defs><g id="Capa_2" data-name="Capa 2"><g id="OBJECTS"><path class="cls-1" d="M15.65,99.13l4.67-15.95L6.83,76.3c1.67-.65,41.35-15.77,91.23-15.79,70.84-.9,99.54,14.87,102.58,16.68l-15.53,6,3,15.06.12.07c-.25-.14-25.85-14.14-90-13.32h-.16A257.62,257.62,0,0,0,15.65,99.13Z"/><path class="cls-2" d="M110,41.91s2.88,5.28,3.84,6.55c0,0-6.32,5.28-10.13,6.72a42.91,42.91,0,0,0,4.85,4.33,7.82,7.82,0,0,0,2.24-2.27c.75-1.33,0,4.4,0,4.4a8.94,8.94,0,0,0,5.07,3.15c3.34.74,4.52-1.63,4.52-1.63s-1.41-8.38-1.11-12.7S113.47,40.81,110,41.91Z"/><path class="cls-3" d="M113.52,45.69s-2.14,1,1.32,4,6.19,2.66,6.17.83S113.52,45.69,113.52,45.69Z"/><path class="cls-2" d="M160,33.2s-.92,5.95-1.4,7.47c0,0,7.74,2.83,11.81,2.9a43.21,43.21,0,0,1-3.09,5.71,7.66,7.66,0,0,1-2.88-1.39c-1.17-1,1.51,4.15,1.51,4.15a8.92,8.92,0,0,1-3.7,4.67c-2.9,1.83-4.81,0-4.81,0s-1.51-8.36-3.25-12.33S156.34,33.33,160,33.2Z"/><path class="cls-3" d="M157.94,37.94s2.37.25.13,4.24-4.93,4.61-5.53,2.87S157.94,37.94,157.94,37.94Z"/><path class="cls-4" d="M101.18,40.5c1,3.09,4.86,5.6,10.87,2.12l-.78-4.48A10,10,0,0,0,101.18,40.5Z"/><path class="cls-5" d="M102.27,35.67a4.41,4.41,0,0,0-1.09,4.83,10,10,0,0,1,10.09-2.36l-.54-3.09S106,32.54,102.27,35.67Z"/><path class="cls-6" d="M104.14,39c1.77-.32,3.94-1.55,5.42.13a7.35,7.35,0,0,1,1.24,3.54c0,.24.39.14.36-.09-.22-1.43-.55-3.21-1.82-4.1-1.56-1.1-3.7-.27-5.25.41-.07,0,0,.12,0,.11Z"/><path class="cls-6" d="M107.27,40.2a1.67,1.67,0,0,1,2-.26,8,8,0,0,1,1.31,1.16c.15.14.44,0,.31-.24-.89-1.25-2.51-2.26-3.76-.88-.1.11,0,.31.17.22Z"/><path class="cls-4" d="M167.78,28.89c.08,3.25-2.68,6.92-9.51,5.68l-.78-4.49A10,10,0,0,1,167.78,28.89Z"/><path class="cls-5" d="M165.12,24.71a4.4,4.4,0,0,1,2.66,4.18,10,10,0,0,0-10.29,1.19L157,27S160.54,23,165.12,24.71Z"/><path class="cls-6" d="M164.49,28.37c-1.69-.12-4.05-.15-5.11,1.46-.84,1.28-.55,3-.27,4.44,0,.24.39.13.35-.1-.18-1.29-.56-2.86.13-4.07,1-1.74,3.26-1.32,4.92-1.61a.06.06,0,0,0,0-.12Z"/><path class="cls-6" d="M162,30.41c-1.59-.87-2.87.59-3.24,2.08a.2.2,0,0,0,.36.15,9.47,9.47,0,0,1,.88-1.59,1.68,1.68,0,0,1,1.9-.39.14.14,0,0,0,.1-.25Z"/><path class="cls-4" d="M109.79,33.57s1.27,8.76,4.11,12.7,10.71,7.52,20.22,6.76,21.41-6,23.06-13.29,1.94-12.14-.11-18.89-3-9.76-9.92-11.72S102.64-2.33,109.79,33.57Z"/><path class="cls-6" d="M116.71,28.26a6.54,6.54,0,0,1,3.69-3.57c.19-.07.19-.42-.05-.39-1.66.17-3.81,2.19-3.85,3.9a.12.12,0,0,0,.21.06Z"/><path class="cls-6" d="M143.59,20c1.66.12,3.25.08,4.67,1.11.25.18.57-.23.33-.43a5.64,5.64,0,0,0-5-.94.13.13,0,0,0,0,.26Z"/><path class="cls-5" d="M127.7,42.44a4.66,4.66,0,1,1-5.34-3.51A4.52,4.52,0,0,1,127.7,42.44Z"/><path class="cls-5" d="M152.8,38.07a4.66,4.66,0,1,1-5.34-3.52A4.53,4.53,0,0,1,152.8,38.07Z"/><path class="cls-6" d="M131.94,38.07c.08,2,2.62,2.44,4.22,2.39a.18.18,0,0,0,0-.35c-1.7-.22-3.27-.28-4-2.08,0-.11-.24-.11-.23,0Z"/><path class="cls-7" d="M124,34a1.4,1.4,0,1,1-1.68-1.36A1.55,1.55,0,0,1,124,34Z"/><path class="cls-7" d="M146.16,29.55a1.41,1.41,0,1,1-1.68-1.36A1.55,1.55,0,0,1,146.16,29.55Z"/><path class="cls-6" d="M132.31,29.07a18.76,18.76,0,0,0,0,2.25,2.66,2.66,0,0,0,.33,1.71,1,1,0,0,0,1.07.37,1.62,1.62,0,0,0,.44-.34c.09-.08.32-.4.43-.41l.8.77a1.1,1.1,0,0,1-.56.7c-.25.14,0,.52.22.38a1.49,1.49,0,0,0,.75-1.7,1,1,0,0,0-1.34-.54c-.29.15-.42.49-.69.64-1,.57-1.08-.86-1.09-1.46s.29-1.87-.22-2.4c0-.05-.13,0-.13,0Z"/><path class="cls-2" d="M113.68,12.56c.16-1.17.33-2.34.5-3.51-4.62,2.68-8,7-8.82,10.93-1.41,6.85.81,14.15.81,14.15a22.32,22.32,0,0,1,3.8.6c.76.26-.94-2.44-.21-2.78,1.44-.67,2.93-1.27,4.45-1.8A38.82,38.82,0,0,1,113.68,12.56Z"/><path class="cls-8" d="M117.65,7.48a20.13,20.13,0,0,0-3.47,1.57c-.17,1.17-.34,2.34-.5,3.51a38.82,38.82,0,0,0,.53,17.59,67.33,67.33,0,0,1,6.46-1.9A53.31,53.31,0,0,1,117.65,7.48Z"/><path class="cls-2" d="M130.17,5.92S133-.36,130.78,0s-2.42,6.22-2.42,6.22-1.55-4.54-3.81-3.38,1.5,3.87,1.5,3.87a16.72,16.72,0,0,0-8.4.75,53.31,53.31,0,0,0,3,20.77,94.89,94.89,0,0,1,15.21-2.36s-1.65-8.19-.38-6.54,2.47,6.4,2.47,6.4l6.48-.91c.07-1.59-1.54-8.88-1.54-8.88,1.88,2.21,4.34,8.83,4.34,8.83.88.05,2,.08,3.18.1-2.61-7.54-7.65-14.61-12.88-21A41,41,0,0,0,130.17,5.92Z"/><path class="cls-8" d="M137.55,3.89c5.23,6.39,10.27,13.46,12.88,21,2,0,4.24,0,6,0A44.61,44.61,0,0,0,144.36,3.49,27.33,27.33,0,0,0,137.55,3.89Z"/><path class="cls-2" d="M153.8,8.89c-2-3.67-5.65-5.09-9.44-5.4a44.61,44.61,0,0,1,12.08,21.42h1.28c1.14,0-.11,1,.52,1a6.15,6.15,0,0,0,1.88-1S159.48,19.13,153.8,8.89Z"/><path class="cls-4" d="M28.67,35.78c.08,3.19,3,6.64,9.59,5.1l.55-4.43A9.82,9.82,0,0,0,28.67,35.78Z"/><path class="cls-5" d="M31.08,31.56a4.32,4.32,0,0,0-2.41,4.22,9.82,9.82,0,0,1,10.14.67l.37-3.05S35.47,29.7,31.08,31.56Z"/><path class="cls-6" d="M31.85,35.23c1.64.22,3.88-.32,4.92,1.38.71,1.16.4,2.71.29,4,0,.21.33.26.36,0,.22-1.4.41-3.18-.51-4.39-1.14-1.48-3.4-1.34-5-1.14-.06,0-.09.11,0,.12Z"/><path class="cls-6" d="M34.48,37.24a1.64,1.64,0,0,1,1.87.28A8.07,8.07,0,0,1,37.28,39a.2.2,0,0,0,.36-.15c-.42-1.45-1.75-2.83-3.27-1.9-.13.09,0,.31.11.26Z"/><path class="cls-4" d="M94.44,43.92C93.58,47,90,49.64,83.9,46.53l.55-4.43A9.81,9.81,0,0,1,94.44,43.92Z"/><path class="cls-5" d="M93.14,39.24a4.34,4.34,0,0,1,1.3,4.68,9.81,9.81,0,0,0-10-1.82l.37-3.05S89.33,36.36,93.14,39.24Z"/><path class="cls-6" d="M91.5,42.49c-1.53-.59-3.64-1.27-5.12-.16-1.23.93-1.47,2.73-1.61,4.16,0,.21.33.26.36,0,.19-1.27.28-2.86,1.26-3.81,1.44-1.37,3.45-.32,5.1-.12.07,0,.07-.1,0-.12Z"/><path class="cls-6" d="M88.62,43.7c-1.28-1.29-2.83-.25-3.63,1-.12.19.15.39.31.24a8.07,8.07,0,0,1,1.21-1.2,1.66,1.66,0,0,1,1.94.14.14.14,0,0,0,.17-.21Z"/><path class="cls-4" d="M38.72,31.74s-1.31,8.57.23,13.09,7.89,10.11,17,12.1,21.8.48,25.42-5.86,5.29-10.83,5.29-17.75,0-10-6-13.82S42.27-4,38.72,31.74Z"/><path class="cls-7" d="M51.83,36.57a1.4,1.4,0,1,1-1.17-1.81A1.53,1.53,0,0,1,51.83,36.57Z"/><path class="cls-7" d="M74.27,39.35a1.4,1.4,0,1,1-1.17-1.82A1.54,1.54,0,0,1,74.27,39.35Z"/><path class="cls-6" d="M61.26,34.56c-.26.58-.4,1.27-.62,1.88a3.33,3.33,0,0,0-.34,1.85,1.07,1.07,0,0,0,.74.81A1.23,1.23,0,0,0,61.5,39c.1,0,.26-.17.36-.17.26-.22.43-.07.48.44.51.46.41.74-.29.83a.22.22,0,0,0,.11.43,1.5,1.5,0,0,0,1.23-1.38,1,1,0,0,0-1.09-.93c-.28,0-.47.26-.73.32-1.19.28-1-.85-.76-1.51s.9-1.76.6-2.48a.08.08,0,0,0-.15,0Z"/><path class="cls-7" d="M64.64,45.84c.16-1.27-.58-1.15-.8-.94-1.38,1.31-3.76,1.2-4.22-.93,0,0-1.08-1.52-1.68-.32A4.27,4.27,0,0,0,57.56,45a30.5,30.5,0,0,1,5.18,3.7A3.64,3.64,0,0,0,64.64,45.84Z"/><path class="cls-9" d="M59.64,48.53a4,4,0,0,0,3.1.15A30.5,30.5,0,0,0,57.56,45,3.17,3.17,0,0,0,59.64,48.53Z"/><path class="cls-6" d="M45.82,29.44a6.34,6.34,0,0,1,4.48-2.28c.21,0,.29-.35.05-.38-1.62-.27-4.17.93-4.71,2.56a.11.11,0,0,0,.18.1Z"/><path class="cls-6" d="M73.38,29.39c1.5.57,3,1,4,2.33.2.26.65,0,.46-.27a5.56,5.56,0,0,0-4.45-2.31.13.13,0,0,0,0,.25Z"/><path class="cls-5" d="M53,45.18a4.57,4.57,0,1,1-4-4.82A4.43,4.43,0,0,1,53,45.18Z"/><path class="cls-5" d="M77.77,48.24a4.57,4.57,0,1,1-4-4.82A4.45,4.45,0,0,1,77.77,48.24Z"/><path class="cls-10" d="M88.6,20.84c-1.91,3.46-5.38,1.55-7.39-.18-.55-1.55-2.65-2.55-2.38-4.73-.45,3.64-3.27,8.48-6.74,6.57-2-1.73-3.11-4.83-5-7.29-3.91,13.59-17.33,2.3-23.45-2.16-3.18,5.77-4,12.86-8,18.45a11.54,11.54,0,0,1,3.53,1.9c5-.36,6.29-17.28,6.29-17.28s9.83,8.38,15.24,9.54,6.93-4.08,6.93-4.08,1.73,3.92,5.7,4.78,4.27-3.55,4.27-3.55c4.1,6.81,6.89,3.2,6.89,3.2s-1.4,11.31,2.4,12.21,4.32-3,4.32-3a1.77,1.77,0,0,0,1.11.16C89.15,32.29,88.6,26.23,88.6,20.84Z"/><path class="cls-11" d="M94.51,33.92c4.08-5.49-.19-7.43-.19-7.43,1.22-6.89-4.89-7.4-4.89-7.4-.87-10.24-15.18-9-15.18-9S76.66,5.53,67,4s-21.59,5-21.59,5,2.46-5.87-.55-6.49-2.18,7-2.18,7-3-6.05-5.26-2.87,3.17,7.18,3.17,7.18c-2.5.8-1.71-.86-4.16.6-4.51,3.27-2.15,9.24-2.15,9.24-4.15,3.2-.92,7.43-.92,7.43a8.92,8.92,0,0,1,2.32.45c4-5.59,4.79-12.68,8-18.45,6.12,4.46,19.54,15.75,23.45,2.16,1.91,2.46,3,5.56,5,7.29,3.47,1.91,6.29-2.93,6.74-6.57-.27,2.18,1.83,3.18,2.38,4.73,2,1.73,5.48,3.64,7.39.18,0,5.39.55,11.45,3.73,14.55A4.17,4.17,0,0,0,94.51,33.92Z"/><path class="cls-12" d="M51.81,13.51c.29,2,2.84,6.28,5.34,4.56a3.18,3.18,0,0,0,.9-2.3A6.82,6.82,0,0,0,58,13.91c-.21-1.25-.64-.58.09.26,1.48,1.71,4.73,3.48,6,.53,1-2.27.13-6.5-1.66-8.18a.26.26,0,0,0-.36.37c1.43,1.46,1.78,3.86,1.83,5.81s-1.18,3.76-3.44,2.82a5.64,5.64,0,0,1-2.72-2.85c-.11-.23-.48-.06-.41.18a7.78,7.78,0,0,1,.22,3.71c-.41,2.19-2.54,1.19-3.56.26a6.86,6.86,0,0,1-1.8-3.4c-.05-.22-.35-.12-.32.09Z"/><path class="cls-12" d="M82.51,17.88c.29,2.21.62,6,3.08,6.84s3.75-3.07,4-4.72c0-.26-.31-.45-.46-.19-.77,1.42-1,4.89-3.39,4.4s-2.17-4.66-2.9-6.38c-.06-.14-.34-.14-.31.05Z"/><path class="cls-12" d="M35.55,26c.93,1.44,3,4.1,4.7,2.08,1.29-1.51,1-4.43.63-6.21-.06-.28-.48-.16-.42.12a10.81,10.81,0,0,1,0,4.6c-.23,1-.89,2-2.06,1.72s-1.91-1.68-2.47-2.54c-.15-.23-.53,0-.37.23Z"/><text class="cls-13" transform="translate(29.99 89.01) rotate(-14.72)">L</text><text class="cls-13" transform="translate(39.45 86.56) rotate(-13.02)">I</text><text class="cls-13" transform="translate(44.54 85.32) rotate(-11.19)">B</text><text class="cls-13" transform="matrix(0.99, -0.15, 0.15, 0.99, 56.69, 82.92)">R</text><text class="cls-13" transform="translate(68.43 81.13) rotate(-6.41)">E</text><text class="cls-13" transform="translate(79.21 79.9) rotate(-4.02)">R</text><text class="cls-13" transform="translate(91.08 79.12) rotate(-2.13)">Í</text><text class="cls-13" transform="translate(96.34 78.86) rotate(-0.1)">A</text><text class="cls-13" transform="matrix(1, 0.03, -0.03, 1, 108.75, 78.92)"> </text><text class="cls-13" transform="translate(113.34 79.01) rotate(2.15)">L</text><text class="cls-13" transform="translate(123.13 79.4) rotate(3.21)">I</text><text class="cls-13" transform="translate(128.39 79.65) rotate(4.55)">B</text><text class="cls-13" transform="matrix(0.99, 0.11, -0.11, 0.99, 140.75, 80.63)">R</text><text class="cls-13" transform="translate(152.58 82) rotate(8.8)">E</text><path class="cls-14" d="M27.57,53.25l-.07-8.2-5.77,5.66-8.2.07,5.66,5.77.06,8.2L25,59.09l8.2-.06Z"/><path class="cls-15" d="M185.17,24.44l-.93-8.15-5.15,6.24-8.15.92,6.24,5.15.92,8.15,5.16-6.24,8.14-.92Z"/><path class="cls-16" d="M177.5,46.51s2-7.33,3.84-7.07,4,6,4,6,7.38,1.05,7.61,2.85-5.17,4.53-5.17,4.53,3.72,7.2,2.33,8.15-8.09-3.74-8.09-3.74-6,4.63-7.88,3.92C173,60.71,176,53.3,176,53.3s-6.45-3-5.9-4.75S177.5,46.51,177.5,46.51Z"/><path class="cls-17" d="M10.87,28.37s.81-7.55,2.67-7.58,4.93,5.29,4.93,5.29,7.45-.13,8,1.61S22,33,22,33s4.8,6.53,3.58,7.69S17,38.24,17,38.24s-5.17,5.51-7.16,5.11c-1.22-.25.53-8,.53-8s-6.85-2-6.58-3.76S10.87,28.37,10.87,28.37Z"/><path class="cls-9" d="M203.7,39.15a4.35,4.35,0,1,1-1-6.07A4.34,4.34,0,0,1,203.7,39.15Z"/><path class="cls-15" d="M5.28,47.87a2.71,2.71,0,1,1-3.42-1.73A2.72,2.72,0,0,1,5.28,47.87Z"/></g></g></svg>