<svg xmlns="http://www.w3.org/2000/svg" viewBox="0 0 564.77 1418.65"><defs><style>.cls-1{fill:#0ed1b0;opacity:0.8;}.cls-2{fill:#8d8d8d;}.cls-3{fill:#163847;}.cls-4{fill:#f2b919;}.cls-5{fill:#52b6c9;}.cls-6{fill:#fdfdfd;}.cls-7{fill:#e66462;}.cls-8{fill:#fcfdfd;}.cls-9{fill:#fbfcfc;}.cls-10{fill:#213f4d;}.cls-11{fill:#fcfcfc;}</style></defs><g id="Capa_2" data-name="Capa 2"><g id="Capa_1-2" data-name="Capa 1"><path class="cls-1" d="M563.5,1064.46a23.77,23.77,0,0,0,1.27-7.85c0-2.09-.44-3.13-1.48-3.76-.8-.49-1.21-.36-1.28.42A15.17,15.17,0,0,1,561,1057a9.11,9.11,0,0,1-3,3.65c-.37.22-1.28.85-2,1.38a8.15,8.15,0,0,1-2,1.13,2.75,2.75,0,0,0-.87.39,4.7,4.7,0,0,1-1.39.5c-.62.14-2,.54-3.18.89-2.87.87-9.15,1.24-11,.64a37.62,37.62,0,0,1-7.15-3.11,54.62,54.62,0,0,1-10-8.73c-.8-1-1.68-2-2-2.27a5.76,5.76,0,0,1-.94-1.69c-.24-.64-.73-1.8-1.09-2.56a20.34,20.34,0,0,1-1.39-8.08,11,11,0,0,1,1.12-5.86,33.83,33.83,0,0,1,5.4-9.32c.56-.71,1.66-2.14,2.46-3.19,1.78-2.33,3.4-4.12,3.71-4.07s3.25-3.14,3.19-3.55a2.72,2.72,0,0,0-.85-1c-1.35-1.17-1.71-1.14-8.9.89a97.11,97.11,0,0,0-9.24,3c-7.62,3.17-9.67,4.5-13.77,8.92a18.93,18.93,0,0,1-2.76,2.69h0c-.19-.17-2.16,2.39-3.92,5.09-3.08,4.74-4.42,8-4.39,10.54a29,29,0,0,1-.29,3.27,51.36,51.36,0,0,0,1,14.68c1.86,7.21,5.46,12.43,14,20.26,3.66,3.36,5.31,4.56,7.77,5.69a62.1,62.1,0,0,0,10.92,3.62c3,.54,7.81.34,14.24-.56,1-.14,2.27-.3,2.83-.36a13.68,13.68,0,0,0,4.56-1.13,25.44,25.44,0,0,0,6.76-3.33,36.19,36.19,0,0,0,7.38-6,23.28,23.28,0,0,0,6.18-10.55C562.5,1068.1,563,1066.13,563.5,1064.46Z"/><path class="cls-2" d="M303.8,1067.81a1.86,1.86,0,0,1-.85-.51c-.36-.46-3.63-1.61-6.27-2.21l-2.1-.47,2-1.86a9.36,9.36,0,0,0,1.86-2c-.06-.1,0-.4.18-.67.4-.71-.19-1.34-.84-.89a1,1,0,0,1-.77.18c-.17-.07-.31,0-.31.14s-.2.26-.44.26a7.35,7.35,0,0,0-3.58,1.8l-1.1,1-.57-.93a23,23,0,0,1-1.09-2,28.14,28.14,0,0,0-1.52-2.65,10.91,10.91,0,0,1-1-1.75,2.08,2.08,0,0,0-.56-.75,4.33,4.33,0,0,1-.83-1.28c-.31-.82-.36-.84-.87-.37s-.65,2-.2,3.38c.22.67.57,1.83.78,2.57a17.68,17.68,0,0,0,1,2.63c.86,1.68.83,1.82-.27,1.61a13.59,13.59,0,0,0-3.15.14c-1.23.17-2.52.3-2.86.29a2.14,2.14,0,0,0-1.24.57,2.29,2.29,0,0,1-.85.58c-.13,0-.24.13-.26.29s-.07.49-.12.72,0,.43.34.44a.65.65,0,0,1,.56.38c.08.24.46.38,1,.4a27.29,27.29,0,0,1,5.76,1.73,6.11,6.11,0,0,1-.69,1.84c-.76,1.56-1.53,4.83-1.26,5.31s1.12.12,2.11-1c.6-.67,1.79-1.91,2.65-2.76l1.56-1.53.46.62a20.79,20.79,0,0,1,1.16,2,26.61,26.61,0,0,0,2.38,4.18c1.37,1.61,2.07-1.86,1.17-5.84a5.76,5.76,0,0,1-.2-1.34,16.78,16.78,0,0,1,2.33.23,18.93,18.93,0,0,0,5.83.13c.4-.17.55-.56.48-1.28a.5.5,0,0,1,.35-.44C304.56,1068.34,304.47,1068,303.8,1067.81Z"/><path class="cls-2" d="M109.6,1009.1c.22.82.7,1,4.27,1.81,1.4.3,4,1.06,5.88,1.68,3,1,4.45,1.39,5.16,1.32a3,3,0,0,1,.64,0c.22,0,.74.08,1.17.11,1.67.11,1.78-.24.29-1-5.4-2.61-12.48-4.94-16-5.25C109.86,1007.74,109.37,1008.17,109.6,1009.1Z"/><path class="cls-2" d="M100,1023.75c-.17.62-.1,1,.49,2.28.38.86,1.32,3,2.09,4.82a19.21,19.21,0,0,0,1.78,3.53c.34.23.42.21.6-.19a3.54,3.54,0,0,0,.15-1.32,57,57,0,0,0-3.49-9.3C101,1022.62,100.27,1022.7,100,1023.75Z"/><path class="cls-2" d="M80,1020.63c-.87.53-3.76,5.31-5,8.3-1.12,2.69-1.61,5.37-1,5.66s1-.32,1.89-2.6c.32-.8,1.51-3.1,2.64-5.12s2.19-4,2.35-4.32C81.35,1021.4,80.81,1020.15,80,1020.63Z"/><path class="cls-2" d="M60.61,999.9c.13-.07.22,0,.22.1s.48.3,1.09.42c1.82.35,9.17,1.09,10.33,1.05h0c1.3-.06,1.55-.16,1.68-.71.17-.74-.88-1.45-2.38-1.62-3.14-.36-7.89-.7-10.75-.77-2.32-.06-3,0-3.08.29a1.43,1.43,0,0,0,0,.5A8.38,8.38,0,0,0,60.61,999.9Z"/><path class="cls-2" d="M83.39,984.06c1.13,1.6,1.75,2.33,2,2.38s.47-.07.6-.39c.33-.82-2.36-5-6.33-9.9-3.24-4-3.79-4.44-3.63-3.14.13,1,1.33,3,3.62,6C80.83,980.53,82.5,982.8,83.39,984.06Z"/><path class="cls-2" d="M107.36,979.88c-2.27,2.26-4.14,4.76-4.4,5.9s-.09,2.16.45,2.46h0c.48.27,1-.18,1.72-1.54a24.37,24.37,0,0,1,2.05-2.83,20.71,20.71,0,0,0,2.94-4.18,7.25,7.25,0,0,1,.78-1.32,4.77,4.77,0,0,0,.75-1.74,2.63,2.63,0,0,1,.37-1.11.78.78,0,0,0-.1-1.21c-.23-.17-.45-.14-.57.07s-.12.34.21.31.22.07-.18.31-.54.44-.5.56-.21.54-.58.94a10.36,10.36,0,0,0-.86,1.07A12.69,12.69,0,0,1,107.36,979.88Z"/><path class="cls-1" d="M512.28,146.85c14.72-4.09,21.93-8.79,29.46-19.18a98.94,98.94,0,0,0,7.36-14.58c6-16.52,5.29-38.13-1.64-49.15-6.26-10-13.65-17.73-20.63-21.69-4.83-2.74-8.34-3.49-16.67-3.56-12.4-.11-21.18,1.1-28.1,3.88-2.85,1.14-5.35,2.08-5.57,2.08a51.7,51.7,0,0,0-5.26,2.82c-7.19,4.15-11.59,8.69-15,15.46a69.84,69.84,0,0,1-4.55,7.86c-4.1,5.51-7.09,15.68-7.56,25.74-.34,7.43.93,12.51,5.76,22.9,3.2,6.89,5.24,9.54,10.92,14.16,2.49,2,4.94,4.08,5.44,4.57,1,.92,1.4,1.05,3.22.89a10.32,10.32,0,0,1,3.86,1.42c4.74,2.59,13.65,5.6,20.86,7.05h0A43.53,43.53,0,0,0,512.28,146.85ZM510.79,45.58c1,.25,1,.34.29,2-.42,1-.88,1.72-1,1.71-.55,0-4.09-3.05-4.1-3.49S509.12,45.15,510.79,45.58Zm-30.52,3.35c0-.11.34-.33.75-.5s.76-.07.76.19-.34.49-.75.5S480.27,49,480.27,48.93Zm18.93.51c-2.12-2.11-2.09-2.17,1.33-2.78,1.66-.29,1.85-.22,1.57.57a6.74,6.74,0,0,1-.79,1.54,2.1,2.1,0,0,0-.21,1.63h0a2.61,2.61,0,0,1,.18,1C501.22,51.4,500.29,50.52,499.2,49.44Zm45.73,56.21a9.61,9.61,0,0,1-.58,2.3c-.32.92-.79,1.67-1,1.67s-.3-.39-.1-.87a14.22,14.22,0,0,0,.6-2C544.07,105.48,544.92,104.66,544.93,105.65Zm-14.34-3.34c-2.17-2.14-2.76-3-2.21-3.2.76-.3,1.9.75,4.62,4.23C535.18,106.13,533.94,105.6,530.59,102.31Zm16-20.6c.2.2.39,4.12.42,8.72,0,5.74-.18,9.16-.66,10.87-1,3.58-1.55,1.71-.74-2.59.36-1.88.77-5,.91-7,.24-3.26.13-3.82-1.22-6.42l-1.48-2.84,1.2-.56C545.64,81.59,546.35,81.5,546.56,81.71ZM460.43,66.48c-.43-.26-.25-.79.64-1.86,1.22-1.47,1.24-1.47.93-.25C461.49,66.33,461.09,66.88,460.43,66.48Zm62.72.62c1.65-.92,2.24-.84,2.72.38a21.86,21.86,0,0,0,2,3.35c.79,1.15,1.61,2.36,1.82,2.71h0c.7,1.16,0,.63-3.44-2.79C524.29,68.87,522.92,67.23,523.15,67.1Zm-55.37,6.45q-2.91-3.27-2.92-4.59c0-1.65.24-1.36,3.51,3.74a40.26,40.26,0,0,1,2.47,4.11A38.86,38.86,0,0,1,467.78,73.55ZM456,85.7c-1.23-1.21-2.14-2.31-2-2.43s1.23.76,2.45,2,2.14,2.31,2,2.43A8.27,8.27,0,0,1,456,85.7Zm44.57-3.12c-.68-.91-2.15-2.6-3.25-3.75-1.78-1.84-3.68-4.69-3.69-5.51s2.69,1.64,3.45,3.24c.49,1,4.47,5.55,8.84,10s8.93,9.15,10.14,10.45a16.61,16.61,0,0,1,2,2.35C517.61,99.34,501.7,84.08,500.59,82.58ZM472.84,97.23c-.43-.5-.34-.81.41-1.28s1-.49,1,0a2.82,2.82,0,0,1-.41,1.28C473.48,97.78,473.3,97.78,472.84,97.23ZM486,90.35c-.67-1.56.27-.78,5.49,4.55,8.35,8.53,12.19,12.55,13.87,14.51h0a8.22,8.22,0,0,1,1.22,1.6c-.1,0-4.58-4.23-10-9.39C490.18,95.45,486.55,91.6,486,90.35Zm4.47,17.71c-.86-.67-3.25-3.84-2.89-3.84a14.73,14.73,0,0,1,2.11,2.23C491.66,108.77,491.8,109.07,490.48,108.06Zm-36.37-7.83c-.38-1,.78-.07,4.08,3.31,2.54,2.59,5.31,5.55,6.17,6.57a10.55,10.55,0,0,1,1.39,1.85C465,111.87,454.51,101.32,454.11,100.23ZM528,126.83c.57.35.61.61.18,1s-.72.32-1.15-.47C526.43,126.29,526.79,126.07,528,126.83Zm12-9.63a4.68,4.68,0,0,1-1,2l-1,1.26.33-1.25C538.71,117.61,540,116.08,540,117.2Zm-9.14,2.34a16.32,16.32,0,0,1-1.67-2.74c.75,0,4.78,2.26,4.77,2.68a5.1,5.1,0,0,1-.63,1.66C532.74,122.25,532.68,122.2,530.87,119.54Zm-56.6,13.69c-.77-.66-3-2.52-5-4.14a59.75,59.75,0,0,1-4.83-4.37c-1.4-1.57-1.65-1.77,4.32,3.47a8.85,8.85,0,0,0,2.58,1.78,11.57,11.57,0,0,1,3,2.23C476.85,134.5,476.78,135.38,474.27,133.23Zm16.47-3.71c.95.95,1.57,1.73,1.38,1.73-.6,0-3.68-2.87-3.38-3.17C488.89,127.92,489.8,128.57,490.74,129.52Zm13.7,3.6c-3.1-2.43-4-3.43-4.93-5.73-.68-1.6-.93-2.7-.59-2.6.54.18,6.25,6.78,8.59,9.93a4.62,4.62,0,0,1,.85,1.35C508.28,136.07,506.51,134.74,504.44,133.12Zm16.09.78.24-1.3,2.28,1.11,2.27,1.12-3.25,1.57h0c-3.13,1.52-6,2.26-3.77,1A4.59,4.59,0,0,0,520.53,133.9Zm-27.21,6.86c-2.47-.39-4.49-1.23-4.5-1.87s1.16-1.6,2-1.61,1.6.55,4.78,3.07C496.77,141.28,496.71,141.29,493.32,140.76Z"/><path class="cls-2" d="M159.9,167.25a7.4,7.4,0,0,1,1.78,1.55c.48.79,7.93,4.17,11.77,5.34s8.51,1.89,8.93,1.37-1.11-2.88-4.06-7.09c-3.63-5.17-4.28-6.3-6.14-10.62a33.27,33.27,0,0,1-2.49-9.48c-.42-5.36.81-13.47,2.66-17.65a20,20,0,0,0,1.16-3.26,22,22,0,0,1,4-7.78,53.46,53.46,0,0,1,9.41-8.52c4.94-3.11,13.25-5.93,18.62-6.31a24.69,24.69,0,0,1,9.18,1c2.55.69,14.72,5,15.23,5.39a4,4,0,0,0,1.64,0c1.31-.17,1.4-.23,1.47-1,.17-1.95-2.47-6-6.36-9.84-4.55-4.44-13.22-9.94-18.85-12-1.51-.53-3.38-1.25-4.15-1.59-4-1.75-14.82-3.14-20.38-2.64-3.93.36-13.38,3.57-16.06,5.47a75.06,75.06,0,0,0-7.43,6.84h0a6.11,6.11,0,0,0-.87,1.07c-.08.18-1.34,1.86-2.8,3.73-4,5.19-5.37,8.41-7.55,18.14a68.92,68.92,0,0,0-2,14.19c0,1.33-.05,3-.09,3.66-.11,1.48.38,4.63.73,4.77a14,14,0,0,1,1,3.73,51.12,51.12,0,0,0,2.11,7.14c.4.91,1.09,2.56,1.54,3.66C153.44,160.47,157.22,165.48,159.9,167.25ZM176.17,170l.42.87-.69-.77h0a3.5,3.5,0,0,1-.74-1.14C175.08,168.41,175.7,169,176.17,170Z"/><line class="cls-2" x1="146.79" y1="65.56" x2="146.79" y2="65.56"/><path class="cls-2" d="M254.54,39c0,.1-1.56,2.48-1.85,2.86-.43.56-.36.72.37.92a2.87,2.87,0,0,0,1.49,0c.47-.08,1.88-.29,3.14-.45s2.91-.42,3.69-.58a22.86,22.86,0,0,1,2.41-.36,9.06,9.06,0,0,0,1.25-.13c.27-.08.35.06.4.74,0,.26.17,1.11.34,1.89s.34,1.58.39,1.78a29.29,29.29,0,0,1,.4,2.94,4.94,4.94,0,0,0,.61,2.38,1.09,1.09,0,0,0,1.13,0c.22-.27,3.2-5.56,3.63-6.45.22-.44.57-1.24.79-1.78a5.62,5.62,0,0,1,.49-1.05,23,23,0,0,1,2.75.4,36.83,36.83,0,0,0,4.78.67l2,.16a10.07,10.07,0,0,0,1.63,0c.57-.06,1.18-.39,1.25-.69a2.74,2.74,0,0,0-.67-.81c-.38-.37-1.09-1.11-1.57-1.64s-1.17-1.24-1.53-1.56A17.13,17.13,0,0,1,279.14,35c-.71-1.15-.75-1.35-.41-1.78a15.89,15.89,0,0,0,.86-1.34c.32-.55.93-1.49,1.34-2.08s1-1.38,1.2-1.75.89-1.26,1.44-2c1-1.25,1-1.29.95-1.74a1.23,1.23,0,0,0-.31-.68c-.24-.2-.3-.19-1,.09a15.26,15.26,0,0,1-1.82.65,23.39,23.39,0,0,0-2.41.88,1.83,1.83,0,0,1-.39.16l-1.7.61c-1.62.59-1.92.65-2,.38a.24.24,0,0,0-.17-.22,1.15,1.15,0,0,1-.26-.61,34.51,34.51,0,0,0-1.06-3.94c-.31-1-.64-1.92-.74-2.14a7.77,7.77,0,0,1-.68-2.18c.06-.33-.7-.7-1-.48a2.74,2.74,0,0,0-.39.8,10.65,10.65,0,0,1-.52,1.22c-.73,1.38-2.22,4.33-2.51,5-.37.82-1,1.79-1.19,1.76a1.41,1.41,0,0,1-.41-.33c-.16-.16-.63-.56-1.05-.89A28.71,28.71,0,0,1,262.21,22c-.32-.32-.72-.7-.89-.84s-.59-.5-.94-.82-1-.82-1.42-1.13c-.64-.46-.85-.56-1.26-.58a1,1,0,0,0-.64.14,1.22,1.22,0,0,0-.17.24c0,.07.8,3,1.06,3.77a12.8,12.8,0,0,1,.62,2.5,10.74,10.74,0,0,0,.85,2.57,11.48,11.48,0,0,1,.48,1.34c0,.06.05.15.13.2a.28.28,0,0,1,.12.27,3.5,3.5,0,0,0,.28.95,6.35,6.35,0,0,1,.33,1c0,.37-2.12,3-3.44,4.15a15.4,15.4,0,0,0-1.2,1.17C255.58,37.6,254.55,38.92,254.54,39Zm3.4-.36A10.43,10.43,0,0,0,259.39,37a.19.19,0,0,1,.13-.14,18.89,18.89,0,0,0,3.14-3.9.63.63,0,0,1,.26-.38c.19-.08.18-.2-.07-1.08a20.31,20.31,0,0,0-1-2.83,11.61,11.61,0,0,1-.71-2.49,4.68,4.68,0,0,0-.35-1.13,14,14,0,0,1-.87-2.74,5.38,5.38,0,0,1,.63.52c.3.28,1,.83,1.47,1.22a40.2,40.2,0,0,0,4.21,3.12,8.56,8.56,0,0,1,1.15.67c1.19.79,1.31.84,1.66.64s.39-.53.08-.75-.39-1.16-.16-2l.4-1.52a7.09,7.09,0,0,1,.31-1c.05-.09.24-.58.42-1.09a8.5,8.5,0,0,1,1.14-2.27c.06,0,.19.28.28.73a2.34,2.34,0,0,0,.26.82.1.1,0,0,1,.08.11,4.78,4.78,0,0,0,.25,1,26.7,26.7,0,0,1,.85,3.79c.21,1.57.2,1.68-.19,2s-.44.49-.22.8.25.22,1.8-.27c.89-.27,1.65-.49,1.69-.49a11.07,11.07,0,0,0,1.23-.36l1.84-.56c.38-.1,1-.3,1.38-.45a2.73,2.73,0,0,1,.73-.23,9,9,0,0,1-1.42,1.74,39.66,39.66,0,0,0-4,5.41,3,3,0,0,0,.84,1.13,13.09,13.09,0,0,1,2.25,2.21,10.8,10.8,0,0,0,1.26,1.32,13.56,13.56,0,0,1,2.2,2.19c0,.06-.36,0-.78,0a19.09,19.09,0,0,0-2.27-.22,25.64,25.64,0,0,1-4.42-.48c-1.4-.23-1.92-.27-2.08-.17a.65.65,0,0,1-.39.09.72.72,0,0,0-.46.2,57,57,0,0,0-3.07,5.28c-.74,1.59-.68,1.59-.91,0a9.6,9.6,0,0,0-.58-2.52,16.64,16.64,0,0,1-.53-1.63c-.18-.61-.4-1.37-.5-1.68a2.76,2.76,0,0,1-.15-.73c0-.13,0-.12-.23,0a.79.79,0,0,1-.62.14,5.27,5.27,0,0,0-2.28.35,10.13,10.13,0,0,1-1.47.37,4.87,4.87,0,0,0-1.52.53,4.84,4.84,0,0,1-1.49.5l-1.07.19-.74.15c-.27,0-.58.13-.7.16a.91.91,0,0,1-.33.05c-.07,0-.11-.06-.1-.11S257.17,39.4,257.94,38.62Z"/><path class="cls-2" d="M6.32,195.09a25.83,25.83,0,0,1-5,.49,1,1,0,0,0-.53.11.84.84,0,0,1-.44.13c-.2,0-.4.38-.26.55a3.35,3.35,0,0,0,.87.33c.43.12,1.39.44,2.13.72a15.92,15.92,0,0,0,2.42.7,10.62,10.62,0,0,1,2,.57l1.15.45c.25.07.21.12-1,1-.68.49-1.61,1.16-2.08,1.47a8.28,8.28,0,0,0-.89.66c-.26.77-.11,1,.48.68a8.8,8.8,0,0,1,2.58-.87l1.5-.15c.46,0,1.15-.16,1.52-.24a5,5,0,0,1,.76-.15,1.74,1.74,0,0,1,.19.73A11.12,11.12,0,0,0,12,203.6c.1.35.28,1.3.4,2.11a11,11,0,0,0,.8,2.94,7.64,7.64,0,0,1,.79,2.88.74.74,0,0,0,.12.46.8.8,0,0,1,.12.49h0c0,.22,0,.26.19.23a1,1,0,0,0,.33-.08,21.48,21.48,0,0,0,1.16-3.6c.2-.78.48-1.75.61-2.15.4-1.2,1.14-3.9,1.29-4.73.12-.59.18-.77.27-.71l.66.44,1.47.94c1.19.75,3.21,2.09,3.64,2.41s.66.21.75-.28a.51.51,0,0,0-.18-.55c-.25-.24-1.07-1.18-1.93-2.21l-.84-1a8.55,8.55,0,0,1-1.14-1.48,5.65,5.65,0,0,1,1.05-.09c.56,0,1.56-.08,2.22-.14l2-.18a29.82,29.82,0,0,0,3.38-.57c.6-.15,1.23-.54,1.23-.77s-.15-.21-.48-.32c-3.26-1.06-4.61-1.49-5.88-1.87a20.78,20.78,0,0,1-2.31-.84,11.88,11.88,0,0,0-1.27-.55c-.29-.1-.44-.2-.4-.26s.3-.53.57-1a18.49,18.49,0,0,1,1.71-3c.42-.56.51-1,.26-1.26-.1-.12-.25-.07-.84.27a12,12,0,0,0-2.26,1.68l-1.13.94c-.11.08-.19-.12-.36-.89a45.19,45.19,0,0,0-1.21-4.36,15.84,15.84,0,0,1-.48-1.75c-.23-1.18-.64-1.27-1.35-.3a8.41,8.41,0,0,0-1,2.43c-.14.49-.39,1.3-.55,1.81s-.48,1.37-.72,1.92a10,10,0,0,0-.49,1.22c0,.28-.07.28-.79-.18-.33-.21-1.24-.77-2-1.24L6.77,188.8A13.13,13.13,0,0,0,5.51,188c-.06,0-.2.1-.32.26-.27.36-.22.51.39,1.26.27.33.53.64.57.71s1.22,1.42,2.73,3.14a8,8,0,0,1,.85,1.07,7,7,0,0,1-1.31.27C7.71,194.85,6.76,195,6.32,195.09Zm2,.67c-.12,0-.14,0-.05-.07a.22.22,0,0,1,.19.05S8.4,195.79,8.3,195.76Z"/><path class="cls-3" d="M38.54,24.72c.22-.43.08-.71-.47-.92s-4.26.73-5.94,1.5c-.41.19-.42.22-.21.46s.16.3.09.35h0c-.08.05.08.09.35.08l.72,0a15.93,15.93,0,0,0,1.76-.37c.84-.2,2-.43,2.51-.5C38.17,25.18,38.36,25.08,38.54,24.72Z"/><path class="cls-3" d="M45.32,27.86c.32-.4.32-.45.1-.76a.74.74,0,0,0-.63-.31c-.62,0-5.34,3.6-5.46,4.12a1.87,1.87,0,0,1-.59.68,12.58,12.58,0,0,0-1.12,1.09h0l-.58.65.36.07c.4.08,2-.95,3.94-2.48.61-.49,1.68-1.29,2.37-1.76A10.29,10.29,0,0,0,45.32,27.86Z"/><path class="cls-3" d="M43.69,36.84h0c.23.34.74.15,1-.36a5.69,5.69,0,0,0,.07-3.36c-.75-1.07-1.35.07-1.08,2.07a4.21,4.21,0,0,1,0,1.12A1,1,0,0,0,43.69,36.84Z"/><path class="cls-3" d="M29.19,18.06c.34.21,4.61,1.47,6.22,1.84a44.18,44.18,0,0,1,4.82,1.56c.49.18,1.48.49,2.19.69a59,59,0,0,1,6.82,2.46c.36.22.39.81.21,3.88a67.53,67.53,0,0,1-.77,7.39c-.52,3.24-.69,5.48-.41,5.54.08,0,.11.16.08.33h0a.28.28,0,0,0,.25.37c.45.1,1.09-.67,1.27-1.5a14.22,14.22,0,0,1,.75-2.09A16.77,16.77,0,0,0,51.46,36a75.71,75.71,0,0,1,2.47-7.37c.2-.54.49-1.41.65-2,.48-1.59.66-2,.88-1.84a48,48,0,0,0,5.76.8c.78.07,2.65.27,4.16.44a42.69,42.69,0,0,0,4.44.28c.93,0,2.57,0,3.65,0,2,0,2,0,2-.38a1,1,0,0,0-.1-.67,8.78,8.78,0,0,0-2-.83c-2.05-.65-5.61-1.85-9.07-3.06a36.48,36.48,0,0,1-3.68-1.49c-.78-.38-1.72-.82-2.1-1a12.77,12.77,0,0,1-2.76-1.24,2.18,2.18,0,0,1-.2-.86,11.34,11.34,0,0,0-.16-1.2c-.07-.28-.23-1-.37-1.61a30.72,30.72,0,0,1-.57-4.5,10.74,10.74,0,0,0-.26-1.76,42,42,0,0,1-.72-5.88,2.72,2.72,0,0,0-.12-1C53.14.11,52.63-.19,52,.12l-.39.2-.08,1.73a21.55,21.55,0,0,1-.34,3,44.31,44.31,0,0,0-.46,7,27.18,27.18,0,0,1-.43,5c-.14.22-1.44.23-5.5,0-2.38-.11-3.77-.13-6.58-.06-.62,0-1.52,0-2,0s-1.27-.05-1.75-.05a32.47,32.47,0,0,1-4.82-.38c-.31-.2-.79.35-.8.91A.77.77,0,0,0,29.19,18.06Z"/><path class="cls-3" d="M34.29,36.78a8.25,8.25,0,0,0,2-1.33c.28-.27.29-.33.11-.64-.28-.46-.72-.41-1.41.17-.85.72-1.14,1.16-1,1.5h0A.68.68,0,0,0,34.29,36.78Z"/><path class="cls-3" d="M55,34.13c-.49.41-.49.87,0,2.67.39,1.4.48,1.56.86,1.62s.43,0,.5-.39a10.33,10.33,0,0,0-.74-3.92C55.4,33.87,55.33,33.87,55,34.13Z"/><path class="cls-3" d="M60.55,33.08c-.44-1.22-2.75-3.68-3.35-3.58-.38.06-.43.74-.1,1.35a6,6,0,0,0,1,1.21,6.61,6.61,0,0,1,1.06,1.18,1.48,1.48,0,0,0,.77.66h0C60.64,34.1,60.83,33.83,60.55,33.08Z"/><path class="cls-3" d="M67,33.16c.18,0,.3-.07.34-.28s-.23-.53-1.92-1.66c-2.14-1.43-2.31-1.47-2.47-.58-.11.6,0,.71,1.69,1.72a5,5,0,0,0,1.69.76A3.34,3.34,0,0,1,67,33.16Z"/><path class="cls-3" d="M61.8,36.47c-.1.47.17.94,1.58,2.83.59.77,1.22,1,1.41.42.08-.23-.12-.7-.69-1.62C62.83,36,62,35.45,61.8,36.47Z"/><path class="cls-4" d="M412.47,1282.6a49,49,0,0,0,.39-11.09,73.56,73.56,0,0,1,.45-8,9.15,9.15,0,0,0-.73-5c-.75-1.48-.61-3.22-.85-4.84a47,47,0,0,1-.93-8.88,28.81,28.81,0,0,0-.72-6.71,5.36,5.36,0,0,1,.08-1.43c0-.33.28-.77.14-1a8.42,8.42,0,0,1-1-4.55c-.07-2.42-1.81-4.43-1.09-7,.62-2.2-.17-4.55-.84-6.7a7.73,7.73,0,0,1,.32-4.74,23.06,23.06,0,0,1,2-5.73,11.65,11.65,0,0,1,4.72-4.59,25.25,25.25,0,0,0,3.07-2c.59-.41,1.11-.75,1.85-.33a1.28,1.28,0,0,0,1.1-.12c1.22-.49,2.6-.44,3.5-1.87a2.62,2.62,0,0,1,2.85-.37c1.58,1,2.75.14,4-.42.79-.34,1.54-1,2.24.11.06.1.32.18.38.13.84-.69,1.79,0,2.5-.15a5.83,5.83,0,0,1,3.84.38c.64.27,1.55-.09,1.89.89a.31.31,0,0,0,.23.16c2.36-.23,4.06,1.69,6.28,1.92.23,0,.65.08.66.15.16,1.63,1.51,1.47,2.57,1.78a1.32,1.32,0,0,1,.82.77c1.16,2.48,3.43,3.75,5.59,5.17a4.11,4.11,0,0,1,1.49,1.74c.44,1.08,1.25,1.89,1.78,2.91,1,1.85,2.25,3.55,3.33,5.36.63,1,.73,2.42,1.64,3.28,1.34,1.27,1.26,3.15,2.19,4.66s2,3.36,1.38,5.43a2,2,0,0,0,.14,1.7c1.31,1.81.63,3.72.35,5.59a3.17,3.17,0,0,0,.41,2.08c.67,1.25,1,2.45,0,3.77a2.79,2.79,0,0,0-.25,3c1,1.76.33,3.48-.14,5a14.48,14.48,0,0,0-.69,7.7,1.43,1.43,0,0,1-.45,1.44,3.16,3.16,0,0,0-1,2.8c.38,2.26-.3,4.43-.39,6.65a3.28,3.28,0,0,0,3.49,3.42,49.75,49.75,0,0,1,14.92.06,26,26,0,0,0,5.22.07c2.72,0,5.31.7,7.95,1.08,3,.43,5.53,1.83,8.22,2.94,1.66.69,3,2,4.66,2.64a1.41,1.41,0,0,1,.74.68c.77,2,2.94,3.15,3.47,5.37a7.14,7.14,0,0,0,1.13,2.19c1,1.39,1,2.93,1.15,4.54.26,2.5-.5,4.89-.19,7.42a7.58,7.58,0,0,1-2.72,6.32c-1.41,1.32-2.15,3.1-3.23,4.64-.47.68.24.71.6.75,2.74.26,4.29,1.89,5.16,4.35.16.45.15.94,1,.65s1,.91.93,1.43a4.22,4.22,0,0,0,1.49,3.48c1.33,1.3,1.06,3.15,1.69,4.69.22.55-.73.87-.58,1.56.62.22,1.23-.87,1.82,0V1333a9.3,9.3,0,0,0-.91,3.06c-.37,3.64-2.06,6.68-4.17,9.56a2.8,2.8,0,0,1-1.7,1.23,5.78,5.78,0,0,0-2.5,1.44c-.67.63-.83,1.36,0,2a12.08,12.08,0,0,1,3.73,4.59,69.71,69.71,0,0,1,2.94,6.9,8.85,8.85,0,0,1,.08,3.33c-.12,1.58-.55,3.14-.18,4.76a2.24,2.24,0,0,1-.4,1.53,57.4,57.4,0,0,1-4.14,6.67,11.52,11.52,0,0,1-2.15,2.15c-.78.6-.89,1.22,0,1.88s1.22,1.27,1.92,1.78a6,6,0,0,1,2.39,5,2.8,2.8,0,0,0,.08.87c1.69,4.73.06,9.14-1.34,13.56a3.69,3.69,0,0,1-1,1.59c-1.61,1.53-3,3.37-5,4.41-.18.09-.39.2-.45.37-.63,1.85-2.5,1.86-3.82,2.72-2.38,1.54-5.06,2.1-7.58,3.17a23.31,23.31,0,0,1-7.17,1.7c-5.55.48-11.08,1.15-16.66,1.26a.41.41,0,0,0-.25.13h-1.46a28.53,28.53,0,0,0-6.4,0h-4.37a1.48,1.48,0,0,0-1-.15c-4.84,0-9.68-.21-14.51-.19-3.91,0-7.83-.43-11.75,0a6.71,6.71,0,0,1-2.6-.1c-.48-.53.06-.78.35-1,.94-.72.69-1.34,0-2a8.3,8.3,0,0,0-2.52-1.7,2.82,2.82,0,0,1-1.77-1.81c-.28-1-1.17-1.39-1.72-2.12a41.81,41.81,0,0,1-3.86-6,13.31,13.31,0,0,1-1.12-7c.14-1.93.22-3.87.47-5.79a8.65,8.65,0,0,1,.43-2.14c1.1-2.86,2.11-3.45,5.13-2.85a6.6,6.6,0,0,0,3.58-.07,2.77,2.77,0,0,1,1.73,0c1.73.57,3.45.06,5.17.06,4.08,0,8.06-1.22,12.16-.82a37.83,37.83,0,0,0,6.38-.38,53.71,53.71,0,0,1,9.74,0,35.71,35.71,0,0,0,6.37-.41c.24,0,.51-.22.7-.14,2,.74,4-.06,6,.11a16.22,16.22,0,0,0,4.9-.38c.47-.1.95-.36,1.39,0a3.59,3.59,0,0,0,3.22.26,2.61,2.61,0,0,1,1.3-.08c3,.77,6.07-.2,9.11-.08a.38.38,0,0,0,.28,0,37.57,37.57,0,0,0,4.55-4c.38-.39,0-.93-.39-1.25a2.58,2.58,0,0,0-2.71-.55,14.69,14.69,0,0,1-7.31.72c-2.24-.2-4.45-.09-6.68-.07a36.44,36.44,0,0,1-7.38-.24,4.44,4.44,0,0,0-1.3-.15c-3.42.42-6.85.28-10.28.41-.87,0-1.74.14-2.61.15-4.85.06-9.69.5-14.53.62-3.28.08-6.55.64-9.85.3a12,12,0,0,0-4,.55,32.09,32.09,0,0,1-9.65,1.17,3.5,3.5,0,0,0-2.95,1.24c-1,1-2.2,1.74-2.95,3a1.21,1.21,0,0,1-1.15.49c-5.3-.25-10.59-.22-15.88-1-2.84-.39-5.6-1.09-8.42-1.47-.82-.12-1.58-.47-1.65-1.38s.75-1.28,1.51-1.5c2.05-.61,4.23-.6,6.3-1.1a23.25,23.25,0,0,1,9.57-.64,6.24,6.24,0,0,0,3.82-.65c1.4-.69,2.87-.21,4.3-.06a13.39,13.39,0,0,0,2.9-.09c.65-.08.88-.38.53-1-1.7-2.76-1.53-5.77-1.48-8.86.05-2.86.18-5.7.36-8.55.19-3.08,2.26-4.93,4.1-7a1.85,1.85,0,0,1,1.79-.41,28.31,28.31,0,0,0,5.36.36,143.13,143.13,0,0,0,17.81-.49c2.87-.22,5.79-.59,8.68,0a1.26,1.26,0,0,0,.58,0c3.7-1,7.41-.27,11.11-.11a37.91,37.91,0,0,0,4.78-.18c4.27-.36,8.52.7,12.79,0a12.87,12.87,0,0,1,4.05.29c2.48.39,4.91-.56,7.37-.1a2.17,2.17,0,0,0,1.76-.57,9,9,0,0,1,2.17-1.45,1.41,1.41,0,0,0,.8-1.13c.41-1.93.31-2-1.66-2.12-2.24-.19-4.46-.89-6.74-.54-3.61.56-7.22,0-10.83,0-2,0-4.05.4-6.1.32a2.24,2.24,0,0,0-1.5.47,1.82,1.82,0,0,1-2.5,0,3.53,3.53,0,0,0-2.66-.45c-2.93.36-5.87.45-8.82.55-3.82.13-7.67,0-11.47.5-2,.29-4,0-5.95.29a24.78,24.78,0,0,0-3.31.43,2.5,2.5,0,0,1-1.29.13c-3-.88-6.05,0-9.07,0a10.46,10.46,0,0,1-4.28-.68,1.28,1.28,0,0,0-1.75.55c-.46.68-1,1.34-1.47,2a6.2,6.2,0,0,1-4.62,2.33c-2.92.28-5.87.17-8.78.68a6.39,6.39,0,0,1-4.79-.64,1.09,1.09,0,0,0-.95-.08,17,17,0,0,1-10.66-.33c-.57-.22-1.32-.35-1.34-1.14s.65-1.29,1.35-1.54a20.54,20.54,0,0,1,5.94-1.32,9.93,9.93,0,0,0,2.86-.5,4,4,0,0,1,1.55-.35c4.09.27,8.11-.85,12.19-.64a20.48,20.48,0,0,0,4.48-.47c1.31-.22,1.48-.74.66-1.76s-1.63-1.66-2.42-2.51a2.25,2.25,0,0,1-.8-1.8c.25-2.43-.29-4.82-.24-7.24a27.12,27.12,0,0,1,2.54-12,5.15,5.15,0,0,1,3.83-2.87,13,13,0,0,1,4.62-.31,4.59,4.59,0,0,0,3-.34,3.44,3.44,0,0,1,1.85-.25,36.7,36.7,0,0,0,7.26-.13,9.57,9.57,0,0,1,2.33-.06c5.54.54,11.11,0,16.66.26a7.16,7.16,0,0,0,2.17-.13c4.4-1.17,8.86-.8,13.31-.5a22.2,22.2,0,0,0,5.52-.22c2.57-.47,5.25,0,7.76-1a2.73,2.73,0,0,1,1.3,0,21.49,21.49,0,0,0,7.77-.87c1.23-.3,2.79-2.57,2.77-3.8,0-.85-.56-1.06-1.25-1.1a9.8,9.8,0,0,0-4.58.59,7.41,7.41,0,0,1-3,.55c-3.16,0-6.26.59-9.42.73-4,.17-7.93.6-11.91.4a21.12,21.12,0,0,0-5.78.46c-5.13,1.19-10.32.8-15.5.55-.68,0-1.36-.08-2-.08-4.36,0-8.72.27-13.08,0a14,14,0,0,0-3.74.36,10.06,10.06,0,0,1-4.32-.31,2.47,2.47,0,0,0-3,1.49c-1.06,2-2.39,3.57-5.08,3.71a18.09,18.09,0,0,0-7.75,2.28,7.31,7.31,0,0,1-3.17,1c-2.27.15-4.46.85-6.74,1.09a31.19,31.19,0,0,0-8.09,1.64,5.23,5.23,0,0,1-2.46.12c-1.54-.17-2.05-1.3-1-2.42,1.94-2.06,4.05-4,6.91-4.64,3.91-.81,7.73-1.91,11.55-3,2.64-.75,5.26-1.53,7.95-2.11a38.28,38.28,0,0,0,4.37-1.6c1.24-.43,1.31-1,.53-2.05a10.12,10.12,0,0,1-2.45-5.14c-.18-1.79-1.39-3.43-1.51-5.28-.18-2.81-.71-5.68,1-8.28a3.76,3.76,0,0,0,.37-2.4,3,3,0,0,1,2.21-3.47,1.52,1.52,0,0,1,.28-.09c3.41-.35,6.68-1.5,10.12-1.72s7-.46,10.43-.86c2.84-.34,5.77.2,8.52-.64,2.94-.88,6-.24,8.9-.88a2.81,2.81,0,0,1,1.29.09,4.7,4.7,0,0,0,1.29.21c1.9,0,2.38-.6,2.29-2.91-.05-1.27-.9-1.84-2.52-1.58s-2.93-.36-4.44-.33c-3.82.07-7.62-.06-11.45.27-3.55.31-7.12,1.1-10.73.6a6,6,0,0,0-1.88.18c-4.47.76-9,1.22-13.38,2.51a93.27,93.27,0,0,0-8.79,3.28A1.76,1.76,0,0,1,412.47,1282.6Z"/><path class="cls-5" d="M82.66,1244.34c.52-.76.29-1.68.53-2.52a3.7,3.7,0,0,1,4.53-2.94,6.25,6.25,0,0,1,3.27,1.61c2.53,2.12,4.88,4.43,7.21,6.75a6.59,6.59,0,0,0,4.1,1.65c1.22.15,2.89-1.75,3.09-3.41a4,4,0,0,0-.09-2c-1.39-3-2.69-6.15-5.58-8.14a6.51,6.51,0,0,1-3-4.44,3.55,3.55,0,0,1,.33-2.53c1.06-1.77,1.81-1.88,3.82-1.6,2.63.37,4.51,2,6.44,3.45,3.64,2.69,6.87,5.82,8.76,10.1a8.26,8.26,0,0,1,0,6.49c-.51,1.35-.42,2.19,1.14,2.94,2.1,1,3.41,3.13,5.26,4.54,2.33,1.78,4,4.28,6.13,6.18a31.75,31.75,0,0,1,5.08,5.54,3.57,3.57,0,0,1,.64,3c-.54,2.81-1.35,5.39-3.94,7.06a4.14,4.14,0,0,1-4.69,0c-.08,0-.15-.15-.23-.16-3.34-.21-4.65-3.34-7-5-4.08-2.84-6.82-7.12-10.35-10.58-.75-.74-1.47-1.23-2.53-.55a1.43,1.43,0,0,1-1,.2c-2.57-.55-5.18-.13-7.76-.41a2.39,2.39,0,0,1-1.47-.55c-1.49-1.55-3.66-2-5.23-3.3-3-2.45-5.88-5-7.47-8.71Z"/><path class="cls-5" d="M179.91,1153.13A116.5,116.5,0,0,0,193,1164.49a83.41,83.41,0,0,1,9.74,8.64c1.28,1.33,1.13,1.42-.12,2.79s-3.16,1.85-4.6,3a4.2,4.2,0,0,1-2.42,0c-5.54-1.89-9.05-6.52-13.51-9.86a64.59,64.59,0,0,1-6-5.68,6.3,6.3,0,0,1-2-4.38c-.12-2.86.69-4,3.39-5,.47-.18,1-.26,1.32-.79Z"/><path class="cls-4" d="M432.8,1418c-.85.63-2,0-2.83.61h-1.45c-.2-.27-.62-.4-.52-.85A4.89,4.89,0,0,1,432.8,1418Z"/><path class="cls-6" d="M468.43,1418.63a13.71,13.71,0,0,1,6.4,0Z"/><path class="cls-7" d="M326.66,1246.76c.63,3.33,1.22,6.66,1.88,10,.62,3.13,2.62,5.1,5.25,6.77s5.31,1,8,1c4.16-.1,8.26-.39,12.33,1.15a61.4,61.4,0,0,1,11.23,5.32c1.57,1,2.93,2.25,3.13,4.31.06.59.61.84,1,1.15a3.89,3.89,0,0,1,1.86,3.42,3.45,3.45,0,0,0,1.29,2.51c2.17,2.24,2.69,5,2.6,8a28.69,28.69,0,0,0,.42,3,105.54,105.54,0,0,1,.67,12,30.91,30.91,0,0,1-1.42,7.65c-.81,2.7-1.74,5.32-2.75,7.93a7,7,0,0,1-2.89,3.69c-1.55,1.07-2.6,2.58-4,3.8-3.31,3-6.75,5.62-11.21,6.66a29.22,29.22,0,0,0-3.25,1c-2.92,1.08-6,1-9,1.72-3.55.85-7.22.77-10.77,1.53a4.77,4.77,0,0,1-1.3.15,59.35,59.35,0,0,1-12.56-2.06,44.56,44.56,0,0,1-15.45-7.46c-2.06-1.54-4.06-3.16-6.06-4.77-1.16-.93-1.78-2.42-3-3.32a77.67,77.67,0,0,1-5.63-10.64,75.48,75.48,0,0,1-3.13-10,99.13,99.13,0,0,1-2.82-15.84c-.57-6.42-1-12.85-2.08-19.22a27.52,27.52,0,0,1-.48-5.21,53.28,53.28,0,0,1-.33-6.68c0-2-.56-2.49-2.49-2-3.23.84-6.53.79-9.82,1a125.15,125.15,0,0,0-18.28,2.31c-4.59,1-9.27,1.55-13.94,2.17-3.29.43-6.68.39-9.9,1.4a6.31,6.31,0,0,1-2.16.25c-4.38-.21-8.7.52-13,.79-2.82.17-5.59.53-8.37,1-1,.15-1.65.61-1.45,1.72.85,4.57.36,9.2.61,13.8a91.79,91.79,0,0,0,.78,13.45c.32,2,.39,4.11.57,6.17a57.35,57.35,0,0,1-.14,10.56c-.29,3-.3,6.17-.75,9.22-.81,5.63-1.64,11.32-4.91,16.23-.52.76-.61,1.75-1.31,2.41a15.54,15.54,0,0,0-1.95,1.94c-2.05,2.86-4.72,5.12-7.14,7.63a28.51,28.51,0,0,1-6.12,4.4,50.52,50.52,0,0,1-14.7,6.48c-2.13.49-4.3.36-6.46.65a88.25,88.25,0,0,1-13.8.5,36.64,36.64,0,0,1-10.75-1.55,28.71,28.71,0,0,1-8-4.11c-1.61-1.19-3.65-1.65-5-3.17a37.12,37.12,0,0,1-5.8-8.41c-1.34-2.76-2.79-5.41-3.38-8.42-1.42-7.23-2-14.43,0-21.73.84-3.09,1.74-6.15,2.87-9.12,1.07-2.79,3.35-4.84,5.16-7.17,2.8-3.62,6.76-5.58,10.91-6.9,3.41-1.08,7.07-1.39,10.64-1.93,4.37-.66,6.37-3.89,7.67-7.48a13.36,13.36,0,0,0,.26-6c-.64-4.82.49-9.45,1.1-14.15.39-3,1.7-5.63,2.44-8.48.45-1.73,2-3.22,2.82-5a99.56,99.56,0,0,1,5.5-9.41c2.63-4.28,6-8,9-12,1.71-2.22,4.35-3.51,6.51-5.31,6.34-5.26,13.53-9.19,20.83-12.93,2.11-1.08,4.15-2.57,6.4-3.06,4-.86,7.72-2.75,11.9-3.08,2.49-.2,4.91-1.3,7.37-2s4.91-1.54,7.52-.87a6.42,6.42,0,0,0,2.73-.18,5.73,5.73,0,0,1,3.57.07,1,1,0,0,0,.71,0c2.13-.81,4.3-.48,6.47-.3a25.12,25.12,0,0,0,4.5-.19,22.64,22.64,0,0,1,7.75.7c2.77.71,5.41-.16,8.11.52a41,41,0,0,0,7.47.84c1.67.09,3.29,1.24,4.89,2a9.57,9.57,0,0,0,4.43,1.2,2.12,2.12,0,0,1,1.12.21c3.24,1.84,7.09,2.34,10.14,4.63a8.36,8.36,0,0,1,1.8,1.45c.05.08.11.22.17.22,1.92.09,3.25,1.57,5,2.11.7.22,1.43.25,1.89.91a1.62,1.62,0,0,0,1.12.58,3.45,3.45,0,0,1,2,1.15,5.92,5.92,0,0,0,3,2.13c1.24.4,1.14,1.81,1.76,2.69,2.3,3.23,4.56,6.47,7,9.59a21.41,21.41,0,0,1,2.4,3.64,4,4,0,0,0,1.41,1.81c.93.32,1.23,1.2,1.64,1.94a76.4,76.4,0,0,1,5.82,13.38A2.48,2.48,0,0,1,326.66,1246.76Z"/><path class="cls-7" d="M432.8,1418a20.3,20.3,0,0,0-4.8-.24,2.1,2.1,0,0,0-2.09-.21,2.41,2.41,0,0,1-2.93-.38,1.62,1.62,0,0,0-1.38-.26c-1.29.29-2.56.51-3.63-.59a.77.77,0,0,0-.68-.2c-1.06.43-1.92,0-2.94-.29a24.3,24.3,0,0,0-7.94-.41c-1.28.1-2.52.27-3.47-.89a1,1,0,0,0-1.08-.24c-.79.25-1.07-.18-1.62-.68a2.62,2.62,0,0,0-2.44-.87,3.06,3.06,0,0,1-3.5-1.07,4.54,4.54,0,0,0-2.53-1.85c-.18,0-.46-.21-.46-.32,0-1.61-1.51-1.83-2.36-2.63a2.24,2.24,0,0,1-.92-2.26,4.37,4.37,0,0,0-.87-3.43,7.68,7.68,0,0,1-1.24-5.8c.27-1.62.34-3.28.57-4.91.08-.54-.16-1.42,1.12-1.16.36.07,1.12-1.2,1.48-2,.24-.5-.42-.48-.77-.58-.55-.89-.12-1.29.73-1.56a2.34,2.34,0,0,0,1-4.06,21.35,21.35,0,0,1-4.12-5.24,3.59,3.59,0,0,1-.69-2.31c.1-.66-.37-1-.83-1.24a2.56,2.56,0,0,1-1.31-3,8.58,8.58,0,0,0-.22-3,11.15,11.15,0,0,1,.28-5c.49-1.72,1-3.43,1.35-5.2.37-1.92,1.85-3,3.35-4,1.71-1.18,1.72-1.19.09-2.33-2.49-1.75-4.6-4-5.19-6.92s-1.67-5.79-.79-9c.81-2.89,1.58-5.78,2.55-8.62.31-.92,1.21-1.23,1.9-1.72,2.05-1.45,2.1-1.71.65-3.79-.63-.9-1.52-1.66-1.64-2.86a8.14,8.14,0,0,1-1.62-4.17.48.48,0,0,0-.12-.26c-1.19-1.06-1.1-2.47-1.39-3.89a19.09,19.09,0,0,1,.08-5.45,3.09,3.09,0,0,1,1.05-2.17c.17-.16.46-.35.46-.53,0-2,1.61-2.54,2.88-3.48,2-1.49,3.81-3.21,6.1-4.35a37.7,37.7,0,0,1,5.63-2.68,6,6,0,0,0,2.15-1.18,2.21,2.21,0,0,1,1.27-.66c2-.07,3.41-1.44,5-2.43,1.79-1.13,3.71-2.07,5.57-3.09,1.51-.66,3-1.26,4.52-2a25.35,25.35,0,0,1,5.46-1.67c2.31-.57,4.6-1.66,7-1.82,3.32-.23,6.54-1.17,9.95-1a53.3,53.3,0,0,0,9.67-.65,40.24,40.24,0,0,1,7.08-.46c2,.1,4-.2,5.9.17a31.34,31.34,0,0,0,4,.21,1.83,1.83,0,0,1,1.63,2.37c0,.19-.08.38-.11.57-.09.66.73,1.47-.22,2a4.21,4.21,0,0,1-3.36.45,3.11,3.11,0,0,0-2.36,0,2.11,2.11,0,0,1-1,.12c-3.75-.55-7.29,1.05-10.95,1.06-2.32,0-4.59.21-6.89.37a93.72,93.72,0,0,0-10,.78,82.12,82.12,0,0,0-8.34,1.56c-1.84.52-2.28,1.27-2.09,3.19a3.43,3.43,0,0,1-.92,3.22,1.3,1.3,0,0,0-.51,1c0,1.75-.29,3.53-.16,5.2a10.82,10.82,0,0,0,1.19,4.68,6.2,6.2,0,0,1,.74,2.92c.08,1.57,1.25,2.66,2.2,3.74s1,2.35-.56,2.75c-2.83.73-5.4,2.53-8.51,2.17a.88.88,0,0,0-.42.08c-4.75,2.27-9.93,3.06-15,4.31-3,.73-5.05,2.79-7.15,4.8-.7.68-.29,1.5.71,1.6a9.88,9.88,0,0,0,4.55-.71c2.56-1,5.35-.71,7.95-1.37,2.95-.75,6.2-.28,8.86-2.23a9.78,9.78,0,0,1,2.75-.91,24,24,0,0,1,5.87-1.16,2.31,2.31,0,0,0,2.1-1.56c.39-1,2-1.65,1-3.23.52.15,1,.44,1.18.32,1.85-1.79,3.65.36,5.47,0,.27,0,.6.1.86,0,2.88-1,5.82-.57,8.75-.31,1.66.15,3.26-.31,4.92-.3,4.7,0,9.38.48,14.09.37a28.33,28.33,0,0,0,6.75-.8c3.34-.89,6.73-.21,10.09-.42,4.82-.29,9.65-.29,14.43-1.1a13.44,13.44,0,0,1,2.62-.07,7.6,7.6,0,0,0,3.38-.67c1.6-.74,3.33-.53,5-.45.89,0,1.19.72,1.1,1.57a5.5,5.5,0,0,1-3.87,4.3,43,43,0,0,1-8,.73c-2.06.07-4.26.5-6.39.76a48.59,48.59,0,0,1-8.53.31c-3.95-.2-7.91-.49-11.86.51-2.57.65-5.31.08-8,.22-2.35.13-4.71-.63-7,.19a3.06,3.06,0,0,1-1.85-.19c-2.91-.73-5.79.22-8.68,0-1.3-.08-2.62.21-3.9-.22-.05,0-.11,0-.14,0-2.57,1.7-5.48.23-8.19.88a6.2,6.2,0,0,0-4.53,4.07,26,26,0,0,0-1.87,9.44c-.06,2.14-.38,4.46.54,6.58a.74.74,0,0,1,0,.55c-.89,1.56,0,2.5,1.09,3.45a17.22,17.22,0,0,1,2.21,2.31c.72.94.43,1.57-.73,1.8a25.37,25.37,0,0,1-5.9.6c-3.92-.16-7.82.49-11.71.8a35.88,35.88,0,0,0-8.94,1.58c-.55.2-1.1.37-1.63.61a1,1,0,0,0-.68.87c0,.56.5.5.81.67,3.14,1.68,6.54.84,9.84,1,1.14-1.25,2.14-.35,3.35,0a11.08,11.08,0,0,0,6.79-.47.82.82,0,0,1,.56-.08c2.13,1.1,4.24-.14,6.35-.15,2,0,3-2,4-3.49s1-1.58,3-1a8.41,8.41,0,0,0,3.71.42c1.7-.27,3.45.2,5.1-.49a1.4,1.4,0,0,1,.86,0c3.37,1,6.68-.34,10-.24,2.92.09,5.78-.35,8.66-.45,5.24-.19,10.52.23,15.72-.77a2.9,2.9,0,0,1,2.81.81c.55.59.9.5,1.37-.06a2,2,0,0,1,1.52-.76c3,0,5.9-.47,8.83-.42,1.06,0,2.44-.2,3.52.55a1,1,0,0,0,1,0c2.52-.93,5.23-.61,7.75-.51,1.58.06,3.34.55,5.05.65.14,0,.38.06.39.12.16,1.06-.36,2.06-.18,3.14.08.44-.55.65-1,.74a3.12,3.12,0,0,0-1.7,1,3.14,3.14,0,0,1-3.31,1,4.59,4.59,0,0,0-3,.14c-1.05.41-2-.1-3-.08-2.26.06-4.51-.39-6.8-.07a29.56,29.56,0,0,1-5.94-.17c-2.72-.19-5.46.13-8.2.18s-5.68-.28-8.53-.45a4.11,4.11,0,0,0-1.44,0,12.74,12.74,0,0,1-4.57.39,40.5,40.5,0,0,0-7.38.26,71,71,0,0,1-10,.51c-1.3,0-2.62-.22-3.86.42a.64.64,0,0,1-.42.08c-2.61-1-5.41-.14-8-.8a2.47,2.47,0,0,0-3.08,1.18c-.57.94-1.4,1.72-2.06,2.62-1,1.37-.88,3-1,4.61a56.5,56.5,0,0,0,.09,13.38,5.63,5.63,0,0,0,1.16,2.3c.7,1,.41,1.31-.78,1.56-2,.41-3.84,0-5.75-.23a2.31,2.31,0,0,0-1.26.25,10.16,10.16,0,0,1-7.75.35,2,2,0,0,0-1.29,0c-3.08,1.29-6.44,1.19-9.64,1.92-.14,0-.29,0-.43,0-.85.25-2.18.17-2.21,1.24s1.24,1,2.15,1.13a22.38,22.38,0,0,1,2.81.63c4.54,1.14,9.24.91,13.82,1.77,1.37.26,2.91-.62,4.38-.2,3.46,1,4.71-2,6.69-3.67a2.69,2.69,0,0,1,2-.93c4.33.48,8.45-.75,12.61-1.57,1.79-.36,3.54,0,5.33-.11,4.71-.35,9.45-.25,14.15-.71,3.38-.34,6.77-.05,10.15-.47,2.74-.33,5.55.34,8.33-.31a11.63,11.63,0,0,1,3.46.25,49.74,49.74,0,0,0,7.72,0c2.76-.23,5.51.32,8.28.26a9.81,9.81,0,0,0,4.64-.94c.86-.47,3.29.63,3.55,1.54a1.48,1.48,0,0,1-.72,1.75,11.58,11.58,0,0,0-3.54,3.18,1.16,1.16,0,0,1-.86.47c-2.52-.25-5,.48-7.46.3a15.1,15.1,0,0,0-5.11.12c-.13,0-.33.06-.42,0-2.08-1.51-4.19.16-6.24-.1-1.84-.23-3.73.57-5.31.17-2.27-.59-4.27.15-6.38.25-1.9.1-3.75-.32-5.64-.35-4.18-.08-8.31.64-12.47.6a128.33,128.33,0,0,0-14.67,1.17.39.39,0,0,1-.15,0c-2.77-.78-5.6.16-8.38-.31-3-.49-4.78.94-5,4a46.36,46.36,0,0,0-.52,6.62c.17,2.62.06,5.31,1.85,7.71a42.32,42.32,0,0,1,3,4.61,2.22,2.22,0,0,0,1,1c.3.14.74.25.74.63,0,1.62,1.14,2,2.34,2.55a10.43,10.43,0,0,1,2.8,2.29c.53.47.23.84-.07,1.25s-1.06.66-1.56,1Z"/><path class="cls-4" d="M385.41,1316.94c.88,1.22,1.79,2.41,2.62,3.66a1.73,1.73,0,0,1-.61,2.79c-.32.21-.68.38-1,.59-2.38,1.61-2.42,4.39-3.3,6.73a23.19,23.19,0,0,0-.83,3.82,8.11,8.11,0,0,0,.24,5.1,3.22,3.22,0,0,1,.3,2.67c-.16.35.1.63.32.91a3,3,0,0,1,.57.82c.86,2.89,3.07,4.55,5.44,6.07.93.6,1,1.18-.08,1.74a12.45,12.45,0,0,0-2.93,2.12,4.34,4.34,0,0,0-1.38,2.65,38.56,38.56,0,0,1-1.33,5,11.25,11.25,0,0,0-.23,4.59,8.16,8.16,0,0,1,.17,3.72c-.34,1.13.49,1.77,1.4,2.25.64.34,1.36.62.78,1.61-.28.48.12.92.34,1.34a19.28,19.28,0,0,0,4.81,6.13c.71.59,1,1.27.47,2s-.28,2.5-2.06,2.31c-.92-.1-.77.64-.8,1.2a4.2,4.2,0,0,1-3.47-.47c-1.86-1.17-3.79-.91-5.68-.8a27.94,27.94,0,0,1-5.17-.29c-4.42-.55-8.87-.87-13.31-1.21a18.79,18.79,0,0,1-4.57-.64c-1.07-.36-2.37.37-3.51,0-4.18-1.36-8.58-1.17-12.83-2a123.38,123.38,0,0,0-13.17-1.82,12.88,12.88,0,0,1-5.29-1.43.86.86,0,0,0-.83-.14c-1.29.7-2.57.32-3.8-.08-3.13-1-6.41-.64-9.61-1.07-2-.28-4-.15-6.05-.56a11,11,0,0,0-4.92,0,3.7,3.7,0,0,1-3-.56,6.68,6.68,0,0,0-3.88-1c-1.24.07-2.42-.44-3.72-.31-.77.07-.7-.9-.33-1.32,1.47-1.7.39-3-.64-4.2a6.65,6.65,0,0,1-1.41-2.33,6.18,6.18,0,0,0-1.07-2c-3.28-4.08-6.67-8-11.54-10.35-.73-.35-1.31-.85-1.16-1.79,1.84-1.41,3.59-3,6.06-3.16a2.54,2.54,0,0,0,1.24-.38c2.11-1.49,4.66-1.86,7-2.85,5-2.13,10.3-2.83,15.64-3.58a27.55,27.55,0,0,0,7-1.87,46.78,46.78,0,0,1,11.08-3.4,68.48,68.48,0,0,0,7.93,1.64,46.67,46.67,0,0,0,9.73-.28c4-.48,7.92-1.46,11.95-1.77a31.28,31.28,0,0,0,4.33-1.18,57.5,57.5,0,0,0,6.57-2.19,15.17,15.17,0,0,0,4.47-2.91c1.21-1,2.4-2.11,3.71-3a1.62,1.62,0,0,0,.45-.36c1.5-2.46,4.3-3.69,5.77-6.16C376.58,1319.58,381.11,1318.65,385.41,1316.94Z"/><path class="cls-4" d="M279,1261.05c.29,4.68,1.21,9.29,1.67,14,.25,2.49.43,5,.65,7.5.31,3.56.89,7.08,1.31,10.62a50.1,50.1,0,0,0,1.59,7.32c.94,3.4,1.86,6.84,3.12,10.19,1.52,4,3.87,7.55,5.78,11.34.33.73-.18,1.22-.56,1.68-6.69,8-14.61,14.42-24.46,18.15-3.12,1.19-6.34,2.1-9.43,3.38-1.36.56-1.55,1.1-.66,2.24.48.61,1,1.16,1.51,1.77,1.08,1.37,2.3,2.51,4.25,2.31a.81.81,0,0,1,.65.29A11,11,0,0,1,266,1356c.28,1.56.91,3.1,1.08,4.74a37.81,37.81,0,0,1-.24,12c-1,4.83-4.1,7.77-8.47,9.61a5.37,5.37,0,0,1-2.14.34c-1.8,0-3.6.07-5.39,0a12.52,12.52,0,0,1-8.86-4.31c-1.08-1.17-2-2.53-2.94-3.79a4.23,4.23,0,0,0-2-1.58c-1.26-.43-1.34-1.51-1.12-2.64-.12-1.61.76-2.83,1.32-4.24,1-2.5,2.15-5,3.06-7.49,1.06-3,2.17-5.9,3.22-8.86.69-1.93.51-2.24-1.57-2.11q-5.37.35-10.74.2a72.82,72.82,0,0,0-7.68-.08,10.53,10.53,0,0,1-4-1c-3.56-1.25-7.38-1.63-10.84-3.17a35.85,35.85,0,0,1-7.55-4.16,2.2,2.2,0,0,0-.74-.45c-2.71-.63-4.72-2.37-6.7-4.17a6.57,6.57,0,0,1,1.29-3.19,27.35,27.35,0,0,0,3.72-11.3c.18-1.81,1-3.51.94-5.39-.09-2.43.67-4.81.5-7.26a17,17,0,0,1,.28-2.73,47.45,47.45,0,0,0-.41-11.29c-.28-2-.49-4.06-.6-6.09-.19-3.56-.69-7.12-.31-10.7a8.56,8.56,0,0,0,5.48-.85,2.65,2.65,0,0,1,3,.18,1.26,1.26,0,0,1,.33.46c.68,1.9.68,1.82,2.63,1.88a21.91,21.91,0,0,0,4.72-.65c2.73-.51,5.5-.39,8.22-.84.79-.13,1.62-.25,1.63-1.44,0-1.66-.59-2.23-2.43-2.1-.93.07-1.9.57-2.79-.16a3.7,3.7,0,0,1,3.61-1.69c3,.07,5.73-.86,8.58-1.41,6.61-1.28,13.15-2.89,19.72-4.37a85.59,85.59,0,0,1,9.87-1.58c1.4-.15,2.68-1,4.15-1.16a62.09,62.09,0,0,0,7-1.5A15.12,15.12,0,0,1,279,1261.05Z"/><path class="cls-5" d="M235.92,1370.39a3.74,3.74,0,0,1,.34,1.4c.06.45.26,1,.75.92,1.31-.14,1.75.86,2.37,1.63,1,1.25,1.94,2.54,2.93,3.8a4.62,4.62,0,0,0,1.08,1.16c2.6,1.62,5.1,3.51,8.45,3a13.24,13.24,0,0,1,1.89,0c7.3.19,12.19-4.16,13.12-11.45.53-4.19-.15-8.31-.29-12.46a2,2,0,0,0-.59-1.29c-.57-.61-.94-1.2-.37-2,.32-.49-.17-.91-.43-1.29a4,4,0,0,1-1-1.91,1.21,1.21,0,0,1,1.06-1.17,4.6,4.6,0,0,1,4.06,1.77c.43,1.12,1.55,1.31,2.41,1.9a26.41,26.41,0,0,1,5.31,4c1.76,2,3.91,3.66,5.29,6,1.08,1.81,1.81,3.8,3.26,5.42.83,1,1.39,2.31-.2,3.35-.3.2-.23.61-.14,1.09a4.84,4.84,0,0,1,3.94.53c1,1.67,1.5,3.56,2.31,5.27,1.52,3.22,3.1,6.44,4.54,9.7,1.12,2.53,2.28,5.13,1.21,8.07a14.38,14.38,0,0,0-.28,2.74c-.05.38-.18,1.12-.71.86-1-.48-1.56.18-2.23.57a10.51,10.51,0,0,1-5.54,1.52,8.13,8.13,0,0,0-2.44.3c-2.82.81-5.74.44-8.61.74-3.06.32-6.14.46-9.21.66s-6.35,1.1-9.67.58c-1.53-.24-3.36.17-4.95.06-2.93-.21-5.8.19-8.7.14-2.57,0-5.14.34-7.71.46s-4.87-.66-7.35-.67c-.7,0-1.44-.11-2.16-.14s-1.47-.25-1.68-1.11c-.6-2.48-1.69-4.9-1.13-7.56.06-.28,0-.65.1-.85,1.82-2.48,1.22-5.61,2.23-8.29,1.42-3.78,2.3-7.73,4.33-11.32A17.28,17.28,0,0,0,234,1371C234.23,1369.59,235.19,1370.33,235.92,1370.39Z"/><path class="cls-5" d="M326.66,1246.76a35.36,35.36,0,0,1-2.5-6.32c-1.33-3.69-3.43-7-5.27-10.39,4.87-5.08,10.21-9.68,14.82-15a2.64,2.64,0,0,1,1.61-.92c1.49-.26,2,0,2.33,1.5.13.56.29,1.12.4,1.69a5,5,0,0,1-2.05,5.57c-3.52,2.67-6.26,6.21-9.45,9.25-.2.19-.42.44-.24.77s.49.25.77.27a29.07,29.07,0,0,0,4.75-.57c4.56-.53,9.13-1,13.69-1.47,3.81-.36,7.57-1.29,11.4-1.23,2.7,0,5.37-.43,8.07-.33,1.5.05,3,.06,4.51.05,1.87,0,2.59,1,2,2.7-.08.22-.2.51-.12.69.83,1.88-.6,3-1.44,4.28a5.74,5.74,0,0,1-3.49,2.84,28.65,28.65,0,0,0-4.51,1.94,4.21,4.21,0,0,1-1.77.61c-2.34-.19-4.54.75-6.85.69a6.05,6.05,0,0,0-2.69.47c-.22.1-.53.31-.67.23-1.74-1-3.4.32-5.1.15a2.11,2.11,0,0,0-1.15.06c-2.33,1.32-5,1.1-7.51,1.67-1.14.27-2.48.86-3.8.33a1.08,1.08,0,0,0-.7.09A11.14,11.14,0,0,1,326.66,1246.76Z"/><path class="cls-7" d="M439.14,1170.93a31,31,0,0,1-.47,5.16,11.59,11.59,0,0,0,.2,3.17c.25,2.39-.9,4.53-.92,6.85a1.44,1.44,0,0,1-1.4,1.27c-1.35.14-2.72.13-3.7-.88-2-2-4.16-4-2.8-7.37a.89.89,0,0,0,.07-.42c-.84-5.11-.06-10.25-.27-15.36,0-1.22.62-1.84,1.84-1.56.85.2,1.28,0,1.53-.76.1-.31.22-.68.67-.64a.88.88,0,0,1,.78.76,6.06,6.06,0,0,0,3.39,4.12,1.65,1.65,0,0,1,.83,1.45A28.24,28.24,0,0,1,439.14,1170.93Z"/><path class="cls-7" d="M415.3,1191c0,1-.55,1.49-1.46,1.27-1.37-.32-2.94-.34-3.7-1.89a.8.8,0,0,0-.86-.41c-.53,0-.68-.27-.71-.71a3.6,3.6,0,0,0-1.6-2.58,8.14,8.14,0,0,1-1.51-2.33,80.51,80.51,0,0,1-4.46-9,4,4,0,0,1-.32-2.94,1.82,1.82,0,0,0-.23-1.54,4,4,0,0,1-.33-2.27c0-.35.1-.64.54-.73a7.26,7.26,0,0,1,8.12,4.72c.39,1.11.72,2.18,1.89,2.77a1.68,1.68,0,0,1,.81,1.48c.07,3,1.53,5.67,2.72,8.33C415,1187.12,415,1189.08,415.3,1191Z"/><path class="cls-7" d="M460.82,1191.15c-.93-.15-1.83-.54-1.85-1.84a11.84,11.84,0,0,0-1.05-4.93,2.51,2.51,0,0,1,.14-2.51,124.16,124.16,0,0,0,5.76-11.4,11.56,11.56,0,0,1,1.39-2.21c.79-1,1.56-1,2.4,0l.17.24c1.18,1.59,3.28,3.1,3.25,4.84,0,2.33-1.29,4.71-2.31,6.93a27.34,27.34,0,0,0-1.9,5.31C466.29,1187.86,462.87,1191.08,460.82,1191.15Z"/><path class="cls-5" d="M208.39,1177c3.67.08,5.31,1.18,5.7,4,.25,1.83-.39,3.62-.62,5.42a2.17,2.17,0,0,1-2.19,1.78c-1.16.07-2.31.41-3.45.37-4.05-.16-5.68-2.86-5.31-6.74C202.86,1178.12,204.59,1176.87,208.39,1177Z"/><path class="cls-7" d="M459.63,1246.17a37,37,0,0,1-2,12.34,9.72,9.72,0,0,1-1.47,2.66,1.77,1.77,0,0,1-2.12.82c-1-.42-.41-1.33-.38-2,.11-3.48,2.25-6.42,2.63-9.85.19-1.72.82-3.38.74-5.14a1.77,1.77,0,0,1,.46-1.34c.43-.45.55-.87.1-1.38s-.16-1,.13-1.46a.65.65,0,0,1,.74-.33,1.34,1.34,0,0,1,.85,1.25A26.12,26.12,0,0,1,459.63,1246.17Z"/><path class="cls-7" d="M441.08,1253.36c-1.31,4.15-1.53,8.67-4.34,12.3a1.92,1.92,0,0,1-.18.22c-.62.55-1.05,1.66-2.09,1.19s-.8-1.57-.71-2.47a13.57,13.57,0,0,1,2.43-6.43,54.08,54.08,0,0,0,2.95-5.32c.3-.56.4-1.6,1.16-1.42S441,1252.59,441.08,1253.36Z"/><path class="cls-7" d="M444.72,1262.9a10.37,10.37,0,0,1,1-4.67c1-2.37,1.66-4.85,2.47-7.28a3.26,3.26,0,0,1,.32-.8c.3-.45.71-.91,1.28-.84s.51.77.49,1.2c-.14,3.38.45,6.85-1.56,10-.58.9-.33,2.26-1.1,3.21-.15.18-.21.44-.35.64-.51.72-1.14,1.55-2.08,1.29s-.37-1.24-.51-1.9A5.1,5.1,0,0,1,444.72,1262.9Z"/><path class="cls-6" d="M207,1246.65a7.26,7.26,0,0,0,0-1.16c-.09-.46-.09-1-.65-1.2s-.75.31-1.06.61a20.48,20.48,0,0,1-4.8,3.74c-3,1.52-6,1.55-7.95-2.17s-1.53-6.3,1.73-8.9a34.92,34.92,0,0,1,5.36-3.19c.43-.23,1.28-.23,1.13-.85s-.94-.33-1.43-.28c-3.65.35-6.66-1.09-8.05-4.36-.93-2.21-1.86-4.61-.8-7.09,1.15-2.7,5.66-4.3,8.31-3a17.24,17.24,0,0,1,1.75,1c.48.32,1,.83,1.56.47s.24-1,.08-1.57c-.63-2.28-1.33-4.56-.95-7,.35-2.26.69-4.51,2.86-5.92a5.9,5.9,0,0,1,5.09-.15c2.82,1.41,3.41,4.23,4.51,6.73.21.5.35,1.2,1,1.1s1.45-.31,1.49-1.29a1.28,1.28,0,0,1,.25-.67,22.59,22.59,0,0,1,4.52-5.09,7.79,7.79,0,0,1,6.16-1.53,4,4,0,0,1,3.29,3.72c.3,2.87-1,5.28-2.25,7.67s-.92,3.15,1.87,3.15a21.68,21.68,0,0,1,5.9.6,6.37,6.37,0,0,1,4.52,3.77,4.91,4.91,0,0,1-2.79,6.33,18.89,18.89,0,0,1-6.59,1.54c-.29,0-.58,0-.87,0a1.46,1.46,0,0,0-1.35.72c-.21.55.44.78.8,1,1.13.83,2.29,1.62,3.45,2.42a5.9,5.9,0,0,1,2.39,3.37c.43,1.63,1.26,3.17.53,5a5.74,5.74,0,0,1-5.33,4,10.85,10.85,0,0,1-9.33-4.12c-.28-.34-.55-.69-.85-1-.15-.16-.4-.37-.57-.35-.39.05-.25.44-.3.71a40.32,40.32,0,0,1-.85,5,9.61,9.61,0,0,1-1.74,3.32,2.88,2.88,0,0,1-2.67,1.17,3.94,3.94,0,0,0-2,.14,1.57,1.57,0,0,1-1.51-.29C208.59,1251.32,206.7,1249.56,207,1246.65Z"/><path class="cls-5" d="M279,1261.05c-4.41.53-8.67,1.87-13,2.5-1.52.22-2.9,1.3-4.21,1.24-2.14-.11-4,.79-6.07.89a39.15,39.15,0,0,0-9.78,2c-4.64,1.46-9.48,1.87-14.16,3.07-2.69.7-5.37,1.53-8.25,1.37a6.19,6.19,0,0,0-3.63,1.28,2.89,2.89,0,0,1-1.77.94c-3.57.66-7,1.75-10.7,1.93-2.32-.69-4.17,1-6.33,1.28-.89.09-1.45.11-1.94-.62,0-1.11-.15-2.23-.15-3.34a56.88,56.88,0,0,0-.55-10.43c-.35-1.92-.18-2,1.77-2.26a52.32,52.32,0,0,1,6-.84c4.94-.11,9.82-1.28,14.77-.92,2.62.19,5-.84,7.58-1.06a133.05,133.05,0,0,0,18.76-2.68,108.23,108.23,0,0,1,11.83-1.89c2.24-.27,4.57-.34,6.86-.48,3.56-.22,7.16-.22,10.62-1.26,1.19-.35,1.76.12,1.94,1.23.11.72.17,1.45.21,2.17C278.83,1257.12,278.89,1259.08,279,1261.05Z"/><path class="cls-5" d="M286.65,1267.08a128,128,0,0,1-.35-13.95c0-.34,0-.68,0-1s.17-.79.63-.86.62.37.74.73a37,37,0,0,1,1.21,6.26c.9,5.63,1.46,11.33,2.73,16.88A64.64,64.64,0,0,0,297.5,1291c1.76,3.33,3.19,6.83,4.75,10.27.36.81.11,1.24-.85,1.32-1.94.17-3-1.15-3.85-2.44-1.76-2.64-4-5-5.1-8-2.16-6.3-4.57-12.53-5.31-19.22A25.71,25.71,0,0,1,286.65,1267.08Z"/><path class="cls-5" d="M187.43,1306.55c.51-4,1.39-7.92,2.28-11.89a67.8,67.8,0,0,0,1.76-20.14c-.25-3.23-.16-6.49-.22-9.74,0-.37-.1-.84.44-.93s.68.28.86.64c.07.13.2.29.17.4-.71,2.44,1.52,4.07,1.71,6.35s.57,4.5.92,6.75a49.6,49.6,0,0,1,.11,10.55,82.7,82.7,0,0,1-1.93,13.41c-.13.56-.15,1.17-.84,1.4a.64.64,0,0,0-.43.67,6.4,6.4,0,0,1-3.17,5.7c-.82.52-1.06.27-1.31-.5A16.22,16.22,0,0,1,187.43,1306.55Z"/><path class="cls-5" d="M154,1290.25c-4.18.19-7.16,2.19-10.12,4.51a29.77,29.77,0,0,0-9.73,14.12,4.57,4.57,0,0,1-.58,1c-.82,1.18-1.44,1.19-2.18,0a8.16,8.16,0,0,1-1-7.21,14.92,14.92,0,0,1,2.61-5.15c4-4.6,8.53-8.47,14.66-9.93a11.92,11.92,0,0,1,5.6.09,2.56,2.56,0,0,1,1.05.46c.58.48,1.55.91,1.35,1.72C155.38,1290.82,154.34,1290,154,1290.25Z"/><path class="cls-5" d="M326.81,1276.88a2.33,2.33,0,0,1,1.41-1.65,35.43,35.43,0,0,1,11.55-3.66,40.75,40.75,0,0,1,8.81-.51c5.91.4,10.76,3.21,15.08,7.06.72.64.4,1.06-.34,1.39a2.72,2.72,0,0,1-2.25,0c-1.39-.59-2.82-1.08-4.14-1.78a30.44,30.44,0,0,0-10.32-3.27,23,23,0,0,0-4.76,0C336.85,1274.89,331.79,1275,326.81,1276.88Z"/><path class="cls-5" d="M295.9,1262.57c.32-1,0-2.59.87-2.71s1.24,1.43,1.42,2.39c1.57,8.38,5.3,15.94,8.83,23.58.06.13.2.25.2.38,0,.89,1.16,2,0,2.61a2.53,2.53,0,0,1-3.05-.7,11.18,11.18,0,0,1-3-4.72c-1.27-4.36-3.49-8.42-4.22-12.94C296.51,1267.84,296.24,1265.19,295.9,1262.57Z"/><path class="cls-5" d="M143.3,1307.92a8.44,8.44,0,0,1,1.93-4.74,24.5,24.5,0,0,1,10.63-7.31c.63-.23,1.52-.76,2,0s-.5,1.22-.94,1.71c-1.43,1.58-2.94,3.08-4.35,4.68a15.22,15.22,0,0,0-4,8.9,3.06,3.06,0,0,1-.42,1.53c-.83,1.21-1.82,1.22-2.67.07C144.45,1311.33,143.32,1310,143.3,1307.92Z"/><path class="cls-5" d="M327.35,1285.64a2.85,2.85,0,0,1,1.9-1.29,60.14,60.14,0,0,1,12.87-2.74,16.43,16.43,0,0,1,11.34,2.6,25,25,0,0,1,3.1,2.07c.57.55.4.89-.17,1.22a3.54,3.54,0,0,1-2.81.26c-1.63-.44-3.29-.82-4.87-1.42-4.39-1.66-8.94-1.4-13.48-1.2C332.69,1285.26,330.15,1285.46,327.35,1285.64Z"/><path class="cls-5" d="M182.59,1279.35a44.73,44.73,0,0,1-1,9.78,3.25,3.25,0,0,1-2.85,2.49c-.92.17-1.61-.07-1.27-1.23a4.14,4.14,0,0,0-.41-2.81,4.14,4.14,0,0,1-.11-2.82c1.08-4,2.71-8,2.53-12.27,0-.48-.07-1.22.56-1.36s1,.48,1.2.91a11.71,11.71,0,0,1,1.34,5C182.64,1277.79,182.59,1278.57,182.59,1279.35Z"/><path class="cls-5" d="M156.68,1313.78a9.35,9.35,0,0,1,1.92-4.83c1.32-1.67,2.73-3.27,4.08-4.93a4.24,4.24,0,0,1,2.63-1.41c.74-.14,1.16.1.82,1-1.75,4.34-2.59,9-4.95,13.15a3.69,3.69,0,0,1-2.09,1.87c-1.37.46-1.9.18-2.07-1.23C156.89,1316.25,156.81,1315.14,156.68,1313.78Z"/><path class="cls-5" d="M305.17,1261c.29-.89-.44-2.21.58-2.41s1.11,1.23,1.39,2c2,5.35,3.82,10.74,6.82,15.64a9.65,9.65,0,0,1,.43.92c.2.45.4,1,0,1.36s-.88.28-1.37.2a4.53,4.53,0,0,1-2.52-1.33,14.16,14.16,0,0,1-3.19-5.13A47.71,47.71,0,0,1,305.17,1261Z"/><path class="cls-5" d="M339.79,1290.87a16.13,16.13,0,0,1,8.34,2.44,5.81,5.81,0,0,1,2.2,2.8c.4.83-.14,1.37-1.07,1.41a8.84,8.84,0,0,1-5.62-1.59,19.7,19.7,0,0,0-9.09-3.07c-.4-.06-1,.14-1-.53s.52-.76.9-.8C336.17,1291.34,337.84,1290.7,339.79,1290.87Z"/><path class="cls-5" d="M167.76,1285.21a27.23,27.23,0,0,1,2-7.24,55.34,55.34,0,0,0,2.44-6.51c.09-.38.1-1,.7-.94s.78.48,1,.93c.45.92,0,1.82-.06,2.72a32.27,32.27,0,0,1-1.74,8.79,7,7,0,0,1-2.22,3.34c-.47.37-.89,1-1.62.63S167.79,1285.93,167.76,1285.21Z"/><path class="cls-7" d="M239.61,1338a8.72,8.72,0,0,1-3.64-.39,3.33,3.33,0,0,0-2,0,4,4,0,0,1-1.88.06c-1.54-.38-3.11-.66-4.67-1-2.52-.51-4.14-2.55-6.07-4-3.07-2.38-4-5.75-4-9.35,0-3.94,2.09-7,4.9-9.51a2.33,2.33,0,0,1,1.43-.66c2.07.07,4.08-.66,6.2-.21,1.79.37,3.64-.27,5.49-.2a45.14,45.14,0,0,0,11.12-.85c2.36-.51,4.36-1.86,6.6-2.63a11.72,11.72,0,0,1,5.54-.78,9.8,9.8,0,0,1,6,3.58,9.94,9.94,0,0,1,2.91,7.13,15.18,15.18,0,0,1-3.6,9.71c-3.26,3.71-7.49,5.58-12.13,6.75A16.1,16.1,0,0,0,248,1337c-1.36.73-2.88.27-4.27.61A12.6,12.6,0,0,1,239.61,1338Z"/><path class="cls-6" d="M218.49,1308.67c-4.58-.47-8.88-1.75-12-5.45a12.74,12.74,0,0,1-2.23-4.89,11.7,11.7,0,0,1-.12-6.5,41.28,41.28,0,0,1,2.32-5.45,6.25,6.25,0,0,1,3.38-3.23,10.54,10.54,0,0,0,2-1.18c.94-.69,1.77-1.45,3.12-1.07.57.17,1.18-.26,1.71-.6,3.48-2.25,8.33-1.5,11.61.84a.89.89,0,0,1,.31.3c1.73,3.57,4.82,6.46,5.33,10.65a10.76,10.76,0,0,1-.76,5.53c-.62,1.57-1.72,3-2,4.73-.17,1.15-1.29,1.66-2,2.33a9.75,9.75,0,0,1-4,2.32C223,1307.58,221,1309.21,218.49,1308.67Z"/><path class="cls-6" d="M246.31,1291.64c1.26-3.71,1.36-8.42,5.21-11.55a7.64,7.64,0,0,0,1-1.22c.21-.27.43-.65.79-.5,1.32.56,2.12-.55,3.17-.85,2.35-.66,4.77-1.29,7.26-.8a5.88,5.88,0,0,0,2.28.19,1.1,1.1,0,0,1,.72,0c2.42,1.43,5.42,2,7.15,4.47a14.14,14.14,0,0,1,2.66,11.19,37.65,37.65,0,0,1-1.91,5.69c-1,2.83-3.28,3.62-5.52,4.71-.73.36-1.49.68-2.22,1a5,5,0,0,1-3.9.59c-1-.31-1.93.47-2.94.59a4.55,4.55,0,0,1-2.14,0c-1.82-.64-3.63-1.27-5.44-2a4.2,4.2,0,0,1-1.74-1.5,14.54,14.54,0,0,0-1.7-2.17C246.83,1297.57,246.6,1294.89,246.31,1291.64Z"/><path class="cls-7" d="M264.48,1269.91a19.28,19.28,0,0,0,2.7-.19c1.17-.27,1.72.46,1.31,1.59a3.61,3.61,0,0,1-2.58,2.55,91,91,0,0,1-13.45,1.84c-.92,0-2.07.31-2.48-.92-.31-1,1-2.8,2.17-3.12a64.64,64.64,0,0,1,8.84-1.45A11.68,11.68,0,0,1,264.48,1269.91Z"/><path class="cls-7" d="M207.34,1276.25c.66-1,1.84-.73,2.62-.72,1.94,0,3.59-1,5.46-1.08a19.15,19.15,0,0,0,4.39-1.07c1.22.23,2.39-.34,3.6-.26,1.62.11,2.15.7,1.93,2.17-.31,2.06-.44,2.43-3.1,2.4-4.43,0-8.68,1.31-13.08,1.39-.95,0-1.49-.29-1.52-1.27A3.77,3.77,0,0,0,207.34,1276.25Z"/><path class="cls-7" d="M214.94,1319.23a18.59,18.59,0,0,1-4.68-3.21c-.23-.21-.42-.64-.8-.48s-.4.67-.31,1c.35,1.36.24,2.78.71,4.12.37,1.06-.2,1.56-1.2,1.64a3.23,3.23,0,0,1-1.43-.11,17.38,17.38,0,0,1-6.06-3.9c-.68-.74-.58-1,.42-1.32a2.47,2.47,0,0,1,2.17.41,26.71,26.71,0,0,0,3.51,2.51,27.82,27.82,0,0,1,.06-7,1.51,1.51,0,0,1,1.55-1.39c.8-.09,1.47-.06,1.79,1,.62,1.93,2.11,3.33,3.32,4.89A3.39,3.39,0,0,1,214.94,1319.23Z"/><path class="cls-7" d="M277.08,1309.89a15.21,15.21,0,0,0,2.54-4.52c.22-.63.13-1.85,1.36-1.28a1.7,1.7,0,0,1,1,2.38,33.4,33.4,0,0,1-3,5,4.27,4.27,0,0,0-.84,1.5c-.13.67-.22,1.52-1.12,1.41a2,2,0,0,1-1.78-1.66,18.21,18.21,0,0,1-.33-3.89c0-.36.15-.86-.34-1s-.64.3-.86.62a23.33,23.33,0,0,1-3.59,4.5,2.81,2.81,0,0,1,.27-2.33,45.09,45.09,0,0,1,3.33-5.1c1-1.36,2.07-1.23,2.72.43A14.33,14.33,0,0,1,277.08,1309.89Z"/><path class="cls-6" d="M275,1378.91a14,14,0,0,1-1.29,3.48c-1.2,2.59-2.49,5.13-3.69,7.72a14.67,14.67,0,0,0-.86,2.6c-.17.64-.11,1.63-1,1.37s-1.89-.63-1.74-2a8.65,8.65,0,0,1,.94-3q3-5.64,5.95-11.28c.21-.39.48-.78,1-.55S275.09,1378,275,1378.91Z"/><path class="cls-8" d="M273.88,1394.1a4.12,4.12,0,0,1,.33-2.66c1.39-2.43,2.86-4.82,4.32-7.22.17-.29.43-.6.82-.43s.37.81.26,1.16c-.65,2-1.36,3.91-2.08,5.86-.44,1.17-.88,2.35-1.43,3.48-.35.72-.83,1.72-1.71,1.56C273.35,1395.65,274,1394.53,273.88,1394.1Z"/><path class="cls-9" d="M284.13,1388.44a1.55,1.55,0,0,1,.57,1.89c-.48,1.37-.89,2.76-1.36,4.13a2,2,0,0,1-.6,1c-.56.4-1.19,1.06-1.93.63-.93-.54-.08-1.2.12-1.75C281.68,1392.19,283.08,1390.44,284.13,1388.44Z"/><path class="cls-5" d="M190.31,1185.45a14.15,14.15,0,0,1-2.07-2.43c-2.48-3.72-5.93-6.54-9.25-9.38s-6.89-5.82-10.54-8.5a58.79,58.79,0,0,0-5.58-3.54c-2.35-1.38-5.1.46-5.44,3.13-.27,2.09,1.19,3.24,2.13,4.52a77.51,77.51,0,0,0,5.91,6.54,1.4,1.4,0,0,1,.07,2.08c-.89,1-1.84,2-2.76,3-.75.82-1.26.58-2-.17-1.48-1.51-2.38-3.62-4.22-4.69a76.37,76.37,0,0,1-6.35-4.33,3.66,3.66,0,0,0-3.26-.83,4.56,4.56,0,0,1-2.94.1,7,7,0,0,0,1.45,6.69c1.36,1.48,2.78,2.95,4.27,4.34,2.08,1.94,4,4,6,6.12,2.47,2.66,5.28,4.94,7.66,7.73,1.91,2.24,4.63,3.8,7,5.6a7.37,7.37,0,0,0,4.78,1.44c1.93-.07,2.65-.75,3.11-2.62.53-2.21-.79-3.75-2.07-5.15a49.26,49.26,0,0,0-7-6.77c-1.2-.88-1.18-1.35-.1-2.46.88-.9,1.76-1.8,2.69-2.66a1.57,1.57,0,0,1,2.1-.36,24.14,24.14,0,0,1,4.07,3,16.86,16.86,0,0,0,5.81,3.73,2.76,2.76,0,0,0,3.14-.29c.31-.27.64-.49,1-.2,1.62,1.21,2-.56,2.67-1.23S191.07,1186.18,190.31,1185.45Z"/><path class="cls-5" d="M141.64,1224.11a3,3,0,0,0-3.65.77c-1.22,1.23-1.78,2.91-2.85,4.16-1.76,2.07-3.67,4-4.85,6.49-.34.72-1,.93-1.64.22s-1.29-1.31-2-1.94-.92-1.29,0-1.91c2.91-2.07,3.47-5.31,4.27-8.43a4.72,4.72,0,0,0,.09-1.3c-.16-3-2.46-4.31-5.18-3.2-2.93,1.2-4.13,3.82-5.49,6.32-.56,1-1.06,1.2-1.77.31-1.54-1.94-1.8-5.87.07-7.64a11.21,11.21,0,0,0,3.65-8.89c.41-1.84-.63-3.2-2.46-4.12s-3.68-.33-5.26.88a8.42,8.42,0,0,0-2.43,3.05c-.49,1-1,2-1.52,3-2.11,3.54-3.78,7.11-3.27,11.48a11.92,11.92,0,0,0,3.75,7.25,14.33,14.33,0,0,1,2.29,2.38,16.71,16.71,0,0,0,2.89,3.44c3.25,3,6.65,5.79,10,8.68,1.65,1.43,3.31,2.77,5.49,3.09,1.87.26,3.81.23,5.11-1.52a60.19,60.19,0,0,0,8.13-13.89C146.25,1229.48,145.56,1225.56,141.64,1224.11Z"/><path class="cls-5" d="M165,1205.48c.67-1-.08-1.36-.65-1.89a78,78,0,0,1-6.09-5.8c-1.94-2.23-4.48-3.56-6.5-5.59-1.05-1-2.6-1.63-3.62-2.63-2.54-2.49-5.88-3-8.93-4.28a3,3,0,0,0-1.3-.08,18.23,18.23,0,0,0-5.78,1.33,12.13,12.13,0,0,0-5.89,6,3.63,3.63,0,0,0,.13,3c.58,1.34-.27,2.71.42,4.07,1.6,3.11,3.6,6,5.46,8.89s5.4,4.59,7.44,7.56a.32.32,0,0,0,.12.08c2.5,1.1,3.63,3.88,6.09,5,.55,1.93,2.1,1.65,3.54,1.56.44,0,.88,0,1.31,0,1.92-.1,2.68-1.17,2.11-3a3,3,0,0,1-.15-2,1.59,1.59,0,0,0-.87-2.19c-2-.89-3.37-2.65-5.11-3.91-1.28-.93-1.28-1.75,0-2.8.74-.62,1.54-1.18,2.25-1.83,1.61-1.46,2.46-1.53,4.1-.14,1.36,1.16,2.68,2.38,4,3.56s3.2,2.26,5.16,1.45c3.35-1.37,4.68-2,2.92-5.63C165,1206,164.8,1205.78,165,1205.48Zm-21.94-6.32a27.81,27.81,0,0,0-2.32,3.49c-.84,1.21-1.34,1.2-2.1,0a18.08,18.08,0,0,1-2.73-5.4c-.41-1.83-.2-2.12,1.72-2.11,2.41,0,4,1.51,5.49,3.12A.66.66,0,0,1,143.07,1199.16Z"/><path class="cls-4" d="M204.38,1229.37a7,7,0,0,1,.49-2.73,27.6,27.6,0,0,1,2.16-4.9c1.58-2.44,4.17-3.41,6.95-3.59,1.63-.11,3.44-.18,4.51,1.58a1,1,0,0,0,.48.33c3.64,1.36,4.47,4.46,4.3,7.77-.18,3.48-.8,7-3.92,9.31a5.65,5.65,0,0,1-4.14,1.49c-1.83-.12-3.62-.05-5.31-.86C206.38,1236.07,204.73,1233.14,204.38,1229.37Z"/><path class="cls-10" d="M232.44,1319.65a7.85,7.85,0,0,1,2.75.48c.37.63,0,1.22-.11,1.82-.38,2.13.63,3.38,2.56,3.16,1.29-.14,1.83-.81,2-2.26.09-.93-.32-2,.44-2.78h2.59c.64.85.29,1.87.5,2.8.45,2,1.36,2.4,3.07,1.33,2-1.24,2.15-1.69,1.54-3.91a1.12,1.12,0,0,1-.05-.7,15.88,15.88,0,0,1,5-1.71,2.49,2.49,0,0,1,.53,1.62c0,.39,0,.78.05,1.16.18,1.47,1.2,2.63,2.29,2.6s1.84-1,2.15-2.54c.37-1.73,0-3.43,0-5.14,1.22.1,2.76,2.47,2.59,4a5.88,5.88,0,0,0-.14,1.43c.41,2.66-1,4.23-3.05,5.58-6.11,4-12.89,5.16-20,4.76a49.72,49.72,0,0,1-8.41-1.54c-2.94-.7-5.49-4.87-5-7.85.32-1.9,1.83-2.82,4.58-2.78.61.59.39,1.36.41,2.06a4.77,4.77,0,0,0,.66,2.64c.69,1,1.22,1,1.76-.1a7.06,7.06,0,0,0,.89-2.9A1.59,1.59,0,0,1,232.44,1319.65Z"/><path class="cls-6" d="M257.71,1315.57c1,1.89.51,3.88.28,5.82a2.71,2.71,0,0,1-2.58,2.33,3,3,0,0,1-2.56-2.59c-.14-1.07-.14-2.17-.2-3.26C254,1316.24,255.79,1315.81,257.71,1315.57Z"/><path class="cls-6" d="M240.05,1320.07c0,1.06,0,2.11-.05,3.17a1.94,1.94,0,0,1-1.4,2.1c-1.22.32-2.69.62-3.47-.5a3.11,3.11,0,0,1-.48-2.78c.24-.62.36-1.29.54-1.93C236.8,1319,238.43,1319.77,240.05,1320.07Z"/><path class="cls-6" d="M247.7,1319.58a5.68,5.68,0,0,1,.75,1.71,3.89,3.89,0,0,1-3.78,3.94c-1.29-.13-1.88-1-2-3-.06-.72,0-1.45,0-2.17C244.35,1320.07,246,1319.15,247.7,1319.58Z"/><path class="cls-11" d="M232.44,1319.65c.32,1.82-.53,3.38-1.17,5-.48,1.19-1.3.49-1.81,0-1.21-1.17-1.18-2.77-1.23-4.31a10.94,10.94,0,0,1,.09-1.14C229.79,1318.52,231.06,1319.49,232.44,1319.65Z"/><path class="cls-10" d="M211.15,1293.1c0-2.8,4.41-7,9-6.47a9.45,9.45,0,0,1,5.91,2.66,4.23,4.23,0,0,1,1.27,3.22,14.43,14.43,0,0,1-.16,3.52,8.49,8.49,0,0,1-3,4.92,7.56,7.56,0,0,1-7.87,1.45C213.07,1301.21,211.06,1298.63,211.15,1293.1Z"/><path class="cls-10" d="M263.67,1282.43a7.23,7.23,0,0,1,3.63.94c.74.49,1.5.91,1.34,2a.88.88,0,0,0,.26.66c1.68,1.44,1.47,3.5,1.6,5.36a5.88,5.88,0,0,1-3,5.59c-.95.58-1.73,1.84-3.18,1.29-.12,0-.36.28-.55.43s-.55.6-.8.58c-1.75-.15-3.63.66-5.21-.74-.54-.48-1.14-.89-1.72-1.32a4,4,0,0,1-1.61-2.18C252.57,1287.84,257,1283,263.67,1282.43Z"/></g></g></svg>