<svg xmlns="http://www.w3.org/2000/svg" viewBox="0 0 474 386.98"><defs><style>.cls-1{fill:#2fb094;}.cls-2{fill:#f5a40c;}.cls-3{fill:#e14122;}.cls-4{fill:#1e7ec0;}.cls-5{fill:#020202;}.cls-6{fill:#e34f32;}.cls-7{fill:#e2492c;}.cls-8{fill:#e24a2c;}.cls-9{fill:#fefefe;}.cls-10{fill:#000101;}.cls-11{fill:#e04223;}.cls-12{fill:#f9fcfb;}.cls-13{fill:#fefdfc;}.cls-14{fill:#1d78b8;}.cls-15{fill:#1d79b9;}.cls-16{fill:#f5a50c;}.cls-17{fill:#f5a50d;}</style></defs><g id="Capa_2" data-name="Capa 2"><g id="Capa_1-2" data-name="Capa 1"><path class="cls-1" d="M283.7,226c-12.26,23.13-26.23,44.94-48.54,59.83-23.59,15.75-49.33,19.2-76.57,12-2.78-.73-3.9-.55-4.82,2.44-2.31,7.47-5.05,14.81-11.13,20.27-2.08,1.87.27,2.25,1.14,2.78a156.28,156.28,0,0,0,35.45,15.76A159.48,159.48,0,0,0,220.62,346c3.14.09,5.26-1.9,8-2.27,1,.79,2.11.75,3.26.92,1.59.23,2.72.72,1.62,2.92-.67,1.34-1.69,2.49-2.08,4.13-.48,2.05-2.48.33-3.51.81.51.18,1.85-.26,1.81,1.22s-1.16,1.62-2.23,1.73a5.43,5.43,0,0,1-4.7-1.31c-4.32-1.29-8.81-.7-13.21-1.12a165.89,165.89,0,0,1-73-25,4.28,4.28,0,0,0-4.86-.25c-8.43,4.19-17.6,4.93-26.81,5.28-4.4.16-4.4.13-4.42,4.68,0,4.76,0,9.52-.12,14.27-.08,2.55.67,3.75,3.42,3.39,2.23-.29,5.23-1.07,5.26,2.51,0,3.2-2.94,3.07-5.24,3.19-6.26.35-9-2.14-9.11-8.46q-.15-8.25.07-16.49c.06-2.14-.48-3.06-2.8-2.91a82.86,82.86,0,0,1-9.19,0c-1.9-.09-2.6.44-2.56,2.44.09,5.6.08,11.2-.07,16.8-.07,2.5,1,3.12,3.24,2.92s5.28-1.16,5.44,2.33-3,3.25-5.39,3.37c-6.09.32-8.86-2.21-9-8.3-.1-5.49-.16-11,.08-16.48.12-2.69-.8-3.25-3.32-3.39-13.43-.78-26.72-2.4-39.13-8.09-12-5.51-22-13.4-28-25.47A36.26,36.26,0,0,1,.36,277.54a15.68,15.68,0,0,1,.41-2.17c1-3.59,2.55-7,6.74-7.5s6.16,2.59,7.84,5.76c1.07,2,2,4.11,3.18,6.14.07-5.26-.2-10.47.87-15.63.66-3.13,1.54-6.16,3.73-8.6,3-3.34,7.12-3.41,10.28-.24,2.63,2.64,3.66,6.13,5,9.45.71,1.76,1.29,3.57,1.88,5.37s1.12,3.53,1.93,6.12c.22-4.16-.22-7.44.66-10.67a14.33,14.33,0,0,1,4-7.07c4.61-4.26,10.85-3.74,14.67,1.27,3.16,4.15,3.64,9.13,4.22,14.06.55,4.61.65,9.27,1.9,13.78a15.8,15.8,0,0,0,3.13,6.16c3.74,4.4,10,4.6,14.67.46,5.64-5,6.8-11.8,6.78-18.76,0-10.14-.94-20.27-.38-30.42C93,224.34,95.1,203.8,103,184.31c8.42-20.89,22.48-36.2,43.7-44.54A8.65,8.65,0,0,0,150,126.08a37.75,37.75,0,0,0-2.66-2.71c-4-4-4.79-7.83-2.37-11.88s7.18-5.83,12.13-4.49a19,19,0,0,1,7.36,4.36c-.68-5.52.69-8.63,4.53-10.58,5-2.53,9.13-1.32,15.07,4.43,5.6-5.08,10.86-4.54,15.5,1.6,5.88,7.81,6.08,18.85.47,27.66-.62,1-1.31,1.91-2.12,3.07,3.6,1.4,7.14,2.66,10.59,4.12a59,59,0,0,1,35.6,60C242.5,218,237.1,232.56,225,244c-9.89,9.39-22.1,14.12-35.26,16.77-15.23,3.07-26.06,11.36-31.46,26.27-.81,2.24-.22,2.95,1.8,3.45,29.81,7.45,56.74,2,80.23-18.19C254.13,260.43,264,245.45,273,229.81a2.92,2.92,0,0,0,.59-2.38c-.75-2.49.22-4.78.94-7.09.39-.87.75-1.92,2-1.28.88.45.8,1.34.66,2.23-.59,3.65-.57,3.64,3.34,3.81C281.65,225.15,282.89,224.9,283.7,226Z"/><path class="cls-2" d="M394,145.74c.09-5,.38-9.91.23-14.85-.12-4.18-2.24-7.62-5.05-10.64-3.78-4.06-8.46-7-12.91-10.19-32.52-23.54-32.21-76.16.67-99.14C407.84-10.67,465.35-2,473.27,52.55c3.26,22.41-4.5,41.58-22.12,56.33-.65.54-1.32,1.06-2,1.57-11.5,8.75-18.17,19.84-16.85,34.8.83,4.79-2.62,9.39-9,10.24-6.05.8-12.16,1.5-18.28.18a19.18,19.18,0,0,1-7.51-3.23C395.35,150.8,393.8,148.71,394,145.74Z"/><path class="cls-3" d="M283.7,226c-1.46,0-2.93,0-4.39,0-4.24.17-4.65-.43-3.05-4.45.25-.62,1.09-1.25.31-2-1-.9-1.41.32-2.05.68,0-3.91-.09-7.82-.07-11.72,0-1.53-.26-2.23-2-1.39-5.11,2.49-8,2.25-11.19-.78a11.28,11.28,0,0,1-2.59-12,11,11,0,0,1,9.91-6.69,6.78,6.78,0,0,1,2.52.17c3.29,1.33,3.59-.67,3.52-3.06-.09-3-.19-5.92-.4-8.87s.94-4.38,3.74-4.87c3.83-.68,7.6-.06,11.33.57,2.72.46,3.44,2.35,2.73,5-1.08,4-.08,7.35,2.83,9.28,4.19,2.77,8.62,2.61,12.93.36a9.2,9.2,0,0,0,4.51-9.42c-.9-5.67-.44-6.25,5.32-6.22,3.06,0,6.12.24,9.18.4,2.62.14,3.76,1.23,3.15,4.11-.79,3.74-.17,7.58-.22,11.38,0,2.1,1.16,2.82,3.15,2.17.6-.19,1.17-.48,1.76-.7,4.22-1.61,7.81-.31,9.72,3.8a13.21,13.21,0,0,1-1.19,13.81,8.13,8.13,0,0,1-10.62,2.91c-2.65-1.26-2.83-.12-2.78,2,.08,3.38.11,6.76,0,10.14-.08,3.58-1.41,5-5,5.13s-7,.12-10.46,0c-2.61-.07-3.44,1.15-3,3.53,1.62,9.25,1.09,10.35-7.28,14.23a1.44,1.44,0,0,0-.91,1.73c1.46,22.46,7.23,43.33,23.31,60.05,10.68,11.09,24.25,16.29,39.36,17.38,13.26,1,26.21-.81,38.17-7,14.68-7.55,23.64-20.08,29.1-35.28s7.68-30.5,3.72-46.32c-2.12-8.49-6.14-15.94-13.28-21.35a17.45,17.45,0,0,0-5.73-3c-.71,5.44-.88,10.73-2.56,15.78-1.75,5.29-4.16,10.17-8.57,13.78-4.84,4-10.51,4.58-15.29,1.72s-6.76-8.29-5.49-14.37c2.29-10.94,14.68-20.35,26.63-19.81,3.09.14,3.52-.81,3.28-3.43-.55-5.88-.66-11.81-1.86-17.63a3.32,3.32,0,0,1,0-4.32,1.11,1.11,0,0,1,1.68,0c1.52,1.26,1.1,2.78.5,4.3.73,6.61,1.43,13.22,1.6,19.88,0,.9-.2,1.85,1,2.36,11.54,4.78,17,14.42,19.93,25.75,4.52,17.7,1.55,34.85-5.36,51.36-11,26.21-31.34,38.78-59.35,39.63-19.9.6-37.3-5.37-50.94-20.3-10.47-11.45-16.06-25.38-19.38-40.33a109.38,109.38,0,0,1-2.35-18.19,2.68,2.68,0,0,0-2.08-2.89c-6.56-2.33-9.06-6.92-7.35-13.62.69-2.68.43-4.06-2.75-3.7C287.3,226.06,285.49,226,283.7,226Z"/><path class="cls-4" d="M222.81,354.1c1.45.19,2.9.45,4.35.54.77.05,2,.32,2.05-.85s-1.11-.93-1.89-1.05a1.4,1.4,0,0,1-1.07-.6c1,0,2.08,0,3.12,0,1.35,0,2.5-.19,1.34-1.94a2.35,2.35,0,0,0,1.5-3.09c0-.07,1.74.07,1.23-1.13s-1.57-.88-2.51-.59c-1.57.49-3.13,1-2.29-1.7-.4-2.12-2.22-2-3.7-2.24-4.87-.83-7.52-4.48-6.61-9.29a13.35,13.35,0,0,1,7.82-10.1c4.16-1.93,8.33-.88,10.89,2.88,1.37,2,2.1,1.89,3.2-.08,1.65-3,3.39-5.84,5.16-8.72,1.94-3.15,3.84-3.75,7.16-2,2.89,1.52,5.64,3.3,8.46,5,3.15,1.86,4.24,1.43,5.16-2,1.68-6.25,6-9.32,11.45-8.2a11.61,11.61,0,0,1,8.77,12.86c-.41,2.51-1.93,4.35-3.69,6.11-2.44,2.42-2.34,2.94.59,4.62s5.69,3.22,8.55,4.8c3.28,1.79,3.69,3,1.77,6.31q-3.24,5.61-6.7,11.11c-1,1.64-.69,2.2,1.2,2.25,5.67.13,8.9,3,9.23,8.13.39,6-3.31,11.05-8.67,11.81-3.77.54-7.23-.25-9.88-3.06-1.72-1.82-2.82-1.35-3.9.44-1.85,3.07-3.56,6.22-5.49,9.24-2.62,4.09-4.23,4.39-8.31,1.95q-17.81-10.62-35.62-21.21C219.16,360.49,219.14,360.53,222.81,354.1Z"/><path d="M95.93,130.67a2.66,2.66,0,0,0,.17-.72c-.48-4,.22-7.75,4.08-9.83s7.37-.27,10.48,2.14c3.67,2.84,7.31,5.72,10.81,8.77,1.57,1.37,2.53,1.53,4.07-.09,1.17-1.23,2.58-4.16,4.7-1.71,1.79,2.07-.94,3.25-2.17,4.43q-15.52,14.91-31.16,29.7A23.14,23.14,0,0,1,95,165a1.71,1.71,0,0,1-2.52-.31,1.74,1.74,0,0,1,.12-2.55A7.38,7.38,0,0,1,94,160.86c1.88-1.22,1.4-2.16,0-3.54-4.56-4.5-8.27-9.63-9.85-15.93-1.89-7.48,3-12.45,10.65-11C95.17,130.49,95.55,130.58,95.93,130.67Z"/><path d="M394,145.74c2.21,6.31,7.07,8.71,13.35,9.35a79.52,79.52,0,0,0,15.81-.37c5.62-.54,8-4.46,9.14-9.47,1.09,8.79,1.58,17.67-1.53,26.08-1.74,4.71-6.82,5.92-11.32,6.26-5.22.4-10.53.62-15.76-.51-6.23-1.35-9.93-4.87-10.41-11-.44-5.77-.24-11.59-.31-17.39A5.26,5.26,0,0,1,394,145.74Z"/><path class="cls-5" d="M416.07,185.91c-.58-1.35.35-4.06-1.39-3.94s-.19,2.63-.76,4a7.45,7.45,0,0,1-6-4.07c-1.2-2.3-.39-3.52,2.15-3.57,3.16-.06,6.33-.05,9.49-.19,1.89-.09,2.15.71,1.7,2.3A8.18,8.18,0,0,1,416.07,185.91Z"/><path class="cls-6" d="M301.73,147.92c-.5,1.27,1,3.86-.78,4-2,.12-1-2.5-1.19-3.9-.34-2.4-.41-4.83-.56-7.25,0-.81-.28-2,.83-2.07s1.06,1,1.13,1.86C301.35,142.94,301.53,145.36,301.73,147.92Z"/><path class="cls-7" d="M312.62,154.84c-1.26-.31-1.63-.91-1.32-1.53,1.68-3.4,3.43-6.76,5.18-10.12a.92.92,0,0,1,1.32-.45,1,1,0,0,1,.32,1.39c-1.66,3.28-3.36,6.55-5,9.82Z"/><path class="cls-8" d="M282.54,147.85a12.91,12.91,0,0,1,1.27.87c1.95,1.73,3.89,3.47,5.81,5.25.5.47,1.29,1,.68,1.82s-1.3.24-1.85-.25c-2.09-1.88-4.18-3.78-6.25-5.69-.37-.34-.79-.76-.43-1.33A3.35,3.35,0,0,1,282.54,147.85Z"/><path class="cls-9" d="M163.29,176.92A25.36,25.36,0,0,1,184,181.48c11.86,8.67,19.19,20.12,19.31,35.19.08,9.06-6.57,16.81-14.52,17.81a17.09,17.09,0,0,1-9.8-2c-12.72-6.32-22.07-16.07-28.45-28.67-3-5.88-2.4-12-.39-18.08,0-1.14.92-1.62,1.65-2.16,3.05-2.27,6.27-4.28,9.44-6.36A1.89,1.89,0,0,1,163.29,176.92Z"/><path class="cls-9" d="M152.37,137.94c3-6.53,1.34-11.36-3.3-15.63-3.91-3.6-4.48-6.62-2.36-10,2.21-3.51,6.46-4.77,10.93-3.11,5.71,2.11,8.23,6.91,10.13,12.23.42,1.15.08,3.4,1.88,3,1.49-.31.85-2.38.73-3.64-.27-2.78-1.79-5.15-2.88-7.66-2.39-5.43-1.47-9,2.86-10.94,4.06-1.84,10.3.52,12.33,4.57.47.93.06,1.6-.15,2.39a34.42,34.42,0,0,0-.69,10.71,7.66,7.66,0,0,0,.6,2.44c.78,1.88,1.93,3.38,4.28,2.87,2.18-.48,2.72-2.21,2.66-4.12a30.77,30.77,0,0,0-2.86-11c-.66-1.56-1.63-3,0-4.58s3.49-2.42,5.75-1.83c2.82.74,4.73,2.72,6.31,5,5.41,7.88,4.53,20.06-1.93,27.14-.56.61-1,1.26-2.09,1C180.67,133.37,166.8,133.92,152.37,137.94Z"/><path class="cls-9" d="M200.62,151.78c15.49-.48,24.26,9.17,31.1,21.17a33.52,33.52,0,0,1,4,22.89,17.88,17.88,0,0,1-4.24,9c-4.39,4.9-10.84,5.25-15.75.9a22.11,22.11,0,0,1-4.64-5.57,91.61,91.61,0,0,0-13.62-17.78,52.88,52.88,0,0,1-3.58-4.43c-4.72-6.19-6.16-12.81-2.52-20.06A13.19,13.19,0,0,1,200.62,151.78Z"/><path class="cls-10" d="M200.62,151.78a53.88,53.88,0,0,0-9.22,6.16c-2.91,1.88-5.79,3.8-8.73,5.63-1.09.68-1.6,1.2-.38,2.27a1.63,1.63,0,0,1,.15,2.52,1.81,1.81,0,0,1-2.8.1c-1.7-2-3-.89-4.48.17-3.94,2.8-7.91,5.53-11.87,8.29a136.8,136.8,0,0,0-13.16,8.84l-3.52,2.12a1.64,1.64,0,0,1-2.47-.49,1.75,1.75,0,0,1,.32-2.54,27,27,0,0,1,2.3-1.67c8.67-5.86,17.29-11.77,26-17.51,1.92-1.26,1.84-2,.22-3.34-2.1-1.75-4-3.7-6.07-5.56-1.05-1-1.64-2.09-.51-3.28s2.17-.42,3.06.39c2.27,2.06,4.57,4.1,6.7,6.29,1.42,1.46,2.48,1.58,4.22.35,6.39-4.49,12.9-8.83,19.4-13.16,1.19-.79,2.63-2.59,4-.54,1.24,1.84-.52,2.77-1.82,3.7A16.34,16.34,0,0,0,200.62,151.78Z"/><path class="cls-11" d="M207.84,221.74c0-1.05,0-2.11,0-3.16s.47-2.1,1.75-2.21a1.68,1.68,0,0,1,2,1.85c0,2.19,1.12,2.06,2.67,1.64a7.92,7.92,0,0,0,5.07-4c.68-1.2,1.41-2.64,3.13-1.52s.73,2.39.06,3.58a11.2,11.2,0,0,1-8.52,5.85c-1.37.2-2.52.26-2.28,2.11a1.79,1.79,0,0,1-1.72,2.21c-1.43.08-2-1.06-2.07-2.3s0-2.73,0-4.1Z"/><path class="cls-12" d="M184.4,111a24.28,24.28,0,0,1,3.09,9.49c.14,1.13.22,2.55-1.32,2.78s-2-1.13-2.2-2.22A23.77,23.77,0,0,1,184.4,111Z"/><path class="cls-13" d="M404.66,69.55c1.08-.81,1.78-1.27,2.4-1.82,4.25-3.74,4.24-3.85.71-8.2-4.18-5.16-6.2-11-5.23-17.67.7-4.88,4.7-8.44,9-8.07s6.95,3.92,6.91,9.06a26,26,0,0,1-.34,4.41c-.83,4.68-1.66,9.37-3.76,13.69-.69,1.43-.2,2.07.93,2.81a34.27,34.27,0,0,0,8.6,3.91c1.61.5,2.3.11,2.74-1.46a26.43,26.43,0,0,1,3.31-7.84c1.89-2.8,4.48-4.62,8-4.12a7.15,7.15,0,0,1,6.15,5.25c.87,2.88-.25,5.21-2.32,7.1a15.08,15.08,0,0,1-11.38,3.86c-2.25-.13-3.22.46-3.88,2.82a188.7,188.7,0,0,0-5.81,71.52c.08.8.51,2-.55,2.18-1.44.3-1.23-1.13-1.33-1.95a179,179,0,0,1-.72-34.79,181.65,181.65,0,0,1,6.74-37.94c.48-1.67.31-2.38-1.48-2.79a24.26,24.26,0,0,1-8.88-4c-1.52-1.12-2.28-.72-3.27.66a10.81,10.81,0,0,1-3.3,3.36c-2.87,1.54-3,3.75-2.64,6.57a377.48,377.48,0,0,1,2.11,68.3c-.06,1.13.62,3.39-1.29,3.22-1.48-.12-.61-2.13-.56-3.3a388.09,388.09,0,0,0-1.5-62c-.27-2.41-.64-4.82-.73-7.24-.08-2-.7-2.26-2.52-1.66a16.44,16.44,0,0,1-12.62-1c-5.34-2.56-7.38-7.48-5.16-12.23,2.38-5.09,8.13-7,13.41-4.49,4.14,2,6.27,5.5,7.36,9.77C404.06,66.68,404.29,67.92,404.66,69.55Z"/><path class="cls-9" d="M411.07,208.78c4.8,0,4.77.05,4.42,4.21-.49,5.92-1.44,11.71-4.08,17.09a20.69,20.69,0,0,1-7.13,8.69c-3.91,2.52-8,3.3-12.15.66a11.18,11.18,0,0,1-4.49-11.69c2.29-10.25,9.7-15.3,19-18.3a18.65,18.65,0,0,1,2.79-.57A14.06,14.06,0,0,1,411.07,208.78Z"/><path class="cls-14" d="M402.31,163.15c-1.75-.58-4.57.71-4.58-1.17s2.75-.82,4.26-.91c8-.46,15.94-1.24,23.63-3.64a11,11,0,0,1,1.22-.33c1-.19,2.33-1.12,2.78.11.53,1.46-1.2,1.45-2.08,1.69-3.86,1-7.72,2.11-11.65,2.75C411.33,162.4,406.7,162.69,402.31,163.15Z"/><path class="cls-15" d="M403.94,172.09c-1.18-.52-3.64,1.09-3.75-1-.09-1.62,2.43-.91,3.78-1a103.36,103.36,0,0,0,23.77-4.52c.84-.26,2.1-1.47,2.61.16.4,1.27-1.09,1.35-1.89,1.61A99.37,99.37,0,0,1,403.94,172.09Z"/><path d="M202,211c.09,7.5-5.3,11.45-11.69,9.69-8.77-2.43-18-14.61-17.89-23.69.07-7.5,6.39-11.93,13.54-9.47a10.81,10.81,0,0,1,2.58,1.19C196.68,194.43,200.51,202.62,202,211Z"/><path d="M235,185.28c0,5.22-1.84,8.14-5.41,9.67-3.88,1.67-7.14,1.18-10-2a111.59,111.59,0,0,1-11.45-14.3c-3.68-5.71-3.34-11.54.59-15s10.25-3,15.24,1.46A35,35,0,0,1,235,185.28Z"/><path class="cls-16" d="M416.55,43.77c-.63,4.85-1.38,10.35-3.52,15.56-.52,1.28-.95,2.08-2.3.64-4.78-5.11-7.35-11-6.27-18.07.56-3.73,3.65-6.4,6.85-6.17s5.25,3,5.24,7Z"/><path class="cls-17" d="M395.66,72.32a15.48,15.48,0,0,1-8-2.39c-3.25-2.27-4.33-5.53-2.94-8.76a7.58,7.58,0,0,1,8.77-4.5c5,1.08,9.74,7.9,9.09,13-.14,1.09-.79,1.33-1.61,1.61A19.27,19.27,0,0,1,395.66,72.32Z"/><path class="cls-17" d="M432.13,68.57c-4.31.08-4.29.09-3.13-3.39a19.94,19.94,0,0,1,3.1-6.49c1.57-1.94,3.51-2.92,6.08-2.28a5,5,0,0,1,4,4c.52,2.46-.87,4.24-2.64,5.68A12.93,12.93,0,0,1,432.13,68.57Z"/></g></g></svg>