<svg xmlns="http://www.w3.org/2000/svg" viewBox="0 0 154.93 119.76"><defs><style>.cls-1{fill:#f55b83;}.cls-2{fill:#cb125e;}.cls-3{fill:#f87f9e;}</style></defs><g id="Capa_2" data-name="Capa 2"><g id="Capa_1-2" data-name="Capa 1"><path class="cls-1" d="M154.87,63a36.91,36.91,0,0,0-.3-4.21A42.47,42.47,0,0,0,149,44a45.65,45.65,0,0,0-4.6-6.09,39.9,39.9,0,0,0-7-6.07A35.92,35.92,0,0,0,128,27.1a1,1,0,0,0-.68-.12l-.2.11.25.09a1.23,1.23,0,0,1-.91.23c-2.76,0-5.53.06-8.29,0-3.29-.11-6.59-.24-9.87-.58a194.91,194.91,0,0,1-20.43-2.86A118.38,118.38,0,0,1,75.7,20.8C69.91,18.94,64.14,17,58.46,14.87a42,42,0,0,0-8.21-2.26,23.62,23.62,0,0,0-9.79.58,24.16,24.16,0,0,0-3.91,1.28,49.91,49.91,0,0,0-10.28,5.77,66.17,66.17,0,0,0-6.91,5.83c-1.82,1.87-3.71,3.68-5.39,5.69S10.61,35.86,9,38C7.67,39.8,6.44,41.72,5.17,43.6c-.39.58-.73,1.21-1.09,1.81a1.06,1.06,0,0,1-.46.52l.48-1a4.23,4.23,0,0,1-.66.75,28,28,0,0,0-3,8,23.7,23.7,0,0,0-.37,4.21,38.31,38.31,0,0,0,.27,7.42,26.2,26.2,0,0,0,3.4,9.17A28.47,28.47,0,0,0,18.61,86.94c5.27,1.91,10.65,3.51,15.94,5.4,5.76,2.06,11.63,3.83,17.4,5.89s11.76,3.86,17.59,6S81.18,108,87,110.07s11.77,3.83,17.59,6c2.49.91,5,1.7,7.56,2.53a21.83,21.83,0,0,0,4,1,41.59,41.59,0,0,0,6.41.2,18.7,18.7,0,0,0,3.07-.25A25,25,0,0,0,136,115a27.66,27.66,0,0,0,5.25-4.88,28.64,28.64,0,0,0,4.8-9c1-3.27,2.14-6.52,3.17-9.79,1.36-4.28,2.79-8.55,4.14-12.84a27.65,27.65,0,0,0,1.43-7.09c.06-1.13.05-2.26.18-3.38v-4A3.22,3.22,0,0,1,154.87,63ZM25.51,84.23a2.26,2.26,0,0,1-.82,0,23.25,23.25,0,0,1-8.86-3.8,25.13,25.13,0,0,1-6-5.87A48.84,48.84,0,0,1,6.1,68.73a13.82,13.82,0,0,1-1.64-7,11.48,11.48,0,0,1,.32-3.34c.12-.57.42-1,1-1s.9.4,1.06,1a45.78,45.78,0,0,0,2.52,7.13,43.18,43.18,0,0,0,5.07,8.15,41.76,41.76,0,0,0,6.08,6,32.54,32.54,0,0,0,4.76,3.25,2.33,2.33,0,0,1,.55.43A.51.51,0,0,1,25.51,84.23Zm77.82-14.6a2,2,0,0,1-1.74,1.64h0a2.78,2.78,0,0,1-1.88.21c-2-.1-4.1-.23-6.15-.34l-8.85-.49-5.45-.29-9-.49-5.71-.28c-1.45-.08-2.9-.15-4.35-.26a2.26,2.26,0,0,1-1.94-2.65,5.23,5.23,0,0,1,.18-.68q2.34-7.22,4.69-14.42c.87-2.69,1.72-5.38,2.58-8.08A2.39,2.39,0,0,1,66.92,42a2.05,2.05,0,0,1,2.15.05,18.47,18.47,0,0,1,2.4,1.82c.69.25,1.09.87,1.66,1.28,2.1,1.52,4.21,3,6.21,4.67,2.59,2.11,5.36,4,7.93,6.1s5.18,3.86,7.66,5.92,4.86,3.71,7.27,5.59A2.33,2.33,0,0,1,103.33,69.63Z"/><path class="cls-2" d="M4.08,45.41c.36-.6.7-1.23,1.09-1.81C6.44,41.72,7.67,39.8,9,38c1.59-2.13,3.25-4.2,5-6.23s3.57-3.82,5.39-5.69a66.17,66.17,0,0,1,6.91-5.83,49.91,49.91,0,0,1,10.28-5.77,24.16,24.16,0,0,1,3.91-1.28,23.62,23.62,0,0,1,9.79-.58,42,42,0,0,1,8.21,2.26C64.14,17,69.91,18.94,75.7,20.8a118.38,118.38,0,0,0,12.19,3.13,194.91,194.91,0,0,0,20.43,2.86c3.28.34,6.58.47,9.87.58,2.76.1,5.53,0,8.29,0a1.23,1.23,0,0,0,.91-.23l-.25-.09c-.71-.24-1.4-.56-2.1-.81-5.85-2-11.78-3.83-17.6-5.94s-11.61-3.79-17.35-5.87-11.77-3.86-17.6-6c-6.11-2.19-12.35-4-18.44-6.24A31.89,31.89,0,0,0,44.68.05a26.12,26.12,0,0,0-14.39,3,27.15,27.15,0,0,0-8.21,6.46A28.39,28.39,0,0,0,18.39,15c-.7,1.44-1.25,2.95-1.91,4.4-1.14,2.53-2.37,5-3.58,7.5l-6,12.31C6,41.1,5,43,4.1,44.93l-.48,1A1.06,1.06,0,0,0,4.08,45.41Z"/><path class="cls-3" d="M25.29,82.91a32.54,32.54,0,0,1-4.76-3.25,41.76,41.76,0,0,1-6.08-6,43.18,43.18,0,0,1-5.07-8.15,45.78,45.78,0,0,1-2.52-7.13c-.16-.55-.47-1-1.06-1s-.9.4-1,1a11.48,11.48,0,0,0-.32,3.34,13.82,13.82,0,0,0,1.64,7,48.84,48.84,0,0,0,3.69,5.79,25.13,25.13,0,0,0,6,5.87,23.25,23.25,0,0,0,8.86,3.8,2.26,2.26,0,0,0,.82,0,.51.51,0,0,0,.33-.89A2.33,2.33,0,0,0,25.29,82.91Z"/></g></g></svg>